<?xml version="1.0" encoding="UTF-8"?>

<svg
  version="1.1"
  id="ftc"
  xmlns="http://www.w3.org/2000/svg"
  xmlns:xlink="http://www.w3.org/1999/xlink"
  x="0px"
  y="0px"
  viewBox="0 0 500 500"
  style="enable-background: new 0 0 500 500"
  xml:space="preserve"
>
  <style type="text/css">
    .st0 {
      fill: #354a51;
    }
  </style>
  <path
    class="st0"
    d="M 250 20.019531 C 123.09375 20.019531 20 123.113281 20 250.019531 C 20 376.925781 123.09375 480.019531 250 480.019531 C 376.90625 480.019531 480 376.925781 480 250.019531 C 480 123.113281 376.90625 20.019531 250 20.019531 Z M 250 40.019531 C 366.097656 40.019531 460 133.921875 460 250.019531 C 460 366.117188 366.097656 460.019531 250 460.019531 C 133.902344 460.019531 40 366.117188 40 250.019531 C 40 133.921875 133.902344 40.019531 250 40.019531 Z M 367.128906 100 C 331.179688 118.511719 299.597656 146.167969 270.039062 173.027344 C 266.398438 176.328125 259.039062 181.277344 257.617188 184.726562 C 256.46875 187.515625 256.660156 192.210938 256.171875 195.800781 C 255.671875 199.421875 255.246094 203.304688 254.726562 206.523438 C 253.617188 213.421875 252.601562 220.25 248.339844 224.960938 C 243.179688 220.820312 243.515625 210.171875 241.796875 201.953125 C 240.667969 201.5625 240.039062 203.105469 239.238281 203.886719 C 232.808594 210.167969 225.164062 217.527344 218.554688 223.867188 C 216.105469 240.847656 213.753906 259.019531 209.84375 275.058594 C 208.644531 280 207.535156 285.707031 203.886719 288.886719 C 199.476562 281.066406 199.25 267.464844 199.121094 255.136719 C 199.070312 250.347656 198.46875 245.535156 198.730469 240.976562 C 197.621094 240.507812 196.488281 242.269531 195.507812 243.28125 C 192.609375 246.28125 188.835938 250.269531 186.015625 253.417969 C 187.246094 271.808594 189.996094 294.871094 188.867188 314.921875 C 188.605469 319.703125 188.121094 325.753906 185.78125 326.09375 C 182.269531 326.605469 177.613281 312.871094 176.582031 309.980469 C 174.0625 302.851562 172.605469 297.046875 170.566406 290.488281 C 169.238281 289.976562 168.800781 291.996094 168.359375 292.734375 C 162.019531 303.34375 161.515625 320.640625 162.714844 338.789062 C 156.816406 326.238281 149.917969 314.890625 142.089844 304.628906 C 140.398438 302.410156 139.136719 302.984375 140.214844 305.605469 C 145.066406 317.34375 149.359375 331.308594 153.007812 344.667969 C 146.039062 334.828125 135.332031 327.585938 123.671875 321.855469 C 119.78125 319.945312 118.664062 322.175781 121.875 325.234375 C 129.785156 332.765625 136.917969 341.203125 144.238281 349.433594 C 139.867188 354.183594 136.71875 364.34375 140.429688 372.695312 C 141.878906 369.84375 143.03125 367.207031 144.980469 363.925781 C 146.308594 361.6875 148.441406 357.230469 151.679688 357.519531 C 154.839844 357.800781 157.175781 365.820312 156.015625 370.371094 C 153.59375 379.8125 143.074219 390.71875 139.042969 396.777344 C 137.351562 399.308594 137.347656 401.066406 139.316406 399.277344 C 148.136719 391.277344 156.863281 382.839844 162.792969 372.441406 C 170.324219 379.0625 179.765625 383.421875 189.804688 387.070312 C 193.09375 388.261719 193.210938 387.148438 190.019531 385.097656 C 186.898438 383.097656 183.964844 380.796875 181.464844 378.085938 C 176.664062 372.886719 171.429688 365.871094 171.679688 357.03125 C 174.609375 357.769531 174.617188 360.601562 175.976562 362.460938 C 183.714844 373.121094 199.488281 376.914062 215.429688 378.652344 C 218.507812 378.992188 218.472656 377.761719 215.703125 376.933594 C 200.703125 372.433594 188.316406 364.847656 182.636719 349.316406 C 209.765625 353.214844 251.203125 358.457031 275.234375 344.257812 C 244.925781 344.539062 216.644531 342.417969 188.515625 340.117188 C 197.15625 325.515625 222.648438 322.945312 245.058594 322.636719 C 250.578125 322.558594 257.683594 324.335938 261.113281 323.105469 C 262.84375 322.484375 265.128906 317.640625 266.738281 315.332031 C 279.386719 297.191406 292.25 279.394531 303.671875 261.425781 C 295.113281 261.175781 284.917969 262.890625 280.449219 257.8125 C 283.460938 250.941406 293.355469 249.523438 303.046875 249.414062 C 305.148438 249.394531 307.453125 250.074219 309.394531 249.394531 C 312.105469 248.445312 317.367188 240.308594 320.097656 236.71875 C 329.96875 223.777344 340.925781 209.421875 350.136719 197.402344 C 356.757812 188.761719 363.550781 179.878906 369.082031 170.058594 C 374.542969 160.367188 379.710938 148.511719 379.980469 135.390625 C 380.300781 120 375.050781 107.039062 367.128906 100 Z M 335.820312 153.574219 C 317.109375 181.613281 299.382812 210.601562 278.691406 237.011719 C 258.089844 263.292969 234.804688 287.359375 213.085938 311.738281 C 250.527344 255.71875 292.949219 204.433594 335.820312 153.574219 Z M 335.820312 153.574219 "
  />
</svg>
