<?xml version="1.0" encoding="utf-8"?>
<!-- Generator: Adobe Illustrator 25.2.0, SVG Export Plug-In . SVG Version: 6.00 Build 0)  -->
<svg version="1.1" id="gala" xmlns="http://www.w3.org/2000/svg" xmlns:xlink="http://www.w3.org/1999/xlink" x="0px" y="0px"
	 viewBox="0 0 500 500" style="enable-background:new 0 0 500 500;" xml:space="preserve">
<path d="M33.7,133.3c11.2,6.5,21.6,12.4,32.1,18.5c0,65.5,0,130.7,0,196.5c46.6,28.7,93.3,57.4,140.7,86.6c0-54.9,0-109,0-163.6
	c-14.9-8.6-30.1-17.5-45.4-26.3c0-12.4,0-24.5,0-38c26.8,15.4,52.8,30.4,78.9,45.5c0,80.3,0,160.3,0,241.8
	c-69.2-42.6-137.6-84.7-206.3-126.9C33.7,289.8,33.7,212.3,33.7,133.3z"/>
<path d="M260.6,494.1c0-13.5,0-25.8,0-38.7c57.6-35.5,115.6-71.1,173.7-106.9c0-52.4,0-104.7,0-158.4c-47.4,27.4-94,54.3-140.8,81.3
	c0,18.1,0,36,0,54.3c-10.7,6.2-21.3,12.3-32.7,18.9c0-31.1,0-61.1,0-92.4c67.8-39.2,136.4-78.7,205.8-118.8c0,78.4,0,155.7,0,234
	C398.7,409.1,330.1,451.3,260.6,494.1z"/>
<path d="M45.8,116.6C114.5,79.5,182.1,42.9,250.3,6.1c67.9,36.7,135.8,73.4,204.4,110.5c-11.6,6.7-22.4,12.9-33.5,19.4
	c-56.9-30.8-113.7-61.5-171-92.4c-45.2,24.4-90.3,48.8-136.9,74c46.2,26.7,91.3,52.8,136.8,79c15.1-8.7,30-17.2,45.3-26
	c10.6,6.1,21.2,12.2,32.9,19c-26.5,15.3-52.2,30.2-78.1,45.2C182.4,195.6,114.6,156.4,45.8,116.6z"/>
</svg>
