<?xml version="1.0" encoding="utf-8"?>
<!-- Generator: Adobe Illustrator 24.1.2, SVG Export Plug-In . SVG Version: 6.00 Build 0)  -->
<svg version="1.1" id="GEN" xmlns="http://www.w3.org/2000/svg" xmlns:xlink="http://www.w3.org/1999/xlink" x="0px" y="0px"
	 viewBox="0 0 500 500" style="enable-background:new 0 0 500 500;" xml:space="preserve">
<style type="text/css">
	.st0{fill:#2E2E2E;}
</style>
<path class="st0" d="M389.6,213.8l37.1-37.1L250.1,0L73.4,176.7l37.1,37.1l-37.1,37.1l36.2,36.2l-36.2,36.2L250.1,500l176.7-176.7
	l-37.1-36.2l36.2-36.2L389.6,213.8z M96.3,176.7L250.1,23.9l152.8,152.8l-24.7,24.7L250.1,73.3l-129,128.1L96.3,176.7z M250.1,330.4
	l-79.5-79.5l79.5-79.5l79.5,79.5L250.1,330.4z M341,261.5l24.7,24.7L250.1,403.7L133.4,287.1l24.7-24.7l91.9,91L341,261.5z
	 M250.1,146.6l-91.9,91.9l-24.7-24.7L250.1,97.2l116.6,116.6L341,238.5L250.1,146.6z M96.3,250l24.7-24.7l24.7,24.7l-24.7,24.7
	L96.3,250z M402.9,323.3L250.1,477L96.3,323.3l24.7-24.7l128.1,128.1l128.1-128.1L402.9,323.3z M353.4,250l24.7-24.7l24.7,24.7
	l-24.7,24.7L353.4,250z"/>
</svg>
