<?xml version="1.0" encoding="utf-8"?>
<!-- Generator: Adobe Illustrator 25.2.0, SVG Export Plug-In . SVG Version: 6.00 Build 0)  -->
<svg version="1.1" id="lon" xmlns="http://www.w3.org/2000/svg" xmlns:xlink="http://www.w3.org/1999/xlink" x="0px" y="0px"
	 viewBox="0 0 500 500" style="enable-background:new 0 0 500 500;" xml:space="preserve">
<style type="text/css">
	.st0{fill-rule:evenodd;clip-rule:evenodd;fill:url(#SVGID_1_);}
	.st1{fill-rule:evenodd;clip-rule:evenodd;fill:url(#SVGID_2_);}
</style>
<linearGradient id="SVGID_1_" gradientUnits="userSpaceOnUse" x1="1.7838" y1="251.4507" x2="466.8946" y2="251.4507" gradientTransform="matrix(1 0 0 -1 0 501)">
	<stop  offset="0" style="stop-color:#2D2D4B"/>
	<stop  offset="1" style="stop-color:#1D1D3A"/>
</linearGradient>
<path class="st0" d="M251.7,0c-8.9,0-17.8,0.5-26.7,1.5C99.5,14.8,1.8,120.8,1.8,249.6c0,137.8,111.9,249.5,249.9,249.5h0.6
	c39.8,0,79-9.6,114.3-27.9c10.1-5.2,5.7-20.5-5.6-20.1h-0.5c-100,2.5-189.7-39.7-226.3-117.9c-21.9-46.8-21.1-90.2-10.8-124.5
	c0.1-0.3,0.2-0.6,0.2-0.9c5.2-21.1,15-40.6,29.5-55.7c1.1-1.3,2.3-2.6,3.6-3.8c0.8-0.9,1.7-1.7,2.6-2.4c0.3-0.4,0.7-0.7,1.1-1
	c0.3-0.2,0.6-0.5,0.9-0.7c0.6-0.6,1.4-1.2,2.1-1.7c24.6-20,55.5-30.9,87.2-30.8c74.6,0,135,58.2,135,130c0,24.7-7.3,48.8-21,69.4
	c59.6-20.5,102.2-75.5,102.2-140c0-36.7-13.9-70.3-36.9-96.3c-9.6-9.9-20.1-18.9-31.3-27.1l-0.1-0.1C356.1,16.7,304.8,0,252.1,0
	C252,0,251.9,0,251.7,0z"/>
<linearGradient id="SVGID_2_" gradientUnits="userSpaceOnUse" x1="133.276" y1="254.3341" x2="498.5287" y2="254.3341" gradientTransform="matrix(1 0 0 -1 0 501)">
	<stop  offset="0" style="stop-color:#95A1D4"/>
	<stop  offset="1" style="stop-color:#594DA0"/>
</linearGradient>
<path class="st1" d="M465.5,169.6c0,64.4-40.6,119.4-97.5,139.9c-16,5.8-32.9,8.8-49.9,8.8c-54.7,0-102.4-30.1-127.8-74.8
	c-6.2-10.9-11.1-29.4-14.4-45.2c-3.1-14.9-22.6-18.8-31.2-6.2c-3,4.3-5.2,9.1-6.5,14.2c-0.2,0.7-0.4,1.5-0.6,2.2
	c-0.1,0.2-0.1,0.4-0.1,0.7c-4.1,16.9-5.3,34.3-3.5,51.6c0,0.2,0,0.4,0.1,0.7c0.8,7.8,2.2,15.6,4.2,23.2c2.4,10,5.8,19.8,10,29.2
	c31.1,69.8,100.7,112.6,192.5,105.2c9.1-0.7,18.1-2,27-3.9c75.7-16,130.2-84.6,130.7-165.5v-1.5c0-10-0.6-20-1.8-30
	c-6-54.1-29.4-104.8-66.6-144.6C452.9,100.4,465.5,134.4,465.5,169.6z"/>
</svg>
