<?xml version="1.0" encoding="utf-8"?>
<!-- Generator: Adobe Illustrator 24.2.2, SVG Export Plug-In . SVG Version: 6.00 Build 0)  -->
<svg version="1.1" id="Layer_1" xmlns="http://www.w3.org/2000/svg" xmlns:xlink="http://www.w3.org/1999/xlink" x="0px" y="0px"
	 viewBox="0 0 500 500" style="enable-background:new 0 0 500 500;" xml:space="preserve">
<style type="text/css">
	.st0{fill:#BA862C;}
	.st1{fill:#E4CF68;}
	.st2{fill:#EEBB26;}
	.st3{fill:#FFFFFF;}
</style>
<circle class="st0" cx="250.6" cy="250.6" r="246.4"/>
<circle class="st1" cx="250.6" cy="250.6" r="236.3"/>
<circle class="st0" cx="250.6" cy="250.6" r="203.1"/>
<circle class="st2" cx="250.6" cy="250.6" r="196.3"/>
<polygon class="st3" points="203.9,231.2 240.9,364 193,378.1 177.8,321.8 138.8,332.8 129.9,300.5 168.1,290.5 163,270.2 
	124.7,280.2 115.9,248.4 155.4,237.4 135.7,167.6 183.1,154.6 294,267.1 259.6,134.3 306,122.3 325.8,191.6 363.8,181.7 
	373.3,213.3 334.2,224.2 339.8,244.2 377.9,233.8 387.2,264.5 348.2,276.5 363.3,331.2 316.4,344.2 "/>
</svg>
