<?xml version="1.0" encoding="iso-8859-1"?>
<!-- Generator: Adobe Illustrator 19.0.0, SVG Export Plug-In . SVG Version: 6.00 Build 0)  -->
<svg version="1.1" id="Layer_1" xmlns="http://www.w3.org/2000/svg" xmlns:xlink="http://www.w3.org/1999/xlink" x="0px" y="0px"
	 viewBox="0 0 500 500" style="enable-background:new 0 0 500 500;" xml:space="preserve">
<path style="fill:#0CEAB3;" d="M495.464,247.848c-1.218,2.42-2.792,8.281-6.418,12.285c-17.111,18.897-34.725,37.34-52.309,55.803
	c-3.018,3.168-6.545,5.972-10.205,8.384c-8.278,5.455-19.12,5.071-26.031-0.519c-7.402-5.987-10.127-16.991-5.819-26.341
	c1.982-4.303,4.799-8.465,8.077-11.887c17.058-17.802,34.377-35.353,51.634-52.964c1.851-1.889,3.886-3.596,5.835-5.387
	c6.544-6.016,14.053-7.31,21.982-3.574C490.898,227.744,495.679,234.726,495.464,247.848z M221.899,23.391
	c-0.669,7.613,1.942,13.814,7.353,18.986c7.008,6.698,14.062,13.348,21.057,20.059c12.047,11.559,23.986,23.232,36.125,34.693
	c6.186,5.841,13.185,10.93,22.235,9.379c18.473-3.165,25.613-23.195,13.247-37.327c-6.073-6.939-13.097-13.064-19.849-19.389
	c-13.794-12.924-27.672-25.757-41.561-38.577c-4.985-4.601-10.613-7.877-17.707-7.689C231.505,3.843,222.887,12.151,221.899,23.391z
	 M266.898,454.443c-17.819-17.145-35.613-34.318-53.625-51.259c-3.469-3.263-7.808-5.634-11.864-8.232
	c-11.825-7.572-30.825,4.854-30.449,18.856c0.206,7.65,2.868,13.568,8.312,18.72c19.585,18.534,39.047,37.198,58.602,55.764
	c1.587,1.507,3.464,2.742,5.314,3.936c7.342,4.737,15.098,4.983,22.667,1.005c7.753-4.074,10.326-11.581,11.303-17.231
	C277.858,464.971,272.346,459.686,266.898,454.443z M45.553,266.754c12.936-13.202,26.024-26.268,38.594-39.813
	c7.16-7.714,14.206-15.758,19.866-24.576c5.675-8.84,2.336-19.281-6.698-26.764c-7.458-6.177-15.799-6.502-24.153-0.106
	c-6.626,5.072-13.129,10.458-18.907,16.456c-13.142,13.64-25.787,27.758-38.679,41.641c-2.382,2.566-5.285,4.699-7.405,7.451
	c-5.98,7.761-6.203,16.239-2.067,24.875c3.811,7.958,10.457,11.553,19.078,11.808C34.034,277.815,39.938,272.483,45.553,266.754z
	 M406.746,59.316c-20.749,21.765-41.821,43.232-62.173,65.361c-10.972,11.929-2.848,30.579,10.387,34.041
	c8.62,2.255,15.696,0.672,21.757-5.425c19.018-19.131,37.995-38.303,56.761-57.679c2.996-3.094,5.348-7.087,7.104-11.059
	c6.759-15.292-2.902-30.198-20.133-30.549C415.31,53.154,410.676,55.194,406.746,59.316z M94.278,438.562
	c19.41-20.558,38.987-40.958,58.444-61.472c1.501-1.582,2.747-3.493,3.764-5.434c3.933-7.51,2.615-19.13-2.67-24.779
	c-8.797-9.402-21.159-10.4-30.415-1.328c-19.578,19.189-38.714,38.834-57.878,58.442c-2.737,2.801-5.036,6.227-6.814,9.731
	c-7.818,15.4,2.032,31.589,20.153,31.742C84.544,446.083,89.712,443.397,94.278,438.562z M149.55,156.432
	c10.48-6.13,13.393-23.522,4.874-32.255c-19.72-20.215-39.878-40.014-60.267-59.554c-3.632-3.481-8.995-5.797-13.967-7.119
	c-14.748-3.921-26.329,5.708-26.399,20.937c-0.031,6.692,2.419,11.854,7.2,16.367c20.545,19.396,41.073,38.813,61.404,58.432
	c4.581,4.421,9.787,5.628,18.797,5.369C142.041,158.404,146.324,158.319,149.55,156.432z M347.478,345.051
	c-10.839,8.401-11.332,22.506-1.466,32.297c18.779,18.638,37.768,37.065,56.801,55.446c3.136,3.028,6.665,5.867,10.479,7.932
	c9.756,5.284,21.767,2.244,28.224-6.66c6.279-8.658,5.464-20.474-2.968-28.645c-20.889-20.246-42.21-40.045-63.14-60.249
	c-3.965-3.827-8.38-4.419-13.751-5.631C356.882,341.313,351.32,342.072,347.478,345.051z M22.705,392.077
	c11.675-0.59,20.894-9.296,21.121-20.86c0.238-12.146-9.215-21.949-21.255-22.041c-12.195-0.093-21.363,9.154-21.436,21.625
	C-0.468,383.18,12.544,392.591,22.705,392.077z M498.294,128.254c-0.286-11.65-9.587-20.677-21.416-20.782
	c-12.286-0.11-21.668,9.578-21.349,22.047c0.301,11.801,9.529,20.802,21.288,20.764C489.124,150.242,498.594,140.53,498.294,128.254
	z M477.634,343.95c-12.431-0.403-22.074,8.852-22.131,21.24c-0.055,11.845,8.884,21.301,20.488,21.671
	c12.054,0.384,22.224-9.382,22.297-21.413C498.359,353.784,489.274,344.327,477.634,343.95z M134.216,455.621
	c-12.22-0.12-21.764,9.564-21.59,21.906c0.165,11.664,9.385,20.672,21.271,20.779c12.357,0.112,21.719-9.353,21.541-21.775
	C155.27,464.882,145.987,455.736,134.216,455.621z M370.423,455.621c-12.228,0.022-21.572,9.739-21.304,22.156
	c0.26,12.078,10.334,21.14,22.819,20.528c11.594-0.569,20.331-10.199,20-22.044C391.61,464.558,382.271,455.599,370.423,455.621z
	 M43.752,134.044c-0.003-11.492-9.432-21.001-21.005-21.183c-11.91-0.188-21.159,8.519-21.609,20.343
	c-0.482,12.614,8.491,22.322,20.825,22.531C34.177,155.943,43.756,146.408,43.752,134.044z M364.753,1.126
	c-11.829,0.213-20.954,9.29-21.137,21.029c-0.19,12.088,9.681,21.858,21.891,21.672c11.668-0.178,21.026-9.591,21.015-21.137
	C386.51,10.226,377.099,0.904,364.753,1.126z M149.797,25.166c0.341-11.097-10.326-22.719-21.152-23.045
	c-11.904-0.359-21.632,9.368-21.722,21.719c-0.09,12.437,9.295,22.298,21.132,22.204C138.671,45.96,149.478,35.582,149.797,25.166z
	 M286.478,418.31c0.124,10.743,10.6,21.036,21.541,21.165c11.676,0.137,22.174-10.22,22.203-21.904
	c0.027-11.261-9.724-20.622-21.599-20.736C296.074,396.714,286.337,406.157,286.478,418.31z M211.874,81.993
	c0.094-12.601-9.21-22.256-21.232-22.03c-11.115,0.209-21.397,10.268-21.548,21.081c-0.172,12.28,9.188,21.537,21.804,21.563
	C202.968,102.633,211.784,93.97,211.874,81.993z M439.497,191.287c0.046-11.432-10.491-22.066-21.966-22.168
	c-11.74-0.104-21.04,10.118-20.731,22.786c0.3,12.319,8.673,20.108,21.442,19.947C430.341,211.7,439.45,202.887,439.497,191.287z
	 M102.582,307.544c-0.093-11.508-9.242-20.961-20.79-21.481c-10.851-0.49-21.926,10.699-22.031,21.976
	c-0.084,9.074,8.196,21.726,21.095,20.747C93.863,328.895,102.685,320.269,102.582,307.544z"/>
</svg>
