<?xml version="1.0" encoding="utf-8"?>
<!-- Generator: Adobe Illustrator 25.2.0, SVG Export Plug-In . SVG Version: 6.00 Build 0)  -->
<svg version="1.1" id="rose" xmlns="http://www.w3.org/2000/svg" xmlns:xlink="http://www.w3.org/1999/xlink" x="0px" y="0px"
	 viewBox="0 0 500 500" style="enable-background:new 0 0 500 500;" xml:space="preserve">
<style type="text/css">
	.st0{fill-rule:evenodd;clip-rule:evenodd;fill:#0093FF;}
</style>
<path class="st0" d="M449.7,98.7c-37.9-48.5-93.6-79.2-155.2-79.2C175.5,19.5,88.4,130.1,88.4,250c0,83.6,55.5,146.1,117.1,146.1
	c5.8,0,11.5-0.5,17.1-1.6c-41.3-30.1-67.7-85-67.7-144.5c0-94.8,64.1-168.6,139.7-168.6c82.4,0,139.7,81.8,139.7,168.6
	c-0.2,64.1-23.1,127.8-63.3,174.9c-35.1,41-80.6,67.1-130.5,75.3c0,0,4.2,0.3,9.6,0.3c138.3,0,250.5-112.2,250.5-250.5
	C500.5,193.2,481.6,140.8,449.7,98.7z M411.6,250c0-83.6-55.5-146.1-117.1-146.1c-5.8,0-11.5,0.5-17.1,1.6
	c41.3,30.1,67.7,85,67.7,144.5c0,94.8-64.1,168.6-139.6,168.6c-82.4,0-139.7-81.8-139.7-168.6c0.2-64.1,23.1-127.8,63.3-174.9
	c35.1-41,80.6-67.1,130.5-75.3c0,0-4.2-0.3-9.6-0.3C111.7-0.5-0.5,111.7-0.5,250c0,56.8,18.9,109.2,50.8,151.3
	c37.9,48.5,93.6,79.2,155.2,79.2C324.5,480.5,411.6,369.9,411.6,250z"/>
</svg>
