<?xml version="1.0" encoding="UTF-8" standalone="no"?>
<!-- Created with Inkscape (http://www.inkscape.org/) -->

<svg
   width="132.29166mm"
   height="132.29167mm"
   viewBox="0 0 132.29166 132.29167"
   version="1.1"
   id="svg5"
   inkscape:version="1.1 (ce6663b3b7, 2021-05-25)"
   sodipodi:docname="rsv.svg"
   xmlns:inkscape="http://www.inkscape.org/namespaces/inkscape"
   xmlns:sodipodi="http://sodipodi.sourceforge.net/DTD/sodipodi-0.dtd"
   xmlns="http://www.w3.org/2000/svg"
   xmlns:svg="http://www.w3.org/2000/svg">
  <sodipodi:namedview
     id="namedview7"
     pagecolor="#ffffff"
     bordercolor="#666666"
     borderopacity="1.0"
     inkscape:pageshadow="2"
     inkscape:pageopacity="0.0"
     inkscape:pagecheckerboard="0"
     inkscape:document-units="mm"
     showgrid="false"
     inkscape:zoom="0.6690478"
     inkscape:cx="221.95724"
     inkscape:cy="248.11381"
     inkscape:window-width="1920"
     inkscape:window-height="1001"
     inkscape:window-x="0"
     inkscape:window-y="0"
     inkscape:window-maximized="1"
     inkscape:current-layer="layer1"
     fit-margin-top="0"
     fit-margin-left="0"
     fit-margin-right="0"
     fit-margin-bottom="0" />
  <defs
     id="defs2" />
  <g
     inkscape:label="rsv"
     inkscape:groupmode="layer"
     id="layer1"
     transform="translate(-64.426824,-98.060048)">
    <g
       id="g95"
       transform="translate(-68.152026,-18.30157)"
       style="fill:#ffffff">
      <path
         style="fill:#ffffff;stroke-width:0.442218"
         d="m 191.64709,248.50372 c -29.72829,-3.74481 -52.39779,-24.72467 -58.23436,-53.89394 -1.11184,-5.55666 -1.11184,-18.72612 0,-24.28277 5.46479,-27.31125 25.83601,-47.67043 53.16339,-53.132 5.55994,-1.11119 18.73718,-1.11119 24.29712,0 27.32738,5.46157 47.6986,25.82075 53.16339,53.132 1.11184,5.55665 1.11184,18.72611 0,24.28277 -5.44401,27.20738 -25.94225,47.76051 -52.92617,53.06788 -3.64979,0.71787 -16.12056,1.24715 -19.46337,0.82606 z"
         id="path93"
         sodipodi:nodetypes="csssssssc" />
    </g>
    <g
       id="g8"
       transform="translate(-1.9528743,4.357869)">
      <path
         style="fill:#000000;stroke-width:0.442218"
         d="m 125.44794,225.84428 c -29.72829,-3.74481 -52.39779,-24.72467 -58.234359,-53.89394 -1.111846,-5.55666 -1.111846,-18.72612 0,-24.28277 5.464791,-27.31125 25.836013,-47.670432 53.163389,-53.132 5.55994,-1.111187 18.73718,-1.111187 24.29712,0 27.32738,5.461568 47.6986,25.82075 53.16339,53.132 1.11184,5.55665 1.11184,18.72611 0,24.28277 -5.44401,27.20738 -25.94225,47.76051 -52.92617,53.06788 -3.64979,0.71787 -16.12056,1.24715 -19.46337,0.82606 z m 2.99449,-49.3465 0.1192,-9.61542 h 4.30658 4.30655 l 4.1877,9.72595 4.18772,9.72593 h 5.35738 c 2.94656,0 5.46789,-0.11045 5.60294,-0.24542 0.13509,-0.13501 -1.54807,-4.26298 -3.74028,-9.17332 -2.1922,-4.91037 -4.07827,-9.34427 -4.19126,-9.85313 -0.15732,-0.70901 0.11252,-1.05685 1.15513,-1.48844 1.80096,-0.74555 4.21188,-3.46261 4.96609,-5.59668 0.42982,-1.21618 0.60634,-4.09642 0.60634,-9.89424 0,-7.71905 -0.059,-8.29731 -1.0497,-10.29064 -0.57731,-1.16159 -1.84944,-2.79615 -2.82692,-3.63235 -3.22539,-2.75918 -4.25349,-2.90304 -19.81197,-2.77224 l -13.9111,0.11696 -0.1264,4.29602 -0.12642,4.29603 -4.96059,0.12481 -4.96058,0.12482 v 4.64193 4.64192 l 5.1976,0.12465 5.19759,0.12448 v 2.40341 2.40344 l -5.19759,0.12448 -5.1976,0.12448 v 4.64193 4.64192 l 5.1976,0.12448 5.19759,0.12448 v 9.94699 9.94698 l 5.19576,0.065 5.1976,-0.008 z m 0.10198,-26.41477 v -6.63132 h 7.26667 c 7.26666,0 7.26666,0 8.18346,1.16484 0.78483,0.99717 0.9168,1.78404 0.9168,5.46648 0,3.68245 -0.13191,4.46932 -0.9168,5.46648 -0.9168,1.16484 -0.9168,1.16484 -8.18346,1.16484 h -7.26667 z"
         id="path930"
         sodipodi:nodetypes="cssssssscccccccssscssssssccccccccccccccccccccccccssssscc" />
    </g>
  </g>
</svg>
