<?xml version="1.0" encoding="utf-8"?>
<!-- Generator: Adobe Illustrator 28.2.0, SVG Export Plug-In . SVG Version: 6.00 Build 0)  -->
<svg version="1.1" id="Layer_1" xmlns="http://www.w3.org/2000/svg" xmlns:xlink="http://www.w3.org/1999/xlink" x="0px" y="0px"
	 viewBox="0 0 500 500" style="enable-background:new 0 0 500 500;" xml:space="preserve">
<style type="text/css">
	.st0{fill:#9391FE;}
	.st1{fill:#FFFFFF;}
</style>
<circle class="st0" cx="250" cy="250" r="250"/>
<path class="st1" d="M203.5,262.2c21.4-3.5,36-23.7,32.5-45.1c-3.5-21.4-23.7-36-45.1-32.5c-21.4,3.5-36,23.7-32.5,45.1
	C161.9,251.1,182.1,265.7,203.5,262.2z"/>
<path class="st1" d="M306.3,262.2c21.4-3.5,36-23.7,32.5-45.1c-3.5-21.4-23.7-36-45.1-32.5c-21.4,3.5-36,23.7-32.5,45.1
	C264.7,251.1,284.9,265.7,306.3,262.2z"/>
<path class="st1" d="M248.5,61C141.8,61,55.2,149.3,55.2,258h49.4c0-81.5,63.9-147.6,143.9-147.6c80,0,143.9,66.1,143.9,147.6h49.4
	C441.9,149.3,355.3,61,248.5,61z"/>
</svg>
