<svg width="23" height="22" viewBox="0 0 23 22" fill="none" xmlns="http://www.w3.org/2000/svg">
<path fill-rule="evenodd" clip-rule="evenodd" d="M20.0059 5.48815C18.5267 8.89249 16.1057 11.8034 13.0279 13.8782C9.95245 15.9514 6.3479 17.1014 2.63994 17.1922C1.67962 15.7621 1.08621 14.1176 0.912118 12.4038C0.738024 10.6901 0.988602 8.95979 1.64172 7.36583C2.29485 5.77187 3.33041 4.36325 4.65698 3.26438C5.98354 2.16552 7.56028 1.4102 9.24794 1.06515C10.5953 0.792089 11.9833 0.787558 13.3324 1.05182C14.6815 1.31608 15.9652 1.84394 17.1099 2.60515C18.2549 3.36615 19.2399 4.34515 20.0059 5.48815ZM20.7389 5.42315V3.80515C20.7389 3.78815 20.7429 3.77215 20.7519 3.75715C20.7601 3.74301 20.7718 3.73127 20.7859 3.72315L22.1799 2.90315C22.1935 2.89495 22.2091 2.89061 22.2249 2.89061C22.2408 2.89061 22.2564 2.89495 22.2699 2.90315C22.2839 2.91315 22.2949 2.92415 22.3029 2.93815C22.3109 2.95315 22.3149 2.96915 22.3149 2.98615V4.60415C22.3147 4.62045 22.3105 4.63645 22.3026 4.65074C22.2948 4.66503 22.2836 4.67719 22.2699 4.68615L20.8739 5.50615C20.8637 5.51227 20.8522 5.51622 20.8404 5.51777C20.8285 5.51931 20.8164 5.51842 20.8049 5.51514C20.7934 5.51187 20.7827 5.50627 20.7734 5.49871C20.7641 5.49115 20.7565 5.48177 20.7509 5.47115C20.7429 5.45646 20.7387 5.43992 20.7389 5.42315ZM19.7879 17.3622C21.0595 15.5812 21.743 13.4475 21.7429 11.2592C21.7429 9.64615 21.3699 8.05515 20.6529 6.61115C17.3828 10.8439 15.3105 15.8779 14.6529 21.1862C16.7218 20.4786 18.5173 19.1415 19.7879 17.3622Z" fill="url(#paint0_linear_347_1108)"/>
<defs>
<linearGradient id="paint0_linear_347_1108" x1="-8.00606" y1="6.41415" x2="22.2949" y2="20.9342" gradientUnits="userSpaceOnUse">
<stop stop-color="#C040FC"/>
<stop offset="1" stop-color="#4B3CFF"/>
</linearGradient>
</defs>
</svg>
