<?xml version="1.0" encoding="utf-8"?>
<!-- Generator: Adobe Illustrator 28.2.0, SVG Export Plug-In . SVG Version: 6.00 Build 0)  -->
<svg version="1.1" id="Layer_1" xmlns="http://www.w3.org/2000/svg" xmlns:xlink="http://www.w3.org/1999/xlink" x="0px" y="0px"
	 viewBox="0 0 500 500" style="enable-background:new 0 0 500 500;" xml:space="preserve">
<style type="text/css">
	.st0{fill:url(#SVGID_1_);}
	.st1{fill:#FFFFFF;}
</style>
<linearGradient id="SVGID_1_" gradientUnits="userSpaceOnUse" x1="0" y1="250" x2="500" y2="250">
	<stop  offset="0" style="stop-color:#46FF7A"/>
	<stop  offset="0.2604" style="stop-color:#4DE2B7"/>
	<stop  offset="0.4558" style="stop-color:#50D2D8"/>
	<stop  offset="0.5557" style="stop-color:#51CFDE"/>
	<stop  offset="0.7576" style="stop-color:#609CE3"/>
	<stop  offset="1" style="stop-color:#6F66DE"/>
</linearGradient>
<circle class="st0" cx="250" cy="250" r="250"/>
<path class="st1" d="M394.3,153.6l-18.2,31.8c-83.1-45.3-170-50.6-261.9-4.7v145.4c80.6,41.1,167.1,44,261.3-4.1l18.7,31.3
	c-97,56-215.2,54.2-307.2-0.1c-5.9-3.5-9.5-9.7-9.5-16.5V169.2c0-8,4.4-12.8,11.3-16.9C173.9,102.4,293.1,95.2,394.3,153.6z"/>
<polygon class="st1" points="298.6,234.2 389.4,234.2 389.4,272.5 298.6,272.5 248.5,310.4 196.6,281.8 196.6,224.2 248.2,195.6 "/>
</svg>
