<svg width="36" height="36" viewBox="0 0 36 36" fill="none" xmlns="http://www.w3.org/2000/svg">
<path d="M11.1001 32.4398L11.8475 28.9871C12.6811 25.1362 9.74715 21.4988 5.80739 21.4988H2.38397C3.4636 26.3374 6.73413 30.3496 11.1001 32.4398Z" fill="url(#paint0_linear_674_4558)"/>
<path d="M12.6016 33.0663C14.2881 33.6707 16.1056 34 18 34C25.6343 34 32.0198 28.6527 33.616 21.4988H23.1723C18.4648 21.4988 14.3947 24.7824 13.3987 29.3838L12.6016 33.0663Z" fill="url(#paint1_linear_674_4558)"/>
<path d="M33.8884 19.8987C33.9621 19.2756 34 18.6415 34 17.9985C34 9.60402 27.5365 2.71929 19.3152 2.05033L17.0727 12.4105C16.2391 16.2614 19.173 19.8987 23.1128 19.8987H33.8884Z" fill="url(#paint2_linear_674_4558)"/>
<path d="M17.689 2C8.996 2.16572 2 9.26504 2 17.9985C2 18.6415 2.03792 19.2756 2.11164 19.8987H5.74788C10.4554 19.8987 14.5255 16.6151 15.5215 12.0137L17.689 2Z" fill="url(#paint3_linear_674_4558)"/>
<defs>
<linearGradient id="paint0_linear_674_4558" x1="20.8732" y1="2" x2="14.5513" y2="34.0421" gradientUnits="userSpaceOnUse">
<stop stop-color="#F4D5B1"/>
<stop offset="1" stop-color="#FFD29F"/>
</linearGradient>
<linearGradient id="paint1_linear_674_4558" x1="20.8732" y1="2" x2="14.5513" y2="34.0421" gradientUnits="userSpaceOnUse">
<stop stop-color="#F4D5B1"/>
<stop offset="1" stop-color="#FFD29F"/>
</linearGradient>
<linearGradient id="paint2_linear_674_4558" x1="20.8732" y1="2" x2="14.5513" y2="34.0421" gradientUnits="userSpaceOnUse">
<stop stop-color="#F4D5B1"/>
<stop offset="1" stop-color="#FFD29F"/>
</linearGradient>
<linearGradient id="paint3_linear_674_4558" x1="20.8732" y1="2" x2="14.5513" y2="34.0421" gradientUnits="userSpaceOnUse">
<stop stop-color="#F4D5B1"/>
<stop offset="1" stop-color="#FFD29F"/>
</linearGradient>
</defs>
</svg>
