<?xml version="1.0" encoding="utf-8"?>
<!-- Generator: Adobe Illustrator 28.2.0, SVG Export Plug-In . SVG Version: 6.00 Build 0)  -->
<svg version="1.1" id="Layer_1" xmlns="http://www.w3.org/2000/svg" xmlns:xlink="http://www.w3.org/1999/xlink" x="0px" y="0px"
	 viewBox="0 0 500 500" style="enable-background:new 0 0 500 500;" xml:space="preserve">
<path d="M278.9,210.5L430.6,57.9L373,0L250.1,123.7L127.2,0L69.6,57.9l151.7,152.6c7.9,8,18.4,12,28.8,12S270.9,218.5,278.9,210.5z
	 M498.5,373.6L375.6,249.9l122.9-123.7l-57.5-57.9L289.2,220.9c-15.9,16-15.9,41.9,0,57.9l151.7,152.6L498.5,373.6z M249.9,376.3
	L372.8,500l57.5-57.9L278.7,289.5c-15.9-16-41.7-16-57.5,0L69.4,442.1L127,500L249.9,376.3z M210.8,279.1c7.6-7.7,11.9-18.1,11.9-29
	c0-10.9-4.3-21.3-11.9-28.9L59.1,68.5L1.5,126.4l122.9,123.7L1.5,373.8l57.5,57.9L210.8,279.1z"/>
</svg>
