<?xml version="1.0" encoding="UTF-8"?>
<svg version="1.1" xmlns="http://www.w3.org/2000/svg" width="250" height="250">
<path d="M0 0 C2.33665916 0.00315535 4.6720415 -0.02037224 7.00854492 -0.0456543 C19.99655017 -0.10125085 32.19190756 1.78561865 44.5378418 6.00317383 C45.28710938 6.25808594 46.03637695 6.51299805 46.80834961 6.77563477 C69.31964566 14.7493778 89.35137555 30.2165797 103.5378418 49.31567383 C104.13677246 50.11086426 104.13677246 50.11086426 104.74780273 50.92211914 C118.39015376 69.27166701 127.60207753 92.33079969 127.7409668 115.34692383 C127.74666687 116.10050171 127.75236694 116.85407959 127.75823975 117.63049316 C127.7676373 119.22052634 127.77420271 120.81057853 127.77807617 122.40063477 C127.78770375 124.78153487 127.81874402 127.16154097 127.8503418 129.54223633 C128.08829328 163.83423339 112.63930514 193.612267 89.07299805 217.85083008 C75.57872175 230.58170306 58.76254294 239.7331791 41.2878418 245.69067383 C40.59198975 245.92947266 39.8961377 246.16827148 39.17919922 246.41430664 C27.94263431 250.03452641 16.78045601 250.66427762 5.07568359 250.63134766 C2.73902444 250.6281923 0.40364209 250.6517199 -1.93286133 250.67700195 C-14.92086658 250.7325985 -27.11622397 248.845729 -39.4621582 244.62817383 C-40.21142578 244.37326172 -40.96069336 244.11834961 -41.73266602 243.85571289 C-64.24396207 235.88196985 -84.27569196 220.41476796 -98.4621582 201.31567383 C-98.86144531 200.78554687 -99.26073242 200.25541992 -99.67211914 199.70922852 C-113.31447017 181.35968064 -122.52639393 158.30054797 -122.6652832 135.28442383 C-122.67383331 134.15405701 -122.67383331 134.15405701 -122.68255615 133.00085449 C-122.69195371 131.41082131 -122.69851912 129.82076912 -122.70239258 128.23071289 C-122.71202016 125.84981278 -122.74306042 123.46980669 -122.7746582 121.08911133 C-123.01260968 86.79711427 -107.56362155 57.01908066 -83.99731445 32.78051758 C-70.50303816 20.0496446 -53.68685935 10.89816855 -36.2121582 4.94067383 C-35.51630615 4.701875 -34.8204541 4.46307617 -34.10351562 4.21704102 C-22.86695071 0.59682124 -11.70477242 -0.03292996 0 0 Z " fill="#000000" transform="translate(122.462158203125,-0.315673828125)"/>
<path d="M0 0 C5.90701782 3.99841084 10.41303214 9.61407258 15 15 C24.3844939 26.668897 24.3844939 26.668897 37.0625 33.8125 C44.9467782 31.6317422 50.73228669 24.40970781 56.0625 18.5625 C57.40647493 17.10447512 58.75151764 15.64743373 60.09765625 14.19140625 C60.74492676 13.49039795 61.39219727 12.78938965 62.05908203 12.06713867 C73.03449155 0.37798239 73.03449155 0.37798239 78.25 -0.625 C86.66824535 0.77804089 91.01812464 8.21970417 95.78076172 14.72705078 C99.91954629 20.21669953 104.80188378 24.75282334 109.91040039 29.33032227 C117.72217131 36.33302786 117.72217131 36.33302786 118.625 41.75 C118.36587516 48.09855853 113.49206115 51.66500153 109.140625 55.7421875 C106.28553674 58.30232863 103.35098458 60.72598572 100.328125 63.0859375 C90.8784699 70.40672934 90.8784699 70.40672934 84 80 C83.99334565 85.86913825 85.80977072 88.60411159 89.8125 92.75 C90.30024902 93.26095215 90.78799805 93.7719043 91.29052734 94.29833984 C95.23591177 98.37435781 99.40847913 102.19297072 103.63330078 105.9753418 C117.91871094 118.85190202 117.91871094 118.85190202 118.42578125 127.734375 C117.20439675 134.2334852 111.49364256 138.59865494 106.8125 142.8125 C105.4635766 144.04549013 104.11591641 145.27986369 102.76953125 146.515625 C102.12064941 147.11052734 101.47176758 147.70542969 100.80322266 148.31835938 C98.46477088 150.49914137 96.22779523 152.76929455 94 155.0625 C85.64094975 163.43717464 85.64094975 163.43717464 79.1875 164.8125 C70.21148007 164.0902915 63.78084073 154.83472876 58.3125 148.5 C56.19467876 146.01129206 54.09533124 143.50764531 52 141 C45.69463915 132.6291946 45.69463915 132.6291946 36.65625 128.6875 C26.8143966 129.52868405 18.77624694 141.35330743 12.42578125 148.23828125 C1.35132008 160.17686875 1.35132008 160.17686875 -5.5625 161.875 C-14.9641938 159.48184158 -22.30359411 148.75048695 -28.02734375 141.39453125 C-29.83653432 139.19842468 -31.59280215 137.57107935 -33.8125 135.8125 C-38.97623406 131.37537017 -44.19958879 125.98572111 -45.57421875 119.140625 C-44.72070817 114.47244468 -42.08558988 112.11337865 -38.8125 108.8125 C-38.18408203 108.15757568 -37.55566406 107.50265137 -36.90820312 106.82788086 C-32.81623876 102.63402699 -28.52888795 98.77512718 -24 95.0625 C-18.18452831 90.29436855 -13.1262654 86.05455543 -11.0625 78.625 C-12.59764069 72.68912267 -16.71896102 69.23392988 -21 65 C-23.20877188 62.81294263 -25.41706555 60.62540279 -27.625 58.4375 C-28.18316406 57.88634521 -28.74132812 57.33519043 -29.31640625 56.76733398 C-42.74165946 43.39178921 -42.74165946 43.39178921 -43.1875 35.8125 C-40.68133028 27.76637615 -32.98855125 22.90196988 -26.4609375 18.0234375 C-22.82257811 15.03189755 -19.58238772 11.67139448 -16.33666992 8.26245117 C-6.89084387 -1.51598565 -6.89084387 -1.51598565 0 0 Z " fill="#F60000" transform="translate(88,43)"/>
<path d="M0 0 C0.66 0 1.32 0 2 0 C2 0.66 2 1.32 2 2 C3.32 2 4.64 2 6 2 C6.14695312 2.88751953 6.14695312 2.88751953 6.296875 3.79296875 C7.28065495 8.99173694 8.50313225 11.92032096 12 16 C12 17.32 12 18.64 12 20 C11.34 20 10.68 20 10 20 C10.66 20.99 11.32 21.98 12 23 C13.32 23 14.64 23 16 23 C16.495 25.475 16.495 25.475 17 28 C18.65 28 20.3 28 22 28 C21.67 31.3 21.34 34.6 21 38 C21.721875 38.40992188 22.44375 38.81984375 23.1875 39.2421875 C24.115625 39.78101563 25.04375 40.31984375 26 40.875 C26.928125 41.40867188 27.85625 41.94234375 28.8125 42.4921875 C29.534375 42.98976562 30.25625 43.48734375 31 44 C31 44.66 31 45.32 31 46 C28.69 46 26.38 46 24 46 C23.34 44.68 22.68 43.36 22 42 C20.35 42 18.7 42 17 42 C16.505 42.99 16.505 42.99 16 44 C16.52268466 41.23723823 17.10869587 38.6739124 18 36 C17.01 35.505 17.01 35.505 16 35 C16.33 34.01 16.66 33.02 17 32 C14.03 32.495 14.03 32.495 11 33 C11 35.64 11 38.28 11 41 C10.34 41 9.68 41 9 41 C9 41.99 9 42.98 9 44 C9.99 44 10.98 44 12 44 C12 45.32 12 46.64 12 48 C11.360625 48.2475 10.72125 48.495 10.0625 48.75 C7.81258459 49.81562433 7.81258459 49.81562433 7.25 52.125 C7.1675 52.74375 7.085 53.3625 7 54 C7.99 54 8.98 54 10 54 C9.67 55.65 9.34 57.3 9 59 C10.32 59 11.64 59 13 59 C13 59.66 13 60.32 13 61 C12.34 61 11.68 61 11 61 C10.67 62.65 10.34 64.3 10 66 C7.36 66.33 4.72 66.66 2 67 C2 66.34 2 65.68 2 65 C0.68 65 -0.64 65 -2 65 C-2 64.34 -2 63.68 -2 63 C0.475 62.505 0.475 62.505 3 62 C3 60.68 3 59.36 3 58 C2.01 58 1.02 58 0 58 C0 58.99 0 59.98 0 61 C-0.66 61 -1.32 61 -2 61 C-2 59.02 -2 57.04 -2 55 C-3.32 55 -4.64 55 -6 55 C-5.67 54.34 -5.34 53.68 -5 53 C-3.02 53 -1.04 53 1 53 C1.33 52.34 1.66 51.68 2 51 C0.68 50.67 -0.64 50.34 -2 50 C-1.34 48.68 -0.68 47.36 0 46 C-0.70576172 46.54140625 -0.70576172 46.54140625 -1.42578125 47.09375 C-2.04839844 47.5578125 -2.67101562 48.021875 -3.3125 48.5 C-3.92738281 48.9640625 -4.54226562 49.428125 -5.17578125 49.90625 C-7 51 -7 51 -10 51 C-10 50.01 -10 49.02 -10 48 C-9.34 48 -8.68 48 -8 48 C-8.495 45.525 -8.495 45.525 -9 43 C-7.35 43.33 -5.7 43.66 -4 44 C-3.34 42.02 -2.68 40.04 -2 38 C-2.495 37.505 -2.495 37.505 -3 37 C-3.66 37 -4.32 37 -5 37 C-5 37.99 -5 38.98 -5 40 C-5.99 40 -6.98 40 -8 40 C-8.66 36.7 -9.32 33.4 -10 30 C-8.02 30 -6.04 30 -4 30 C-4.33 31.65 -4.66 33.3 -5 35 C-4.01 34.34 -3.02 33.68 -2 33 C-1.01 33 -0.02 33 1 33 C1 33.66 1 34.32 1 35 C1.66 35 2.32 35 3 35 C2.505 32.525 2.505 32.525 2 30 C5.465 29.505 5.465 29.505 9 29 C9.33 27.02 9.66 25.04 10 23 C9.34 23 8.68 23 8 23 C8 24.32 8 25.64 8 27 C7.01 27 6.02 27 5 27 C5 27.66 5 28.32 5 29 C3.68 28.67 2.36 28.34 1 28 C0.61781233 26.34385343 0.28604898 24.67542976 0 23 C1 22 1 22 4.0625 21.9375 C5.5165625 21.9684375 5.5165625 21.9684375 7 22 C7.33 20.68 7.66 19.36 8 18 C8.66 18 9.32 18 10 18 C10 17.34 10 16.68 10 16 C7.03 16 4.06 16 1 16 C1.33 14.35 1.66 12.7 2 11 C1.01 11.33 0.02 11.66 -1 12 C-2.21869929 14.50447516 -2.21869929 14.50447516 -3 17 C-2.34 17 -1.68 17 -1 17 C-1.37392721 19.71097227 -1.81357627 20.82000467 -3.8125 22.75 C-6 24 -6 24 -10 24 C-10.66 27.96 -11.32 31.92 -12 36 C-12.66 36 -13.32 36 -14 36 C-14.33 34.02 -14.66 32.04 -15 30 C-16.11955078 29.87818359 -16.11955078 29.87818359 -17.26171875 29.75390625 C-20.60985795 28.83209332 -21.65095749 27.60764075 -23.8125 24.9375 C-24.41707031 24.20402344 -25.02164063 23.47054687 -25.64453125 22.71484375 C-26.09183594 22.14894531 -26.53914063 21.58304688 -27 21 C-26.01 19.515 -26.01 19.515 -25 18 C-24.01 18 -23.02 18 -22 18 C-22 18.99 -22 19.98 -22 21 C-20.68 21 -19.36 21 -18 21 C-18 21.66 -18 22.32 -18 23 C-18.66 23 -19.32 23 -20 23 C-19.67 23.99 -19.34 24.98 -19 26 C-16.0957107 25.89207179 -16.0957107 25.89207179 -13 25 C-11.21030974 22.57327433 -11.21030974 22.57327433 -10 20 C-9.34 19.67 -8.68 19.34 -8 19 C-8.99 18.67 -9.98 18.34 -11 18 C-11.6875 15.1875 -11.6875 15.1875 -12 12 C-10.875 10.34375 -10.875 10.34375 -9 9 C-6.30078125 8.48828125 -6.30078125 8.48828125 -3.3125 8.3125 C-2.31863281 8.24675781 -1.32476562 8.18101563 -0.30078125 8.11328125 C0.45847656 8.07589844 1.21773437 8.03851563 2 8 C-0.97 7.505 -0.97 7.505 -4 7 C-3.67 6.34 -3.34 5.68 -3 5 C-2.01 5 -1.02 5 0 5 C0 3.35 0 1.7 0 0 Z " fill="#160000" transform="translate(107,86)"/>
<path d="M0 0 C0.66 0.33 1.32 0.66 2 1 C2 1.66 2 2.32 2 3 C2.680625 2.484375 3.36125 1.96875 4.0625 1.4375 C7.82105322 -0.401792 9.98769629 0.07408376 14 1 C15 2 15 2 15.0625 5.0625 C15.041875 6.031875 15.02125 7.00125 15 8 C15.99 8 16.98 8 18 8 C18 8.66 18 9.32 18 10 C15.625 10.125 15.625 10.125 13 10 C12.34 9.34 11.68 8.68 11 8 C10.01 9.32 9.02 10.64 8 12 C9.98 12.66 11.96 13.32 14 14 C13.71872579 15.48117801 13.42466268 16.95993249 13.125 18.4375 C12.96257812 19.26121094 12.80015625 20.08492187 12.6328125 20.93359375 C12.42398438 21.61550781 12.21515625 22.29742187 12 23 C9.29120665 24.35439668 6.99066732 24.06501451 4 24 C4.495 24.99 4.495 24.99 5 26 C8.96 25.505 8.96 25.505 13 25 C12.505 27.475 12.505 27.475 12 30 C7.22423661 29.5317879 3.95523655 28.75668002 0 26 C-0.33 26.99 -0.66 27.98 -1 29 C-1.625 26.6875 -1.625 26.6875 -2 24 C-1.34 23.01 -0.68 22.02 0 21 C-1.65 21 -3.3 21 -5 21 C-4.67 18.69 -4.34 16.38 -4 14 C-4.66 14 -5.32 14 -6 14 C-6 13.34 -6 12.68 -6 12 C-6.99 12.495 -6.99 12.495 -8 13 C-8 13.99 -8 14.98 -8 16 C-7.34 16.33 -6.68 16.66 -6 17 C-6 17.66 -6 18.32 -6 19 C-7.98 18.34 -9.96 17.68 -12 17 C-12 16.34 -12 15.68 -12 15 C-12.99 15 -13.98 15 -15 15 C-15 16.32 -15 17.64 -15 19 C-17.31 18.34 -19.62 17.68 -22 17 C-20.05703186 22.21533554 -18.10762538 25.11440843 -14 29 C-14 29.66 -14 30.32 -14 31 C-13.34 31 -12.68 31 -12 31 C-12 29.35 -12 27.7 -12 26 C-9.1875 25.3125 -9.1875 25.3125 -6 25 C-4.3125 26.125 -4.3125 26.125 -3 28 C-2.70703125 30.69921875 -2.70703125 30.69921875 -2.8125 33.6875 C-2.83957031 34.68136719 -2.86664063 35.67523438 -2.89453125 36.69921875 C-2.92933594 37.45847656 -2.96414062 38.21773437 -3 39 C-2.67 39 -2.34 39 -2 39 C-1.67 37.35 -1.34 35.7 -1 34 C-0.34 34.33 0.32 34.66 1 35 C1 35.99 1 36.98 1 38 C2.65 38 4.3 38 6 38 C5.34 39.98 4.68 41.96 4 44 C3.37351563 44.04898438 2.74703125 44.09796875 2.1015625 44.1484375 C1.28429687 44.22320312 0.46703125 44.29796875 -0.375 44.375 C-1.18710938 44.44460937 -1.99921875 44.51421875 -2.8359375 44.5859375 C-5.20334191 44.82892588 -5.20334191 44.82892588 -7 47 C-9.125 46.625 -9.125 46.625 -11 46 C-11.125 43.125 -11.125 43.125 -11 40 C-10.34 39.34 -9.68 38.68 -9 38 C-8.34 38.33 -7.68 38.66 -7 39 C-7 38.01 -7 37.02 -7 36 C-8.32 35.34 -9.64 34.68 -11 34 C-11 34.66 -11 35.32 -11 36 C-12.65 35.67 -14.3 35.34 -16 35 C-16.33 33.68 -16.66 32.36 -17 31 C-17.66 31 -18.32 31 -19 31 C-19.309375 30.195625 -19.61875 29.39125 -19.9375 28.5625 C-20.76335345 26.10919595 -20.76335345 26.10919595 -22 25 C-23.51469448 24.76807135 -25.03754562 24.58784762 -26.5625 24.4375 C-27.38878906 24.35371094 -28.21507813 24.26992187 -29.06640625 24.18359375 C-30.02353516 24.09271484 -30.02353516 24.09271484 -31 24 C-31 23.34 -31 22.68 -31 22 C-29.02 21.67 -27.04 21.34 -25 21 C-24.9175 20.443125 -24.835 19.88625 -24.75 19.3125 C-23.7299811 16.16744171 -22.30519973 14.36750242 -20 12 C-16.75 10.6875 -16.75 10.6875 -14 10 C-14 10.66 -14 11.32 -14 12 C-13.34 12 -12.68 12 -12 12 C-12 10.35 -12 8.7 -12 7 C-11.01 7 -10.02 7 -9 7 C-9 6.34 -9 5.68 -9 5 C-6.29120665 3.64560332 -3.99066732 3.93498549 -1 4 C-0.67 2.68 -0.34 1.36 0 0 Z " fill="#CD0000" transform="translate(153,77)"/>
<path d="M0 0 C1.32 0.33 2.64 0.66 4 1 C3.625 3.4375 3.625 3.4375 3 6 C2.01 6.495 2.01 6.495 1 7 C2.32 7.99 3.64 8.98 5 10 C5.33 9.01 5.66 8.02 6 7 C9 8 9 8 11 11 C11.66 11 12.32 11 13 11 C13 9.35 13 7.7 13 6 C14.32 6.33 15.64 6.66 17 7 C17 6.34 17 5.68 17 5 C18.65 5.66 20.3 6.32 22 7 C21.67 9.64 21.34 12.28 21 15 C21.99 15.33 22.98 15.66 24 16 C24 16.66 24 17.32 24 18 C25.134375 18.12375 26.26875 18.2475 27.4375 18.375 C28.613125 18.58125 29.78875 18.7875 31 19 C31.495 19.99 31.495 19.99 32 21 C31.15695313 21.02578125 30.31390625 21.0515625 29.4453125 21.078125 C28.34960938 21.13484375 27.25390625 21.1915625 26.125 21.25 C25.03445312 21.29640625 23.94390625 21.3428125 22.8203125 21.390625 C19.92391937 21.69869796 19.92391937 21.69869796 18.6171875 23.796875 C17.82016228 26.26062864 17.82016228 26.26062864 18 30 C19.65 30 21.3 30 23 30 C22.360625 30.2475 21.72125 30.495 21.0625 30.75 C18.81523431 31.78364885 18.81523431 31.78364885 18.5 33.9375 C18.335 34.618125 18.17 35.29875 18 36 C16.25 37.8125 16.25 37.8125 14 39 C11.25 38.6875 11.25 38.6875 9 38 C9 37.01 9 36.02 9 35 C9.66 35 10.32 35 11 35 C11 34.34 11 33.68 11 33 C9.68 33 8.36 33 7 33 C7 32.01 7 31.02 7 30 C4.36 29.67 1.72 29.34 -1 29 C-1 28.34 -1 27.68 -1 27 C-1.66 26.67 -2.32 26.34 -3 26 C-3.4140625 24.00390625 -3.4140625 24.00390625 -3.625 21.5625 C-3.69976562 20.75941406 -3.77453125 19.95632812 -3.8515625 19.12890625 C-3.94735428 17.75505053 -4 16.3771912 -4 15 C-4.804375 13.9171875 -4.804375 13.9171875 -5.625 12.8125 C-7 10 -7 10 -6.1875 6.1875 C-5.795625 5.135625 -5.40375 4.08375 -5 3 C-3.35 3 -1.7 3 0 3 C0 2.01 0 1.02 0 0 Z " fill="#D40000" transform="translate(78,74)"/>
<path d="M0 0 C1.299375 0.10054688 1.299375 0.10054688 2.625 0.203125 C5.38091718 0.83771119 6.38853459 1.43881935 8 3.75 C8 5.07 8 6.39 8 7.75 C8.66 7.75 9.32 7.75 10 7.75 C10.2475 8.389375 10.495 9.02875 10.75 9.6875 C11.81562433 11.93741541 11.81562433 11.93741541 14.125 12.5 C14.74375 12.5825 15.3625 12.665 16 12.75 C16 12.09 16 11.43 16 10.75 C17.65 11.41 19.3 12.07 21 12.75 C20.67 14.07 20.34 15.39 20 16.75 C19.01 16.75 18.02 16.75 17 16.75 C16.83318891 19.66652174 16.83318891 19.66652174 17 22.75 C17.66 23.41 18.32 24.07 19 24.75 C19.125 27.875 19.125 27.875 19 30.75 C14.545 28.77 14.545 28.77 10 26.75 C9.67 27.41 9.34 28.07 9 28.75 C6.13549707 27.30496058 3.4668707 25.81290716 1 23.75 C0.18857189 19.77400228 0.8920703 17.17538577 3 13.75 C1.35 13.75 -0.3 13.75 -2 13.75 C-2.33 12.1 -2.66 10.45 -3 8.75 C-4.32 9.08 -5.64 9.41 -7 9.75 C-7.66 8.43 -8.32 7.11 -9 5.75 C-8.34 5.75 -7.68 5.75 -7 5.75 C-7.33 4.1 -7.66 2.45 -8 0.75 C-4.90341291 -0.2821957 -3.20396973 -0.28606873 0 0 Z " fill="#E60000" transform="translate(126,100.25)"/>
<path d="M0 0 C0.33 1.32 0.66 2.64 1 4 C0.01 4 -0.98 4 -2 4 C-2 5.65 -2 7.3 -2 9 C-3.98 8.34 -5.96 7.68 -8 7 C-6.05703186 12.21533554 -4.10762538 15.11440843 0 19 C0 19.66 0 20.32 0 21 C0.66 21 1.32 21 2 21 C2 19.35 2 17.7 2 16 C4.8125 15.3125 4.8125 15.3125 8 15 C9.6875 16.125 9.6875 16.125 11 18 C11.29296875 20.69921875 11.29296875 20.69921875 11.1875 23.6875 C11.16042969 24.68136719 11.13335937 25.67523438 11.10546875 26.69921875 C11.07066406 27.45847656 11.03585938 28.21773437 11 29 C11.33 29 11.66 29 12 29 C12.33 27.35 12.66 25.7 13 24 C13.66 24.33 14.32 24.66 15 25 C15 25.99 15 26.98 15 28 C16.65 28 18.3 28 20 28 C19.34 29.98 18.68 31.96 18 34 C17.37351563 34.04898438 16.74703125 34.09796875 16.1015625 34.1484375 C15.28429687 34.22320312 14.46703125 34.29796875 13.625 34.375 C12.81289062 34.44460937 12.00078125 34.51421875 11.1640625 34.5859375 C8.79665809 34.82892588 8.79665809 34.82892588 7 37 C4.875 36.625 4.875 36.625 3 36 C2.875 33.125 2.875 33.125 3 30 C3.66 29.34 4.32 28.68 5 28 C5.66 28.33 6.32 28.66 7 29 C7 28.01 7 27.02 7 26 C5.68 25.34 4.36 24.68 3 24 C3 24.66 3 25.32 3 26 C1.35 25.67 -0.3 25.34 -2 25 C-2.33 23.68 -2.66 22.36 -3 21 C-3.66 21 -4.32 21 -5 21 C-5.309375 20.195625 -5.61875 19.39125 -5.9375 18.5625 C-6.76335345 16.10919595 -6.76335345 16.10919595 -8 15 C-9.51469448 14.76807135 -11.03754562 14.58784762 -12.5625 14.4375 C-13.38878906 14.35371094 -14.21507813 14.26992187 -15.06640625 14.18359375 C-15.70449219 14.12300781 -16.34257813 14.06242187 -17 14 C-17 13.34 -17 12.68 -17 12 C-15.02 11.67 -13.04 11.34 -11 11 C-10.9175 10.443125 -10.835 9.88625 -10.75 9.3125 C-9.50900691 5.48610463 -7.28944057 2.79641917 -3.875 0.6875 C-2 0 -2 0 0 0 Z " fill="#130000" transform="translate(139,87)"/>
<path d="M0 0 C1.32 0.33 2.64 0.66 4 1 C3.625 3.4375 3.625 3.4375 3 6 C2.01 6.495 2.01 6.495 1 7 C1.61875 7.2475 2.2375 7.495 2.875 7.75 C5.37818306 9.22246063 5.83045281 10.41028837 7 13 C7.66 13.33 8.32 13.66 9 14 C8.01 14.33 7.02 14.66 6 15 C6 15.99 6 16.98 6 18 C6.99 18.33 7.98 18.66 9 19 C7.68 19.33 6.36 19.66 5 20 C5 20.99 5 21.98 5 23 C6.65 23 8.3 23 10 23 C9.6875 24.9375 9.6875 24.9375 9 27 C8.01 27.33 7.02 27.66 6 28 C5.67 27.01 5.34 26.02 5 25 C1.04 25.495 1.04 25.495 -3 26 C-3.16802051 24.54182203 -3.33437143 23.0834516 -3.5 21.625 C-3.5928125 20.81289062 -3.685625 20.00078125 -3.78125 19.1640625 C-4 17 -4 17 -4 15 C-4.804375 13.9171875 -4.804375 13.9171875 -5.625 12.8125 C-7 10 -7 10 -6.1875 6.1875 C-5.795625 5.135625 -5.40375 4.08375 -5 3 C-3.35 3 -1.7 3 0 3 C0 2.01 0 1.02 0 0 Z " fill="#DF0000" transform="translate(78,74)"/>
<path d="M0 0 C0.61279769 4.05978473 1 7.89957626 1 12 C1.99 12.33 2.98 12.66 4 13 C4 13.66 4 14.32 4 15 C4.99 15.33 5.98 15.66 7 16 C6.34 17.32 5.68 18.64 5 20 C2.36 20 -0.28 20 -3 20 C-2.566875 20.55429688 -2.13375 21.10859375 -1.6875 21.6796875 C-0.8521875 22.76636719 -0.8521875 22.76636719 0 23.875 C0.556875 24.59429687 1.11375 25.31359375 1.6875 26.0546875 C3 28 3 28 3 30 C1.0625 29.6875 1.0625 29.6875 -1 29 C-1.33 28.01 -1.66 27.02 -2 26 C-2.66 25.67 -3.32 25.34 -4 25 C-4 25.66 -4 26.32 -4 27 C-5.32 27 -6.64 27 -8 27 C-7.67 25.35 -7.34 23.7 -7 22 C-7.99 22 -8.98 22 -10 22 C-9.67 20.35 -9.34 18.7 -9 17 C-7.68 16.67 -6.36 16.34 -5 16 C-5 14.68 -5 13.36 -5 12 C-6.32 12.33 -7.64 12.66 -9 13 C-8.67 11.68 -8.34 10.36 -8 9 C-7.34 9 -6.68 9 -6 9 C-6.185625 8.05125 -6.37125 7.1025 -6.5625 6.125 C-7 3 -7 3 -6 1 C-3 0 -3 0 0 0 Z " fill="#E10000" transform="translate(124,118)"/>
<path d="M0 0 C0.66 0 1.32 0 2 0 C1.67 1.32 1.34 2.64 1 4 C1.99 4.33 2.98 4.66 4 5 C3.67 5.99 3.34 6.98 3 8 C2.030625 7.979375 1.06125 7.95875 0.0625 7.9375 C-2.87465895 7.64381501 -2.87465895 7.64381501 -4 9 C-2.68 9 -1.36 9 0 9 C0 10.65 0 12.3 0 14 C-3.465 15.485 -3.465 15.485 -7 17 C-7 16.01 -7 15.02 -7 14 C-7.66 14 -8.32 14 -9 14 C-9.185625 13.401875 -9.37125 12.80375 -9.5625 12.1875 C-11.72273753 8.90018201 -14.35107655 8.35145313 -18 7 C-18 5.68 -18 4.36 -18 3 C-17.34 3 -16.68 3 -16 3 C-16 3.66 -16 4.32 -16 5 C-15.01 5 -14.02 5 -13 5 C-12.67 4.01 -12.34 3.02 -12 2 C-10.68 2.33 -9.36 2.66 -8 3 C-8 3.66 -8 4.32 -8 5 C-6.865625 4.360625 -5.73125 3.72125 -4.5625 3.0625 C-3.92441406 2.70285156 -3.28632812 2.34320313 -2.62890625 1.97265625 C-1.02121854 1.1027487 -1.02121854 1.1027487 0 0 Z " fill="#E90000" transform="translate(105,132)"/>
<path d="M0 0 C1.3921875 0.3403125 1.3921875 0.3403125 2.8125 0.6875 C2.53122579 2.16867801 2.23716268 3.64743249 1.9375 5.125 C1.69386719 6.36056641 1.69386719 6.36056641 1.4453125 7.62109375 C1.23648438 8.30300781 1.02765625 8.98492187 0.8125 9.6875 C-1.89629335 11.04189668 -4.19683268 10.75251451 -7.1875 10.6875 C-6.8575 11.3475 -6.5275 12.0075 -6.1875 12.6875 C-3.5475 12.3575 -0.9075 12.0275 1.8125 11.6875 C1.4825 13.3375 1.1525 14.9875 0.8125 16.6875 C-3.96326339 16.2192879 -7.23226345 15.44418002 -11.1875 12.6875 C-11.5175 13.6775 -11.8475 14.6675 -12.1875 15.6875 C-12.8125 13.375 -12.8125 13.375 -13.1875 10.6875 C-12.5275 9.6975 -11.8675 8.7075 -11.1875 7.6875 C-11.8475 7.6875 -12.5075 7.6875 -13.1875 7.6875 C-13.1875 6.3675 -13.1875 5.0475 -13.1875 3.6875 C-12.56875 3.543125 -11.95 3.39875 -11.3125 3.25 C-9.15491678 2.75597775 -9.15491678 2.75597775 -7.1875 1.6875 C-6.8575 2.0175 -6.5275 2.3475 -6.1875 2.6875 C-5.81625 2.171875 -5.445 1.65625 -5.0625 1.125 C-3.1875 -0.3125 -3.1875 -0.3125 0 0 Z " fill="#EE0000" transform="translate(164.1875,90.3125)"/>
<path d="M0 0 C2.475 0.99 2.475 0.99 5 2 C3.125 9.625 3.125 9.625 2 13 C2.66 13.33 3.32 13.66 4 14 C2.1875 14.625 2.1875 14.625 0 15 C-0.99 14.34 -1.98 13.68 -3 13 C-3.33 13.66 -3.66 14.32 -4 15 C-8.75 14.125 -8.75 14.125 -11 13 C-11 12.01 -11 11.02 -11 10 C-10.34 9.67 -9.68 9.34 -9 9 C-9.99 7.02 -10.98 5.04 -12 3 C-11.34 2.67 -10.68 2.34 -10 2 C-9.38125 2.66 -8.7625 3.32 -8.125 4 C-6.24362573 6.2284549 -6.24362573 6.2284549 -4 6 C-4 4.35 -4 2.7 -4 1 C-2.68 1.33 -1.36 1.66 0 2 C0 1.34 0 0.68 0 0 Z " fill="#9C0000" transform="translate(95,79)"/>
<path d="M0 0 C4.875 1.75 4.875 1.75 6 4 C5.22265625 6.6015625 5.22265625 6.6015625 4.0625 9.625 C3.68222656 10.62789062 3.30195313 11.63078125 2.91015625 12.6640625 C2.60980469 13.43492187 2.30945313 14.20578125 2 15 C2.66 15 3.32 15 4 15 C4 15.99 4 16.98 4 18 C2.02 18 0.04 18 -2 18 C-2.33 17.34 -2.66 16.68 -3 16 C-3.99 15.67 -4.98 15.34 -6 15 C-6 15.99 -6 16.98 -6 18 C-7.65 18 -9.3 18 -11 18 C-11 16.68 -11 15.36 -11 14 C-10.39671875 13.80664062 -9.7934375 13.61328125 -9.171875 13.4140625 C-8.37265625 13.15367187 -7.5734375 12.89328125 -6.75 12.625 C-5.96109375 12.36976563 -5.1721875 12.11453125 -4.359375 11.8515625 C-1.67283375 10.93391927 -1.67283375 10.93391927 2 9 C1.34 6.03 0.68 3.06 0 0 Z " fill="#1F0000" transform="translate(151,136)"/>
<path d="M0 0 C0.33 1.32 0.66 2.64 1 4 C0.01 4 -0.98 4 -2 4 C-2 5.65 -2 7.3 -2 9 C-3.98 8.34 -5.96 7.68 -8 7 C-7.505 8.093125 -7.01 9.18625 -6.5 10.3125 C-5 14 -5 14 -5 17 C-5.99 16.34 -6.98 15.68 -8 15 C-10.27912938 14.54605448 -10.27912938 14.54605448 -12.6875 14.375 C-13.49574219 14.30023438 -14.30398437 14.22546875 -15.13671875 14.1484375 C-15.75160156 14.09945312 -16.36648437 14.05046875 -17 14 C-17 13.34 -17 12.68 -17 12 C-15.02 11.67 -13.04 11.34 -11 11 C-10.9175 10.443125 -10.835 9.88625 -10.75 9.3125 C-9.50900691 5.48610463 -7.28944057 2.79641917 -3.875 0.6875 C-2 0 -2 0 0 0 Z " fill="#310000" transform="translate(139,87)"/>
<path d="M0 0 C1.299375 0.10054688 1.299375 0.10054688 2.625 0.203125 C5.31381027 0.82225894 6.27897313 1.64400659 8 3.75 C7.67 4.74 7.34 5.73 7 6.75 C6.67 6.75 6.34 6.75 6 6.75 C5.67 8.4 5.34 10.05 5 11.75 C2.03 11.255 2.03 11.255 -1 10.75 C-0.67 9.1 -0.34 7.45 0 5.75 C-0.99 5.75 -1.98 5.75 -3 5.75 C-2.67 4.76 -2.34 3.77 -2 2.75 C-3.32 2.42 -4.64 2.09 -6 1.75 C-6.33 2.74 -6.66 3.73 -7 4.75 C-7.33 3.43 -7.66 2.11 -8 0.75 C-4.90341291 -0.2821957 -3.20396973 -0.28606873 0 0 Z " fill="#B20000" transform="translate(126,100.25)"/>
<path d="M0 0 C4.455 0.99 4.455 0.99 9 2 C8.34 3.32 7.68 4.64 7 6 C4.36 6 1.72 6 -1 6 C-0.566875 6.55429688 -0.13375 7.10859375 0.3125 7.6796875 C1.1478125 8.76636719 1.1478125 8.76636719 2 9.875 C2.556875 10.59429687 3.11375 11.31359375 3.6875 12.0546875 C5 14 5 14 5 16 C3.125 15.75 3.125 15.75 1 15 C-0.0625 13.125 -0.0625 13.125 -1 11 C-1.515625 10.484375 -2.03125 9.96875 -2.5625 9.4375 C-4 8 -4 8 -5 5 C-3.68 4.67 -2.36 4.34 -1 4 C-0.67 2.68 -0.34 1.36 0 0 Z " fill="#1E0000" transform="translate(122,132)"/>
<path d="M0 0 C0.99 0.33 1.98 0.66 3 1 C3.94921875 3.50390625 3.94921875 3.50390625 4.6875 6.5625 C5.06455078 8.08037109 5.06455078 8.08037109 5.44921875 9.62890625 C5.63097656 10.41136719 5.81273438 11.19382813 6 12 C6.66 12 7.32 12 8 12 C8.33 10.68 8.66 9.36 9 8 C9.33 8 9.66 8 10 8 C10 9.65 10 11.3 10 13 C8.35 13.66 6.7 14.32 5 15 C5 14.01 5 13.02 5 12 C4.34 12 3.68 12 3 12 C2.814375 11.401875 2.62875 10.80375 2.4375 10.1875 C0.27726247 6.90018201 -2.35107655 6.35145313 -6 5 C-6 3.68 -6 2.36 -6 1 C-5.34 1 -4.68 1 -4 1 C-4 1.66 -4 2.32 -4 3 C-3.01 3 -2.02 3 -1 3 C-0.67 2.01 -0.34 1.02 0 0 Z " fill="#290000" transform="translate(93,134)"/>
<path d="M0 0 C0.144375 0.598125 0.28875 1.19625 0.4375 1.8125 C0.8872439 3.56150404 1.42892341 5.28677023 2 7 C0.35 7.66 -1.3 8.32 -3 9 C-2.67 8.01 -2.34 7.02 -2 6 C-2.43570313 6.38414062 -2.87140625 6.76828125 -3.3203125 7.1640625 C-5.17032482 8.66169152 -6.86925638 9.9325017 -9 11 C-12.4375 10.3125 -12.4375 10.3125 -15 9 C-14.42655063 6.13275314 -14.1385485 5.1385485 -12 3 C-11.01 3 -10.02 3 -9 3 C-9 4.32 -9 5.64 -9 7 C-5.46627288 5.03681826 -2.75520215 2.95929119 0 0 Z " fill="#170000" transform="translate(95,148)"/>
<path d="M0 0 C1.98 0 3.96 0 6 0 C5.67 1.65 5.34 3.3 5 5 C5.99 4.34 6.98 3.68 8 3 C8.99 3 9.98 3 11 3 C11 3.66 11 4.32 11 5 C12.32 4.67 13.64 4.34 15 4 C15.33 5.65 15.66 7.3 16 9 C15.01 9 14.02 9 13 9 C12.67 8.67 12.34 8.34 12 8 C9.67182036 7.63239269 7.3381615 7.29758419 5 7 C5 7.99 5 8.98 5 10 C4.01 10 3.02 10 2 10 C1.34 6.7 0.68 3.4 0 0 Z " fill="#340000" transform="translate(97,116)"/>
<path d="M0 0 C3.63 0.33 7.26 0.66 11 1 C10.67 1.66 10.34 2.32 10 3 C7.67843403 3.40729228 5.3431213 3.74438677 3 4 C2.34 5.98 1.68 7.96 1 10 C-1.64 10 -4.28 10 -7 10 C-5.87994369 6.63983107 -4.62788203 5.30935087 -2 3 C-1.34 3 -0.68 3 0 3 C0 2.01 0 1.02 0 0 Z " fill="#CA0000" transform="translate(134,155)"/>
<path d="M0 0 C3.875 0.875 3.875 0.875 5 2 C5.04063832 3.66617115 5.042721 5.33388095 5 7 C5.928125 7.28875 6.85625 7.5775 7.8125 7.875 C11 9 11 9 14 11 C13.67 11.99 13.34 12.98 13 14 C12.113125 13.360625 11.22625 12.72125 10.3125 12.0625 C7.30788572 10.19170243 5.4489629 9.40576034 2 9 C2.33 7.35 2.66 5.7 3 4 C2.34 4 1.68 4 1 4 C1 4.66 1 5.32 1 6 C0.01 6 -0.98 6 -2 6 C-2 4.68 -2 3.36 -2 2 C-1.34 2 -0.68 2 0 2 C0 1.34 0 0.68 0 0 Z " fill="#3F0000" transform="translate(131,117)"/>
<path d="M0 0 C2.475 0.99 2.475 0.99 5 2 C3.125 9.625 3.125 9.625 2 13 C2.66 13.33 3.32 13.66 4 14 C2.1875 14.625 2.1875 14.625 0 15 C-0.99 14.34 -1.98 13.68 -3 13 C-3.33 13.66 -3.66 14.32 -4 15 C-5.32 15 -6.64 15 -8 15 C-8 13.68 -8 12.36 -8 11 C-5.03 10.34 -2.06 9.68 1 9 C1.07427838 5.65747276 1.06546953 3.1964086 0 0 Z " fill="#1E0000" transform="translate(95,79)"/>
<path d="M0 0 C1.98 0 3.96 0 6 0 C6.66 2.31 7.32 4.62 8 7 C3.25 10 3.25 10 1 10 C-0.1577506 6.52674819 -0.06866652 3.63932552 0 0 Z " fill="#DE0000" transform="translate(146,138)"/>
<path d="M0 0 C0.33644531 0.89332031 0.33644531 0.89332031 0.6796875 1.8046875 C2.38809208 4.64528919 4.23165386 5.55055808 7.125 7.125 C8.78028702 8.03001528 10.41517779 8.97659082 12 10 C12 10.66 12 11.32 12 12 C9.69 12 7.38 12 5 12 C4.34 10.68 3.68 9.36 3 8 C1.35 8 -0.3 8 -2 8 C-2.33 8.66 -2.66 9.32 -3 10 C-2.39009109 6.44219804 -1.4216319 3.3171411 0 0 Z " fill="#270000" transform="translate(126,120)"/>
<path d="M0 0 C1.32 0.33 2.64 0.66 4 1 C4.98120464 4.05263664 4.98120464 5.94736336 4 9 C4.66 9.33 5.32 9.66 6 10 C6 10.66 6 11.32 6 12 C4.02 11.34 2.04 10.68 0 10 C0 9.34 0 8.68 0 8 C-0.99 8 -1.98 8 -3 8 C-3.33 9.32 -3.66 10.64 -4 12 C-4 10.35 -4 8.7 -4 7 C-3.01 7 -2.02 7 -1 7 C-0.67 4.69 -0.34 2.38 0 0 Z " fill="#A10000" transform="translate(141,84)"/>
<path d="M0 0 C-0.28109113 1.64767247 -0.57518526 3.29313145 -0.875 4.9375 C-1.03742188 5.85402344 -1.19984375 6.77054687 -1.3671875 7.71484375 C-1.57601562 8.46894531 -1.78484375 9.22304687 -2 10 C-2.99 10.495 -2.99 10.495 -4 11 C-4.99 10.34 -5.98 9.68 -7 9 C-7.25660094 5.92078868 -7.39431504 3.78863007 -6 1 C-3 0 -3 0 0 0 Z " fill="#9D0000" transform="translate(124,118)"/>
<path d="M0 0 C0.99 0 1.98 0 3 0 C3 0.99 3 1.98 3 3 C4.32 3 5.64 3 7 3 C7 3.66 7 4.32 7 5 C6.34 5 5.68 5 5 5 C5.75150023 8.27773504 5.75150023 8.27773504 9 10 C7.68 10.33 6.36 10.66 5 11 C2.69 8.36 0.38 5.72 -2 3 C-1.34 2.01 -0.68 1.02 0 0 Z " fill="#2B0000" transform="translate(82,104)"/>
<path d="M0 0 C1.98 0 3.96 0 6 0 C5.6875 2.375 5.6875 2.375 5 5 C2 7 2 7 -0.1875 6.625 C-0.785625 6.41875 -1.38375 6.2125 -2 6 C-1.34 4.02 -0.68 2.04 0 0 Z " fill="#B10000" transform="translate(137,158)"/>
<path d="M0 0 C0.33 0.66 0.66 1.32 1 2 C2.32488113 2.36548445 3.66018514 2.6937566 5 3 C6.3479743 3.63654342 7.68596724 4.29605388 9 5 C9 5.66 9 6.32 9 7 C7.35 7.66 5.7 8.32 4 9 C3.67 8.34 3.34 7.68 3 7 C1.68 7.33 0.36 7.66 -1 8 C-0.4740625 7.13375 -0.4740625 7.13375 0.0625 6.25 C1.14917407 3.64198224 0.93065133 2.60582371 0 0 Z " fill="#B50000" transform="translate(86,137)"/>
<path d="M0 0 C0.33 0.66 0.66 1.32 1 2 C1.99 2.33 2.98 2.66 4 3 C4 3.66 4 4.32 4 5 C5.134375 5.12375 6.26875 5.2475 7.4375 5.375 C8.613125 5.58125 9.78875 5.7875 11 6 C11.33 6.66 11.66 7.32 12 8 C8.04 8 4.08 8 0 8 C-1.125 2.25 -1.125 2.25 0 0 Z " fill="#B30000" transform="translate(98,87)"/>
<path d="M0 0 C1.32 0.33 2.64 0.66 4 1 C3.67 2.65 3.34 4.3 3 6 C-1.455 6.495 -1.455 6.495 -6 7 C-5.67 5.68 -5.34 4.36 -5 3 C-3.35 3 -1.7 3 0 3 C0 2.01 0 1.02 0 0 Z " fill="#A70000" transform="translate(78,74)"/>
<path d="M0 0 C0.99 0 1.98 0 3 0 C3 1.32 3 2.64 3 4 C3.66 4 4.32 4 5 4 C5 5.65 5 7.3 5 9 C4.01 9 3.02 9 2 9 C1.67 9.99 1.34 10.98 1 12 C0.375 9.6875 0.375 9.6875 0 7 C0.66 6.01 1.32 5.02 2 4 C1.34 4 0.68 4 0 4 C0 2.68 0 1.36 0 0 Z " fill="#260000" transform="translate(151,94)"/>
<path d="M0 0 C0.33 1.32 0.66 2.64 1 4 C0.01 4 -0.98 4 -2 4 C-2 5.65 -2 7.3 -2 9 C-2.66 8.67 -3.32 8.34 -4 8 C-4 7.34 -4 6.68 -4 6 C-4.99 6 -5.98 6 -7 6 C-6.75 4.125 -6.75 4.125 -6 2 C-3.85331506 0.61504198 -2.56128588 0 0 0 Z " fill="#130000" transform="translate(139,87)"/>
<path d="M0 0 C0.598125 0.226875 1.19625 0.45375 1.8125 0.6875 C1.8125 2.3375 1.8125 3.9875 1.8125 5.6875 C-0.8275 5.6875 -3.4675 5.6875 -6.1875 5.6875 C-5.02477055 2.19931165 -4.06615469 -0.58087924 0 0 Z " fill="#2B0000" transform="translate(133.1875,159.3125)"/>
<path d="M0 0 C2.64 0.33 5.28 0.66 8 1 C7.25 3.9375 7.25 3.9375 6 7 C4.68 7.33 3.36 7.66 2 8 C1.34 5.36 0.68 2.72 0 0 Z " fill="#180000" transform="translate(142,168)"/>
<path d="M0 0 C2.4375 0.375 2.4375 0.375 5 1 C5.33 1.66 5.66 2.32 6 3 C4.68 3 3.36 3 2 3 C2.99 4.485 2.99 4.485 4 6 C3.625 8.1875 3.625 8.1875 3 10 C0.9375 8.375 0.9375 8.375 -1 6 C-0.75 2.75 -0.75 2.75 0 0 Z " fill="#1D0000" transform="translate(137,135)"/>
<path d="M0 0 C2.31 0 4.62 0 7 0 C7 1.32 7 2.64 7 4 C6.34 4 5.68 4 5 4 C5 4.66 5 5.32 5 6 C3.68 5.67 2.36 5.34 1 5 C0.67 3.35 0.34 1.7 0 0 Z " fill="#0F0000" transform="translate(107,109)"/>
<path d="M0 0 C1.32 0.33 2.64 0.66 4 1 C4 2.98 4 4.96 4 7 C4.99 7 5.98 7 7 7 C7 7.66 7 8.32 7 9 C5.35 9 3.7 9 2 9 C0 3.375 0 3.375 0 0 Z " fill="#510000" transform="translate(164,78)"/>
<path d="M0 0 C0 0.66 0 1.32 0 2 C1.32 1.67 2.64 1.34 4 1 C4.33 2.65 4.66 4.3 5 6 C4.01 6 3.02 6 2 6 C1.67 5.67 1.34 5.34 1 5 C0.01 4.855625 -0.98 4.71125 -2 4.5625 C-2.99 4.376875 -3.98 4.19125 -5 4 C-5.33 3.34 -5.66 2.68 -6 2 C-3 0 -3 0 0 0 Z " fill="#4B0000" transform="translate(108,119)"/>
<path d="M0 0 C0.144375 0.598125 0.28875 1.19625 0.4375 1.8125 C0.8872439 3.56150404 1.42892341 5.28677023 2 7 C0.35 7.66 -1.3 8.32 -3 9 C-2.67 8.01 -2.34 7.02 -2 6 C-3.98 6.99 -3.98 6.99 -6 8 C-4.55746343 4.63408134 -2.66735273 2.48952921 0 0 Z " fill="#7F0000" transform="translate(95,148)"/>
<path d="M0 0 C0.99 0.33 1.98 0.66 3 1 C2.67 2.32 2.34 3.64 2 5 C2.99 5.33 3.98 5.66 5 6 C4.34 7.98 3.68 9.96 3 12 C2.01 12 1.02 12 0 12 C0 8.04 0 4.08 0 0 Z " fill="#C90000" transform="translate(149,104)"/>
<path d="M0 0 C2.475 0.99 2.475 0.99 5 2 C3.25 9.625 3.25 9.625 1 13 C1 12.34 1 11.68 1 11 C-0.98 11 -2.96 11 -5 11 C-5 10.67 -5 10.34 -5 10 C-3.02 9.67 -1.04 9.34 1 9 C1.07427838 5.65747276 1.06546953 3.1964086 0 0 Z " fill="#470000" transform="translate(95,79)"/>
<path d="M0 0 C0 0.66 0 1.32 0 2 C-1.65848177 3.01351664 -3.32665961 4.01120795 -5 5 C-5.721875 5.721875 -6.44375 6.44375 -7.1875 7.1875 C-8.0846875 8.0846875 -8.0846875 8.0846875 -9 9 C-9.66 9 -10.32 9 -11 9 C-11 6 -11 6 -9.609375 4.39453125 C-8.99578125 3.87246094 -8.3821875 3.35039062 -7.75 2.8125 C-7.14671875 2.28269531 -6.5434375 1.75289062 -5.921875 1.20703125 C-4 0 -4 0 0 0 Z " fill="#320000" transform="translate(166,171)"/>
<path d="M0 0 C1.32 0.66 2.64 1.32 4 2 C4 2.66 4 3.32 4 4 C4.66 4.33 5.32 4.66 6 5 C2.375 8 2.375 8 -1 8 C-1 7.01 -1 6.02 -1 5 C-0.34 5 0.32 5 1 5 C0.67 3.35 0.34 1.7 0 0 Z " fill="#7D0000" transform="translate(98,129)"/>
<path d="M0 0 C2.0625 2.125 2.0625 2.125 4 5 C3.75 8.3125 3.75 8.3125 3 11 C2.67 11 2.34 11 2 11 C2 9.02 2 7.04 2 5 C1.34 5 0.68 5 0 5 C-0.33 6.32 -0.66 7.64 -1 9 C-1 7.68 -1 6.36 -1 5 C-2.98 5 -4.96 5 -7 5 C-7 4.67 -7 4.34 -7 4 C-5.02 4 -3.04 4 -1 4 C-0.67 2.68 -0.34 1.36 0 0 Z " fill="#6C0000" transform="translate(115,104)"/>
<path d="M0 0 C0.66 0.33 1.32 0.66 2 1 C1.67 2.32 1.34 3.64 1 5 C-0.32 5.33 -1.64 5.66 -3 6 C-3 6.66 -3 7.32 -3 8 C-3.99 8 -4.98 8 -6 8 C-6 7.34 -6 6.68 -6 6 C-6.66 5.67 -7.32 5.34 -8 5 C-7 4 -7 4 -3.9375 3.9375 C-2.4834375 3.9684375 -2.4834375 3.9684375 -1 4 C-0.67 2.68 -0.34 1.36 0 0 Z " fill="#820000" transform="translate(153,77)"/>
<path d="M0 0 C1.32 0.33 2.64 0.66 4 1 C4 2.65 4 4.3 4 6 C3.67 5.34 3.34 4.68 3 4 C2.34 4 1.68 4 1 4 C1 4.66 1 5.32 1 6 C0.01 6 -0.98 6 -2 6 C-2 4.68 -2 3.36 -2 2 C-1.34 2 -0.68 2 0 2 C0 1.34 0 0.68 0 0 Z " fill="#240000" transform="translate(131,117)"/>
<path d="M0 0 C0 2.97 0 5.94 0 9 C-0.66 9 -1.32 9 -2 9 C-2.33 7.02 -2.66 5.04 -3 3 C-4.32 2.67 -5.64 2.34 -7 2 C-2.25 0 -2.25 0 0 0 Z " fill="#360000" transform="translate(95,113)"/>
<path d="M0 0 C-0.33 1.32 -0.66 2.64 -1 4 C-1.66 4 -2.32 4 -3 4 C-3 3.34 -3 2.68 -3 2 C-4.65 2.33 -6.3 2.66 -8 3 C-8 2.01 -8 1.02 -8 0 C-5.13822943 -1.43088528 -3.06624227 -0.59991697 0 0 Z " fill="#340000" transform="translate(167,91)"/>
<path d="M0 0 C-0.33 1.65 -0.66 3.3 -1 5 C-4.375 4.6875 -4.375 4.6875 -8 4 C-8.66 3.01 -9.32 2.02 -10 1 C-9.05125 1.020625 -8.1025 1.04125 -7.125 1.0625 C-4.31337204 1.00626744 -2.6726858 0 0 0 Z " fill="#470000" transform="translate(166,102)"/>
<path d="M0 0 C-0.33 1.65 -0.66 3.3 -1 5 C-3.97 4.505 -3.97 4.505 -7 4 C-6.67 2.68 -6.34 1.36 -6 0 C-2.25 -1.125 -2.25 -1.125 0 0 Z " fill="#260000" transform="translate(132,107)"/>
<path d="M0 0 C0.66 1.32 1.32 2.64 2 4 C2.66 4 3.32 4 4 4 C4.33 2.68 4.66 1.36 5 0 C5.33 0 5.66 0 6 0 C6 1.65 6 3.3 6 5 C4.35 5.66 2.7 6.32 1 7 C1 6.01 1 5.02 1 4 C0.34 4 -0.32 4 -1 4 C-0.67 2.68 -0.34 1.36 0 0 Z " fill="#7F0000" transform="translate(97,142)"/>
<path d="M0 0 C0.66 0.33 1.32 0.66 2 1 C1.25 3.4375 1.25 3.4375 0 6 C-2.125 6.8125 -2.125 6.8125 -4 7 C-4.33 6.34 -4.66 5.68 -5 5 C-4.34 5 -3.68 5 -3 5 C-3 4.01 -3 3.02 -3 2 C-2.01 2 -1.02 2 0 2 C0 1.34 0 0.68 0 0 Z " fill="#CF0000" transform="translate(110,142)"/>
<path d="M0 0 C4.875 4.625 4.875 4.625 6 8 C4.125 7.75 4.125 7.75 2 7 C0.875 5.0625 0.875 5.0625 0 3 C-0.66 2.34 -1.32 1.68 -2 1 C-1.34 0.67 -0.68 0.34 0 0 Z " fill="#530000" transform="translate(121,140)"/>
<path d="M0 0 C0.99 0 1.98 0 3 0 C3.625 1.8125 3.625 1.8125 4 4 C3.01 5.485 3.01 5.485 2 7 C1.34 7 0.68 7 0 7 C0 4.69 0 2.38 0 0 Z " fill="#240000" transform="translate(146,138)"/>
<path d="M0 0 C-1.15173355 2.46800047 -2.04783565 4.04783565 -4 6 C-4.66 4.35 -5.32 2.7 -6 1 C-4 0 -4 0 0 0 Z " fill="#330000" transform="translate(130,155)"/>
<path d="M0 0 C1.32 0.33 2.64 0.66 4 1 C4 1.99 4 2.98 4 4 C2.02 4 0.04 4 -2 4 C-1.34 2.68 -0.68 1.36 0 0 Z " fill="#2A0000" transform="translate(80,98)"/>
<path d="M0 0 C1.98 0.99 1.98 0.99 4 2 C3.67 3.32 3.34 4.64 3 6 C2.01 6 1.02 6 0 6 C0 4.02 0 2.04 0 0 Z " fill="#240000" transform="translate(142,84)"/>
<path d="M0 0 C2.64 0.33 5.28 0.66 8 1 C8 1.33 8 1.66 8 2 C6.35 2 4.7 2 3 2 C2.67 2.99 2.34 3.98 2 5 C1.01 4.67 0.02 4.34 -1 4 C-0.67 2.68 -0.34 1.36 0 0 Z " fill="#B30000" transform="translate(137,148)"/>
<path d="M0 0 C0 0.99 0 1.98 0 3 C-1.65 3.33 -3.3 3.66 -5 4 C-5.33 3.01 -5.66 2.02 -6 1 C-4 0 -4 0 0 0 Z " fill="#2E0000" transform="translate(165,97)"/>
<path d="M0 0 C2.97 0.495 2.97 0.495 6 1 C5.67 1.66 5.34 2.32 5 3 C1.9375 3.625 1.9375 3.625 -1 4 C-0.67 2.68 -0.34 1.36 0 0 Z " fill="#250000" transform="translate(73,77)"/>
<path d="M0 0 C0.33 0 0.66 0 1 0 C1 1.65 1 3.3 1 5 C1.66 5 2.32 5 3 5 C3 5.66 3 6.32 3 7 C1.68 7.33 0.36 7.66 -1 8 C-1 4.88742431 -0.82638376 2.89234315 0 0 Z " fill="#660000" transform="translate(135,119)"/>
<path d="M0 0 C0.99 0 1.98 0 3 0 C2.67 1.65 2.34 3.3 2 5 C1.34 5 0.68 5 0 5 C-0.99 5.495 -0.99 5.495 -2 6 C-1.125 1.125 -1.125 1.125 0 0 Z " fill="#C70000" transform="translate(106,97)"/>
<path d="M0 0 C3.63 0.33 7.26 0.66 11 1 C11 1.33 11 1.66 11 2 C7.37 2.33 3.74 2.66 0 3 C0 2.01 0 1.02 0 0 Z " fill="#3A0000" transform="translate(134,155)"/>
<path d="M0 0 C2.4375 0.375 2.4375 0.375 5 1 C5.33 1.66 5.66 2.32 6 3 C3.69 3.33 1.38 3.66 -1 4 C-0.67 2.68 -0.34 1.36 0 0 Z " fill="#410000" transform="translate(137,135)"/>
<path d="M0 0 C0.33 0.66 0.66 1.32 1 2 C1.99 2.33 2.98 2.66 4 3 C1.09399739 4.25664978 -0.79604584 5 -4 5 C-4 4.34 -4 3.68 -4 3 C-3.01 2.67 -2.02 2.34 -1 2 C-0.67 1.34 -0.34 0.68 0 0 Z " fill="#A20000" transform="translate(124,128)"/>
<path d="M0 0 C-0.33 0.66 -0.66 1.32 -1 2 C-2.65 1.67 -4.3 1.34 -6 1 C-6 1.99 -6 2.98 -6 4 C-6.99 4 -7.98 4 -9 4 C-9 3.01 -9 2.02 -9 1 C-6.04335481 -0.4783226 -3.25770263 -0.06032783 0 0 Z " fill="#A30000" transform="translate(117,102)"/>
<path d="M0 0 C0.99 0.33 1.98 0.66 3 1 C3 1.66 3 2.32 3 3 C3.66 3.33 4.32 3.66 5 4 C4.01 4.99 3.02 5.98 2 7 C1.34 4.69 0.68 2.38 0 0 Z " fill="#6A0000" transform="translate(74,92)"/>
</svg>
