<?xml version="1.0" encoding="utf-8"?>
<!-- Generator: Adobe Illustrator 28.2.0, SVG Export Plug-In . SVG Version: 6.00 Build 0)  -->
<svg version="1.1" id="Layer_1" xmlns="http://www.w3.org/2000/svg" xmlns:xlink="http://www.w3.org/1999/xlink" x="0px" y="0px"
	 viewBox="0 0 500 500" style="enable-background:new 0 0 500 500;" xml:space="preserve">
<style type="text/css">
	.st0{fill:#E7E8E8;}
	.st1{fill:#D0905B;}
	.st2{fill:#2CB5CE;}
	.st3{fill:#2992BB;}
	.st4{fill:#FAB071;}
	.st5{fill:#FEDDC2;}
	.st6{fill:#FFFFFF;}
	.st7{fill:#C2C2C2;}
	.st8{fill:#9EDBE9;}
</style>
<path class="st0" d="M140.7,388.3c-0.2-0.8-0.4-1.6-0.6-2.4c-0.2-0.8-0.4-1.7-0.7-2.5c0-0.1-0.1-0.3-0.1-0.4
	c-0.2-0.6-0.3-1.2-0.5-1.8c-0.1-0.2-0.1-0.3-0.2-0.5c-0.1-0.3-0.2-0.6-0.3-0.9c-0.2-0.6-0.4-1.3-0.6-1.9c0-0.1-0.1-0.3-0.1-0.4
	c-0.1-0.2-0.1-0.3-0.2-0.5c0-0.1-0.1-0.2-0.1-0.4c-0.1-0.4-0.3-0.8-0.4-1.2c0-0.1-0.1-0.2-0.1-0.3c-0.2-0.5-0.3-0.9-0.5-1.4
	c0-0.1-0.1-0.3-0.1-0.4l-30.3,81c8.9,6.3,18.3,12.1,28,17.2c0.7-1.3,1.3-2.5,2-3.8c0.2-0.5,0.5-1,0.7-1.4c0.2-0.5,0.5-1,0.7-1.5
	c0.2-0.4,0.4-0.9,0.6-1.3c1-2.2,1.8-4.5,2.6-6.7c0.3-0.8,0.6-1.7,0.8-2.5c0,0,0-0.1,0-0.1c0.2-0.5,0.3-1,0.5-1.5
	c0.2-0.5,0.3-1,0.4-1.5c0.1-0.5,0.3-1,0.4-1.5c0.1-0.5,0.3-1,0.4-1.5c0.1-0.4,0.2-0.8,0.3-1.2c0.1-0.4,0.2-0.9,0.3-1.3
	c0.2-1,0.4-2,0.6-2.9c0.1-0.5,0.2-1,0.2-1.5c0.1-0.5,0.2-1,0.2-1.5c0.1-0.5,0.1-0.9,0.2-1.4c0.2-1.5,0.3-3,0.5-4.5
	c0-0.4,0.1-0.9,0.1-1.3c0-0.5,0.1-1.1,0.1-1.6c0-0.8,0.1-1.6,0.1-2.3c0-0.2,0-0.4,0-0.6C145.7,414.6,143.8,401.5,140.7,388.3z
	 M402.2,277.4c-0.2,0-0.5,0-0.7,0c-2.2,7-3.8,14.2-6.7,20.9c-8.8,20.4-23.6,34.5-46.1,38.3c-27.6,4.5-53.5-9.4-66.6-35.1
	c-6.8-13.3-9.6-27.5-10.3-42.3c-0.9-18.4,0.9-36.5,7.7-53.7c10.2-25.9,29.1-40.4,57-42.8c22.1-1.9,42.3,2.9,59.8,17.3
	c0.4,0.3,0.9,0.6,1.8,1.2c-0.1-0.7-0.2-1.4-0.3-2.1c-0.1-0.7-0.2-1.3-0.3-2c0,0,0-0.1,0-0.1v0c-2.8-7.3-8.3-18.3-17.5-26.3
	c-15-13.2-41.2-22-59.8-24.5c-17.3-2.3-57.2-4.8-90.9,14.9c0.7,0.3,1.3,0.7,1.9,1.1c0.3,0.2,0.6,0.4,0.9,0.6
	c0.3,0.2,0.6,0.4,0.9,0.6c0.3,0.2,0.6,0.4,0.9,0.6c0.3,0.2,0.6,0.4,0.9,0.6c0.3,0.2,0.6,0.4,0.9,0.7c0.6,0.4,1.1,0.9,1.7,1.4
	c0.3,0.3,0.6,0.5,0.9,0.8c0.2,0.2,0.5,0.4,0.7,0.6c0.3,0.3,0.5,0.5,0.8,0.8l0.1,0.1c0.2,0.2,0.5,0.5,0.7,0.7c0.9,1,1.8,2,2.6,3.1
	c0.1,0.2,0.3,0.3,0.4,0.5c0.7,1,1.3,1.9,2,3c0.1,0.2,0.3,0.5,0.4,0.7c0.3,0.6,0.6,1.1,0.9,1.7c0.3,0.7,0.7,1.3,0.9,2
	c0.7,1.6,1.3,3.3,1.8,5c0.1,0.3,0.1,0.5,0.2,0.8c0.1,0.6,0.3,1.1,0.4,1.7c4.3,21.5-9.3,42.5-30.3,46.6c-3.2,0.6-6.3,0.9-9.3,0.8
	c-0.3,0-0.5,0-0.8,0c-0.1,0-0.3,0-0.4,0c-0.2,0-0.4,0-0.6,0c-0.7-0.1-1.4-0.1-2.1-0.2c-0.4,0-0.7-0.1-1.1-0.2c-0.1,0-0.2,0-0.3-0.1
	c-0.3-0.1-0.7-0.1-1-0.2c-0.4-0.1-0.8-0.2-1.2-0.2c-0.4-0.1-0.8-0.2-1.2-0.3c-0.4-0.1-0.8-0.2-1.1-0.3c-0.9-0.3-1.9-0.6-2.8-0.9
	c-0.3-0.1-0.6-0.2-0.9-0.3c-1.1-0.4-2.1-0.9-3.1-1.4c-0.2-0.1-0.4-0.2-0.7-0.3c-0.4-0.2-0.8-0.5-1.2-0.7c-0.6-0.3-1.2-0.7-1.8-1.1
	c-0.1,0-0.1-0.1-0.2-0.1c-0.3-0.2-0.7-0.4-1-0.7c-0.3-0.2-0.6-0.4-0.9-0.7c-0.3-0.2-0.6-0.5-0.9-0.7c-0.3-0.2-0.5-0.4-0.8-0.6
	c-0.3-0.3-0.7-0.6-1-0.9c-0.3-0.3-0.6-0.5-0.9-0.8c-0.2-0.2-0.3-0.3-0.5-0.5c-0.2-0.1-0.3-0.3-0.4-0.4c-1.6-1.6-3.1-3.3-4.4-5.2
	c-4.3,10.4-6.7,20.7-8.2,30.1c-4,25.6-6.1,39.1-9.7,66.1c-3.4,25.2-17.9,59.9-19.8,64.5c0.3,0.6,0.6,1.2,0.9,1.9
	c0.1,0.3,0.3,0.6,0.4,0.9c0.2,0.5,0.5,1,0.7,1.5c0.1,0.2,0.1,0.3,0.2,0.5c0.3,0.6,0.5,1.1,0.7,1.7c0.1,0.2,0.2,0.3,0.2,0.5
	c0.3,0.7,0.6,1.4,0.9,2.2c1.9,4.6,3.6,9.2,5.1,13.9c0.5,1.5,1,3.1,1.4,4.6c0.3,0.9,0.5,1.8,0.8,2.8c0.2,0.7,0.4,1.5,0.6,2.2
	c0.3,1.1,0.6,2.3,0.9,3.4c0.2,0.8,0.4,1.6,0.5,2.3c0,0,0,0.1,0,0.1c0.4,1.8,0.8,3.6,1.1,5.4c0,0,0,0.1,0,0.1
	c0.2,0.9,0.3,1.8,0.5,2.7c0,0,0,0,0,0.1c0.2,0.9,0.3,1.8,0.4,2.7c0.1,0.9,0.2,1.7,0.3,2.6c0,0.1,0,0.1,0,0.2
	c12.1,17.9,54.3,72.2,118.3,70.2c59.4-1.9,90.1-29,102.8-44c0-0.1,0.1-0.2,0.1-0.3c0.2-0.6,0.4-1.2,0.7-1.8c0.6-1.6,1.1-3.1,1.6-4.7
	c0.2-0.6,0.4-1.1,0.6-1.7c1.6-5,3.1-10,4.4-15.1c0.2-0.7,0.4-1.4,0.6-2.2c0.2-0.7,0.3-1.3,0.5-2c1.3-5.4,2.5-10.8,3.5-16.3
	c0.2-1,0.4-1.9,0.5-2.9c0.2-1,0.3-1.9,0.5-2.9c0-0.1,0-0.1,0-0.1c0.2-0.9,0.3-1.8,0.4-2.7c0.2-1,0.3-1.9,0.4-2.9
	c0.1-1,0.3-1.9,0.4-2.9c0.1-1,0.3-2.1,0.4-3.1c0.1-0.9,0.2-1.8,0.3-2.7c0.2-1.9,0.5-3.9,0.7-5.8c2.2-21.2,4.7-42.3,6.9-63.5
	c0.8-7.5,0.9-15,1.3-22.5C402.5,280,402.3,278.7,402.2,277.4z"/>
<path d="M422.8,234.8c-1.2-8.6-3.7-17.1-5.2-25.7c-2.2-12.9-3.3-26-6.1-38.7c-11.2-51-40.5-86.8-90-105.1
	c-26.3-9.7-53.8-12.8-81.7-12.4c-18.5,0.2-36.7,2.4-54.6,7.1c-26.8,7.1-50.6,19.4-69.7,39.9c-17.8,19.1-28.9,41.7-36,66.6
	c-7.5,26.2-10.4,53.2-14.1,80.1c-3.1,22.3-10.5,42.6-24.6,60.3c-8.3,10.4-16.6,20.8-24.7,31.3c1.8,4.7,3.6,9.2,5.7,13.8
	c7-8.3,14.1-16.5,21.1-24.7c0.9-1,1.7-2,2.6-3.1c0.9-1,1.7-2.1,2.6-3.1c1.7-2.1,3.4-4.1,5.1-6.2c0.9-1,1.7-2.1,2.5-3.1
	c1.7-2.1,3.4-4.2,5-6.2c4.8-6,8.4-13.1,11.1-20.3c6.6-18.1,9.1-37.2,11.9-56.2c2.9-20.4,5.3-40.8,11.7-60.6
	c13.5-41.8,39.9-71.6,81.4-87.1c41.6-15.5,84.1-16.9,126.8-5.1c33.8,9.3,60.6,28.3,78.4,59c1.8,3.1,3.5,6.2,5,9.4
	c0.3,0.6,0.6,1.2,0.8,1.8c0.3,0.6,0.6,1.2,0.8,1.8c0.1,0.2,0.2,0.4,0.3,0.6c0.4,0.9,0.8,1.9,1.2,2.8c0.1,0.2,0.2,0.4,0.3,0.6
	c0.2,0.6,0.4,1.1,0.7,1.7c0.1,0.2,0.1,0.3,0.2,0.5c0.2,0.6,0.4,1.1,0.6,1.7c0.2,0.6,0.4,1.1,0.6,1.7c0.3,0.8,0.6,1.7,0.9,2.6
	c0.2,0.6,0.4,1.1,0.5,1.7c0.4,1.3,0.8,2.7,1.2,4c0,0,0,0,0,0v0c0.2,0.6,0.3,1.2,0.5,1.8c0.2,0.7,0.4,1.4,0.5,2.1
	c0.2,0.6,0.3,1.2,0.4,1.9c0.1,0.6,0.2,1.1,0.4,1.6c0,0.1,0,0.1,0,0.2c0.1,0.4,0.2,0.8,0.2,1.2c0.1,0.6,0.2,1.1,0.3,1.7
	c0,0.1,0,0.2,0.1,0.3c0,0.1,0,0.1,0,0.2l0,0c0,0.1,0,0.2,0,0.3c0.1,0.6,0.2,1.2,0.3,1.8c0.1,0.7,0.2,1.4,0.3,2.1
	c-0.9-0.6-1.4-0.8-1.8-1.2c-17.4-14.4-37.6-19.2-59.8-17.3c-27.9,2.5-46.8,16.9-57,42.8c-6.8,17.3-8.6,35.3-7.7,53.7
	c0.7,14.7,3.5,29,10.3,42.3c13.2,25.7,39.1,39.6,66.6,35.1c22.6-3.7,37.3-17.8,46.1-38.3c2.9-6.7,4.5-13.9,6.7-20.9
	c0.2,0,0.5,0,0.7,0c0.1,1.3,0.3,2.6,0.3,3.9c-0.4,7.5-0.5,15-1.3,22.5c-2.2,21.2-4.7,42.3-6.9,63.5c-0.9,8.8-2.2,17.5-3.8,26.1
	c-0.3,1.4-0.5,2.7-0.8,4.1c0,0,0,0.1,0,0.1c-0.3,1.3-0.6,2.7-0.8,4c-0.3,1.4-0.6,2.7-0.9,4.1c-0.3,1.4-0.6,2.7-1,4.1
	c-0.2,0.7-0.3,1.3-0.5,2c-0.2,0.7-0.4,1.5-0.6,2.2c-0.3,1.1-0.6,2.3-0.9,3.4c-0.1,0.2-0.1,0.5-0.2,0.7c-0.3,1.2-0.7,2.3-1,3.5
	c-0.4,1.4-0.8,2.7-1.2,4.1c-0.4,1.1-0.7,2.3-1.1,3.4c-0.2,0.5-0.3,1-0.5,1.5c-0.5,1.6-1.1,3.2-1.7,4.9c-0.2,0.6-0.4,1.2-0.7,1.8
	c0,0.1-0.1,0.2-0.1,0.3c-0.3,0.9-0.6,1.7-1,2.6c-0.3,0.8-0.6,1.6-0.9,2.4c-0.3,0.8-0.6,1.7-1,2.5c-0.3,0.7-0.6,1.5-0.9,2.2
	c-0.1,0.3-0.2,0.6-0.4,0.8c-0.3,0.6-0.5,1.3-0.8,1.9c-0.3,0.8-0.7,1.6-1.1,2.5c-0.7,1.6-1.5,3.3-2.2,4.9c-1.6,3.4-3.3,6.8-5,10.2
	c-0.3,0.7-0.7,1.3-1,2c-0.7,1.3-1.4,2.7-2,4c-0.3,0.5-0.5,1-0.8,1.5c7.4-3.1,14.3-6.9,21-11.1c1.7-1.1,3.3-2.8,4.2-4.6
	c0.2-0.3,0.3-0.6,0.4-0.9c10.4-24.8,17.2-50.6,20.9-77.1c3.8-27.7,6.4-55.6,9.5-83.4c0.6-5.2,0-10.8,1.7-15.7
	C424.6,266.7,425,250.8,422.8,234.8z M387.2,269.7c-1.5,14.6-5.8,28-15.9,39.1c-0.5,0.5-1,1.1-1.5,1.5c-0.2,0.2-0.4,0.4-0.7,0.6
	c-0.6,0.6-1.2,1.1-1.9,1.7c-0.2,0.2-0.4,0.3-0.6,0.5c-0.5,0.4-1,0.8-1.5,1.2c-0.1,0.1-0.1,0.1-0.2,0.2c-0.5,0.4-1,0.8-1.6,1.1
	c-0.3,0.2-0.6,0.4-0.9,0.6c-0.3,0.2-0.6,0.4-0.9,0.5c-0.2,0.1-0.5,0.3-0.7,0.4c-0.2,0.1-0.4,0.3-0.7,0.4c-0.3,0.2-0.6,0.3-0.9,0.5
	c-0.3,0.2-0.7,0.3-1,0.5c-0.3,0.2-0.7,0.3-1,0.5c-1,0.5-2.1,0.9-3.1,1.3c-0.4,0.1-0.7,0.3-1,0.4c-0.4,0.1-0.7,0.2-1.1,0.3
	c-0.7,0.2-1.4,0.4-2.2,0.6c-0.3,0.1-0.7,0.2-1,0.2c-1.1,0.3-2.3,0.5-3.5,0.6c-0.3,0-0.6,0.1-0.8,0.1c-0.3,0-0.6,0.1-1,0.1
	c-0.2,0-0.4,0-0.6,0.1h0c-0.7,0.1-1.3,0.1-2,0.1c-0.7,0-1.3,0-2,0c-12.9,0-25.9-5.5-35.3-15.7c-11.2-12.2-15.5-27-16.6-43.1
	c-0.3-4.4,0-8.9,0-13.3c11.6,13.5,26.7,12.2,41.8,11.2c8.6-0.6,17.2-1.2,25.7-1.1c0.5,0,1.1,0,1.6,0c0.2,0,0.4,0,0.6,0
	c0.6,0,1.2,0,1.7,0.1c0.7,0,1.3,0.1,2,0.1c0.6,0,1.1,0.1,1.6,0.1c0.4,0,0.8,0.1,1.2,0.1c1.2,0.1,2.4,0.2,3.6,0.4
	c1.6,0.2,3.2,0.4,4.8,0.7c0.4,0.1,0.8,0.1,1.2,0.2c0.2,0.1,0.4,0.1,0.7,0.1c0.4,0.1,0.8,0.2,1.2,0.3c1.2,0.3,2.5,0.6,3.7,0.9
	c0.5,0.1,0.9,0.3,1.4,0.4c0.2,0.1,0.4,0.1,0.5,0.2c0.4,0.1,0.8,0.2,1.1,0.4c0.8,0.3,1.6,0.5,2.5,0.8
	C386.4,266.4,387.5,267.2,387.2,269.7z M409.2,256.5c0,1-0.1,2-0.2,3.1c-0.1,1-0.1,2.1-0.2,3.1c0,0.3-0.1,0.6-0.1,1
	c-10-9.5-22-11.8-34.2-13.4c-20.6-2.6-41.1-0.4-61.7-0.1c-13.7,0.2-21.9-7.9-22.3-21.6c0-0.5,0-1-0.1-1.4c0-0.8-0.1-1.6-0.1-2.4
	c0-0.4,0-0.9,0-1.3c0-0.5,0-1,0-1.5c0.1-5.5,2-9.9,7.2-12.7c5.5-2.9,8.8-7.3,9.9-14c1.1-7.1,6.9-11.2,13.2-14.1
	c31.1-14,69.5,1.3,82.2,32.9c1.3,3.3,2.4,6.6,3.3,9.9c0.2,0.7,0.3,1.3,0.5,2c0,0.2,0.1,0.4,0.1,0.5c0.2,1,0.4,1.9,0.6,2.9
	c0.2,0.9,0.3,1.8,0.5,2.7c0.1,0.6,0.2,1.3,0.3,1.9c0.1,0.5,0.1,1,0.2,1.5c0.1,1,0.3,2.1,0.4,3.1c0.1,0.5,0.1,1,0.1,1.5
	C409.4,245.5,409.5,250.9,409.2,256.5z"/>
<path d="M174.8,160.6c-9.6,1.3-15.8-1.6-18-8.4c-0.4-1.2-0.6-2.4-0.6-3.7c0-0.9,0.4-2.3,0.9-2.5c0.9-0.3,2.2,0,3,0.5
	c9,6.1,14.7,6.2,24,0.2c6.4-4.2,12.8-8.2,20.6-9.7c20.2-3.8,41.3,10.4,45.4,30.7c4.3,21.5-9.3,42.5-30.3,46.6
	c-30,5.9-54.8-21.4-45.8-50.7C174.2,162.9,174.4,162,174.8,160.6z M196.4,173c4.8-0.1,8-3.5,7.9-8.3c-0.1-4.5-3.6-7.8-8.1-7.8
	c-4.6,0-8.2,3.7-8.1,8.3C188.1,169.8,191.6,173.1,196.4,173z M197.7,201.7c9.9,5.2,19.8,5.1,29.5-0.8c9.4-5.8,14.7-16.7,13.3-26.9
	C236.2,194.2,218.3,206.3,197.7,201.7z"/>
<path d="M419.2,282.2c-1.7,4.8-1.1,10.5-1.7,15.7c-3.1,27.8-5.7,55.7-9.5,83.4c-3.7,26.5-10.5,52.4-20.9,77.1
	c-0.1,0.3-0.3,0.6-0.4,0.9c-7.9,5.2-16,9.9-24.5,14.1c0.7-1.3,1.3-2.7,2-4c0.3-0.7,0.7-1.3,1-2c1.7-3.4,3.4-6.7,5-10.2
	c0.8-1.6,1.5-3.3,2.2-4.9c0.4-0.8,0.7-1.6,1.1-2.5c0.3-0.6,0.5-1.3,0.8-1.9c0.1-0.3,0.2-0.6,0.4-0.8c0.3-0.7,0.6-1.5,0.9-2.2
	c0.3-0.8,0.7-1.6,1-2.5c0.3-0.8,0.6-1.6,0.9-2.4c0.3-0.9,0.7-1.7,1-2.6c0-0.1,0.1-0.2,0.1-0.3c0.2-0.6,0.4-1.2,0.7-1.8
	c0.6-1.6,1.1-3.2,1.7-4.9c0.2-0.5,0.3-1,0.5-1.5c0.4-1.1,0.7-2.3,1.1-3.4c0.4-1.3,0.8-2.7,1.2-4.1c0.3-1.2,0.7-2.3,1-3.5
	c0.1-0.2,0.1-0.5,0.2-0.7c0.3-1.1,0.6-2.2,0.9-3.4c0.2-0.7,0.4-1.4,0.6-2.2c0.2-0.7,0.3-1.3,0.5-2c0.3-1.3,0.7-2.7,1-4.1
	c0.3-1.3,0.6-2.7,0.9-4.1c0.3-1.3,0.6-2.7,0.8-4c0,0,0-0.1,0-0.1c0.3-1.4,0.5-2.7,0.8-4.1c1.6-8.6,2.8-17.3,3.8-26.1
	c2.2-21.2,4.7-42.3,6.9-63.5c0.8-7.5,0.9-15,1.3-22.5c0.1-1.3-0.2-2.6-0.3-3.9c-0.2,0-0.5,0-0.7,0c-2.2,7-3.8,14.2-6.7,20.9
	c-8.8,20.4-23.6,34.5-46.1,38.3c-27.6,4.5-53.5-9.4-66.6-35.1c-6.8-13.3-9.6-27.5-10.3-42.3c-0.9-18.4,0.9-36.5,7.7-53.7
	c10.2-25.9,29.1-40.4,57-42.8c22.1-1.9,42.3,2.9,59.8,17.3c0.4,0.3,0.9,0.6,1.8,1.2c-0.1-0.7-0.2-1.4-0.3-2.1
	c-0.1-0.6-0.2-1.2-0.3-1.8c0-0.1,0-0.2,0-0.3l0,0c0-0.1,0-0.1,0-0.2c0-0.1,0-0.2-0.1-0.3c-0.1-0.6-0.2-1.1-0.3-1.7
	c-0.1-0.4-0.1-0.8-0.2-1.2c0-0.1,0-0.1,0-0.2c-0.1-0.6-0.2-1.1-0.4-1.6c-0.1-0.6-0.3-1.2-0.4-1.9c-0.2-0.7-0.3-1.4-0.5-2.1
	c-0.1-0.6-0.3-1.2-0.5-1.8v0c0,0,0,0,0,0c-0.4-1.3-0.8-2.7-1.2-4c-0.2-0.6-0.4-1.1-0.5-1.7c-0.3-0.9-0.6-1.7-0.9-2.6
	c-0.2-0.6-0.4-1.2-0.6-1.7c-0.2-0.6-0.4-1.1-0.6-1.7c-0.1-0.2-0.1-0.3-0.2-0.5c-0.2-0.6-0.4-1.1-0.7-1.7c-0.1-0.2-0.2-0.4-0.3-0.6
	c-0.4-0.9-0.8-1.9-1.2-2.8c-0.1-0.2-0.2-0.4-0.3-0.6c-0.3-0.6-0.5-1.2-0.8-1.8c-0.3-0.6-0.6-1.2-0.8-1.8c-1.5-3.2-3.2-6.3-5-9.4
	c-17.8-30.7-44.5-49.6-78.4-59c-42.8-11.8-85.2-10.4-126.8,5.1c-41.5,15.5-67.9,45.3-81.4,87.1c-6.4,19.7-8.7,40.2-11.7,60.6
	c-2.8,19-5.2,38.1-11.9,56.2c-2.6,7.2-6.3,14.4-11.1,20.3c-1.7,2.1-3.3,4.2-5,6.2c-0.8,1-1.7,2.1-2.5,3.1c-1.7,2.1-3.4,4.1-5.1,6.2
	c-0.9,1-1.7,2.1-2.6,3.1c-0.9,1-1.7,2.1-2.6,3.1c-7,8.2-14,16.4-21.1,24.7c-2-4.5-3.9-9.1-5.7-13.8c8.2-10.5,16.4-20.9,24.7-31.3
	c14.2-17.7,21.5-38,24.6-60.3c3.8-26.8,6.7-53.9,14.1-80.1c7.1-24.8,18.1-47.5,36-66.6C134.6,79.4,158.4,67,185.2,60
	c17.9-4.7,36.1-6.8,54.6-7.1c27.9-0.4,55.4,2.7,81.7,12.4c49.5,18.3,78.8,54.1,90,105.1c2.8,12.7,3.9,25.8,6.1,38.7
	c1.5,8.6,4,17.1,5.2,25.7C425,250.8,424.6,266.7,419.2,282.2z"/>
<path d="M158,431.9c0,0.5-0.1,1-0.1,1.5c0,0.5-0.1,1-0.1,1.4c0,0.5-0.1,1-0.1,1.5c-0.1,0.7-0.2,1.5-0.3,2.2
	c-0.1,0.7-0.2,1.5-0.3,2.2c-0.1,0.6-0.2,1.2-0.3,1.8c0,0.2-0.1,0.5-0.1,0.7c-0.1,0.6-0.2,1.2-0.3,1.8c-0.1,0.5-0.2,1-0.3,1.4
	c-0.1,0.6-0.3,1.2-0.4,1.8c-0.2,0.7-0.3,1.5-0.5,2.2c-0.1,0.6-0.3,1.1-0.4,1.7c0,0.1,0,0.1-0.1,0.2c-0.1,0.3-0.1,0.5-0.2,0.8
	c-0.1,0.4-0.2,0.9-0.4,1.3c-0.2,0.7-0.4,1.5-0.7,2.2c-0.1,0.3-0.2,0.7-0.3,1c-0.2,0.6-0.4,1.2-0.6,1.8c-0.2,0.6-0.4,1.3-0.7,1.9
	c-0.2,0.6-0.5,1.3-0.7,1.9c-0.1,0.3-0.3,0.7-0.4,1c-0.2,0.5-0.4,0.9-0.6,1.4c-0.2,0.6-0.5,1.1-0.7,1.7c-0.3,0.7-0.6,1.4-0.9,2
	c-0.3,0.7-0.6,1.3-1,2c-0.2,0.3-0.3,0.6-0.5,1c-0.2,0.3-0.3,0.6-0.5,0.9c-0.2,0.5-0.5,0.9-0.7,1.3c-0.4,0.7-0.7,1.4-1.1,2
	c-1.8-0.9-3.7-1.7-5.5-2.6c-0.1,0-0.2-0.1-0.2-0.1c-1.7-0.9-3.5-1.8-5.2-2.7c0.3-0.6,0.7-1.3,1-1.9c0.3-0.5,0.5-1,0.8-1.6
	c0.2-0.4,0.4-0.8,0.6-1.2c0.3-0.7,0.7-1.4,1-2.1c0.2-0.4,0.4-0.9,0.6-1.3c0.5-1.1,0.9-2.2,1.4-3.3c0.2-0.5,0.4-1,0.6-1.5
	c0,0,0-0.1,0.1-0.1c0.3-0.7,0.5-1.4,0.7-2.1c0.2-0.7,0.5-1.4,0.7-2.1c0,0,0-0.1,0-0.1c0.2-0.5,0.3-1,0.5-1.5c0.2-0.5,0.3-1,0.4-1.5
	c0.1-0.5,0.3-1,0.4-1.5c0.1-0.5,0.3-1,0.4-1.5c0.2-0.9,0.4-1.7,0.6-2.6c0.2-1,0.4-2,0.6-2.9c0.1-0.7,0.2-1.5,0.4-2.2
	c0.1-0.7,0.2-1.4,0.3-2.1c0,0,0-0.1,0-0.1v0c0.1-0.7,0.2-1.4,0.2-2.2c0.1-0.8,0.2-1.5,0.2-2.3c0.1-1,0.2-2,0.2-3
	c0-0.8,0.1-1.5,0.1-2.3c0-0.6,0-1.2,0-1.8c0-0.6,0-1.2,0-1.8c0-6.1-0.5-12.3-1.3-18.5c-0.5-3.7-1.2-7.4-1.9-11.1
	c-0.3-1.5-0.6-3-1-4.6c-0.2-0.8-0.4-1.5-0.5-2.3c-0.2-0.8-0.4-1.6-0.6-2.4c-0.2-0.7-0.3-1.3-0.5-2c-0.1-0.3-0.2-0.7-0.3-1
	c-0.2-0.6-0.3-1.2-0.5-1.8c-0.1-0.5-0.3-1-0.4-1.4c0,0,0-0.1,0-0.1c-0.1-0.4-0.2-0.8-0.4-1.2c0,0,0,0,0,0c-0.1-0.4-0.3-0.8-0.4-1.2
	c0,0,0,0,0-0.1c-0.1-0.2-0.1-0.3-0.1-0.4c-0.1-0.2-0.1-0.3-0.2-0.5c-0.1-0.2-0.2-0.5-0.2-0.7c0-0.1-0.1-0.3-0.1-0.4
	c-0.2-0.5-0.3-0.9-0.5-1.4c0-0.1-0.1-0.3-0.1-0.4v0c-0.2-0.6-0.4-1.1-0.6-1.7c0-0.1-0.1-0.3-0.2-0.4c-0.1-0.2-0.1-0.3-0.2-0.5
	c-0.1-0.1-0.1-0.3-0.1-0.4c-0.1-0.4-0.3-0.7-0.4-1.1c-0.1-0.3-0.2-0.6-0.4-0.9c0,0,0,0,0,0c-0.2-0.5-0.4-1-0.6-1.4c0,0,0,0,0,0
	c0-0.1-0.1-0.2-0.1-0.3c-0.2-0.6-0.5-1.2-0.8-1.8c0,0,0,0,0,0c0-0.1-0.1-0.2-0.1-0.3c0-0.1-0.1-0.2-0.1-0.2
	c-0.2-0.4-0.3-0.8-0.5-1.2c0,0,0,0,0-0.1c0,0,0,0,0,0c0-0.1-0.1-0.2-0.1-0.3c0,0,0-0.1,0-0.1c0-0.1-0.1-0.2-0.1-0.2
	c-0.1-0.1-0.1-0.2-0.2-0.4c-0.1-0.1-0.1-0.3-0.2-0.4c0,0,0,0,0,0l0,0c0-0.1-0.1-0.2-0.1-0.3c0-0.1-0.1-0.1-0.1-0.2
	c-0.2-0.4-0.3-0.7-0.5-1.1c0-0.1,0-0.1-0.1-0.1c-0.1-0.2-0.2-0.4-0.3-0.6c-0.2-0.5-0.5-0.9-0.7-1.4c-0.1-0.2-0.2-0.5-0.4-0.7
	c-0.2-0.3-0.3-0.6-0.5-0.9c0,0,0,0,0-0.1c-0.1-0.1-0.1-0.2-0.2-0.3c-0.1-0.2-0.2-0.4-0.3-0.6c0-0.1-0.1-0.2-0.1-0.2
	c-0.1-0.2-0.2-0.4-0.4-0.7c-0.1-0.2-0.2-0.4-0.4-0.6c0,0,0,0,0-0.1c0-0.1-0.1-0.1-0.1-0.2c0,0,0,0,0,0c0,0,0,0,0-0.1c0,0,0,0,0-0.1
	c0,0,0,0,0,0c0-0.1-0.1-0.1-0.1-0.2c0,0,0-0.1-0.1-0.1c0,0,0-0.1-0.1-0.1c0,0,0-0.1,0-0.1c-0.1-0.1-0.1-0.2-0.2-0.3
	c-0.3-0.5-0.5-0.9-0.8-1.4c-0.1-0.1-0.1-0.2-0.2-0.3c-0.2-0.3-0.4-0.7-0.6-1c-0.1-0.1-0.1-0.2-0.2-0.4c-0.1-0.1-0.1-0.2-0.2-0.3
	c0,0,0,0,0,0c-0.1-0.1-0.2-0.3-0.3-0.4c-0.1-0.1-0.2-0.3-0.3-0.4c0,0,0-0.1-0.1-0.1c-0.3-0.4-0.6-0.9-0.9-1.3
	c-0.1-0.1-0.1-0.2-0.2-0.3c-0.1-0.1-0.2-0.2-0.2-0.3c-0.3-0.4-0.5-0.8-0.8-1.2c-0.1-0.1-0.1-0.2-0.2-0.3c0,0,0-0.1-0.1-0.1
	c-0.3-0.5-0.7-1-1-1.5c-0.1-0.1-0.2-0.3-0.3-0.4c-0.1-0.1-0.2-0.2-0.2-0.3c-0.2-0.2-0.3-0.4-0.5-0.6c-0.1-0.2-0.2-0.3-0.3-0.4
	c-0.1-0.1-0.2-0.2-0.2-0.3c0-0.1-0.1-0.1-0.1-0.2c0-0.1-0.1-0.1-0.1-0.2c0-0.1-0.1-0.1-0.1-0.2c-0.2-0.2-0.3-0.4-0.5-0.6
	c0,0,0,0,0,0c-0.1-0.2-0.3-0.4-0.4-0.6c-0.1-0.2-0.3-0.4-0.4-0.5c-0.1-0.1-0.2-0.2-0.3-0.3c-0.1-0.1-0.2-0.3-0.3-0.4
	c-0.2-0.2-0.4-0.4-0.5-0.7c-0.1-0.1-0.2-0.2-0.3-0.3c0,0,0,0,0-0.1c0,0-0.1-0.1-0.1-0.1c0,0,0,0,0,0c0,0,0,0,0,0
	c0,0-0.1-0.1-0.1-0.1c0,0,0,0,0,0c0,0,0-0.1-0.1-0.1c-0.3-0.4-0.6-0.7-0.9-1.1c-0.2-0.3-0.4-0.5-0.6-0.7c0-0.1-0.1-0.1-0.1-0.2
	c-0.1-0.1-0.2-0.2-0.3-0.3l-0.5-0.5c-0.1-0.1-0.2-0.2-0.3-0.3c-0.2-0.3-0.5-0.5-0.7-0.8c0,0,0,0,0,0c-0.1-0.2-0.3-0.3-0.4-0.4
	c-0.2-0.3-0.5-0.5-0.7-0.8c-0.1-0.1-0.2-0.2-0.2-0.3c-0.6-0.6-1.2-1.3-1.8-1.9c-0.1-0.1-0.2-0.2-0.3-0.3c0,0,0,0,0,0
	c-0.2-0.2-0.3-0.3-0.5-0.5c-0.1-0.1-0.2-0.2-0.3-0.3c0,0-0.1-0.1-0.1-0.1c-0.1-0.1-0.1-0.1-0.2-0.2c-0.1-0.1-0.1-0.1-0.2-0.2
	c-0.1-0.1-0.2-0.2-0.3-0.3c-0.1-0.1-0.1-0.1-0.2-0.1c0,0,0,0-0.1-0.1c-0.1-0.1-0.2-0.2-0.2-0.2c0,0-0.1-0.1-0.1-0.1
	c-0.2-0.2-0.3-0.3-0.5-0.5c-0.1-0.1-0.1-0.1-0.2-0.2c-0.1,0-0.1-0.1-0.1-0.1c-0.1-0.1-0.2-0.2-0.3-0.3c-0.1-0.1-0.1-0.1-0.2-0.2
	c-0.4-0.4-0.8-0.7-1.2-1.1c-0.1-0.1-0.2-0.2-0.3-0.2c-0.3-0.3-0.6-0.5-0.9-0.8c-0.1-0.1-0.2-0.2-0.3-0.3c-0.1-0.1-0.2-0.2-0.3-0.3
	c0,0,0,0,0,0c-0.2-0.2-0.4-0.4-0.7-0.6c-0.1-0.1-0.2-0.2-0.3-0.3c-0.1-0.1-0.1-0.1-0.2-0.2c-0.3-0.3-0.7-0.6-1-0.8
	c-0.1-0.1-0.2-0.2-0.3-0.2c-0.1-0.1-0.2-0.2-0.3-0.3c-0.4-0.4-0.9-0.7-1.3-1.1c-0.7-0.6-1.4-1.1-2.2-1.7c-0.3-0.2-0.6-0.4-0.8-0.6
	c-0.1-0.1-0.1-0.1-0.2-0.2c-0.4-0.3-0.8-0.6-1.1-0.8c0,0,0,0,0,0c-0.2-0.2-0.5-0.4-0.7-0.5c0.3-0.4,0.6-0.8,0.9-1.2
	c4.1,2,8.5,3.6,12.4,6.1c0.5,0.3,0.9,0.6,1.4,0.9c0,0,0,0,0,0c0.4,0.3,0.8,0.6,1.3,0.8c0.2,0.2,0.4,0.3,0.7,0.5
	c0.4,0.3,0.8,0.6,1.2,0.9c0,0,0,0,0,0c0,0,0.1,0,0.1,0c0,0,0,0,0,0c0.2,0.1,0.4,0.2,0.5,0.4c0.1,0.1,0.2,0.1,0.3,0.2
	c0.1,0.1,0.2,0.2,0.4,0.3c0.4,0.3,0.7,0.5,1.1,0.8c0,0,0.1,0.1,0.1,0.1c0.4,0.3,0.8,0.6,1.2,0.9c0.4,0.3,0.8,0.7,1.3,1c0,0,0,0,0,0
	c0,0,0,0,0,0c0.3,0.2,0.6,0.4,0.8,0.7c0.1,0.1,0.3,0.2,0.4,0.3c0.1,0.1,0.1,0.1,0.2,0.2c0.1,0.1,0.2,0.2,0.4,0.3
	c0.3,0.2,0.6,0.5,0.9,0.7c0.4,0.3,0.7,0.6,1.1,0.9c0.4,0.4,0.8,0.7,1.2,1.1c0.6,0.5,1.1,1,1.6,1.5c0.4,0.4,0.9,0.8,1.3,1.3l0.2,0.2
	c0.4,0.3,0.7,0.7,1,1.1c0.3,0.3,0.6,0.7,1,1c0.3,0.3,0.6,0.7,0.9,1c0,0,0.1,0.1,0.1,0.1c0.1,0.1,0.2,0.2,0.2,0.3c0,0,0,0,0.1,0.1
	c0.4,0.5,0.9,0.9,1.3,1.4c0.1,0.1,0.2,0.2,0.2,0.3c0.4,0.4,0.7,0.9,1.1,1.3c0.1,0.2,0.2,0.3,0.4,0.4c0.1,0.1,0.1,0.1,0.2,0.2
	c0,0,0.1,0.1,0.1,0.1c0.1,0.1,0.2,0.3,0.3,0.4c0.1,0.1,0.2,0.3,0.3,0.4c0.2,0.2,0.4,0.5,0.6,0.7c0.3,0.4,0.6,0.8,0.9,1.2
	c0.1,0.1,0.1,0.1,0.1,0.2c0.2,0.3,0.4,0.5,0.6,0.8c0.1,0.2,0.3,0.4,0.4,0.6c0,0,0.1,0.1,0.1,0.1c0.1,0.1,0.1,0.1,0.2,0.2
	c0.2,0.3,0.5,0.7,0.7,1c0.2,0.2,0.3,0.4,0.5,0.6l0.5,0.7c0,0,0,0,0,0c0.1,0.2,0.2,0.3,0.3,0.5c0,0,0,0.1,0.1,0.1
	c0.3,0.5,0.6,0.9,0.9,1.4c0,0.1,0.1,0.1,0.1,0.2c0.1,0.2,0.3,0.5,0.4,0.7c0.3,0.5,0.7,1.1,1,1.6c0.1,0.1,0.2,0.3,0.3,0.4
	c0,0,0.1,0.1,0.1,0.1c0,0.1,0.1,0.1,0.1,0.2c0.1,0.1,0.1,0.2,0.2,0.3c0,0,0,0,0,0c0.1,0.1,0.1,0.1,0.1,0.2c0.5,0.8,1,1.7,1.4,2.6
	c0.1,0.2,0.2,0.4,0.3,0.6c0.1,0.2,0.2,0.4,0.3,0.6c0.1,0.2,0.2,0.4,0.3,0.5c0.5,1,1,1.9,1.4,2.9c0.2,0.4,0.4,0.7,0.5,1.1
	c0,0.1,0.1,0.1,0.1,0.2c0.3,0.6,0.6,1.3,0.9,1.9c0.1,0.2,0.1,0.3,0.2,0.5c0.3,0.8,0.7,1.6,1,2.4c1.9,4.6,3.6,9.2,5.1,13.9
	c0.5,1.5,1,3.1,1.4,4.6c0.3,0.9,0.5,1.8,0.8,2.7c0.2,0.7,0.4,1.5,0.6,2.2c0.2,0.7,0.4,1.4,0.6,2.2c0.2,0.8,0.4,1.6,0.6,2.4
	c0.1,0.3,0.1,0.5,0.2,0.8c0,0.2,0.1,0.3,0.1,0.5c0.1,0.4,0.2,0.8,0.3,1.3c0,0.1,0,0.1,0,0.2c0.1,0.4,0.2,0.8,0.3,1.3
	c0.2,0.9,0.4,1.8,0.5,2.7c0,0.2,0.1,0.5,0.1,0.7c0.1,0.6,0.2,1.2,0.3,1.8c0,0.1,0,0.2,0.1,0.3c0.1,0.8,0.2,1.5,0.3,2.3
	c0,0.1,0,0.1,0,0.2c0,0.1,0,0.2,0,0.3c0.1,0.4,0.1,0.9,0.2,1.3c0.1,0.4,0.1,0.9,0.2,1.3c0,0.1,0,0.1,0,0.2c0.1,0.4,0.1,0.8,0.1,1.3
	c0,0.3,0.1,0.6,0.1,0.9c0.1,0.9,0.2,1.8,0.2,2.7c0,0.4,0.1,0.7,0.1,1.1c0.1,1,0.1,2,0.2,3c0,0.4,0,0.8,0.1,1.2c0,0.2,0,0.3,0,0.4
	C158.3,425.2,158.2,428.5,158,431.9z"/>
<path d="M250,167.9c4.3,21.5-9.3,42.5-30.3,46.6c-30,5.9-54.8-21.4-45.8-50.7c0.3-0.9,0.5-1.8,0.9-3.2c-9.6,1.3-15.8-1.6-18-8.4
	c-0.4-1.2-0.6-2.4-0.6-3.7c0-0.9,0.4-2.3,0.9-2.5c0.9-0.3,2.2,0,3,0.5c9,6.1,14.7,6.2,24,0.2c6.4-4.2,12.8-8.2,20.6-9.7
	C224.9,133.3,245.9,147.5,250,167.9z"/>
<path class="st1" d="M408.8,262.6c0,0.3-0.1,0.6-0.1,1c-10-9.5-22-11.8-34.2-13.4c-20.6-2.6-41.1-0.4-61.7-0.1
	c-13.7,0.2-21.9-7.9-22.3-21.6c0-1.7-0.1-3.4-0.2-5.1c1.5,4.7,5.7,13.3,16.1,15.6c14.5,3.1,36.3-2.9,65,0
	C396.4,241.5,405.3,255.4,408.8,262.6z"/>
<path class="st2" d="M397.4,176.8c-2.8-7.3-8.3-18.3-17.5-26.3c-15-13.2-41.2-22-59.8-24.5c-17.3-2.3-57.2-4.8-90.9,14.9
	c-0.3-0.2-0.6-0.3-0.9-0.5c-0.4-0.2-0.8-0.4-1.2-0.6c-0.4-0.2-0.7-0.3-1.1-0.5c0,0,0,0,0,0c-0.3-0.1-0.7-0.3-1-0.4
	c-0.4-0.2-0.9-0.3-1.3-0.5c-0.3-0.1-0.6-0.2-0.9-0.3c-2.2-0.7-4.5-1.2-6.9-1.5c-0.4-0.1-0.7-0.1-1-0.1c-0.4,0-0.8-0.1-1.2-0.1
	c-0.2,0-0.5,0-0.7,0c-0.2,0-0.4,0-0.6,0c-2.5-0.1-5.1,0.1-7.6,0.6c-7.8,1.5-14.2,5.5-20.6,9.7c-9.2,6.1-15,5.9-24-0.2
	c-0.8-0.5-2.1-0.8-3-0.5c-0.5,0.2-0.9,1.6-0.9,2.5c0,1.2,0.2,2.5,0.6,3.7c2.2,6.7,8.4,9.7,18,8.4c-0.4,1.3-0.6,2.3-0.9,3.2
	c-1.3,4.1-1.8,8.2-1.8,12.2c0,0.5,0,1,0,1.4c0,0.1,0,0.1,0,0.2c0,0.3,0,0.7,0.1,1c0,0.3,0,0.7,0.1,1c0,0.3,0,0.5,0.1,0.7
	c0,0.1,0,0.2,0,0.3c0.1,0.5,0.1,0.9,0.2,1.4c0.1,0.5,0.2,1,0.3,1.5c0.1,0.5,0.2,1,0.3,1.4c0,0,0,0.1,0,0.1c0.2,1,0.5,1.9,0.8,2.8
	c0.2,0.5,0.3,0.9,0.5,1.4c0,0,0,0,0,0.1c0.3,0.9,0.7,1.8,1.1,2.6c0,0.1,0.1,0.2,0.1,0.3c0.2,0.4,0.4,0.8,0.6,1.2
	c0.2,0.4,0.4,0.8,0.6,1.2c0.5,1,1.1,1.9,1.7,2.9c0.2,0.3,0.4,0.7,0.7,1c-4.3,10.4-6.7,20.7-8.2,30.1c-4,25.6-6.1,39.1-9.7,66.1
	c-3.4,25.2-17.9,59.9-19.8,64.5c0-0.1-0.1-0.1-0.1-0.2c-0.3-0.5-0.5-1-0.8-1.5c-2.1-3.8-4.4-7.4-6.9-10.8c-0.3-0.4-0.5-0.7-0.8-1.1
	c-3.6-4.8-7.6-9.2-12-13.2c-0.4-0.4-0.8-0.7-1.2-1.1c-0.4-0.3-0.7-0.6-1.1-0.9c-0.1-0.1-0.3-0.2-0.4-0.3c-0.3-0.3-0.7-0.6-1-0.8
	c0,0,0,0-0.1-0.1c-0.8-0.7-1.7-1.4-2.5-2c-1.6-1.2-3.2-2.4-4.9-3.5c-0.4-0.3-0.9-0.6-1.3-0.9c-0.7-0.4-1.3-0.9-2-1.3
	c-3.9-2.4-8.2-4.1-12.4-6.1c-0.3,0.4-0.6,0.8-0.9,1.2c0.2,0.2,0.5,0.4,0.7,0.5c0,0,0,0,0,0c0.4,0.3,0.8,0.6,1.1,0.8
	c0.1,0.1,0.2,0.2,0.3,0.2c0.2,0.2,0.5,0.4,0.7,0.6c0.4,0.3,0.8,0.6,1.2,1c0.3,0.2,0.5,0.4,0.8,0.6c0.1,0,0.1,0.1,0.2,0.1
	c0.5,0.4,1,0.8,1.5,1.2c0.1,0,0.1,0.1,0.1,0.1c0.1,0.1,0.2,0.2,0.3,0.2c0.4,0.3,0.8,0.7,1.2,1c0.1,0.1,0.2,0.2,0.3,0.3
	c0.1,0.1,0.1,0.1,0.2,0.2c0.2,0.1,0.3,0.3,0.5,0.4c0.3,0.3,0.6,0.5,0.9,0.8c0.2,0.2,0.5,0.4,0.7,0.6c0.1,0.1,0.2,0.2,0.3,0.3
	c0.2,0.2,0.5,0.4,0.7,0.6c0.2,0.2,0.5,0.4,0.7,0.6c0.2,0.2,0.4,0.4,0.6,0.6c0.4,0.4,0.8,0.7,1.2,1.1c0,0,0,0,0,0
	c0.2,0.1,0.3,0.3,0.5,0.4c0.3,0.3,0.5,0.5,0.8,0.8c0.1,0.1,0.3,0.3,0.4,0.4c0.1,0.1,0.3,0.3,0.4,0.4c0.1,0,0.1,0.1,0.1,0.1
	c0.3,0.3,0.6,0.6,0.9,0.9c0.1,0.1,0.1,0.1,0.2,0.2c0.2,0.2,0.3,0.3,0.5,0.5c0.4,0.4,0.8,0.8,1.1,1.2c0.3,0.4,0.7,0.7,1,1.1l0.5,0.5
	c0.1,0.1,0.2,0.2,0.3,0.3c0.3,0.3,0.5,0.6,0.8,0.9c0.2,0.2,0.4,0.4,0.6,0.6c0.1,0.1,0.2,0.3,0.3,0.4c0.1,0.2,0.3,0.3,0.4,0.5
	c0.1,0.1,0.1,0.1,0.2,0.2c0.3,0.3,0.5,0.6,0.8,1c0,0,0,0,0,0.1c0.3,0.3,0.5,0.6,0.8,1c0.2,0.2,0.3,0.4,0.5,0.6
	c0.3,0.4,0.6,0.8,0.9,1.2c0.2,0.3,0.4,0.5,0.6,0.8c0.2,0.3,0.4,0.5,0.6,0.8c0.1,0.1,0.2,0.3,0.3,0.4c0.4,0.6,0.8,1.2,1.3,1.8
	c0.4,0.6,0.8,1.1,1.1,1.7c0.1,0.1,0.1,0.1,0.2,0.2c0,0,0.1,0.1,0.1,0.1c0.3,0.4,0.5,0.8,0.8,1.2c0.3,0.4,0.6,0.9,0.8,1.3
	c0.2,0.3,0.4,0.7,0.6,1c0.1,0.1,0.2,0.2,0.2,0.4c0,0,0,0,0,0.1c0.3,0.5,0.6,1.1,1,1.6c0.1,0.2,0.2,0.3,0.3,0.5
	c0.1,0.1,0.1,0.2,0.2,0.3c0.2,0.4,0.4,0.7,0.6,1.1c0.1,0.1,0.2,0.3,0.2,0.4c0.2,0.3,0.3,0.5,0.4,0.8c0.3,0.5,0.5,1,0.8,1.5
	c0.1,0.2,0.2,0.3,0.3,0.5c0.3,0.5,0.5,0.9,0.7,1.4c0.1,0.2,0.2,0.4,0.3,0.6c0.2,0.5,0.5,0.9,0.7,1.4c0,0.1,0.1,0.1,0.1,0.1
	c0.2,0.4,0.4,0.8,0.6,1.2c0.6,1.3,1.2,2.6,1.8,3.9c0.3,0.6,0.5,1.2,0.8,1.9c0.1,0.2,0.2,0.5,0.3,0.7c0.2,0.5,0.4,0.9,0.6,1.4
	c0.2,0.4,0.3,0.7,0.4,1.1c0.2,0.5,0.4,0.9,0.5,1.4c0,0,0,0,0,0.1c0,0,0,0,0,0l-30.3,81c-1.8-1.3-3.6-2.6-5.3-3.9
	c-28.7-21.5-52.7-49-70-80.6c2.7-3.8,6-8.2,10-12.5c10.8-11.9,38-36.4,45.7-54.7c7.7-18.2,9.7-27.4,12.4-45.7
	c2.7-18.2,7.6-63.4,21.6-91.8c14-28.3,37.8-58.3,86.6-72.7s90.7-3.8,120.8,8.5c30.1,12.4,43.6,28.8,55.8,43.4
	c5.9,7.1,9.5,15.1,11.7,21.5v0c0.2,0.6,0.3,1.2,0.5,1.8c0.2,0.7,0.4,1.4,0.5,2.1c0.3,1.2,0.6,2.5,0.8,3.7c0.1,0.4,0.2,0.8,0.2,1.2
	C397.1,175.4,397.3,176.1,397.4,176.8z"/>
<path class="st3" d="M134.7,470.6c1.7,0.9,3.5,1.8,5.2,2.7l-0.6,1c-0.1,0-0.2-0.1-0.2-0.1c-1.7-0.9-3.5-1.8-5.2-2.7
	c-9.7-5.1-19.1-10.9-28-17.2c-1.8-1.3-3.6-2.6-5.3-3.9c4.4-10.3,12.9-33.5,14.4-63.9c1.9-37.9-17.8-65.1-21.3-69.5c0,0,0,0,0,0
	c-0.3-0.3-0.4-0.5-0.5-0.6l7.3,4.4c16.9,13.8,28.8,31,36.2,51v0c1.9,5,3.5,10.3,4.7,15.7C148.3,415.9,149.3,443.8,134.7,470.6z"/>
<path class="st4" d="M408.8,262.6c-3.6-7.2-12.4-21.1-37.3-23.6c-28.7-2.9-50.5,3.1-65,0c-10.5-2.2-14.6-10.9-16.1-15.6
	c0-0.5,0-1,0-1.5c0.1-5.5,2-9.9,7.2-12.7c5.5-2.9,8.8-7.3,9.9-14c1.1-7.1,6.9-11.2,13.2-14.1c31.1-14,69.5,1.3,82.2,32.9
	C409.1,229.5,410.2,245.6,408.8,262.6z"/>
<path class="st4" d="M387.2,269.7c-1.5,14.6-5.8,28-15.9,39.1c-7.8,8.5-17.9,13.1-28.3,14c5.3-1.9,13.2-6.5,20.1-17.3
	c11.6-18.1,9.5-36,9-40.9c-0.1-0.8-0.2-1.6-0.2-2.2c4.2,0.7,8.3,1.8,12.4,3.2C386.4,266.4,387.5,267.2,387.2,269.7z"/>
<path class="st1" d="M363.1,305.5c-6.9,10.8-14.8,15.3-20.1,17.3c-14.1,1.2-28.8-4.3-39.2-15.5c-11.2-12.2-15.5-27-16.6-43.1
	c-0.3-4.4,0-8.9,0-13.3c11.6,13.5,26.7,12.2,41.8,11.2c14.4-1,28.7-2.1,42.9,0.4c0.1,0.7,0.1,1.4,0.2,2.2
	C372.6,269.5,374.7,287.3,363.1,305.5z"/>
<path class="st5" d="M141.5,359.2c-0.1,0.3-0.2,0.5-0.2,0.5l-5.1,13.6c-8.3-22.9-22.5-42-43.2-56.8c0.3-0.4,0.6-0.8,0.9-1.2
	c4.1,2,8.5,3.6,12.4,6.1C121.6,330.9,133.3,343.6,141.5,359.2z"/>
<path class="st6" d="M196.4,173c-4.8,0.1-8.3-3.2-8.4-7.9c-0.1-4.6,3.5-8.3,8.1-8.3c4.5,0,7.9,3.4,8.1,7.8
	C204.5,169.5,201.2,172.9,196.4,173z"/>
<path class="st6" d="M197.7,201.7c20.7,4.6,38.6-7.6,42.8-27.8c1.4,10.2-3.9,21.2-13.3,26.9C217.5,206.8,207.6,206.9,197.7,201.7z"
	/>
<path class="st6" d="M500,250c0,87.6-45,164.7-113.2,209.3c0.2-0.3,0.3-0.6,0.4-0.9c10.4-24.8,17.2-50.6,20.9-77.1
	c3.8-27.7,6.4-55.6,9.5-83.4c0.6-5.2,0-10.8,1.7-15.7c5.3-15.6,5.7-31.4,3.5-47.4c-1.2-8.6-3.7-17.1-5.2-25.7
	c-2.2-12.9-3.3-26-6.1-38.7c-11.2-51-40.5-86.8-90-105.1c-26.3-9.7-53.8-12.8-81.7-12.4c-18.5,0.2-36.7,2.4-54.6,7.1
	c-26.8,7.1-50.6,19.4-69.7,39.9c-17.8,19.1-28.9,41.7-36,66.6c-7.5,26.2-10.4,53.2-14.1,80.1c-3.1,22.3-10.5,42.6-24.6,60.3
	c-8.3,10.4-16.6,20.8-24.7,31.3C5.6,310.7,0,281,0,250C0,111.9,111.9,0,250,0S500,111.9,500,250z"/>
<path d="M158,431.9c0,0.5-0.1,1-0.1,1.5c0,0.5-0.1,1-0.1,1.4c0,0.5-0.1,1-0.1,1.5c-0.1,0.7-0.2,1.5-0.3,2.2
	c-0.1,0.7-0.2,1.5-0.3,2.2c-0.1,0.6-0.2,1.2-0.3,1.8c0,0.2-0.1,0.5-0.1,0.7c-0.1,0.6-0.2,1.2-0.3,1.8c-0.1,0.5-0.2,1-0.3,1.4
	c-0.1,0.6-0.3,1.2-0.4,1.8c-0.2,0.7-0.3,1.5-0.5,2.2c-0.1,0.6-0.3,1.1-0.4,1.7c0,0.1,0,0.1-0.1,0.2c-0.1,0.3-0.1,0.5-0.2,0.8
	c-0.1,0.4-0.2,0.9-0.4,1.3c-0.2,0.7-0.4,1.5-0.7,2.2c-0.1,0.3-0.2,0.7-0.3,1c-0.2,0.6-0.4,1.2-0.6,1.8c-0.2,0.6-0.4,1.3-0.7,1.9
	c-0.2,0.6-0.5,1.3-0.7,1.9c-0.1,0.3-0.3,0.7-0.4,1c-0.2,0.5-0.4,0.9-0.6,1.4c-0.2,0.6-0.5,1.1-0.7,1.7c-0.3,0.7-0.6,1.4-0.9,2
	c-0.3,0.7-0.6,1.3-1,2c-0.2,0.3-0.3,0.6-0.5,1c-0.2,0.3-0.3,0.6-0.5,0.9c-0.2,0.5-0.5,0.9-0.7,1.3c-0.4,0.7-0.7,1.4-1.1,2
	c-1.8-0.9-3.7-1.7-5.5-2.6c-0.1,0-0.2-0.1-0.2-0.1c-1.7-0.9-3.5-1.8-5.2-2.7c0.3-0.6,0.7-1.3,1-1.9c0.3-0.5,0.5-1,0.8-1.6
	c0.2-0.4,0.4-0.8,0.6-1.2c0.3-0.7,0.7-1.4,1-2.1c0.2-0.4,0.4-0.9,0.6-1.3c0.5-1.1,0.9-2.2,1.4-3.3c0.2-0.5,0.4-1,0.6-1.5
	c0,0,0-0.1,0.1-0.1c0.3-0.7,0.5-1.4,0.7-2.1c0.2-0.7,0.5-1.4,0.7-2.1c0,0,0-0.1,0-0.1c0.2-0.5,0.3-1,0.5-1.5c0.2-0.5,0.3-1,0.4-1.5
	c0.1-0.5,0.3-1,0.4-1.5c0.1-0.5,0.3-1,0.4-1.5c0.2-0.9,0.4-1.7,0.6-2.6c0.2-1,0.4-2,0.6-2.9c0.1-0.7,0.2-1.5,0.4-2.2
	c0.1-0.7,0.2-1.4,0.3-2.1c0,0,0-0.1,0-0.1v0c0.1-0.7,0.2-1.4,0.2-2.2c0.1-0.8,0.2-1.5,0.2-2.3c0.1-1,0.2-2,0.2-3
	c0-0.8,0.1-1.5,0.1-2.3c0-0.6,0-1.2,0-1.8c0-0.6,0-1.2,0-1.8c0-6.1-0.5-12.3-1.3-18.5c-0.5-3.7-1.2-7.4-1.9-11.1
	c-0.3-1.5-0.6-3-1-4.6c-0.2-0.8-0.4-1.5-0.5-2.3c-0.2-0.8-0.4-1.6-0.6-2.4c-0.2-0.7-0.3-1.3-0.5-2c-0.1-0.3-0.2-0.7-0.3-1
	c-0.2-0.6-0.3-1.2-0.5-1.8c-0.1-0.5-0.3-1-0.4-1.4c0,0,0-0.1,0-0.1c-0.1-0.4-0.2-0.8-0.4-1.2c0,0,0,0,0,0c-0.1-0.4-0.3-0.8-0.4-1.2
	c0,0,0,0,0-0.1c0-0.1,0-0.1-0.1-0.2c0-0.1-0.1-0.2-0.1-0.2c-0.1-0.2-0.1-0.3-0.2-0.5c-0.1-0.2-0.2-0.5-0.2-0.7
	c0-0.1-0.1-0.3-0.1-0.4c-0.2-0.5-0.3-0.9-0.5-1.4c0-0.1-0.1-0.3-0.1-0.4v0c-0.2-0.6-0.4-1.1-0.6-1.7c0-0.1-0.1-0.3-0.2-0.4
	c-0.1-0.2-0.1-0.3-0.2-0.5c-0.1-0.1-0.1-0.3-0.1-0.4c-0.1-0.4-0.3-0.7-0.4-1.1c-0.1-0.3-0.2-0.6-0.4-0.9c0,0,0,0,0,0
	c-0.2-0.5-0.4-1-0.6-1.4c0,0,0,0,0,0c0-0.1-0.1-0.2-0.1-0.3c-0.2-0.6-0.5-1.2-0.8-1.8c0,0,0,0,0,0c0-0.1-0.1-0.2-0.1-0.3
	c0-0.1-0.1-0.2-0.1-0.2c-0.2-0.4-0.3-0.8-0.5-1.2c0,0,0,0,0-0.1c0,0,0,0,0,0c0-0.1-0.1-0.2-0.1-0.3c0,0,0-0.1,0-0.1
	c0-0.1,0-0.1-0.1-0.2c0,0,0-0.1,0-0.1c0,0,0-0.1,0-0.1c0-0.1-0.1-0.2-0.1-0.3c-0.1-0.1-0.1-0.3-0.2-0.4c0,0,0,0,0,0l0,0
	c0-0.1-0.1-0.2-0.1-0.3c0-0.1-0.1-0.1-0.1-0.2c-0.2-0.4-0.3-0.7-0.5-1.1c0-0.1,0-0.1-0.1-0.1c-0.1-0.2-0.2-0.4-0.3-0.6
	c-0.2-0.5-0.5-0.9-0.7-1.4c-0.1-0.2-0.2-0.5-0.4-0.7c-0.2-0.3-0.3-0.6-0.5-0.9c0,0,0,0,0-0.1c-0.1-0.1-0.1-0.2-0.2-0.3
	c-0.1-0.2-0.2-0.4-0.3-0.6c0-0.1-0.1-0.2-0.1-0.2c-0.1-0.2-0.2-0.4-0.4-0.7c0,0,0,0,0-0.1c-0.1-0.2-0.2-0.3-0.3-0.4
	c0,0,0-0.1-0.1-0.1c0,0,0,0,0-0.1c0-0.1-0.1-0.1-0.1-0.2c0,0,0,0,0,0c0,0,0,0,0-0.1c0,0,0,0,0-0.1c0,0,0,0,0,0
	c0-0.1-0.1-0.1-0.1-0.2c0,0,0-0.1-0.1-0.1c0,0,0-0.1-0.1-0.1c0,0,0-0.1,0-0.1c-0.1-0.1-0.1-0.2-0.2-0.3c-0.3-0.5-0.5-0.9-0.8-1.4
	c-0.1-0.1-0.1-0.2-0.2-0.3c-0.1-0.2-0.2-0.4-0.3-0.6c-0.1-0.1-0.2-0.3-0.3-0.4c-0.1-0.1-0.1-0.2-0.2-0.4c-0.1-0.1-0.1-0.2-0.2-0.3
	c0,0,0,0,0,0c-0.1-0.1-0.2-0.3-0.3-0.4c-0.1-0.1-0.2-0.3-0.3-0.4c0,0,0-0.1-0.1-0.1c-0.3-0.4-0.6-0.9-0.9-1.3
	c-0.1-0.1-0.1-0.2-0.2-0.3c-0.1-0.1-0.2-0.2-0.2-0.3c-0.3-0.4-0.5-0.8-0.8-1.2c-0.1-0.1-0.1-0.2-0.2-0.3c0,0,0-0.1-0.1-0.1
	c-0.3-0.5-0.7-1-1-1.5c-0.1-0.1-0.2-0.3-0.3-0.4c-0.1-0.1-0.2-0.2-0.2-0.3c-0.2-0.2-0.3-0.4-0.5-0.6c-0.1-0.2-0.2-0.3-0.3-0.4
	c-0.1-0.1-0.2-0.2-0.2-0.3c0-0.1-0.1-0.1-0.1-0.2c0-0.1-0.1-0.1-0.1-0.2c0-0.1-0.1-0.1-0.1-0.2c-0.2-0.2-0.3-0.4-0.5-0.6
	c0,0,0,0,0,0c-0.1-0.2-0.3-0.4-0.4-0.6c-0.1-0.2-0.3-0.4-0.4-0.5c-0.1-0.1-0.2-0.2-0.3-0.3c-0.1-0.1-0.2-0.3-0.3-0.4
	c-0.2-0.2-0.4-0.4-0.5-0.7c-0.1-0.1-0.2-0.2-0.3-0.3c0,0,0,0,0-0.1c0,0-0.1-0.1-0.1-0.1c0,0,0,0,0,0c0,0,0,0,0,0c0,0,0,0-0.1-0.1
	c0,0,0,0,0,0l0,0c0,0,0,0,0,0c0,0,0-0.1-0.1-0.1c-0.3-0.4-0.6-0.7-0.9-1.1c-0.2-0.3-0.4-0.5-0.6-0.7c0-0.1-0.1-0.1-0.1-0.2
	c-0.1-0.1-0.2-0.2-0.3-0.3l-0.5-0.5c-0.1-0.1-0.2-0.2-0.3-0.3c-0.2-0.3-0.5-0.5-0.7-0.8c0,0,0,0,0,0c-0.1-0.2-0.3-0.3-0.4-0.4
	c-0.2-0.3-0.5-0.5-0.7-0.8c-0.1-0.1-0.2-0.2-0.2-0.3c-0.6-0.6-1.2-1.3-1.8-1.9c-0.1-0.1-0.2-0.2-0.3-0.3c0,0,0,0,0,0
	c-0.2-0.2-0.3-0.3-0.5-0.5c-0.1-0.1-0.2-0.2-0.3-0.3c0,0-0.1-0.1-0.1-0.1c-0.1-0.1-0.1-0.1-0.2-0.2c-0.1-0.1-0.1-0.1-0.2-0.2
	c-0.1-0.1-0.2-0.2-0.3-0.3c-0.1-0.1-0.1-0.1-0.2-0.1c0,0,0,0-0.1-0.1c-0.1-0.1-0.2-0.2-0.2-0.2c0,0-0.1-0.1-0.1-0.1
	c-0.2-0.2-0.3-0.3-0.5-0.5c-0.1-0.1-0.1-0.1-0.2-0.2c-0.1,0-0.1-0.1-0.1-0.1c-0.1-0.1-0.2-0.2-0.3-0.3c-0.1-0.1-0.1-0.1-0.2-0.2
	c-0.4-0.4-0.8-0.7-1.2-1.1c-0.1-0.1-0.2-0.2-0.3-0.2c-0.3-0.3-0.6-0.5-0.9-0.8c-0.1-0.1-0.2-0.2-0.3-0.3c-0.1-0.1-0.2-0.2-0.3-0.3
	c0,0,0,0,0,0c-0.2-0.2-0.4-0.4-0.7-0.6c-0.1-0.1-0.2-0.2-0.3-0.3c-0.1-0.1-0.1-0.1-0.2-0.2c-0.3-0.3-0.7-0.6-1-0.8
	c-0.1-0.1-0.2-0.2-0.3-0.2c-0.1-0.1-0.2-0.2-0.3-0.3c-0.4-0.4-0.9-0.7-1.3-1.1c-0.7-0.6-1.4-1.1-2.2-1.7c-0.3-0.2-0.6-0.4-0.8-0.6
	c-0.1-0.1-0.1-0.1-0.2-0.2c-0.4-0.3-0.8-0.6-1.1-0.8c0,0,0,0,0,0c-0.2-0.2-0.5-0.4-0.7-0.5c0.3-0.4,0.6-0.8,0.9-1.2
	c4.1,2,8.5,3.6,12.4,6.1c0.5,0.3,0.9,0.6,1.4,0.9c0,0,0,0,0,0c0.4,0.3,0.8,0.6,1.3,0.8c0.2,0.2,0.4,0.3,0.7,0.5
	c0.4,0.3,0.8,0.6,1.2,0.9c0,0,0,0,0,0c0,0,0.1,0,0.1,0c0,0,0,0,0,0c0.2,0.1,0.4,0.2,0.5,0.4c0.1,0.1,0.2,0.1,0.3,0.2
	c0.1,0.1,0.2,0.2,0.4,0.3c0.4,0.3,0.7,0.5,1.1,0.8c0,0,0.1,0.1,0.1,0.1c0.4,0.3,0.8,0.6,1.2,0.9c0.4,0.3,0.8,0.7,1.3,1c0,0,0,0,0,0
	c0,0,0,0,0,0c0.3,0.2,0.6,0.4,0.8,0.7c0.1,0.1,0.3,0.2,0.4,0.3c0.1,0.1,0.1,0.1,0.2,0.2c0.1,0.1,0.2,0.2,0.4,0.3
	c0.3,0.2,0.6,0.5,0.9,0.7c0.4,0.3,0.7,0.6,1.1,0.9c0.4,0.4,0.8,0.7,1.2,1.1c0.6,0.5,1.1,1,1.6,1.5c0.4,0.4,0.9,0.8,1.3,1.3l0.2,0.2
	c0.4,0.3,0.7,0.7,1,1.1c0.3,0.3,0.6,0.7,1,1c0.3,0.3,0.6,0.7,0.9,1c0,0,0.1,0.1,0.1,0.1c0.1,0.1,0.2,0.2,0.2,0.3c0,0,0,0,0.1,0.1
	c0.4,0.5,0.9,0.9,1.3,1.4c0.1,0.1,0.2,0.2,0.2,0.3c0.4,0.4,0.7,0.9,1.1,1.3c0.1,0.2,0.2,0.3,0.4,0.4c0.1,0.1,0.1,0.1,0.2,0.2
	c0,0,0.1,0.1,0.1,0.1c0.1,0.1,0.2,0.3,0.3,0.4c0.1,0.1,0.2,0.3,0.3,0.4c0.2,0.2,0.4,0.5,0.6,0.7c0.3,0.4,0.6,0.8,0.9,1.2
	c0.1,0.1,0.1,0.1,0.1,0.2c0.2,0.3,0.4,0.5,0.6,0.8c0.1,0.2,0.3,0.4,0.4,0.6c0,0,0.1,0.1,0.1,0.1c0.1,0.1,0.1,0.1,0.2,0.2
	c0.2,0.3,0.5,0.7,0.7,1c0.2,0.2,0.3,0.4,0.5,0.6l0.5,0.7c0,0,0,0,0,0c0.1,0.2,0.2,0.3,0.3,0.5c0,0,0,0.1,0.1,0.1
	c0.3,0.5,0.6,0.9,0.9,1.4c0,0.1,0.1,0.1,0.1,0.2c0.1,0.2,0.3,0.5,0.4,0.7c0.3,0.5,0.7,1.1,1,1.6c0.1,0.1,0.2,0.3,0.3,0.4
	c0,0,0.1,0.1,0.1,0.1c0,0.1,0.1,0.1,0.1,0.2c0.1,0.1,0.1,0.2,0.2,0.3c0.1,0.1,0.1,0.1,0.1,0.2c0.5,0.8,1,1.7,1.4,2.6
	c0.1,0.2,0.2,0.4,0.3,0.6c0.1,0.2,0.2,0.4,0.3,0.6c0.1,0.2,0.2,0.4,0.3,0.5c0.5,1,1,1.9,1.4,2.9c0.2,0.4,0.4,0.7,0.5,1.1
	c0,0.1,0.1,0.1,0.1,0.2c0.3,0.6,0.6,1.3,0.9,1.9c0.1,0.2,0.1,0.3,0.2,0.5c0.3,0.8,0.7,1.6,1,2.4c1.9,4.6,3.6,9.2,5.1,13.9
	c0.5,1.5,1,3.1,1.4,4.6c0.3,0.9,0.5,1.8,0.8,2.7c0.2,0.7,0.4,1.5,0.6,2.2c0.2,0.7,0.4,1.4,0.6,2.2c0.2,0.8,0.4,1.6,0.6,2.4
	c0.1,0.3,0.1,0.5,0.2,0.8c0,0.2,0.1,0.3,0.1,0.5c0.1,0.4,0.2,0.8,0.3,1.3c0,0.1,0,0.1,0,0.2c0.1,0.4,0.2,0.8,0.3,1.3
	c0.2,0.9,0.4,1.8,0.5,2.7c0,0.2,0.1,0.5,0.1,0.7c0.1,0.6,0.2,1.2,0.3,1.8c0,0.1,0,0.2,0.1,0.3c0.1,0.8,0.2,1.5,0.3,2.3
	c0,0.1,0,0.1,0,0.2c0,0.1,0,0.2,0,0.3c0.1,0.4,0.1,0.9,0.2,1.3c0.1,0.4,0.1,0.9,0.2,1.3c0,0.1,0,0.1,0,0.2c0.1,0.4,0.1,0.8,0.1,1.3
	c0,0.3,0.1,0.6,0.1,0.9c0.1,0.9,0.2,1.8,0.2,2.7c0,0.4,0.1,0.7,0.1,1.1c0.1,1,0.1,2,0.2,3c0,0.4,0,0.8,0.1,1.2c0,0.2,0,0.3,0,0.4
	C158.3,425.2,158.2,428.5,158,431.9z"/>
<path class="st5" d="M312.9,199.3c0,0,6-16.3,34.9-16.3s44.2,24.5,49.1,32.4c4.9,8,7,22.1,7,22.1s-25.8-38.8-45.5-43.3
	S317.4,196.2,312.9,199.3z"/>
<path class="st7" d="M378.5,437.5c-2.4,6.7-5.2,13.2-8.2,19.7c-2.5,5.5-5.3,10.8-8,16.2c-33.8,17-71.9,26.6-112.3,26.6
	c-37.6,0-73.3-8.3-105.3-23.2c7.9-13.9,12.4-28.9,13.3-44.9c0.4-7,0.1-13.9-0.7-20.7c12.1,17.9,54.3,72.2,118.3,70.2
	C335.1,479.6,365.8,452.4,378.5,437.5z"/>
<path class="st8" d="M395,165.9c-2.2-6.4-5.8-14.4-11.7-21.5c-12.2-14.6-25.6-31-55.8-43.4c-30.1-12.4-72-22.9-120.8-8.5
	s-72.7,44.3-86.6,72.7c-13.9,28.3-18.9,73.6-21.6,91.8c-2.7,18.2-4.7,27.4-12.4,45.7c-7.6,18.2-34.9,42.7-45.7,54.7
	c-4,4.4-7.3,8.7-10,12.5c-3.2-5.8-6.1-11.8-8.9-17.9c13.2-15.5,26.4-30.7,39-46.4c4.8-6,8.4-13.1,11.1-20.3
	c6.6-18.1,9.1-37.2,11.9-56.2c2.9-20.4,5.3-40.8,11.7-60.6c13.5-41.8,39.9-71.6,81.4-87.1c41.6-15.5,84.1-16.9,126.8-5.1
	c33.8,9.3,60.6,28.3,78.4,59C387.5,144.9,392,155.1,395,165.9z"/>
<path class="st5" d="M397.9,177.7l-1.3-6.4C397.5,174.9,397.9,177.3,397.9,177.7z"/>
</svg>
