<?xml version="1.0" encoding="utf-8"?>
<!-- Generator: Adobe Illustrator 28.2.0, SVG Export Plug-In . SVG Version: 6.00 Build 0)  -->
<svg version="1.1" id="Layer_1" xmlns="http://www.w3.org/2000/svg" xmlns:xlink="http://www.w3.org/1999/xlink" x="0px" y="0px"
	 viewBox="0 0 500 500" style="enable-background:new 0 0 500 500;" xml:space="preserve">
<style type="text/css">
	.st0{fill:#F9702A;}
</style>
<g>
	<g>
		<polygon class="st0" points="175.5,173.8 175.5,177.1 163,189.6 229.9,189.6 229.9,173.8 		"/>
		<polygon class="st0" points="206.5,214.7 225.6,195.6 0.5,195.6 0.5,214.7 		"/>
		<rect x="0.5" y="173.8" class="st0" width="56.4" height="15.9"/>
		<polygon class="st0" points="0.5,101.3 0.5,120.5 211,120.5 230.2,101.3 230.2,101.3 		"/>
		<polygon class="st0" points="200.3,26.1 182.4,8.2 0.5,8.2 0.5,26.1 		"/>
		<polygon class="st0" points="175.5,69.3 175.5,73.4 230.2,73.4 230.2,56 230,55.8 162,55.8 		"/>
		<rect x="0.5" y="150.1" class="st0" width="56.4" height="17.7"/>
		<polygon class="st0" points="0.5,32.1 0.5,49.8 224,49.8 206.3,32.1 		"/>
		<polygon class="st0" points="175.5,79.4 175.5,81.9 162.1,95.3 230.2,95.3 230.2,79.4 		"/>
		<polygon class="st0" points="0.5,220.7 0.5,237.4 183.8,237.4 200.5,220.7 		"/>
		<rect x="0.5" y="55.8" class="st0" width="56.4" height="17.7"/>
		<polygon class="st0" points="0.5,126.5 0.5,144.1 225.8,144.1 208.1,126.5 		"/>
		<polygon class="st0" points="161.1,150.1 175.5,164.5 175.5,167.8 229.9,167.8 229.9,150.1 		"/>
		<rect x="0.5" y="79.4" class="st0" width="56.4" height="15.9"/>
	</g>
</g>
<g>
	<g>
		<polygon class="st0" points="57.6,372.2 57.6,350.5 0.2,350.5 0.2,372.2 		"/>
		<polygon class="st0" points="57.6,344.5 57.6,328.7 0.3,328.7 0.2,344.5 		"/>
		<polygon class="st0" points="57.6,418.9 57.6,400.1 0.1,400.1 0.1,418.9 		"/>
		<polygon class="st0" points="79.2,440.8 63.3,424.9 0,424.9 0,440.8 		"/>
		<polygon class="st0" points="57.6,394.1 57.6,378.2 0.2,378.2 0.1,394.1 		"/>
		<rect x="173.4" y="258.4" class="st0" width="56.8" height="17.6"/>
		<polygon class="st0" points="169.2,424.9 153.3,440.8 227.2,440.8 230.2,437.8 230.2,424.9 		"/>
		<polygon class="st0" points="57.6,322.7 57.6,303.8 0.3,303.8 0.3,322.7 		"/>
		<polygon class="st0" points="0.4,281.9 0.4,297.8 57.6,297.8 57.6,281.9 		"/>
		<rect x="173.4" y="328.7" class="st0" width="56.8" height="15.9"/>
		<rect x="173.4" y="303.8" class="st0" width="56.8" height="18.9"/>
		<rect x="173.4" y="281.9" class="st0" width="56.8" height="15.9"/>
		<polygon class="st0" points="57.6,275.9 57.6,258.4 0.5,258.4 0.4,275.9 		"/>
		<polygon class="st0" points="26.6,468.6 45.8,487.8 180.2,487.8 199.4,468.6 		"/>
		<rect x="173.4" y="400.1" class="st0" width="56.8" height="18.9"/>
		<polygon class="st0" points="205.3,462.6 221.2,446.8 4.8,446.8 20.6,462.6 		"/>
		<rect x="173.4" y="350.5" class="st0" width="56.8" height="21.7"/>
		<rect x="173.4" y="378.2" class="st0" width="56.8" height="15.9"/>
	</g>
</g>
<g>
	<g>
		<polygon class="st0" points="261.6,126.5 261.5,144.1 322.7,144.1 322.7,126.5 		"/>
		<polygon class="st0" points="261.5,150.1 261.5,167.8 322.7,167.8 322.7,150.1 		"/>
		<polygon class="st0" points="261.5,173.8 261.4,189.2 261.8,189.6 342.7,189.6 326.8,173.8 		"/>
		<polygon class="st0" points="286.9,214.7 490.9,214.7 490.9,197.5 350.6,197.5 348.7,195.6 267.8,195.6 		"/>
		<polygon class="st0" points="322.7,26.1 322.7,8.2 261.8,8.2 261.8,26.1 		"/>
		<polygon class="st0" points="261.8,32.1 261.7,49.8 322.7,49.8 322.7,32.1 		"/>
		<polygon class="st0" points="292.9,220.7 309.6,237.4 490.9,237.4 490.9,220.7 		"/>
		<polygon class="st0" points="261.7,79.4 261.6,95.3 322.7,95.3 322.7,79.4 		"/>
		<polygon class="st0" points="261.7,55.8 261.7,73.4 322.7,73.4 322.7,55.8 		"/>
		<polygon class="st0" points="261.6,101.3 261.6,120.5 322.7,120.5 322.7,101.3 		"/>
	</g>
</g>
<g>
	<g>
		<rect x="261.4" y="400.1" class="st0" width="57.5" height="18.9"/>
		<rect x="261.4" y="446.8" class="st0" width="57.5" height="15.9"/>
		<rect x="261.4" y="424.9" class="st0" width="57.5" height="15.9"/>
		<rect x="436.3" y="446.8" class="st0" width="63.7" height="15.9"/>
		<polygon class="st0" points="460.7,275.9 443.1,258.4 261.4,258.4 261.4,275.9 		"/>
		<polygon class="st0" points="437.1,319.4 437.1,322.7 491.2,322.7 491.2,306.5 488.5,303.8 421.5,303.8 		"/>
		<rect x="436.3" y="424.9" class="st0" width="63.7" height="15.9"/>
		<polygon class="st0" points="436.3,418.9 500,418.9 500,400.8 499.3,400.1 436.3,400.1 		"/>
		<rect x="261.4" y="468.6" class="st0" width="57.5" height="23.2"/>
		<polygon class="st0" points="437.1,328.7 437.1,332 424.6,344.5 491.2,344.5 491.2,328.7 		"/>
		<polygon class="st0" points="261.4,281.9 261.4,297.8 482.5,297.8 466.7,281.9 		"/>
		<rect x="436.3" y="468.6" class="st0" width="63.7" height="23.2"/>
		<rect x="261.4" y="328.7" class="st0" width="56.9" height="15.9"/>
		<polygon class="st0" points="490.4,350.5 261.4,350.5 261.4,372.2 471.4,372.2 470,370.8 		"/>
		<polygon class="st0" points="261.4,378.2 261.4,394.1 493.3,394.1 477.4,378.2 		"/>
		<rect x="261.4" y="303.8" class="st0" width="56.9" height="18.9"/>
	</g>
</g>
</svg>
