<?xml version="1.0" encoding="utf-8"?>
<!-- Generator: Adobe Illustrator 28.0.0, SVG Export Plug-In . SVG Version: 6.00 Build 0)  -->
<svg version="1.1" id="Layer_1" xmlns="http://www.w3.org/2000/svg" xmlns:xlink="http://www.w3.org/1999/xlink" x="0px" y="0px"
	 viewBox="0 0 500 500" style="enable-background:new 0 0 500 500;" xml:space="preserve">
<style type="text/css">
	.st0{fill:url(#SVGID_1_);}
	.st1{fill:url(#SVGID_00000127007599973971664500000015838174306123007624_);}
	.st2{fill:url(#SVGID_00000059270865252498358690000001529427877380173193_);}
</style>
<linearGradient id="SVGID_1_" gradientUnits="userSpaceOnUse" x1="379.0366" y1="211.4717" x2="379.0366" y2="397.4459" gradientTransform="matrix(1 0 0 -1 0 502)">
	<stop  offset="0" style="stop-color:#AFB0B1"/>
	<stop  offset="1" style="stop-color:#9B9C9E"/>
</linearGradient>
<path class="st0" d="M380,290.5L483.2,138c0.7-1.1,1.1-2.4,1.2-3.7c0.1-1.3-0.2-2.6-0.8-3.8c-0.6-1.2-1.5-2.2-2.5-2.9
	c-1.1-0.7-2.3-1.2-3.6-1.3l-203.7-21.7L380,290.5z"/>
<path d="M477,192.5l-72.8,119.7l75,44.9c0.6,0.4,1.3,0.6,2,0.6c0.7,0,1.4-0.1,2-0.5c0.6-0.3,1.1-0.8,1.5-1.4c0.4-0.6,0.5-1.3,0.5-2
	V194.4c0.1-0.5,0.1-1.1,0.1-1.6c-0.1-0.5-0.3-1.1-0.6-1.5c-0.3-0.5-0.7-0.9-1.1-1.2c-0.4-0.3-0.9-0.6-1.5-0.7
	c-0.5-0.1-1.1-0.1-1.6-0.1c-0.5,0.1-1.1,0.3-1.5,0.6c-0.5,0.3-0.9,0.7-1.2,1.1C477.4,191.5,477.1,192,477,192.5z"/>
<path d="M466.6,86.6L276.2,0.7c-1.2-0.6-2.5-0.8-3.8-0.7c-1.3,0.1-2.6,0.5-3.7,1.2c-1.1,0.7-2,1.7-2.6,2.9c-0.6,1.2-0.9,2.5-0.9,3.8
	v64.2l199,21.8c0.9,0.2,1.9,0.1,2.8-0.4c0.8-0.5,1.5-1.3,1.8-2.2c0.3-0.9,0.2-1.9-0.2-2.8C468.2,87.6,467.5,86.9,466.6,86.6z"/>
<path d="M386.9,338.9l-77.3,139.8c-0.8,1.5-1.2,3.2-1,4.9c0.2,1.7,0.9,3.3,2.1,4.5c1.2,1.2,2.7,2.1,4.4,2.4c1.7,0.3,3.4,0,4.9-0.7
	L467.7,393c0.6-0.3,1-0.8,1.3-1.4c0.3-0.6,0.5-1.2,0.5-1.9c0-0.7-0.2-1.3-0.5-1.9c-0.3-0.6-0.8-1.1-1.3-1.4L386.9,338.9z"/>
<linearGradient id="SVGID_00000090977784050861299810000001883966757718941315_" gradientUnits="userSpaceOnUse" x1="249.5649" y1="2" x2="249.5649" y2="174.1665" gradientTransform="matrix(1 0 0 -1 0 502)">
	<stop  offset="0" style="stop-color:#AFB0B1"/>
	<stop  offset="1" style="stop-color:#9B9C9E"/>
</linearGradient>
<path style="fill:url(#SVGID_00000090977784050861299810000001883966757718941315_);" d="M249.6,327.8H142.7l93.5,164.7
	c1.4,2.3,3.4,4.2,5.7,5.5c2.3,1.3,5,2,7.6,2c2.7,0,5.3-0.7,7.6-2c2.3-1.3,4.3-3.2,5.7-5.5l93.5-164.7H249.6z"/>
<path d="M20.8,357L95,312L22.1,192.5c-0.5-0.7-1.2-1.2-2-1.5c-0.8-0.3-1.6-0.3-2.5-0.1c-0.8,0.2-1.5,0.7-2,1.4
	c-0.5,0.7-0.8,1.5-0.9,2.3v159.1c0,0.7,0.2,1.4,0.5,2c0.4,0.6,0.9,1.1,1.5,1.4c0.6,0.3,1.3,0.5,2,0.5
	C19.5,357.6,20.2,357.4,20.8,357z"/>
<path d="M112.2,338.9l-79.8,47c-0.6,0.3-1,0.8-1.3,1.4c-0.3,0.6-0.5,1.2-0.5,1.9c0,0.7,0.2,1.3,0.5,1.9c0.3,0.6,0.8,1.1,1.3,1.4
	L180,489.1c1.5,0.8,3.2,1,4.9,0.7c1.7-0.3,3.2-1.1,4.4-2.4c1.2-1.2,1.9-2.8,2.1-4.5c0.2-1.7-0.1-3.4-1-4.9l-77.3-139.8L112.2,338.9z
	"/>
<path d="M34.9,93.9l199-21.8V7.9c0-1.3-0.3-2.6-0.9-3.8c-0.6-1.2-1.5-2.1-2.6-2.9c-1.1-0.7-2.4-1.1-3.7-1.2
	c-1.3-0.1-2.6,0.2-3.8,0.7L32.6,86.6c-0.9,0.4-1.6,1.1-2,1.9c-0.4,0.9-0.5,1.9-0.2,2.8c0.3,0.9,0.9,1.7,1.8,2.2
	C32.9,94,33.9,94.1,34.9,93.9z"/>
<linearGradient id="SVGID_00000165941126789870107390000002372296251593647270_" gradientUnits="userSpaceOnUse" x1="120.0904" y1="211.4717" x2="120.0904" y2="397.4459" gradientTransform="matrix(1 0 0 -1 0 502)">
	<stop  offset="0" style="stop-color:#AFB0B1"/>
	<stop  offset="1" style="stop-color:#9B9C9E"/>
</linearGradient>
<path style="fill:url(#SVGID_00000165941126789870107390000002372296251593647270_);" d="M119.1,290.5l106.3-186L21.7,126.2
	c-1.3,0.1-2.6,0.6-3.6,1.3c-1.1,0.7-2,1.8-2.5,2.9c-0.6,1.2-0.9,2.5-0.8,3.8c0.1,1.3,0.5,2.6,1.2,3.7L119.1,290.5z"/>
</svg>
