<?xml version="1.0" encoding="UTF-8"?>
<svg version="1.1" xmlns="http://www.w3.org/2000/svg" width="96" height="96">
<path d="M0 0 C4.28668688 -0.04975174 8.57321697 -0.0858847 12.86010742 -0.10986328 C14.31586641 -0.1198685 15.77160557 -0.13347696 17.22729492 -0.15087891 C19.3299654 -0.17537044 21.43236824 -0.18653794 23.53515625 -0.1953125 C24.797229 -0.20578613 26.05930176 -0.21625977 27.35961914 -0.22705078 C37.05436829 0.37761133 45.32628581 5.3360681 53 11 C54.03647024 12.30518475 55.04422943 13.63461347 56 15 C56.99 15.66 57.98 16.32 59 17 C61.24550124 20.35673648 62.95953792 23.88928762 64.625 27.5625 C65.05039063 28.49191406 65.47578125 29.42132812 65.9140625 30.37890625 C69.98137873 40.19606161 70.22752577 55.35679087 66.75390625 65.34375 C61.02206311 77.31046178 50.61819957 89.39165137 37.91796875 94.15625 C25.50802709 97.74466687 10.54256944 98.05372368 -1.3125 92.54296875 C-12.56181119 86.08442526 -21.05881434 77.04653403 -26 65 C-26.36996094 64.14921875 -26.73992188 63.2984375 -27.12109375 62.421875 C-28.40515643 57.42259097 -28.24894166 52.57596292 -28.1875 47.4375 C-28.18685547 46.40947266 -28.18621094 45.38144531 -28.18554688 44.32226562 C-28.15873707 39.72587341 -28.01568097 35.49888413 -27 31 C-26.34 31 -25.68 31 -25 31 C-24.87625 29.88625 -24.7525 28.7725 -24.625 27.625 C-24 24 -24 24 -22 22 C-21.67 21.34 -21.34 20.68 -21 20 C-20.34 20 -19.68 20 -19 20 C-18.566875 19.1028125 -18.566875 19.1028125 -18.125 18.1875 C-15.77286479 13.61390376 -12.83890561 11.26193023 -8.6875 8.4375 C-8.11837891 8.03853516 -7.54925781 7.63957031 -6.96289062 7.22851562 C-3.75583969 5.02297772 -0.67941372 3.27709482 3 2 C2.01 1.34 1.02 0.68 0 0 Z " fill="#000101" transform="translate(28,0)"/>
<path d="M0 0 C2.44800701 1.19092233 4.66409918 2.48743209 6.9140625 4.015625 C8.2753125 4.8509375 8.2753125 4.8509375 9.6640625 5.703125 C14.1177283 10.28050374 17.9140625 15.53942473 17.9140625 22.015625 C11.2890625 21.265625 11.2890625 21.265625 7.9140625 19.015625 C7.3365625 19.510625 6.7590625 20.005625 6.1640625 20.515625 C3.9140625 22.015625 3.9140625 22.015625 -0.0859375 22.015625 C-0.11171875 21.34015625 -0.1375 20.6646875 -0.1640625 19.96875 C-0.43920161 14.34190728 -0.43920161 14.34190728 -2.9609375 9.453125 C-6.93299195 6.76614699 -10.38910356 6.53798087 -15.0859375 7.015625 C-18.72496918 8.95699279 -18.72496918 8.95699279 -21.0859375 12.015625 C-21.8852647 15.4984078 -22.05071264 18.56614966 -21.0859375 22.015625 C-18.30047812 25.59153451 -16.82852 26.88609866 -12.30541992 27.67504883 C-10.85123401 27.71583525 -9.39614348 27.73038963 -7.94140625 27.72265625 C-7.17161942 27.73777756 -6.40183258 27.75289886 -5.60871887 27.76847839 C-3.16332532 27.81127763 -0.7191679 27.8201851 1.7265625 27.828125 C3.39000664 27.85127561 5.05342152 27.87664213 6.71679688 27.90429688 C10.78266096 27.96707147 14.84775675 27.99946749 18.9140625 28.015625 C19.06147195 35.92342871 16.11596511 41.91857501 10.8515625 47.828125 C3.90097739 54.20577685 -4.58057014 56.26428905 -13.75 56.7109375 C-17.05955247 57.14261826 -18.70226259 58.76816009 -21.0859375 61.015625 C-24.60107104 62.57790657 -27.48791852 63.1093313 -31.28515625 63.0625 C-32.53941406 63.04703125 -33.79367188 63.0315625 -35.0859375 63.015625 C-34.87195313 61.9534375 -34.65796875 60.89125 -34.4375 59.796875 C-32.79746501 51.98228884 -32.79746501 51.98228884 -34.21875 44.3828125 C-35.75644829 42.48854649 -37.37926409 40.75695168 -39.0859375 39.015625 C-42.33614179 32.51521642 -42.25087407 24.64331722 -40.05859375 17.81640625 C-36.19458674 9.28562069 -31.07147024 4.5142984 -22.7890625 0.36328125 C-15.70736483 -2.21391885 -7.20716699 -2.29899504 0 0 Z " fill="#65F9D4" transform="translate(59.0859375,16.984375)"/>
<path d="M0 0 C10.56 0 21.12 0 32 0 C32 8.03445094 29.28653921 13.80794128 23.9375 19.8125 C16.98691489 26.19015185 8.50536736 28.24866405 -0.6640625 28.6953125 C-3.97361497 29.12699326 -5.61632509 30.75253509 -8 33 C-12.81085022 35.13815565 -16.83269246 35.17818302 -22 35 C-21.01 30.05 -20.02 25.1 -19 20 C-17.83984375 20.06960937 -16.6796875 20.13921875 -15.484375 20.2109375 C-4.42942335 20.6745246 4.33683345 19.9576548 12.9921875 12.21875 C16.05213756 8.88062266 17.25938227 6.35154433 19 2 C12.73 1.67 6.46 1.34 0 1 C0 0.67 0 0.34 0 0 Z " fill="#03CE9A" transform="translate(46,45)"/>
<path d="M0 0 C7.1645405 3.43897944 11.92085797 8.59849426 15 16 C15 17.32 15 18.64 15 20 C8.69047619 19.4047619 8.69047619 19.4047619 6.1875 17.9375 C4.66491993 15.4532904 4.15303175 12.89170543 3.5390625 10.06640625 C2.78105837 7.16072376 1.38810213 4.65001316 0 2 C0 1.34 0 0.68 0 0 Z " fill="#01CA97" transform="translate(62,19)"/>
<path d="M0 0 C4 1 4 1 4 1 Z " fill="#000000" transform="translate(28,95)"/>
<path d="M0 0 C0.66 0 1.32 0 2 0 C1.67 0.66 1.34 1.32 1 2 C0.67 1.34 0.34 0.68 0 0 Z " fill="#000000" transform="translate(5,76)"/>
<path d="M0 0 C3 1 3 1 3 1 Z " fill="#000000" transform="translate(9,11)"/>
<path d="M0 0 C3 1 3 1 3 1 Z " fill="#000000" transform="translate(66,0)"/>
<path d="" fill="#000000" transform="translate(0,0)"/>
<path d="" fill="#000000" transform="translate(0,0)"/>
<path d="" fill="#000000" transform="translate(0,0)"/>
<path d="" fill="#000000" transform="translate(0,0)"/>
<path d="" fill="#000000" transform="translate(0,0)"/>
<path d="" fill="#000000" transform="translate(0,0)"/>
<path d="" fill="#000000" transform="translate(0,0)"/>
<path d="" fill="#000000" transform="translate(0,0)"/>
<path d="" fill="#000000" transform="translate(0,0)"/>
<path d="" fill="#000000" transform="translate(0,0)"/>
<path d="" fill="#000000" transform="translate(0,0)"/>
<path d="" fill="#000000" transform="translate(0,0)"/>
<path d="" fill="#000000" transform="translate(0,0)"/>
</svg>
