<?xml version="1.0" encoding="utf-8"?>
<!-- Generator: Adobe Illustrator 28.1.0, SVG Export Plug-In . SVG Version: 6.00 Build 0)  -->
<svg version="1.1" id="Layer_1" xmlns="http://www.w3.org/2000/svg" xmlns:xlink="http://www.w3.org/1999/xlink" x="0px" y="0px"
	 viewBox="0 0 500 500" style="enable-background:new 0 0 500 500;" xml:space="preserve">
<style type="text/css">
	.st0{fill:#1E2B2F;}
</style>
<path class="st0" d="M300.5,216.5h43.5v127h-43.5V216.5z"/>
<path class="st0" d="M240.8,207c-16.7,0-33.8,4-38.1,11.4c-0.1,0.1-0.1,0.2-0.2,0.3v-53.3H158v84.6v0.1c4.4,2,9,4.4,13.6,7
	c1.6,0.9,2.9,1.7,3.8,2.3c0.6,0.4,1.2,0.7,1.8,1.1c0.1,0-25.5,39.9-60.3,48.2c-20.6,4.9-44.9-1-49.8-21.7c-0.2-0.9-0.3-1.7-0.5-2.6
	c3.3-2,6.6-3.7,10-5.4c8.5-3.7,15-6.5,17.5-7.4c0.2-0.1,0.4-0.2,0.6-0.2c0,0,0,0,0,0c0,0,0,0,0,0c20.3-7.4,37.4-9.9,37.4-9.9
	c-15.5-1.3-28.8-0.3-39.9,1.9c0,0,0,0,0,0s-0.1,0-0.2,0.1c-10.1,2-18.4,5-24.8,7.9c3.6-14.9,16.5-27.8,31.8-31.5
	c1.3-0.3,2.7-0.6,4.1-0.8c0.4-0.1,0.8-0.1,1.2-0.2c1.1-0.1,2.1-0.3,3.2-0.3c0.3,0,0.7-0.1,1-0.1c1.4-0.1,2.8-0.1,4.1-0.1
	c0.3,0,0.5,0,0.8,0c1.1,0,2.3,0.1,3.4,0.1c0.4,0,0.8,0.1,1.2,0.1c0.4,0,0.8,0.1,1.2,0.1c6.6,0.7,14.7,2.5,23.7,5.5v-29.2
	c-4.3-1.3-8.9-2.6-13.7-3.8c-12.6-3.4-34.2-6.9-57.8-1.2c-38,9.3-48.8,37.4-48.8,71.8c0,4.4,0.3,8.5,1,12.3
	c-8.3,5.5-16.4,11.7-23.7,18.9c0,0,11-4.9,25.4-11.3c9.7,33,43.4,44.1,68.8,44.1c26.5,0,43.5-7.6,63.7-20.2v16h44.6v-79.4
	c0.1-0.1,0.1-0.2,0.2-0.3v-1.3c4.2-11.3,11.5-14.3,19.5-14.3c10.6,0,17.2,7.5,17.2,19.5v75.8h44.6v-88.7
	C284.1,224.9,266.7,207,240.8,207z"/>
<path class="st0" d="M321.5,154.3c-13.5,0-23,9.5-23,23c0,13.5,9.5,23,23,23c13.5,0,23-9.5,23-23C344.5,163.8,335,154.3,321.5,154.3
	z"/>
<path class="st0" d="M492.4,269.6L492.4,269.6l0-56.6h-44.7l-0.2,8c-43.1-27.8-70.6,0.8-70.6,0.8c-13.2,12.1-20.8,31.1-20.8,55
	c0,42.4,25.4,67.5,58.4,67.5c12.4,0,23.8-2.8,33.6-16.4c1.1,3.2,3.7,11,5.5,13.6H500C492,328.4,492.1,282.9,492.4,269.6z
	 M424.8,307.6c-14.5,0-24.7-12.6-24.7-30.5c0-17.9,10.2-30.5,24.7-30.5c10.1,0,18.2,6.2,22.1,16.1v28.8
	C443,301.4,435,307.6,424.8,307.6z"/>
</svg>
