<?xml version="1.0" encoding="utf-8"?>
<!-- Generator: Adobe Illustrator 28.2.0, SVG Export Plug-In . SVG Version: 6.00 Build 0)  -->
<svg version="1.1" id="Layer_1" xmlns="http://www.w3.org/2000/svg" xmlns:xlink="http://www.w3.org/1999/xlink" x="0px" y="0px"
	 viewBox="0 0 500 500" style="enable-background:new 0 0 500 500;" xml:space="preserve">
<style type="text/css">
	.st0{fill:#FF1256;}
</style>
<path class="st0" d="M143.5,118l71.4-44.1c6.3-3.5,6.3-10.9,1.8-15.4L157,0.9c-1.2-1.2-3.1-1.2-4.2,0l-5.6,5.7
	c-7.2,7.3-7.2,19,0.1,26.2l23.3,21.5c4,3.9,3.2,10.5-1.5,13.5l-27.8,17.1c-8.7,5.3-11.4,16.8-6,25.4l4.2,6.8
	C140.2,118.5,142.1,118.9,143.5,118z"/>
<path class="st0" d="M212.4,354.5c5.9-25.4-1.1-52-18.6-71.3l-45.1-51.1c-25.1-28.5-18.9-72.6,13.1-93l73.8-47.2
	c4.7-3,11-2.5,15.1,1.3c27,24.9,120.9,114.6,116.7,207.3c0,0,0.1,143.9-141.6,197.7c-20.8,7.9-41.9-11.1-36.4-32.7
	C209.1,387.9,212.5,354.5,212.4,354.5L212.4,354.5z M230.9,133c-11.3,7.1-33.1,21-51.8,32.8c-12.5,7.9-15,25.1-5.3,36.3l47.2,54.5
	c27,29.7,37.8,70.8,28.7,109.9l-7.9,34.7c-3.4,15.1,14.3,25.6,26,15.5c49.7-42.9,119.3-146-26-282.6
	C238.9,131.2,234.4,130.8,230.9,133L230.9,133z"/>
</svg>
