<?xml version="1.0" encoding="utf-8"?>
<!-- Generator: Adobe Illustrator 28.2.0, SVG Export Plug-In . SVG Version: 6.00 Build 0)  -->
<svg version="1.1" id="Layer_1" xmlns:lucid="lucid"
	 xmlns="http://www.w3.org/2000/svg" xmlns:xlink="http://www.w3.org/1999/xlink" x="0px" y="0px" viewBox="0 0 500 500"
	 style="enable-background:new 0 0 500 500;" xml:space="preserve">
<style type="text/css">
	.st0{fill:#FFD6F5;stroke:#000000;stroke-width:3;}
	.st1{fill:none;stroke:#000000;}
	.st2{stroke:#000000;stroke-width:5.000000e-02;}
	.st3{fill:#FF8F8F;stroke:#000000;stroke-width:3;}
	.st4{fill:#FFF7A1;stroke:#000000;stroke-width:3;}
	.st5{fill:#6DB1FF;stroke:#000000;stroke-width:3;}
	.st6{fill:#C3F7C8;stroke:#000000;stroke-width:3;}
	.st7{stroke:#FFFFFF;stroke-width:3;}
	.st8{fill:none;stroke:#FFFFFF;}
	.st9{fill:#FFFFFF;stroke:#FFFFFF;stroke-width:5.000000e-02;}
	.st10{fill:none;stroke:#FFFFFF;stroke-width:0.5;}
</style>
<g lucid:page-tab-id="0_0">
	<path class="st0" d="M291.2,57.3c-0.1-4.7,2.3-9,6.3-11.4l73-44c4-2.4,9-2.5,13.1-0.3l74.9,41.2c4.1,2.2,6.7,6.5,6.8,11.2l1.9,85.2
		c0.1,4.7-2.3,9-6.3,11.4l-73,44c-4,2.4-9,2.5-13.1,0.3l-74.9-41.2c-4.1-2.3-6.7-6.5-6.8-11.2L291.2,57.3z"/>
	<path class="st1" d="M292.9,50.3l87.1,40 M292.9,50.3l-0.6-0.3 M380,90.2l0.6,0.3 M380.2,197.8V90.3"/>
	<path class="st2" d="M380.9,198.5l-1,0l-0.3,0v-0.6h1.3V198.5z"/>
	<path class="st1" d="M380.2,90.3v-0.6 M464.5,46.9l-84.2,43.6"/>
	<path class="st2" d="M465,46.6l0.3,0.6l-0.6,0.3l-0.6-1.1l0.5-0.3L465,46.6z"/>
	<path class="st1" d="M380.3,90.4l-0.6,0.3"/>
	<path class="st3" d="M116.5,57.3c-0.1-4.7,2.3-9,6.3-11.4l73-44c4-2.4,9-2.5,13.1-0.3l74.9,41.2c4.1,2.2,6.7,6.5,6.8,11.2l1.9,85.2
		c0.1,4.7-2.3,9-6.3,11.4l-73,44c-4,2.4-9,2.5-13.1,0.3l-74.9-41.2c-4.1-2.3-6.7-6.5-6.8-11.2L116.5,57.3z"/>
	<path class="st4" d="M31.1,209.6c-0.1-4.7,2.3-9,6.3-11.4l73-44c4-2.4,9-2.5,13.1-0.3l74.9,41.2c4.1,2.2,6.7,6.5,6.8,11.2l1.9,85.2
		c0.1,4.7-2.3,9-6.3,11.4l-73,44c-4,2.4-9,2.5-13.1,0.3l-75-41.2c-4.1-2.2-6.7-6.5-6.8-11.2L31.1,209.6z"/>
	<path class="st5" d="M121.3,358.8c-0.1-4.7,2.3-9,6.3-11.4l73-44c4-2.4,9-2.5,13.1-0.3l74.9,41.3c4.1,2.2,6.7,6.5,6.8,11.2
		l1.9,85.2c0.1,4.7-2.3,9-6.3,11.4l-73,44c-4,2.4-9,2.5-13.1,0.3L130,455.3c-4.1-2.3-6.7-6.5-6.8-11.2L121.3,358.8z"/>
	<path class="st6" d="M293.2,358.8c-0.1-4.7,2.3-9,6.3-11.4l73-44c4-2.4,9-2.5,13.1-0.3l74.9,41.3c4.1,2.2,6.7,6.5,6.8,11.2
		l1.9,85.2c0.1,4.7-2.3,9-6.3,11.4l-73,44c-4,2.4-9,2.5-13.1,0.3l-75-41.3c-4.1-2.2-6.7-6.5-6.8-11.2L293.2,358.8z"/>
	<path class="st7" d="M204.3,210.4c-0.2-4.7,2.1-9.1,6.1-11.6l72.1-45.4c4-2.5,8.9-2.7,13.1-0.5l75.7,39.8c4.1,2.2,6.8,6.4,7,11.1
		l3.6,85.2c0.2,4.7-2.1,9.1-6.1,11.5l-72.1,45.4c-4,2.5-8.9,2.7-13.1,0.5l-75.7-39.8c-4.1-2.2-6.8-6.4-7-11.1L204.3,210.4z"/>
	<path class="st1" d="M121.8,351.8l88.4,40 M121.8,351.8l-0.6-0.3 M210.2,391.7l0.6,0.3 M210.4,499.3V391.8"/>
	<path class="st2" d="M211,500l-1,0l-0.3,0v-0.6h1.3V500z"/>
	<path class="st1" d="M210.4,391.8v-0.6 M296.7,350l-86.3,42"/>
	<path class="st2" d="M296.9,350.6l-0.4-0.9h0.7l1.6-0.1l0.3-0.1L296.9,350.6z"/>
	<path class="st1" d="M210.4,392l-0.6,0.3 M293.7,351.8l88.4,40 M293.7,351.8l-0.6-0.3 M382.1,391.7l0.6,0.3 M382.2,499.3V391.8"/>
	<path class="st2" d="M382.9,500l-1,0l-0.3,0v-0.6h1.3V500z"/>
	<path class="st1" d="M382.2,391.8v-0.6 M468.5,350l-86.2,42 M468.5,350l0.6-0.3 M382.3,392l-0.6,0.3 M31.6,202.4l86.7,44"/>
	<path class="st2" d="M31.9,201.8l-0.6,1.1l-0.6-0.3l0.3-0.6l0.3-0.5L31.9,201.8z"/>
	<path class="st1" d="M118.3,246.3l0.6,0.3 M118.3,50.3l87.2,40 M118.3,50.3l-0.6-0.3 M205.4,90.2l0.6,0.3 M205.6,197.8V90.3"/>
	<path class="st2" d="M206.2,198.5l-1,0l-0.3,0v-0.6h1.3V198.5z"/>
	<path class="st1" d="M205.6,90.3v-0.6 M289.8,46.9l-84.2,43.6"/>
	<path class="st2" d="M290.4,46.6l0.3,0.6l-0.6,0.3l-0.6-1.1l0.5-0.3L290.4,46.6z"/>
	<path class="st1" d="M205.7,90.4l-0.6,0.3 M119,355.1V247.6 M119,355.1v0.6 M119,247.6V247"/>
	<path class="st8" d="M377.3,196.5l-80.7,50.9"/>
	<path class="st9" d="M377.9,196.2l0.3,0.6l-0.5,0.3L377,196l0.5-0.3L377.9,196.2z"/>
	<path class="st8" d="M296.6,247.5l-0.5,0.3 M204.6,203.2l91.3,44.1"/>
	<path class="st9" d="M204.9,202.6l-0.6,1.1l-0.6-0.3l0.3-0.6l0.3-0.5L204.9,202.6z"/>
	<path class="st8" d="M295.9,247.2l0.6,0.3"/>
	<path class="st1" d="M203.5,203.2L119.3,247"/>
	<path class="st2" d="M204.1,202.9l-0.4,0.8l-0.5-1l1.5-0.8L204.1,202.9z"/>
	<path class="st1" d="M119.3,247l-0.6,0.3"/>
	<path class="st10" d="M296.6,246.8c0.2,0,0.3,0.1,0.3,0.3v99.4c0,0.2-0.1,0.3-0.3,0.3c-0.2,0-0.3-0.1-0.3-0.3v-99.4
		C296.2,246.9,296.4,246.8,296.6,246.8z"/>
</g>
</svg>
