<?xml version="1.0" encoding="utf-8"?>
<!-- Generator: Adobe Illustrator 28.1.0, SVG Export Plug-In . SVG Version: 6.00 Build 0)  -->
<svg version="1.1" id="Layer_1" xmlns="http://www.w3.org/2000/svg" xmlns:xlink="http://www.w3.org/1999/xlink" x="0px" y="0px"
	 viewBox="0 0 500 500" style="enable-background:new 0 0 500 500;" xml:space="preserve">
<style type="text/css">
	.st0{fill-rule:evenodd;clip-rule:evenodd;fill:#FFC780;}
	.st1{fill-rule:evenodd;clip-rule:evenodd;fill:url(#SVGID_1_);}
</style>
<path class="st0" d="M268.3,0c42.9,0,85.1,11,122.5,32c37.4,21,68.8,51.3,91.1,87.9c-17.3-0.2-34.4,2.9-50.4,9.4
	c-16,6.4-30.6,16-42.9,28.1c-12.3,12.1-22,26.5-28.7,42.4c-6.7,15.9-10.1,33-10.1,50.2c0,17.2,3.4,34.3,10.1,50.2
	c6.7,15.9,16.4,30.3,28.7,42.4s26.9,21.7,42.9,28.1c16,6.4,33.1,9.6,50.4,9.4c-22.7,37.3-54.8,67.9-93.1,89
	c-38.3,21-81.3,31.7-125,30.9c-43.7-0.8-86.3-13-123.8-35.3c-37.5-22.4-68.4-54.2-89.8-92.2c-21.4-38-32.4-81-32-124.7
	c0.4-43.6,12.2-86.4,34.3-124.1C74.5,86,106,54.8,143.9,33.1C181.7,11.4,224.6,0,268.3,0z"/>
<linearGradient id="SVGID_1_" gradientUnits="userSpaceOnUse" x1="333.5283" y1="74.8565" x2="333.5283" y2="428.6799" gradientTransform="matrix(1 0 0 -1 0 502)">
	<stop  offset="0" style="stop-color:#FFC780"/>
	<stop  offset="1" style="stop-color:#964B48"/>
</linearGradient>
<path class="st1" d="M481.9,119.8c-17.3-0.2-34.4,2.9-50.4,9.4c-16,6.4-30.6,16-42.9,28.1c-12.3,12.1-22,26.5-28.7,42.4
	c-6.7,15.9-10.1,33-10.1,50.2c0,17.2,3.4,34.3,10.1,50.2c6.7,15.9,16.4,30.3,28.7,42.4c12.3,12.1,26.9,21.7,42.9,28.1
	c16,6.4,33.1,9.6,50.4,9.4l-0.8,1.3c-25.4,23-57,38.2-90.9,43.6c-33.9,5.4-68.6,0.9-100-13s-58-36.7-76.6-65.5
	c-18.7-28.8-28.5-62.4-28.4-96.7c0.1-34.3,10.2-67.8,29-96.5c18.8-28.7,45.6-51.3,77-65c31.4-13.8,66.2-18.1,100-12.5
	C425.1,81.3,456.6,96.7,481.9,119.8L481.9,119.8z"/>
</svg>
