<?xml version="1.0" encoding="utf-8"?>
<!-- Generator: Adobe Illustrator 28.2.0, SVG Export Plug-In . SVG Version: 6.00 Build 0)  -->
<svg version="1.1" id="Layer_1" xmlns="http://www.w3.org/2000/svg" xmlns:xlink="http://www.w3.org/1999/xlink" x="0px" y="0px"
	 viewBox="0 0 500 500" style="enable-background:new 0 0 500 500;" xml:space="preserve">
<style type="text/css">
	.st0{fill:#FFFFFF;}
	.st1{fill:url(#SVGID_1_);}
</style>
<path class="st0" d="M496.7,131.9c-6.8-16.4-22.6-27-40.3-27h-49.9c-11.5,0-22.7,4.7-30.8,12.8L141.9,352.1c-0.4,0.3-0.9,0.3-1.2,0
	L43,255.7c-0.3-0.3-0.4-0.4-0.2-1c0.2-0.6,0.4-0.6,0.8-0.6l55.9,0.3l55.4,55.4l30.2-30.3l-55.4-55.4c-8.2-8.3-19.2-12.8-30.8-12.8
	H43.6c-17.8,0-33.6,10.7-40.3,27.2c-6.7,16.5-2.9,35.2,9.8,47.7l97.7,96.4c8.4,8.3,19.5,12.5,30.5,12.5c11.2,0,22.4-4.3,30.8-12.7
	l234.4-234.6h49.9c0.4,0,0.6,0,0.8,0.5c0.2,0.6,0.1,0.7-0.2,1L256.6,350.1c-0.3,0.3-1,0.3-1.3,0l-11-11l-30.2,30.3l11,11
	c8.2,8.3,19.2,12.8,30.8,12.8c11.6,0,22.6-4.5,30.8-12.8l200.4-200.8C499.7,167,503.4,148.3,496.7,131.9L496.7,131.9L496.7,131.9z"
	/>
<linearGradient id="SVGID_1_" gradientUnits="userSpaceOnUse" x1="1.364242e-11" y1="251" x2="500" y2="251" gradientTransform="matrix(1 0 0 -1 0 501)">
	<stop  offset="4.100000e-02" style="stop-color:#FFFFFF"/>
	<stop  offset="0.823" style="stop-color:#5EC2D8"/>
</linearGradient>
<path class="st1" d="M496.7,131.9c-6.8-16.4-22.6-27-40.3-27h-49.9c-11.5,0-22.7,4.7-30.8,12.8L141.9,352.1c-0.4,0.3-0.9,0.3-1.2,0
	L43,255.7c-0.3-0.3-0.4-0.4-0.2-1c0.2-0.6,0.4-0.6,0.8-0.6l55.9,0.3l55.4,55.4l30.2-30.3l-55.4-55.4c-8.2-8.3-19.2-12.8-30.8-12.8
	H43.6c-17.8,0-33.6,10.7-40.3,27.2c-6.7,16.5-2.9,35.2,9.8,47.7l97.7,96.4c8.4,8.3,19.5,12.5,30.5,12.5c11.2,0,22.4-4.3,30.8-12.7
	l234.4-234.6h49.9c0.4,0,0.6,0,0.8,0.5c0.2,0.6,0.1,0.7-0.2,1L256.6,350.1c-0.3,0.3-1,0.3-1.3,0l-11-11l-30.2,30.3l11,11
	c8.2,8.3,19.2,12.8,30.8,12.8c11.6,0,22.6-4.5,30.8-12.8l200.4-200.8C499.7,167,503.4,148.3,496.7,131.9L496.7,131.9L496.7,131.9z"
	/>
</svg>
