<?xml version="1.0" encoding="utf-8"?>
<!-- Generator: Adobe Illustrator 28.0.0, SVG Export Plug-In . SVG Version: 6.00 Build 0)  -->
<svg version="1.1" id="Layer_1" xmlns="http://www.w3.org/2000/svg" xmlns:xlink="http://www.w3.org/1999/xlink" x="0px" y="0px"
	 viewBox="0 0 500 500" style="enable-background:new 0 0 500 500;" xml:space="preserve">
<path d="M264.1,264.2c-0.1-11.6,4.2-22.9,12-31.4c7.8-8.6,18.6-13.9,30.2-14.9H500l-62.9,41.9H331.7c-6.8,0-13.3,2.7-18.1,7.5
	c-4.8,4.8-7.5,11.3-7.5,18.1v104.8l-41.4,49.8L264.1,264.2z"/>
<path d="M249.5,208c-10.8,0.3-21.3-3.7-29.2-11.1L80.5,60.1l76,14.9l76.1,74.7c4.9,4.8,11.4,7.5,18.3,7.5c6.8,0,13.4-2.7,18.3-7.5
	l76.3-74.6l75.8-15L284.8,194.5C275.1,203.3,262.5,208.1,249.5,208z"/>
<path d="M193.9,390.1V285.4c0-6.8-2.7-13.4-7.5-18.2c-4.8-4.8-11.3-7.6-18.1-7.6H62.7L0,217.7h189.4c12,0.2,23.5,4.7,32.3,12.8
	c4.3,3.6,7.8,8.2,10.2,13.2c2.4,5.1,3.8,10.6,3.9,16.2v179.9L193.9,390.1z"/>
</svg>
