<?xml version="1.0" encoding="utf-8"?>
<!-- Generator: Adobe Illustrator 28.2.0, SVG Export Plug-In . SVG Version: 6.00 Build 0)  -->
<svg version="1.1" id="Layer_1" xmlns="http://www.w3.org/2000/svg" xmlns:xlink="http://www.w3.org/1999/xlink" x="0px" y="0px"
	 viewBox="0 0 500 500" style="enable-background:new 0 0 500 500;" xml:space="preserve">
<style type="text/css">
	.st0{fill:#FFFFFF;}
</style>
<g>
	<path d="M500,500c-166.7,0-333.3,0-500,0C0,333.3,0,166.7,0,0c166.7,0,333.3,0,500,0C500,166.7,500,333.3,500,500z M187.3,138.6
		c-3.2-2.6-6.4-5.2-9.5-7.9c-6.3-5.4-12.6-10.9-18.9-16.3c-14.4-12-30.8-17.7-49.6-15.8c-6.6,0.7-12,3.4-15.4,9.3
		c-7.5,13-8.7,30.7,2.7,43.6c3.2,3.6,6.5,7,10.1,10.2c7.1,6.4,14.5,12.4,21.8,18.7c3.4,2.9,5.4,6.7,6.4,11.1c2.1,9,4.5,18,6.7,27.1
		c3.8,15.5,7.7,30.9,11.1,46.4c1.4,6.4,1.6,13.2,2.3,19.7c0.8,7,1.7,14,2.2,21c0.7,9.7,0.7,19.5,1.5,29.2c0.6,6.8,1.9,13.5,3.3,20.2
		c2.3,11.4,7.4,21.9,12,32.5c6.9,15.8,19,26.5,33.8,34.5c2.8,1.5,6.2,2.6,9.4,2.9c6.4,0.7,12.8-0.4,19-2
		c18.1-4.5,32.2-15.1,43.8-29.2c13.1-15.9,21.7-34.3,28.8-53.4c7-19.1,11.9-38.7,16.1-58.6c3.4-16.6,5.9-33.4,9.1-50
		c1.8-9.7,4.1-19.4,6.2-29.1c1.4-6.5,5.2-10.9,11.4-13.8c9-4.2,17.7-9.1,26.5-13.8c9.6-5.1,17.3-12.3,23.4-21.1
		c6.7-9.8,11.1-20.4,9.9-32.7c-0.2-2-0.4-4.3-1.5-5.9c-8-11.7-18.9-19.3-33.3-20.6c-10.5-1-20.6,1-30.5,4.5
		c-15,5.2-28.7,12.9-42.7,20.2c-8.1,4.2-16.3,8.2-24.6,11.9c-7.8,3.6-15.7,4.3-24.2,1.5c-8.4-2.8-17.3-2.8-25.9-1.7
		C215,133.2,201.4,136.1,187.3,138.6z"/>
	<path class="st0" d="M187.3,138.6c14.1-2.5,27.7-5.4,41.4-7.2c8.6-1.2,17.5-1.1,25.9,1.7c8.4,2.8,16.4,2,24.2-1.5
		c8.3-3.8,16.5-7.7,24.6-11.9c14-7.3,27.7-15,42.7-20.2c9.9-3.5,20.1-5.4,30.5-4.5c14.4,1.3,25.2,8.9,33.3,20.6
		c1.1,1.6,1.3,3.9,1.5,5.9c1.2,12.2-3.1,22.9-9.9,32.7c-6.1,8.9-13.8,16.1-23.4,21.1c-8.8,4.7-17.5,9.5-26.5,13.8
		c-6.2,2.9-9.9,7.3-11.4,13.8c-2.2,9.7-4.4,19.3-6.2,29.1c-3.1,16.6-5.6,33.4-9.1,50c-4.1,19.8-9,39.5-16.1,58.6
		c-7.1,19.2-15.6,37.5-28.8,53.4c-11.7,14.1-25.7,24.6-43.8,29.2c-6.3,1.6-12.6,2.7-19,2c-3.2-0.4-6.5-1.4-9.4-2.9
		c-14.7-8-26.9-18.6-33.8-34.5c-4.6-10.6-9.7-21-12-32.5c-1.3-6.7-2.7-13.4-3.3-20.2c-0.9-9.7-0.9-19.5-1.5-29.2
		c-0.5-7-1.4-14-2.2-21c-0.7-6.6-0.9-13.3-2.3-19.7c-3.4-15.5-7.3-31-11.1-46.4c-2.2-9-4.6-18-6.7-27.1c-1-4.4-3-8.2-6.4-11.1
		c-7.2-6.3-14.6-12.3-21.8-18.7c-3.6-3.2-6.9-6.6-10.1-10.2c-11.5-12.8-10.2-30.6-2.7-43.6c3.4-5.9,8.8-8.6,15.4-9.3
		c18.8-1.9,35.2,3.8,49.6,15.8c6.4,5.3,12.6,10.9,18.9,16.3C181,133.4,184.2,136,187.3,138.6z M190.7,384.4c0.2,0,0.5,0.1,0.7,0.1
		c0,0.8,0,1.7,0,2.5c-0.4,17,10.7,26.6,26.8,26.6c13,0,24.4-4.6,34-13.1c11.5-10.1,14.3-23,9.9-36.1c-3.2-9.6-10.6-15.7-19.7-19.8
		c-23.2-10.4-45.4,6.5-48.7,22.7C192.7,373,191.7,378.7,190.7,384.4z M253.8,245.6c-0.7,11.2,5.4,19.8,15,22.4
		c4.6,1.2,9.2,2.4,13.9,3c7,0.9,13.4-0.7,17.3-7.2c3.7-6,6.6-12.5,6-19.8c-0.4-4.7-1.9-9.3-2.2-14c-0.5-7-4-12.6-8.2-17.8
		c-4.7-5.9-11.8-8-18.3-5.4c-3,1.2-6,3-8.4,5.3C259.5,221.1,254.6,232.4,253.8,245.6z M185.9,260.1c6.5,0,12.2-2.7,15.4-7.8
		c6.4-10.3,6.5-19.4-0.2-29.6c-4.1-6.3-10.5-8.4-17.9-7.6c-6.6,0.7-10.9,4.6-13.6,10.4c-3.6,7.7-3.6,15.6-0.6,23.5
		C171.9,256.3,178,260.2,185.9,260.1z M319.7,140.8c1-1.4,1.8-2.7,3-4.3c-1.9-1.1-3.4-2-5.1-3c-2.2,2-4,3.6-5.1,4.7
		c-4.9,2.2-11-1.9-13.9,4.6c3.6,2.8,8.5,4.6,5.7,11.1c-2.7,0.7-5.8,1.4-9,2.2c-0.7,6.1,4.4,5.4,7.5,6.9c1,1.6,2,3.1,2.9,4.4
		c5.8-0.5,5.9-0.6,6.7-4.9c0.5-2.4,0.8-4.9,1-7.4c0.5-6.7,1.2-7.5,7.7-9.3c0.3-0.1,0.6-0.5,1.1-0.9
		C321.4,143.4,320.5,142.1,319.7,140.8z"/>
	<path d="M190.7,384.4c1-5.7,2-11.4,3.1-17c3.3-16.3,25.5-33.1,48.7-22.7c9.1,4,16.4,10.2,19.7,19.8c4.4,13.1,1.6,25.9-9.9,36.1
		c-9.6,8.5-21.1,13.1-34,13.1c-16.1,0-27.3-9.6-26.8-26.6c0-0.8,0-1.7,0-2.5C191.2,384.4,190.9,384.4,190.7,384.4z"/>
	<path d="M253.8,245.6c0.8-13.1,5.7-24.4,15.2-33.6c2.3-2.2,5.3-4.1,8.4-5.3c6.5-2.6,13.6-0.5,18.3,5.4c4.2,5.2,7.7,10.7,8.2,17.8
		c0.3,4.7,1.8,9.3,2.2,14c0.6,7.3-2.4,13.8-6,19.8c-3.9,6.4-10.3,8.1-17.3,7.2c-4.7-0.6-9.3-1.8-13.9-3
		C259.2,265.4,253.1,256.8,253.8,245.6z"/>
	<path d="M185.9,260.1c-8,0-14.1-3.8-16.9-11.2c-3-7.8-3-15.7,0.6-23.5c2.7-5.8,7-9.7,13.6-10.4c7.3-0.7,13.7,1.3,17.9,7.6
		c6.7,10.2,6.6,19.3,0.2,29.6C198.2,257.4,192.4,260.1,185.9,260.1z"/>
	<path d="M319.7,140.8c0.8,1.3,1.6,2.7,2.5,4.1c-0.5,0.4-0.7,0.8-1.1,0.9c-6.5,1.7-7.2,2.5-7.7,9.3c-0.2,2.5-0.6,4.9-1,7.4
		c-0.8,4.4-0.9,4.4-6.7,4.9c-0.9-1.3-1.8-2.8-2.9-4.4c-3.1-1.5-8.2-0.8-7.5-6.9c3.2-0.8,6.3-1.6,9-2.2c2.7-6.5-2.1-8.3-5.7-11.1
		c2.9-6.6,9-2.4,13.9-4.6c1.2-1,3-2.7,5.1-4.7c1.6,1,3.2,1.9,5.1,3C321.5,138.1,320.7,139.4,319.7,140.8z"/>
</g>
</svg>
