<?xml version="1.0" encoding="utf-8"?>
<!-- Generator: Adobe Illustrator 28.2.0, SVG Export Plug-In . SVG Version: 6.00 Build 0)  -->
<svg version="1.1" id="Layer_1" xmlns="http://www.w3.org/2000/svg" xmlns:xlink="http://www.w3.org/1999/xlink" x="0px" y="0px"
	 viewBox="0 0 500 500" style="enable-background:new 0 0 500 500;" xml:space="preserve">
<style type="text/css">
	.st0{fill:#111111;stroke:#111111;stroke-width:7.0571;}
	.st1{fill:url(#SVGID_1_);fill-opacity:0.7;}
	.st2{fill:none;stroke:url(#SVGID_00000013187022924174073040000005846489822635949698_);stroke-width:7.1464;}
	.st3{fill-rule:evenodd;clip-rule:evenodd;fill:#FFFFFF;}
</style>
<path class="st0" d="M250.1,4.5L250.1,4.5c135.6,0,245.5,109.9,245.5,245.5v0c0,135.6-109.9,245.5-245.5,245.5h0
	C114.5,495.5,4.6,385.6,4.6,250v0C4.6,114.4,114.5,4.5,250.1,4.5z"/>
<radialGradient id="SVGID_1_" cx="1.0378" cy="500.6834" r="1.2814" gradientTransform="matrix(2.518805e-14 411.352 289.55 -1.772982e-14 -144722.25 -353.8783)" gradientUnits="userSpaceOnUse">
	<stop  offset="3.125000e-02" style="stop-color:#3A3A3A"/>
	<stop  offset="1" style="stop-color:#1C1C1C"/>
</radialGradient>
<path class="st1" d="M250.1,0L250.1,0C112,0,0.1,111.9,0.1,250v0c0,138.1,111.9,250,250,250h0c138.1,0,250-111.9,250-250v0
	C500.1,111.9,388.2,0,250.1,0z"/>
<linearGradient id="SVGID_00000048483047920837270040000015695636804817813687_" gradientUnits="userSpaceOnUse" x1="250.0951" y1="504.6926" x2="250.0951" y2="-2.6937" gradientTransform="matrix(1 0 0 -1 0 501)">
	<stop  offset="0" style="stop-color:#FFFFFF"/>
	<stop  offset="1" style="stop-color:#111111"/>
</linearGradient>
<path style="fill:none;stroke:url(#SVGID_00000048483047920837270040000015695636804817813687_);stroke-width:7.1464;" d="
	M250.1,4.6L250.1,4.6c135.5,0,245.4,109.9,245.4,245.4v0c0,135.5-109.9,245.4-245.4,245.4h0C114.6,495.4,4.7,385.5,4.7,250v0
	C4.7,114.5,114.6,4.6,250.1,4.6z"/>
<path class="st3" d="M195.4,133.7h-5.3l-3.5,4.1L97.4,242.5l-6.4,7.5l6.4,7.5l89.2,104.7l3.5,4.1h5.3h160.5h11.5v-11.5v-66.6h-23.1
	v55H220.6l74.1-85.7l6.5-7.5l-6.5-7.5l-74.1-85.7h123.8v55h23.1v-66.6v-11.5h-11.5H195.4z M195.5,163l-74.1,87l74.1,87l75.3-87
	L195.5,163z"/>
</svg>
