<?xml version="1.0" encoding="utf-8"?>
<!-- Generator: Adobe Illustrator 28.2.0, SVG Export Plug-In . SVG Version: 6.00 Build 0)  -->
<svg version="1.1" id="Layer_1" xmlns="http://www.w3.org/2000/svg" xmlns:xlink="http://www.w3.org/1999/xlink" x="0px" y="0px"
	 viewBox="0 0 500 500" style="enable-background:new 0 0 500 500;" xml:space="preserve">
<style type="text/css">
	.st0{fill:#60B3E4;}
	.st1{fill:#346DC0;}
	.st2{fill:#00C3CA;}
	.st3{fill:#2F5EA0;}
	.st4{fill:#FFFFFF;}
</style>
<path class="st0" d="M41.7,186.3C55.9,111.1,145,18.1,272.4,30c110.2,10.3,189.7,103.5,194.3,191.3c-21.6,16.8-46.3,28.4-73.6,34.5
	c-45.1,10-87.4-2.5-129.4-17c-40.6-14-80.6-29.7-121.8-41.8c-29.7-8.8-60.6-14.7-92.2-8.9C47.3,188.6,44.3,187,41.7,186.3z"/>
<path class="st1" d="M427.3,376.4c-8.8,24-26.1,37.1-44.9,47.6c-49,27.3-97.2,19.4-142.2-9.1c-26.7-16.9-51.2-37.6-75.3-58.2
	c-41.2-35.3-82-70.9-134.4-91.3c0-10.8,0-21.1,0-33.2c5.7,0.4,10.2,0.3,14.5,1.1c46.8,9,86.5,32.9,125.3,59.1
	c30.2,20.4,60.4,41,91.3,60.3c32.5,20.4,68.8,30.9,107,32.6c13.8,0.6,27.9-3.2,41.8-5.3C415.4,379.4,420.3,377.9,427.3,376.4z"/>
<path class="st2" d="M32.8,218.7c0.9-6.4,1.6-11.3,2.3-16.8c22-6,42.3-0.2,62.1,3.3c36.8,6.5,70.6,22.1,105,36.1
	c35.9,14.6,72.1,28.9,109.2,40.2c29.4,9,60.7,10.3,90.8,2.2c17.4-4.7,33.7-13.1,50.4-20.3c5.2-2.3,9.9-5.9,18.3-11
	c-0.5,8.6,0,14.2-1.1,19.3c-12.4,55.7-67.7,91.9-124.3,81.9c-31.2-5.5-59.9-17.2-87-33.3c-33.9-20.1-67.5-40.8-101.5-60.9
	c-34.3-20.4-71.5-32.9-111-38.5C42.5,220.5,39.2,219.8,32.8,218.7z"/>
<path class="st3" d="M279.2,465.9C174.7,491.8,43.9,401.9,34.4,284c8.2,4.2,16.1,6.6,22,11.4c28.2,23,56.2,46.3,83.7,70.1
	c20.9,18.1,40.4,37.7,61.5,55.5C224.6,440.4,250.8,455,279.2,465.9z"/>
<path class="st4" d="M250,500C112.1,500,0,387.9,0,250C0,112.1,112.1,0,250,0s250,112.1,250,250C500,387.9,387.9,500,250,500z
	 M250,17.9C122,17.9,17.9,122,17.9,250S122,482.1,250,482.1S482.1,378,482.1,250S378,17.9,250,17.9z"/>
</svg>
