<?xml version="1.0" encoding="utf-8"?>
<!-- Generator: Adobe Illustrator 26.2.1, SVG Export Plug-In . SVG Version: 6.00 Build 0)  -->
<svg version="1.1" id="Layer_1" xmlns="http://www.w3.org/2000/svg" xmlns:xlink="http://www.w3.org/1999/xlink" x="0px" y="0px"
	 viewBox="0 0 500 500" style="enable-background:new 0 0 500 500;" xml:space="preserve">
<style type="text/css">
	.st0{fill:url(#SVGID_1_);}
	.st1{fill:#A0A8D4;}
	.st2{fill:url(#SVGID_00000101066917483419947140000004579124138757401989_);}
	.st3{fill:url(#SVGID_00000033336142773026701410000014978775053554849164_);}
</style>
<linearGradient id="SVGID_1_" gradientUnits="userSpaceOnUse" x1="254.0816" y1="491.9803" x2="74.6402" y2="297.453" gradientTransform="matrix(1 0 0 -1 -6 499.41)">
	<stop  offset="0.58" style="stop-color:#A0A8D4"/>
	<stop  offset="0.73" style="stop-color:#8791C7"/>
	<stop  offset="0.91" style="stop-color:#6470B4"/>
</linearGradient>
<path class="st0" d="M85.2,201.8c4.9,10.4,17,31.1,17,31.1L242,1.8L105.6,97.1c-8.1,5.4-14.8,12.8-19.4,21.4
	C73.6,144.8,73.2,175.3,85.2,201.8z"/>
<path class="st1" d="M29.8,277.9c3.1,44.7,25.4,85.9,61.1,113l150.9,105.2c0,0-94.4-136.1-174.1-271.5c-8.1-14.3-13.5-29.9-16-46.2
	c-1.1-7.3-1.1-14.8,0-22.2c-2.1,3.8-6.1,11.7-6.1,11.7c-8.1,16.5-13.6,34.1-16.3,52.2C27.8,239.5,27.9,258.8,29.8,277.9z"/>
<linearGradient id="SVGID_00000008869248235938005570000015876719071564346300_" gradientUnits="userSpaceOnUse" x1="257.9449" y1="8.8521" x2="437.4131" y2="203.3421" gradientTransform="matrix(1 0 0 -1 -6 499.41)">
	<stop  offset="0.58" style="stop-color:#A0A8D4"/>
	<stop  offset="0.73" style="stop-color:#8791C7"/>
	<stop  offset="0.91" style="stop-color:#6470B4"/>
</linearGradient>
<path style="fill:url(#SVGID_00000008869248235938005570000015876719071564346300_);" d="M414.8,296.2c-4.9-10.4-17-31.1-17-31.1
	L258,496.2L394.5,401c8.1-5.4,14.8-12.8,19.4-21.4C426.5,353.3,426.8,322.8,414.8,296.2z"/>
<path class="st1" d="M470.2,220.1c-3.1-44.7-25.4-85.9-61.1-113L258.2,1.8c0,0,94.4,136.1,174.1,271.5c8,14.3,13.4,29.9,15.9,46.2
	c1.1,7.3,1.1,14.8,0,22.2c2.1-3.8,6.1-11.7,6.1-11.7c8.1-16.5,13.6-34.1,16.3-52.2C472.2,258.5,472.1,239.2,470.2,220.1z"/>
<linearGradient id="SVGID_00000029733527107703742650000016313784757238930349_" gradientUnits="userSpaceOnUse" x1="256.0023" y1="500.0443" x2="256.0023" y2="1.6917" gradientTransform="matrix(1 0 0 -1 -6 499.41)">
	<stop  offset="0" style="stop-color:#513EFF"/>
	<stop  offset="0.18" style="stop-color:#5157FF"/>
	<stop  offset="0.57" style="stop-color:#5298FF"/>
	<stop  offset="1" style="stop-color:#52E5FF"/>
</linearGradient>
<path style="fill:url(#SVGID_00000029733527107703742650000016313784757238930349_);" d="M86.1,118.5c4.6-8.6,11.3-16,19.4-21.4
	L242,1.8L102.2,233c0,0-12.2-20.6-17-31.1C73.2,175.3,73.5,144.8,86.1,118.5z M29.8,277.9c3.1,44.7,25.4,85.9,61.1,113l150.9,105.2
	c0,0-94.4-136.1-174.1-271.5c-8.1-14.3-13.5-29.9-16-46.2c-1.1-7.3-1.1-14.8,0-22.2c-2.1,3.8-6.1,11.7-6.1,11.7
	c-8.1,16.5-13.6,34.1-16.3,52.2C27.8,239.5,27.9,258.8,29.8,277.9z M414.6,296.2c-4.9-10.4-17-31.1-17-31.1L258,496.2L394.5,401
	c8.1-5.4,14.8-12.8,19.4-21.4c12.6-26.3,12.9-56.8,0.9-83.4L414.6,296.2z M470,220.1c-3.1-44.7-25.4-85.9-61.1-113L258.2,1.8
	c0,0,94.4,136.1,174.1,271.5c8,14.3,13.4,29.9,15.9,46.2c1.1,7.3,1.1,14.8,0,22.2c2.1-3.8,6.1-11.7,6.1-11.7
	c8.1-16.5,13.6-34.1,16.3-52.2c1.6-19.2,1.4-38.4-0.4-57.6L470,220.1z"/>
</svg>
