<?xml version="1.0" encoding="utf-8"?>
<!-- Generator: Adobe Illustrator 26.2.1, SVG Export Plug-In . SVG Version: 6.00 Build 0)  -->
<svg version="1.1" id="Layer_1" xmlns="http://www.w3.org/2000/svg" xmlns:xlink="http://www.w3.org/1999/xlink" x="0px" y="0px"
	 viewBox="0 0 500 500" style="enable-background:new 0 0 500 500;" xml:space="preserve">
<style type="text/css">
	.st0{fill:#7E6BE4;}
</style>
<path class="st0" d="M250,2.8C113.5,2.8,2.8,113.5,2.8,250c0,136.5,110.7,247.2,247.2,247.2c136.5,0,247.2-110.7,247.2-247.2
	C497.2,113.5,386.5,2.8,250,2.8z M304.3,414.5l-98.1-140.8c-10.9-15.6-8.5-37,5.6-49.8l10-9.1c14.4-13.1,15.4-35.3,2.3-49.7
	c-13.1-14.3-35.3-15.4-49.7-2.3l-10,9.1c-40,36.5-46.9,97.5-15.9,142l74.8,107.4C140.4,408.4,76.7,336.5,76.7,250
	c0-75.9,49-140.4,117-163.9l97.6,140.1c10.9,15.6,8.5,37-5.6,49.8l-10,9.1c-14.4,13.1-15.4,35.3-2.3,49.7c6.9,7.6,16.4,11.5,26,11.5
	c8.5,0,16.9-3,23.7-9.2l10-9.1c40-36.5,46.9-97.5,15.9-142L274,78.4c84.3,11.7,149.3,84.2,149.3,171.6
	C423.3,326.6,373.4,391.7,304.3,414.5z"/>
</svg>
