<svg width="118" height="26" viewBox="0 0 118 26" fill="none" xmlns="http://www.w3.org/2000/svg">
<g clip-path="url(#clip0)">
<path d="M6.314 6.29353L6.1536 6.45452L2.4789 10.1428L1.37066 11.2551C1.31227 11.3416 1.23804 11.4161 1.15193 11.4747C0.987151 11.5833 0.786156 11.6218 0.593113 11.5817C0.40007 11.5416 0.230775 11.4263 0.12243 11.261C0.0407157 11.138 -0.00198799 10.9931 -5.95193e-05 10.8453V7.34732C0.0301487 6.52545 0.376821 5.74738 0.967004 5.17685C1.55719 4.60633 2.34486 4.28783 3.16426 4.28839H6.314L5.39533 5.2251L4.33083 6.29353H6.314Z" fill="url(#paint0_linear)"/>
<path d="M21.3773 8.31328V8.54745C21.3242 10.5357 20.5579 12.4378 19.2191 13.9042L8.7929 24.369C8.21528 24.8872 7.46779 25.1737 6.69308 25.174C6.48292 25.1699 6.27335 25.1503 6.06605 25.1154L5.4536 24.9252C4.79862 24.6969 4.16031 24.423 3.54334 24.1056L3.4121 24.0324C3.35575 23.99 3.31042 23.9346 3.27996 23.8709C3.24949 23.8072 3.2348 23.7371 3.23711 23.6665C3.23564 23.5667 3.26633 23.4692 3.32461 23.3884L15.0195 11.6357C15.0763 11.5736 15.1253 11.5048 15.1653 11.4308C15.2381 11.2906 15.2967 11.1435 15.3403 10.9917C15.3621 10.8953 15.3767 10.7975 15.384 10.6989C15.3969 10.6364 15.4018 10.5725 15.3986 10.5087C15.3986 9.98853 15.1927 9.48969 14.8263 9.12188C14.4598 8.75408 13.9628 8.54745 13.4446 8.54745H9.17204L12.0447 5.66416C12.1308 5.60555 12.2051 5.53105 12.2634 5.44462C12.3408 5.32212 12.3813 5.17983 12.3801 5.03481C12.3801 4.83684 12.3018 4.64698 12.1623 4.507C12.0228 4.36701 11.8337 4.28837 11.6364 4.28837H5.54109C5.54109 4.28837 6.12437 3.64438 6.35769 3.41021C6.88264 2.8394 7.52426 2.1076 8.2242 1.59534C9.63543 0.553503 11.3428 -0.00574702 13.0946 1.35422e-05C14.132 0.00130819 15.1603 0.194819 16.1277 0.570819L16.5214 0.731815C17.2217 1.05524 17.8743 1.47386 18.4608 1.97588L18.5775 2.07833H18.5921C19.4673 2.85922 20.168 3.8172 20.648 4.88928C21.128 5.96136 21.3766 7.12327 21.3773 8.29864V8.31328Z" fill="url(#paint1_linear)"/>
<path d="M12.9342 4.28836H5.58481L2.15801 7.72783C2.09178 7.79621 2.04721 7.88274 2.0299 7.97651C2.01259 8.07027 2.02333 8.16709 2.06076 8.25474C2.09819 8.34239 2.16063 8.41696 2.24022 8.46905C2.3198 8.52114 2.41297 8.54842 2.50798 8.54744H10.4698L13.5466 5.44461C13.635 5.32667 13.6812 5.18232 13.6779 5.0348C13.6779 4.83683 13.5995 4.64697 13.4601 4.50699C13.3206 4.367 13.1314 4.28836 12.9342 4.28836ZM9.87195 6.42522C9.74681 6.42528 9.62658 6.37641 9.53674 6.28897C9.4469 6.20153 9.39453 6.08241 9.39074 5.95687C9.39271 5.86892 9.41786 5.78307 9.46365 5.70806C9.5007 5.6489 9.55054 5.59888 9.60947 5.5617C9.68332 5.51377 9.76943 5.48835 9.85737 5.48852C9.98113 5.48657 10.1006 5.53406 10.1895 5.62052C10.2783 5.70698 10.3294 5.82534 10.3313 5.94955C10.3332 6.07377 10.2859 6.19366 10.1998 6.28287C10.1136 6.37207 9.99571 6.42328 9.87195 6.42522Z" fill="#E35CC7"/>
<path d="M6.53257 4.28836H5.52641L2.14335 7.66928C2.07047 7.74094 2.02065 7.83287 2.00033 7.93323C1.98002 8.03358 1.99013 8.13774 2.02937 8.23226C2.06861 8.32679 2.13518 8.40734 2.22048 8.46352C2.30578 8.5197 2.40589 8.54893 2.50791 8.54744H4.06819L8.31159 4.28836H6.53257Z" fill="#8961D0"/>
<path d="M9.85743 6.4252C10.1151 6.4252 10.3241 6.21551 10.3241 5.95685C10.3241 5.69818 10.1151 5.48849 9.85743 5.48849C9.59972 5.48849 9.39081 5.69818 9.39081 5.95685C9.39081 6.21551 9.59972 6.4252 9.85743 6.4252Z" fill="#8961D0"/>
<path opacity="0.48" d="M9.85743 6.4252C10.1151 6.4252 10.3241 6.21551 10.3241 5.95685C10.3241 5.69818 10.1151 5.48849 9.85743 5.48849C9.59972 5.48849 9.39081 5.69818 9.39081 5.95685C9.39081 6.21551 9.59972 6.4252 9.85743 6.4252Z" fill="url(#paint2_linear)"/>
<path opacity="0.48" d="M10.3094 5.95685C10.3095 5.83513 10.2623 5.71817 10.178 5.63074C10.0936 5.54332 9.97861 5.4923 9.8574 5.48849C9.77537 5.49069 9.69516 5.51322 9.62392 5.55408C9.55268 5.59494 9.49262 5.65286 9.4491 5.72267C9.53804 5.64537 9.65226 5.60368 9.7699 5.60558C9.82927 5.60558 9.88805 5.61732 9.94289 5.64012C9.99774 5.66292 10.0476 5.69634 10.0895 5.73847C10.1315 5.78061 10.1648 5.83062 10.1875 5.88567C10.2103 5.94072 10.2219 5.99972 10.2219 6.0593V6.07394C10.2248 6.15132 10.2045 6.22778 10.1636 6.29348C10.2099 6.25066 10.2469 6.19859 10.272 6.14062C10.2971 6.08265 10.3098 6.02006 10.3094 5.95685Z" fill="#480061"/>
<path opacity="0.75" d="M12.9342 4.28836H5.58482L2.1726 7.72783C2.10722 7.79531 2.06291 7.8805 2.04512 7.97292C2.02732 8.06535 2.03683 8.16097 2.07246 8.24805C2.10809 8.33512 2.16829 8.40985 2.24567 8.46304C2.32305 8.51623 2.41423 8.54557 2.50799 8.54745H10.4698L13.5467 5.44461C13.635 5.32667 13.6812 5.18232 13.6779 5.0348C13.6779 4.83683 13.5995 4.64697 13.4601 4.50699C13.3206 4.367 13.1315 4.28836 12.9342 4.28836ZM9.85738 6.42522C9.79611 6.42522 9.73543 6.41311 9.67881 6.38957C9.6222 6.36603 9.57076 6.33153 9.52743 6.28804C9.4841 6.24455 9.44973 6.19292 9.42628 6.1361C9.40283 6.07928 9.39076 6.01837 9.39076 5.95687C9.39272 5.86892 9.41788 5.78307 9.46367 5.70806C9.50071 5.6489 9.55055 5.59888 9.60949 5.5617C9.68334 5.51377 9.76944 5.48835 9.85738 5.48852C9.9786 5.49232 10.0936 5.54334 10.178 5.63076C10.2623 5.71819 10.3095 5.83515 10.3094 5.95687C10.3063 6.07761 10.2581 6.19278 10.1744 6.27953C10.0907 6.36629 9.97753 6.41829 9.85738 6.42522Z" fill="url(#paint3_linear)"/>
<path d="M6.53257 4.28836H5.52641L2.14335 7.66928C2.07047 7.74094 2.02065 7.83287 2.00033 7.93323C1.98002 8.03358 1.99013 8.13774 2.02937 8.23226C2.06861 8.32679 2.13518 8.40734 2.22048 8.46352C2.30578 8.5197 2.40589 8.54893 2.50791 8.54744H4.06819L8.31159 4.28836H6.53257Z" fill="url(#paint4_linear)"/>
<path opacity="0.43" d="M11.3448 8.54748L13.4883 5.51782L10.4698 8.54748H11.3448Z" fill="url(#paint5_linear)"/>
<path d="M37.0385 7.08383V9.23533H31.5119V12.6602H35.7552V14.7824H31.5119V20.4173H28.8433V7.08383H37.0385Z" fill="white"/>
<path d="M41.5882 6.27884V20.4172H38.9196V6.27884H41.5882Z" fill="white"/>
<path d="M44.1691 12.2357C44.5583 11.4507 45.1596 10.7914 45.9044 10.333C46.6363 9.88191 47.4808 9.64845 48.3396 9.65979C49.0593 9.64394 49.7713 9.81003 50.4103 10.1428C50.9674 10.4284 51.4514 10.8391 51.8247 11.3429V9.83542H54.5079V20.4173H51.8247V18.8659C51.4601 19.3852 50.9745 19.8073 50.4103 20.0953C49.7028 20.4448 48.9189 20.6093 48.1311 20.5735C47.3434 20.5377 46.5775 20.3027 45.9044 19.8904C45.1582 19.421 44.5572 18.7519 44.1691 17.9584C43.7315 17.0668 43.5116 16.0835 43.5275 15.0898C43.51 14.1005 43.7301 13.1216 44.1691 12.2357ZM51.4456 13.4505C51.2119 13.0054 50.8582 12.6352 50.4249 12.3821C50.005 12.1358 49.5279 12.0048 49.0415 12.0022C48.5552 11.9996 48.0767 12.1256 47.6543 12.3675C47.2281 12.6248 46.8801 12.9943 46.6481 13.4359C46.3726 13.9422 46.2367 14.5131 46.2544 15.0898C46.2427 15.6704 46.3782 16.2445 46.6481 16.7583C46.8846 17.2091 47.237 17.5881 47.6688 17.856C48.0783 18.1035 48.547 18.235 49.025 18.2365C49.5168 18.2354 49.9997 18.1042 50.4249 17.856C50.8582 17.6029 51.2119 17.2327 51.4456 16.7875C51.7107 16.2726 51.8411 15.6984 51.8247 15.119C51.8373 14.54 51.7071 13.9668 51.4456 13.4505Z" fill="white"/>
<path d="M73.3333 10.8746C74.1354 11.665 74.5291 12.7773 74.5291 14.2116V20.4173H71.8605V14.5629C71.8605 13.7433 71.6564 13.0993 71.2335 12.6602C70.8106 12.2211 70.2419 12.0016 69.5274 12.0016C68.8129 12.0016 68.2296 12.2211 67.8067 12.6602C67.3838 13.0993 67.1651 13.7433 67.1651 14.5629V20.4173H64.4966V14.5629C64.4966 13.7433 64.2924 13.0993 63.8695 12.6602C63.4467 12.2211 62.878 12.0016 62.1634 12.0016C61.4489 12.0016 60.8365 12.2211 60.4136 12.6602C59.9907 13.0993 59.7865 13.7433 59.7865 14.5629V20.4173H57.118V9.83545H59.7865V11.1088C60.1356 10.6591 60.5852 10.2981 61.0989 10.055C61.6574 9.80012 62.2645 9.67027 62.878 9.67445C63.649 9.66146 64.4111 9.84261 65.0944 10.2013C65.7303 10.5469 66.2522 11.0707 66.5964 11.7089C66.9404 11.0829 67.4568 10.5697 68.0838 10.2306C68.7334 9.86321 69.4671 9.67156 70.2128 9.67445C71.496 9.67445 72.5459 10.0696 73.3333 10.8746Z" fill="white"/>
<path d="M77.2414 8.12299C77.0893 7.98154 76.969 7.80916 76.8885 7.61734C76.8081 7.42553 76.7693 7.2187 76.7748 7.01065C76.7672 6.80016 76.8049 6.59051 76.8855 6.39602C76.966 6.20152 77.0874 6.02676 77.2414 5.88368C77.5649 5.60125 77.9792 5.44571 78.408 5.44571C78.8367 5.44571 79.251 5.60125 79.5745 5.88368C79.7285 6.02676 79.8499 6.20152 79.9305 6.39602C80.011 6.59051 80.0488 6.80016 80.0412 7.01065C80.0466 7.2187 80.0079 7.42553 79.9274 7.61734C79.8469 7.80916 79.7266 7.98154 79.5745 8.12299C79.2552 8.41404 78.8393 8.57529 78.408 8.57529C77.9766 8.57529 77.5607 8.41404 77.2414 8.12299ZM79.7204 9.8354V20.4173H77.0518V9.8354H79.7204Z" fill="white"/>
<path d="M91.2401 10.8746C92.013 11.6649 92.3921 12.7773 92.3921 14.2116V20.4173H89.7236V14.5629C89.7236 13.7286 89.5195 13.0846 89.0966 12.6309C88.6737 12.1772 88.105 11.9577 87.3905 11.9577C86.6759 11.9577 86.0781 12.1772 85.6552 12.6309C85.2323 13.0846 85.0136 13.7286 85.0136 14.5629V20.4173H82.3451V9.83543H85.0136V11.1527C85.3695 10.6847 85.8354 10.3126 86.3697 10.0696C86.9399 9.80192 87.563 9.66684 88.1925 9.67444C89.4465 9.67444 90.4527 10.0696 91.2401 10.8746Z" fill="white"/>
<path d="M101.127 10.1281C101.691 10.4102 102.177 10.8275 102.542 11.3429V9.83541H105.225V20.4904C105.239 21.3994 105.034 22.2983 104.627 23.1103C104.238 23.886 103.622 24.5241 102.862 24.9398C102.075 25.3935 101.127 25.6277 100.004 25.6277C98.5071 25.6277 97.2822 25.2764 96.3295 24.5739C95.865 24.2445 95.4781 23.817 95.1959 23.3214C94.9137 22.8258 94.7432 22.2741 94.6964 21.7052H97.3357C97.4813 22.1911 97.8042 22.604 98.2398 22.8615C98.7507 23.1659 99.3374 23.3182 99.9313 23.3006C100.709 23.3006 101.336 23.0664 101.812 22.598C102.294 22.1297 102.542 21.4271 102.542 20.4904V18.8512C102.171 19.3709 101.681 19.7928 101.112 20.0806C100.482 20.4232 99.7732 20.5947 99.0564 20.5783C98.1953 20.5918 97.3489 20.3527 96.6212 19.8904C95.8705 19.422 95.2646 18.753 94.8713 17.9584C94.4386 17.0656 94.2236 16.0824 94.2443 15.0897C94.2221 14.1017 94.4371 13.1228 94.8713 12.2357C95.2652 11.454 95.8655 10.7958 96.6066 10.333C97.343 9.87982 98.1927 9.6463 99.0564 9.65978C99.7741 9.64686 100.484 9.8075 101.127 10.1281ZM102.148 13.4505C101.919 13.0018 101.564 12.6302 101.127 12.3821C100.707 12.1345 100.229 12.0032 99.7418 12.0015C99.2505 11.9976 98.7675 12.1294 98.3458 12.3823C97.924 12.6353 97.5796 12.9998 97.3503 13.4359C97.0748 13.9422 96.9389 14.5131 96.9566 15.0897C96.9449 15.6704 97.0804 16.2445 97.3503 16.7583C97.591 17.2061 97.9425 17.5841 98.371 17.856C98.788 18.1046 99.264 18.2359 99.7491 18.2359C100.234 18.2359 100.71 18.1046 101.127 17.856C101.564 17.6078 101.919 17.2363 102.148 16.7875C102.425 16.2765 102.561 15.7005 102.542 15.119C102.556 14.5381 102.42 13.9632 102.148 13.4505Z" fill="white"/>
<path d="M109.76 19.905C108.959 19.4544 108.298 18.791 107.849 17.9877C107.383 17.1052 107.147 16.1181 107.164 15.119C107.142 14.1158 107.389 13.1252 107.879 12.2504C108.335 11.443 109.007 10.7791 109.818 10.333C110.672 9.89012 111.62 9.659 112.581 9.659C113.543 9.659 114.49 9.89012 115.345 10.333C116.157 10.7827 116.832 11.4454 117.299 12.2504C117.777 13.1292 118.018 14.118 117.999 15.119C118.023 16.1244 117.771 17.1171 117.269 17.9877C116.797 18.793 116.117 19.4554 115.301 19.905C114.439 20.3637 113.476 20.5953 112.501 20.5783C111.545 20.5939 110.601 20.362 109.76 19.905ZM113.872 17.8999C114.303 17.6558 114.653 17.2892 114.878 16.8461C115.153 16.3132 115.288 15.7189 115.272 15.119C115.272 14.1091 114.995 13.3481 114.47 12.8065C114.223 12.5434 113.925 12.3347 113.593 12.1936C113.262 12.0525 112.905 11.9821 112.545 11.9869C112.187 11.9804 111.832 12.0501 111.502 12.1914C111.173 12.3326 110.877 12.5423 110.635 12.8065C110.124 13.3481 109.862 14.1091 109.862 15.119C109.862 16.1289 110.11 16.9046 110.62 17.4462C110.857 17.7093 111.147 17.9177 111.472 18.0567C111.797 18.1957 112.148 18.2621 112.501 18.2511C112.98 18.2516 113.452 18.1308 113.872 17.8999Z" fill="white"/>
</g>
<defs>
<linearGradient id="paint0_linear" x1="-5.95193e-05" y1="7.94301" x2="6.314" y2="7.94301" gradientUnits="userSpaceOnUse">
<stop stop-color="#4750D9"/>
<stop offset="0.41" stop-color="#5C45DC"/>
<stop offset="1" stop-color="#8131E1"/>
</linearGradient>
<linearGradient id="paint1_linear" x1="3.23711" y1="12.587" x2="21.3773" y2="12.587" gradientUnits="userSpaceOnUse">
<stop stop-color="#E96161"/>
<stop offset="0.2" stop-color="#E65B76"/>
<stop offset="0.61" stop-color="#DF4AAC"/>
<stop offset="1" stop-color="#D739E6"/>
</linearGradient>
<linearGradient id="paint2_linear" x1="9.38935" y1="5.95685" x2="10.3124" y2="5.95685" gradientUnits="userSpaceOnUse">
<stop stop-color="#B100D3"/>
<stop offset="0.23" stop-color="#9C00C0"/>
<stop offset="0.69" stop-color="#67008E"/>
<stop offset="1" stop-color="#40006A"/>
</linearGradient>
<linearGradient id="paint3_linear" x1="2.03699" y1="6.4179" x2="13.6779" y2="6.4179" gradientUnits="userSpaceOnUse">
<stop stop-color="#D0D7D3"/>
<stop offset="0.52" stop-color="#D9C5E8"/>
<stop offset="1" stop-color="#E3B1FF"/>
</linearGradient>
<linearGradient id="paint4_linear" x1="1.99899" y1="6.4179" x2="8.31013" y2="6.4179" gradientUnits="userSpaceOnUse">
<stop stop-color="#B277EC"/>
<stop offset="0.77" stop-color="#9336E7"/>
<stop offset="1" stop-color="#8921E6"/>
</linearGradient>
<linearGradient id="paint5_linear" x1="10.4655" y1="7.03265" x2="13.4898" y2="7.03265" gradientUnits="userSpaceOnUse">
<stop stop-opacity="0.5"/>
<stop offset="0.1" stop-color="#201322" stop-opacity="0.59"/>
<stop offset="0.25" stop-color="#4A2C4E" stop-opacity="0.72"/>
<stop offset="0.4" stop-color="#6D4173" stop-opacity="0.82"/>
<stop offset="0.55" stop-color="#885190" stop-opacity="0.9"/>
<stop offset="0.7" stop-color="#9B5DA4" stop-opacity="0.95"/>
<stop offset="0.85" stop-color="#A664B0" stop-opacity="0.99"/>
<stop offset="1" stop-color="#AA66B4"/>
</linearGradient>
<clipPath id="clip0">
<rect width="118" height="25.6277" fill="white"/>
</clipPath>
</defs>
</svg>
