<?xml version="1.0" encoding="utf-8"?>
<!-- Generator: Adobe Illustrator 28.2.0, SVG Export Plug-In . SVG Version: 6.00 Build 0)  -->
<svg version="1.1" id="Layer_1" xmlns="http://www.w3.org/2000/svg" xmlns:xlink="http://www.w3.org/1999/xlink" x="0px" y="0px"
	 viewBox="0 0 500 500" style="enable-background:new 0 0 500 500;" xml:space="preserve">
<style type="text/css">
	.st0{fill:#E62058;}
</style>
<path id="Path_2898" class="st0" d="M371.6,187.9H125C57.2,187.6,1.8,241.5,0,309.2c0,1.8,1.4,3.3,3.3,3.3h246.7
	c67.7,0.3,123.2-53.7,125-121.4c0-1.8-1.5-3.3-3.3-3.3l0,0V187.9z"/>
<path id="Path_2899" class="st0" d="M496.6,0.7H125C57.2,0.4,1.8,54.4,0.1,122.1c0,1.8,1.4,3.3,3.1,3.3H375
	c67.7,0.3,123.2-53.7,125-121.4c0-1.8-1.5-3.3-3.3-3.3l0,0L496.6,0.7z"/>
<circle id="Ellipse_9" class="st0" cx="62.6" cy="436.6" r="62.6"/>
</svg>
