<?xml version="1.0" encoding="UTF-8"?>
<svg version="1.1" xmlns="http://www.w3.org/2000/svg" width="64" height="64">
<path d="M0 0 C1.875 0.22265625 1.875 0.22265625 4 1 C5.125 2.99609375 5.125 2.99609375 6 5.4375 C7.24205208 9.00814803 7.24205208 9.00814803 10.125 11.28515625 C10.74375 11.52105469 11.3625 11.75695313 12 12 C12 13.66666667 12 15.33333333 12 17 C12.66 17 13.32 17 14 17 C15.66666667 18.66666667 17.33333333 20.33333333 19 22 C20.65661761 23.01656081 22.32111559 24.02065076 24 25 C24.495 25.99 24.495 25.99 25 27 C26.6476038 27.71247732 28.31763529 28.37400383 30 29 C31.34050052 29.65213539 32.67661368 30.31379969 34 31 C34 31.66 34 32.32 34 33 C31.4453125 34.7265625 31.4453125 34.7265625 28.125 36.625 C27.03445312 37.25664063 25.94390625 37.88828125 24.8203125 38.5390625 C22 40 22 40 20 40 C20 40.66 20 41.32 20 42 C18.948125 42.721875 17.89625 43.44375 16.8125 44.1875 C9.75816442 49.07017895 6.58700632 56.41386322 3 64 C2.34 64 1.68 64 1 64 C0.87625 63.360625 0.7525 62.72125 0.625 62.0625 C0.41875 61.381875 0.2125 60.70125 0 60 C-0.66 59.67 -1.32 59.34 -2 59 C-2 58.01 -2 57.02 -2 56 C-2.66 55.67 -3.32 55.34 -4 55 C-4.598125 54.0925 -5.19625 53.185 -5.8125 52.25 C-11.79423125 43.36285644 -20.67135467 37.88026353 -30 33 C-28.68786941 29.06360824 -27.17198478 28.71346403 -23.5625 26.8125 C-22.57378906 26.28269531 -21.58507812 25.75289062 -20.56640625 25.20703125 C-18 24 -18 24 -16 24 C-16 23.34 -16 22.68 -16 22 C-14.25185388 20.60861839 -12.40327432 19.43705154 -10.53125 18.21875 C-10.0259375 17.8165625 -9.520625 17.414375 -9 17 C-9 16.34 -9 15.68 -9 15 C-8.2575 14.319375 -7.515 13.63875 -6.75 12.9375 C-3.25732707 9.6239385 -1.64744562 5.45454569 0 1 C0 0.67 0 0.34 0 0 Z M1 19 C0.67 20.65 0.34 22.3 0 24 C-0.99 24.33 -1.98 24.66 -3 25 C-3 25.66 -3 26.32 -3 27 C-3.763125 27.28875 -4.52625 27.5775 -5.3125 27.875 C-8.15029308 28.96269013 -8.15029308 28.96269013 -11 31 C-11 31.66 -11 32.32 -11 33 C-9.33987809 34.37396291 -9.33987809 34.37396291 -7.25 35.75 C-3.44350054 38.48045721 -1.44054255 41.05758511 1 45 C1.66 45 2.32 45 3 45 C4.37396291 43.33987809 4.37396291 43.33987809 5.75 41.25 C8.47415169 37.46571046 10.97206634 35.30167638 15 33 C14.278125 32.29875 13.55625 31.5975 12.8125 30.875 C10.83067874 28.91006927 9.05292847 26.86821544 7.3125 24.6875 C6.549375 23.800625 5.78625 22.91375 5 22 C4.34 22 3.68 22 3 22 C3 21.01 3 20.02 3 19 C2.34 19 1.68 19 1 19 Z " fill="#BAB8B8" transform="translate(30,0)"/>
<path d="M0 0 C4.90745353 1.48710713 8.51153881 4.32273034 12 8 C13.4375 10.875 13.4375 10.875 14 13 C14.66 13 15.32 13 16 13 C16.2475 11.9790625 16.2475 11.9790625 16.5 10.9375 C19.10606855 5.83394909 23.44051878 1.96691513 28.8125 -0.0625 C33.64902709 0.03233386 38.28058407 0.98389799 43 2 C40.54774487 4.55234718 38.13079636 6.31418658 35 8 C34.34 8 33.68 8 33 8 C33 8.66 33 9.32 33 10 C31.948125 10.721875 30.89625 11.44375 29.8125 12.1875 C22.75816442 17.07017895 19.58700632 24.41386322 16 32 C15.34 32 14.68 32 14 32 C13.87625 31.360625 13.7525 30.72125 13.625 30.0625 C13.41875 29.381875 13.2125 28.70125 13 28 C12.34 27.67 11.68 27.34 11 27 C11 26.01 11 25.02 11 24 C10.34 23.67 9.68 23.34 9 23 C7.63636792 21.02053408 6.30581356 19.0180755 5 17 C4.47535156 16.37867187 3.95070313 15.75734375 3.41015625 15.1171875 C1.72915067 12.59335086 1.54724266 10.94268108 1.375 7.9375 C1.18843128 4.98349519 0.94474484 2.83423453 0 0 Z " fill="#C4C2C3" transform="translate(17,32)"/>
<path d="M0 0 C5.7502612 1.74250339 10.19988641 5.47814275 13.65625 10.3203125 C15.1746203 13.34822537 15.59407879 15.69570192 15.875 19.0625 C16.02582031 20.59583984 16.02582031 20.59583984 16.1796875 22.16015625 C15.97364298 25.41655547 15.18365273 26.6409762 13 29 C12.34 28.34 11.68 27.68 11 27 C11 26.01 11 25.02 11 24 C10.34 23.67 9.68 23.34 9 23 C7.63636792 21.02053408 6.30581356 19.0180755 5 17 C4.47535156 16.37867187 3.95070313 15.75734375 3.41015625 15.1171875 C1.72915067 12.59335086 1.54724266 10.94268108 1.375 7.9375 C1.18843128 4.98349519 0.94474484 2.83423453 0 0 Z " fill="#DBDADA" transform="translate(17,32)"/>
<path d="M0 0 C4 0 4 0 6.8125 2.25 C9 5 9 5 9.0625 7 C7.6307903 9.69498297 6.13179089 11.8073008 4 14 C0 14 0 14 -2.8125 11.75 C-5 9 -5 9 -5.0625 7 C-3.6307903 4.30501703 -2.13179089 2.1926992 0 0 Z " fill="#ACAAAA" transform="translate(30,25)"/>
<path d="M0 0 C3.63 0.33 7.26 0.66 11 1 C11 1.99 11 2.98 11 4 C11.66 4 12.32 4 13 4 C15.125 8.625 15.125 8.625 14 12 C9 9 4 6 -1 3 C-0.67 2.01 -0.34 1.02 0 0 Z " fill="#B6B4B4" transform="translate(1,30)"/>
<path d="M0 0 C4.63590392 1.46396966 4.63590392 1.46396966 6.125 3.65625 C7.26452835 6.70855809 7.43014876 9.50247938 7.625 12.75 C7.69976563 13.92046875 7.77453125 15.0909375 7.8515625 16.296875 C7.90054687 17.18890625 7.94953125 18.0809375 8 19 C1.88643533 12.88643533 1.88643533 12.88643533 1.5 8.125 C1.25720584 5.15077151 0.94974929 2.84924786 0 0 Z " fill="#D4D3D3" transform="translate(17,32)"/>
<path d="M0 0 C0.66 0 1.32 0 2 0 C2 4.62 2 9.24 2 14 C0 14 0 14 -2.6875 11.75 C-5 9 -5 9 -5.0625 7 C-3.6562237 4.35289168 -2.02410815 2.20811798 0 0 Z " fill="#C2C0C1" transform="translate(30,25)"/>
<path d="M0 0 C1.75282525 2.68079156 2.01311136 3.86888639 1.6875 7.125 C1 10 1 10 0 12 C-0.66 12 -1.32 12 -2 12 C-3.37058195 7.88825414 -2.75640862 5.26339405 -2 1 C-1.34 0.67 -0.68 0.34 0 0 Z " fill="#B2B0B1" transform="translate(33,52)"/>
<path d="M0 0 C2.97 0.495 2.97 0.495 6 1 C6.66 2.98 7.32 4.96 8 7 C4.59687262 5.94124926 1.98646769 4.99097846 -1 3 C-0.67 2.01 -0.34 1.02 0 0 Z " fill="#9E9C9D" transform="translate(1,30)"/>
<path d="M0 0 C0.33 0 0.66 0 1 0 C1 2.31 1 4.62 1 7 C-0.32 6.67 -1.64 6.34 -3 6 C-2.42655063 3.13275314 -2.1385485 2.1385485 0 0 Z " fill="#D6D4D5" transform="translate(28,28)"/>
<path d="" fill="#ADADAD" transform="translate(0,0)"/>
<path d="" fill="#D1CFD0" transform="translate(0,0)"/>
<path d="" fill="#A1A1A1" transform="translate(0,0)"/>
<path d="" fill="#989697" transform="translate(0,0)"/>
<path d="" fill="#B8B6B7" transform="translate(0,0)"/>
<path d="" fill="#BDBBBC" transform="translate(0,0)"/>
<path d="" fill="#ACAAAB" transform="translate(0,0)"/>
<path d="" fill="#B9B7B8" transform="translate(0,0)"/>
<path d="" fill="#B6B4B5" transform="translate(0,0)"/>
<path d="" fill="#B8B6B7" transform="translate(0,0)"/>
<path d="" fill="#AFADAE" transform="translate(0,0)"/>
<path d="" fill="#ADABAC" transform="translate(0,0)"/>
</svg>
