<?xml version="1.0" encoding="UTF-8"?>
<svg version="1.1" xmlns="http://www.w3.org/2000/svg" width="64" height="61">
<path d="M0 0 C21.12 0 42.24 0 64 0 C64 20.13 64 40.26 64 61 C42.88 61 21.76 61 0 61 C0 40.87 0 20.74 0 0 Z " fill="#010101" transform="translate(0,0)"/>
<path d="M0 0 C0.8353125 0.433125 0.8353125 0.433125 1.6875 0.875 C4.1013726 2.0493164 6.45872032 3.13061485 9 4 C9.66 3.67 10.32 3.34 11 3 C12.74780082 2.90289995 14.49951057 2.87021724 16.25 2.875 C17.23613281 2.87757812 18.22226562 2.88015625 19.23828125 2.8828125 C22 3 22 3 25.4375 3.75 C28.17592461 4.32085526 28.17592461 4.32085526 30.375 2.0625 C30.91125 1.381875 31.4475 0.70125 32 0 C35.16115776 1.36983503 35.9927092 1.9890638 38 5 C36.35 6.65 34.7 8.3 33 10 C33.495 11.2065625 33.495 11.2065625 34 12.4375 C35.69466161 18.47473199 35.93856542 24.30652951 33 30 C34.65 31.65 36.3 33.3 38 35 C36.95125002 37.62187494 36.35068687 38.79371361 33.875 40.25 C33.25625 40.4975 32.6375 40.745 32 41 C29.03 38.525 29.03 38.525 26 36 C25.44183594 36.32484375 24.88367188 36.6496875 24.30859375 36.984375 C19.48631406 39.10585168 13.79979643 38.57593486 8.875 37 C8.25625 36.67 7.6375 36.34 7 36 C4.525 38.475 4.525 38.475 2 41 C-0.62187494 39.95125002 -1.79371361 39.35068687 -3.25 36.875 C-3.4975 36.25625 -3.745 35.6375 -4 35 C-2.35 33.02 -0.7 31.04 1 29 C0.67515625 28.43023437 0.3503125 27.86046875 0.015625 27.2734375 C-2.11522247 22.50361739 -1.37722929 17.34387935 0 12.4375 C0.33 11.633125 0.66 10.82875 1 10 C-0.65 8.68 -2.3 7.36 -4 6 C-2.84826645 3.53199953 -1.95216435 1.95216435 0 0 Z " fill="#F5F5F5" transform="translate(15,10)"/>
<path d="M0 0 C3.02508145 1.73602105 5.41790069 3.83580137 7 7 C7.44408691 10.9079648 7.13704844 12.74548146 5.25 16.25 C2.2772789 19.88332579 0.72224085 20.77535989 -3.875 21.375 C-7.87153796 20.89541545 -9.90459308 19.53260567 -13 17 C-15.34965355 13.79592697 -15.54561533 10.89725235 -15 7 C-11.22902374 0.95802688 -7.10881611 -1.21337863 0 0 Z " fill="#080808" transform="translate(36,20)"/>
</svg>
