<?xml version="1.0" encoding="utf-8"?>
<!-- Generator: Adobe Illustrator 28.0.0, SVG Export Plug-In . SVG Version: 6.00 Build 0)  -->
<svg version="1.1" id="Layer_1" xmlns="http://www.w3.org/2000/svg" xmlns:xlink="http://www.w3.org/1999/xlink" x="0px" y="0px"
	 viewBox="0 0 500 500" style="enable-background:new 0 0 500 500;" xml:space="preserve">
<style type="text/css">
	.st0{fill:#FD0024;}
	.st1{fill:#FFFFFF;}
</style>
<circle class="st0" cx="249.2" cy="250" r="250"/>
<path class="st1" d="M366.9,240.7h-96.1l100.4-100.4c3.7-3.7,3.7-9.6,0-13.3c-3.7-3.7-9.6-3.7-13.3,0L257.5,227.4v-93.8
	c0-5.2-4.2-9.4-9.4-9.4c-5.2,0-9.4,4.2-9.4,9.4v92.7l-63.9-63.9c-3.7-3.7-9.6-3.7-13.3,0c-3.7,3.7-3.7,9.6,0,13.3l65.1,65.1h-93.2
	c-5.2,0-9.4,4.2-9.4,9.4c0,5.2,4.2,9.4,9.4,9.4h92L125.1,359.8c-3.7,3.7-3.7,9.6,0,13.3c1.8,1.8,4.2,2.7,6.6,2.7s4.8-0.9,6.6-2.7
	l100.4-100.4v93.8c0,5.2,4.2,9.4,9.4,9.4c5.2,0,9.4-4.2,9.4-9.4v-94.9l68,68c1.8,1.8,4.2,2.7,6.6,2.7s4.8-0.9,6.6-2.7
	c3.7-3.7,3.7-9.6,0-13.3l-66.9-66.9h95c5.2,0,9.4-4.2,9.4-9.4C376.2,244.8,372,240.7,366.9,240.7z"/>
</svg>
