<?xml version="1.0" encoding="utf-8"?>
<!-- Generator: Adobe Illustrator 28.0.0, SVG Export Plug-In . SVG Version: 6.00 Build 0)  -->
<svg version="1.1" id="Layer_1" xmlns="http://www.w3.org/2000/svg" xmlns:xlink="http://www.w3.org/1999/xlink" x="0px" y="0px"
	 viewBox="0 0 500 500" style="enable-background:new 0 0 500 500;" xml:space="preserve">
<style type="text/css">
	.st0{fill:url(#SVGID_1_);}
	.st1{fill-rule:evenodd;clip-rule:evenodd;fill:#63EDEE;}
</style>
<radialGradient id="SVGID_1_" cx="-2.7673" cy="503.9791" r="7.5266" gradientTransform="matrix(-78.0009 85.4998 78.0176 71.175 -38923.832 -35756.6602)" gradientUnits="userSpaceOnUse">
	<stop  offset="0" style="stop-color:#29E7E8"/>
	<stop  offset="1" style="stop-color:#651FFF"/>
</radialGradient>
<path class="st0" d="M317.7,18.2c-41.9-24.2-93.6-24.2-135.5,0L83.1,75.4c-41.9,24.2-67.7,68.9-67.7,117.3v114.5
	c0,48.4,25.8,93.1,67.7,117.3l99.2,57.3c41.9,24.2,93.6,24.2,135.5,0l99.2-57.3c41.9-24.2,67.7-68.9,67.7-117.3V192.7
	c0-48.4-25.8-93.1-67.7-117.3L317.7,18.2z"/>
<path class="st1" d="M204.8,57.3l-99.2,57.3c-27.9,16.1-45.2,46-45.2,78.2v114.5c0,32.3,17.2,62.1,45.2,78.2l99.2,57.3
	c27.9,16.1,62.4,16.1,90.3,0l99.2-57.3c27.9-16.1,45.2-46,45.2-78.2V192.7c0-32.3-17.2-62.1-45.2-78.2l-99.2-57.3
	C267.2,41.1,232.8,41.1,204.8,57.3z M182.3,18.2c41.9-24.2,93.6-24.2,135.5,0l99.2,57.3c41.9,24.2,67.7,68.9,67.7,117.3v114.5
	c0,48.4-25.8,93.1-67.7,117.3l-99.2,57.3c-41.9,24.2-93.6,24.2-135.5,0l-99.2-57.3c-41.9-24.2-67.7-68.9-67.7-117.3V192.7
	c0-48.4,25.8-93.1,67.7-117.3L182.3,18.2z"/>
<path class="st1" d="M227.5,97.6h43.7v31.5c47.7,7.2,81.9,38.7,87.3,81.2H298c-6-21.1-24.1-34-47.6-34c-34.8,0-55.3,26.9-55.3,73.3
	c0,47.2,22.7,75.8,58,75.8c27.7,0,47.1-16.2,48.8-40.1l0.2-3.6h-44.1V240h103.3v29.2c0,58.6-33.1,96.7-89.9,103.7v29.4h-43.7v-30
	c-59.8-9-95-52.6-95-122c0-68.9,35.6-112.7,95-121.3V97.6z"/>
</svg>
