<?xml version="1.0" encoding="utf-8"?>
<!-- Generator: Adobe Illustrator 28.2.0, SVG Export Plug-In . SVG Version: 6.00 Build 0)  -->
<svg version="1.1" id="Layer_1" xmlns="http://www.w3.org/2000/svg" xmlns:xlink="http://www.w3.org/1999/xlink" x="0px" y="0px"
	 viewBox="0 0 500 500" style="enable-background:new 0 0 500 500;" xml:space="preserve">
<style type="text/css">
	.st0{fill:#FF7700;}
</style>
<path class="st0" d="M110.5,30.2h-59c-7.9,0-15.2,4.2-19.1,11.1L3,92.4c-4,6.8-4,15.3,0,22.1l29.4,51.2c4,6.8,11.2,11.1,19.1,11.1
	h59c7.9,0,15.2-4.2,19.1-11.1l29.5-51.2c4-6.8,4-15.3,0-22.1l-29.5-51.2C125.7,34.4,118.4,30.2,110.5,30.2z"/>
<path class="st0" d="M279.5,30.2h-59c-7.9,0-15.2,4.2-19.1,11.1l-29.5,51.2c-4,6.8-4,15.3,0,22.1l29.5,51.2
	c4,6.8,11.2,11.1,19.1,11.1h59c7.9,0,15.2-4.2,19.1-11.1l29.4-51.2c4-6.8,4-15.3,0-22.1l-29.4-51.2
	C294.7,34.4,287.4,30.2,279.5,30.2z"/>
<path class="st0" d="M448.5,30.2h-59c-7.9,0-15.2,4.2-19.1,11.1l-29.5,51.2c-4,6.8-4,15.3,0,22.1l29.5,51.2
	c4,6.8,11.2,11.1,19.1,11.1h59c7.9,0,15.2-4.2,19.1-11.1l29.4-51.2c4-6.8,4-15.3,0-22.1l-29.4-51.2
	C463.6,34.4,456.4,30.2,448.5,30.2z"/>
<path class="st0" d="M195,176.8h-59c-7.9,0-15.2,4.2-19.1,11.1L87.5,239c-4,6.8-4,15.3,0,22.1l29.4,51.2c4,6.8,11.2,11.1,19.1,11.1
	h59c7.9,0,15.2-4.2,19.1-11.1l29.4-51.2c4-6.8,4-15.3,0-22.1l-29.4-51.2C210.2,181,202.9,176.8,195,176.8z"/>
<path class="st0" d="M364,176.8h-59c-7.9,0-15.2,4.2-19.1,11.1L256.4,239c-4,6.8-4,15.3,0,22.1l29.4,51.2c4,6.8,11.2,11.1,19.1,11.1
	h59c7.9,0,15.2-4.2,19.1-11.1l29.5-51.2c3.9-6.8,3.9-15.3,0-22.1l-29.5-51.2C379.2,181,371.9,176.8,364,176.8z"/>
<path class="st0" d="M279.5,323.2h-59c-7.9,0-15.2,4.2-19.1,11.1l-29.5,51.2c-4,6.8-4,15.3,0,22.1l29.5,51.2
	c4,6.8,11.2,11.1,19.1,11.1h59c7.9,0,15.2-4.2,19.1-11.1l29.4-51.2c4-6.8,4-15.3,0-22.1l-29.4-51.2
	C294.7,327.5,287.4,323.2,279.5,323.2z"/>
</svg>
