<?xml version="1.0" encoding="utf-8"?>
<!-- Generator: Adobe Illustrator 28.2.0, SVG Export Plug-In . SVG Version: 6.00 Build 0)  -->
<svg version="1.1" id="Layer_1" xmlns="http://www.w3.org/2000/svg" xmlns:xlink="http://www.w3.org/1999/xlink" x="0px" y="0px"
	 viewBox="0 0 500 500" style="enable-background:new 0 0 500 500;" xml:space="preserve">
<style type="text/css">
	.st0{fill-rule:evenodd;clip-rule:evenodd;}
</style>
<path class="st0" d="M333.8,382.9c-24.2,15.3-53,24.2-83.8,24.2c-32,0-61.7-9.5-86.5-25.9L97,447.7c42.3,32.8,95.4,52.3,153,52.3
	c56.5,0,108.7-18.8,150.5-50.4L333.8,382.9z M450.5,399.4C481.6,357.7,500,306,500,250c0-57.7-19.5-110.7-52.3-153l-66.6,66.6
	c16.4,24.8,25.9,54.5,25.9,86.5c0,30.3-8.6,58.6-23.4,82.6L450.5,399.4z M167.4,116.4c24-14.9,52.3-23.4,82.6-23.4
	c29.1,0,56.4,7.9,79.8,21.8l67-67C355.6,17.7,304.9,0,250,0c-56,0-107.7,18.4-149.4,49.5L167.4,116.4z M117.1,166.2L50.4,99.5
	C18.8,141.3,0,193.5,0,250c0,54.9,17.7,105.6,47.7,146.9l67-67c-13.8-23.4-21.8-50.7-21.8-79.8C92.9,219.2,101.8,190.5,117.1,166.2z
	"/>
</svg>
