<svg width="500" height="500" viewBox="0 0 500 500" fill="none" xmlns="http://www.w3.org/2000/svg">
<path d="M337.844 395.88C325.571 405.269 312.013 412.551 297.542 417.589L296.396 418.002C291.266 419.742 285.451 417.864 282.245 413.376L275.421 403.85C271.528 398.354 266.353 395.469 259.713 394.965C256.69 394.736 253.804 394.644 250.232 394.644C247.072 394.644 244.094 394.873 241.118 395.24C235.118 395.972 230.263 398.904 226.783 403.987L218.815 415.574C215.7 420.108 209.791 422.123 204.525 420.383C191.381 416.078 178.192 408.934 163.032 397.942C160.238 395.926 156.299 396.293 154.284 398.812C152.59 400.919 152.544 403.942 154.101 406.14C162.986 418.734 171.962 431.329 180.71 443.512L196.374 465.403C204.892 477.401 216.158 483.768 230.813 484.913C237.27 485.417 243.454 485.646 249.499 485.646C257.742 485.646 265.666 485.188 273.451 484.225C286.55 482.623 297.083 476.211 304.778 465.128C310.273 457.204 315.815 449.099 321.173 441.268L323.646 437.695C329.646 428.993 335.737 420.063 341.828 411.315C343.522 408.888 345.172 406.461 346.866 404.079C347.645 402.979 348.012 401.697 348.012 400.416C348.012 398.583 347.095 396.888 345.63 395.744C343.478 394.049 340.225 394.14 337.89 395.926L337.844 395.88Z" fill="#BA5400"/>
<path d="M124.209 368.127C111.523 359.379 100.395 348.707 91.1426 336.526L90.4099 335.518C87.1584 331.167 87.1584 325.03 90.4099 320.634L88.6697 319.352L90.8228 320.038L97.3719 311.199C101.356 305.796 102.547 299.979 100.989 293.475C100.303 290.544 99.4779 287.75 98.3335 284.361C97.3259 281.43 96.1803 278.59 94.9439 275.889C92.379 270.393 88.1199 266.729 82.1666 264.942L68.6555 260.958C63.3428 259.401 59.6335 254.409 59.6795 248.822C59.6795 235.037 62.4273 220.289 68.2437 202.428C69.2973 199.131 67.7399 195.513 64.7173 194.414C62.1984 193.452 59.3126 194.322 57.7104 196.475C48.3215 209.023 38.9786 221.71 29.9567 233.937L29.5897 234.396C24.552 241.265 19.4682 248.135 14.3844 254.959C5.63733 266.775 3.02642 279.461 6.46202 293.704C10.0805 308.588 14.5685 321.778 20.2469 334.053C25.7884 346.052 35.1773 354.066 48.0926 357.959C57.3435 360.707 66.7324 363.501 75.8464 366.203L79.19 367.21C89.5852 370.279 100.257 373.439 110.699 376.599L111.34 374.538L111.203 376.736C113.859 377.561 116.561 378.339 119.171 379.164C119.767 379.347 120.408 379.439 121.049 379.439C121.736 379.439 122.377 379.347 123.019 379.118C124.759 378.522 126.087 377.149 126.774 375.409C127.689 372.844 126.637 369.775 124.209 368.127Z" fill="#BA5400"/>
<path d="M163.233 100.077C167.677 95.9544 169.829 90.7338 169.692 84.5516L169.325 70.4907C169.188 64.9491 172.76 59.9114 178.073 58.1712C191.171 53.9581 205.964 51.989 224.603 51.989H224.832C228.313 51.989 231.245 49.3781 231.381 46.1265C231.519 43.4248 229.779 40.9507 227.214 40.0812C213.199 35.3183 199.094 30.6015 185.355 26.0215L182.423 25.0587C174.317 22.357 166.256 19.6552 158.15 16.9535C144.182 12.2814 131.313 13.7468 118.855 21.3954C105.803 29.4099 94.6738 37.7912 84.7811 46.9972C75.1185 55.9732 70.3544 67.3772 70.6754 80.8871C70.9042 90.5509 71.1791 100.352 71.408 109.831L71.5 113.588C71.7749 124.35 72.0958 135.341 72.3247 146.241C72.3695 149.218 72.4616 152.15 72.4616 155.08C72.4616 156.409 72.9194 157.691 73.698 158.745C74.7976 160.21 76.5378 161.08 78.3701 161.126H78.5529C81.2087 161.126 83.6827 159.157 84.5062 156.409C88.9494 141.616 95.5893 127.74 104.612 114.778L105.024 114.182C108.184 109.74 114 107.862 119.176 109.602L119.863 107.587V109.831L130.305 113.313C136.671 115.465 142.533 114.778 148.258 111.252C150.823 109.694 153.342 108 156.09 105.939C158.653 104.016 160.943 102.138 163.097 100.077H163.233Z" fill="#BA5400"/>
<path d="M396.006 111.846C404.112 123.021 410.57 136.531 416.341 154.393C417.257 157.186 419.776 159.018 422.431 159.018C422.935 159.018 423.439 158.972 423.943 158.835C426.554 158.103 428.386 155.72 428.386 153.019C428.615 137.951 428.707 122.792 428.844 108.091L429.072 80.1999C429.21 65.4984 423.852 53.6826 412.677 44.2017C401.044 34.2642 389.64 26.2486 377.824 19.6995C366.283 13.2424 353.964 12.2809 341.231 16.7689C332.117 19.9744 322.866 23.2259 313.935 26.4327L310.593 27.6231C300.379 31.2415 289.937 34.9509 279.586 38.5693C276.794 39.5309 274 40.4924 271.252 41.4539C269.97 41.8657 268.916 42.6904 268.137 43.7439C267.084 45.2553 266.809 47.1335 267.313 48.9646C268.091 51.5755 270.61 53.3617 273.541 53.3617H273.725C289.204 52.9948 304.409 55.0559 319.386 59.5899L320.255 59.8648C325.431 61.4682 329.004 66.4599 328.958 71.9094L328.866 83.6344C328.82 90.3663 331.248 95.725 336.376 100.076C338.666 102.045 341.002 103.831 343.842 105.893C346.407 107.679 348.972 109.327 351.582 110.747C356.894 113.678 362.528 114.136 368.344 112.121L381.625 107.404C386.801 105.572 392.754 107.404 396.006 111.938V111.846Z" fill="#BA5400"/>
<path d="M485.83 254.203C479.967 246.555 474.014 238.769 468.198 231.212L463.435 225.03C457.664 217.518 451.802 209.871 446.077 202.314L445.62 201.718C443.97 199.567 442.367 197.413 440.765 195.261C439.986 194.162 438.887 193.429 437.604 193.062C435.864 192.512 433.987 192.833 432.383 193.887C430.139 195.398 429.224 198.513 430.186 201.307C435.314 215.87 438.063 230.984 438.383 246.326V247.562C438.475 252.967 434.856 257.913 429.636 259.608L418.461 263.134C412.05 265.15 407.698 269.134 405.133 275.316C403.989 278.064 402.982 280.813 401.882 284.247C400.966 287.27 400.233 290.2 399.638 293.086C398.492 299.039 399.775 304.536 403.53 309.436L412.094 320.611C415.484 325.007 415.53 331.19 412.232 335.678C404.126 346.853 393.272 357.158 378.066 368.195C375.273 370.256 374.449 374.103 376.235 376.759C377.38 378.499 379.303 379.462 381.318 379.462C381.914 379.462 382.51 379.37 383.104 379.187C398.081 374.561 413.102 369.798 427.621 365.218L428.17 365.035C436.277 362.471 444.428 359.906 452.581 357.341C466.594 352.945 476.167 344.197 481.754 330.641C487.57 316.489 491.692 303.208 494.303 289.925C496.822 276.965 493.982 264.965 485.784 254.249L485.83 254.203Z" fill="#BA5400"/>
</svg>
