<?xml version="1.0" encoding="UTF-8"?>
<svg version="1.1" xmlns="http://www.w3.org/2000/svg" width="64" height="64">
<path d="M0 0 C3.8823434 2.85842865 6.81001839 5.82582748 9.48828125 9.83203125 C9.92011719 10.45207031 10.35195313 11.07210938 10.796875 11.7109375 C14.96558776 19.08191405 14.67540439 28.65530454 13.48828125 36.83203125 C11.04361228 45.02256452 6.57174916 51.09652849 -0.51171875 55.83203125 C-1.13175781 56.26386719 -1.75179687 56.69570313 -2.390625 57.140625 C-9.76160155 61.30933776 -19.33499204 61.01915439 -27.51171875 59.83203125 C-35.70225202 57.38736228 -41.77621599 52.91549916 -46.51171875 45.83203125 C-46.94355469 45.21199219 -47.37539063 44.59195313 -47.8203125 43.953125 C-51.98902526 36.58214845 -51.69884189 27.00875796 -50.51171875 18.83203125 C-48.06704978 10.64149798 -43.59518666 4.56753401 -36.51171875 -0.16796875 C-35.58166016 -0.81572266 -35.58166016 -0.81572266 -34.6328125 -1.4765625 C-24.45608447 -7.2320897 -9.7207284 -5.7410111 0 0 Z " fill="#021D50" transform="translate(50.51171875,4.16796875)"/>
<path d="M0 0 C1.61342975 1.61342975 1.28653648 3.33389983 1.375 5.5625 C1.30238278 11.20243742 -0.22524972 14.83144625 -4 19 C-8.54466532 23.17873123 -13.44673509 23.63115261 -19.46484375 23.3828125 C-23.05108982 22.84128382 -24.79705644 21.8866157 -27 19 C-27.5625 15.9375 -27.5625 15.9375 -27 13 C-25 11.125 -25 11.125 -23 10 C-23 10.99 -23 11.98 -23 13 C-21.68 12.67 -20.36 12.34 -19 12 C-18.67 9.69 -18.34 7.38 -18 5 C-16.35 4.34 -14.7 3.68 -13 3 C-13 5.64 -13 8.28 -13 11 C-11.68 10.67 -10.36 10.34 -9 10 C-8.67 7.03 -8.34 4.06 -8 1 C-5.05549278 0.01849759 -3.06481021 -0.1613058 0 0 Z " fill="#F8F9FA" transform="translate(48,24)"/>
<path d="M0 0 C1.16144531 0.00902344 2.32289062 0.01804687 3.51953125 0.02734375 C4.39996094 0.03894531 5.28039063 0.05054687 6.1875 0.0625 C3.03212963 1.82711471 0.09262993 2.5859825 -3.4375 3.3125 C-10.56638539 5.02483031 -17.6352031 7.79655465 -21.8125 14.0625 C-22.01100603 17.76794587 -21.98914871 20.53255387 -20.8125 24.0625 C-23.68481652 22.77490983 -26.00475634 21.68372831 -27.8125 19.0625 C-28.3262486 15.09929651 -28.37422899 12.91834181 -26.15625 9.5390625 C-23.56337267 6.79925545 -21.26654299 5.43770345 -17.875 3.8125 C-16.85535156 3.31234375 -15.83570313 2.8121875 -14.78515625 2.296875 C-9.75474818 0.20803275 -5.4255263 -0.0548033 0 0 Z " fill="#ECEEF2" transform="translate(40.8125,21.9375)"/>
<path d="M0 0 C5.42317708 3.25390625 5.42317708 3.25390625 6.66796875 6.98828125 C4.35796875 6.65828125 2.04796875 6.32828125 -0.33203125 5.98828125 C-0.33203125 5.32828125 -0.33203125 4.66828125 -0.33203125 3.98828125 C-1.65203125 3.98828125 -2.97203125 3.98828125 -4.33203125 3.98828125 C-4.33203125 4.64828125 -4.33203125 5.30828125 -4.33203125 5.98828125 C-5.23695312 5.91867188 -5.23695312 5.91867188 -6.16015625 5.84765625 C-11.34391051 5.45981849 -11.34391051 5.45981849 -15.64453125 7.98828125 C-16.20140625 8.64828125 -16.75828125 9.30828125 -17.33203125 9.98828125 C-18.65203125 9.98828125 -19.97203125 9.98828125 -21.33203125 9.98828125 C-21.10784186 6.06496691 -20.37251033 5.02700037 -17.45703125 2.23828125 C-12.19446886 -1.55076367 -6.07962263 -2.63755823 0 0 Z " fill="#EDEFF3" transform="translate(39.33203125,14.01171875)"/>
<path d="M0 0 C-0.99 0.33 -1.98 0.66 -3 1 C-3 3.97 -3 6.94 -3 10 C-4.65 10.33 -6.3 10.66 -8 11 C-8.33 8.69 -8.66 6.38 -9 4 C-10.32 4.33 -11.64 4.66 -13 5 C-13 7.31 -13 9.62 -13 12 C-14.65 12.33 -16.3 12.66 -18 13 C-18.33 12.34 -18.66 11.68 -19 11 C-21.475 12.485 -21.475 12.485 -24 14 C-24.33 13.34 -24.66 12.68 -25 12 C-22.09766374 7.88777417 -19.47552316 5.88686344 -14.9375 3.75 C-13.89464844 3.24984375 -12.85179687 2.7496875 -11.77734375 2.234375 C-7.59285738 0.37460328 -4.5567603 -0.10126134 0 0 Z " fill="#253D6B" transform="translate(43,24)"/>
<path d="M0 0 C1.32 0 2.64 0 4 0 C4 0.66 4 1.32 4 2 C6.64 2 9.28 2 12 2 C12 2.66 12 3.32 12 4 C10.78183594 4.12117188 9.56367187 4.24234375 8.30859375 4.3671875 C6.68486171 4.53613072 5.06116565 4.70541996 3.4375 4.875 C2.63763672 4.95363281 1.83777344 5.03226563 1.01367188 5.11328125 C-3.86835763 5.63137418 -8.32170807 6.50545842 -13 8 C-13 5 -13 5 -11.5625 2.75 C-8.08051257 0.37205737 -5.86529467 0.9894686 -1.828125 1.640625 C-0.92320313 1.81851562 -0.92320313 1.81851562 0 2 C0 1.34 0 0.68 0 0 Z " fill="#233C6D" transform="translate(35,18)"/>
<path d="M0 0 C1.4540625 0.0309375 1.4540625 0.0309375 2.9375 0.0625 C1.9475 0.3925 0.9575 0.7225 -0.0625 1.0625 C-0.0625 4.0325 -0.0625 7.0025 -0.0625 10.0625 C-1.3825 10.0625 -2.7025 10.0625 -4.0625 10.0625 C-4.08939216 8.58343108 -4.10884621 7.10422517 -4.125 5.625 C-4.13660156 4.80128906 -4.14820313 3.97757813 -4.16015625 3.12890625 C-4.00103255 -0.23815127 -3.43619093 0.07012635 0 0 Z " fill="#1E3563" transform="translate(40.0625,23.9375)"/>
</svg>
