<?xml version="1.0" encoding="utf-8"?>
<!-- Generator: Adobe Illustrator 28.1.0, SVG Export Plug-In . SVG Version: 6.00 Build 0)  -->
<svg version="1.1" id="Layer_1" focusable="false" xmlns="http://www.w3.org/2000/svg" xmlns:xlink="http://www.w3.org/1999/xlink"
	 x="0px" y="0px" viewBox="0 0 500 500" style="enable-background:new 0 0 500 500;" xml:space="preserve">
<style type="text/css">
	.st0{fill:url(#SVGID_1_);}
	.st1{fill:url(#SVGID_00000115507523965960625610000017674948270950372996_);}
</style>
<linearGradient id="SVGID_1_" gradientUnits="userSpaceOnUse" x1="5.456968e-12" y1="229.983" x2="500.0199" y2="229.983" gradientTransform="matrix(1 0 0 -1 0 502)">
	<stop  offset="0" style="stop-color:#0082FA"/>
	<stop  offset="1" style="stop-color:#00F2FE"/>
</linearGradient>
<path class="st0" d="M60.6,86.4c3.1-3.9,6.4-7.7,9.7-11.4c0.1-0.2,0.5-0.2,0.6-0.4c0.3-0.4,0.8-0.6,1.1-1l0.3-0.4
	c2.3-2.1,4.7-4.4,7.6-6.4c9.9-7.6,20.3-13.3,31.2-17.1C146,37.4,184.9,45,215.4,73.8c42.6,39.9,38.8,104.2,4.8,147
	c-43,63.7-116.8,152.6-14.6,232.3c18.4,14.3,32,26.1,89.9,42.9c-37.9,7-73,4.8-112-5.2c-27.6-15.6-71.1-49-85.9-94.1
	c-22.4-68.4,39.3-170.7,69.2-210.1c41-54.5-25.3-113.5-74.1-47.6C67.1,173.2,22.6,270.4,38,342.5c9.1,40.9,21.1,70.7,69,111.6
	c-8.9-5.2-17.5-11.2-25.9-17.8C-30.1,332.5-17.1,172.3,60.6,86.4z"/>
<linearGradient id="SVGID_00000078740213109828645070000013776559398736168611_" gradientUnits="userSpaceOnUse" x1="-2.111614e-03" y1="274.017" x2="500.0177" y2="274.017" gradientTransform="matrix(1 0 0 -1 0 502)">
	<stop  offset="0" style="stop-color:#0082FA"/>
	<stop  offset="1" style="stop-color:#00F2FE"/>
</linearGradient>
<path style="fill:url(#SVGID_00000078740213109828645070000013776559398736168611_);" d="M439.4,413.6c-3.1,3.9-6.4,7.7-9.7,11.4
	c-0.1,0.2-0.5,0.2-0.6,0.4c-0.3,0.4-0.8,0.6-1.1,1l-0.3,0.4c-2.3,2.1-4.7,4.4-7.6,6.4c-9.9,7.6-20.3,13.3-31.2,17.1
	c-34.9,12.3-73.8,4.7-104.3-24.1c-42.6-39.9-38.8-104.2-4.8-147c43-63.7,116.8-152.6,14.5-232.3c-18.4-14.3-32-26.1-89.9-42.9
	c37.9-7,73-4.8,112,5.2c27.6,15.6,71.1,49,85.9,94.1c22.4,68.4-39.3,170.7-69.1,210.1c-41,54.5,25.3,113.5,74.1,47.6
	c25.5-34.3,70.1-131.5,54.6-203.6c-9.1-40.9-21.1-70.7-69-111.6c8.9,5.2,17.5,11.2,25.9,17.8C530,167.4,517.1,327.7,439.4,413.6z"/>
</svg>
