<?xml version="1.0" encoding="UTF-8"?>
<svg version="1.1" xmlns="http://www.w3.org/2000/svg" width="64" height="64">
<path d="M0 0 C21.12 0 42.24 0 64 0 C64 21.12 64 42.24 64 64 C42.88 64 21.76 64 0 64 C0 42.88 0 21.76 0 0 Z " fill="#FEFEFE" transform="translate(0,0)"/>
<path d="M0 0 C0 3.80286295 -1.22811425 5.22468614 -3.3125 8.375 C-5.61954279 11.88634814 -7.83594962 15.39324937 -10 19 C-5.71 19.66 -1.42 20.32 3 21 C-0.66698529 24.76276476 -4.49345721 28.22871043 -8.5 31.625 C-9.40226318 32.39408691 -9.40226318 32.39408691 -10.32275391 33.17871094 C-12.21294135 34.78845075 -14.10602299 36.39472127 -16 38 C-16.63260742 38.53657227 -17.26521484 39.07314453 -17.91699219 39.62597656 C-21.60751001 42.75518438 -25.30210364 45.87951603 -29 49 C-29 44.84343914 -26.85687998 42.34097371 -24.625 39 C-24.2125 38.3709375 -23.8 37.741875 -23.375 37.09375 C-21.59705984 34.38669273 -19.79650636 31.69475954 -18 29 C-20.97 28.67 -23.94 28.34 -27 28 C-26.09042211 24.95023885 -25.07031849 21.99532353 -24 19 C-23.61714844 17.74703125 -23.23429687 16.4940625 -22.83984375 15.203125 C-19.4076627 5.28874155 -19.4076627 5.28874155 -15.01318359 2.93652344 C-10.12178217 1.22437382 -5.1398916 0.51456733 0 0 Z " fill="#2FB106" transform="translate(45,7)"/>
<path d="M0 0 C2.36120297 0.25392418 4.7150539 0.57798123 7.0625 0.9375 C8.35285156 1.13214844 9.64320312 1.32679687 10.97265625 1.52734375 C11.97167969 1.68332031 12.97070312 1.83929687 14 2 C10.33301471 5.76276476 6.50654279 9.22871043 2.5 12.625 C1.89849121 13.13772461 1.29698242 13.65044922 0.67724609 14.17871094 C-1.21294135 15.78845075 -3.10602299 17.39472127 -5 19 C-5.94891113 19.8048584 -5.94891113 19.8048584 -6.91699219 20.62597656 C-10.60751001 23.75518438 -14.30210364 26.87951603 -18 30 C-18 26.0182577 -16.1367014 23.76019312 -14 20.5625 C-13.59716797 19.94866455 -13.19433594 19.3348291 -12.77929688 18.70239258 C-11.52623852 16.79706734 -10.26360125 14.89834504 -9 13 C-8.21833918 11.81537514 -7.43707277 10.63048991 -6.65625 9.4453125 C-1.19680851 1.19680851 -1.19680851 1.19680851 0 0 Z " fill="#0677E0" transform="translate(34,26)"/>
<path d="M0 0 C4.62 0.66 9.24 1.32 14 2 C10.83648952 4.10900699 8.11959156 5.0584157 4.5 6.1875 C3.3553125 6.55230469 2.210625 6.91710938 1.03125 7.29296875 C-2 8 -2 8 -5 7 C-3.35 4.69 -1.7 2.38 0 0 Z " fill="#043AC9" transform="translate(34,26)"/>
</svg>
