<?xml version="1.0" encoding="UTF-8"?>
<svg version="1.1" xmlns="http://www.w3.org/2000/svg" width="64" height="64">
<path d="M0 0 C1.98 0 3.96 0 6 0 C6 0.66 6 1.32 6 2 C6.85980469 2.25652344 7.71960938 2.51304688 8.60546875 2.77734375 C12.13245973 4.04770989 15.09638695 5.64404651 18.3125 7.5625 C19.36050781 8.18253906 20.40851562 8.80257813 21.48828125 9.44140625 C24 11 24 11 25 12 C26.31496621 22.34265915 26.21862284 33.15237518 26 43.5625 C26.00725098 44.35253418 26.01450195 45.14256836 26.02197266 45.95654297 C25.90856051 48.95704808 25.75681833 51.29790021 23.48046875 53.40966797 C20.59008871 55.15074163 18.38331524 56 15 56 C14.67 56.99 14.34 57.98 14 59 C10.20092162 61.33125264 7.44122291 62.47103879 3 62 C0.59070734 60.57670211 -1.51014739 58.92962148 -3.71875 57.21484375 C-6.62061017 55.66950383 -7.89130765 56.19759402 -11 57 C-11.99 56.67 -12.98 56.34 -14 56 C-14 55.34 -14 54.68 -14 54 C-15.32 53.67 -16.64 53.34 -18 53 C-19.34371886 45.99140924 -19.37054796 38.97746119 -19.45996094 31.8684082 C-19.48668805 30.24571409 -19.52774468 28.62319373 -19.58300781 27.0012207 C-19.66215589 24.64465818 -19.69524359 22.29128988 -19.71875 19.93359375 C-19.75174194 19.21264023 -19.78473389 18.49168671 -19.81872559 17.74888611 C-19.80700566 14.79181382 -19.60809985 12.6260077 -17.50048828 10.45632935 C-15.71594307 9.16007251 -13.93750817 8.05151452 -12 7 C-10.989375 6.443125 -9.97875 5.88625 -8.9375 5.3125 C-6.00224313 4.00100225 -3.06976826 2.95016637 0 2 C0 1.34 0 0.68 0 0 Z " fill="#DA5B54" transform="translate(29,1)"/>
<path d="M0 0 C0.73822998 0.29535645 1.47645996 0.59071289 2.23706055 0.89501953 C3.86474685 1.54597899 5.49434606 2.19224884 7.12817383 2.82763672 C12.55114299 5.05032167 18.17084203 7.42667603 22 12 C24.07458987 18.43071123 23.05535014 25.43868286 22 32 C14.38713592 25.69720874 14.38713592 25.69720874 13 23 C12.76420932 20.28054748 12.86300854 17.73982911 13 15 C12.01 15 11.02 15 10 15 C10.33 15.33 10.66 15.66 11 16 C11.12181641 17.56814453 11.12181641 17.56814453 11.24609375 19.16796875 C12.12877924 23.6545722 14.04522804 26.06281094 17.0625 29.3125 C22 34.78888131 22 34.78888131 22 37 C22.77085938 36.91621094 23.54171875 36.83242188 24.3359375 36.74609375 C25.84027344 36.59333984 25.84027344 36.59333984 27.375 36.4375 C28.87160156 36.28087891 28.87160156 36.28087891 30.3984375 36.12109375 C33 36 33 36 35 37 C35.25523438 36.40703125 35.51046875 35.8140625 35.7734375 35.203125 C37.77402377 31.60971528 40.83095119 29.58218792 44 27 C44 31.29 44 35.58 44 40 C37.375 44 37.375 44 34 44 C33.67 44.99 33.34 45.98 33 47 C29.20092162 49.33125264 26.44122291 50.47103879 22 50 C19.59070734 48.57670211 17.48985261 46.92962148 15.28125 45.21484375 C12.37938983 43.66950383 11.10869235 44.19759402 8 45 C7.01 44.67 6.02 44.34 5 44 C5 43.34 5 42.68 5 42 C3.68 41.67 2.36 41.34 1 41 C0.05135075 36.22721102 -0.13171421 31.60534023 -0.09765625 26.7578125 C-0.0962413 25.98944061 -0.09482635 25.22106873 -0.09336853 24.42941284 C-0.08780683 21.99456761 -0.0752616 19.55981706 -0.0625 17.125 C-0.05748004 15.46614717 -0.05291801 13.80729288 -0.04882812 12.1484375 C-0.03784998 8.0989223 -0.02061206 4.04947716 0 0 Z " fill="#C45460" transform="translate(10,13)"/>
<path d="M0 0 C1.98 0 3.96 0 6 0 C6 0.66 6 1.32 6 2 C6.85851562 2.25523438 7.71703125 2.51046875 8.6015625 2.7734375 C12.15732514 4.05678172 15.13692247 5.68215348 18.375 7.625 C19.43460938 8.25664062 20.49421875 8.88828125 21.5859375 9.5390625 C22.38257813 10.02117188 23.17921875 10.50328125 24 11 C20.52729316 14.93392572 16.51692782 17.2717281 12 19.8125 C11.2884375 20.23208984 10.576875 20.65167969 9.84375 21.08398438 C9.1528125 21.47521484 8.461875 21.86644531 7.75 22.26953125 C7.12609375 22.62635986 6.5021875 22.98318848 5.859375 23.35083008 C3.46142418 24.18803481 2.36635899 23.87095951 0 23 C-3.00513131 21.53239467 -5.86462517 19.81411661 -8.75 18.125 C-9.54277344 17.67769531 -10.33554687 17.23039062 -11.15234375 16.76953125 C-11.90128906 16.33253906 -12.65023438 15.89554688 -13.421875 15.4453125 C-14.45199707 14.85000732 -14.45199707 14.85000732 -15.50292969 14.24267578 C-15.99696289 13.83259277 -16.49099609 13.42250977 -17 13 C-17 12.01 -17 11.02 -17 10 C-5.47835991 3.48063781 -5.47835991 3.48063781 0 2 C0 1.34 0 0.68 0 0 Z " fill="#F2706A" transform="translate(29,1)"/>
<path d="M0 0 C2.475 0.99 2.475 0.99 5 2 C5.70229736 2.27312012 6.40459473 2.54624023 7.12817383 2.82763672 C12.55114299 5.05032167 18.17084203 7.42667603 22 12 C24.07458987 18.43071123 23.05535014 25.43868286 22 32 C14.38713592 25.69720874 14.38713592 25.69720874 13 23 C12.76420932 20.28054748 12.86300854 17.73982911 13 15 C12.01 15 11.02 15 10 15 C10.33 15.33 10.66 15.66 11 16 C11.07089844 17.02222656 11.14179688 18.04445313 11.21484375 19.09765625 C12.21160732 24.05171994 14.35573287 26.65423541 17.5625 30.4375 C18.34270508 31.39172852 18.34270508 31.39172852 19.13867188 32.36523438 C20.41327806 33.9204878 21.70495013 35.46172825 23 37 C19.01536179 37 16.58277469 35.17290766 13.3125 33.125 C12.70599609 32.76019531 12.09949219 32.39539062 11.47460938 32.01953125 C9.94440826 31.07283765 8.46689185 30.04210006 7 29 C7 28.34 7 27.68 7 27 C6.01 27 5.02 27 4 27 C4 26.34 4 25.68 4 25 C2.68 24.67 1.36 24.34 0 24 C0 16.08 0 8.16 0 0 Z " fill="#A24741" transform="translate(10,13)"/>
<path d="M0 0 C6.78648844 2.61018786 6.78648844 2.61018786 10 5 C10.72265625 7.06640625 10.72265625 7.06640625 10.9375 9.4375 C11.67627631 17.44292857 17.95951475 23.15033986 23 29 C19.01536179 29 16.58277469 27.17290766 13.3125 25.125 C12.70599609 24.76019531 12.09949219 24.39539063 11.47460938 24.01953125 C9.94440826 23.07283765 8.46689185 22.04210006 7 21 C7 20.34 7 19.68 7 19 C6.01 19 5.02 19 4 19 C4 18.34 4 17.68 4 17 C2.68 16.67 1.36 16.34 0 16 C0 10.72 0 5.44 0 0 Z " fill="#876A58" transform="translate(10,21)"/>
<path d="M0 0 C0.33 0 0.66 0 1 0 C1 4.29 1 8.58 1 13 C-5.625 17 -5.625 17 -9 17 C-9.33 17.99 -9.66 18.98 -10 20 C-13.80861764 22.33710628 -16.55169512 23.44817508 -21 23 C-23.45703125 21.7578125 -23.45703125 21.7578125 -25.8125 20.125 C-26.60269531 19.59132813 -27.39289062 19.05765625 -28.20703125 18.5078125 C-28.79871094 18.01023437 -29.39039062 17.51265625 -30 17 C-30 16.34 -30 15.68 -30 15 C-28.25 14.375 -28.25 14.375 -26 14 C-24.66666667 14.66666667 -23.33333333 15.33333333 -22 16 C-13.19456375 14.53551692 -7.32755481 8.6852696 -2 2 C-1.34 1.34 -0.68 0.68 0 0 Z " fill="#3A1924" transform="translate(53,40)"/>
<path d="M0 0 C1.32 0.33 2.64 0.66 4 1 C4.020625 2.155 4.04125 3.31 4.0625 4.5 C4.62045401 9.39953369 7.12508335 11.92312242 10.50390625 15.3359375 C12 17 12 17 12 19 C12.62044189 18.63648437 13.24088379 18.27296875 13.88012695 17.8984375 C16.68705107 16.25889744 19.4996546 14.62935859 22.3125 13 C23.77719727 12.14148438 23.77719727 12.14148438 25.27148438 11.265625 C26.20927734 10.72421875 27.14707031 10.1828125 28.11328125 9.625 C28.97735596 9.12226562 29.84143066 8.61953125 30.73168945 8.1015625 C33 7 33 7 36 7 C36 10.4419728 35.44055168 12.48728899 33.1875 15.109375 C31.74983755 16.5162304 30.29176876 17.9025845 28.8125 19.265625 C26.91771977 20.88369203 26.91771977 20.88369203 26 23 C24.07421875 23.44921875 24.07421875 23.44921875 21.6875 23.6875 C20.90761719 23.77386719 20.12773438 23.86023438 19.32421875 23.94921875 C16.85356314 24.00319946 15.28407116 23.95548793 13 23 C10.96484375 20.85546875 10.96484375 20.85546875 8.9375 18.1875 C7.93009766 16.87845703 7.93009766 16.87845703 6.90234375 15.54296875 C6.27457031 14.70378906 5.64679687 13.86460938 5 13 C4.43667969 12.30777344 3.87335937 11.61554687 3.29296875 10.90234375 C1.39699624 8.11280111 1.36714537 5.30430833 1 2 C0.67 1.34 0.34 0.68 0 0 Z " fill="#D5D4D4" transform="translate(19,27)"/>
<path d="M0 0 C0.66 0 1.32 0 2 0 C2 1.65 2 3.3 2 5 C-1.45085775 7.03381096 -4.91179696 9.04979434 -8.375 11.0625 C-9.35984375 11.64322266 -10.3446875 12.22394531 -11.359375 12.82226562 C-12.30039062 13.36689453 -13.24140625 13.91152344 -14.2109375 14.47265625 C-15.08024902 14.98062744 -15.94956055 15.48859863 -16.84521484 16.01196289 C-17.55629395 16.33801514 -18.26737305 16.66406738 -19 17 C-19.66 16.67 -20.32 16.34 -21 16 C-20.67 12.04 -20.34 8.08 -20 4 C-18.02 3.34 -16.04 2.68 -14 2 C-12.68 3.32 -11.36 4.64 -10 6 C-10.66 6 -11.32 6 -12 6 C-11.67 6.99 -11.34 7.98 -11 9 C-10.401875 8.195625 -9.80375 7.39125 -9.1875 6.5625 C-7 4 -7 4 -4 3 C-3.01 3.33 -2.02 3.66 -1 4 C-0.67 2.68 -0.34 1.36 0 0 Z " fill="#BC957F" transform="translate(52,29)"/>
<path d="M0 0 C0 4.29 0 8.58 0 13 C-6.75 17 -6.75 17 -9 17 C-9.52316634 13.86100195 -9.6505552 11.1274839 -9 8 C-3.12807882 0 -3.12807882 0 0 0 Z " fill="#3E1A27" transform="translate(54,40)"/>
<path d="M0 0 C0.66 0.33 1.32 0.66 2 1 C2.09152344 2.02222656 2.18304687 3.04445313 2.27734375 4.09765625 C3.20092897 9.08501645 5.34717208 11.6441356 8.5625 15.4375 C9.08263672 16.07365234 9.60277344 16.70980469 10.13867188 17.36523438 C11.41327806 18.9204878 12.70495013 20.46172825 14 22 C9.9883804 22 7.57906142 20.09512932 4.3125 18 C3.70599609 17.6184375 3.09949219 17.236875 2.47460938 16.84375 C0.97928801 15.90181528 -0.51086593 14.95168625 -2 14 C-1.34 9.38 -0.68 4.76 0 0 Z " fill="#898888" transform="translate(19,28)"/>
<path d="M0 0 C0 1.65 0 3.3 0 5 C-1.24735567 5.6509259 -2.49801832 6.29551669 -3.75 6.9375 C-4.44609375 7.29714844 -5.1421875 7.65679688 -5.859375 8.02734375 C-7.94443676 8.9747532 -9.7340329 9.66567699 -12 10 C-14.75 8.5625 -14.75 8.5625 -17 7 C-11.54063149 1.07268562 -8.0382169 -0.31522419 0 0 Z " fill="#EF736B" transform="translate(54,21)"/>
<path d="M0 0 C1.32 0.33 2.64 0.66 4 1 C4 1.66 4 2.32 4 3 C4.99 3 5.98 3 7 3 C8.5625 4.375 8.5625 4.375 10 6 C10.66 6.66 11.32 7.32 12 8 C6.46153846 12.76923077 6.46153846 12.76923077 3 13 C2.01 12.34 1.02 11.68 0 11 C-0.29296875 8.3984375 -0.29296875 8.3984375 -0.1875 5.375 C-0.16042969 4.37210938 -0.13335937 3.36921875 -0.10546875 2.3359375 C-0.07066406 1.56507812 -0.03585937 0.79421875 0 0 Z " fill="#AD4159" transform="translate(10,37)"/>
<path d="M0 0 C3.10343799 1.20689255 6.01193893 2.50596946 9 4 C9 7.96 9 11.92 9 16 C1.65306122 10.12244898 1.65306122 10.12244898 0 7 C-0.1875 3.25 -0.1875 3.25 0 0 Z " fill="#886B59" transform="translate(23,29)"/>
<path d="M0 0 C1.32 0.33 2.64 0.66 4 1 C4.020625 2.155 4.04125 3.31 4.0625 4.5 C4.62045401 9.39953369 7.12508335 11.92312242 10.50390625 15.3359375 C12 17 12 17 12 19 C12.62044189 18.63124756 13.24088379 18.26249512 13.88012695 17.88256836 C16.68479937 16.22360318 19.4984075 14.58043072 22.3125 12.9375 C23.28896484 12.35677734 24.26542969 11.77605469 25.27148438 11.17773438 C26.20927734 10.63310547 27.14707031 10.08847656 28.11328125 9.52734375 C28.97735596 9.01937256 29.84143066 8.51140137 30.73168945 7.98803711 C33 7 33 7 36 8 C32.43234179 10.23446192 28.84375877 12.43280715 25.25 14.625 C24.23421875 15.26179688 23.2184375 15.89859375 22.171875 16.5546875 C21.1921875 17.14765625 20.2125 17.740625 19.203125 18.3515625 C18.30239258 18.90666504 17.40166016 19.46176758 16.47363281 20.03369141 C14 21 14 21 11.80639648 20.29907227 C7.39086481 17.1236372 3.00215551 12.05657432 1.296875 6.85546875 C1.0625 5 1.0625 5 1 2 C0.67 1.34 0.34 0.68 0 0 Z " fill="#FAF9F9" transform="translate(19,27)"/>
<path d="M0 0 C0.33 1.32 0.66 2.64 1 4 C0.01 4.33 -0.98 4.66 -2 5 C-2.33 5.99 -2.66 6.98 -3 8 C-6 9 -6 9 -9 9 C-11.68767578 11.43750025 -11.68767578 11.43750025 -14 14 C-13.67 12.35 -13.34 10.7 -13 9 C-14.32 8.01 -15.64 7.02 -17 6 C-16.67 5.01 -16.34 4.02 -16 3 C-15.13375 3.5259375 -15.13375 3.5259375 -14.25 4.0625 C-11.52750185 5.19687423 -10.75306948 4.89069895 -8 4 C-6.56637928 3.34859204 -5.14898188 2.6603073 -3.75 1.9375 C-2.69039062 1.39416016 -2.69039062 1.39416016 -1.609375 0.83984375 C-1.07828125 0.56269531 -0.5471875 0.28554688 0 0 Z " fill="#BF524D" transform="translate(54,25)"/>
<path d="M0 0 C3.3 0 6.6 0 10 0 C10 0.66 10 1.32 10 2 C10.99 2.33 11.98 2.66 13 3 C12.34 3.66 11.68 4.32 11 5 C10.34 5 9.68 5 9 5 C8.34 6.32 7.68 7.64 7 9 C6.01 8.67 5.02 8.34 4 8 C4 7.34 4 6.68 4 6 C2.68 5.67 1.36 5.34 0 5 C0 3.35 0 1.7 0 0 Z " fill="#8A6C5F" transform="translate(11,49)"/>
<path d="M0 0 C2.375 1 2.375 1 3.8125 3.3125 C4.375 6 4.375 6 3.875 8.125 C1.79901084 10.71998646 -0.61458806 11.69112524 -3.625 13 C-3.625 11.35 -3.625 9.7 -3.625 8 C-2.635 7.67 -1.645 7.34 -0.625 7 C-2.605 5.68 -4.585 4.36 -6.625 3 C-4.31110139 0.85750129 -3.20911027 0 0 0 Z " fill="#D6665C" transform="translate(22.625,45)"/>
<path d="M0 0 C0.66 0 1.32 0 2 0 C2.3671875 2.2578125 2.3671875 2.2578125 2 5 C-0.5546875 7.0546875 -0.5546875 7.0546875 -3.875 8.875 C-4.96554688 9.49117187 -6.05609375 10.10734375 -7.1796875 10.7421875 C-8.11039063 11.15726563 -9.04109375 11.57234375 -10 12 C-10.66 11.67 -11.32 11.34 -12 11 C-11.23883449 9.84772177 -10.46567307 8.7033614 -9.6875 7.5625 C-9.04361328 6.60537109 -9.04361328 6.60537109 -8.38671875 5.62890625 C-7 4 -7 4 -4 3 C-3.01 3.33 -2.02 3.66 -1 4 C-0.67 2.68 -0.34 1.36 0 0 Z " fill="#CCAE9C" transform="translate(52,29)"/>
<path d="M0 0 C1.36511719 0.43119141 1.36511719 0.43119141 2.7578125 0.87109375 C3.45648438 1.09925781 4.15515625 1.32742187 4.875 1.5625 C4.875 3.5425 4.875 5.5225 4.875 7.5625 C1.71048038 6.92817062 -0.64187779 5.83067072 -3.375 4.125 C-4.08140625 3.69316406 -4.7878125 3.26132812 -5.515625 2.81640625 C-6.04671875 2.40261719 -6.5778125 1.98882812 -7.125 1.5625 C-7.125 0.9025 -7.125 0.2425 -7.125 -0.4375 C-4.30685434 -1.84657283 -2.95222796 -0.94622691 0 0 Z " fill="#28121A" transform="translate(30.125,55.4375)"/>
<path d="M0 0 C4.875 1.875 4.875 1.875 6 3 C6.04080783 4.99958364 6.04254356 7.00045254 6 9 C3.0625 7.8125 3.0625 7.8125 0 6 C-0.9375 3.375 -0.9375 3.375 -1 1 C-0.67 0.67 -0.34 0.34 0 0 Z " fill="#9E4254" transform="translate(26,48)"/>
<path d="M0 0 C1.32 0.33 2.64 0.66 4 1 C4.04125 2.155 4.0825 3.31 4.125 4.5 C4.7370078 9.7726826 7.60254551 13.09344683 11 17 C10.34 17.33 9.68 17.66 9 18 C4.44556383 12.7558581 1.28785199 9.05237365 1 2 C0.67 1.34 0.34 0.68 0 0 Z " fill="#F2F2F2" transform="translate(19,27)"/>
<path d="M0 0 C3.29804771 0.56862892 4.80019989 1.50022714 7 4 C7.66 4.66 8.32 5.32 9 6 C6 8 6 8 2 8 C0 2.25 0 2.25 0 0 Z " fill="#BC535D" transform="translate(13,39)"/>
<path d="M0 0 C5.65542388 2.40656335 5.65542388 2.40656335 7.125 4.9375 C7 7 7 7 5.0625 9.25 C4.381875 9.8275 3.70125 10.405 3 11 C3.33 9.35 3.66 7.7 4 6 C3.34 5.566875 2.68 5.13375 2 4.6875 C1.34 4.130625 0.68 3.57375 0 3 C0 2.01 0 1.02 0 0 Z " fill="#874240" transform="translate(37,28)"/>
<path d="M0 0 C0.33 0 0.66 0 1 0 C1 1.98 1 3.96 1 6 C-3.455 7.485 -3.455 7.485 -8 9 C-2.25 2.25 -2.25 2.25 0 0 Z " fill="#C15163" transform="translate(53,40)"/>
<path d="M0 0 C0.66 0.33 1.32 0.66 2 1 C0.86500606 4.29148243 0.00716624 4.9959869 -3.125 6.75 C-4.548125 7.36875 -4.548125 7.36875 -6 8 C-6 6.35 -6 4.7 -6 3 C-5.01 2.67 -4.02 2.34 -3 2 C-2.67 1.67 -2.34 1.34 -2 1 C-1.34 0.67 -0.68 0.34 0 0 Z " fill="#C1907A" transform="translate(25,50)"/>
<path d="M0 0 C0.66 0.99 1.32 1.98 2 3 C2.66 2.67 3.32 2.34 4 2 C4.66 3.32 5.32 4.64 6 6 C4.1875 6.625 4.1875 6.625 2 7 C1.01 6.34 0.02 5.68 -1 5 C-0.67 3.35 -0.34 1.7 0 0 Z " fill="#9C3D57" transform="translate(11,43)"/>
<path d="M0 0 C2.0625 0.4375 2.0625 0.4375 4 1 C3.01 1.495 3.01 1.495 2 2 C1.34444881 4.52733235 1.34444881 4.52733235 1 7 C0.34 7 -0.32 7 -1 7 C-1.04254356 5.00045254 -1.04080783 2.99958364 -1 1 C-0.67 0.67 -0.34 0.34 0 0 Z " fill="#FEFEFE" transform="translate(38,33)"/>
<path d="M0 0 C2 1.375 2 1.375 4 3 C4 3.66 4 4.32 4 5 C2.35 5.66 0.7 6.32 -1 7 C-1.04254356 5.00045254 -1.04080783 2.99958364 -1 1 C-0.67 0.67 -0.34 0.34 0 0 Z " fill="#B4445E" transform="translate(33,50)"/>
<path d="M0 0 C0.66 0 1.32 0 2 0 C2.1875 2.375 2.1875 2.375 2 5 C1.01 5.66 0.02 6.32 -1 7 C-1.99 6.67 -2.98 6.34 -4 6 C-2.7260411 3.96166576 -1.38938077 1.96147874 0 0 Z " fill="#BC957E" transform="translate(52,29)"/>
<path d="M0 0 C0.99 0 1.98 0 3 0 C3 0.66 3 1.32 3 2 C3.99 2.33 4.98 2.66 6 3 C5.34 3.66 4.68 4.32 4 5 C2.02 4.34 0.04 3.68 -2 3 C-1.34 2.01 -0.68 1.02 0 0 Z " fill="#A64547" transform="translate(18,49)"/>
</svg>
