<?xml version="1.0" encoding="utf-8"?>
<!-- Generator: Adobe Illustrator 28.2.0, SVG Export Plug-In . SVG Version: 6.00 Build 0)  -->
<svg version="1.1" id="Layer_1" xmlns="http://www.w3.org/2000/svg" xmlns:xlink="http://www.w3.org/1999/xlink" x="0px" y="0px"
	 viewBox="0 0 500 500" style="enable-background:new 0 0 500 500;" xml:space="preserve">
<style type="text/css">
	.st0{fill:none;stroke:#FFFFFF;stroke-width:1.6201;}
	.st1{fill:#FFFFFF;}
</style>
<path d="M250.3-0.2L250.3-0.2c138.1,0,250,111.9,250,250l0,0c0,138.1-111.9,250-250,250l0,0c-138.1,0-250-111.9-250-250l0,0
	C0.3,111.7,112.2-0.2,250.3-0.2z"/>
<circle class="st0" cx="250.3" cy="247.3" r="199.6"/>
<path class="st1" d="M270.2,198.6c-14.3,9.9-29.7,13.3-46.1,10.1c-16.5-3.1-29.6-11.7-39.3-25.8l-14.5-21l20.8-14.3l14.5,21
	c5.8,8.3,13.4,13.4,23.1,15.1c9.6,1.8,18.7-0.3,27.1-6.1l36.6-25.4c11.6-8.1,27.6-5.2,35.7,6.5L270.2,198.6z"/>
<path class="st1" d="M298.2,268.2c-9.9-14.3-13.3-29.8-10.2-46.2c3.1-16.5,11.7-29.6,25.7-39.3l20.9-14.4l14.4,20.8l-20.9,14.4
	c-8.3,5.7-13.4,13.4-15.1,23.1c-1.8,9.6,0.3,18.7,6.1,27.1l25.5,36.8c8.1,11.6,5.2,27.6-6.5,35.6L298.2,268.2z"/>
<path class="st1" d="M228.3,296.4c14.3-9.9,29.7-13.3,46.1-10.1c16.5,3.1,29.6,11.7,39.3,25.8l14.5,21l-20.8,14.3l-14.5-21
	c-5.8-8.3-13.4-13.4-23.1-15.1c-9.6-1.8-18.7,0.3-27.1,6.1l-36.6,25.4c-11.6,8.1-27.6,5.2-35.7-6.5L228.3,296.4z"/>
<path class="st1" d="M201.5,228.6c9.9,14.3,13.3,29.8,10.2,46.2c-3.1,16.5-11.7,29.6-25.7,39.3l-20.9,14.4l-14.4-20.8l20.9-14.4
	c8.3-5.7,13.4-13.4,15.1-23.1c1.8-9.6-0.3-18.7-6.1-27.1l-25.5-36.8c-8.1-11.6-5.2-27.6,6.5-35.6L201.5,228.6z"/>
</svg>
