<?xml version="1.0" encoding="utf-8"?>
<!-- Generator: Adobe Illustrator 28.2.0, SVG Export Plug-In . SVG Version: 6.00 Build 0)  -->
<svg version="1.1" id="Layer_1" xmlns="http://www.w3.org/2000/svg" xmlns:xlink="http://www.w3.org/1999/xlink" x="0px" y="0px"
	 viewBox="0 0 500 500" style="enable-background:new 0 0 500 500;" xml:space="preserve">
<style type="text/css">
	.st0{clip-path:url(#SVGID_00000093890224388969460620000001437938212720548757_);}
	.st1{fill:url(#SVGID_00000118373098545138520100000013727088069599747203_);}
	.st2{fill:url(#SVGID_00000111154224153794417500000012654005263293487502_);}
	.st3{fill:url(#SVGID_00000106827779206133079560000001673869927141625987_);}
	.st4{fill:url(#SVGID_00000028289252105112499420000015356918571445965967_);}
	.st5{fill:url(#SVGID_00000132776700791190094050000001038344592878639237_);}
	.st6{fill:url(#SVGID_00000146479525598900113030000011441413575883474832_);}
</style>
<g>
	<defs>
		<rect id="SVGID_1_" x="-0.4" y="2.2" width="500" height="495.6"/>
	</defs>
	<clipPath id="SVGID_00000132088285149836649470000007446784941747248267_">
		<use xlink:href="#SVGID_1_"  style="overflow:visible;"/>
	</clipPath>
	<g style="clip-path:url(#SVGID_00000132088285149836649470000007446784941747248267_);">
		<g>
			
				<linearGradient id="SVGID_00000087378191745434070730000012574065408814805407_" gradientUnits="userSpaceOnUse" x1="335.1886" y1="397.6277" x2="105.4652" y2="2.7099" gradientTransform="matrix(1 0 0 -1 0 502)">
				<stop  offset="1.000000e-04" style="stop-color:#C7F284"/>
				<stop  offset="1" style="stop-color:#00BEF0"/>
			</linearGradient>
			<path style="fill:url(#SVGID_00000087378191745434070730000012574065408814805407_);" d="M47.5,392
				c20.9,29.1,47.8,53.5,78.8,71.5c31,18,65.5,29.3,101.2,33c-18.4-27.6-45-53-78.3-72.4C115.8,404.8,80.6,394.2,47.5,392z"/>
			
				<linearGradient id="SVGID_00000170252287014129880960000017562555582242103226_" gradientUnits="userSpaceOnUse" x1="335.1743" y1="397.6361" x2="105.4509" y2="2.7183" gradientTransform="matrix(1 0 0 -1 0 502)">
				<stop  offset="1.000000e-04" style="stop-color:#C7F284"/>
				<stop  offset="1" style="stop-color:#00BEF0"/>
			</linearGradient>
			<path style="fill:url(#SVGID_00000170252287014129880960000017562555582242103226_);" d="M193.9,347.1
				c-64.2-37.3-133.6-46.8-183.3-30c4.8,15.9,11.1,31.2,18.9,45.8c43.2-1,90.3,10.7,134.2,36.2c43.9,25.5,77.4,60.6,97.9,98.6
				c16.6-0.5,33-2.6,49.2-6.3C300.7,440,258,384.4,193.9,347.1z"/>
			
				<linearGradient id="SVGID_00000096772603443809964010000001259038908348343987_" gradientUnits="userSpaceOnUse" x1="339.5877" y1="395.0688" x2="109.8643" y2="0.151" gradientTransform="matrix(1 0 0 -1 0 502)">
				<stop  offset="1.000000e-04" style="stop-color:#C7F284"/>
				<stop  offset="1" style="stop-color:#00BEF0"/>
			</linearGradient>
			<path style="fill:url(#SVGID_00000096772603443809964010000001259038908348343987_);" d="M499.6,195.8
				c-8.2-33.2-22.9-64.4-43.4-91.7c-20.5-27.3-46.3-50.3-75.8-67.5S318.2,8.4,284.3,4.2c-33.9-4.2-68.3-1.6-101.2,7.7
				C238,18.6,299,39.2,358.7,74C418.5,108.7,466.6,151.4,499.6,195.8z"/>
			
				<linearGradient id="SVGID_00000165223504196209729240000015823922405362308785_" gradientUnits="userSpaceOnUse" x1="335.1263" y1="397.664" x2="105.4029" y2="2.7462" gradientTransform="matrix(1 0 0 -1 0 502)">
				<stop  offset="1.000000e-04" style="stop-color:#C7F284"/>
				<stop  offset="1" style="stop-color:#00BEF0"/>
			</linearGradient>
			<path style="fill:url(#SVGID_00000165223504196209729240000015823922405362308785_);" d="M419.8,317.5
				c-28.1-46.7-76.2-91.4-135.6-125.8c-59.3-34.5-122-54.1-176.4-55.4C59.9,135.1,24,149,9.3,174.4c-0.1,0.2-0.2,0.3-0.3,0.4
				c-1.3,4.8-2.5,9.5-3.5,14.3c20.6-8.1,44.5-12.7,71-13.2c59-1.1,125,17.8,186,53.2c60.9,35.4,110.1,83.4,138.3,135.2
				c12.7,23.3,20.6,46.3,23.7,68.3c3.6-3.3,7.2-6.6,10.7-10.1c0.1-0.2,0.2-0.3,0.2-0.5C450.1,396.6,444.4,358.5,419.8,317.5z"/>
			
				<linearGradient id="SVGID_00000119080431638657847960000018389232748624271251_" gradientUnits="userSpaceOnUse" x1="335.1478" y1="397.6515" x2="105.4245" y2="2.7336" gradientTransform="matrix(1 0 0 -1 0 502)">
				<stop  offset="1.000000e-04" style="stop-color:#C7F284"/>
				<stop  offset="1" style="stop-color:#00BEF0"/>
			</linearGradient>
			<path style="fill:url(#SVGID_00000119080431638657847960000018389232748624271251_);" d="M239.1,269.3
				c-90.8-52.8-191.2-61-239.4-24.2c0.1,11.5,1,23,2.6,34.4c14.2-4.3,28.8-7,43.6-8.1c53.9-4.1,113.4,11,167.3,42.3
				c54,31.4,96.5,75.6,119.7,124.4c6.4,13.4,11.3,27.4,14.6,41.9c10.7-4.2,21.2-9.1,31.2-14.8C386.8,405.2,329.9,322.1,239.1,269.3z
				"/>
			
				<linearGradient id="SVGID_00000147914768158748645160000008557076959473898429_" gradientUnits="userSpaceOnUse" x1="335.0663" y1="397.6989" x2="105.3429" y2="2.7811" gradientTransform="matrix(1 0 0 -1 0 502)">
				<stop  offset="1.000000e-04" style="stop-color:#C7F284"/>
				<stop  offset="1" style="stop-color:#00BEF0"/>
			</linearGradient>
			<path style="fill:url(#SVGID_00000147914768158748645160000008557076959473898429_);" d="M466.5,239.4
				c-28.4-46.6-77-91.4-136.7-126.1C270,78.6,207.1,58.6,152.5,57c-41.6-1.2-73.9,8.9-90.6,27.9c69.4-11.8,160.9,8,249.7,59.5
				c88.7,51.5,151.3,121.3,175.4,187.4C495.3,307.9,488.1,274.9,466.5,239.4z"/>
		</g>
	</g>
</g>
</svg>
