<?xml version="1.0" encoding="utf-8"?>
<!-- Generator: Adobe Illustrator 28.2.0, SVG Export Plug-In . SVG Version: 6.00 Build 0)  -->
<svg version="1.1" id="Layer_1" xmlns="http://www.w3.org/2000/svg" xmlns:xlink="http://www.w3.org/1999/xlink" x="0px" y="0px"
	 viewBox="0 0 500 500" style="enable-background:new 0 0 500 500;" xml:space="preserve">
<style type="text/css">
	.st0{fill:#FFFFFF;}
	.st1{fill:#26A11F;}
</style>
<circle class="st0" cx="250" cy="250" r="250"/>
<path class="st1" d="M485.4,252.8c-8.6-4.8-17.3-9.6-26.4-13.4c-26.7-10.9-54.6-16-83.4-14.5c-14.1,0.7-23.2-4-31.2-16.7
	c-43.7-69.4-140-70.1-185.5-8.1c-15.1,20.6-30.5,41.1-49.9,58.1c-11.1,9.7-23.4,17.5-38.8,19.6l-3.7,0.6c-1.4-9.2-2.1-18.7-2.1-28.3
	c0-102.5,83.1-185.6,185.6-185.6c91.6,0,167.7,66.4,182.8,153.7c10.4,2.5,20.7,5.8,30.9,10c3.2,1.3,6.3,2.8,9.4,4.3
	c-9-115.3-105.4-206-223-206C126.4,26.3,26.3,126.4,26.3,250c0,123.6,100.2,223.7,223.7,223.7c113.8,0,207.7-84.9,221.9-194.8
	c-3.8-1.3-7.7-2.7-11.4-4.1c-8.8-3.3-17.3-6.4-25.7-8.3c-8.4,94.8-87.9,169.1-184.8,169.1c-28,0-54.5-6.2-78.3-17.3l14.3-3.6
	c34.3-10.7,57.6-33.8,74.9-64.5c10.7-19,21.2-38.3,34.2-55.7c16.7-22.3,38.7-39.7,67-43.1c21.8-2.6,44.6-1.5,66.5,1.4
	c16.9,2.2,33.1,9.7,49.4,15.2c5.3,1.8,9.9,2.2,12.9-3.1C493.9,258.9,489.9,255.3,485.4,252.8z M276.9,236.5
	c-8.1,0-14.7-6.6-14.7-14.7c0-8.1,6.6-14.7,14.7-14.7c8.1,0,14.7,6.6,14.7,14.7C291.6,229.9,285,236.5,276.9,236.5z"/>
</svg>
