<?xml version="1.0" encoding="UTF-8"?>
<svg version="1.1" xmlns="http://www.w3.org/2000/svg" width="200" height="200">
<path d="M0 0 C0.84732193 0.00359528 1.69464386 0.00719055 2.56764221 0.01089478 C3.89922363 0.01067574 3.89922363 0.01067574 5.25770569 0.01045227 C8.20666404 0.01115174 11.15556006 0.01894568 14.10450745 0.02676392 C16.14332037 0.02862798 18.18213374 0.03005194 20.22094727 0.03105164 C25.59844693 0.03487776 30.97591978 0.04470884 36.35340881 0.05575562 C41.83619321 0.06596771 47.31898192 0.07054882 52.80177307 0.07559204 C63.56806093 0.08633103 74.33432883 0.10340858 85.1006012 0.12442017 C84.31584885 4.48556962 82.84232743 8.16415464 80.92481995 12.13613892 C80.4431134 13.15157021 80.4431134 13.15157021 79.95167542 14.18751526 C79.26133157 15.64128614 78.56849159 17.09387385 77.87339783 18.54537964 C76.40391407 21.61425906 74.94665234 24.68888645 73.48873901 27.76327515 C72.74967319 29.32154756 72.00999632 30.87953031 71.26971436 32.43722534 C68.06330318 39.18706607 64.91186778 45.96088189 61.7881012 52.74942017 C61.31557922 53.77559448 60.84305725 54.8017688 60.35621643 55.85903931 C58.93594346 58.94670638 57.5178578 62.03536748 56.1006012 65.12442017 C55.57998108 66.25879517 55.05936096 67.39317017 54.52296448 68.56192017 C51.37869557 75.41449528 48.23814499 82.26876344 45.1006012 89.12442017 C50.7106012 89.12442017 56.3206012 89.12442017 62.1006012 89.12442017 C62.1006012 89.78442017 62.1006012 90.44442017 62.1006012 91.12442017 C60.60950885 92.45423109 59.05353405 93.71140747 57.4756012 94.93692017 C52.82094466 98.6522694 48.42971074 102.53608093 44.1006012 106.62442017 C39.22153191 111.22040578 34.22238628 115.53713591 28.9756012 119.71426392 C24.73304487 123.27086345 20.7448589 127.09563553 16.78224182 130.96035767 C12.42438644 135.12442017 12.42438644 135.12442017 9.1006012 135.12442017 C7.53074531 128.89558901 5.9645364 122.6658492 4.40089417 116.43545532 C3.86821153 114.31479993 3.33468549 112.1943562 2.80030823 110.0741272 C2.03361733 107.03154494 1.26993452 103.98822143 0.5068512 100.94473267 C0.26623962 99.99260895 0.02562805 99.04048523 -0.22227478 98.05950928 C-0.44250305 97.17874725 -0.66273132 96.29798523 -0.88963318 95.39053345 C-1.085047 94.6133194 -1.28046082 93.83610535 -1.48179626 93.03533936 C-1.8993988 91.12442017 -1.8993988 91.12442017 -1.8993988 89.12442017 C4.3706012 89.12442017 10.6406012 89.12442017 17.1006012 89.12442017 C18.0906012 86.15442017 19.0806012 83.18442017 20.1006012 80.12442017 C20.70250096 78.62129489 21.32774945 77.12676292 21.99830627 75.65298462 C22.50947746 74.5205407 22.50947746 74.5205407 23.03097534 73.36521912 C23.39039719 72.58063828 23.74981903 71.79605743 24.12013245 70.98770142 C24.69171333 69.72484566 24.69171333 69.72484566 25.27484131 68.43647766 C26.48342273 65.76804211 27.69792814 63.10235952 28.9131012 60.43692017 C30.11649744 57.78886531 31.31856991 55.14021939 32.51922607 52.49092102 C33.2621237 50.85257087 34.00667732 49.21496993 34.75338745 47.57835388 C37.98356332 40.47010934 41.02216405 33.30744017 44.1006012 26.12442017 C23.6406012 26.12442017 3.1806012 26.12442017 -17.8993988 26.12442017 C-16.62765487 22.30918835 -15.46586657 18.98597869 -13.77049255 15.41738892 C-13.17784607 14.16732056 -13.17784607 14.16732056 -12.57322693 12.89199829 C-12.16523865 12.04057251 -11.75725037 11.18914673 -11.3368988 10.31192017 C-10.92504333 9.44115845 -10.51318787 8.57039673 -10.08885193 7.67324829 C-6.44013574 0.01154146 -6.44013574 0.01154146 0 0 Z " fill="#0E41F5" transform="translate(101.89939880371094,64.87557983398438)"/>
<path d="M0 0 C1.56985589 6.22883116 3.1360648 12.45857097 4.69970703 18.68896484 C5.23238967 20.80962024 5.76591571 22.93006396 6.30029297 25.05029297 C7.06698387 28.09287523 7.83066668 31.13619874 8.59375 34.1796875 C8.83436157 35.13181122 9.07497314 36.08393494 9.32287598 37.06491089 C9.65321838 38.38605392 9.65321838 38.38605392 9.99023438 39.73388672 C10.18564819 40.51110077 10.38106201 41.28831482 10.58239746 42.08908081 C11 44 11 44 11 46 C4.73 46 -1.54 46 -8 46 C-8.99 48.97 -9.98 51.94 -11 55 C-11.60189977 56.50312528 -12.22714825 57.99765725 -12.89770508 59.47143555 C-13.23848587 60.22639816 -13.57926666 60.98136078 -13.93037415 61.75920105 C-14.28979599 62.54378189 -14.64921783 63.32836273 -15.01953125 64.13671875 C-15.59111214 65.39957451 -15.59111214 65.39957451 -16.17424011 66.6879425 C-17.38282153 69.35637805 -18.59732695 72.02206064 -19.8125 74.6875 C-21.01589625 77.33555486 -22.21796871 79.98420078 -23.41862488 82.63349915 C-24.16152251 84.2718493 -24.90607613 85.90945024 -25.65278625 87.54606628 C-28.88296213 94.65431083 -31.92156286 101.81698 -35 109 C-14.54 109 5.92 109 27 109 C25.72825606 112.81523181 24.56646777 116.13844147 22.87109375 119.70703125 C22.47599609 120.54041016 22.08089844 121.37378906 21.67382812 122.23242188 C21.26583984 123.08384766 20.85785156 123.93527344 20.4375 124.8125 C20.02564453 125.68326172 19.61378906 126.55402344 19.18945312 127.45117188 C16.13502139 133.86497861 16.13502139 133.86497861 15 135 C12.16959328 135.09520906 9.36365007 135.12553631 6.53295898 135.11352539 C5.64523804 135.11367142 4.75751709 135.11381744 3.84289551 135.1139679 C0.89393716 135.11326843 -2.05495887 135.10547448 -5.00390625 135.09765625 C-7.04271917 135.09579219 -9.08153254 135.09436823 -11.12034607 135.09336853 C-16.49784574 135.08954241 -21.87531858 135.07971132 -27.25280762 135.06866455 C-32.73559201 135.05845245 -38.21838072 135.05387134 -43.70117188 135.04882812 C-54.46745973 135.03808914 -65.23372764 135.02101159 -76 135 C-75.21524766 130.63885055 -73.74172623 126.96026553 -71.82421875 122.98828125 C-71.50308105 122.31132706 -71.18194336 121.63437286 -70.85107422 120.93690491 C-70.16073037 119.48313402 -69.4678904 118.03054632 -68.77279663 116.57904053 C-67.30331287 113.51016111 -65.84605115 110.43553372 -64.38813782 107.36114502 C-63.649072 105.8028726 -62.90939512 104.24488986 -62.16911316 102.68719482 C-58.96270198 95.9373541 -55.81126659 89.16353828 -52.6875 82.375 C-52.21497803 81.34882568 -51.74245605 80.32265137 -51.25561523 79.26538086 C-49.83534226 76.17771378 -48.4172566 73.08905269 -47 70 C-46.47937988 68.865625 -45.95875977 67.73125 -45.42236328 66.5625 C-42.27809437 59.70992488 -39.1375438 52.85565672 -36 46 C-41.61 46 -47.22 46 -53 46 C-53 45.34 -53 44.68 -53 44 C-51.50890766 42.67018907 -49.95293286 41.4130127 -48.375 40.1875 C-43.72034347 36.47215076 -39.32910954 32.58833924 -35 28.5 C-30.12093071 23.90401439 -25.12178508 19.58728425 -19.875 15.41015625 C-15.63244367 11.85355672 -11.64425771 8.02878464 -7.68164062 4.1640625 C-3.32378524 0 -3.32378524 0 0 0 Z " fill="#0E41F5" transform="translate(89,0)"/>
</svg>
