<svg width="42" height="42" viewBox="0 0 42 42" fill="none" xmlns="http://www.w3.org/2000/svg">
<path d="M9.59082 7.90918V10.8183H12.4999V7.90918H9.59082Z" fill="#CBBBFB"/>
<path d="M21.2275 7.90918V10.8183H24.1366V7.90918H21.2275Z" fill="#CBBBFB"/>
<path d="M32.8633 7.90918V10.8183H35.7724V7.90918H32.8633Z" fill="#CBBBFB"/>
<path d="M12.5 10.8182H15.4091V13.7273H18.3182V10.8182H21.2272V7.90909H24.1363V5H18.3182V7.90909H12.5V10.8182Z" fill="#371D70"/>
<path d="M24.1357 10.8182H27.0448V13.7273H29.9539V10.8182H32.863V7.90909H35.7721V5H29.9539V7.90909H24.1357V10.8182Z" fill="#371D70"/>
<path d="M35.7725 10.8183H38.6816V7.90918H35.7725V10.8183Z" fill="#371D70"/>
<path d="M35.7726 10.8184V31.182H9.59073V10.8184H6.68164V34.0911H38.6817V10.8184H35.7726Z" fill="#CBBBFB"/>
<path d="M38.6815 10.8182V34.0909H6.68146V10.8182H9.59055V7.90909H12.4997V5H6.68146V7.90909H3.77237V10.8182H0.863281V37H41.5906V10.8182H38.6815Z" fill="#371D70"/>
<path d="M9.59082 13.7274V31.182H35.7727V10.8184H32.8636V13.7274H29.9545V16.6365H27.0454V13.7274H24.1363V10.8184H21.2272V13.7274H18.3181V16.6365H15.409V13.7274H12.4999V10.8184H9.59082V13.7274ZM18.3181 26.8183V19.5456H27.0454V22.4547H21.2272V25.3638H27.0454V28.2729H18.3181V26.8183Z" fill="#9F7AF8"/>
<path d="M12.5 13.7274H15.4091V10.8184H12.5V13.7274Z" fill="#CBBBFB"/>
<path d="M21.2275 13.7274V10.8184H18.3184V13.7274H21.2275Z" fill="#CBBBFB"/>
<path d="M24.1357 13.7274H27.0448V10.8184H24.1357V13.7274Z" fill="#CBBBFB"/>
<path d="M32.8632 13.7274V10.8184H29.9541V13.7274H32.8632Z" fill="#CBBBFB"/>
<path d="M15.4092 16.6362H18.3182V13.7271H15.4092V16.6362Z" fill="#CBBBFB"/>
<path d="M27.0449 16.6362H29.954V13.7271H27.0449V16.6362Z" fill="#CBBBFB"/>
<path d="M21.2275 28.2727H27.0457V25.3636H21.2275V22.4545H27.0457V19.5454H18.3184V28.2727H21.2275Z" fill="#371D70"/>
</svg>
