<?xml version="1.0" encoding="utf-8"?>
<!-- Generator: Adobe Illustrator 28.2.0, SVG Export Plug-In . SVG Version: 6.00 Build 0)  -->
<svg version="1.1" id="Layer_1" xmlns="http://www.w3.org/2000/svg" xmlns:xlink="http://www.w3.org/1999/xlink" x="0px" y="0px"
	 viewBox="0 0 500 500" style="enable-background:new 0 0 500 500;" xml:space="preserve">
<style type="text/css">
	.st0{fill-rule:evenodd;clip-rule:evenodd;fill:url(#SVGID_1_);}
</style>
<linearGradient id="SVGID_1_" gradientUnits="userSpaceOnUse" x1="-4.4831" y1="247.3461" x2="504.485" y2="256.6539" gradientTransform="matrix(1 0 0 -1 0 502)">
	<stop  offset="0" style="stop-color:#29CCB9"/>
	<stop  offset="0.49" style="stop-color:#0091FF"/>
	<stop  offset="1" style="stop-color:#FF66B7"/>
</linearGradient>
<path class="st0" d="M116.2,429.3C61.7,388.5,26.3,323.4,26.3,250C26.3,126.5,126.5,26.3,250,26.3c102,0,213.3,60.9,240.2,154.3
	C460.1,76.3,364,0,250,0C112,0,0,112,0,250c0,138,112,250,250,250c138,0,250-112,250-250v-13.2h-13.7c-0.4,0-1,0-1.8,0
	c-1.6,0-3.9-0.1-6.9-0.2c-5.9-0.2-14.1-0.6-23.2-1.4c-18.8-1.6-40.1-4.8-54.7-10.7c-23.4-9.4-36.7-21.7-51.8-36.3l-0.9-0.8
	c-15.1-14.5-32.1-30.9-61.7-44.8c-29.1-13.7-61.2-11.5-84.8-6.6c-12,2.4-22.3,5.7-29.6,8.4c-3.7,1.3-6.6,2.5-8.6,3.3
	c-11.9,5-23.4,10.9-35.1,16.4c0,0,22.9,6.2,34.2,9.8c0.4,0.1,1,0.3,1.9,0.6c1.7,0.5,4.1,1.4,7.1,2.6c6,2.4,13.8,6,21.5,11.1
	c12.2,7.8,22.3,17.7,26.5,29.8c-25.9,3.4-50.2,14.8-68.4,25.5c-11,6.5-20.2,13-26.6,17.8c-3.2,2.4-5.8,4.5-7.5,5.9
	c-1.5,1.2-24.9,21.8-24.9,21.8s30.2,3.2,45,6.2c9.9,2,23.2,5.2,37.2,10.1c14,4.9,28.1,11.3,39.9,19.5c11.8,8.2,20.4,17.7,24.6,28.5
	c12.4,31.7,0.2,62.4-24.2,79.8C189.4,450.3,152.8,454.3,116.2,429.3L116.2,429.3z M201.6,468.4c9.8-3.2,19-7.9,27.3-13.7
	c33.2-23.6,50.6-66.8,33.4-110.8c-6.8-17.3-19.7-30.5-34-40.6c-14.4-10.1-30.9-17.4-46.3-22.8c-10.1-3.5-19.8-6.2-28.3-8.3
	c3.1-2,6.3-4,9.7-6c20.2-11.9,45.8-22.8,70.2-22.8c36.9,0,64.3,11.3,90.6,23.4c2.4,1.1,4.8,2.2,7.2,3.3c23.4,11,48,22.6,76.6,22.6
	c28.6,0,49.3-7.8,64.2-16C459,387.6,364.6,473.6,250.1,473.6c-16.6,0-32.9-1.8-48.4-5.2L201.6,468.4z M443.7,260.7
	c-9.9,3.3-21.8,5.8-35.7,5.8c-22.4,0-41.7-9-66.2-20.4c-2.2-1-4.3-2-6.6-3.1c-24.5-11.3-52.9-23.4-89.7-25.5
	c-5-24.4-23.4-41.1-39.3-51.3c-1.8-1.2-3.5-2.2-5.3-3.3c1.6-0.3,3.2-0.7,4.9-1.1c21.3-4.4,46.7-5.5,68.3,4.7
	c25.5,12,40,25.9,55,40.3l0.5,0.5c15.4,14.8,31.8,30.4,60.3,41.8C405.6,255.4,426.2,258.8,443.7,260.7z"/>
</svg>
