<?xml version="1.0" encoding="utf-8"?>
<!-- Generator: Adobe Illustrator 28.0.0, SVG Export Plug-In . SVG Version: 6.00 Build 0)  -->
<svg version="1.1" id="Layer_1" xmlns="http://www.w3.org/2000/svg" xmlns:xlink="http://www.w3.org/1999/xlink" x="0px" y="0px"
	 viewBox="0 0 500 500" style="enable-background:new 0 0 500 500;" xml:space="preserve">
<style type="text/css">
	.st0{fill:#451834;}
	.st1{fill:#FFE84F;}
	.st2{fill:#A1472A;}
	.st3{fill:#E39400;}
</style>
<rect x="346.2" y="0" class="st0" width="38.5" height="38.5"/>
<rect x="307.7" y="0" class="st0" width="38.5" height="38.5"/>
<rect x="269.2" y="0" class="st0" width="38.5" height="38.5"/>
<rect x="230.8" y="0" class="st0" width="38.5" height="38.5"/>
<rect x="192.3" y="0" class="st0" width="38.5" height="38.5"/>
<rect x="153.8" y="0" class="st0" width="38.5" height="38.5"/>
<rect x="115.4" y="0" class="st0" width="38.5" height="38.5"/>
<rect x="346.2" y="38.5" class="st1" width="38.5" height="38.5"/>
<rect x="307.7" y="38.5" class="st1" width="38.5" height="38.5"/>
<rect x="269.2" y="38.5" class="st1" width="38.5" height="38.5"/>
<rect x="230.8" y="38.5" class="st1" width="38.5" height="38.5"/>
<rect x="192.3" y="38.5" class="st1" width="38.5" height="38.5"/>
<rect x="153.8" y="38.5" class="st1" width="38.5" height="38.5"/>
<rect x="115.4" y="38.5" class="st2" width="38.5" height="38.5"/>
<rect x="346.2" y="76.9" class="st2" width="38.5" height="38.5"/>
<rect x="307.7" y="76.9" class="st3" width="38.5" height="38.5"/>
<rect x="269.2" y="76.9" class="st3" width="38.5" height="38.5"/>
<rect x="230.8" y="76.9" class="st3" width="38.5" height="38.5"/>
<rect x="192.3" y="76.9" class="st3" width="38.5" height="38.5"/>
<rect x="153.8" y="76.9" class="st3" width="38.5" height="38.5"/>
<rect x="115.4" y="76.9" class="st1" width="38.5" height="38.5"/>
<rect x="346.2" y="115.4" class="st3" width="38.5" height="38.5"/>
<rect x="307.7" y="115.4" class="st3" width="38.5" height="38.5"/>
<rect x="269.2" y="115.4" class="st3" width="38.5" height="38.5"/>
<rect x="230.8" y="115.4" class="st3" width="38.5" height="38.5"/>
<rect x="192.3" y="115.4" class="st3" width="38.5" height="38.5"/>
<rect x="153.8" y="115.4" class="st3" width="38.5" height="38.5"/>
<rect x="115.4" y="115.4" class="st3" width="38.5" height="38.5"/>
<rect x="346.2" y="153.8" class="st3" width="38.5" height="38.5"/>
<rect x="307.7" y="153.8" class="st2" width="38.5" height="38.5"/>
<rect x="269.2" y="153.8" class="st2" width="38.5" height="38.5"/>
<rect x="230.8" y="153.8" class="st3" width="38.5" height="38.5"/>
<rect x="192.3" y="153.8" class="st2" width="38.5" height="38.5"/>
<rect x="153.8" y="153.8" class="st2" width="38.5" height="38.5"/>
<rect x="115.4" y="153.8" class="st3" width="38.5" height="38.5"/>
<rect x="346.2" y="192.3" class="st3" width="38.5" height="38.5"/>
<rect x="307.7" y="192.3" class="st2" width="38.5" height="38.5"/>
<rect x="269.2" y="192.3" class="st2" width="38.5" height="38.5"/>
<rect x="230.8" y="192.3" class="st2" width="38.5" height="38.5"/>
<rect x="192.3" y="192.3" class="st2" width="38.5" height="38.5"/>
<rect x="153.8" y="192.3" class="st2" width="38.5" height="38.5"/>
<rect x="115.4" y="192.3" class="st3" width="38.5" height="38.5"/>
<rect x="346.2" y="230.8" class="st3" width="38.5" height="38.5"/>
<rect x="307.7" y="230.8" class="st2" width="38.5" height="38.5"/>
<rect x="269.2" y="230.8" class="st2" width="38.5" height="38.5"/>
<rect x="230.8" y="230.8" class="st2" width="38.5" height="38.5"/>
<rect x="192.3" y="230.8" class="st2" width="38.5" height="38.5"/>
<rect x="153.8" y="230.8" class="st2" width="38.5" height="38.5"/>
<rect x="115.4" y="230.8" class="st3" width="38.5" height="38.5"/>
<rect x="346.2" y="269.2" class="st3" width="38.5" height="38.5"/>
<rect x="307.7" y="269.2" class="st2" width="38.5" height="38.5"/>
<rect x="269.2" y="269.2" class="st3" width="38.5" height="38.5"/>
<rect x="230.8" y="269.2" class="st2" width="38.5" height="38.5"/>
<rect x="192.3" y="269.2" class="st3" width="38.5" height="38.5"/>
<rect x="153.8" y="269.2" class="st2" width="38.5" height="38.5"/>
<rect x="115.4" y="269.2" class="st3" width="38.5" height="38.5"/>
<rect x="346.2" y="307.7" class="st3" width="38.5" height="38.5"/>
<rect x="307.7" y="307.7" class="st2" width="38.5" height="38.5"/>
<rect x="269.2" y="307.7" class="st3" width="38.5" height="38.5"/>
<rect x="230.8" y="307.7" class="st3" width="38.5" height="38.5"/>
<rect x="192.3" y="307.7" class="st3" width="38.5" height="38.5"/>
<rect x="153.8" y="307.7" class="st2" width="38.5" height="38.5"/>
<rect x="115.4" y="307.7" class="st3" width="38.5" height="38.5"/>
<rect x="346.2" y="346.2" class="st3" width="38.5" height="38.5"/>
<rect x="307.7" y="346.2" class="st3" width="38.5" height="38.5"/>
<rect x="269.2" y="346.2" class="st3" width="38.5" height="38.5"/>
<rect x="230.8" y="346.2" class="st3" width="38.5" height="38.5"/>
<rect x="192.3" y="346.2" class="st3" width="38.5" height="38.5"/>
<rect x="153.8" y="346.2" class="st3" width="38.5" height="38.5"/>
<rect x="115.4" y="346.2" class="st3" width="38.5" height="38.5"/>
<rect x="346.2" y="384.6" class="st2" width="38.5" height="38.5"/>
<rect x="307.7" y="384.6" class="st3" width="38.5" height="38.5"/>
<rect x="269.2" y="384.6" class="st3" width="38.5" height="38.5"/>
<rect x="230.8" y="384.6" class="st3" width="38.5" height="38.5"/>
<rect x="192.3" y="384.6" class="st3" width="38.5" height="38.5"/>
<rect x="153.8" y="384.6" class="st3" width="38.5" height="38.5"/>
<rect x="115.4" y="384.6" class="st1" width="38.5" height="38.5"/>
<rect x="346.2" y="423.1" class="st1" width="38.5" height="38.5"/>
<rect x="307.7" y="423.1" class="st1" width="38.5" height="38.5"/>
<rect x="269.2" y="423.1" class="st1" width="38.5" height="38.5"/>
<rect x="230.8" y="423.1" class="st1" width="38.5" height="38.5"/>
<rect x="192.3" y="423.1" class="st1" width="38.5" height="38.5"/>
<rect x="153.8" y="423.1" class="st1" width="38.5" height="38.5"/>
<rect x="115.4" y="423.1" class="st2" width="38.5" height="38.5"/>
<rect x="346.2" y="461.5" class="st0" width="38.5" height="38.5"/>
<rect x="307.7" y="461.5" class="st0" width="38.5" height="38.5"/>
<rect x="269.2" y="461.5" class="st0" width="38.5" height="38.5"/>
<rect x="230.8" y="461.5" class="st0" width="38.5" height="38.5"/>
<rect x="192.3" y="461.5" class="st0" width="38.5" height="38.5"/>
<rect x="153.8" y="461.5" class="st0" width="38.5" height="38.5"/>
<rect x="115.4" y="461.5" class="st0" width="38.5" height="38.5"/>
<rect x="76.9" y="38.5" class="st0" width="38.5" height="38.5"/>
<rect x="38.5" y="76.9" class="st0" width="38.5" height="38.5"/>
<rect x="76.9" y="76.9" class="st2" width="38.5" height="38.5"/>
<rect x="384.6" y="38.5" class="st0" width="38.5" height="38.5"/>
<rect x="423.1" y="76.9" class="st0" width="38.5" height="38.5"/>
<rect x="384.6" y="76.9" class="st1" width="38.5" height="38.5"/>
<rect x="461.5" y="115.4" class="st0" width="38.5" height="38.5"/>
<rect x="461.5" y="153.8" class="st0" width="38.5" height="38.5"/>
<rect x="461.5" y="192.3" class="st0" width="38.5" height="38.5"/>
<rect x="461.5" y="230.8" class="st0" width="38.5" height="38.5"/>
<rect x="461.5" y="269.2" class="st0" width="38.5" height="38.5"/>
<rect x="461.5" y="307.7" class="st0" width="38.5" height="38.5"/>
<rect x="461.5" y="346.2" class="st0" width="38.5" height="38.5"/>
<rect x="423.1" y="115.4" class="st1" width="38.5" height="38.5"/>
<rect x="423.1" y="153.8" class="st1" width="38.5" height="38.5"/>
<rect x="423.1" y="192.3" class="st1" width="38.5" height="38.5"/>
<rect x="423.1" y="230.8" class="st1" width="38.5" height="38.5"/>
<rect x="423.1" y="269.2" class="st1" width="38.5" height="38.5"/>
<rect x="423.1" y="307.7" class="st1" width="38.5" height="38.5"/>
<rect x="423.1" y="346.2" class="st1" width="38.5" height="38.5"/>
<rect x="384.6" y="115.4" class="st2" width="38.5" height="38.5"/>
<rect x="384.6" y="153.8" class="st2" width="38.5" height="38.5"/>
<rect x="384.6" y="192.3" class="st2" width="38.5" height="38.5"/>
<rect x="384.6" y="230.8" class="st2" width="38.5" height="38.5"/>
<rect x="384.6" y="269.2" class="st2" width="38.5" height="38.5"/>
<rect x="384.6" y="307.7" class="st2" width="38.5" height="38.5"/>
<rect x="384.6" y="346.2" class="st2" width="38.5" height="38.5"/>
<rect x="76.9" y="115.4" class="st1" width="38.5" height="38.5"/>
<rect x="76.9" y="153.8" class="st1" width="38.5" height="38.5"/>
<rect x="76.9" y="192.3" class="st1" width="38.5" height="38.5"/>
<rect x="76.9" y="230.8" class="st1" width="38.5" height="38.5"/>
<rect x="76.9" y="269.2" class="st1" width="38.5" height="38.5"/>
<rect x="76.9" y="307.7" class="st1" width="38.5" height="38.5"/>
<rect x="76.9" y="346.2" class="st1" width="38.5" height="38.5"/>
<rect x="38.5" y="115.4" class="st2" width="38.5" height="38.5"/>
<rect x="38.5" y="153.8" class="st2" width="38.5" height="38.5"/>
<rect x="38.5" y="192.3" class="st2" width="38.5" height="38.5"/>
<rect x="38.5" y="230.8" class="st2" width="38.5" height="38.5"/>
<rect x="38.5" y="269.2" class="st2" width="38.5" height="38.5"/>
<rect x="38.5" y="307.7" class="st2" width="38.5" height="38.5"/>
<rect x="38.5" y="346.2" class="st2" width="38.5" height="38.5"/>
<rect y="115.4" class="st0" width="38.5" height="38.5"/>
<rect y="153.8" class="st0" width="38.5" height="38.5"/>
<rect y="192.3" class="st0" width="38.5" height="38.5"/>
<rect y="230.8" class="st0" width="38.5" height="38.5"/>
<rect y="269.2" class="st0" width="38.5" height="38.5"/>
<rect y="307.7" class="st0" width="38.5" height="38.5"/>
<rect y="346.2" class="st0" width="38.5" height="38.5"/>
<rect x="38.5" y="384.6" class="st0" width="38.5" height="38.5"/>
<rect x="76.9" y="384.6" class="st2" width="38.5" height="38.5"/>
<rect x="76.9" y="423.1" class="st0" width="38.5" height="38.5"/>
<rect x="423.1" y="384.6" class="st0" width="38.5" height="38.5"/>
<rect x="384.6" y="384.6" class="st1" width="38.5" height="38.5"/>
<rect x="384.6" y="423.1" class="st0" width="38.5" height="38.5"/>
</svg>
