<?xml version="1.0" encoding="utf-8"?>
<!-- Generator: Adobe Illustrator 28.2.0, SVG Export Plug-In . SVG Version: 6.00 Build 0)  -->
<svg version="1.1" id="Layer_1" xmlns="http://www.w3.org/2000/svg" xmlns:xlink="http://www.w3.org/1999/xlink" x="0px" y="0px"
	 viewBox="0 0 500 500" style="enable-background:new 0 0 500 500;" xml:space="preserve">
<style type="text/css">
	.st0{fill:#FF596E;}
	.st1{fill:#800010;}
</style>
<path class="st0" d="M140.6,200.1L250,146.5V0L140.6,200.1z"/>
<path class="st0" d="M250,146.5v116.8l109.4-63.1L250,146.5z"/>
<path class="st1" d="M250,146.5v116.8l-109.4-63.1L250,146.5z"/>
<path class="st1" d="M359.4,200.1L250,146.5V0L359.4,200.1z"/>
<path class="st0" d="M250,308.4v124.4L138.5,244L250,308.4z"/>
<path class="st1" d="M250,308.4v124.4L361.5,244L250,308.4z"/>
<path class="st1" d="M379.9,272.5l25.3,74.9l55.3-97.6L379.9,272.5z"/>
<path class="st0" d="M405.2,347.4l55.3-17.3v-80.3L405.2,347.4z"/>
<path class="st1" d="M460.5,330.1l-80.6,142.2L318.7,500l86.5-152.6L460.5,330.1z"/>
<path class="st0" d="M39.5,330.1l80.6,142.2l61.2,27.7L94.8,347.4L39.5,330.1z"/>
<path class="st1" d="M250,500L120.1,272.5l-25.3,74.9L181.3,500H250z"/>
<path class="st0" d="M120.1,272.5l-25.3,74.9l-55.3-97.6L120.1,272.5z"/>
<path class="st1" d="M94.8,347.4l-55.3-17.3v-80.3L94.8,347.4z"/>
<path class="st0" d="M250,500l129.9-227.5l25.3,74.9L318.7,500H250z"/>
</svg>
