<?xml version="1.0" encoding="utf-8"?>
<!-- Generator: Adobe Illustrator 28.2.0, SVG Export Plug-In . SVG Version: 6.00 Build 0)  -->
<svg version="1.1" id="Layer_2_00000150089941136146189750000017733900588777433279_"
	 xmlns="http://www.w3.org/2000/svg" xmlns:xlink="http://www.w3.org/1999/xlink" x="0px" y="0px" viewBox="0 0 500 500"
	 style="enable-background:new 0 0 500 500;" xml:space="preserve">
<style type="text/css">
	.st0{fill:#EC1C24;}
	.st1{fill:#FFFFFF;}
	.st2{fill:#231F20;}
	.st3{fill:#A7DFF8;}
	.st4{fill:#F7BAD5;}
	.st5{fill:#D5E9F8;}
</style>
<g id="Layer_2-2">
	<circle class="st0" cx="250" cy="251.3" r="228"/>
	<path class="st1" d="M436.2,252.6l0.6,0.5c0,0-13.6-151-63.9-226.3c-4.8-7.2-15.1-8.2-21.2-2.1c-14.4,14.5-38,53.3-61.5,118
		c-12.6-2.1-25.7-3.2-39.1-3.2c-13.4,0-26.5,1.1-39.1,3.2c-23.5-64.7-47.1-103.5-61.5-118c-6.1-6.1-16.4-5.1-21.2,2.1
		C79,102.1,65.3,253.1,65.3,253.1l0.6-0.5c-4.4,12.9-6.8,26.5-6.8,40.6c0,58.5,40.9,109.4,101,135.4c27.1,11.7,58,18.3,90.9,18.3
		s63.8-6.6,90.9-18.3c60.2-25.9,101.1-76.8,101.1-135.4C443.1,279.1,440.7,265.5,436.2,252.6L436.2,252.6z"/>
	<path class="st2" d="M5.6,374.4c-1.8,0-3.5-0.9-4.6-2.4c-1.7-2.5-1.1-6,1.5-7.8c52.2-35.6,88.3-25.9,89.9-25.5
		c3,0.8,4.7,3.9,3.8,6.9c-0.8,3-3.9,4.7-6.9,3.8c-0.4-0.1-33.1-8.5-80.5,23.9C7.8,374.1,6.7,374.4,5.6,374.4L5.6,374.4z"/>
	<path class="st2" d="M35.2,417.6c-1,0-2.1-0.3-3-0.9c-2.6-1.7-3.3-5.1-1.7-7.7c25.7-39.9,68.6-47.8,70.4-48.1
		c3-0.5,5.9,1.5,6.5,4.5c0.5,3-1.5,5.9-4.5,6.5c-0.5,0.1-40,7.6-62.9,43.2C38.8,416.7,37,417.6,35.2,417.6L35.2,417.6z"/>
	<path class="st2" d="M494.4,374.4c-1.1,0-2.2-0.3-3.1-1c-47.5-32.4-80.2-24-80.5-23.9c-3,0.8-6-0.9-6.9-3.9c-0.8-3,0.9-6,3.8-6.9
		c1.5-0.4,37.7-10.2,89.9,25.5c2.6,1.7,3.2,5.2,1.5,7.8C497.9,373.5,496.2,374.4,494.4,374.4L494.4,374.4z"/>
	<path class="st2" d="M464.8,417.6c-1.8,0-3.6-0.9-4.7-2.6c-23.1-35.8-62.5-43.1-62.9-43.2c-3-0.5-5.1-3.4-4.5-6.5
		c0.5-3,3.5-5.1,6.5-4.5c1.8,0.3,44.7,8.3,70.4,48.1c1.7,2.6,0.9,6.1-1.7,7.7C466.9,417.3,465.8,417.6,464.8,417.6L464.8,417.6z"/>
	<path class="st3" d="M203.2,277.9c-0.6,28.8-24.1,52-53,52s-53.1-23.8-53.1-53.1c0-8.5,2-16.4,5.5-23.5L203.2,277.9L203.2,277.9z"
		/>
	<path class="st2" d="M186,273.7c0.1,1.1,0.3,3.5,0.3,4.7c0,19.1-15.5,34.6-34.6,34.6s-34.6-15.5-34.6-34.6c0-7,3-14.4,6.5-19.9
		L186,273.7z"/>
	<path class="st3" d="M293.1,277.9c0.6,28.8,24.1,52,53,52c29.3,0,53.1-23.8,53.1-53.1c0-8.5-2-16.4-5.5-23.5L293.1,277.9
		L293.1,277.9z"/>
	<path class="st2" d="M310.7,273.2c-0.1,1.1-0.7,4-0.7,5.2c0,19.1,15.5,34.6,34.6,34.6c19.1,0,34.6-15.5,34.6-34.6
		c0-7-2.6-14.4-6.2-19.9L310.7,273.2L310.7,273.2z"/>
	<path class="st2" d="M262.3,378.6c-5.3,0-11-1.6-16.5-5.9c-14.9,11.6-31.1,3.6-38-2.8c-2.3-2.1-2.4-5.6-0.3-7.9
		c2.1-2.3,5.6-2.4,7.9-0.3c1.4,1.2,13.9,12,25.8,0.1c1-1,2.5-1.6,4-1.6h1.3c1.5,0,2.9,0.6,4,1.6c11.8,11.8,24.4,1.1,25.8-0.2
		c2.3-2.1,5.8-1.9,7.9,0.4c2.1,2.3,1.9,5.8-0.3,7.9C279.4,373.9,271.4,378.6,262.3,378.6L262.3,378.6z"/>
	<ellipse class="st4" cx="245.4" cy="350.8" rx="16.3" ry="7.8"/>
	<path class="st4" d="M94.6,201.7c0,0,8.8-97.9,41.4-146.7c3.1-4.7,9.8-5.3,13.8-1.4c9.4,9.4,26.8,49.9,42.1,92
		C191.9,145.7,174.2,149.7,94.6,201.7L94.6,201.7z"/>
	<path class="st4" d="M409.5,201.7c0,0-8.8-97.9-41.4-146.7c-3.1-4.7-9.8-5.3-13.8-1.4c-9.4,9.4-27.8,49.9-43,92
		C311.2,145.7,339,149.7,409.5,201.7L409.5,201.7z"/>
	<path class="st5" d="M307.1,184.8c18.1-67.8-83.2-56.3-80.9-124c0.2,28.8-5.1,59.3,14.5,82.5c-31.7,3.7-41.5-38.7-50.1-58.5
		c-2.7,37-9.6,94.4,32.3,110.3"/>
	<path class="st1" d="M315.3,184.8c20.6-84.3-90.8-65.4-88.5-133.1c0.2,28.8-3.7,56.1,15.8,79.3c-31.7,3.7-43.7-35.2-52.4-55.1
		c-2.7,37,18.1,104.7,75.7,119.1"/>
</g>
</svg>
