<svg width="24" height="24" viewBox="0 0 24 24" fill="none" xmlns="http://www.w3.org/2000/svg">
<g id="Group">
<path id="Vector" d="M23.6596 0.228564L14.7518 4.42156C14.5816 4.50655 14.5532 4.76153 14.7234 4.84653C15.773 5.38482 18.922 6.48973 20.6241 9.18118C20.6241 9.18118 16.766 5.52647 12 5.52647C7.23404 5.52647 3.37588 9.18118 3.37588 9.18118C5.07801 6.48973 8.22695 5.38482 9.27659 4.84653C9.44681 4.76153 9.44681 4.50655 9.24823 4.42156L0.340425 0.228564C0.198581 0.171901 0 0.285226 0 0.455212V12.8359C0 16.4623 1.84397 19.862 4.93617 21.7885C4.96454 21.8168 4.99291 21.8168 5.02128 21.8452C7.88652 23.6017 10.6667 23.8 12 23.8C13.4184 23.8 16.1135 23.6017 18.9787 21.8452C19.0071 21.8168 19.0355 21.8168 19.0638 21.7885C22.156 19.8903 24 16.4623 24 12.8359V0.455212C23.9716 0.256895 23.8014 0.14357 23.6596 0.228564Z" fill="#89AAFF"/>
<g id="Group_2">
<path id="Vector (Stroke)" fill-rule="evenodd" clip-rule="evenodd" d="M3.16848 13.5378C3.438 13.345 3.81277 13.4073 4.00555 13.6768C4.14128 13.8666 5.08226 15.1158 6.61994 15.0693C6.62282 15.0692 6.6257 15.0692 6.62858 15.0691C8.10154 15.0458 8.99684 13.8613 9.1288 13.6768C9.32157 13.4073 9.69634 13.345 9.96587 13.5378C10.2354 13.7306 10.2976 14.1054 10.1048 14.3749C9.95322 14.5869 8.75077 16.2334 6.65193 16.2689C4.44759 16.3333 3.17736 14.5816 3.02951 14.3749C2.83673 14.1054 2.89895 13.7306 3.16848 13.5378Z" fill="#001947"/>
<path id="Vector (Stroke)_2" fill-rule="evenodd" clip-rule="evenodd" d="M14.0337 13.5378C14.3032 13.345 14.678 13.4073 14.8708 13.6768C15.0065 13.8666 15.9475 15.1158 17.4852 15.0693C17.4881 15.0692 17.4909 15.0692 17.4938 15.0691C18.9668 15.0458 19.8621 13.8613 19.994 13.6768C20.1868 13.4073 20.5616 13.345 20.8311 13.5378C21.1006 13.7306 21.1628 14.1054 20.9701 14.3749C20.8185 14.5869 19.616 16.2334 17.5172 16.2689C15.3128 16.3333 14.0426 14.5816 13.8947 14.3749C13.702 14.1054 13.7642 13.7306 14.0337 13.5378Z" fill="#001947"/>
</g>
<path id="Vector_2" d="M10.2948 16.9156L11.8834 17.9922C11.9969 18.0772 12.1671 18.0772 12.2522 17.9922L13.8409 16.9156C14.0394 16.774 13.926 16.519 13.6423 16.519H10.465C10.238 16.519 10.0962 16.774 10.2948 16.9156Z" fill="#001947"/>
</g>
</svg>
