<?xml version="1.0" encoding="utf-8"?>
<!-- Generator: Adobe Illustrator 28.0.0, SVG Export Plug-In . SVG Version: 6.00 Build 0)  -->
<svg version="1.1" id="Layer_1" xmlns="http://www.w3.org/2000/svg" xmlns:xlink="http://www.w3.org/1999/xlink" x="0px" y="0px"
	 viewBox="0 0 500 500" style="enable-background:new 0 0 500 500;" xml:space="preserve">
<style type="text/css">
	.st0{fill:#D6B66A;}
	.st1{fill:#EED789;}
	.st2{fill:#F4EBBF;}
	.st3{fill:#C19C58;}
	.st4{fill:#A07F44;}
</style>
<g>
	<path class="st0" d="M468.8,288.4l-17-12.2c1-8.1,1.5-16.3,1.5-24.7c0-25.9-4.9-50.6-13.7-73.4l12.8-17.4
		c-13.5-29.8-33.4-56-57.9-77l-19,8.4c-23.9-18.6-52.1-32-82.9-38.4L287.6,34c-11.8-1.9-23.9-3-36.2-3c-13.6,0-27,1.2-40,3.6
		l-5.5,20.1c-30.3,7-58,20.8-81.4,39.7l-18.4-8.8C84,105,65.8,128.7,52.8,155.4l12.3,17.8c-10.2,24.1-15.8,50.6-15.8,78.4
		c0,0.8,0,1.6,0,2.4l-18.2,10.5c1.9,33.5,11.3,65,26.6,92.8l21.4-0.2c12.2,19.9,27.8,37.5,46,52.1l-2.9,21.2
		c26.8,19.3,58,32.8,91.9,38.5l12.9-16.9c7.9,0.9,16,1.5,24.2,1.5c10.7,0,21.3-0.8,31.5-2.5l13.9,16.4c31.9-6.7,61.2-20.2,86.4-39
		l-3.9-20.6c18.8-15.4,34.8-34.2,47.1-55.4l20.1,2.1C457.2,334.1,464.8,311.9,468.8,288.4z"/>
	<path d="M251.3,31c12.3,0,24.4,1,36.2,3l5.1,19.8c30.8,6.4,59,19.8,82.9,38.4l19-8.4c24.5,21,44.4,47.2,57.9,77l-12.8,17.4
		c8.9,22.7,13.7,47.5,13.7,73.4c0,8.4-0.5,16.6-1.5,24.7l17,12.2c-4,23.5-11.6,45.7-22.4,66l-20.1-2.1c-12.2,21.2-28.2,40-47.1,55.4
		l3.9,20.6c-25.2,18.8-54.6,32.4-86.4,39l-13.9-16.4c-10.3,1.6-20.8,2.5-31.5,2.5c-8.2,0-16.3-0.5-24.2-1.5L214.2,469
		c-33.9-5.7-65.1-19.2-91.9-38.5l2.9-21.2c-18.2-14.6-33.8-32.2-46-52.1l-21.4,0.2c-15.2-27.8-24.6-59.3-26.6-92.8L49.4,254
		c0-0.8,0-1.6,0-2.4c0-27.8,5.6-54.3,15.8-78.4l-12.3-17.8c13-26.7,31.2-50.4,53.3-69.8l18.4,8.8c23.4-18.9,51.1-32.7,81.4-39.7
		l5.5-20.1C224.3,32.3,237.7,31,251.3,31 M251.3,0c-15.3,0-30.6,1.4-45.6,4.1c-11.7,2.1-21.2,10.8-24.3,22.4l-0.8,3.1
		c-21,6.7-41.2,16.5-59.5,28.9l-1.6-0.8c-4.3-2-8.8-3-13.4-3c-7.4,0-14.7,2.6-20.4,7.7c-25.5,22.4-46,49.1-60.7,79.6
		c-4.9,10.1-4,22,2.4,31.2l3,4.4c-6.3,18.9-10.2,38.4-11.5,58.3l-3.2,1.9c-10.1,5.9-16.1,17-15.4,28.6
		c2.2,37.5,12.4,73.1,30.3,105.9c5.4,9.9,15.9,16.1,27.2,16.1c0.1,0,0.2,0,0.2,0l4.7,0c8.7,12.1,18.6,23.2,29.5,33.4l-0.6,4.5
		c-1.5,11.3,3.3,22.6,12.6,29.3c31,22.4,67.3,37.6,104.9,44c1.7,0.3,3.5,0.4,5.2,0.4c9.6,0,18.7-4.4,24.7-12.2l2.6-3.5
		c3.3,0.1,6.6,0.2,9.8,0.2c6.2,0,12.4-0.2,18.6-0.7l3.1,3.7c6,7,14.7,11,23.7,11c2.1,0,4.2-0.2,6.4-0.7c36-7.5,69.1-22.5,98.7-44.6
		c9.5-7.1,14.1-19,11.9-30.6l-0.6-3.3c10.8-10.4,20.6-21.8,29.1-34.1l1,0.1c1.1,0.1,2.2,0.2,3.3,0.2c11.4,0,22-6.3,27.4-16.5
		c12.5-23.7,21.1-49,25.5-75.4c2-11.7-2.9-23.5-12.5-30.4l-2.8-2c0.1-3.2,0.2-6.5,0.2-9.7c0-23.3-3.4-46.1-10.1-68.1l3.1-4.3
		c6.7-9,7.9-21,3.3-31.2c-15.1-33.5-38-63.8-66-87.8c-5.7-4.9-12.9-7.4-20.2-7.4c-4.3,0-8.5,0.9-12.6,2.7l-2.8,1.3
		c-18.8-12.3-39.5-21.9-61-28.4l-0.5-2c-3.1-11.9-12.9-20.9-25-22.9C279,1.1,265.1,0,251.3,0L251.3,0z"/>
</g>
<circle class="st1" cx="251.2" cy="251.1" r="203.2"/>
<path class="st2" d="M416.5,288.5c2.6-11.9,4.1-24.2,4.1-36.9c0-21.3-4-41.8-11.2-60.6c8.3-18.4-2.9-49.6-28.4-75.1
	c-27.5-27.5-61.9-38.4-79.3-25.9c-15.9-4.9-32.8-7.6-50.3-7.6c-93.4,0-169.2,75.7-169.2,169.2c0,43.3,16.3,82.8,43.1,112.8
	c-4.6,13.8,13.2,35.4,41.2,49.5c26.4,13.3,52.9,15.3,62.8,5.4c7.2,0.9,14.6,1.4,22.1,1.4c22.1,0,43.2-4.2,62.6-12
	c21.9,2.5,48.7-6.1,71.5-25C419.5,355.5,432.4,314.2,416.5,288.5z"/>
<path class="st3" d="M392.4,189.8c-3.3,3.3-7.7,5-13,5.4c0.1-14.2-9.3-33.4-25.8-49.9c-17.3-17.3-37.5-26.8-51.9-25.7
	c0-6.1,1.8-11.3,5.5-15c12.3-12.3,41.4-3.2,64.9,20.3C395.6,148.4,404.7,177.4,392.4,189.8z"/>
<path class="st4" d="M379.4,195.1c-14.4,1-34.6-8.5-51.9-25.7c-16.5-16.5-25.9-35.7-25.8-49.9c14.4-1,34.6,8.5,51.9,25.7
	C370.1,161.7,379.5,180.9,379.4,195.1z"/>
<path class="st3" d="M377.9,374.7c-30.4,25.2-68.9,28.9-86.1,8.2c-4.7-5.7-7.3-12.5-8-20.1c18.8,3.4,42.9-3.8,63.3-20.8
	c22-18.3,33.7-43,31.9-63c9.2,1.6,17.1,5.8,22.7,12.6C418.9,312.3,408.2,349.5,377.9,374.7z"/>
<path class="st4" d="M347.1,342c-20.4,16.9-44.5,24.2-63.3,20.8c-1.9-20,9.8-44.7,31.9-63c20.4-16.9,44.5-24.2,63.3-20.8
	C380.9,299.1,369.2,323.7,347.1,342z"/>
<path class="st3" d="M228.6,404.8c-6,11.8-31.4,11.1-56.8-1.7c-25.4-12.8-41.2-32.7-35.2-44.6c2-4,6.3-6.6,12-7.7
	c3.9,10.9,17.1,23.7,35.3,32.8c16.8,8.4,33.6,11.6,44.8,9.4C230.3,397.4,230.3,401.4,228.6,404.8z"/>
<path class="st4" d="M228.7,393.1c-11.2,2.2-28-1-44.8-9.4c-18.1-9.1-31.4-21.9-35.3-32.8c11.2-2.2,28,1,44.8,9.4
	C211.6,369.4,224.8,382.2,228.7,393.1z"/>
<path class="st3" d="M252.8,170.1c-36.2-9-75.6,11.1-92.2,49c-10.7,24.5-9.6,50.9,1,72.1c-3.9-1-7.9-2.3-11.7-4
	c-39-17.1-55.6-65-37.2-107c18.4-42,65-62.1,103.9-45C232.8,142.4,245.2,154.9,252.8,170.1z"/>
<path class="st4" d="M253.8,242.3c-16.6,37.8-56.1,57.9-92.3,49c-10.6-21.2-11.7-47.7-1-72.1c16.6-37.8,56.1-58,92.2-49
	C263.4,191.3,264.5,217.8,253.8,242.3z"/>
</svg>
