<?xml version="1.0" encoding="utf-8"?>
<!-- Generator: Adobe Illustrator 28.2.0, SVG Export Plug-In . SVG Version: 6.00 Build 0)  -->
<svg version="1.1" id="Layer_1" xmlns="http://www.w3.org/2000/svg" xmlns:xlink="http://www.w3.org/1999/xlink" x="0px" y="0px"
	 viewBox="0 0 500 500" style="enable-background:new 0 0 500 500;" xml:space="preserve">
<style type="text/css">
	.st0{fill:#C8ECE1;}
	.st1{fill:#308D8A;}
</style>
<path class="st0" d="M249.9,500.3c138.1,0,250-111.9,250-250c0-138.1-111.9-250-250-250s-250,111.9-250,250
	C-0.1,388.4,111.9,500.3,249.9,500.3z"/>
<path class="st1" d="M94.8,190.8c-3.1-2.9-0.2-6.5,2.3-8.5c3.2-3,6.3-6.2,9.3-9.1c13.3-13.5,26.6-26.7,41.6-38.1
	c2-6.8,11.5-1.2,7.5,4.3c-18.7,14.9-35.7,32.1-52.7,49l0.2-0.2c0.1,0,0.1-0.1,0.2-0.2C101.1,190.4,97.9,193.6,94.8,190.8z"/>
<path class="st1" d="M350.3,195.8c-0.4-0.4-0.6-1-0.8-1.5c-0.2-0.6-0.2-1.1-0.1-1.7c0.1-0.6,0.3-1.1,0.6-1.6
	c0.3-0.5,0.7-0.9,1.2-1.3c16.8-18.4,33.1-37.2,50.8-54.8c1.6-2.1,5.4-2.4,6.8,0.2c1.4,2.3,0.2,4.7-1.6,6.4
	c-3.9,4.4-8.4,8.3-12.4,12.7c-10.4,10.7-20.1,21.9-29.8,33.1C360.8,190.5,356.2,201,350.3,195.8z"/>
<path class="st1" d="M153.4,140.5c-1,0-2-0.5-2.7-1.2c-0.7-0.7-1.2-1.7-1.2-2.7c0-0.6,0.1-1.2,0.3-1.7c0.2-0.5,0.6-1,1-1.4
	c0.4-0.4,0.9-0.7,1.5-0.9c0.6-0.2,1.1-0.3,1.7-0.2c5.3-0.7,10-1.2,15.2-1.4c77.2-5.3,155-3.1,232.1,0.9c2.3-0.2,4.3,1.9,4.3,4.1
	c-0.1,5.9-7.2,4.1-11.1,4.1C314.4,135.7,233.5,133.5,153.4,140.5z"/>
<path class="st1" d="M345.5,199.3c-1.3,0-2.4-0.1-3.4,0c-44.6-2.5-89.4-2.2-134.1-1.9c-31.8,0.2-63.6,0.4-95.3-0.3
	c-1.2-0.6-2.5-1.1-3.8-1.3c-2-0.7-4-1.2-6.1-1.5c-0.8-0.2-1.6-0.3-2.4-0.5c-0.3-0.1-0.6-0.2-0.9-0.3c-1.1-0.4-2.2-0.5-3.4-0.5
	c-0.1,0-0.1,0-0.2,0c0.1,0,0.1,0,0.2,0h-0.1c-0.9-0.2-1.8-0.3-2.8-0.3c0.1-0.6,0.3-1.1,0.6-1.6c0.3-0.5,0.7-0.9,1.2-1.2
	c2.7-1.9,6.1-2,9.2-1.5c13.2,1.7,26.3,1.3,39.5,1c7.9-0.2,15.8-0.4,23.8-0.2c18.4,0.4,36.8,0.2,55.2,0c23-0.2,46-0.4,69,0.5
	c10.3-0.2,20.6,0.2,30.8,0.6c9.2,0.4,18.4,0.7,27.7,0.7c0.6-0.2,1.2-0.2,1.7-0.1c0.6,0.1,1.1,0.3,1.6,0.6c0.5,0.3,0.9,0.7,1.3,1.2
	c0.3,0.5,0.6,1,0.7,1.6c0.3,4.5-3.6,5.2-7.6,5.2C347.1,199.3,346.3,199.3,345.5,199.3z"/>
<path class="st1" d="M107.3,195.5h0.4C107.5,195.5,107.4,195.5,107.3,195.5z"/>
<path class="st1" d="M99.4,193.4c-1.1-0.4-2.2-0.5-3.4-0.5c-0.1,0-0.1,0-0.2,0c0.1,0,0.1,0,0.2,0h-0.1c-1.1-0.2-2.2-0.3-3.4-0.3
	h-0.3c-0.4-0.8-0.5-1.7-0.4-2.6c0.1-0.9,0.5-1.7,1-2.4c1.5-1.9,2.7-4.8,5.4-4.8c4.6,0,5.4,5.3,2.4,8c0.1,0.5,0,1-0.1,1.5
	c-0.1,0.5-0.4,0.9-0.7,1.3L99.4,193.4z"/>
<path class="st1" d="M116,197.8c-3.9-0.1-8-0.5-11.7-0.5c-4-0.4-8.6,0.7-12.3-1.2c-5.7-4,3.5-15.5,8.6-14.4c3.2,0.7,4.6,5.2,1.8,7.3
	c4.9,0.1,9.6,0.3,14.4,0.6C122.1,190.2,121.3,198.2,116,197.8z"/>
<path class="st1" d="M344.6,226.6c-80.1-3.1-160.2-0.1-240.4-1c-5.1-0.2-5.3-8,0-8.2c82.1,0.7,164.3-1.8,246.4,1
	c5.3-0.1,5.7,8,0.3,8.2C348.8,226.6,346.7,226.6,344.6,226.6z"/>
<path class="st1" d="M395.4,286.1c-47.9-2.4-96.1-1.1-144.2-1.7c-18.4-0.3-36.6-1.4-54.9-0.9c-13.1-0.2-26.2,2.5-39.2,1.6
	c-4.8-1.3-3.8-8.4,1.3-8.1c26.4-0.9,52.9-3.1,79.4-1.1c35.1,0.5,70.1,0,105.2,0.9c17.7,0.1,35.4-0.6,53,1.1c3.7,0.1,9.5-1.1,9.9,4
	c-0.1,5.6-6.8,4.2-10.7,4.2H395.4z"/>
<path class="st1" d="M154.1,284.1l-0.4-0.3l-0.2-0.1C153.8,283.8,154,283.9,154.1,284.1c-21.1-16.8-37.7-38.2-55.8-58
	c-4.3-3.4,0.7-9.7,4.8-6.7c15.9,15.9,28.9,34.4,46,49.1c3.5,3.5,7.4,6.6,11,9.8C163.4,282.1,157.8,287.5,154.1,284.1z"/>
<path class="st1" d="M401.6,285.9c-0.7-0.2-1.3-0.5-1.9-1c-0.5-0.5-0.9-1.1-1.1-1.8c-0.2-0.7-0.3-1.4-0.1-2.1
	c0.1-0.7,0.5-1.4,0.9-1.9c-14.9-18.8-32.3-35.5-50-51.5c-8.1-2.8,0-13.1,5.4-6.3c17.5,15.2,33.8,31.7,48.8,49.4
	c2.3,2.7,3.7,5,5.6,7.7C411.4,283.1,406.1,287.1,401.6,285.9z"/>
<path class="st1" d="M155.2,315.7c-1.1-0.3-2-0.9-2.5-1.9c-0.6-0.9-0.8-2-0.5-3.1c0.6-2.7,3.3-3.4,5.7-3c3.3-0.6,6.6-1,9.9-1.3
	c77.3-4.4,155.1-0.9,232.6-1.3c5.1,0.2,5.3,8,0,8.2C318.7,314,236.4,309.4,155.2,315.7z"/>
<path class="st1" d="M104.8,372.9c-5.8,0.8-7.3-7.6-1.2-8.2c9,0.6,17.9-0.3,26.9-0.7c74.1-1.1,148.1,0.2,222.2,0.7
	c4.6,1,3.8,8.2-0.9,8.1c-82.6-0.2-165.1-2.1-247.6,0.1L104.8,372.9z"/>
<path class="st1" d="M350.7,370.2c-4.5-3.5,0.6-8,3.4-10.6c-0.1,0.1-0.2,0.2-0.3,0.3c15.3-16.5,28.9-34.7,44.8-50.6
	c0.4-4.9,8.1-4.7,8.1,0.3c0.1,1.1-0.2,2.2-0.6,3.2c-0.5,1-1.1,1.9-2,2.6c-12.8,12.6-23.5,27.1-35.6,40.4c-3.9,4.7-8.1,9.1-12.1,13.6
	c-0.7,0.8-1.6,1.3-2.7,1.5C352.6,371.1,351.5,370.8,350.7,370.2L350.7,370.2z"/>
<path class="st1" d="M100.2,370.1c-7-3.2-0.2-9.5,3-12.6c9.1-10.2,18.6-20.7,28.6-29.8c6.2-6.3,12.8-12.3,19.4-18.2
	c1.2-1.2,2.8-2.4,4.5-2.4c4.5-0.2,5.8,6.5,1.5,8c-18.3,15.9-35,33.6-51.2,51.4C104.6,368.7,103.3,371.1,100.2,370.1z"/>
<path class="st1" d="M152.7,311c82.8-7.1,166.8-2.1,250.2-2.6c-15,17.8-28.2,37.4-42.9,55.4l-0.1,0.1c-1.4,1.5-3.3,3.5-4.4,5.6
	c-76.8-0.6-153.7-2.1-230.5-0.8c-8.1,0.4-16,1.2-24.1,1C117.3,349.4,134.3,329.2,152.7,311z"/>
<path class="st1" d="M404.3,281.2c-0.9,0-1.7,0.1-2.4,0c-18.3-2-36.7-1.1-55.1-1.2c-36.5-1-73-0.4-109.5-1
	c-27.5-2.3-55,0.2-82.4,1.2c-3.3-3.2-6.8-6.2-10-9.8c-15.6-14.6-27.8-32.4-41.7-48.8c81.7,0.9,163.4-2.3,245,1.1
	c1.1,0,2.1,0.1,3.2,0.1c0.6,0.4,1.2,0.8,1.9,1C371.2,241.8,389,260.3,404.3,281.2z"/>
<path class="st1" d="M404.3,137.6c0.7,0,1.6,0.1,2.5,0.1c-16.9,17.8-32.6,36.5-48.9,54.8c-0.4,0.3-0.8,0.7-1.1,1.2
	c-9.8,0.1-19.6-0.3-29.3-0.7c-11-0.5-22-0.9-32.9-0.7c-24.6-0.9-49.1-0.7-73.7-0.5c-19.7,0.2-39.3,0.3-59-0.1
	c-8.5-0.3-16.9,0-25.4,0.2c-14.1,0.4-28.2,0.8-42.2-1.1c-0.3-0.1-0.7-0.1-1-0.1c0-0.1,0.1-0.1,0.1-0.2c17.5-18.1,35-36.3,54.3-52.4
	C232.9,130.5,319,133,404.3,137.6z"/>
</svg>
