<?xml version="1.0" encoding="utf-8"?>
<!-- Generator: Adobe Illustrator 28.2.0, SVG Export Plug-In . SVG Version: 6.00 Build 0)  -->
<svg version="1.1" id="Layer_1" xmlns="http://www.w3.org/2000/svg" xmlns:xlink="http://www.w3.org/1999/xlink" x="0px" y="0px"
	 viewBox="0 0 500 500" style="enable-background:new 0 0 500 500;" xml:space="preserve">
<style type="text/css">
	.st0{fill:#10E80C;}
</style>
<path class="st0" d="M140.5,70.4C122.2,33.8,77.6,18.9,41,37.3C15.8,49.8,0,75.6,0,103.7v366.9h49V103.7c0.2-14,11.7-25.1,25.7-24.9
	c9.3,0.1,17.8,5.4,22,13.6l165.1,329.2H207L121,250H66.1l110.7,220.6h164.5L140.5,70.4z"/>
<path class="st0" d="M450.9,29.4v366.9c-0.3,14-11.8,25.1-25.8,24.8c-9.2-0.2-17.6-5.4-21.9-13.5L238.1,78.5H293L379,250h54.8
	L323.2,29.4H158.7l200.7,400.2c18.4,36.6,63,51.4,99.6,33c25.1-12.6,40.9-38.3,40.9-66.3V29.4L450.9,29.4z"/>
</svg>
