<?xml version="1.0" encoding="utf-8"?>
<!-- Generator: Adobe Illustrator 28.2.0, SVG Export Plug-In . SVG Version: 6.00 Build 0)  -->
<svg version="1.1" id="Layer_1" xmlns="http://www.w3.org/2000/svg" xmlns:xlink="http://www.w3.org/1999/xlink" x="0px" y="0px"
	 viewBox="0 0 500 500" style="enable-background:new 0 0 500 500;" xml:space="preserve">
<path d="M418.8,499.9H81.1c-62.1,0-101.4-67-70.2-121.1L219.3,17.6c13.6-23.6,47.7-23.6,61.3,0L489,378.8
	C520.2,432.9,480.9,499.9,418.8,499.9L418.8,499.9L418.8,499.9z M219.1,125.9l-45.4,87.8L64.2,409.6c-7.2,12.5,1.7,28.6,16.8,28.6
	h138L219.1,125.9L219.1,125.9L219.1,125.9z M435.6,409.7L326.1,213.7L280.7,126v312.3h138C433.9,438.3,442.8,422.2,435.6,409.7
	L435.6,409.7z"/>
</svg>
