<?xml version="1.0" encoding="utf-8"?>
<!-- Generator: Adobe Illustrator 28.2.0, SVG Export Plug-In . SVG Version: 6.00 Build 0)  -->
<svg version="1.1" id="uuid-36789759-fe33-48d0-99fc-e1813afae941"
	 xmlns="http://www.w3.org/2000/svg" xmlns:xlink="http://www.w3.org/1999/xlink" x="0px" y="0px" viewBox="0 0 500 500"
	 style="enable-background:new 0 0 500 500;" xml:space="preserve">
<style type="text/css">
	.st0{fill:#FFFFFF;stroke:#000000;stroke-width:2;stroke-miterlimit:10;}
	.st1{stroke:#000000;stroke-width:2;stroke-miterlimit:10;}
	.st2{fill:#FFFFFF;}
	.st3{fill:url(#SVGID_1_);stroke:#000000;stroke-width:2;stroke-miterlimit:10;}
	.st4{fill:none;}
	.st5{fill:url(#SVGID_00000158738888443803019260000005251237839735721089_);}
	.st6{fill:none;stroke:#000000;stroke-width:2;stroke-miterlimit:10;}
	.st7{fill:none;stroke:#000000;stroke-width:2;stroke-linecap:round;stroke-miterlimit:10;}
	.st8{fill:none;stroke:#000000;stroke-linecap:round;stroke-miterlimit:10;}
</style>
<circle class="st0" cx="250" cy="250" r="250"/>
<path class="st0" d="M478.2,250c0,126.1-102.2,228.3-228.3,228.3S21.7,376.1,21.7,250"/>
<path class="st1" d="M21.8,250C21.8,124,124,21.8,250,21.8S478.3,124,478.3,250"/>
<path class="st2" d="M112.4,134.9l-23.2-20.4l2.8-3.1l23.2,20.4L112.4,134.9z"/>
<path class="st2" d="M120.7,111.6l2.9-2.7c0.9,1,2.1,1.7,3.4,2.2c1.3,0.3,2.7,0.3,4-0.1c1.6-0.5,3.1-1.2,4.3-2.3
	c1.1-0.9,2.1-2,2.9-3.2c0.6-0.9,0.9-2.1,0.9-3.2c0-1-0.4-1.9-1-2.6s-1.4-1.2-2.3-1.4c-1.1-0.2-2.3-0.1-3.4,0.4
	c-1.8,0.7-3.5,1.4-5.3,2.3c-1.9,1-3.9,1.7-6,2.3c-1.5,0.3-3,0.3-4.4-0.1c-1.3-0.4-2.4-1.2-3.3-2.3c-1-1.2-1.6-2.7-1.7-4.3
	c-0.1-1.7,0.3-3.4,1.1-4.9c1-1.7,2.3-3.2,3.9-4.5c1.6-1.4,3.5-2.4,5.5-3c1.7-0.5,3.5-0.5,5.2,0c1.7,0.5,3.1,1.5,4.3,2.8l-2.9,2.7
	c-1.1-1.3-2.8-2-4.5-2.1c-2,0.1-3.8,0.9-5.2,2.3c-1.6,1.1-2.8,2.7-3.4,4.5c-0.4,1.3-0.1,2.6,0.7,3.6c0.6,0.8,1.6,1.3,2.7,1.4
	c1.1,0,3.2-0.7,6.3-2.3c2.1-1.1,4.4-2.1,6.7-2.8c1.7-0.5,3.5-0.5,5.1-0.1c1.5,0.5,2.8,1.4,3.8,2.6c1,1.3,1.7,2.9,1.8,4.5
	c0.1,1.8-0.3,3.6-1.1,5.2c-1,1.9-2.3,3.5-4,4.8c-1.9,1.6-4,2.8-6.4,3.5c-1.9,0.6-3.9,0.6-5.8,0C123.6,114.2,122,113.1,120.7,111.6
	L120.7,111.6z"/>
<path class="st2" d="M153.4,63.7l3.6-2l8.7,15.6c1.3,2.1,2.2,4.5,2.6,7c0.2,2-0.2,4-1.2,5.8c-1.4,2.2-3.3,3.9-5.6,5.1
	c-2.1,1.3-4.6,2.1-7.1,2.3c-2,0.1-4-0.6-5.6-1.8c-2-1.7-3.6-3.8-4.8-6.2l-8.7-15.6l3.7-2l8.6,15.5c0.9,1.8,2.1,3.4,3.6,4.8
	c1,0.9,2.4,1.3,3.7,1.3c1.6,0,3.1-0.5,4.5-1.3c2.7-1.5,4.3-3.2,4.7-5s-0.2-4.4-2.1-7.8L153.4,63.7L153.4,63.7z"/>
<path class="st2" d="M177.3,86.1l-11-28.9l11.1-4.2c1.5-0.6,3-1.1,4.6-1.4c1.4-0.3,2.8-0.3,4.2,0c1.3,0.3,2.5,1,3.4,1.9
	c1.1,1,1.9,2.2,2.4,3.6c0.9,2.3,0.9,4.9,0,7.1c-1,2.3-3.5,4.2-7.7,5.8l-7.6,2.9l4.5,11.7L177.3,86.1L177.3,86.1z M175.5,69.5
	l7.6-2.9c2.5-1,4.1-2.1,4.9-3.4c0.7-1.4,0.8-3.1,0.1-4.5c-0.4-1.1-1.1-2.1-2.1-2.7c-0.9-0.6-2-0.9-3.1-0.8c-1.3,0.2-2.5,0.6-3.7,1.1
	l-7.6,2.9L175.5,69.5z"/>
<path class="st2" d="M204,76.5l-6.4-30.2l11.6-2.5c1.6-0.4,3.2-0.6,4.8-0.7c1.4-0.1,2.8,0.1,4.1,0.6c1.2,0.5,2.3,1.3,3.1,2.4
	c2.4,3.2,2.7,7.5,0.7,11c-1.3,2.1-4.1,3.7-8.5,4.5l-7.9,1.7l2.6,12.3L204,76.5L204,76.5z M204.7,59.8l7.9-1.7
	c2.6-0.6,4.4-1.4,5.3-2.6c0.9-1.3,1.2-2.9,0.8-4.4c-0.2-1.2-0.8-2.2-1.7-3c-0.8-0.7-1.9-1.2-3-1.2c-1.3,0-2.6,0.2-3.9,0.5l-7.9,1.7
	l2.3,10.8L204.7,59.8L204.7,59.8z"/>
<path class="st2" d="M229.8,55.9c-0.2-5.1,1-9.2,3.7-12.2s6.6-4.8,10.7-4.8c2.8-0.2,5.5,0.4,7.9,1.7c2.4,1.2,4.3,3.1,5.6,5.5
	c1.4,2.5,2.1,5.3,2.2,8.2c0.2,2.9-0.4,5.8-1.6,8.5c-1.1,2.4-2.9,4.5-5.2,5.8c-2.3,1.4-4.9,2.2-7.6,2.3c-2.8,0.2-5.6-0.4-8.1-1.8
	c-2.4-1.3-4.3-3.2-5.6-5.5C230.7,61.2,229.9,58.6,229.8,55.9L229.8,55.9z M234.1,55.8c-0.1,3.2,1.2,6.3,3.4,8.7
	c4.4,4.1,11.3,3.8,15.4-0.6l0.1-0.1c1.9-2.3,2.8-5.4,2.6-9.3c0-2.3-0.6-4.5-1.6-6.5c-0.9-1.8-2.3-3.2-4-4.2s-3.7-1.4-5.7-1.3
	c-2.8,0.1-5.5,1.3-7.5,3.3C234.8,47.8,233.9,51.1,234.1,55.8L234.1,55.8z"/>
<path class="st2" d="M264.9,70.1l4-30.7l13.8,1.9c2.2,0.2,4.3,0.8,6.3,1.7c1.4,0.8,2.5,2,3.1,3.4c0.7,1.5,0.9,3.2,0.7,4.8
	c-0.2,2.1-1.3,3.9-2.9,5.2c-2.1,1.4-4.5,2.1-7,2c0.8,0.5,1.6,1.1,2.3,1.9c1.2,1.4,2.1,2.9,2.9,4.5l4.3,9.1l-5.1-0.8l-3.3-6.9
	c-1-2-1.8-3.5-2.4-4.6c-0.5-0.8-1.1-1.6-1.8-2.3c-0.5-0.4-1.1-0.8-1.8-1.1c-0.7-0.2-1.5-0.4-2.3-0.4l-4.8-0.6l-1.8,13.6L264.9,70.1z
	 M271.3,53.5l8.9,1.1c1.5,0.3,3,0.3,4.5,0c1-0.2,2-0.7,2.7-1.5c0.7-0.7,1.1-1.7,1.2-2.6c0.2-1.4-0.2-2.8-1.1-3.8
	c-1.3-1.2-3.1-2-4.9-2.1l-9.9-1.3L271.3,53.5z"/>
<path class="st2" d="M302.2,76.8l7.6-26.1l-10-3l1-3.5l24,7l-1,3.5l-10-2.9l-7.6,26.1L302.2,76.8z"/>
<path class="st2" d="M336,89.9l12.7-24.1l-9.2-4.8l1.7-3.2l22.1,11.6l-1.7,3.2l-9.2-4.8l-12.7,24.1L336,89.9z"/>
<path class="st2" d="M351.7,98.5l18.5-24.7l3.4,2.5L366,86.5l13.1,9.8l7.6-10.2l3.3,2.5l-18.5,24.7l-3.3-2.5l8.7-11.6l-13.1-9.8
	l-8.7,11.7L351.7,98.5L351.7,98.5z"/>
<path class="st2" d="M375.9,117.4l22.4-21.3l15.7,16.6l-2.6,2.5l-12.8-13.5l-6.8,6.5l12,12.7l-2.6,2.5L389,110.7l-7.6,7.2l13.3,14.1
	l-2.6,2.5L375.9,117.4L375.9,117.4z"/>
<path d="M114.2,400.4l2.2,3.6c-2.6,1.7-5.6,2.5-8.7,2.2c-2.9-0.4-5.7-1.7-7.7-3.9c-2.1-1.9-3.6-4.4-4.3-7.1
	c-0.5-2.5-0.2-5.2,0.8-7.5c1-2.6,2.6-5.1,4.6-7.1c2-2.1,4.5-3.7,7.3-4.7c2.4-0.8,5.1-0.9,7.6-0.2c2.5,0.7,4.8,2.1,6.6,4
	c2,1.9,3.4,4.4,3.9,7.2c0.4,2.7-0.2,5.5-1.6,7.8l-3.5-2.2c1-1.7,1.4-3.7,1.2-5.7c-0.3-1.8-1.2-3.5-2.6-4.7c-1.5-1.5-3.3-2.6-5.4-3
	c-1.9-0.3-3.9,0-5.6,0.9c-1.8,0.9-3.5,2.1-4.9,3.5c-1.7,1.6-3.1,3.6-4,5.7c-0.8,1.8-1,3.8-0.6,5.7c0.4,1.8,1.4,3.4,2.7,4.7
	c1.5,1.5,3.4,2.5,5.5,2.7C110,402.4,112.3,401.7,114.2,400.4z"/>
<path d="M150.3,402.9l3.3,2.4l-10.4,14.5c-1.4,2.1-3.1,3.9-5.2,5.4c-1.7,1.1-3.7,1.6-5.7,1.4c-2.5-0.3-4.8-1.3-6.8-2.8
	c-2.1-1.4-3.7-3.2-4.9-5.4c-0.9-1.8-1.1-3.9-0.7-5.8c0.7-2.5,1.9-4.9,3.6-7l10.4-14.5l3.3,2.4L126.8,408c-1.2,1.6-2.2,3.4-2.9,5.3
	c-0.3,1.3-0.2,2.7,0.4,3.9c0.7,1.4,1.7,2.6,3,3.4c2.4,1.7,4.5,2.5,6.4,2.1s3.9-2.1,6.1-5.3L150.3,402.9L150.3,402.9z"/>
<path d="M144.2,435.6l13.8-27.7l12.3,6.1c1.9,0.9,3.7,2.1,5.2,3.5c1,1.1,1.7,2.6,1.8,4.2s-0.2,3.3-0.9,4.7c-0.9,1.9-2.4,3.3-4.4,4
	c-2.4,0.7-4.9,0.6-7.2-0.4c0.6,0.7,1.1,1.6,1.5,2.5c0.6,1.7,1,3.4,1.2,5.2l1.1,9.9l-4.5-2.3l-0.8-7.6c-0.2-2.2-0.5-3.9-0.7-5.1
	c-0.2-1-0.5-1.9-0.9-2.8c-0.3-0.6-0.8-1.1-1.3-1.6c-0.6-0.4-1.3-0.8-2-1.1l-4.2-2.1l-6.1,12.3L144.2,435.6L144.2,435.6z M155.6,422
	l7.9,3.9c1.3,0.7,2.7,1.2,4.2,1.4c1,0.1,2.1-0.1,3-0.6s1.5-1.2,2-2.1c0.6-1.2,0.7-2.7,0.2-3.9c-0.8-1.6-2.2-2.8-3.9-3.5l-8.8-4.4
	L155.6,422L155.6,422z"/>
<path d="M175.3,450.2l9.1-29.5l13.1,4.1c2.1,0.5,4,1.4,5.8,2.6c1.2,1,2.1,2.3,2.4,3.8c0.4,1.6,0.4,3.3-0.1,4.9
	c-0.6,2-1.9,3.7-3.7,4.7c-2.2,1.1-4.7,1.4-7.1,0.8c0.7,0.6,1.4,1.4,1.9,2.2c0.9,1.6,1.6,3.2,2,4.9l2.6,9.6l-4.9-1.5l-2-7.3
	c-0.6-2.1-1.1-3.8-1.6-4.9c-0.3-0.9-0.8-1.8-1.4-2.6c-0.4-0.5-1-1-1.5-1.3c-0.7-0.3-1.4-0.6-2.1-0.8l-4.5-1.4l-4,13.1L175.3,450.2
	L175.3,450.2z M184.3,434.9l8.4,2.6c1.4,0.5,2.9,0.7,4.3,0.7c1,0,2-0.4,2.8-1.1c0.8-0.6,1.3-1.5,1.6-2.4c0.4-1.3,0.3-2.7-0.5-3.9
	c-1.1-1.4-2.6-2.4-4.4-2.8l-9.3-2.9L184.3,434.9z"/>
<path d="M208.2,459.5l4.4-30.6l22.1,3.2l-0.5,3.6l-18.1-2.6l-1.4,9.4l16.9,2.5l-0.5,3.6l-16.9-2.5l-1.5,10.4l18.8,2.7l-0.5,3.6
	L208.2,459.5L208.2,459.5z"/>
<path d="M239.8,463.5l-0.5-30.9l4.2-0.1l16.6,24l-0.4-24.2l3.9-0.1l0.5,30.9l-4.2,0.1l-16.6-24l0.4,24.3L239.8,463.5L239.8,463.5z"
	/>
<path d="M281.5,461l-4.2-26.9l-10,1.6l-0.6-3.6l24.2-3.8l0.6,3.6l-10.1,1.6l4.2,26.9L281.5,461L281.5,461z"/>
<path d="M331.3,435.7l4.2-0.5c0.5,3-0.1,6.1-1.6,8.8c-1.5,2.5-3.9,4.4-6.7,5.4c-2.6,1.1-5.5,1.5-8.3,1c-2.5-0.6-4.8-1.9-6.5-3.8
	c-2-2.1-3.5-4.5-4.5-7.2c-1.1-2.7-1.5-5.6-1.3-8.5c0.3-2.6,1.3-5,3-7s3.9-3.5,6.3-4.4c2.6-1.1,5.4-1.3,8.1-0.6
	c2.6,0.8,4.9,2.4,6.5,4.6l-3.4,2.3c-1.2-1.6-2.8-2.8-4.7-3.5c-1.8-0.5-3.7-0.3-5.3,0.4c-2,0.7-3.7,2-5,3.7c-1.1,1.6-1.6,3.5-1.5,5.5
	s0.5,4,1.2,5.9c0.8,2.2,2,4.3,3.5,6c1.3,1.5,3,2.5,4.9,2.8c1.8,0.3,3.7,0.2,5.4-0.5c2-0.7,3.7-2.1,4.7-3.9
	C331.4,440.2,331.7,437.9,331.3,435.7L331.3,435.7z"/>
<path d="M337.8,428.4c-2.6-4.4-3.4-8.6-2.6-12.5c0.9-3.9,3.4-7.2,7-9.2c2.3-1.4,5-2.2,7.7-2.2c2.6,0,5.2,0.8,7.4,2.3
	c2.4,1.6,4.3,3.7,5.8,6.2s2.4,5.3,2.6,8.2c0.2,2.6-0.4,5.3-1.8,7.6c-1.3,2.3-3.2,4.1-5.5,5.5s-5,2.2-7.8,2.1c-2.6,0-5.2-0.8-7.4-2.3
	C341,432.7,339.1,430.7,337.8,428.4L337.8,428.4z M341.5,426.3c1.5,2.9,4,5,7.1,6.1c5.6,1.6,11.3-1.7,12.9-7.3
	c0-0.1,0.1-0.3,0.1-0.4c0.6-2.9-0.1-6-2.1-9.4c-1.1-2-2.6-3.7-4.4-5c-1.6-1.1-3.5-1.8-5.4-1.9s-3.9,0.5-5.5,1.5
	c-2.4,1.4-4.2,3.7-4.9,6.4C338.3,418.9,339.1,422.3,341.5,426.3L341.5,426.3z"/>
<path d="M377.3,421.1l-18.7-24.6l3.3-2.5l18.7,24.6L377.3,421.1z"/>
<path d="M388.1,413l-21.3-22.4l3-2.9l28.5,6.4l-16.8-17.5l2.8-2.7l21.3,22.4l-3,2.9l-28.5-6.4l16.7,17.6L388.1,413L388.1,413z"/>
<radialGradient id="SVGID_1_" cx="249.558" cy="155.6626" r="147.4991" fx="281.3288" fy="116.2189" gradientTransform="matrix(1.1356 0 0 -1.1356 -33.898 426.7705)" gradientUnits="userSpaceOnUse">
	<stop  offset="0.5" style="stop-color:#97E8FF"/>
	<stop  offset="0.64" style="stop-color:#94E6FF"/>
	<stop  offset="0.74" style="stop-color:#8BE2FF"/>
	<stop  offset="0.83" style="stop-color:#7BDAFF"/>
	<stop  offset="0.91" style="stop-color:#65D0FF"/>
	<stop  offset="0.98" style="stop-color:#49C3FF"/>
	<stop  offset="1" style="stop-color:#41BFFF"/>
</radialGradient>
<circle class="st3" cx="249.5" cy="250" r="167.5"/>
<path class="st4" d="M292,349.7c11.8-1.9,21-4.4,28-14.2c6.1-8.5,10.4-18.1,15-27.5c4.7-9.7,10.5-19.4,12.8-30
	c2.7-12.5-0.3-20.2-2.7-32c-2-9.9,2.3-20.2-0.2-30.3c-1.4-5.9-5.4-10.3-7.2-16c-1.7-5.7-1.4-11.7-3.5-17.4
	c-6.8-18.5-24.8-33.1-41.9-41.7c-18.9-9.5-40.9-12.5-61.8-9.4c-16.5,2.4-40.4,11-52.4,23c-23.5,23.4-22.2,77.5-10.1,105.3
	c4,9.1,11.4,18.2,13.6,27.7c2.1,9.6,0.9,22.7-0.4,32.5c-2.9,22.6-13,39.2-34.1,46.5c-4.3,1.6-8.4,3.5-12.4,5.7l0,0
	c8.1-4.2,18.5-5.5,25.8-10.4c8.7-5.9,14.6-18.3,17.7-28c6.5-20.4,5.7-42.9-4-61.5c-16.3-31.1-20.9-76.7-2.8-108.6
	c8.7-15.3,28.8-23.8,45-29.2c19.4-6.4,42.2-5.6,61.6,0.5c18.8,5.9,36.8,18,48.7,33.9c7.6,10.1,7.7,19.9,11.2,31.4
	c3.6,11.4,8.6,18.4,7.9,31c-0.3,5.3-1.6,10.3-0.4,15.6c1.2,5.8,3.8,9.7,4,15.9c0.3,11-2.5,21.1-7.1,30.9c-7.4,15.8-16,44.2-32.8,52
	C304.1,347.7,297.8,348.8,292,349.7L292,349.7L292,349.7z"/>
<path class="st4" d="M359.1,376.6l0.9-0.8l0,0c-49.7,43.7-120.5,54-180.6,26.3c-16.4-7.6-31.6-17.9-44.8-30.3l0,0
	c48.5,45.7,119.4,58.3,180.7,32.1C331.2,397.3,346,388,359.1,376.6L359.1,376.6z"/>
<path class="st4" d="M360,375.9c-13.5-6.2-28.2-11.6-43.2-11.6c-11.6,0-27.8,2.1-24.7-14.6l0,0c-3.1,16.6,13.1,14.6,24.7,14.6
	C331.7,364.3,346.5,369.7,360,375.9z"/>
<path class="st4" d="M359.2,375.5l0.8,0.4c-49.7,43.7-120.5,54-180.6,26.3c-16.4-7.6-31.6-17.9-44.8-30.3
	c8.1-4.2,18.5-5.5,25.8-10.4c8.7-5.9,14.6-18.3,17.7-27.9c6.5-20.4,5.7-42.9-4-61.5c-16.2-31-20.8-76.7-2.7-108.6
	c8.7-15.3,28.8-23.8,45-29.2c19.4-6.4,42.2-5.6,61.6,0.5c18.8,5.9,36.8,18,48.7,33.9c7.6,10.1,7.7,19.9,11.2,31.4s8.6,18.4,7.9,31
	c-0.3,5.3-1.6,10.3-0.4,15.6c1.2,5.8,3.8,9.7,4,15.9c0.3,11-2.5,21.1-7.1,30.9c-7.4,15.8-16,44.2-32.8,52
	c-5.3,2.5-11.7,3.5-17.4,4.5c-3.1,16.4,12.7,14.6,24.3,14.6C331.3,364.3,345.8,369.4,359.2,375.5L359.2,375.5z"/>
<path class="st4" d="M134.6,371.9l0.5,0.1L134.6,371.9c62.8,59.3,160.5,61,225.3,4l-0.4,0.1l0.4-0.1c-13.5-6.2-28.2-11.6-43.2-11.6
	c-11.6,0-27.8,2.1-24.7-14.6c11.8-1.9,21-4.4,28-14.2c6.1-8.5,10.4-18.1,15-27.5c4.7-9.7,10.5-19.4,12.8-30
	c2.7-12.5-0.3-20.2-2.7-32c-2-9.9,2.3-20.2-0.2-30.3c-1.4-5.9-5.4-10.3-7.2-16s-1.4-11.7-3.5-17.4c-6.8-18.5-24.8-33.1-41.9-41.7
	c-19-9.5-40.9-12.5-61.8-9.4c-16.5,2.4-40.4,11-52.4,23c-23.5,23.4-22.3,77.4-10.1,105.3c4,9.1,11.4,18.2,13.6,27.8
	c2.1,9.6,0.9,22.7-0.4,32.5c-2.9,22.5-13,39.1-34.1,46.4C142.8,367.9,138.6,369.8,134.6,371.9L134.6,371.9z"/>
<path class="st4" d="M244.8,319.5c-17.2-5.1-21.6-34.2-25.3-49c-5.1-20.4-9.8-46.3,4.6-64.2c16.7-20.8,46.8-13.9,60.7,6.2
	c12,17.3,14.3,40.7,8.4,60.6C288.1,290.7,267.2,323.9,244.8,319.5z"/>
<path class="st4" d="M220.1,336.1c-4.9-12.5-5.9-26.6-8.4-39.7c-2.5-12.9-5.9-25.5-8.8-38.3c-6.9-30.4-4.9-70.3,30.4-81.5
	c35-11.1,65.3,15.3,74.2,47.5c8.1,29.3,2.9,60.2-15.6,84.5C278.8,326,234.7,379.7,220.1,336.1L220.1,336.1L220.1,336.1z"/>
<path class="st4" d="M215.8,367.3c-12-11.4-10.2-30.5-10.9-45.6c-0.7-15.4-2.4-30.7-6.3-45.7c-8.8-33.6-21.1-77.8,12.5-102.7
	c36-26.7,85.2-5.8,101.3,32.8c14.1,33.8,12.1,73.6-8.8,104.1c-9.3,13.6-22.7,23.4-31.2,37.5c-10.9,18.2-22.8,35.4-47.1,25.6
	C221.8,371.9,218.6,369.9,215.8,367.3z"/>
<path class="st4" d="M196.5,364.4c-3.7-16.9,1.4-35.4,1-52.6c-0.5-18-4.7-33.8-10.1-50.7c-13.2-40.8-8-92.4,39.7-105.8
	c47.4-13.2,87,19.4,97.8,64.1c10.2,42.6,0.4,84.2-32.2,114.2c-7.2,6.6-12.6,12.9-15.5,22.4c-3,9.9-3.1,19.9-12,26.7
	c-16.1,12.2-47.1,8.3-61.2-5.6C200.3,373.6,197.8,369.2,196.5,364.4z"/>
<path class="st4" d="M189.5,378c-10.5-16.3,2.3-43.6,3-61.8c0.7-19.9-3.6-36.3-10.3-54.8c-16.7-46-6.5-102.9,48-114.1
	c51.5-10.6,91.7,25.5,101.2,74c3.9,19.9,5.9,43.8-0.5,63.3c-7.8,23.8-20.7,39.7-39.1,56c-16.5,14.6,0.1,38.8-18.2,50.9
	c-19,12.5-50.3,8.7-69.5-1.4C198.4,387.1,193.1,383.4,189.5,378L189.5,378z"/>
<path class="st4" d="M179.1,380.2c-8.5-13.9,6.3-38.3,8.5-53.2c2.1-14.2,2.6-30.7-1.3-44.6c-5.1-17.7-14.4-32.7-16.1-51.5
	c-1.7-19.2,0.2-41.9,10.2-58.8c20.7-35,75.2-38.8,108.1-21.8c38.3,19.7,45.2,57.9,49.3,96.7c2.3,21.6-1,37.8-10.6,57.3
	c-4.1,8.2-8.3,16.7-14.1,23.8c-6.3,7.6-15.3,10.3-22,16.9c-2.6,2.4-4.4,5.6-5,9.1c-0.9,8.8,3.7,16.1,6.9,23.8c0.2,1.3,0.5,2.7,0.7,4
	c-0.2,1.5-0.4,3-0.7,4.5c-8.1,19.3-42,20-59.1,18.4C215.8,403.1,189.5,397.2,179.1,380.2L179.1,380.2L179.1,380.2z"/>
<path class="st4" d="M168,372.4c4.3-17.3,15-31.5,17.4-49.7c1.9-14.6,2.3-31.4-3.4-45c-14.3-34.1-25.9-76.6-3.6-110.8
	c20.9-32.1,73.4-36.6,105.8-23c41.3,17.4,53.5,56.8,56.2,97.8c1.4,20.2,3.5,34.1-5.1,53.5c-7.3,16.3-15.3,36.6-31.5,45.9
	c-3.8,2.2-7.9,3.7-11.8,5.8c-2.1,1.7-3.4,4.2-3.6,6.8c0,0.9-0.1,1.8-0.2,2.7c0.2,0.9,0.3,1.7,0.4,2.6c0.7,3,2.2,5.8,4.2,8.2
	c0.7,0.7,1.4,1.4,2,2.1l0.4,0.3l1.7,1.9l1.6,1.1c1.1,1.3,2.3,2.4,3.7,3.4c0.9,1.4,2,2.7,3.2,3.9c0.4,1.5,0.9,2.9,1.4,4.4
	c-0.3,1.5-0.7,3-1,4.5c-9.9,16.8-37.9,20.7-55.3,21.2c-19.7,0.6-40-3-58-11.4c-9.4-4.3-21.9-11.2-24.5-22.1
	C168,375.2,168,373.8,168,372.4L168,372.4z"/>
<path class="st4" d="M160.5,379.9c-0.1-0.2-0.2-0.4-0.4-0.6c-0.2-1.5-0.5-2.9-0.7-4.4c0.4-1.4,0.9-2.7,1.3-4.1
	c0.9-1.1,1.7-2.3,2.4-3.6c22.1-26.1,28.4-65.7,13.4-96.3c-15.2-31.2-22.8-86.4,5.1-113.8c27.6-27.1,76.8-29.9,109.9-12.9
	c18,9.2,35.2,24.6,41.1,44.5c2.5,8.5,5.6,16.7,8.2,25.1c2.8,9.2,1.2,18,1.6,27.3c0.4,8.5,3.8,16.2,3.5,24.9
	c-0.3,9.5-3,18.2-6.8,26.8c-7.7,17.5-16.5,42.4-34.8,50.9c-3.9,1.6-7.8,3.1-11.8,4.3l-1.4,1.3c-0.6,1.3-1,2.7-1.2,4.1
	c0,1.8,0.1,3.5,0.4,5.3c0.7,2.1,1.9,4.1,3.5,5.7c0.8,0.5,1.5,1,2.1,1.6l0.4,0.1l1.9,1.5c6.2,2.6,12.5,5,18.7,7.6
	c1.7,1.4,3.4,2.9,5,4.5c0.2,1.5,0.4,3,0.7,4.5c-0.8,1.4-1.5,2.9-2.1,4.3c-1.4,1.3-2.7,2.7-3.8,4.2c-34.8,26.5-87,26.1-126,9.3
	C179.9,397.3,165.9,390.8,160.5,379.9L160.5,379.9z"/>
<path class="st4" d="M155.9,383.7l-1.1-0.9c-0.9-1.4-1.9-2.8-3-4.1c-0.3-1.4-0.6-2.9-1-4.3c0.8-1.4,1.5-2.8,2.3-4.2
	c1.6-1,3.1-2.2,4.4-3.5l2.1-1.1c0.7-0.7,1.4-1.4,2.1-2.1c13.8-12.1,20.2-32.4,21.1-50.2c0.4-8.5,1.5-19.3-0.8-27.5
	c-2.6-9.5-9.4-18.2-13.2-27.4c-12.2-29.5-12.9-88,17.1-107.8c32.9-21.6,75.8-25.8,110.5-5.9c17.8,10.2,33.9,25.9,38.5,46.4
	c2.1,9.1,6.7,17.2,8.6,26.2c1.9,9.3-1,18.7,0.3,27.9c1.4,9.4,4.5,16.3,3.4,26.1c-1.1,9.6-4.8,18-8.9,26.7
	c-7.8,16.3-15.6,40.5-33.8,47.4c-3.9,1.4-8,2.6-12.1,3.4l-1.2,0.7c-1.3,4.4-0.9,9.6,2.5,13c0.9,0.5,1.7,1.2,2.5,1.9
	c13.5,5.8,28.6,2.3,40.8,12.1c0.3,1.5,0.7,3,1.1,4.5c-0.8,1.3-1.6,2.7-2.1,4.2c-1.4,1.1-2.6,2.4-3.7,3.9
	c-39.3,31-96.6,33.7-142.2,15.7C178.3,399.9,164.8,393.4,155.9,383.7L155.9,383.7z"/>
<path class="st4" d="M150.4,383.5c-1.8-1.6-3.6-3.3-5.4-4.9c-0.7-1.3-1.5-2.5-2.5-3.7c0.2-1.5,0.7-3,1.2-4.4
	c4.1-2.6,8.5-4.7,13.1-6.1l0.6-0.4c1.6-0.5,3.1-1.4,4.2-2.7c23.4-22,26.8-62.5,12.8-89.6c-15.9-30.8-20-73-4.1-105.1
	c8.3-16.8,27.5-25.3,44.5-31.4c19.3-6.9,42.2-6.3,61.7-0.6c18.7,5.6,35.4,16.6,47.9,31.6c6.1,7.2,10.2,15.9,12,25.2
	c1.8,9.4,7,17,8.7,26.3c1.8,9.9-2,20.1,0.4,29.7c2.5,10.2,4.5,17.8,2.5,28.7c-3.3,17.4-14.2,36.2-22.9,51.5c-3,5.1-6.6,10-10.6,14.4
	c-6.2,4.3-14.5,6.3-22,7.2l-0.6,0.3c-2.1,8.1,1.2,12.8,8.9,14.9c6.9,1.9,14.4,0.2,21.4,1c9,0.9,16.9,4.3,25.1,7.7
	c1.3,1.4,2.4,2.8,3.5,4.3l-0.4,0.5l-1.5,3.5c-1.4,1-2.6,2.2-3.7,3.6c-1.5,1.1-2.9,2.2-4.3,3.4c-42,31.6-103,36.1-151.3,17.3
	C175.7,400.5,161.6,393.3,150.4,383.5L150.4,383.5z"/>
<linearGradient id="SVGID_00000170252097117403607980000006273796032287992742_" gradientUnits="userSpaceOnUse" x1="134.6" y1="273.8478" x2="359.9" y2="273.8478">
	<stop  offset="6.135471e-04" style="stop-color:#B0B1B1"/>
	<stop  offset="1" style="stop-color:#C9C9C9"/>
</linearGradient>
<path style="fill:url(#SVGID_00000170252097117403607980000006273796032287992742_);" d="M316.1,341.1c3.6-5.6,8.5-10.1,11.5-18.3
	c0.6-1.6,5.4-9.7,5.9-11.4c0.7-2.1,5.8-11.6,11.2-23.5c6-13.1,4.5-29.5,4.4-31.2c-0.6-5.4-5.5-8.6-4.1-18.1s1.5-21.3-1.6-28
	c-3.2-6.8-5.8-7.2-6.4-16.9s-6-19.2-8.6-22.7c-2.5-3.6-20.9-28.5-54.7-37.4c-30.4-7.9-55.4,0-60,1.6c-0.5,0.2-0.9,0.4-1.4,0.6
	c-11.7,5.4-23.2,11.1-27.1,13.1c-1,0.5-1.9,1-2.7,1.6c-20.1,14.5-22.3,51.8-21.9,74.5c0.4,23.2,8.4,36.3,10,39.9
	c1.1,2.6,6.4,12.3,9.3,17.7c1.3,2.4,2,5.1,2,7.8V310c-0.4,27.8-12.9,43.6-20,50.4c-2.5,2.3-5.6,3.8-8.9,4.3
	c-5,0.8-12.9,4.5-18.4,7.3c62.9,59.2,160.5,60.9,225.3,3.9c-9-4.1-30.2-12.9-45.4-11.5c-19.7,1.9-21.9-4.5-22.5-6.3
	c-1.1-2.9-0.1-8.4-0.1-8.4C297.2,349,313.2,345.6,316.1,341.1L316.1,341.1z"/>
<path class="st6" d="M316.1,341.1c3.6-5.6,8.5-10.1,11.5-18.3c0.6-1.6,5.4-9.7,5.9-11.4c0.7-2.1,5.8-11.6,11.2-23.5
	c6-13.1,4.5-29.5,4.4-31.2c-0.6-5.4-5.5-8.6-4.1-18.1s1.5-21.3-1.6-28c-3.2-6.8-5.8-7.2-6.4-16.9s-6-19.2-8.6-22.7
	c-2.5-3.6-20.9-28.5-54.7-37.4c-30.4-7.9-55.4,0-60,1.6c-0.5,0.2-0.9,0.4-1.4,0.6c-11.7,5.4-23.2,11.1-27.1,13.1
	c-1,0.5-1.9,1-2.7,1.6c-20.1,14.5-22.3,51.8-21.9,74.5c0.4,23.2,8.4,36.3,10,39.9c1.1,2.6,6.4,12.3,9.3,17.7c1.3,2.4,2,5.1,2,7.8
	V310c-0.4,27.8-12.9,43.6-20,50.4c-2.5,2.3-5.6,3.8-8.9,4.3c-5,0.8-12.9,4.5-18.4,7.3c62.9,59.2,160.5,60.9,225.3,3.9
	c-9-4.1-30.2-12.9-45.4-11.5c-19.7,1.9-21.9-4.5-22.5-6.3c-1.1-2.9-0.1-8.4-0.1-8.4C297.2,349,313.2,345.6,316.1,341.1L316.1,341.1z
	"/>
<path class="st7" d="M296.6,247.7l15.8,46.1c0.1,0.2,0,0.4-0.2,0.5h-0.1l-39.7,0.1"/>
<circle class="st1" cx="320.7" cy="241.4" r="6.6"/>
<line class="st7" x1="262.8" y1="316.1" x2="315" y2="316.1"/>
<path class="st7" d="M204.4,263.3c0,0-1.6,18.5,3.6,30.2c5.1,11.8,29.2,30.2,38.8,40.3c10.9,11.6,22.9,15.4,31.8,16.3
	c3.5,0.3,7.1,0.2,10.6-0.2c1.8-0.2,2.9-0.4,2.9-0.4"/>
<path class="st8" d="M209.2,346.7c0,0-9.9,1.1-12,9.9c-2,8.5-7.3,8-10.9,8"/>
<path class="st8" d="M165.9,363.7c0,0-2.3,0.4-11.6,1"/>
<path class="st8" d="M209.2,305.1c0,0,3.9,13.2-2.7,23.8"/>
<path class="st8" d="M266.9,354.5c0.5,1.9,1.2,3.8,2.1,5.7c2.9,5.2,5.5,4.5,5.5,4.5"/>
<circle class="st1" cx="254" cy="241.4" r="6.6"/>
</svg>
