<?xml version="1.0" encoding="utf-8"?>
<!-- Generator: Adobe Illustrator 28.2.0, SVG Export Plug-In . SVG Version: 6.00 Build 0)  -->
<svg version="1.1" id="Layer_1" xmlns="http://www.w3.org/2000/svg" xmlns:xlink="http://www.w3.org/1999/xlink" x="0px" y="0px"
	 viewBox="0 0 500 500" style="enable-background:new 0 0 500 500;" xml:space="preserve">
<style type="text/css">
	.st0{fill:#3498DB;}
	.st1{fill:#FFFFFF;}
</style>
<circle class="st0" cx="250" cy="250" r="250"/>
<path class="st1" d="M240.8,32c-5.2,3.1-24.7,14.7-43.1,25.6c-18.5,11-40.7,24.1-49.3,29.1c-8.6,5.1-24.6,14.5-35.6,21
	c-10.9,6.4-25.4,15-32.2,19.1L68.2,134v116.4V367l15.6,9.1c8.6,5,25.5,14.8,37.5,21.7c12,6.9,30.5,17.8,41.2,24.2
	c10.7,6.4,25.2,14.9,32.2,19c7,4.1,22.5,13.1,34.2,20l21.5,12.6l13.6-7.9c7.5-4.3,25.8-15,40.7-23.8c35.2-20.8,86.6-50.8,96.3-56.3
	c4.3-2.4,12.9-7.4,19.2-11l11.5-6.6V251.1V134.3l-11.1-6.7c-6.2-3.8-21.6-13-34.4-20.6c-12.8-7.6-30.9-18.3-40.3-23.9
	c-9.4-5.6-29.2-17.4-44.1-26.2C287,48.2,269.6,37.7,263,33.8c-6.4-4-12-7.3-12.3-7.4C250.4,26.3,246,28.7,240.8,32z M261.4,67.4
	c77.1,45.7,102.8,61.7,101.6,63c-1.6,1.5-31.1,19-32,19c-0.6,0-8.5-4.6-17.6-10.1c-9.1-5.5-19.5-11.9-23.2-14
	c-24.8-14.9-39.1-23.2-39.5-23.2c-0.4,0-18.4,10.7-40.1,23.7l-39.5,23.8l-16.5-9.7c-9.1-5.3-16.5-10-16.5-10.2
	c0.1-0.6,7.1-4.9,67.3-41.2c21.6-13,40.4-24.4,41.7-25.4c1.3-0.9,2.8-1.8,3.1-1.8C250.4,61.2,255.5,64,261.4,67.4z M189,192.8
	c42,25.2,95.7,57.5,119.1,71.5c23.5,14,45.8,27.4,49.7,29.8c3.9,2.3,7.1,4.1,7.2,4c0.2-0.2,0.4-28.3,0.5-62.4
	c0.2-34.1,0.5-64.5,0.8-67.4l0.4-5.3l17.2-10.1c9.5-5.5,17.4-9.9,17.5-9.7c0.5,0.5,0.5,221.4,0,221.9c-0.3,0.4-50.4-29.4-108.4-64.5
	c-3.6-2.2-19-11.5-34.1-20.6c-47.1-28.4-99.1-59.9-110.5-66.9c-6-3.8-11.7-7.3-12.5-7.8c-1.6-0.9-1.7,2.6-1.7,68.6v69.5l-16.3,9.6
	c-9,5.3-17.2,10-18,10.3c-1.6,0.6-1.7-5.1-1.7-111.7c0-61.8,0.3-112.6,0.6-112.9c0.3-0.3,3.6,1.4,7.2,3.8
	C109.5,144.8,147,167.5,189,192.8z M320.2,172.3l15.7,9.8l0.5,33.4c0.2,18.4,0.2,33.5-0.1,33.5c-0.2,0-7.7-4.4-16.5-9.6l-16-9.7
	v-33.5c0-18.5,0.2-33.6,0.4-33.6C304.4,162.6,311.6,167,320.2,172.3z M174.1,260.5c5.4,3.2,12.6,7.7,16.2,10l6.4,4.1v32.2
	c0,19.8-0.4,32.2-0.9,32.2c-0.9,0-10.5-5.4-24.4-13.7l-7.9-4.7v-32.9c0-18.2,0.2-33,0.5-33C164.1,254.6,168.8,257.3,174.1,260.5z
	 M194.6,365.3c11.3,6.7,28.3,16.7,37.5,22.3c9.4,5.6,17.5,10.1,18.2,10.1c1.3,0,8.3-4.1,48.6-28.4c14.9-8.9,27.4-16.2,28-16.2
	c0.9,0,34.7,19.8,34.7,20.4c0,0.2-6.7,4.3-14.9,9.1c-8.2,4.7-33.3,19.6-55.7,32.9c-37.2,22.1-40.9,24.1-42.7,22.9
	c-2.9-1.9-71.5-42.5-90.3-53.5c-9-5.3-17.3-10.2-18.4-11c-2.1-1.4-1.9-1.7,9.6-8.3c6.4-3.7,14.1-8.2,17-10.1
	c2.8-1.8,5.8-3.1,6.4-2.8C173.4,353,183.3,358.7,194.6,365.3z"/>
</svg>
