<?xml version="1.0" encoding="utf-8"?>
<!-- Generator: Adobe Illustrator 28.0.0, SVG Export Plug-In . SVG Version: 6.00 Build 0)  -->
<svg version="1.1" id="Layer_1" xmlns="http://www.w3.org/2000/svg" xmlns:xlink="http://www.w3.org/1999/xlink" x="0px" y="0px"
	 viewBox="0 0 500 500" style="enable-background:new 0 0 500 500;" xml:space="preserve">
<path d="M24.2,361.9l93.7-158c-3.7-4.3-5.9-9.9-5.9-16c0-2.2,0.3-4.3,0.8-6.3L24.2,133V361.9z"/>
<path d="M30.4,377.8L238.8,500l-97-163.5c-1.5,0.3-3.1,0.4-4.7,0.4c-7.2,0-13.6-3-18.2-7.7L30.4,377.8z"/>
<path d="M261.2,500l208.4-122.2l-88.5-48.6c-4.6,4.8-11,7.7-18.2,7.7c-1.6,0-3.2-0.2-4.7-0.4L261.2,500z"/>
<path d="M475.8,361.9V133l-88.6,48.7c0.5,2,0.8,4.1,0.8,6.3c0,6.1-2.2,11.7-5.9,16L475.8,361.9z"/>
<path d="M469.6,122.2L261.2,0l97,163.5c1.5-0.3,3.1-0.4,4.7-0.4c7.2,0,13.6,3,18.2,7.7L469.6,122.2z"/>
<path d="M238.8,0L30.4,122.2l88.5,48.6c4.6-4.8,11-7.7,18.2-7.7c1.6,0,3.2,0.2,4.7,0.4L238.8,0z"/>
<path d="M338.6,305.8c-0.5,2-0.8,4.1-0.8,6.3c0,7.6,3.5,14.5,9,19l-88.4,149.1V261.7L338.6,305.8z"/>
<path d="M153.2,331.1l88.4,149.1V261.7l-80.3,44.1c0.5,2,0.8,4.1,0.8,6.3C162.2,319.7,158.7,326.5,153.2,331.1z"/>
<path d="M338.6,194.2l-80.3,44.1V19.8l88.4,149.1c-5.5,4.6-9,11.4-9,19C337.8,190.1,338.1,192.2,338.6,194.2z"/>
<path d="M153.2,168.9l88.4-149.1v218.5l-80.3-44.1c0.5-2,0.8-4.1,0.8-6.3C162.2,180.3,158.7,173.5,153.2,168.9z"/>
<path d="M356.6,288c-4.6,1.2-8.7,3.6-11.9,6.9l-81.8-45l81.8-45c3.2,3.3,7.3,5.8,11.9,6.9V288z"/>
<path d="M387.2,318.3c0.5-2,0.8-4.1,0.8-6.3c0-11.6-8-21.3-18.8-24v-76c0.9-0.2,1.8-0.5,2.7-0.8l86.9,146.5L387.2,318.3z"/>
<path d="M237.1,250l-81.8,45c-3.2-3.3-7.3-5.8-11.9-6.9v-76c4.6-1.2,8.7-3.6,11.9-6.9L237.1,250z"/>
<path d="M130.8,212v76c-10.8,2.8-18.8,12.5-18.8,24c0,2.2,0.3,4.3,0.8,6.3l-71.6,39.3l86.9-146.5C129,211.5,129.9,211.7,130.8,212z"
	/>
</svg>
