<?xml version="1.0" encoding="utf-8"?>
<!-- Generator: Adobe Illustrator 28.2.0, SVG Export Plug-In . SVG Version: 6.00 Build 0)  -->
<svg version="1.1" id="Layer_1" xmlns="http://www.w3.org/2000/svg" xmlns:xlink="http://www.w3.org/1999/xlink" x="0px" y="0px"
	 viewBox="0 0 500 500" style="enable-background:new 0 0 500 500;" xml:space="preserve">
<style type="text/css">
	.st0{fill-rule:evenodd;clip-rule:evenodd;}
</style>
<path class="st0" d="M267.7,500H250C111.9,500,0,388.1,0,250C0,111.9,111.9,0,250,0s250,111.9,250,250c0,12.4-0.9,24.5-2.6,36.4h-35
	c2-11.8,3.1-24,3.1-36.4C465.4,131,369,34.6,250,34.6S34.6,131,34.6,250c0,119,96.5,215.4,215.4,215.4h128.1
	C345.4,484.9,307.9,497.2,267.7,500z M426,428.4H250c-98.5,0-178.4-79.9-178.4-178.4c0-98.5,79.9-178.4,178.4-178.4
	S428.4,151.5,428.4,250c0,12.5-1.3,24.7-3.7,36.4h-35.5c3-11.6,4.6-23.8,4.6-36.4c0-79.4-64.4-143.8-143.8-143.8
	S106.2,170.6,106.2,250c0,79.4,64.4,143.8,143.8,143.8h205.3C446.6,406.2,436.8,417.8,426,428.4z M250,356.8h226.8
	c5.2-11.1,9.7-22.6,13.3-34.6H250c-39.9,0-72.2-32.3-72.2-72.2c0-39.9,32.3-72.2,72.2-72.2s72.2,32.3,72.2,72.2
	c0,13.3-3.6,25.7-9.8,36.4h38c4.1-11.4,6.4-23.6,6.4-36.4c0-59-47.8-106.8-106.8-106.8S143.2,191,143.2,250
	C143.2,309,191,356.8,250,356.8z"/>
</svg>
