<svg width="891" height="917" viewBox="0 0 891 917" fill="none" xmlns="http://www.w3.org/2000/svg">
<path d="M625.718 215.52C623.158 221.68 587.558 329.52 574.758 380.8C572.518 389.68 581.158 397.44 589.718 394.24C648.998 372.32 827.958 306.08 882.678 286.24C889.798 283.68 892.758 275.2 888.838 268.72C868.678 235.68 815.798 148.88 815.798 148.88C800.998 124.56 769.238 116.88 744.998 131.68L635.638 198.32C628.118 203.76 628.438 208.88 625.718 215.36V215.52Z" fill="url(#paint0_linear_489_33)"/>
<path d="M867.638 575.04L727.158 482.96H727.078C720.918 478.88 713.478 477.2 706.198 478.4L220.678 566.72C211.238 568.16 207.558 554.88 216.438 551.28L428.358 466.32C435.878 463.28 438.198 453.84 432.918 447.68L287.318 276.4C283.558 272 289.158 265.84 293.878 269.12L494.678 406.64C501.158 411.04 510.038 407.92 512.278 400.4L567.878 213.04C574.198 191.76 577.398 169.76 577.398 147.6V51.52C577.398 23.04 554.358 0 525.878 0H372.038C343.558 0 320.518 23.04 320.518 51.52V187.28C320.518 206.96 298.598 218.8 282.118 208L164.118 130.64C140.278 115.04 108.358 121.68 92.7584 145.52L8.43836 274.24C-7.16164 298.08 -0.521648 330 23.3184 345.6L168.118 440.48C183.158 450.32 183.078 472.4 167.958 482.08L26.6784 572.88C2.75836 588.24 -4.20165 620.16 11.1584 644.08L94.3584 773.52C109.718 797.44 141.638 804.4 165.558 789.04L282.358 714C298.838 703.36 320.518 715.28 320.518 734.88V865.04C320.518 893.52 343.558 916.56 372.038 916.56H525.878C554.358 916.56 577.398 893.52 577.398 865.04V738C577.398 718.32 599.318 706.48 615.798 717.28L726.838 790.08C750.678 805.68 782.598 799.04 798.198 775.2L882.518 646.48C898.118 622.64 891.478 590.72 867.638 575.12V575.04Z" fill="url(#paint1_linear_489_33)"/>
<defs>
<linearGradient id="paint0_linear_489_33" x1="819.238" y1="188.8" x2="584.278" y2="400.48" gradientUnits="userSpaceOnUse">
<stop stop-color="#FF156A"/>
<stop offset="1" stop-color="#FF8A15"/>
</linearGradient>
<linearGradient id="paint1_linear_489_33" x1="-56.1217" y1="595.04" x2="803.878" y2="362.08" gradientUnits="userSpaceOnUse">
<stop stop-color="#FF156A"/>
<stop offset="1" stop-color="#FF8A15"/>
</linearGradient>
</defs>
</svg>
