<?xml version="1.0" encoding="utf-8"?>
<!-- Generator: Adobe Illustrator 28.1.0, SVG Export Plug-In . SVG Version: 6.00 Build 0)  -->
<svg version="1.1" id="Layer_1" xmlns="http://www.w3.org/2000/svg" xmlns:xlink="http://www.w3.org/1999/xlink" x="0px" y="0px"
	 viewBox="0 0 500 500" style="enable-background:new 0 0 500 500;" xml:space="preserve">
<style type="text/css">
	.st0{fill:#23262F;}
</style>
<path class="st0" d="M30.2,249.7c0-37.5,0.1-74.9-0.1-112.4c-0.2-4.4,0.9-8.8,3.1-12.6c2.2-3.8,5.5-6.9,9.5-8.9
	c41.1-23.6,82.2-47.3,123.2-71c23.5-13.6,47.1-27,70.6-40.7c4-2.6,8.7-4,13.5-4c4.8,0,9.5,1.4,13.5,4
	C328,41.3,392.6,78.5,457.3,115.6c3,1.5,5.7,3.7,7.8,6.4c2.1,2.7,3.6,5.8,4.4,9.1c0.4,1.7,0.5,3.4,0.5,5.1c0,75.8,0,151.5,0,227.3
	c0.1,4.1-0.9,8.1-3,11.6c-2.1,3.5-5.1,6.4-8.7,8.3c-13,7.6-26,15-39.1,22.5c-51.5,29.6-103,59.3-154.4,88.9c-2.7,1.7-5.6,3-8.6,4.1
	c-3.1,0.9-6.4,1.2-9.7,0.7c-3.2-0.5-6.3-1.6-9.1-3.4c-17.4-10.1-34.8-20.1-52.2-30.1c-10.3-5.9-20.5-11.9-30.8-17.7
	c-4.1-2.1-7.5-5.3-9.8-9.2c-2.3-4-3.4-8.5-3.2-13.1c0.1-21.7,0-43.4,0-65.1c-0.3-5.6,1.5-11.2,5.1-15.6c3.6-4.4,8.6-7.3,14.2-8.1
	c5.6-0.9,11.4,0.4,16.2,3.4c15.9,9.2,31.8,18.4,47.7,27.5c6.9,4,13.9,7.8,20.6,12c1.3,1,2.9,1.5,4.6,1.5c1.6,0,3.2-0.5,4.6-1.5
	c28.6-16.6,57.3-33.2,86-49.6c7-4,14-8.2,21.1-12.1c1.2-0.5,2.3-1.5,3-2.6c0.7-1.2,1-2.5,0.9-3.9c-0.1-41.5-0.1-83,0-124.5
	c0.1-1.3-0.2-2.7-0.8-3.9c-0.7-1.2-1.7-2.1-2.9-2.7c-36-20.6-71.9-41.3-107.8-62.1c-1.2-0.8-2.6-1.2-4-1.2c-1.4,0-2.8,0.5-4,1.3
	c-35.8,20.7-71.6,41.3-107.5,61.9c-1.4,0.7-2.5,1.9-3.2,3.2c-0.7,1.4-1,3-0.8,4.5c0.1,68.7,0.1,137.4,0,206.1
	c0.1,2.5-0.1,4.9-0.5,7.3c-0.7,3.5-2.2,6.8-4.4,9.5c-2.2,2.8-5,5-8.3,6.5s-6.8,2.2-10.3,2.1c-3.6-0.1-7-1.1-10.2-2.8
	c-5.5-2.9-10.8-6.1-16.2-9.3c-14.2-8.1-28.3-16.3-42.5-24.4c-4-2.1-7.3-5.4-9.5-9.3c-1.8-3.3-2.7-7-2.6-10.8
	C30.2,325.7,30.2,287.7,30.2,249.7z M111.7,397.5v-6.2c0-68,0-135.9-0.1-203.9c-0.2-5.3,1-10.6,3.7-15.1c2.7-4.6,6.6-8.3,11.3-10.7
	c36.3-20.7,72.5-41.6,108.6-62.5c4.4-2.8,9.5-4.3,14.8-4.3c5.2,0,10.4,1.5,14.8,4.3c36.2,20.9,72.4,41.8,108.6,62.5
	c4.8,2.5,8.8,6.3,11.4,10.9c2.7,4.7,4,10,3.7,15.4c-0.1,41.4-0.1,82.7,0,124.1c0.3,5.4-1,10.9-3.8,15.6c-2.7,4.7-6.8,8.5-11.6,11
	c-36.3,20.7-72.4,41.7-108.6,62.5c-1.9,1.1-3.8,2.1-5.9,2.8c-3.8,1.3-7.8,1.7-11.8,1.3c-4-0.5-7.8-1.8-11.2-3.9
	c-22.1-12.8-44.3-25.6-66.5-38.3c-1.3-0.8-2.7-1.5-4.6-2.6v5c0,19.5,0.1,39-0.1,58.6c-0.1,1.3,0.2,2.7,0.8,3.8
	c0.7,1.2,1.7,2.1,2.9,2.6c26,14.8,51.9,29.8,77.8,44.8c1.1,0.8,2.5,1.3,3.9,1.3c1.4,0,2.8-0.4,3.9-1.2
	c63.2-36.5,126.4-73,189.7-109.3c1.3-0.6,2.3-1.6,3-2.8c0.7-1.2,1-2.6,0.8-4c-0.1-72.7-0.1-145.5,0-218.2c0.1-1.4-0.2-2.8-0.9-4
	c-0.7-1.2-1.8-2.2-3.1-2.7c-63-36.2-126-72.5-189-108.8c-1.5-0.9-3-1.7-4.5-2.5C184.1,60.7,118.4,98.5,53,136.2v227.6
	C72.4,374.9,91.6,386,111.7,397.5z"/>
<path class="st0" d="M177.6,249.8c0-10.8,0.1-21.7-0.1-32.5c-0.2-2.8,0.5-5.6,1.9-8.1c1.4-2.4,3.5-4.4,6.1-5.6
	c19-10.8,37.9-21.6,56.7-32.7c2.3-1.5,5-2.3,7.7-2.3c2.8,0,5.5,0.8,7.8,2.3C276.8,182,296,193,315.2,204c2.3,1.2,4.3,3,5.6,5.3
	c1.3,2.3,1.9,4.9,1.8,7.5c0,22.1,0,44.2,0,66.4c0.1,2.7-0.5,5.3-1.9,7.7c-1.4,2.3-3.4,4.2-5.8,5.4C295.8,307,276.8,318,257.8,329
	c-2.3,1.5-5,2.3-7.7,2.3c-2.8,0-5.5-0.8-7.8-2.3c-19-11.1-38-22-57.1-32.9c-2.5-1.2-4.5-3.2-5.9-5.5s-2-5.1-1.8-7.9
	C177.7,271.8,177.6,260.8,177.6,249.8z M250.1,181.1c-0.4,0.2-0.9,0.3-1.3,0.6c-18.8,10.8-37.5,21.6-56.4,32.4
	c-0.9,0.5-1.6,1.2-2,2.1c-0.4,0.9-0.6,1.9-0.4,2.9c0.1,20.7,0.1,41.3,0,62c-0.1,1.1,0.2,2.2,0.8,3.2c0.6,1,1.4,1.7,2.5,2.2
	c12.1,6.8,24.1,13.8,36.1,20.7L250,319c1.4-0.8,2.7-1.4,3.9-2.2c17.5-10.1,35-20.2,52.6-30.2c1.2-0.5,2.1-1.4,2.7-2.5
	c0.6-1.1,0.9-2.4,0.8-3.6c-0.1-20.4-0.1-40.8,0-61.1c0.1-1.3-0.2-2.5-0.8-3.6c-0.6-1.1-1.6-2-2.8-2.5
	c-17.8-10.1-35.6-20.4-53.4-30.6C252.1,182.1,251.1,181.6,250.1,181.1L250.1,181.1z"/>
</svg>
