<?xml version="1.0" encoding="utf-8"?>
<!-- Generator: Adobe Illustrator 28.2.0, SVG Export Plug-In . SVG Version: 6.00 Build 0)  -->
<svg version="1.1" id="Layer_1" xmlns="http://www.w3.org/2000/svg" xmlns:xlink="http://www.w3.org/1999/xlink" x="0px" y="0px"
	 viewBox="0 0 500 500" style="enable-background:new 0 0 500 500;" xml:space="preserve">
<style type="text/css">
	.st0{fill:#FFFFFF;}
</style>
<path d="M264.2,500.4c-9.2,0-18.4,0-27.5,0c-1.3-0.3-2.7-0.7-4-0.7c-17.4-1.1-34.5-4.1-51.2-9C56.9,454.6-18.7,331.9,4.6,203.8
	C25,92.2,122,6.6,235.2,0.6c63.7-3.4,121.1,14.3,170.9,54.2c51.8,41.6,82.4,95.7,91.9,161.6c1,6.7,1.6,13.5,2.4,20.2
	c0,9.2,0,18.4,0,27.5c-0.9,7.7-1.6,15.4-2.8,23.1c-7.7,50.1-28.4,94.1-62.7,131.5c-40.7,44.3-90.9,70.7-150.6,79.2
	C277.7,498.9,271,499.6,264.2,500.4z M145.9,250.2c2.6-3.3,5.3-5.8,7-8.8c5.2-9,5.6-18.9,5.5-29c-0.2-18.5,0.2-37-0.1-55.5
	c-0.2-9.9,7.2-16.9,16.5-16.8c2.1,0,4.2-0.1,6.3-0.1c13.8,0,27.5,0,41.3,0c2.4,0,3.9-0.3,3.9-3.3c-0.1-10.6-0.1-21.1,0-31.7
	c0-2.3-0.7-3.3-3.1-3.2c-24.5,1-49.2-2-73.6,2.1c-13.5,2.3-23.9,9.3-30.7,20.8c-4.4,7.6-7.3,16.2-7.3,25.4c0,22.1-0.1,44.2-0.1,66.3
	c0,1.7,0,3.3-0.1,5c-0.5,5.9-3.7,8.9-9.7,9.1c-3.5,0.1-7,0.2-10.4,0c-3.2-0.2-4.4,0.7-4.3,4.1c0.2,7.6,0,15.3,0.1,22.9
	c0,3.6-1.1,8.7,0.8,10.4c2.2,1.9,7,1,10.7,1c10.4,0.1,13,2.6,13,13.1c0,19.2,0.1,38.4,0,57.6c-0.1,10.2,0.9,20,4.8,29.7
	c3.3,8.3,8.7,14.6,15.5,19.3c7.2,5,15.6,8.2,24.9,8.3c22.1,0.2,44.2,0.5,66.3,0.9c3,0,3.4-1.5,3.4-3.9c-0.1-9.9-0.2-19.7,0-29.6
	c0.1-3.5-1-4.4-4.5-4.4c-15,0.2-30,0.1-45,0.1c-9.6,0-19.4-6.1-18.4-18.2c0.2-3,0-6.1,0-9.2c0-18.1,0-36.2,0-54.2
	c0-2.1-0.2-4.2-0.6-6.2C156.1,263.7,153.2,255.9,145.9,250.2z M277,360c-0.4,0.8-0.7,1-0.7,1.3c-0.1,11.3-0.1,22.5-0.2,33.8
	c0,2.7,1.7,2.7,3.6,2.7c22.1-0.3,44.2,0,66.3-0.9c21.3-0.9,37.3-13.6,42.6-34.7c1.7-6.9,1.8-14.3,1.9-21.5
	c0.3-20.4,0.1-40.9,0.2-61.3c0-6.7,3.8-10.2,10.4-10.3c3.3-0.1,6.7-0.2,10,0c2.9,0.2,3.9-0.9,3.8-3.8c-0.2-8.2-0.1-16.4-0.1-24.6
	c0-10,0-10-10.1-10.1c-2.7,0-5.7,0.1-8.2-0.8c-5.5-2-6.2-6.7-6.1-11.9c0.1-20.6,0.1-41.2,0-61.7c0-8.6-0.5-17.1-4.1-25.3
	c-3.4-7.8-7.9-14.6-14.8-19.3c-7.9-5.4-16.9-8.6-26.4-8.9c-21.9-0.6-43.9-0.6-65.9-0.9c-3,0-3.4,1.5-3.3,3.9
	c0.1,10.2,0.1,20.3,0,30.5c-0.1,3.2,1.2,4,4.2,4c11-0.1,22-0.1,33,0c6.4,0.1,12.8-0.1,19.1,0.8c5.1,0.7,9.3,3.8,10.5,9.3
	c0.8,3.8,1.5,7.6,1.5,11.5c0.1,18.4-0.1,36.7,0.2,55.1c0.1,5.9,0.7,12,2.5,17.6c1.8,5.6,5.3,10.6,8.4,16.5
	c-7.1,5.6-9.3,14.5-10.4,23.8c-0.4,3.3-0.5,6.7-0.5,10c0,18.6,0,37.3-0.1,55.9c0,5-0.4,10.2-4.2,13.9c-4.4,4.2-9.9,5.7-16,5.7
	c-14.3-0.2-28.6-0.1-43-0.1C279.7,360,278.2,360,277,360z M251,311.2c32.1,0.9,61.3-27.7,61.5-61.1c0.2-32.6-28.5-61.7-61.2-61.7
	c-33.4,0-61.7,28.9-61.8,61C189.5,282.7,217.8,311.7,251,311.2z"/>
<path class="st0" d="M145.9,250.2c7.3,5.7,10.2,13.5,11.8,22c0.4,2,0.6,4.1,0.6,6.2c0.1,18.1,0,36.2,0,54.2c0,3.1,0.2,6.1,0,9.2
	c-0.9,12.2,8.8,18.2,18.4,18.2c15,0,30,0.1,45-0.1c3.4,0,4.6,0.9,4.5,4.4c-0.2,9.9-0.1,19.7,0,29.6c0,2.4-0.4,3.9-3.4,3.9
	c-22.1-0.4-44.2-0.7-66.3-0.9c-9.3-0.1-17.7-3.3-24.9-8.3c-6.8-4.7-12.2-11-15.5-19.3c-3.9-9.7-4.8-19.5-4.8-29.7
	c0.1-19.2,0.1-38.4,0-57.6c0-10.6-2.6-13.1-13-13.1c-3.7,0-8.6,0.9-10.7-1c-1.9-1.7-0.7-6.8-0.8-10.4c-0.1-7.6,0.2-15.3-0.1-22.9
	c-0.1-3.4,1.1-4.4,4.3-4.1c3.5,0.2,7,0.1,10.4,0c6-0.2,9.2-3.2,9.7-9.1c0.1-1.7,0.1-3.3,0.1-5c0-22.1,0.1-44.2,0.1-66.3
	c0-9.2,2.8-17.8,7.3-25.4c6.7-11.5,17.2-18.5,30.7-20.8c24.5-4.2,49.1-1.2,73.6-2.1c2.4-0.1,3.1,1,3.1,3.2
	c-0.1,10.6-0.1,21.1,0,31.7c0,3-1.5,3.4-3.9,3.3c-13.8-0.1-27.5,0-41.3,0c-2.1,0-4.2,0.1-6.3,0.1c-9.3,0-16.7,7-16.5,16.8
	c0.3,18.5-0.1,37,0.1,55.5c0.1,10.1-0.3,20.1-5.5,29C151.2,244.4,148.5,247,145.9,250.2z"/>
<path class="st0" d="M277,360c1.2,0,2.7,0,4.2,0c14.3,0,28.6-0.1,43,0.1c6.1,0.1,11.6-1.5,16-5.7c3.8-3.7,4.2-8.9,4.2-13.9
	c0-18.6,0-37.3,0.1-55.9c0-3.3,0.1-6.7,0.5-10c1.1-9.4,3.4-18.3,10.4-23.8c-3.1-5.9-6.7-10.9-8.4-16.5c-1.8-5.6-2.4-11.7-2.5-17.6
	c-0.3-18.4,0-36.7-0.2-55.1c0-3.8-0.7-7.7-1.5-11.5c-1.2-5.5-5.3-8.6-10.5-9.3c-6.3-0.9-12.7-0.7-19.1-0.8c-11-0.1-22-0.1-33,0
	c-3,0-4.2-0.8-4.2-4c0.2-10.1,0.1-20.3,0-30.5c0-2.4,0.3-4,3.3-3.9c22,0.3,43.9,0.3,65.9,0.9c9.5,0.3,18.6,3.4,26.4,8.9
	c6.9,4.8,11.3,11.6,14.8,19.3c3.6,8.2,4.1,16.7,4.1,25.3c0.1,20.6,0.1,41.2,0,61.7c0,5.2,0.7,9.9,6.1,11.9c2.5,0.9,5.5,0.8,8.2,0.8
	c10.1,0.1,10.1,0,10.1,10.1c0,8.2-0.1,16.4,0.1,24.6c0.1,2.9-0.9,4-3.8,3.8c-3.3-0.2-6.7-0.1-10,0c-6.6,0.1-10.3,3.6-10.4,10.3
	c-0.1,20.4,0.1,40.9-0.2,61.3c-0.1,7.2-0.2,14.6-1.9,21.5c-5.3,21.1-21.3,33.8-42.6,34.7c-22.1,0.9-44.2,0.7-66.3,0.9
	c-1.9,0-3.7,0-3.6-2.7c0.1-11.3,0.1-22.5,0.2-33.8C276.4,361,276.6,360.8,277,360z"/>
<path class="st0" d="M251,311.2c-33.2,0.5-61.5-28.5-61.4-61.8c0.1-32.1,28.3-61,61.8-61c32.7,0,61.4,29.1,61.2,61.7
	C312.3,283.6,283.2,312.1,251,311.2z M250.5,280.4c15.3,1.5,30.7-13.8,31.2-29.1c0.6-17.3-14.2-31.4-29-32
	c-17.9-0.8-31.7,14.8-32.3,29.4C219.7,265,235.2,281.3,250.5,280.4z"/>
<path d="M250.5,280.4c-15.3,0.9-30.8-15.4-30.1-31.7c0.6-14.6,14.4-30.2,32.3-29.4c14.9,0.6,29.7,14.8,29,32
	C281.2,266.6,265.8,281.9,250.5,280.4z"/>
</svg>
