<?xml version="1.0" encoding="utf-8"?>
<!-- Generator: Adobe Illustrator 28.2.0, SVG Export Plug-In . SVG Version: 6.00 Build 0)  -->
<svg version="1.1" id="Layer_1" xmlns="http://www.w3.org/2000/svg" xmlns:xlink="http://www.w3.org/1999/xlink" x="0px" y="0px"
	 viewBox="0 0 500 500" style="enable-background:new 0 0 500 500;" xml:space="preserve">
<style type="text/css">
	.st0{fill:url(#SVGID_1_);}
	.st1{fill:url(#SVGID_00000183934201984725255830000009464165771681426316_);}
	.st2{fill:url(#SVGID_00000081619603793931390510000017765288322729218724_);}
	.st3{fill:url(#SVGID_00000055697033876925259540000005693062746800863630_);}
</style>
<linearGradient id="SVGID_1_" gradientUnits="userSpaceOnUse" x1="340.0856" y1="212.5821" x2="178.8465" y2="257.0658" gradientTransform="matrix(1 0 0 -1 0 502)">
	<stop  offset="0" style="stop-color:#F964ED"/>
	<stop  offset="0.45" style="stop-color:#F930ED"/>
	<stop  offset="0.81" style="stop-color:#F90DED"/>
	<stop  offset="1" style="stop-color:#F90DED"/>
</linearGradient>
<path class="st0" d="M194.1,55.6c-49.5,0-94.8,18.6-129.1,49.1C25.1,140.3,1.5,192,1.5,249.7s24.1,110.5,64.8,146.1
	c34.1,29.9,78.9,46.4,127.8,46.4c90,0,165.7-59.7,187.6-142.8c4.2-15.9,6.4-32.6,6.4-49.7C388.2,142.5,301.3,55.6,194.1,55.6z
	 M194.1,360.1c-60.1,0-110.4-50.3-110.4-110.4s50.3-110.4,110.4-110.4s108.9,50.3,108.9,110.4S254.2,360.1,194.1,360.1z"/>
<linearGradient id="SVGID_00000135691593588767734860000001774900326449163166_" gradientUnits="userSpaceOnUse" x1="260.2292" y1="361.0636" x2="35.3293" y2="150.0763" gradientTransform="matrix(1 0 0 -1 0 502)">
	<stop  offset="0" style="stop-color:#F90DED"/>
	<stop  offset="1" style="stop-color:#AF15FF"/>
</linearGradient>
<path style="fill:url(#SVGID_00000135691593588767734860000001774900326449163166_);" d="M291.7,297.8
	c-18.2,36.7-56.4,61.8-100.4,60.7c-57.7-1.4-104.7-48.5-106-106.2c-1.5-61.3,47.8-111.5,108.8-111.5s108.9,48.7,108.9,108.9
	c0-90.1-73-163.1-163.1-163.1c-27,0-52.5,6.6-74.9,18.2C25.1,140.4,0,192.1,0,249.7C0,307.3,25.1,359,65,394.5
	c22.4,11.6,47.9,18.2,74.9,18.2c71.9,0,133-46.6,154.7-111.2C295.1,299.7,293.7,297.8,291.7,297.8z"/>
<linearGradient id="SVGID_00000174604078595010000860000010565809720603596945_" gradientUnits="userSpaceOnUse" x1="317.4333" y1="264.9392" x2="162.1349" y2="99.4137" gradientTransform="matrix(1 0 0 -1 0 502)">
	<stop  offset="0" style="stop-color:#3400BF"/>
	<stop  offset="1" style="stop-color:#AF15FF"/>
</linearGradient>
<path style="fill:url(#SVGID_00000174604078595010000860000010565809720603596945_);" d="M383.1,288.5c0-23.4-18.9-41.6-42.2-41.6
	c-19.3,0-36.5,12.8-41.5,30.5c-1.5,5.1-2.8,9.3-5,14.4c-2.5,5.9-5.5,11.5-8.9,16.8c-31.1,51.4-87.4,85.8-151.9,85.8
	c-34.3,0-66.4-9.8-93.5-26.7c35.5,46.2,91.2,76,153.9,76c87.7,0,161.7-58,185.8-137.8C381.8,299.6,383.1,294.4,383.1,288.5z"/>
<linearGradient id="SVGID_00000170980339849295730960000012803170259883514240_" gradientUnits="userSpaceOnUse" x1="388.8471" y1="390.186" x2="500" y2="390.186" gradientTransform="matrix(1 0 0 -1 0 502)">
	<stop  offset="0" style="stop-color:#F930ED"/>
	<stop  offset="1" style="stop-color:#F982ED"/>
</linearGradient>
<path style="fill:url(#SVGID_00000170980339849295730960000012803170259883514240_);" d="M444.4,167.4c30.7,0,55.6-24.9,55.6-55.6
	c0-30.7-24.9-55.6-55.6-55.6c-30.7,0-55.6,24.9-55.6,55.6C388.8,142.5,413.7,167.4,444.4,167.4z"/>
</svg>
