<?xml version="1.0" encoding="utf-8"?>
<!-- Generator: Adobe Illustrator 28.2.0, SVG Export Plug-In . SVG Version: 6.00 Build 0)  -->
<svg version="1.1" id="Layer_1" xmlns="http://www.w3.org/2000/svg" xmlns:xlink="http://www.w3.org/1999/xlink" x="0px" y="0px"
	 viewBox="0 0 500 500" style="enable-background:new 0 0 500 500;" xml:space="preserve">
<style type="text/css">
	.st0{fill:#FFA100;}
	.st1{fill:#ED2720;}
	.st2{fill:#00903E;}
	.st3{fill:#1F7AEA;}
</style>
<path class="st0" d="M426.9,77.6c-49-18.2-106.3-7.7-145.8,31.7c-39.4,39.4-50,96.7-31.7,145.8L426.9,77.6z"/>
<path class="st1" d="M251,254.5c-21.8-47.6-69.8-80.6-125.5-80.6c-55.7,0-103.7,33.1-125.5,80.6H251z"/>
<path class="st2" d="M251.8,256.6c18.2-49,7.7-106.3-31.7-145.8c-39.4-39.4-96.7-50-145.8-31.7L251.8,256.6z"/>
<path class="st3" d="M500,254.5c-21.8-47.6-69.8-80.6-125.5-80.6c-55.7,0-103.7,33.1-125.5,80.6H500z"/>
<path class="st3" d="M251,253.5c-49-18.2-106.3-7.7-145.8,31.7C65.9,324.7,55.3,382,73.5,431L251,253.5z"/>
<path class="st2" d="M426.5,431c18.2-49,7.7-106.3-31.7-145.8c-39.4-39.4-96.7-50-145.8-31.7L426.5,431z"/>
</svg>
