<?xml version="1.0" encoding="utf-8"?>
<!-- Generator: Adobe Illustrator 28.2.0, SVG Export Plug-In . SVG Version: 6.00 Build 0)  -->
<svg version="1.1" id="Logo" xmlns="http://www.w3.org/2000/svg" xmlns:xlink="http://www.w3.org/1999/xlink" x="0px" y="0px"
	 viewBox="0 0 500 500" style="enable-background:new 0 0 500 500;" xml:space="preserve">
<path d="M250,21.6c125.9,0,228.2,102,228.2,228.2S376.3,478.1,250,478.1S21.8,375.4,21.8,249.5S123.7,21.6,250,21.6
	C249.7,21.6,250,21.6,250,21.6 M250,0c-33.4,0-66.5,6.8-97.2,19.9c-29.7,12.8-56.4,30.7-79.3,53.7C26.5,120.2,0.2,183.7,0.2,250.2
	c0,33.4,6.8,66.5,19.6,97.2c12.8,29.4,31.1,56.4,53.7,79.3c46.9,46.6,110.4,72.9,176.6,73.3c33.4,0,66.5-6.8,97.2-19.9
	c29.7-12.8,56.4-30.7,79.3-53.7c46.9-46.9,73.3-110.4,73.3-176.6c0-33.4-6.8-66.5-19.6-97.2c-12.8-29.7-30.7-56.4-53.7-79.3
	c-22.6-23-49.6-41.2-79.3-53.7C316.5,6.8,283.4,0,250,0L250,0z"/>
<path d="M250,49C139.3,49,49.5,138.8,49.5,249.5S139.3,450,250,450s200.5-89.8,200.5-200.5l0,0C450.9,138.8,361.1,49,250,49
	C250.3,49,250,49,250,49z M192.3,225.5l-30.7,30.7h30.7v33.4c0,23.6-19.2,42.9-42.9,42.9s-42.9-19.2-42.9-42.9V210
	c0-23.6,19.2-42.9,42.9-42.9s42.9,19.2,42.9,42.9V225.5z M394.2,256.2v33.4c0,23.6-19.2,42.9-42.9,42.9c-23.6,0-42.9-19.2-42.9-42.9
	V210c0-23.6,19.2-42.9,42.9-42.9c23.6,0,42.9,19.2,42.9,42.9v16.2l-30.7,30.7h30.7V256.2z"/>
</svg>
