<?xml version="1.0" encoding="utf-8"?>
<!-- Generator: Adobe Illustrator 28.0.0, SVG Export Plug-In . SVG Version: 6.00 Build 0)  -->
<svg version="1.1" id="Layer_1" xmlns="http://www.w3.org/2000/svg" xmlns:xlink="http://www.w3.org/1999/xlink" x="0px" y="0px"
	 viewBox="0 0 500 500" style="enable-background:new 0 0 500 500;" xml:space="preserve">
<style type="text/css">
	.st0{fill:#030602;}
	.st1{fill:#3A953D;}
	.st2{fill:#176715;}
	.st3{fill:#FEFEFE;}
</style>
<g>
	<path class="st0" d="M59.6,138.2c-5-1.6-6.2-4.9-3.2-9.2c1.3-1.9,2.9-3.8,4.8-5.1c5.1-3.5,10.4-6.7,15.6-10c1-0.7,2.1-1.5,2.6-2.5
		c5.1-9.6,11.7-17.8,20.8-23.9c4.4-3,8.9-5.9,13.3-8.9c0.6-0.4,1-1.3,1.2-2c1.3-3.5,2-7.3,3.8-10.4c6.4-10.5,13.2-20.6,19.7-31
		c5.5-8.8,13.9-13.5,22.7-18.1c7.7-4.1,15.6-6.4,24.5-5.9c7,0.4,14.1-0.3,21,0.3c7,0.7,12.5,4.9,17.7,9.6c4.3,3.9,9.2,7.1,14,10.5
		c0.6,0.4,2.4-0.1,2.9-0.8C251.6,17,265.5,10,282.8,8.6c13.7-1.1,27.3-1.2,40.9,0.2c5.6,0.6,10.3,3,15.2,5.6
		c7,3.7,14.1,7.4,18.9,13.9c4.7,6.3,8.8,13.1,13.1,19.6c2.9,4.3,5.6,8.7,8.8,12.9c4.2,5.5,8.6,10.9,13,16.1
		c3.7,4.3,7.9,8.1,11.3,12.6c4.7,6.2,9.2,12.6,13.1,19.2c7,11.8,13.5,23.9,20.1,35.9c5.4,10,10.6,20.2,15.8,30.3
		c3.8,7.3,7.8,14.4,11.3,21.9c5.7,12.1,11.4,24.3,14.7,37.4c2.5,10.1,5.8,20,7.7,30.2c2,10.4,2.7,21,4.2,31.5
		c0.9,6.7,2.4,13.4,3.3,20.1c0.7,4.8,0.8,9.7,1.4,14.6c1.3,11.2,2.5,22.3,4,33.5c1.1,8.3,0.2,16.5-1.2,24.7
		c-1.6,9.7-5.1,18.7-8.8,27.6c-3.7,9-9.6,16.8-17.1,22.8c-6.6,5.3-14.2,9.2-21.5,13.4c-3.9,2.3-8.1,4.2-12.3,6
		c-4.9,2.1-9.8,4.1-14.8,5.8c-6.2,2.1-12.3,4.1-18.7,5.5c-8.2,1.8-16.5,3.2-24.8,4.1c-11.4,1.2-22.8,1.9-34.3,2.5
		c-10.3,0.5-20.7,1.1-31,0.7c-10-0.4-20-2.5-30.1-3c-10.1-0.6-20.3-0.1-30.4-0.2c-11.2-0.1-22.4,0.2-33.5-0.9
		c-7.4-0.8-14.5-3.8-21.7-6c-1.9-0.6-3.7-1.6-5.6-2.1c-6-1.8-9.7-6.2-13-11.3c-0.6-1-1.8-1.6-2.7-2.3c-0.6,0.9-1.6,1.7-1.8,2.7
		c-1.3,5.9-5.8,8.6-10.4,11.4c-8.5,5.4-17,11-25.5,16.5c-7.1,4.6-15,6.7-23.2,7.3c-14.4,1.1-28.9,2-43.3,2.7
		c-9.6,0.5-19.2,0.2-28.4-3c-8.2-2.8-16.7-5.1-24.7-8.4c-5.2-2.1-10.1-5.1-14.5-8.7c-7-5.7-7.9-10.2-4.1-19.3
		c3.9-9.4,7.8-18.8,14-27.2c3.7-5,5.3-11.6,9.2-16.3c8.6-10.1,15.3-22.1,26.2-30.1c8.3-6.1,17.4-11.1,26-16.8
		c2.9-1.9,5.4-4.3,7.8-6.8c1.8-1.8,1.6-3.9-0.4-5.9c-5.7-6-11.4-12.2-12.7-20.7c-0.7-4.4,0.3-9,0.4-13.5c0-1.7,0-3.7-0.8-5
		c-2.3-3.5-4.9-6.7-7.6-9.9c-5.4-6.7-5.5-13.6-0.5-20.8c0.6-0.8,0.5-2.8-0.1-3.6c-3.2-4.1-7-7.8-10-12c-2.9-4-6.1-8.2-7.4-12.8
		c-1.9-6.8,2.5-12.6,6.3-17.7c2.9-3.8,5.2-7.7,7.5-11.9c3.3-6,8-11.2,12.3-16.5c2.5-3,2.7-3.3-0.2-6.1c-11.2-10.6-15-23.5-12.7-38.7
		c0.5-3.5-0.1-7.2-0.1-10.8C59.6,145.8,59.6,142,59.6,138.2z M60.4,131.4c0.3-0.4,0.5-0.8,0.8-1.2c-0.1-0.1-0.3-0.2-0.4-0.3
		c-0.3,0.4-0.6,0.7-0.9,1.1c0,0.2-0.1,0.4-0.1,0.7C60,131.5,60.2,131.4,60.4,131.4z M97.1,392.9c0.3,0.1,0.6,0.2,0.9,0.3
		c-0.1-0.3-0.2-0.7-0.3-1c-1.7-2.9-3.5-5.6-4.9-8.6c-0.4-0.8,0.2-2.6,0.9-3.3c3.6-3.5,8.3-4.7,13-5.6c5.7-1,11.3-0.7,16.1,3
		c5.2,3.9,10.5,7.7,15.4,11.9c7.3,6.2,15.5,7.1,24.3,4.8c3.1-0.8,6-2.2,7.1-5.7c2-6.3-3-13.8-9.6-14.2c-0.5,0-1.1,0.1-1.5,0.3
		c-2.1,1.2-4.4,2.3-6.3,3.8c-3.5,2.8-3.5,4.9-0.2,8.1c0.8,0.8,2.1,1.3,2.6,2.3c0.6,1,0.6,2.4,0.8,3.6c-1.3,0-2.8,0.5-3.7,0
		c-1.6-0.9-3-2.4-4.2-3.9c-4-4.6-4.1-7.7,0.2-12.2c2.1-2.2,4.7-4,7.1-6c-1.2-1-2.3-2-3.4-3c-9.6-9.5-19.6-18.4-32.3-23.5
		c-8.8-3.6-13.4-3.8-19.8,2.5c-1.8,1.8-4,3.2-5.8,5c-1.5,1.5-2.8,3.1-4,4.8c-2.6,3.5-4.8,7.2-9.1,9.1c-4.6,2.1-9,4.9-13.4,7.3
		c-16.6,9-26.9,24.3-38.3,38.4c-5,6.2-8.8,13.4-12.3,20.6c-4.4,9-8,18.4-11.8,27.7c-1.3,3.2,0,7.5,2.9,9.3c4.9,3.2,9.7,6.6,15,8.9
		c6.4,2.8,13.3,4.7,20.1,6.8c11.3,3.6,22.7,4.6,34.6,3.6c13.5-1.1,27.2-0.8,40.7-2.6c7.5-1,14.9-2.5,21.4-6.8
		c8.9-5.9,17.8-11.6,26.7-17.5c1.7-1.1,3.8-2.3,4.8-4c3.7-6.8,4.7-14.3,4-22c-0.7-7-0.2-13.6,5-19.1c0.7-0.8,1.4-1.7,1.8-2.6
		c2.3-5.3,6.6-9,10.5-13.2c2.8-3,5.1-6.6,6.9-10.2c1.8-3.7,0.6-7.4-2.4-9.7c-1.8-1.3-3.7-2.5-5.7-3.6c-5.9-3.3-15.4,1.9-15.8,9.2
		c-0.2,4-1.8,7.4-5,9.9c-3.6,2.8-7.7,3.8-12.1,4.2c-1,0.1-2.5,0.7-2.7,1.4c-0.9,2.8-2,5.8-2,8.6c0.1,7.8-3,14.1-8.7,19.1
		c-4.9,4.4-10.5,8.1-15.1,12.8c-7.2,7.5-15.2,12.2-26.1,10.6c-0.8,7.5-5.1,11.4-12.3,12c-6.2,0.5-12.5,2-18.4-0.9
		c-1,2.1-1.6,4-2.6,5.7c-2.2,3.3-5.7,3.7-9.3,4c-5.4,0.5-10.3-0.8-14-4.8c-6.9-7.4-13.4-15-19.9-22.7c-0.5-0.6-0.6-2.4-0.1-3
		c0.5-0.6,2.2-0.8,2.9-0.5c1.3,0.6,2.4,1.8,3.3,2.9c5.2,6,10.6,11.9,15.5,18.2c3.5,4.4,7.8,5.5,13,5.1c2.4-0.2,4.8-0.7,5.6-3.4
		c1-3.3,2.9-6.7-0.8-9.9c-3.5-3-6.7-6.2-9.9-9.5c-3.5-3.6-6.9-7.3-10-11.2c-0.7-0.8-0.2-2.6-0.2-3.9c1.1,0.2,2.3,0.1,3.3,0.6
		c0.9,0.4,1.6,1.4,2.3,2.2c4.9,5.3,9.9,10.6,14.8,15.9c2.2,2.3,4.7,4.4,6.3,7.1c1.6,2.7,3.7,3.8,6.5,3.7c4.4-0.2,8.9-0.7,13.3-1.3
		c4.8-0.6,7.7-6,5.5-10.4c-2.4-4.8-5.2-9.5-7.9-14.2c-3.5-5.9-7.8-11.1-14.1-14.4c-0.8-0.4-1.7-1.2-2-2c-0.3-0.8-0.4-2.2,0-2.8
		c0.5-0.6,2.1-0.9,2.7-0.5c3.9,2.8,8.3,5.2,11.3,8.8c5.5,6.7,10.8,13.6,14,21.9c0.3,0.8,1.2,1.8,2.1,2c4.4,1.3,8.7,0.6,12.7-1.4
		c5.6-2.8,9.7-7.3,12.9-12.5c1.9-3.1,2.4-6.2-0.2-9.5c-1.8-2.2-3-4.9-4.8-7.2c-2.8-3.5-5.8-6.5-10.1-8.5
		c-6.5-2.9-12.7-6.5-18.6-10.5c-6.2-4.2-12-9.1-17.9-13.9c-0.9-0.7-1.6-2.8-1.1-3.6c1.1-2,2.8-1.2,4.3,0
		C86.5,384.8,91.8,388.9,97.1,392.9z M63,128.8c4.7-3,9.5-5.6,15.2-6c8.1-0.6,16.1-1.3,24.2-2c15-1.3,29.1,1.2,41.4,10.6
		c3.5,2.7,6.7,6,9.8,9.2c0.6,0.6,0.2,2.2,0.3,3.4c-1.2,0-2.5,0.1-3.7-0.1c-0.5-0.1-0.9-0.9-1.3-1.3c-10.6-11.4-23.6-17.4-39.2-17
		c-10.2,0.3-20.5,0.7-30.6,2.1c-4.6,0.6-9.2,3.3-13.2,5.8c-1.5,0.9-1.9,4.1-2.1,6.3c-0.3,3.7-0.1,7.5-0.1,11.2
		c2.1-1.9,3.6-4,4.9-6.1c3.5-5.5,7.5-10.3,14.5-11.5c10-1.7,20.1-2.6,30.2-1.1c3,0.4,6.6,0.1,9,1.6c6.6,3.9,13.1,8.1,18.9,13
		c4.4,3.7,7.8,8.7,11.4,13.2c3.4,4.3,7.5,8.4,9.7,13.4c4.2,9.5,1.7,13.3-5.7,15.4c-8.3,2.3-16.7,3.2-25.2,3.3
		c-12.1,0.1-24.2,1.8-36.4,0.1c-11.3-1.5-20.6-5.6-27.6-14.8c-1-1.4-2.3-2.5-4-4.3c0.4,9.7,4.8,16.5,10.7,22.6
		c4.1,4.1,8.9,6.5,14.9,6c2.1-0.2,4.3-0.3,6.4-0.4c1.9-0.1,4,0.2,4.1,2.5c0.1,2.2-1.9,2.4-3.7,2.4c-4.5,0-9.1,0-13.8,0
		c2.1,3.9,5,6.3,9.4,6.5c3.2,0.2,6.4,0.2,9.6,0.6c0.9,0.1,2,1.1,2.3,2c0.2,0.6-0.9,2.3-1.4,2.3c-6.7,0.5-13.5,1.5-19.2-3.4
		c-2.4-2-4.4-4.5-6.9-7.1c-2.7,3.3-5.4,6.6-8.2,9.7c-6.8,7.7-7,16.6-3.6,25.5c2.3,6.1,5.8,11.8,9.3,17.3
		c4.4,7.1,10.6,12.2,18.8,14.5c10,2.8,20.2,3.2,30.4,3.1c14-0.1,28.1-1,42.1-1.8c12.5-0.7,25.1-1.4,37.6-2.6
		c11.5-1.1,23.1-2.6,34.5-4.5c11.4-2,22.7-4.9,34-7.2c7.6-1.6,15.4-2.4,22.9-4.3c9.7-2.5,19.1-5.8,28.7-8.5c7-1.9,14-3.6,21.1-5.1
		c3.3-0.7,6.8-0.4,9.2,2.4c5.4,6.4,6.5,16.6-0.4,22.8c-5,4.5-10.6,8.6-16.4,12.1c-7.1,4.3-14.7,7.7-22,11.5
		c-5.3,2.8-10.4,5.9-15.7,8.5c-9.2,4.5-18.7,8.3-27.7,13.1c-9.1,4.8-18.7,7.4-28.8,8.7c-8,1-15.9,2.6-23.9,3.9c-4,0.6-8,1.3-12,1.5
		c-7.9,0.4-15.8,0.5-23.6,0.6c-11.9,0.1-23.9,0.5-35.8,0c-13.2-0.6-26.4-1.9-39.6-0.6c-6.9,0.7-13.2-0.6-19.2-3.4
		c-3.8-1.8-7.3-4.3-10.9-6.5c-4,7.4,2,21.9,12.9,31c2.5-2.1,5.2-4.2,7.6-6.6c4.9-4.8,10.6-6.6,17.3-4.7c3.4,1,6.7,2.5,10,3.9
		c8.1,3.4,15,8.7,21.6,14.6c5.6,4.9,11.2,9.9,17,14.5c3.3,2.6,7.1,4.5,10.9,6.9c3.6-4.9,9.2-6.2,15.5-5.6c8,0.8,15.9,9,14.8,16.8
		c-0.6,4.4-3,9.1-5.9,12.4c-5.5,6-10.8,12-15.1,18.9c-2.4,3.8-3.9,7.5-3.8,11.9c0.1,4.3-0.8,8.9,0.4,13c1.2,3.9,4.4,7.3,6.7,10.9
		c1.7,2.7,4,4.3,6.9,5.3c2.1,0.7,4.1,1.7,6.2,2.3c7,2.1,13.9,5,21,6c9,1.2,18.2,1.1,27.4,1.2c11.8,0.2,23.7,0,35.6,0.1
		c5,0.1,10,0.4,14.9,0.9c6.5,0.6,13.1,2.2,19.6,2.1c16.5-0.2,33-0.9,49.4-1.7c4.9-0.2,9.8-0.6,14.5-1.6c10.1-2.2,20.7-2.5,30.4-6.7
		c0.2-0.1,0.4-0.1,0.6-0.1c7.4-2.3,15-4.2,22.1-7.1c7.7-3.2,15.1-7.2,22.5-11.2c11.9-6.3,21.2-15.3,27-27.5
		c4.1-8.7,7.4-17.7,9.2-27.3c1.6-8.7,2.6-17.3,1.5-26.2c-1.4-11.2-2.6-22.5-3.9-33.8c-0.5-4.2-0.4-8.5-1-12.7
		c-1.1-7.1-2.7-14.2-3.8-21.3c-1.5-10.4-2.6-20.8-4.1-31.2c-1.5-10.2-4.4-20-7.5-29.9c-4-13-9.2-25.3-14.9-37.6
		c-4.8-10.3-10.2-20.2-15.4-30.2c-7.6-14.5-15.2-29-23.1-43.3c-3.9-7.1-8.6-13.7-12.7-20.6c-3.9-6.5-8.1-12.7-13.7-17.9
		c-2.6-2.4-4.8-5.4-7.1-8.1c-4.3-5-8.5-10.1-12.7-15.2c-1.7-2.1-3.5-4.3-4.9-6.7c-3-5-5.7-10.2-8.8-15.2
		c-5.6-9.2-12.7-16.8-22.6-21.4c-3.5-1.6-6.8-4.2-10.4-4.7c-10.4-1.3-20.9-2.1-31.5-2.5c-4.9-0.2-9.8,0.7-14.6,1.1
		c-8.5,0.8-16.7,2.6-24.2,7.3c-10.3,6.5-17.1,15.6-21.3,26.7c-1,2.7-1.4,5.6-2.2,8.8c3-0.2,5.4-0.4,7.7-0.6c0.4,0,0.8-0.1,1.3-0.1
		c17.4-2.5,34.8-3.6,52.2-0.4c7.3,1.4,14.7,2.8,20.9,7.5c6.3,4.7,12.3,9.7,18.5,14.6c0.2,0.1,0.4,0.3,0.4,0.5
		c0.2,0.9,0.6,1.9,0.3,2.6c-0.2,0.6-1.4,1.1-2.1,1c-1-0.1-2.1-0.5-2.9-1.2c-4.2-3.3-8.2-6.8-12.5-9.9c-3.5-2.5-7.1-5.3-11.1-6.8
		c-11.7-4.4-23.9-6-36.4-5.3c-11.6,0.7-23.1,1.8-34.7,2.8c-1.6,0.1-3.3,0.8-4.8,1.6c-7.1,4-13.8,8.3-19.8,13.9
		c-12,11-19.6,24.8-26.5,39.1c-0.7,1.3-0.6,3-0.9,4.9c1-0.3,1.2-0.3,1.4-0.4c0.9-0.8,1.7-1.6,2.5-2.5c5.3-5.8,11.6-9.2,19.7-8.8
		c4,0.2,8,0,12.1,0c14.7,0,29.4,0,44.1,0.1c7.7,0.1,15.3,0.5,23,0.6c6.6,0.1,13.2-0.8,19.7,1.4c6.3,2.1,13.1,3.2,18.1,8.2
		c6,6.1,12.3,11.9,17.7,18.5c2.1,2.5,2.9,6.7,3,10.1c0.1,4.8-4.1,7.3-9,6.4c-1.8-0.3-3.8-0.8-5.4-0.2c-8.1,3.2-16,6.9-24.1,10
		c-4.9,1.9-9.6,4-13.4,7.8c-2.6,2.6-5.3,5.6-8.6,7.1c-6.5,3-13.4,5.3-20.3,7.5c-10.1,3.2-20.1,6.9-30.7,8.2
		c-8.1,1-16.2,2.7-24.4,1.5c-4.4-0.6-8.7-1.8-13-2.9c-3.4-0.9-6.6-2.4-9.9-3.4c-2.5-0.8-5.2-1.2-8.4-2c-2.9,1.9-3.7,4.6-1.1,6.9
		c7,6.1,14.7,10.7,24.4,10c10.3-0.7,20.6-1.2,30.9-2.1c12.5-1.1,25.1-2.1,37.5-3.8c7.9-1.1,15.2-4.1,21.4-9.3c4.7-4,9-8.5,13.6-12.6
		c1.2-1.1,2.7-2.3,4.2-2.8c1-0.3,2.4,0.6,3.6,1c-0.4,1.1-0.5,2.5-1.2,3.1c-3.4,3-7.4,5.5-10.5,8.8c-8,8.4-17.3,14.5-28.8,16.5
		c-7.3,1.3-14.8,2-22.2,2.7c-12.2,1.1-24.4,1.9-36.6,2.7c-5,0.4-10.1,0.6-15.7,0.9c2.1,2.3,3.9,4,5.5,6c4.8,6,10.6,10.8,17.2,14.5
		c3.8,2.1,8.2,3.5,12.5,4.6c9.7,2.5,18.1,9.2,28.7,9.1c0.7,0,1.8,1.6,2,2.7c0.1,0.5-1.5,1.9-2.2,1.9c-3.4-0.2-6.9-0.3-10-1.4
		c-7.7-2.5-15.1-5.8-22.8-8.3c-6.2-2-12.4-4.2-17.2-8.7c-6.1-5.6-11.7-11.8-17.7-17.5c-2.7-2.6-5.9-4.8-9-6.9
		c-3.3-2.3-6.8-4.3-10-6.7c-6.2-4.6-4.5-13.1,2.1-16.1c0.7-0.3,1.6-0.8,1.8-1.5c2.1-5.4,4.3-10.8,6.2-16.4
		c3.9-11.5,11.8-18.9,22.8-23.5c7.8-3.2,15.2-7,22.1-12c5.8-4.3,12.3-7.7,19.4-8.6c18.7-2.3,37.2-0.1,55.3,5
		c4.9,1.4,9.6,3.4,14.1,5.7c6.1,3.2,10.1,8.7,13.8,14.3c1.4,2.1,3.1,3.4,5.7,3.6c1.8,0.2,2.9-0.7,2.6-2.3c-0.5-2.5-1.1-5.4-2.6-7.3
		c-3.1-3.9-6.9-7.2-10.2-11c-10.3-11.7-23.6-15.1-38.5-14.4c-6.5,0.3-13-0.2-19.5-0.3c-11.2-0.2-22.5-2.3-33.4,2.4
		c-2.1,0.9-4.4,1.7-6.6,2.4c-10.2,3.1-18.8,8.3-26.1,16.5c-6.4,7.2-14,13.3-21.2,19.8c-5.9,5.3-9,12-9.7,19.8
		c-0.1,1.6-0.4,3.1-2.5,3c-2.2-0.1-2.2-1.7-2-3.3c0.6-4,1.3-8,2-12c-3.1,0.7-3.9,0.2-3.9-3.1c0-3.3-0.1-6.6,0.2-9.9
		c0.5-5.8,1.6-11.4,5.6-16c2.3-2.6,4.9-5.1,7.1-7.8c0.7-0.9,0.7-2.3,0.8-3.6c0.3-3-0.4-6.5,0.9-8.9c4.8-9.2,10-18.3,15.5-27.1
		c2.5-4,6-7.3,9.2-11c-3.5-1.1-6.9-2.2-10.3-3.2c-13-3.9-26.3-5.5-39.8-3.4c-8.7,1.4-17.3,3.7-25.6,6.4c-5.1,1.7-9.8,4.7-14.5,7.4
		c-11.1,6.5-21.5,13.8-28.9,24.7c-0.9,1.3-1.6,2.8-2.7,4.8c4.8-0.4,8.8-1.2,12.8-1.1c7.9,0.2,15.8,0.7,23.6,1.4
		c5.5,0.5,10.6,2.1,15.4,5c1.6,1,3.2,2.2,1.8,3.9c-0.6,0.7-2.8,0.6-4.1,0.2c-3.2-1-6.3-2.9-9.5-3.4c-11.3-2-22.6-2.2-34.1-1.7
		c-11.3,0.5-19.3,6.4-27.4,12.8c-0.6,0.2-1.2,0.5-1.8,0.7c0.3,0.3,0.7,0.7,1,1C62,129.6,62.5,129.2,63,128.8z M56.2,234.5
		c-1.4,2.7-2.7,5.4-4.3,8c-3.3,5.3-2.4,10.4,1.2,14.9c5.2,6.6,10.5,13.1,16.3,19.2c4.6,4.8,9.8,9.2,15.1,13.3
		c2.5,1.9,5.8,3.6,8.9,3.9c12,1,24,1.6,36,2c4.1,0.1,8.2-1,12.4-1c6.4-0.1,12.8,0.6,19.1,0.4c7.7-0.3,15.5-1,23.2-1.9
		c8.6-1.1,17.2-2.6,25.8-3.9c7.7-1.2,15.4-2.8,23.2-3.6c5.2-0.6,10.7,0.4,15.9-0.3c9-1.2,18.2-2.4,26.9-4.9
		c13.9-3.9,27.6-8.5,41.1-13.5c4.9-1.8,9-5.5,13.6-8.2c1.1-0.6,2.6-0.4,4-0.6c-0.4,1.4-0.3,3.3-1.2,4.1c-4.9,4.1-9.9,8-16.2,9.9
		c-10.7,3.2-21.3,6.6-31.9,10.3c-13.4,4.7-27.1,7.5-41.4,7.7c-8.7,0.1-17.6,0.2-26,2.3c-19.6,5-39.6,6.8-59.7,7.7
		c-3.3,0.1-6.6-0.5-9.9-0.4c-7.5,0.1-14.9,0.7-22.4,0.5c-9.9-0.2-19.8-1-29.7-1.2c-6.3-0.2-11.6-2.3-16.2-6.4
		c-4.1-3.6-8.4-7-12.5-10.5c-5.1,5.4-3.8,11.6-0.4,15.9c2,2.5,4.2,4.8,5.9,7.4c7.7,11.4,18.1,17.7,32.1,17.4
		c8.2-0.2,16.4-0.7,24.6-0.5c12.5,0.3,25.1,1.5,37.6,1.7c9.4,0.1,18.7-0.7,28.1-1.2c7.9-0.4,15.7,0.6,23.6-2.3
		c6-2.2,12.7-2.1,19.2-2.9c8.3-1.1,16.7-2.1,24.4-5.8c9.8-4.6,19.7-9.2,29.3-14c11-5.5,22-11.1,32.7-17.1c7-3.9,13.9-8.3,20.5-12.9
		c6.1-4.2,7.6-8.8,5.8-15.1c-1.1-3.8-2.8-5.4-6.7-4.8c-5,0.7-10,1.7-14.9,3.1c-9,2.6-17.7,6-26.8,8.3c-9.1,2.3-18.5,3.6-27.8,5.5
		c-12.1,2.6-24.2,5.6-36.4,8c-8.9,1.7-17.8,2.7-26.8,3.8c-11.3,1.4-22.5,3.3-34,2.6c-0.6,0-1.3,0-1.9,0.1
		c-15.8,1.1-31.6,2.2-47.4,3.1c-5,0.3-10-0.3-15-0.7c-4.9-0.3-9.8-0.5-14.6-1.3c-4.9-0.9-9.9-2-14.3-4.1c-10.7-5.1-17-14.6-22-24.9
		C60,246.1,58.4,240.3,56.2,234.5z M118.4,72.9c9.6-2.9,18.1-5.9,26.7-8.1c15-3.7,30.2-3.3,45.3,0.1c5.1,1.1,10,3,15,4.3
		c1.9,0.5,4.5,0.9,6,0c5.7-3.4,11.2-7.4,16.6-11.3c1-0.7,1.8-2,2-3.2c0.9-5.9,2.3-11.5,5.4-16.6c1.4-2.3,0.9-3.3-1.2-4.8
		c-4.9-3.5-9.8-7.1-14.3-11.1c-4.4-3.9-9.3-6.9-15-7.2c-9-0.4-18.1,0-27.1,0.2c-1.8,0-3.8-0.1-5.4,0.6
		c-12.5,5.8-25.5,10.8-33.1,23.7C132.8,50.9,125.6,61.7,118.4,72.9z M329,148.7c-5.1-8.1-11-14.1-19.9-17.3
		c-13.7-5-27.9-6.5-42.2-7.3c-7.2-0.4-14.5-0.7-21.5,1.8c-2.6,0.9-5.2,1.9-7.6,3.3c-7.8,4.7-15.4,9.5-23.1,14.3c5,0.3,10.2,1,15.4,1
		c10.1,0.1,20.2-0.6,30.3-0.3c14.2,0.5,28.5,1.4,42.7,2.5c5.5,0.4,11.2,1.3,16.1,3.4C323.2,152,325.6,150.2,329,148.7z M229.6,149.1
		c-8.6-0.2-16.9-0.4-25.3-0.6c-0.8,0-1.8,0.1-2.4,0.6c-4.2,3.1-8.2,6.6-10.3,11.5c-2.5,5.9-4.9,12-7.1,18c-0.5,1.5-0.5,3.1-0.7,4.7
		c0.2-0.3,0.5-0.6,0.7-0.8c15,6.1,30.2,10.6,46.2,6.1c-1.4-2.6-3.2-5-4-7.7C223.1,170.2,220.7,159.4,229.6,149.1z M170.8,161
		c3.3-3.7,5.9-7.2,9-10.2c6.9-6.7,14.4-13,21.1-20c6.1-6.3,12.4-11.9,20.9-14.7c2.3-0.8,4.6-1.7,7.4-2.9c-1-0.5-1.2-0.7-1.5-0.7
		c-6.9,0-13.9,0-20.8,0.1c-5.8,0.1-10.6,2.6-14.6,6.9c-4.6,5-9.5,9.8-14.4,14.4c-2.9,2.8-5,6-5.6,9.8
		C171.6,149.4,171.3,155,170.8,161z M63.6,161.2c0.2,0.1,0.5,0.3,0.7,0.4c1.1-0.6,2.2-1.2,3.3-1.8c5.9-2.9,11.8-5.8,17.8-8.6
		c2.9-1.3,5.8-3,8.8-3.4c7.6-1,15.2-1.4,22.9-2c4.6-0.3,9.2-0.5,13.8-0.7c0.1-0.3,0.2-0.5,0.2-0.8c-4-2.3-7.9-5.7-12.2-6.5
		c-11-2.1-22.2-2.3-33.3-0.1c-4.3,0.9-8.2,2.2-10.8,6.5c-2.9,4.7-6.6,8.8-9.9,13.3C64.2,158.5,64.1,159.9,63.6,161.2z M98.3,152.1
		c-1.1,0.1-1.8,0-2.3,0.3c-3.9,1.8-7.8,3.7-11.7,5.5c-5.4,2.5-10.8,4.8-16.2,7.4c-2.6,1.2-2.7,2.6-0.8,4.7c1.9,2.1,3.9,4.2,5.8,6.4
		c6.4,7.3,14.7,10.2,24.5,10.7C88.4,175.2,90.1,163.8,98.3,152.1z M149.6,401.1c-4-2-8-3.4-11.4-5.8c-6.1-4.1-11.7-8.8-17.6-13.3
		c-3.2-2.4-6.7-3.8-11.5-2.5c11,14.6,24.5,25.8,38.2,37.9C148.1,411.4,148.9,406,149.6,401.1z M144.6,421.8
		c-6.7-6.1-13.4-12-19.8-18.2c-6.8-6.6-14.1-12.7-19-21c-1.1-1.9-2.3-2.5-4.4-1.5c-2.1,1-2.5,2.7-1.6,4.5
		c3.3,6.7,7.9,12.6,13.8,17.1c2.5,1.9,5.9,2.7,8.3,4.6c7.1,5.8,11.9,13.4,15.2,23.4C139.9,427.6,142.2,424.7,144.6,421.8z
		 M316,154.3c0-0.3,0-0.6,0-0.9c-11.5-1.4-22.9-2.7-34-4c3.3,5.6,6.6,11,9.7,16.3C298,159.3,308,158.9,316,154.3z M245,174.1
		c3.3,0.9,5.2-1.1,6.6-3.8c1.3-2.5,0.9-5.4-1.2-7c-2.3-1.8-5.3-3.8-8-3.8c-6.1,0.1-9.2,3.8-6.1,10.3C238,173.3,241,174.6,245,174.1z
		 M144.7,158.2c-0.2,0.1-0.5,0.3-0.7,0.4c3.4,8.7,6.5,17.4,3.3,27.1c3.4-0.9,6.4-1.6,9.3-2.3c2.1-0.5,3.2-1.6,2.3-3.9
		c-0.8-2.1-1.1-4.6-2.4-6.4C152.8,167.9,148.7,163.1,144.7,158.2z M101.2,169.3c0,4.4,1.9,6.6,5.8,6.6c4.4,0,6.5-2.1,6.5-6.3
		c0-3.4-2.1-6.5-4.3-6.5C103.6,163,101.3,164.8,101.2,169.3z M270.4,160.7c2.5,0.2,3.6-1.3,3.9-3.4c0.3-1.9-2.1-4.5-4-4.2
		c-2,0.3-4,1.1-4,3.7C266.4,159.4,268,160.6,270.4,160.7z M134.7,162.4c-0.6-2.9-1.2-5.2-3.7-4.9c-1.3,0.2-3.5,2.5-3.2,3.3
		c0.4,1.6,2,3.2,3.6,4C132,165.1,133.7,163.1,134.7,162.4z M267.8,174.1c2.5-0.1,3.9-1.1,3.9-3.5c0-2.5-1.9-3.5-4-3.7
		c-2-0.2-3.1,1-3.1,3.1C264.6,172.4,265.6,173.9,267.8,174.1z M130.4,179.5c2.2-0.1,3-1.4,3-3.3c-0.1-2.1-1.3-2.9-3.4-2.8
		c-2.1,0.1-2.8,1.1-2.7,3C127.3,178.5,128.2,179.6,130.4,179.5z"/>
	<path class="st1" d="M62.3,128.2c8.1-6.4,16.2-12.3,27.4-12.8c11.5-0.5,22.8-0.3,34.1,1.7c3.3,0.6,6.3,2.5,9.5,3.4
		c1.3,0.4,3.5,0.5,4.1-0.2c1.4-1.8-0.2-3-1.8-3.9c-4.7-2.9-9.9-4.5-15.4-5c-7.9-0.7-15.7-1.2-23.6-1.4c-4-0.1-8,0.7-12.8,1.1
		c1.1-2,1.8-3.4,2.7-4.8c7.4-10.9,17.8-18.2,28.9-24.7c4.7-2.7,9.4-5.8,14.5-7.4c8.4-2.7,17-5,25.6-6.4c13.4-2.1,26.8-0.5,39.8,3.4
		c3.4,1,6.8,2.1,10.3,3.2c-3.1,3.7-6.7,7-9.2,11c-5.5,8.8-10.7,17.9-15.5,27.1c-1.3,2.5-0.6,5.9-0.9,8.9c-0.1,1.2-0.2,2.7-0.8,3.6
		c-2.2,2.7-4.7,5.2-7.1,7.8c-4,4.6-5.1,10.2-5.6,16c-0.3,3.3-0.2,6.6-0.2,9.9c0,3.2,0.9,3.8,3.9,3.1c-0.7,3.9-1.4,8-2,12
		c-0.2,1.5-0.2,3.1,2,3.3c2.1,0.1,2.3-1.4,2.5-3c0.7-7.8,3.8-14.5,9.7-19.8c7.2-6.5,14.8-12.7,21.2-19.8
		c7.3-8.1,15.9-13.3,26.1-16.5c2.2-0.7,4.4-1.5,6.6-2.4c10.8-4.6,22.2-2.6,33.4-2.4c6.5,0.1,13,0.6,19.5,0.3
		c15-0.7,28.2,2.6,38.5,14.4c3.3,3.8,7.1,7.1,10.2,11c1.5,1.9,2,4.8,2.6,7.3c0.3,1.6-0.8,2.5-2.6,2.3c-2.5-0.3-4.3-1.5-5.7-3.6
		c-3.8-5.6-7.7-11.2-13.8-14.3c-4.5-2.3-9.3-4.3-14.1-5.7c-18.1-5.1-36.6-7.3-55.3-5c-7.1,0.9-13.6,4.3-19.4,8.6
		c-6.8,5-14.3,8.8-22.1,12c-11,4.6-18.9,12.1-22.8,23.5c-1.9,5.5-4,10.9-6.2,16.4c-0.3,0.6-1.1,1.2-1.8,1.5
		c-6.6,3-8.3,11.5-2.1,16.1c3.2,2.4,6.8,4.4,10,6.7c3.1,2.2,6.2,4.4,9,6.9c6,5.7,11.6,11.8,17.7,17.5c4.8,4.5,11,6.7,17.2,8.7
		c7.7,2.5,15.1,5.8,22.8,8.3c3.2,1,6.7,1.2,10,1.4c0.7,0.1,2.3-1.4,2.2-1.9c-0.2-1-1.3-2.7-2-2.7c-10.6,0.1-19-6.5-28.7-9.1
		c-4.3-1.1-8.7-2.5-12.5-4.6c-6.6-3.7-12.4-8.5-17.2-14.5c-1.6-2-3.4-3.7-5.5-6c5.6-0.3,10.6-0.5,15.7-0.9
		c12.2-0.9,24.4-1.7,36.6-2.7c7.4-0.6,14.9-1.4,22.2-2.7c11.5-2,20.8-8.1,28.8-16.5c3.1-3.3,7.1-5.8,10.5-8.8
		c0.7-0.7,0.8-2.1,1.2-3.1c-1.2-0.4-2.6-1.3-3.6-1c-1.6,0.5-3,1.7-4.2,2.8c-4.6,4.2-8.9,8.6-13.6,12.6c-6.1,5.2-13.5,8.3-21.4,9.3
		c-12.4,1.7-25,2.7-37.5,3.8c-10.3,0.9-20.6,1.4-30.9,2.1c-9.8,0.6-17.5-3.9-24.4-10c-2.7-2.3-1.8-5,1.1-6.9c3.2,0.7,5.9,1.2,8.4,2
		c3.3,1,6.6,2.5,9.9,3.4c4.3,1.2,8.6,2.3,13,2.9c8.2,1.2,16.3-0.5,24.4-1.5c10.7-1.3,20.6-5,30.7-8.2c6.9-2.2,13.8-4.5,20.3-7.5
		c3.3-1.5,6-4.4,8.6-7.1c3.8-3.8,8.5-5.9,13.4-7.8c8.1-3.1,16-6.8,24.1-10c1.5-0.6,3.6-0.1,5.4,0.2c4.9,0.9,9.2-1.6,9-6.4
		c-0.1-3.4-0.9-7.6-3-10.1c-5.4-6.5-11.7-12.4-17.7-18.5c-5-5.1-11.8-6.1-18.1-8.2c-6.4-2.1-13.1-1.3-19.7-1.4
		c-7.7-0.1-15.3-0.5-23-0.6c-14.7-0.1-29.4-0.1-44.1-0.1c-4,0-8.1,0.2-12.1,0c-8.1-0.4-14.4,3-19.7,8.8c-0.8,0.9-1.7,1.7-2.5,2.5
		c-0.1,0.1-0.4,0.1-1.4,0.4c0.3-1.8,0.2-3.5,0.9-4.9c7-14.3,14.6-28.1,26.5-39.1c6-5.6,12.7-9.9,19.8-13.9c1.5-0.8,3.2-1.5,4.8-1.6
		c11.6-1,23.1-2.1,34.7-2.8c12.4-0.7,24.7,1,36.4,5.3c4,1.5,7.6,4.3,11.1,6.8c4.3,3.1,8.3,6.6,12.5,9.9c0.8,0.6,1.9,1.1,2.9,1.2
		c0.7,0.1,1.9-0.5,2.1-1c0.3-0.7-0.2-1.7-0.3-2.6c0-0.2-0.3-0.3-0.4-0.5c-6.2-4.9-12.2-9.9-18.5-14.6c-6.1-4.6-13.6-6.1-20.9-7.5
		c-17.4-3.3-34.8-2.2-52.2,0.4c-0.4,0.1-0.8,0.1-1.3,0.1c-2.3,0.2-4.6,0.3-7.7,0.6c0.8-3.2,1.2-6.1,2.2-8.8
		c4.2-11.2,11-20.3,21.3-26.7c7.5-4.7,15.7-6.4,24.2-7.3c4.9-0.5,9.8-1.4,14.6-1.1c10.5,0.5,21,1.2,31.5,2.5
		c3.6,0.5,6.9,3.1,10.4,4.7c10,4.6,17.1,12.2,22.6,21.4c3,5,5.7,10.2,8.8,15.2c1.4,2.3,3.1,4.5,4.9,6.7c4.2,5.1,8.4,10.1,12.7,15.2
		c2.3,2.7,4.5,5.7,7.1,8.1c5.6,5.2,9.8,11.4,13.7,17.9c4.2,6.9,8.8,13.6,12.7,20.6c7.9,14.3,15.5,28.8,23.1,43.3
		c5.3,10,10.7,20,15.4,30.2c5.7,12.2,11,24.6,14.9,37.6c3,9.9,5.9,19.7,7.5,29.9c1.5,10.4,2.6,20.8,4.1,31.2
		c1.1,7.1,2.7,14.2,3.8,21.3c0.6,4.2,0.6,8.5,1,12.7c1.2,11.3,2.4,22.5,3.9,33.8c1.1,8.9,0.1,17.5-1.5,26.2
		c-1.8,9.6-5.1,18.6-9.2,27.3c-5.8,12.2-15.1,21.2-27,27.5c-7.4,3.9-14.8,8-22.5,11.2c-7.1,2.9-14.7,4.8-22.1,7.1
		c-0.2,0.1-0.4,0.1-0.6,0.1c-9.7,4.1-20.2,4.5-30.4,6.7c-4.7,1-9.7,1.4-14.5,1.6c-16.5,0.7-33,1.5-49.4,1.7
		c-6.5,0.1-13.1-1.5-19.6-2.1c-5-0.5-10-0.9-14.9-0.9c-11.9-0.1-23.7,0.1-35.6-0.1c-9.1-0.1-18.4,0-27.4-1.2c-7.1-1-14-3.9-21-6
		c-2.1-0.6-4.1-1.6-6.2-2.3c-2.9-1-5.3-2.6-6.9-5.3c-2.2-3.6-5.5-7-6.7-10.9c-1.2-4-0.2-8.6-0.4-13c-0.1-4.4,1.4-8.1,3.8-11.9
		c4.4-6.9,9.6-12.9,15.1-18.9c3-3.3,5.3-8,5.9-12.4c1.1-7.7-6.8-15.9-14.8-16.8c-6.3-0.7-11.9,0.7-15.5,5.6
		c-3.8-2.4-7.6-4.3-10.9-6.9c-5.8-4.6-11.4-9.5-17-14.5c-6.6-5.8-13.4-11.1-21.6-14.6c-3.3-1.4-6.6-2.9-10-3.9
		c-6.6-1.9-12.3,0-17.3,4.7c-2.4,2.3-5.1,4.4-7.6,6.6c-10.9-9-16.9-23.5-12.9-31c3.6,2.2,7.1,4.7,10.9,6.5c6,2.9,12.3,4.1,19.2,3.4
		c13.2-1.3,26.4,0,39.6,0.6c11.9,0.5,23.8,0.1,35.8,0c7.9-0.1,15.8-0.2,23.6-0.6c4-0.2,8-0.9,12-1.5c8-1.3,15.9-2.9,23.9-3.9
		c10.1-1.3,19.7-3.8,28.8-8.7c9-4.8,18.5-8.6,27.7-13.1c5.3-2.6,10.4-5.7,15.7-8.5c7.3-3.9,14.9-7.3,22-11.5
		c5.8-3.5,11.4-7.5,16.4-12.1c6.9-6.3,5.8-16.4,0.4-22.8c-2.3-2.8-5.9-3-9.2-2.4c-7.1,1.5-14.1,3.1-21.1,5.1
		c-9.6,2.7-19.1,6.1-28.7,8.5c-7.5,1.9-15.3,2.8-22.9,4.3c-11.4,2.3-22.6,5.3-34,7.2c-11.4,2-22.9,3.4-34.5,4.5
		c-12.5,1.2-25,1.9-37.6,2.6c-14,0.8-28.1,1.7-42.1,1.8c-10.2,0.1-20.4-0.3-30.4-3.1c-8.2-2.3-14.4-7.5-18.8-14.5
		c-3.5-5.6-7-11.3-9.3-17.3c-3.4-8.9-3.2-17.7,3.6-25.5c2.8-3.2,5.4-6.5,8.2-9.7c2.5,2.6,4.5,5.1,6.9,7.1c5.7,4.8,12.5,3.9,19.2,3.4
		c0.6,0,1.6-1.7,1.4-2.3c-0.3-0.9-1.5-1.9-2.3-2c-3.2-0.4-6.4-0.4-9.6-0.6c-4.3-0.2-7.2-2.6-9.4-6.5c4.8,0,9.3,0,13.8,0
		c1.8,0,3.8-0.2,3.7-2.4c-0.1-2.3-2.2-2.6-4.1-2.5c-2.1,0.1-4.3,0.2-6.4,0.4c-6,0.5-10.8-1.9-14.9-6c-5.9-6-10.3-12.9-10.7-22.6
		c1.7,1.8,3,2.9,4,4.3c6.9,9.2,16.3,13.3,27.6,14.8c12.2,1.6,24.3-0.1,36.4-0.1c8.5-0.1,17-1,25.2-3.3c7.4-2.1,10-5.9,5.7-15.4
		c-2.2-4.9-6.3-9-9.7-13.4c-3.6-4.6-7-9.5-11.4-13.2c-5.8-4.9-12.3-9.1-18.9-13c-2.5-1.4-6-1.1-9-1.6c-10.1-1.5-20.2-0.6-30.2,1.1
		c-7,1.2-11,6-14.5,11.5c-1.3,2.1-2.8,4.2-4.9,6.1c0-3.7-0.2-7.5,0.1-11.2c0.2-2.2,0.6-5.4,2.1-6.3c4.1-2.5,8.6-5.2,13.2-5.8
		c10.1-1.4,20.4-1.8,30.6-2.1c15.6-0.5,28.6,5.5,39.2,17c0.4,0.5,0.8,1.2,1.3,1.3c1.2,0.2,2.5,0.1,3.7,0.1c-0.1-1.2,0.3-2.7-0.3-3.4
		c-3.1-3.2-6.2-6.5-9.8-9.2c-12.2-9.4-26.3-11.9-41.4-10.6c-8,0.7-16.1,1.4-24.2,2c-5.7,0.4-10.5,3.1-15.2,6
		C62.8,128.6,62.5,128.4,62.3,128.2z M133.3,210.6c-3.1,3.5-6.6,7.3-9.9,11.3c-3.1,3.9-6.1,7.9-8.8,12.1c-0.5,0.8,0.5,2.5,0.8,3.8
		c1.1-0.5,2.5-0.6,3.1-1.4c4.2-5.2,8.5-10.3,12.4-15.7c5.7-7.7,13.5-12.5,22-16.4c1-0.5,2.2-1,2.9-1.9c0.6-0.8,0.7-2.1,0.9-3.2
		c-1.1-0.2-2.4-0.9-3.4-0.6c-3.6,1.2-7.1,2.9-10.7,4c-8.6,2.8-17.4,4.2-26.4,2.1c-1.9-0.4-3.8-1.2-4.6,1.2c-0.8,2.5,1.6,2.9,3.1,3.7
		c0.4,0.2,1,0.2,1.6,0.3C122.1,210.1,127.8,210.4,133.3,210.6z M330.6,232.5c-0.9,0-1.9-0.3-2.5,0.1c-1.2,0.7-2.2,1.8-3.3,2.8
		c1.1,0.7,2.2,1.8,3.4,2c5.1,0.6,10.3,0.9,15.5,1.4c8.3,0.8,14.9,4.5,19.4,11.8c0.6,0.9,2.5,1.9,3.4,1.6c2-0.7,1.5-2.5,0.6-4
		c-2.5-4.7-6.3-8-10.8-10.5C348.3,233.2,339.4,233,330.6,232.5z M337.8,215.6c-0.1,0.3-0.1,0.5-0.2,0.8c-0.5,0-1.1-0.1-1.6-0.1
		c-1.6,0.1-3.7-0.6-4,1.8c-0.4,2.8,1.8,2.5,3.5,2.9c4.9,1,9.9,2,14.8,3.2c1.7,0.4,3.4,1.5,4.4-0.6c1-2.1-0.4-3.5-2.3-4.1
		C347.5,218.1,342.6,216.9,337.8,215.6z"/>
	<path class="st1" d="M97.1,393c-5.3-4.1-10.6-8.2-15.8-12.3c-1.5-1.2-3.2-2-4.3,0c-0.4,0.8,0.3,2.9,1.1,3.6
		c5.8,4.8,11.6,9.7,17.9,13.9c5.9,4,12.1,7.5,18.6,10.5c4.3,2,7.4,5,10.1,8.5c1.8,2.2,3,4.9,4.8,7.2c2.6,3.2,2.1,6.4,0.2,9.5
		c-3.3,5.2-7.4,9.7-12.9,12.5c-4,2-8.3,2.7-12.7,1.4c-0.8-0.2-1.8-1.2-2.1-2c-3.2-8.3-8.5-15.2-14-21.9c-3-3.6-7.4-6-11.3-8.8
		c-0.6-0.4-2.2-0.1-2.7,0.5c-0.5,0.6-0.4,2,0,2.8c0.3,0.8,1.2,1.5,2,2c6.3,3.3,10.6,8.5,14.1,14.4c2.7,4.7,5.5,9.3,7.9,14.2
		c2.2,4.4-0.7,9.8-5.5,10.4c-4.4,0.6-8.8,1-13.3,1.3c-2.8,0.2-4.9-1-6.5-3.7c-1.6-2.7-4.2-4.8-6.3-7.1c-4.9-5.3-9.9-10.6-14.8-15.9
		c-0.7-0.8-1.4-1.7-2.3-2.2c-1-0.5-2.2-0.4-3.3-0.6c0,1.3-0.4,3.1,0.2,3.9c3.2,3.9,6.6,7.6,10,11.2c3.2,3.3,6.4,6.5,9.9,9.5
		c3.7,3.2,1.8,6.6,0.8,9.9c-0.8,2.7-3.2,3.2-5.6,3.4c-5.2,0.4-9.5-0.6-13-5.1c-4.9-6.3-10.3-12.2-15.5-18.2c-1-1.1-2-2.3-3.3-2.9
		c-0.8-0.4-2.4-0.1-2.9,0.5c-0.5,0.6-0.4,2.3,0.1,3c6.5,7.7,13.1,15.3,19.9,22.7c3.7,3.9,8.6,5.2,14,4.8c3.6-0.3,7.1-0.7,9.3-4
		c1.1-1.6,1.7-3.6,2.6-5.7c6,2.9,12.2,1.3,18.4,0.9c7.2-0.5,11.5-4.4,12.3-12c10.9,1.6,18.9-3.1,26.1-10.6
		c4.5-4.7,10.1-8.4,15.1-12.8c5.7-5.1,8.7-11.3,8.7-19.1c0-2.9,1.1-5.8,2-8.6c0.2-0.7,1.7-1.3,2.7-1.4c4.4-0.5,8.6-1.4,12.1-4.2
		c3.2-2.5,4.8-5.9,5-9.9c0.4-7.3,9.8-12.5,15.8-9.2c1.9,1.1,3.9,2.2,5.7,3.6c3,2.3,4.2,6.1,2.4,9.7c-1.8,3.7-4.1,7.2-6.9,10.2
		c-3.8,4.1-8.1,7.8-10.5,13.2c-0.4,1-1,1.9-1.8,2.6c-5.2,5.4-5.7,12-5,19.1c0.7,7.7-0.2,15.2-4,22c-0.9,1.7-3,2.8-4.8,4
		c-8.9,5.9-17.8,11.6-26.7,17.5c-6.5,4.3-13.9,5.8-21.4,6.8c-13.5,1.8-27.2,1.5-40.7,2.6c-11.9,1-23.3,0-34.6-3.6
		c-6.7-2.2-13.6-4-20.1-6.8c-5.3-2.3-10.1-5.8-15-8.9c-2.9-1.9-4.2-6.1-2.9-9.3c3.8-9.3,7.4-18.7,11.8-27.7
		c3.5-7.2,7.3-14.4,12.3-20.6c11.4-14.1,21.7-29.4,38.3-38.4c4.5-2.4,8.8-5.2,13.4-7.3c4.3-2,6.5-5.7,9.1-9.1c1.3-1.7,2.5-3.4,4-4.8
		c1.8-1.8,4-3.2,5.8-5c6.4-6.3,11-6,19.8-2.5c12.7,5.1,22.7,14,32.3,23.5c1.1,1,2.2,2,3.4,3c-2.4,2-5,3.8-7.1,6
		c-4.3,4.5-4.2,7.7-0.2,12.2c1.3,1.4,2.6,2.9,4.2,3.9c0.9,0.5,2.4,0,3.7,0c-0.2-1.2-0.2-2.6-0.8-3.6c-0.5-0.9-1.8-1.5-2.6-2.3
		c-3.3-3.2-3.3-5.3,0.2-8.1c1.9-1.5,4.2-2.6,6.3-3.8c0.4-0.2,1-0.3,1.5-0.3c6.6,0.5,11.6,8,9.6,14.2c-1.1,3.5-3.9,4.9-7.1,5.7
		c-8.8,2.3-17,1.4-24.3-4.8c-4.9-4.2-10.3-7.9-15.4-11.9c-4.9-3.7-10.4-4-16.1-3c-4.7,0.9-9.4,2.1-13,5.6c-0.7,0.7-1.3,2.5-0.9,3.3
		c1.4,3,3.2,5.8,4.9,8.6C97.5,392.5,97.3,392.7,97.1,393z"/>
	<path class="st2" d="M56.2,234.5c2.1,5.8,3.7,11.6,6.3,16.8c5,10.3,11.3,19.7,22,24.9c4.4,2.1,9.4,3.2,14.3,4.1
		c4.8,0.9,9.7,1,14.6,1.3c5,0.3,10,0.9,15,0.7c15.8-0.8,31.6-2,47.4-3.1c0.6,0,1.3-0.1,1.9-0.1c11.5,0.7,22.7-1.3,34-2.6
		c9-1.1,17.9-2.1,26.8-3.8c12.2-2.3,24.2-5.4,36.4-8c9.2-2,18.6-3.2,27.8-5.5c9-2.3,17.8-5.7,26.8-8.3c4.9-1.4,9.9-2.4,14.9-3.1
		c3.9-0.5,5.6,1,6.7,4.8c1.8,6.3,0.3,10.9-5.8,15.1c-6.6,4.6-13.4,9-20.5,12.9c-10.8,6-21.7,11.6-32.7,17.1
		c-9.7,4.9-19.5,9.4-29.3,14c-7.7,3.6-16.1,4.7-24.4,5.8c-6.4,0.8-13.2,0.7-19.2,2.9c-7.9,2.9-15.7,1.9-23.6,2.3
		c-9.4,0.4-18.7,1.3-28.1,1.2c-12.5-0.2-25.1-1.3-37.6-1.7c-8.2-0.2-16.4,0.4-24.6,0.5c-14,0.3-24.4-6-32.1-17.4
		c-1.8-2.6-4-4.9-5.9-7.4c-3.4-4.3-4.7-10.5,0.4-15.9c4.2,3.5,8.4,6.9,12.5,10.5c4.7,4.1,9.9,6.3,16.2,6.4
		c9.9,0.3,19.8,1.1,29.7,1.2c7.4,0.1,14.9-0.4,22.4-0.5c3.3,0,6.6,0.6,9.9,0.4c20.1-0.9,40-2.7,59.7-7.7c8.3-2.1,17.3-2.2,26-2.3
		c14.3-0.2,28-3,41.4-7.7c10.5-3.7,21.2-7.1,31.9-10.3c6.3-1.9,11.3-5.8,16.2-9.9c0.9-0.8,0.8-2.7,1.2-4.1c-1.3,0.2-2.9,0-4,0.6
		c-4.6,2.6-8.7,6.4-13.6,8.2c-13.5,5-27.2,9.6-41.1,13.5c-8.7,2.5-17.9,3.7-26.9,4.9c-5.2,0.7-10.6-0.3-15.9,0.3
		c-7.8,0.8-15.5,2.4-23.2,3.6c-8.6,1.4-17.2,2.9-25.8,3.9c-7.7,0.9-15.4,1.6-23.2,1.9c-6.4,0.2-12.8-0.5-19.1-0.4
		c-4.1,0-8.3,1.2-12.4,1c-12-0.4-24-1-36-2c-3.1-0.3-6.4-1.9-8.9-3.9c-5.3-4.1-10.5-8.4-15.1-13.3c-5.8-6.1-11.1-12.6-16.3-19.2
		c-3.5-4.5-4.4-9.6-1.2-14.9C53.5,239.9,54.8,237.1,56.2,234.5z"/>
	<path class="st1" d="M118.4,72.9c7.2-11.3,14.4-22,20.9-33.2c7.6-12.9,20.6-18,33.1-23.7c1.6-0.7,3.6-0.6,5.4-0.6
		c9-0.2,18.1-0.6,27.1-0.2c5.7,0.3,10.6,3.3,15,7.2c4.5,4,9.4,7.6,14.3,11.1c2.1,1.5,2.6,2.5,1.2,4.8c-3.1,5.1-4.5,10.7-5.4,16.6
		c-0.2,1.1-1,2.5-2,3.2c-5.5,3.9-10.9,7.8-16.6,11.3c-1.5,0.9-4.1,0.4-6,0c-5.1-1.3-10-3.1-15-4.3c-15.1-3.4-30.2-3.8-45.3-0.1
		C136.5,67,128,70,118.4,72.9z"/>
	<path class="st1" d="M329,148.7c-3.4,1.5-5.8,3.3-9.9,1.5c-4.9-2.1-10.6-3-16.1-3.4c-14.2-1.2-28.4-2.1-42.7-2.5
		c-10.1-0.3-20.2,0.3-30.3,0.3c-5.2,0-10.4-0.7-15.4-1c7.7-4.8,15.3-9.6,23.1-14.3c2.3-1.4,5-2.3,7.6-3.3c7-2.5,14.3-2.2,21.5-1.8
		c14.3,0.8,28.5,2.4,42.2,7.3C317.9,134.6,323.9,140.6,329,148.7z"/>
	<path class="st3" d="M229.6,149.1c-8.8,10.2-6.4,21-2.9,31.8c0.9,2.7,2.6,5,4,7.7c-16,4.5-31.2,0-46.2-6.1
		c-0.2,0.3-0.5,0.6-0.7,0.8c0.2-1.6,0.2-3.3,0.7-4.7c2.3-6,4.6-12.1,7.1-18c2.1-4.9,6-8.4,10.3-11.5c0.6-0.4,1.6-0.6,2.4-0.6
		C212.6,148.7,221,148.9,229.6,149.1z"/>
	<path class="st1" d="M170.8,161c0.5-5.9,0.8-11.5,1.6-17.1c0.6-3.8,2.6-7.1,5.6-9.8c4.9-4.7,9.8-9.5,14.4-14.4
		c4-4.3,8.8-6.7,14.6-6.9c6.9-0.2,13.9-0.1,20.8-0.1c0.3,0,0.5,0.2,1.5,0.7c-2.9,1.1-5.1,2.1-7.4,2.9c-8.5,2.8-14.8,8.4-20.9,14.7
		c-6.7,6.9-14.2,13.2-21.1,20C176.7,153.8,174,157.2,170.8,161z"/>
	<path class="st1" d="M63.6,161.2c0.4-1.2,0.6-2.7,1.3-3.7c3.2-4.5,7-8.6,9.9-13.3c2.6-4.3,6.6-5.6,10.8-6.5
		c11.1-2.2,22.3-2,33.3,0.1c4.3,0.8,8.1,4.3,12.2,6.5c-0.1,0.3-0.2,0.5-0.2,0.8c-4.6,0.2-9.2,0.4-13.8,0.7c-7.6,0.6-15.3,1-22.9,2
		c-3,0.4-6,2.1-8.8,3.4c-6,2.8-11.9,5.7-17.8,8.6c-1.1,0.5-2.2,1.2-3.3,1.8C64.1,161.4,63.9,161.3,63.6,161.2z"/>
	<path class="st3" d="M98.3,152.1c-8.2,11.7-9.8,23.1-0.7,34.9c-9.8-0.4-18.1-3.4-24.5-10.7c-1.9-2.2-3.9-4.2-5.8-6.4
		c-1.9-2.1-1.7-3.4,0.8-4.7c5.3-2.6,10.8-4.9,16.2-7.4c3.9-1.8,7.8-3.7,11.7-5.5C96.5,152.1,97.2,152.2,98.3,152.1z"/>
	<path class="st1" d="M149.6,401.1c-0.7,4.9-1.4,10.3-2.3,16.4c-13.7-12.1-27.2-23.4-38.2-37.9c4.8-1.3,8.2,0.1,11.5,2.5
		c5.8,4.4,11.5,9.1,17.6,13.3C141.6,397.7,145.6,399.1,149.6,401.1z"/>
	<path class="st3" d="M144.6,421.8c-2.4,2.9-4.8,5.7-7.5,9c-3.3-10.1-8.1-17.6-15.2-23.4c-2.4-2-5.8-2.7-8.3-4.6
		c-5.9-4.6-10.5-10.4-13.8-17.1c-0.9-1.8-0.6-3.5,1.6-4.5c2-1,3.3-0.4,4.4,1.5c4.9,8.3,12.2,14.4,19,21
		C131.3,409.8,138,415.7,144.6,421.8z"/>
	<path class="st3" d="M316,154.3c-8,4.5-18,5-24.4,11.4c-3.1-5.3-6.4-10.7-9.7-16.3c11.1,1.3,22.6,2.7,34,4
		C316,153.7,316,154,316,154.3z"/>
	<path class="st3" d="M245,174.1c-4,0.5-7-0.8-8.7-4.3c-3.1-6.5,0-10.1,6.1-10.3c2.7-0.1,5.7,2,8,3.8c2,1.6,2.5,4.5,1.2,7
		C250.3,173,248.3,175,245,174.1z"/>
	<path class="st3" d="M144.7,158.2c3.9,4.9,8,9.8,11.7,14.9c1.3,1.8,1.6,4.3,2.4,6.4c0.9,2.3-0.2,3.4-2.3,3.9
		c-2.9,0.8-5.9,1.5-9.3,2.3c3.3-9.7,0.2-18.4-3.3-27.1C144.3,158.4,144.5,158.3,144.7,158.2z"/>
	<path class="st3" d="M101.2,169.3c0-4.5,2.3-6.3,7.9-6.2c2.3,0,4.3,3.1,4.3,6.5c0.1,4.2-2.1,6.3-6.5,6.3
		C103.1,175.9,101.2,173.7,101.2,169.3z"/>
	<path class="st3" d="M270.4,160.7c-2.4-0.1-4-1.3-4-3.9c0-2.6,2-3.4,4-3.7c1.9-0.3,4.2,2.3,4,4.2
		C274,159.4,272.9,160.9,270.4,160.7z"/>
	<path class="st3" d="M134.7,162.4c-1,0.7-2.7,2.7-3.4,2.4c-1.5-0.7-3.1-2.4-3.6-4c-0.2-0.8,2-3.1,3.2-3.3
		C133.5,157.2,134.1,159.5,134.7,162.4z"/>
	<path class="st3" d="M267.8,174.1c-2.2-0.2-3.2-1.7-3.2-4c0-2.1,1-3.3,3.1-3.1c2.1,0.2,3.9,1.1,4,3.7
		C271.7,173,270.3,174,267.8,174.1z"/>
	<path class="st3" d="M130.4,179.5c-2.2,0.1-3.1-1.1-3.2-3.1c-0.1-1.9,0.6-3,2.7-3c2.1-0.1,3.4,0.7,3.4,2.8
		C133.4,178.1,132.6,179.5,130.4,179.5z"/>
	<path class="st1" d="M63,128.8c-0.5,0.4-1,0.8-1.5,1.2c-0.3-0.3-0.7-0.7-1-1c0.6-0.2,1.2-0.5,1.8-0.7
		C62.5,128.4,62.8,128.6,63,128.8z"/>
	<path class="st1" d="M59.8,130.9c0.3-0.4,0.6-0.7,0.9-1.1c0.1,0.1,0.3,0.2,0.4,0.3c-0.3,0.4-0.5,0.8-0.8,1.2
		C60.2,131.2,60,131,59.8,130.9z"/>
	<path class="st1" d="M97.6,392.3c0.1,0.3,0.2,0.7,0.3,1c-0.3-0.1-0.6-0.2-0.9-0.3C97.3,392.7,97.5,392.5,97.6,392.3z"/>
	<path class="st1" d="M60.4,131.4c-0.2,0.1-0.5,0.1-0.7,0.2c0-0.2,0.1-0.4,0.1-0.7C60,131,60.2,131.2,60.4,131.4z"/>
	<path class="st0" d="M133.3,210.6c-5.6-0.2-11.3-0.5-17-0.8c-0.5,0-1.1,0-1.6-0.3c-1.5-0.8-3.9-1.2-3.1-3.7
		c0.8-2.4,2.7-1.6,4.6-1.2c9,2,17.8,0.6,26.4-2.1c3.6-1.2,7.1-2.9,10.7-4c1-0.3,2.3,0.4,3.4,0.6c-0.3,1.1-0.3,2.4-0.9,3.2
		c-0.7,0.9-1.9,1.4-2.9,1.9c-8.5,3.9-16.3,8.6-22,16.4c-3.9,5.4-8.2,10.6-12.4,15.7c-0.7,0.8-2.1,1-3.1,1.4c-0.3-1.3-1.3-3-0.8-3.8
		c2.7-4.2,5.7-8.2,8.8-12.1C126.7,217.9,130.2,214.1,133.3,210.6z"/>
	<path class="st0" d="M330.6,232.5c8.8,0.6,17.7,0.7,25.7,5.2c4.5,2.5,8.3,5.9,10.8,10.5c0.8,1.5,1.3,3.3-0.6,4
		c-0.9,0.3-2.8-0.7-3.4-1.6c-4.5-7.3-11.1-10.9-19.4-11.8c-5.2-0.5-10.4-0.8-15.5-1.4c-1.2-0.1-2.3-1.3-3.4-2c1.1-1,2-2.1,3.3-2.8
		C328.7,232.1,329.8,232.5,330.6,232.5z"/>
	<path class="st0" d="M337.8,215.6c4.9,1.3,9.7,2.5,14.6,4c1.9,0.6,3.3,2,2.3,4.1c-1,2.1-2.7,1-4.4,0.6c-4.9-1.2-9.8-2.2-14.8-3.2
		c-1.7-0.4-4,0-3.5-2.9c0.4-2.5,2.4-1.8,4-1.8c0.5,0,1.1,0,1.6,0.1C337.6,216.1,337.7,215.8,337.8,215.6z"/>
</g>
</svg>
