<?xml version="1.0" encoding="UTF-8"?>
<svg version="1.1" xmlns="http://www.w3.org/2000/svg" width="176" height="176">
<path d="M0 0 C58.08 0 116.16 0 176 0 C176 58.08 176 116.16 176 176 C117.92 176 59.84 176 0 176 C0 117.92 0 59.84 0 0 Z " fill="#6102EE" transform="translate(0,0)"/>
<path d="M0 0 C9.18917517 7.86078472 15.48583217 17.20114119 18.43359375 28.9921875 C18.43359375 31.9621875 18.43359375 34.9321875 18.43359375 37.9921875 C-13.24640625 37.9921875 -44.92640625 37.9921875 -77.56640625 37.9921875 C-77.56640625 25.01566761 -73.05583149 14.11143564 -64.3125 4.51953125 C-46.41022734 -12.69308725 -19.97953595 -15.63086983 0 0 Z " fill="#CFB2F9" transform="translate(117.56640625,50.0078125)"/>
<path d="M0 0 C31.68 0 63.36 0 96 0 C94.86675404 7.93272171 94.86675404 7.93272171 92.25 10.8125 C91.76015625 11.37582031 91.2703125 11.93914062 90.765625 12.51953125 C86.5643721 16.04226322 82.52098657 16.2327472 77.1875 16.125 C76.02605469 16.10695313 74.86460938 16.08890625 73.66796875 16.0703125 C72.78753906 16.04710938 71.90710938 16.02390625 71 16 C72.9152968 21.52056135 75.22034777 24.53318235 79.671875 28.32421875 C81 30 81 30 80.91015625 31.96875 C79.82601272 34.3882978 78.54539864 35.9227744 76.6875 37.8125 C76.09324219 38.43769531 75.49898438 39.06289062 74.88671875 39.70703125 C73 41 73 41 71.015625 40.94921875 C67.63398055 39.35670014 65.56236151 36.55650586 63.09765625 33.8125 C60.70633225 31.74625357 59.10159463 31.34522097 56 31 C56.01160156 32.07121094 56.02320313 33.14242187 56.03515625 34.24609375 C56.04453299 35.64322743 56.05363331 37.04036299 56.0625 38.4375 C56.07087891 39.14455078 56.07925781 39.85160156 56.08789062 40.58007812 C56.09653588 42.38693559 56.05220011 44.19387603 56 46 C55 47 55 47 51.875 47.1328125 C50.59625 47.13023437 49.3175 47.12765625 48 47.125 C46.72125 47.12757813 45.4425 47.13015625 44.125 47.1328125 C41 47 41 47 40 46 C39.76346477 43.47403741 39.57826308 40.96892793 39.4375 38.4375 C39.39431641 37.72658203 39.35113281 37.01566406 39.30664062 36.28320312 C39.20028223 34.52238088 39.09961154 32.7612168 39 31 C34.62960457 32.8396542 32.18030415 35.91858117 29.09765625 39.41796875 C27 41 27 41 24.48828125 40.9453125 C21.72865741 39.89691537 20.20354629 38.77050669 18.125 36.6875 C17.50882813 36.09324219 16.89265625 35.49898437 16.2578125 34.88671875 C15 33 15 33 15.01953125 31.0546875 C16.36745072 28.22996383 18.27127524 26.55661398 20.5625 24.4375 C23.03455192 22.21638193 23.03455192 22.21638193 25 20 C25 19.01 25 18.02 25 17 C23.71416016 16.96132812 23.71416016 16.96132812 22.40234375 16.921875 C15.51034701 16.57999467 10.4953162 16.32609999 5 12 C1.45851238 7.71293603 0.95222605 5.71335631 0 0 Z " fill="#FBF8FE" transform="translate(40,89)"/>
<path d="M0 0 C8.01872443 4.63497504 13.02480126 10.96825315 16.4375 19.5 C16.9325 23.955 16.9325 23.955 17.4375 28.5 C-3.3525 28.5 -24.1425 28.5 -45.5625 28.5 C-45.5625 19.46686747 -45.5625 19.46686747 -43.3125 15.3125 C-42.89484375 14.51457031 -42.4771875 13.71664062 -42.046875 12.89453125 C-38.99444061 7.97047262 -35.94718989 4.79235351 -31 1.75 C-30.04996094 1.15703125 -29.09992188 0.5640625 -28.12109375 -0.046875 C-19.97958925 -4.67075236 -8.29126545 -3.87275564 0 0 Z " fill="#A067F4" transform="translate(102.5625,59.5)"/>
<path d="M0 0 C5.06209033 4.01989526 5.13960359 5.78972512 6.125 12.6875 C-3.775 12.6875 -13.675 12.6875 -23.875 12.6875 C-22.79056823 6.18090937 -21.49744226 3.98218963 -16.875 -0.3125 C-11.74601136 -3.63941155 -5.32077398 -2.42904899 0 0 Z " fill="#FCFBFE" transform="translate(96.875,75.3125)"/>
</svg>
