<?xml version="1.0" encoding="utf-8"?>
<!-- Generator: Adobe Illustrator 28.2.0, SVG Export Plug-In . SVG Version: 6.00 Build 0)  -->
<svg version="1.1" id="Layer_1" xmlns="http://www.w3.org/2000/svg" xmlns:xlink="http://www.w3.org/1999/xlink" x="0px" y="0px"
	 viewBox="0 0 500 500" style="enable-background:new 0 0 500 500;" xml:space="preserve">
<style type="text/css">
	.st0{fill:#3C1A18;}
	.st1{fill:#482E27;}
	.st2{fill:#E5D0CB;}
	.st3{fill:#774C46;}
	.st4{fill:#FCF2F3;}
	.st5{fill:#C9B1AB;}
	.st6{fill:#C88C89;}
	.st7{fill:#683B36;}
	.st8{fill:#826158;}
	.st9{fill:#331515;}
	.st10{fill:#AC908A;}
	.st11{fill:#BB7573;}
	.st12{fill:#240D07;}
	.st13{fill:#4D1E1E;}
	.st14{fill:#622F2C;}
</style>
<g>
	<path class="st0" d="M32.2,217.3c-6.4-25.4-13-50.8-19.3-76.3c-1.5-6-3.2-12.1-3.2-18.4c1.8-1.5,0.9-2.2-0.8-2.6
		C3,86.1,5.3,53,17.6,20.8c3.9-10.3,9.5-19,22-20c2.1,1.8,4.3,1.8,6.4,0C53.4,1,59.6,4.4,65.7,8.2c11.2,7.1,20.8,16.1,30.2,25.3
		c16,15.7,31.4,32.1,51.3,43.3c7,3.9,14.4,6.8,22.1,8.9c0.5,1.6,1.1,2.5,2.6,0.8c20.8,2.9,41.2-1.7,61.8-3.4
		c4.1-0.3,8.2-0.4,12.3-0.6c2.1,1.8,4.3,1.8,6.4,0c25.9,0.6,51.6,3.2,77.3,5.6c4.8,0.4,9-0.8,13.2-2.1c15.4-4.9,28.5-14,41.9-22.8
		c11.6-7.6,23.7-14.5,37.8-15.7c17.1-1.5,27.9,7.4,30.8,24.3c1.5,8.4,1.3,16.7,0.2,25.1c-1.9,14.6-1.3,29.3-0.2,43.9
		c-1.7,1.4-0.9,2.1,0.7,2.6c0.9,1.6,0.7,3.4,0.5,5.2c-1.7,1.4-0.9,2.1,0.7,2.6c1.5,6,3,12.1,4.5,18.1c-1.8,1.6-0.8,2.3,1,2.6
		c8.5,20,20,38.6,25.4,60c7.2,28.7,10.9,57.2,5.5,86.8c-3.8,21.1-7.1,42.1-16.1,61.7c-21.5,47.3-57.4,80-103.6,102.3
		c-34.3,16.6-70.8,18.7-108,16.5c-3.9-0.2-7.7-0.7-11.6-1c-0.8-2.5-2.2-2.6-3.9-0.9c-7.5,0.2-14.8-1.5-22-3.2
		c-0.5-1.7-1.3-2.3-2.6-0.7c-20.3-2.9-38.8-10.8-56.7-20.5C121,448.2,91,409.3,70.8,362c-9.9-23.2-18.4-46.9-24.1-71.5
		c-0.3-1.4-0.4-3-0.6-4.4c1.7-1.4,0.9-2.1-0.7-2.6c-5-21-8.5-42.3-12.2-63.6C34.9,218.2,33.9,217.6,32.2,217.3z M22.3,134.8
		c0.1,1.2,0.1,2.5,1.7,2.9c-1.3,2,0.1,3.6,0.5,5.4c-0.8,1.9-0.3,3.7,0.1,5.7c5.4,21.1,10.8,42.3,16.2,63.4c2.5,9,2.8,18.5,6.4,27.3
		c0.2,3.2,0.1,6.4,0.8,9.6c2.5,11.7,4.5,23.5,7.1,35.2c4.5,20.3,9.8,40.3,19.4,58.9c1,7.6,4.1,14.4,8.4,20.8
		c0.8,5.3,3.9,9.6,6.2,14.2c35.5,69.1,93.7,104.7,169.4,112.3c18.8,1.9,38.1,1.4,57.2-1.2c56.1-7.5,98.8-36.6,132.6-80.2
		c18.8-24.3,28.6-52.5,33.1-82.7c2.2-1,2.3-2.3,0.6-3.9c-0.5-6.1,2.4-11.9,1.6-18c0.5-4.4,1-8.7,1.5-13.1c3.1-3.1,3.1-6.1,0-9.2
		c-0.8-7.9-1.6-15.8-2.5-23.6c0.7-1.6,0.6-3-1.4-3.6c-0.6-1.7-1.3-3.4-1.9-5.1c2-1.8,1.2-3.9,0.8-6c-5-25.9-19-48.1-29.2-71.9
		c-1-4.4-1.1-9.1-4-13c0.1-1.3,0.1-2.6,0.2-3.9c1.5-1.7,0.5-2.4-1.2-2.8c0.2-1.8,0.2-3.5-1.1-5c2.8-1.4,2.8-2.7-0.1-4
		c-1.4-15.1-2.1-30.2-0.7-45.4c0.9-8.6,1.5-17.2-0.2-25.8c-2.4-11-9-17.4-18.1-16.1c-13.8,1.9-26.5,6.7-36.4,17.2
		c-7,1.2-11.9,5.5-16.7,10.3c-10.3,4.4-20.7,8.8-31,13.3c-2.5,0.1-4.1,1.4-5.2,3.6c-2.2-0.8-4.4-1.6-6.6-2.3
		c-10-3.2-20.6-1.9-30.9-3.7c-1.6-2.1-3.4-2-5.3-0.4c-1.4-0.2-2.7-0.4-4.1-0.6c-2.2-5.1-4.8-4.5-7.6-0.5c-0.4,0-0.9,0-1.3,0
		c-1.2-1.6-2.5-1.5-3.8-0.1c-6.4-0.3-12.9-0.7-19.3-1c-15.8-1-31.4,0.3-46.9,3.8c-4.3,0.1-8.7-0.3-12.9,0.3
		c-17.3,2.3-33.6-0.4-49.2-8c-6.1-3-12.1-6.3-18.1-9.4c-16.1-13.4-30.4-28.7-45.7-42.9c-9.9-9.2-19.6-18.9-32.5-24.1
		c-3.5-1.4-6.7-2.7-10.2-0.2c-5.7-1.6-9.8-0.1-12.7,5.5C16.6,41,14.1,67.1,16,94c0,12.7,2.8,25,4.5,37.5
		C19.4,133.5,20.6,134.3,22.3,134.8z"/>
	<path class="st1" d="M252.3,82.5c-2.1,1.8-4.3,1.8-6.4,0C248,81.8,250.1,81.8,252.3,82.5z"/>
	<path class="st1" d="M46,0.8c-2.1,1.8-4.3,1.8-6.4,0C41.7-0.3,43.8-0.2,46,0.8z"/>
	<path class="st1" d="M248.4,497.4c1.7-1.7,3.1-1.6,3.9,0.9C251,498,249.7,497.7,248.4,497.4z"/>
	<path class="st1" d="M32.2,217.3c1.7,0.3,2.7,0.9,1,2.6C32.9,219,32.5,218.2,32.2,217.3z"/>
	<path class="st1" d="M455.3,151.2c-1.6-0.5-2.4-1.2-0.7-2.6C454.8,149.5,455,150.3,455.3,151.2z"/>
	<path class="st1" d="M460.7,172c-1.7-0.3-2.7-1-1-2.6C460.1,170.2,460.4,171.1,460.7,172z"/>
	<path class="st1" d="M45.4,283.4c1.6,0.5,2.4,1.2,0.7,2.6C45.9,285.2,45.7,284.3,45.4,283.4z"/>
	<path class="st1" d="M454,143.4c-1.6-0.5-2.5-1.2-0.7-2.6C453.5,141.7,453.8,142.6,454,143.4z"/>
	<path class="st1" d="M8.9,120c1.8,0.4,2.6,1.1,0.8,2.6C9,121.9,8.6,121,8.9,120z"/>
	<path class="st1" d="M171.8,86.5c-1.5,1.7-2.1,0.8-2.6-0.8C170.1,85.9,170.9,86.2,171.8,86.5z"/>
	<path class="st1" d="M223.8,493.6c1.3-1.7,2.1-1,2.6,0.7C225.5,494,224.7,493.8,223.8,493.6z"/>
	<path class="st2" d="M485.2,291.3c-0.5,4.4-1,8.7-1.5,13.1c-2.8-0.2-2.6,1.8-3.2,3.8c-2.4,8.7-4.6,17.5-7.8,25.9
		c-7.7,20.3-18.7,38.7-32,55.9c-13.2,17.1-28.2,32.7-45.2,46.1c-21.8,17.2-46.4,27-74.5,29.3c-30,2.5-58.9,0.3-86.1-13.5
		c-18.6-9.4-38-15.7-58.8-18.2c-17.5-2.1-33.4-8.2-45.9-21.3c-13.1-13.7-20.4-30.7-27.2-48c-1.7-4.2-1.9-9.5-6.5-12.2
		c4.1-9.8,8.2-19.6,12.4-29.5c-9.1-0.4-12.4-5.2-9.6-13.7c2-6,5.6-11.1,9.3-16.2c6.8-9.3,15.7-16.4,25.7-22.7
		c-13.7-5.4-17.7-13.9-11.2-26.1c9.1-17.2,19.9-33.3,34.4-46.6c7.4,6.8,16.1,4.8,24.5,3.2c13.2-2.6,25-9.2,37.2-14.7
		c13.9-6.3,28.3-10,43.4-11.5c13-1.3,26-3,38.4-7.9c5.8-2.3,9.2-5.2,6.5-12.1c-1.6-4.2,0-6.4,4.9-7.4c10.2-2.1,20.2-0.8,30.1,1.2
		c5.7,1.1,11.8,1.2,16.5,5.3c-10.1,1.1-20-0.7-29.8-2.8c-4-0.8-7.9-1.6-11.8,0.4c-5.2,2.8-5.2,6.9-0.3,10.4c2.2,1.5,5.9,0.3,6.8,3.9
		c-1.1,0.2-2.2,0.2-3.2,0.5c-30.1,10-60.3,19.5-90.1,30.3c-17.5,6.3-33.9,15.7-46.6,29.6c-27.6,30.4-33.9,67-26.8,105.8
		c5.9,32.2,23.8,58.1,50.1,77.7c42.2,31.5,89.6,40.9,140.9,32.3c25.8-4.3,48.9-14.8,68.7-32.4c25.2-22.5,40.8-50.4,48.2-83.1
		c5.2-22.8,6-45.7-2.2-68.1c-7-18.9-19.5-33.9-33.7-47.7c-3.7-3.6-8.7-5.8-11-10.7c1.4-0.4,2.4,0.1,3.6,0.8
		c8.7,5.2,16.4,11.7,23.7,18.6c6,5.7,12.8,9.4,21.4,8.6c5.8,6.5,7.7,15.2,12.7,22.1c0.6,1.7,1.3,3.4,1.9,5.1
		c-0.1,1.4,0.3,2.6,1.4,3.6c0.8,7.9,1.6,15.8,2.5,23.6C485.1,285.2,485.2,288.3,485.2,291.3z"/>
	<path class="st3" d="M157.2,197.5c-14.5,13.3-25.3,29.4-34.4,46.6c-6.5,12.2-2.5,20.7,11.2,26.1c-10,6.3-18.9,13.4-25.7,22.7
		c-3.7,5.1-7.3,10.2-9.3,16.2c-2.8,8.5,0.5,13.3,9.6,13.7c-4.1,9.9-8.3,19.7-12.4,29.5c-4.4,4.1-7.2,9.9-13.5,11.7
		c-4.3-6.3-7.3-13.1-8.4-20.8c4.1-2.1,9.7-11.9,9.1-15.9c-0.2-1.4-0.7-2.6-1.9-3.2c-3.5-1.6-3.2-4.7-3.2-7.7
		c-0.1-5.2,1.4-10.2,2.1-15.3c2.2-16.4,14-28.7,18.8-44.2c4.5-14.3,10.7-28.1,13.8-42.9c1.3-6.2,4.1-12.5,2.4-19.4
		c-2.6,1-3.2,3-4.1,4.6c-4.1,7-8.1,14.2-12.6,21.1c-4.8,7.4-13.2,10.7-21.5,8.4c-4.7-1.3-9-4-13.6-6.1c0.8,13.2-2,16.7-12.7,16.8
		c-1.3,0-2.6,0-3.9,0c-3.7-8.7-3.9-18.3-6.4-27.3c4.1-1.6,4.1-5.8,3.5-8.6c-1.3-6.3,2-5.9,6.1-5.3c7.4,1,13.9,5.3,21.6,5.6
		c11.6,0.6,21-4.4,20.8-16.9c-0.1-3.7-0.5-7.5-2-10.7c-2.2-4.8-1-5.4,3.8-5.9c9.8-1.1,11.2-5,5.3-13c-0.8-1-1.3-2.3-2.2-3.2
		c-3.2-3.1-2.4-4.9,1-7.6c10.9-8.5,16.4-19.9,14.6-33.9c-0.5-3.8,0.3-8.9-4.9-11c-0.4-2.1,0.5-4.5-1.2-6.4
		c-3-11.2-9.5-20.5-15.9-29.9C77.8,44.8,64.9,23.4,42.1,11.1c3.5-2.6,6.7-1.2,10.2,0.2c12.9,5.2,22.6,14.9,32.5,24.1
		c15.3,14.2,29.6,29.5,45.7,42.9c1.2,3.6,2.5,7.2,3.7,10.8c4.8,15.2,5.8,30.7,5.2,46.5c-0.1,1.9-0.9,4.4,0.7,5.5
		c2.2,1.5,3.2-1.3,4.7-2.3c18-12.8,35.3-26.5,55.7-35.6c3.7-1.6,9.1-2.2,10.2-7.8c15.4-3.5,31.1-4.8,46.9-3.8
		c-0.1,6.7-3.8,9.9-10.1,11.3c-13.3,2.8-26.3,6.5-38.5,12.7c-14.5,7.4-26.9,17.8-39.3,28.1c-2.2,1.8-3.8,4.2-2.2,7.3
		c1.7,3.2,4.1,4.1,7.5,2.9c1.8-0.7,3.7-1.1,5.7-0.3c-0.1,1.4,0.5,3.1-1.2,4c-9.5,2-16.4,7.8-22.4,15c-2.6,3.2-1.3,6.6,1,9.4
		c2.3,2.7,4.8,5.2,7.3,7.7C162.8,192.3,160,194.9,157.2,197.5z"/>
	<path class="st4" d="M180.9,153.6c-1.9-0.8-3.9-0.3-5.7,0.3c-3.4,1.2-5.8,0.4-7.5-2.9c-1.6-3.2,0-5.5,2.2-7.3
		c12.4-10.3,24.7-20.8,39.3-28.1c12.2-6.2,25.2-9.9,38.5-12.7c6.3-1.4,10-4.6,10.1-11.3c6.4,0.3,12.9,0.7,19.3,1
		c1.2,0.9,2.5,0.7,3.8,0.1c0.4,0,0.9,0,1.3,0c2.5,0.2,5.1,0.4,7.6,0.5c1.4,0.2,2.7,0.4,4.1,0.6c1.7,1.3,3.5,0.8,5.3,0.4
		c10.2,1.8,20.8,0.5,30.9,3.7c2.2,0.7,4.4,1.6,6.6,2.3c12.5,8.2,25.5,15.5,37.4,24.4c2.6,2.7,5.3,5.4,7.9,8.1
		c-3.4,0.5-6.9,1.1-10.3,1.6c-0.6-1.3-1.6-1.6-2.9-1.3c-3.6,1.1-9,0.5-9.6,4.9c-0.5,3.6,4.3,5.3,7.4,7.1c0.1,3.1,2.4,3.4,4.8,3.5
		c4,2.1,7.6,5.1,12.1,6.3c0.9,0.5,1.7,0.9,2.6,1.4c7.3,5.6,15.6,7.7,24.6,7.8c0.9,2.6,3,2.7,5.3,2.5c2.6,0.3,5.1,0.6,7.7,0.8
		c4.1,6.1,10.1,10.1,15.7,14.6c3.7,3.9,7.4,7.8,11.1,11.7c1.6,1.6,2.3,3.2,0.2,4.9c-3.1,2.6-1.7,4.6,0.4,7
		c5.9,6.9,11.9,13.7,15.7,22.1c-8.6,0.8-15.3-3-21.4-8.6c-7.3-6.9-15-13.4-23.7-18.6c-1.2-0.7-2.3-1.2-3.6-0.8
		c-12.6-7.9-24.4-16.8-34.9-27.4c-0.4-5.1,3.1-12.1-5.9-13.4c0,0-0.3,0.2-0.3,0.2c-4.8-5.7-11.8-4.4-18-5.5
		c-4.7-4.1-10.9-4.2-16.5-5.3c-9.9-1.9-19.8-3.3-30.1-1.2c-5,1-6.6,3.2-4.9,7.4c2.7,6.9-0.7,9.8-6.5,12.1
		c-12.4,4.9-25.4,6.6-38.4,7.9c-15.1,1.5-29.6,5.3-43.4,11.5c-12.1,5.5-23.9,12.1-37.2,14.7c-8.4,1.7-17.1,3.6-24.5-3.2
		c2.8-2.6,5.6-5.2,8.4-7.7c-2.4-2.6-5-5-7.3-7.7c-2.3-2.8-3.7-6.2-1-9.4c5.9-7.2,12.9-13,22.4-15c-2.3,2.8-1.4,4.9,1.8,5.7
		c2.3,0.5,4.7,0.3,7.1,0.4c2,1,3.7,0.6,5.3-0.8c1.7,0,3.5-0.1,5.2-0.1c0.4,0,0.9,0,1.3,0c10.1-1.3,20.2-3.1,29.9-6.5
		c1.6,0.3,3.1,0.1,4.6-0.7c1.2,0.5,2.2,0,3.2-0.7c2.5-0.7,4.9-1.4,7.4-2c3.9-1,8.1-2.3,7.7-7.1c-0.3-4.5-4.3-6.1-8.3-7.6
		c-0.2,4.3,1.1,8.8-4.2,10.4c-0.4-0.4-0.9-0.6-0.6-1.4c2.8-9.5-0.9-14-11-13.6c-5.1-0.3-10.2-2.4-15.4-0.3
		c-4.2,0.3-7.8,2.2-11.7,3.4c-0.4,0.2-0.9,0.4-1.3,0.7c-2.2,1.7-4.3,3.5-6.5,5.2c-3.2,1-5,3.6-7.1,5.8c-2.1,0.4-3.5,1.5-3.5,3.8
		C182.6,152.7,181.7,153.1,180.9,153.6z"/>
	<path class="st5" d="M82.9,364c6.3-1.8,9.1-7.7,13.5-11.7c4.6,2.7,4.9,8,6.5,12.2c6.8,17.3,14.1,34.3,27.2,48
		c12.5,13.1,28.4,19.2,45.9,21.3c20.8,2.5,40.2,8.8,58.8,18.2c27.2,13.8,56.1,16,86.1,13.5c28.1-2.3,52.7-12.2,74.5-29.3
		c17-13.4,31.9-29,45.2-46.1c13.2-17.1,24.3-35.6,32-55.9c3.2-8.4,5.4-17.2,7.8-25.9c0.5-1.9,0.4-4,3.2-3.8c0.8,6.1-2.1,11.9-1.6,18
		c-1.1,1.2-1.2,2.5-0.6,3.9c-4.5,30.2-14.3,58.4-33.1,82.7c-33.8,43.7-76.6,72.7-132.6,80.2c-19.2,2.6-38.5,3.1-57.2,1.2
		c-75.8-7.6-134-43.2-169.4-112.3C86.8,373.5,83.8,369.2,82.9,364z"/>
	<path class="st6" d="M91.3,65.5c6.4,9.4,12.9,18.7,15.9,29.9c-2.3,0.1-3.2-1.5-4.5-3.1c-5.1-6.5-11.3-11.8-18.3-16.2
		c-7.7-4.8-11.6-3.4-14.5,5.2c-2.8,8.1-5.8,16.2-8.1,24.4c-3.9,13.8-7.8,27.6-11.1,41.6c-2.3,9.5-2.3,19.5-6.1,28.7
		c-3.6-3.4-5.6-8-8.5-11.9c-4.7-6.6-6.2-14.8-11.7-20.9c-0.4-1.8-1.9-3.5-0.5-5.4c0.3-13.2-0.2-26.5,1.2-39.7
		c2.5-9.5,2.2-19.5,4-29.1c1.8-9.7,3.3-19.6,6.7-28.9c5.2-14.3,17.4-17,28.2-6.5c6.6,6.3,11.3,14.1,16.9,21.2
		C84,58.6,85.8,63.9,91.3,65.5z"/>
	<path class="st7" d="M47.3,239.4c1.3,0,2.6,0,3.9,0c10.7-0.1,13.4-3.6,12.7-16.8c4.7,2.1,9,4.8,13.6,6.1c8.3,2.3,16.6-1,21.5-8.4
		c4.5-6.8,8.4-14,12.6-21.1c1-1.6,1.6-3.5,4.1-4.6c1.7,6.9-1.1,13.2-2.4,19.4c-3.1,14.7-9.3,28.6-13.8,42.9
		c-4.9,15.5-16.6,27.8-18.8,44.2c-0.7,5.1-2.2,10-2.1,15.3c0,3.1-0.3,6.1,3.2,7.7c1.2,0.6,1.7,1.8,1.9,3.2c0.6,4-4.9,13.7-9.1,15.9
		c-9.6-18.6-14.9-38.7-19.4-58.9c-2.6-11.7-4.6-23.5-7.1-35.2C47.3,245.8,47.4,242.6,47.3,239.4z"/>
	<path class="st8" d="M24.5,143.1c5.5,6.1,7,14.4,11.7,20.9c2.8,4,4.8,8.5,8.5,11.9c2.3,5.1,6.8,8.3,10.5,12.2
		c1.1,1.1,2.2,3.5,4,2.5c2.2-1.1,0.5-3.3,0.3-5.2c-0.3-2.6-0.4-5.1-0.4-7.7c0-8.3,0-8.3,7.7-4.6c2.6,1.2,6,4.7,8,2.9
		c2.6-2.4,1.2-6.8,0.5-10.4c-0.1-0.6-0.4-1.2-0.6-1.8c-1.6-4.1-2.5-7.6,4.2-5.1c1,0.4,2.2-0.1,3.2,0.3c4.8,1.7,5.8-0.3,5.6-4.9
		c-0.3-9.7-1-19.4,1.9-28.9c0.6-2-0.5-5.2,1.8-5.7c3-0.8,2.2,3,3.6,4.4c1.4,1.4,2.7,2.8,4,4.2c2.4,2.6,3.4,2,4.7-1.2
		c3.3-8.1,3.7-16.7,4.8-25.2c5.1,2.1,4.4,7.2,4.9,11c1.8,14-3.8,25.3-14.6,33.9c-3.4,2.7-4.2,4.5-1,7.6c0.9,0.9,1.4,2.1,2.2,3.2
		c5.8,8,4.4,11.9-5.3,13c-4.8,0.5-6,1.2-3.8,5.9c1.5,3.2,2,6.9,2,10.7c0.3,12.4-9.2,17.4-20.8,16.9c-7.7-0.4-14.2-4.6-21.6-5.6
		c-4.1-0.6-7.4-1-6.1,5.3c0.6,2.8,0.6,7-3.5,8.6C35.4,191,30,169.9,24.6,148.7C24.1,146.8,23.7,145,24.5,143.1z"/>
	<path class="st7" d="M210.8,95.4c-1.1,5.6-6.6,6.2-10.2,7.8c-20.4,9-37.8,22.7-55.7,35.6c-1.4,1-2.5,3.8-4.7,2.3
		c-1.6-1.2-0.8-3.6-0.7-5.5c0.5-15.8-0.4-31.4-5.2-46.5c-1.1-3.6-2.5-7.2-3.7-10.8c6,3.1,12,6.4,18.1,9.4c15.6,7.6,32,10.3,49.2,8
		C202.1,95.1,206.5,95.5,210.8,95.4z"/>
	<path class="st6" d="M447.1,155.1c-0.1,1.3-0.1,2.6-0.2,3.9c-3.3,0.2-2.4,3.6-4.1,5.1c-5.1-3.5-6.3-9.4-8.2-14.5
		c-5.9-15.6-11.1-31.6-16.9-47.3c-2.5-6.8-6.3-12.9-13.2-16c-9.2-4.1-16.1,0.5-22.5,6.5c-0.2-6.7,3.6-11.7,7.1-16.8
		c7.9-3.2,15.7-6.9,24-9c17-4.3,27.4,5,24.2,22.1c-2.7,14.4-3.2,28.6,0.5,42.8c2,7.8,2.5,16.2,8.4,22.5
		C446.5,154.7,446.8,155,447.1,155.1z"/>
	<path class="st2" d="M91.3,65.5c-5.5-1.7-7.4-6.9-10.5-10.9C75.3,47.5,70.5,39.7,64,33.4c-10.8-10.4-23.1-7.8-28.2,6.5
		c-3.4,9.3-4.9,19.2-6.7,28.9c-1.8,9.7-1.4,19.6-4,29.1c-2.1-3.5-4.6-6-9.1-3.9c-1.9-26.9,0.6-53,13.4-77.5c2.9-5.6,7-7.1,12.7-5.5
		C64.9,23.4,77.8,44.8,91.3,65.5z"/>
	<path class="st2" d="M446.2,154.4c-5.9-6.4-6.3-14.8-8.4-22.5c-3.7-14.2-3.2-28.4-0.5-42.8c3.2-17.1-7.2-26.4-24.2-22.1
		c-8.3,2.1-16.1,5.8-24,9c0.1-0.9,0.2-1.9,0.3-2.8c9.9-10.5,22.6-15.2,36.4-17.2c9.2-1.3,15.7,5.1,18.1,16.1
		c-3.1,3.4-3.5,22.1-0.4,25.7c0.1,0.1,0.4,0.1,0.6,0.1c-1.5,15.2-0.7,30.3,0.7,45.4c0,1.3,0.1,2.7,0.1,4c1.2,1.5,1.3,3.2,1.1,5
		C446.1,153,446.2,153.7,446.2,154.4z"/>
	<path class="st3" d="M466.7,227.7c-3.7-8.4-9.8-15.2-15.7-22.1c-2.1-2.4-3.5-4.4-0.4-7c2-1.7,1.4-3.2-0.2-4.9
		c-3.8-3.8-7.4-7.8-11.1-11.7c3.9-3.4,7.8-6.8,11.7-10.2c10.2,23.8,24.2,46,29.2,71.9c0.4,2.1,1.2,4.2-0.8,6
		C474.4,242.9,472.5,234.1,466.7,227.7z"/>
	<path class="st3" d="M389.4,73.2c-0.1,0.9-0.2,1.9-0.3,2.8c-3.4,5.2-7.3,10.1-7.1,16.8c-0.1,0.4-0.1,0.8-0.2,1.3
		c-2.1,1.3-3.2,3.2-4.1,5.5c-3.1,8.2-3.7,16.6-3.7,25.2c-12-8.9-25-16.3-37.4-24.4c1-2.2,2.6-3.5,5.2-3.6c0.3,0.8,0.3,2,0.8,2.3
		c5.7,3.3,11.8,5.6,16.8,10c1.5,1.3,3.7,0.9,4.4-1.8c1.9-8.3,6.4-15.7,9-23.8C377.5,78.7,382.5,74.3,389.4,73.2z"/>
	<path class="st8" d="M450.9,171.9c-3.9,3.4-7.8,6.8-11.7,10.2c-5.6-4.5-11.6-8.5-15.7-14.6c-1.5-4-2.6-8.3-5.3-11.9
		c-2.8-0.9-2.8-8-8-3.6c0.3-4.8-2.7-7.7-6.3-10.1c0-0.8,0-1.6,0-2.3c5-1.3,10,0.7,15,0c5.2-0.7,6.6,1,4.3,6.1
		c-0.7,1.7-6.7,8.6,3.1,5.7c1.8-0.5,2.4,1.5,3.1,2.7c1.6,3.1,3,6.2,4.6,9.2c1.1,2,0.6,5.3,3.6,5.7c3.3,0.4,3.6-3.1,5.1-4.9
		c1.6-1.5,0.8-5,4.1-5.1C449.8,162.8,449.9,167.5,450.9,171.9z"/>
	<path class="st7" d="M372.8,83.5c-2.6,8.1-7.1,15.5-9,23.8c-0.6,2.7-2.9,3.1-4.4,1.8c-5-4.4-11.2-6.8-16.8-10
		c-0.5-0.3-0.6-1.5-0.8-2.3C352.1,92.3,362.5,87.9,372.8,83.5z"/>
	<path class="st4" d="M16,94c4.5-2.1,7,0.4,9.1,3.9c-1.4,13.2-0.8,26.5-1.2,39.7c-1.5-0.4-1.5-1.7-1.7-2.9c0.6-1.7-0.1-2.7-1.8-3.2
		C18.8,119.1,16,106.7,16,94z M20.4,106.9c-0.1,0.7-0.3,1.3-0.2,1.8c0,0.3-0.1,1.6,0.9,0.6c0.3-0.3,0.2-1.1,0.1-1.7
		C21.2,107.4,20.8,107.2,20.4,106.9z"/>
	<path class="st4" d="M444.2,97.9c-0.2,0-0.5,0-0.6-0.1c-3-3.6-2.7-22.3,0.4-25.7C445.7,80.7,445.1,89.3,444.2,97.9z"/>
	<path class="st1" d="M485.2,291.3c0-3.1,0-6.1,0-9.2C488.3,285.2,488.2,288.3,485.2,291.3z"/>
	<path class="st9" d="M289.8,93.3c-2.5-0.2-5.1-0.4-7.6-0.5C285,88.8,287.6,88.1,289.8,93.3z"/>
	<path class="st3" d="M299.2,94.3c-1.8,0.3-3.6,0.8-5.3-0.4C295.8,92.3,297.6,92.2,299.2,94.3z"/>
	<path class="st1" d="M444.9,147.3c0-1.3-0.1-2.7-0.1-4C447.7,144.6,447.8,145.9,444.9,147.3z"/>
	<path class="st1" d="M481.5,326.4c-0.6-1.4-0.5-2.7,0.6-3.9C483.8,324.1,483.7,325.4,481.5,326.4z"/>
	<path class="st3" d="M280.8,92.7c-1.3,0.6-2.6,0.8-3.8-0.1C278.3,91.2,279.6,91.2,280.8,92.7z"/>
	<path class="st8" d="M446.2,154.4c-0.1-0.7-0.2-1.4-0.3-2.1c1.7,0.4,2.6,1.1,1.2,2.8C446.8,155,446.5,154.7,446.2,154.4z"/>
	<path class="st1" d="M482.7,258.5c-1-1-1.5-2.2-1.4-3.6C483.3,255.5,483.3,256.9,482.7,258.5z"/>
	<path class="st5" d="M20.5,131.5c1.6,0.5,2.4,1.5,1.8,3.2C20.6,134.3,19.4,133.5,20.5,131.5z"/>
	<path class="st10" d="M383.1,172.2c10.4,10.7,22.3,19.6,34.9,27.4c2.4,4.9,7.4,7.2,11,10.7c14.3,13.8,26.8,28.7,33.7,47.7
		c8.2,22.5,7.4,45.3,2.2,68.1c-7.4,32.7-23,60.6-48.2,83.1c-19.7,17.6-42.9,28.1-68.7,32.4c-51.3,8.7-98.8-0.8-140.9-32.3
		c-26.3-19.6-44.2-45.5-50.1-77.7c-7.2-38.8-0.9-75.5,26.8-105.8c12.7-14,29-23.3,46.6-29.6c29.8-10.8,60-20.3,90.1-30.3
		c1-0.3,2.1-0.4,3.2-0.5c9.1-0.5,14.5,5.3,19.5,11.7c0.4,3.5-0.2,5.2-4.7,5.4c-11,0.5-22.1-1-32.8,0.3c-14.6,1.8-29.3,4.3-43.4,9.3
		c-33.9,12.1-61.5,31.7-78.7,64.1c-3.9,6.5-6.9,13.4-9.2,20.6c-2.9,9-6,18-4.4,27.8c-1.7,0.8-1.8,2.3-1.8,3.8
		c-0.2,23.8,6.1,45.5,20.3,64.8c3.5,5.9,7.6,11.3,12.9,15.7l0.1-0.2c0.8,2.9,2.6,4.7,5.6,5.4c3,4.3,7.2,7.3,11.4,10.3
		c1,1.1,2,2.3,3.2,3.2c44,30.8,91.6,40.2,143.3,23.5c12.4-4,24.5-9.6,34.4-18.5c5.4-2.7,10.1-6.3,14.1-10.7
		c11.8-10.3,21.4-22.4,28.3-36.5c6.5-11.3,11.3-23.3,13.1-36.4c-0.1-0.9-0.2-1.7-0.3-2.6c0.2-1.7,0.4-3.3,0.5-5
		c2.5-2.7,2.1-6,1.9-9.3c0.6-2.2,0.6-4.3,0.1-6.5c0.1-22.2-5.9-42.5-18.5-60.8c-19.9-31.2-46.7-52.7-83.6-59.9
		c-4.9-1-5.2-2.8-2.6-6.4c7.6-3.8,14.8-8.4,23.2-10.4C378.1,169.4,380.6,170.8,383.1,172.2z"/>
	<path class="st11" d="M375.7,168c-8.4,2-15.6,6.6-23.2,10.4c0-0.9,0-1.7,0-2.6c4.8-0.6,4-5.9,6.8-8.3c1.2-1.1-0.8-2.1-2.1-1.6
		c-1.3,0.5-2.5,1.4-3.8,2.1c-6.2-1.2-10.5-0.3-9.4,7.6c0.1,0.5-0.5,1.1-0.8,1.6c-5-6.4-10.3-12.2-19.5-11.7
		c-0.9-3.6-4.6-2.4-6.8-3.9c-4.9-3.5-4.9-7.7,0.3-10.4c-0.2,5,3.3,5.7,7.1,6.7c7.2,1.9,15.6-0.6,21.8,4.4c4.8,3.8,7.4,2.7,10.1-1.7
		c1.7,0.1,3.3,0.1,5,0.2c5.5,4.7,8,4.4,15.7-1.6c0,0,0.3-0.2,0.3-0.2C377.8,162,375.5,164.8,375.7,168z"/>
	<path class="st6" d="M356.1,160.4c-2.7,4.4-5.2,5.5-10.1,1.7c-6.2-4.9-14.6-2.5-21.8-4.4c-3.8-1-7.3-1.7-7.1-6.7
		c3.9-2.1,7.8-1.3,11.8-0.4c9.8,2.1,19.7,4,29.8,2.8c6.2,1.1,13.2-0.2,18,5.5c-7.6,6-10.2,6.3-15.7,1.6c1.5-0.5,3.9,0.1,3.7-2.5
		c-0.2-1.9-2.1-1.8-3.6-1.7c-4.1,0.2-8.3-0.7-13.1,0.7C350.8,160.1,354.5,157.8,356.1,160.4z"/>
	<path class="st11" d="M108.4,101.8c-1.1,8.5-1.5,17.1-4.8,25.2c-1.3,3.2-2.4,3.8-4.7,1.2c-1.3-1.4-2.6-2.9-4-4.2
		c-1.4-1.4-0.6-5.2-3.6-4.4c-2.3,0.6-1.2,3.8-1.8,5.7c-2.9,9.4-2.2,19.2-1.9,28.9c0.2,4.6-0.8,6.5-5.6,4.9c-1-0.3-2.2,0.1-3.2-0.3
		c-6.7-2.5-5.8,1-4.2,5.1c0.2,0.6,0.5,1.2,0.6,1.8c0.7,3.6,2.1,8-0.5,10.4c-2,1.8-5.3-1.6-8-2.9c-7.7-3.7-7.8-3.7-7.7,4.6
		c0,2.6,0.1,5.2,0.4,7.7c0.2,1.8,1.9,4-0.3,5.2c-1.8,0.9-2.9-1.4-4-2.5c-3.7-3.8-8.2-7.1-10.5-12.2c3.8-9.2,3.8-19.1,6.1-28.7
		c3.3-14,7.2-27.8,11.1-41.6c2.3-8.3,5.3-16.3,8.1-24.4c2.9-8.5,6.9-9.9,14.5-5.2c7,4.4,13.2,9.7,18.3,16.2c1.3,1.6,2.2,3.2,4.5,3.1
		C108.9,97.3,108,99.7,108.4,101.8z"/>
	<path class="st9" d="M188.6,163.7c-2.4-0.1-4.8,0.2-7.1-0.4c-3.3-0.8-4.1-2.8-1.8-5.7c1.7-1,1.1-2.6,1.2-4c0.8-0.5,1.7-0.9,2.5-1.4
		c-0.1,4.2,1.6,7.4,5.3,9.3C188.7,162.3,188.6,163,188.6,163.7z"/>
	<path class="st8" d="M374.1,124.8c0-8.6,0.6-17.1,3.7-25.2c0.9-2.3,1.9-4.3,4.1-5.5c2.2,1.6,1.2,3.9,1.5,6c1.2,8.1,3,16.1,6.9,23.4
		c1.4,2.8,2.9,4.1,4.6,0.3c0.6-1.2,0.9-2.6,2.6-2c1.3,0.4,1.2,1.6,1.4,2.7c0.5,4.5,1,9,1.5,13.5c-1.3,0.2-2.6,0.4-3.9,0.5l0.1,0.1
		c-3.4-6.8-9.5-3.4-14.6-4c0-0.5,0-1.1,0-1.6C379.4,130.2,376.7,127.5,374.1,124.8z"/>
	<path class="st12" d="M201.8,136.7c3.9-1.3,7.5-3.2,11.7-3.4c0.7,0.5,1.5,1,2.2,1.5c-2.7,2.5-4,5.6,0.5,6.6c4.7,1,9,3.9,14,3.4
		c-0.3,9.4-8.9,9.8-14.6,12.2c-12,4.9-21.8-2.1-21.6-14.3c2.2-1.7,4.3-3.5,6.5-5.2c3.6,0,2,1.9,1.5,3.7c-0.8,2.6,1,3.6,3.1,3.5
		c2.3-0.1,4.1-1.4,4.2-3.9c0-2.6-1.7-3.2-3.9-2.4C203.5,138.9,201.5,140.4,201.8,136.7z"/>
	<path class="st12" d="M382,134.4c5.1,0.5,11.2-2.8,14.6,4c-0.6-0.1-1.3-0.3-1.9-0.4c-1.6-0.2-3.8-2.8-4.5,0.8
		c-0.4,1.9,1.1,3.4,3,3.5c2.7,0.2,4.9-0.4,3.2-4c1.3-0.2,2.6-0.4,3.8-0.5c1,1.1,2.2,1.7,3.7,1.7c0,0.8,0,1.6,0,2.3
		c-4.1,0.1-5.8,1.7-2.8,5.4c1.7,2.1,3.9,3.9,5.9,5.9c-0.7,3.7-3.5,4.2-6.6,4.6c-5,0.6-9.6-1.9-14.5-1.4c-0.9-0.5-1.7-0.9-2.6-1.4
		c0.1-1.7-1-2.7-2-3.8C374.9,143.7,375,140.8,382,134.4z"/>
	<path class="st1" d="M194,142.5c-0.2,12.3,9.6,19.2,21.6,14.3c5.8-2.4,14.3-2.7,14.6-12.2c1.5-0.9,4.5,0.1,4.5-2.7
		c0-1.8-1.1-3.7-3-4.6c-1-0.5-1.9-1-2.8-1.5c0-0.8,0-1.5,0.1-2.3c10.2-0.4,13.9,4.1,11,13.6c-0.3,0.9,0.2,1,0.6,1.4
		c0,0,0.1-0.1,0.1-0.1c-1.8-1.3-2-0.1-2.1,1.4l-0.1,0.1c-3-0.1-5.2,1.1-6.8,3.5c-1.1,0.6-1.4,1.6-1.5,2.7
		c-9.7,3.4-19.7,5.2-29.9,6.5c-0.4-0.7-0.8-0.7-1.3,0c-1.7,0-3.5,0.1-5.2,0.1c-0.3-0.4-0.6-0.8-0.9-1.3c-5-3-6.9-7.5-6.1-13.2
		C189,146.2,190.8,143.5,194,142.5z"/>
	<path class="st1" d="M385.9,156.3c4.9-0.4,9.5,2.1,14.5,1.4c3.1-0.4,6-0.9,6.6-4.6c1.3,0.2,2.8,0.8,3.3-1.2c3.4,0.5,2.5,3.3,3,5.5
		c0.6,3-3.2,3.9-2.8,6.7C401.6,164.1,393.2,162,385.9,156.3z"/>
	<path class="st1" d="M382,134.4c-7,6.4-7.2,9.2-0.7,16.7c1,1.1,2.1,2.1,2,3.8c-4.5-1.2-8-4.2-12.1-6.3c-0.6-4.8-2.7-9.6,0.4-14.2
		c3.4-0.5,6.9-1.1,10.3-1.6C382,133.4,382,133.9,382,134.4z"/>
	<path class="st0" d="M238.5,150c0,0,0.1-0.1,0.1-0.1c1.7,1,2,0,2.1-1.4c0,0-0.1,0.1-0.1,0.1c5.3-1.6,4-6.1,4.2-10.4
		c4,1.5,8,3.1,8.3,7.6c0.4,4.8-3.8,6.1-7.7,7.1c-2.5,0.6-5,1.3-7.4,2C238.2,153.3,238.3,151.7,238.5,150z"/>
	<path class="st2" d="M410.6,164.1c-0.5-2.8,3.4-3.8,2.8-6.7c-0.5-2.2,0.4-4.9-3-5.5c0,0-0.1,0.1-0.1,0.1c5.2-4.4,5.2,2.8,8,3.6
		c0.7,4-3.4,6.9-2.4,11C413.6,166.9,411.5,166.7,410.6,164.1z"/>
	<path class="st2" d="M375.7,168c-0.2-3.2,2.1-5.9,1.5-9.2c9.1,1.3,5.5,8.2,5.9,13.4C380.6,170.8,378.1,169.4,375.7,168z"/>
	<path class="st1" d="M366.5,145.1c-3.1-1.8-7.9-3.5-7.4-7.1c0.6-4.4,6-3.8,9.6-4.9C364.8,136.5,366.3,141,366.5,145.1z"/>
	<path class="st2" d="M366.5,145.1c-0.2-4.2-1.8-8.6,2.2-12c1.3-0.3,2.3,0,2.9,1.3c-3.2,4.7-1,9.5-0.4,14.2
		C368.9,148.6,366.7,148.3,366.5,145.1z"/>
	<path class="st5" d="M186.9,148.4c-0.9,5.7,1.1,10.2,6.1,13.2c-1.4,0-2.8,0-4.2,0c-3.8-2-5.5-5.1-5.3-9.3
		C183.4,149.9,184.8,148.8,186.9,148.4z"/>
	<path class="st2" d="M201.8,136.7c-0.2,3.7,1.8,2.2,3.5,1.6c2.2-0.8,4-0.2,3.9,2.4c0,2.5-1.8,3.9-4.2,3.9c-2.1,0-3.9-1-3.1-3.5
		c0.5-1.8,2.1-3.7-1.5-3.7C200.9,137.1,201.3,136.9,201.8,136.7z"/>
	<path class="st9" d="M415.9,166.7c-1-4.1,3.1-7,2.4-11c2.6,3.6,3.7,7.8,5.3,11.9C421,167.2,418.4,166.9,415.9,166.7z"/>
	<path class="st0" d="M228.9,133.6c0,0.8,0,1.5-0.1,2.3c-4.4-0.4-8.8-0.8-13.2-1.2c-0.7-0.5-1.5-1-2.2-1.5
		C218.7,131.2,223.8,133.3,228.9,133.6z"/>
	<path class="st3" d="M238.5,150c-0.2,1.6-0.4,3.2-0.6,4.8c-0.9,0.8-1.9,1.2-3.2,0.7c-0.8-1-1.7-1.9-3.1-2
		C233.3,151.1,235.6,149.9,238.5,150z"/>
	<path class="st8" d="M188.8,161.6c1.4,0,2.8,0,4.2,0c0.3,0.4,0.6,0.8,0.9,1.3c-1.6,1.4-3.4,1.8-5.3,0.8
		C188.6,163,188.7,162.3,188.8,161.6z"/>
	<path class="st0" d="M231.7,153.6c1.4,0.1,2.3,1,3.1,2c-1.4,0.8-3,1-4.6,0.7C230.3,155.2,230.6,154.1,231.7,153.6z"/>
	<path class="st8" d="M199.1,162.8c0.4-0.7,0.9-0.7,1.3,0C200,162.8,199.5,162.8,199.1,162.8z"/>
	<path class="st11" d="M404.1,139.6c-1.5-0.1-2.7-0.6-3.7-1.7c-0.5-4.5-1-9-1.5-13.5c-0.1-1.1-0.1-2.3-1.4-2.7
		c-1.8-0.5-2.1,0.8-2.6,2c-1.8,3.8-3.2,2.5-4.6-0.3c-3.8-7.4-5.7-15.3-6.9-23.4c-0.3-2,0.7-4.4-1.5-6c0.1-0.4,0.1-0.8,0.2-1.3
		c6.4-6,13.4-10.6,22.5-6.5c6.9,3.1,10.7,9.2,13.2,16c5.8,15.7,10.9,31.7,16.9,47.3c2,5.1,3.2,11,8.2,14.5c-1.5,1.9-1.8,5.4-5.1,4.9
		c-2.9-0.4-2.5-3.7-3.6-5.7c-1.7-3-3.1-6.2-4.6-9.2c-0.7-1.3-1.3-3.3-3.1-2.7c-9.8,2.9-3.8-4.1-3.1-5.7c2.3-5.1,0.9-6.8-4.3-6.1
		C414.1,140.2,409.1,138.3,404.1,139.6z"/>
	<path class="st4" d="M410.3,152C410.3,152,410.4,151.9,410.3,152c-0.4,2-1.9,1.4-3.2,1.1c-2-1.9-4.1-3.7-5.9-5.9
		c-3-3.7-1.3-5.2,2.8-5.4C407.6,144.3,410.5,147.2,410.3,152z"/>
	<path class="st2" d="M20.4,106.9c0.3,0.3,0.7,0.5,0.7,0.7c0.1,0.6,0.2,1.4-0.1,1.7c-0.9,1-0.8-0.3-0.9-0.6
		C20.1,108.2,20.3,107.6,20.4,106.9z"/>
	<path class="st12" d="M343.1,177.1c0.3-0.5,0.9-1.1,0.8-1.6c-1.1-7.8,3.2-8.8,9.4-7.6c-1.7,2.5-1.3,5.2-0.9,7.9c0,0.9,0,1.7,0,2.6
		c-2.6,3.6-2.2,5.5,2.6,6.4c37,7.2,63.8,28.8,83.6,59.9c-6.8-2.8-6.8-2.8-7.4,5.2c-0.3,4.1-2.1,7.4-4.8,10.3
		c-5.9,6.7-13.6,9.6-22.3,10.2c-12.9,0.9-25-2.9-37.2-6.4c-11.9-3.4-23.7-5.9-36.5-3.3c-16.4,3.3-30.3,11.8-44.7,19.4
		c-6.7,3.5-12.9,7.9-19.8,10.8c-9.6,4.1-19.6,7.1-29.5,10.6c-12.1-5.7-24.1-11.6-37.6-13c-3.7-9.5-8.3-18.8-9.1-29.3
		c-0.1-1.4,0.6-3.3-1.4-3.8c-1.3-0.3-2.2,1.1-3.1,2c-2.8,2.9-1.7-0.4-2-1.3c17.3-32.4,44.8-52.1,78.7-64.1c14.1-5,28.8-7.5,43.4-9.3
		c10.7-1.3,21.8,0.2,32.8-0.3C343,182.3,343.5,180.6,343.1,177.1z"/>
	<path class="st0" d="M199.1,288.7c13.5,1.4,25.5,7.3,37.6,13c12.6,10.7,25.1,21.5,37.8,32c18.2,15.1,38.1,14,58.1,4.9
		c14.5-6.6,25-18.7,36.1-29.7c10-9.9,20.3-19.1,33.5-24.3c13.6-5.4,27.5-5.9,40.6,0.7c6.2,3.1,13.2,7.2,11.9,16.6
		c-0.3,1.8,0.1,3.5,2.5,3.8c0.4,2.2,0.5,4.4-0.1,6.5c-3.7,2.5-3.4,5.7-1.9,9.3c-0.2,1.7-0.4,3.3-0.5,5c-0.6,0.4-1.8,0.7-1.8,1.1
		c-0.1,1.4,1.2,1.3,2.1,1.5c-1.8,13-6.6,25-13.1,36.4c-1.3-0.9-1.4-2.1-0.9-3.4c3.7-9.6,0.5-18.6-2.4-27.5
		c-1.9-5.8-4.9-6.6-10.6-3.7c-1.5,0.8-2.9,1.8-4.4,2.7c-18.9,12.3-36.2,26.9-56.5,37.2c-22.2,11.3-45.6,16-70,11.1
		c-18.3-3.7-35.3-11.5-51-22c-15.2-10.2-29.2-21.9-43.5-33.3c-7.7-6.1-10.9-5.5-12.6,3.8c-2.4,13.8-6.8,27.6-0.4,41.6
		c0.1,0.3-0.7,0.9-1.1,1.4c-14.2-19.3-20.5-41-20.3-64.8c0-1.5,0.1-3.1,1.8-3.8c3.2-2.2,2.5-5.9,2.9-8.8c0.6-4.4,2.5-5.3,6.4-6.2
		C185.9,288.1,192.5,289.2,199.1,288.7z"/>
	<path class="st9" d="M457.2,305.5c-2.3-0.3-2.7-2-2.5-3.8c1.4-9.3-5.7-13.5-11.9-16.6c-13.1-6.5-27.1-6.1-40.6-0.7
		c-13.2,5.3-23.5,14.4-33.5,24.3c-11.1,11-21.5,23.1-36.1,29.7c-20.1,9.1-40,10.2-58.1-4.9c-12.7-10.5-25.2-21.3-37.8-32
		c9.8-3.5,19.9-6.6,29.5-10.6c6.9-2.9,13.1-7.3,19.8-10.8c14.4-7.5,28.3-16,44.7-19.4c12.8-2.6,24.6-0.1,36.5,3.3
		c12.2,3.5,24.3,7.3,37.2,6.4c8.7-0.6,16.3-3.5,22.3-10.2c2.6-2.9,4.5-6.3,4.8-10.3c0.5-8.1,0.5-8.1,7.4-5.2
		C451.3,263.1,457.4,283.4,457.2,305.5z"/>
	<path class="st13" d="M188.5,373.2c0.4-0.5,1.2-1.2,1.1-1.4c-6.4-13.9-2-27.8,0.4-41.6c1.6-9.3,4.9-9.9,12.6-3.8
		c14.3,11.4,28.3,23.1,43.5,33.3c15.7,10.5,32.7,18.3,51,22c24.4,4.9,47.7,0.2,70-11.1c20.3-10.3,37.6-25,56.5-37.2
		c1.4-0.9,2.9-1.9,4.4-2.7c5.7-2.9,8.7-2.1,10.6,3.7c2.9,8.9,6.1,18,2.4,27.5c-0.5,1.3-0.4,2.5,0.9,3.4
		c-6.9,14.2-16.4,26.2-28.3,36.5c-1.3-0.9-1.6-1.9-0.5-3.2c3.3-4,3.8-9.1,5.1-13.8c1.7-5.9-3.6-8.3-6.7-11.5
		c-2.7-2.8-5.7-1.6-8.8,0.2c-6.6,4-13.3,8-20.3,11.1c-18.3,8.2-37.2,13.9-57.3,16c-22.8,2.4-44.6-0.8-65.7-8.8
		c-17.4-6.6-33.3-16.1-49.3-25.4c-3.2-1.8-6.7-4.3-10.6-0.9c-3.8,3.3-2.7,7.1-1.9,11.2c0.9,4.2,4.7,7.4,3.9,12
		C196.1,384.5,191.9,379.1,188.5,373.2z"/>
	<path class="st14" d="M201.4,388.9c0.8-4.7-3.1-7.8-3.9-12c-0.9-4.2-2-7.9,1.9-11.2c3.9-3.4,7.5-1,10.6,0.9
		c16,9.3,31.9,18.9,49.3,25.4c21.1,8,42.9,11.2,65.7,8.8c20.2-2.1,39.1-7.8,57.3-16c7-3.2,13.7-7.2,20.3-11.1c3.1-1.9,6-3,8.8-0.2
		c3.2,3.2,8.4,5.6,6.7,11.5c-1.3,4.7-1.8,9.8-5.1,13.8c-1.1,1.3-0.8,2.3,0.5,3.2c-4,4.4-8.7,8-14.1,10.7c-2.6-2.6-5.7-3.6-9.4-3.2
		c-11.3,1.2-22.3,4.3-33.6,5.6c-27.1,3-53.9,8.1-81.4,5c-18.6-2.1-36.3-6.7-52.8-15.4c-1.3-0.7-2.4-2.1-3.7,0
		c-4.3-2.9-8.4-5.9-11.4-10.3c-0.6-3.1-2-5.4-5.6-5.4L201.4,388.9z"/>
	<path class="st3" d="M218.5,404.4c1.2-2.1,2.3-0.7,3.7,0c16.5,8.8,34.2,13.3,52.8,15.4c27.5,3.1,54.3-2,81.4-5
		c11.3-1.3,22.3-4.4,33.6-5.6c3.7-0.4,6.8,0.6,9.4,3.2c-10,9-22,14.5-34.4,18.5c-51.6,16.8-99.3,7.3-143.3-23.5
		C220.5,406.8,219.5,405.5,218.5,404.4z"/>
	<path class="st9" d="M199.1,288.7c-6.6,0.5-13.2-0.5-19.9,1c-3.9,0.9-5.9,1.8-6.4,6.2c-0.4,2.9,0.3,6.6-2.9,8.8
		c-1.7-9.7,1.4-18.7,4.4-27.7c2.3-7.2,5.3-14.1,9.2-20.6c0.3,1-0.8,4.2,2,1.3c0.9-0.9,1.7-2.3,3.1-2c2,0.5,1.3,2.4,1.4,3.8
		C190.8,269.9,195.4,279.1,199.1,288.7z"/>
	<path class="st9" d="M455.1,321.4c-1.5-3.5-1.7-6.8,1.9-9.3C457.2,315.3,457.6,318.6,455.1,321.4z"/>
	<path class="st13" d="M201.5,388.7c3.6,0,5,2.3,5.6,5.4C204.1,393.5,202.3,391.6,201.5,388.7z"/>
	<path class="st9" d="M454.9,328.9c-0.9-0.2-2.3-0.1-2.1-1.5c0-0.4,1.2-0.8,1.8-1.1C454.7,327.2,454.8,328.1,454.9,328.9z"/>
	<path class="st5" d="M356.1,160.4c-1.7-2.6-5.4-0.3-7.9-3.3c4.8-1.4,9-0.6,13.1-0.7c1.5-0.1,3.4-0.2,3.6,1.7
		c0.2,2.6-2.3,1.9-3.7,2.5C359.5,160.5,357.8,160.4,356.1,160.4z"/>
	<path class="st6" d="M352.4,175.8c-0.3-2.7-0.7-5.4,0.9-7.9c1.3-0.7,2.4-1.7,3.8-2.1c1.3-0.4,3.3,0.6,2.1,1.6
		C356.4,169.9,357.2,175.1,352.4,175.8z"/>
	<path class="st5" d="M396.5,138.3c1.7,3.6-0.5,4.2-3.2,4c-1.9-0.2-3.4-1.6-3-3.5c0.7-3.5,2.9-1,4.5-0.8
		C395.3,138.1,396,138.3,396.5,138.3C396.6,138.4,396.5,138.3,396.5,138.3z"/>
	<path class="st4" d="M215.7,134.7c4.4,0.4,8.8,0.8,13.2,1.2c0.9,0.5,1.9,1,2.8,1.5c1.9,1,3,2.8,3,4.6c0,2.8-2.9,1.8-4.5,2.7
		c-5.1,0.5-9.3-2.4-14-3.4C211.7,140.3,213,137.2,215.7,134.7z"/>
	<path class="st4" d="M240.7,148.6c-0.1,1.4-0.4,2.4-2.1,1.4C238.7,148.5,238.9,147.3,240.7,148.6z"/>
</g>
</svg>
