<?xml version="1.0" encoding="utf-8"?>
<!-- Generator: Adobe Illustrator 28.0.0, SVG Export Plug-In . SVG Version: 6.00 Build 0)  -->
<svg version="1.1" id="Layer_1" xmlns="http://www.w3.org/2000/svg" xmlns:xlink="http://www.w3.org/1999/xlink" x="0px" y="0px"
	 viewBox="0 0 500 500" style="enable-background:new 0 0 500 500;" xml:space="preserve">
<style type="text/css">
	.st0{fill:#110F23;}
</style>
<path class="st0" d="M299.9,200c0,27.6-22.3,50-49.9,50v50c55.1,0,99.7-44.8,99.7-100c0-55.2-44.7-100-99.7-100
	c-18.2,0-35.2,4.9-49.9,13.4c-29.8,17.3-49.9,49.6-49.9,86.6v250l44.8,45l5,5V200c0-27.6,22.3-50,49.9-50S299.9,172.4,299.9,200z"/>
<path class="st0" d="M250,0c-36.3,0-70.4,9.7-99.7,26.8c-18.8,10.9-35.6,24.7-49.9,41C69.4,103,50.5,149.3,50.5,200v150l49.9,50V200
	c0-44.4,19.3-84.3,49.9-111.8c14.4-12.9,31.3-23.1,49.9-29.6C215.7,53,232.5,50,250,50c82.6,0,149.6,67.2,149.6,150
	c0,82.8-67,150-149.6,150v50c110.2,0,199.5-89.6,199.5-200C449.5,89.6,360.2,0,250,0z"/>
</svg>
