<?xml version="1.0" encoding="utf-8"?>
<!-- Generator: Adobe Illustrator 28.2.0, SVG Export Plug-In . SVG Version: 6.00 Build 0)  -->
<svg version="1.1" id="Layer_1" xmlns="http://www.w3.org/2000/svg" xmlns:xlink="http://www.w3.org/1999/xlink" x="0px" y="0px"
	 viewBox="0 0 500 500" style="enable-background:new 0 0 500 500;" xml:space="preserve">
<style type="text/css">
	.st0{fill:#006FE0;}
	.st1{fill:#FFFFFF;}
</style>
<circle class="st0" cx="251.5" cy="250.9" r="250"/>
<path class="st1" d="M366.7,134.2c-18.7-20.8-45.5-32.8-73.5-32.8h-95c-6.8,0-12.6,5-13.7,11.7l-7.2,45.3H146
	c-7.7,0-13.9,6.2-13.9,13.9c0,7.7,6.2,13.9,13.9,13.9h26.9l-4.9,31.1h-28.6c-7.7,0-13.9,6.2-13.9,13.9s6.2,13.9,13.9,13.9h24.2
	L142,380.9c-0.6,4,0.5,8.1,3.2,11.2s6.5,4.9,10.6,4.9H234c6.8,0,12.5-4.9,13.7-11.6l14.6-86.3h30.9c50.6,0,92.9-38,98.3-88.3
	C394.4,182.9,385.4,155,366.7,134.2z M201,186.2h88.1c8.6,0,15.6,7,15.6,15.6c0,8.6-7,15.6-15.6,15.6h-93L201,186.2z M363.8,207.8
	c-3.9,36.2-34.3,63.5-70.7,63.5h-42.6c-6.8,0-12.5,4.9-13.7,11.6l-14.6,86.3h-50.3l19.7-124.1h97.5c23.9,0,43.3-19.4,43.3-43.3
	s-19.4-43.3-43.3-43.3h-83.7l4.7-29.3h83.1c20.1,0,39.4,8.6,52.9,23.6C359.5,167.7,366,187.8,363.8,207.8z"/>
</svg>
