<?xml version="1.0" encoding="utf-8"?>
<!-- Generator: Adobe Illustrator 28.0.0, SVG Export Plug-In . SVG Version: 6.00 Build 0)  -->
<svg version="1.1" id="Layer_1" xmlns="http://www.w3.org/2000/svg" xmlns:xlink="http://www.w3.org/1999/xlink" x="0px" y="0px"
	 viewBox="0 0 500 500" style="enable-background:new 0 0 500 500;" xml:space="preserve">
<style type="text/css">
	.st0{fill:#E73747;}
	.st1{fill:#303031;}
</style>
<path class="st0" d="M331.7,337.6c-6.5-14.4-13.9-29.1-14.7-45c-1.2-22.5,10.8-43.1,20.8-63.1c3.1-6.1,6.1-12.4,8.9-18.6
	c-28.7-28.9-52.1-63.4-68.4-101.2c-14.8,27.6-25.6,57.5-31.8,88.4h-11.3c-15.4-77.5-60.3-148.4-122.9-194
	c-23-16.7-17.6,23.1-17.2,35.5c0.8,22.2,3.3,44.3,7.3,66.1c7.9,43.1,21.9,85,41.5,123.8c10.1,20,22,40.6,20.8,63.1
	c-0.8,15.9-8.2,30.6-14.7,45c-11.9,26.3-21.5,53.6-28.8,81.6c-1.5,5.6-2.8,11.5-1.8,17.2c1.3,7.1,6.2,12.9,11.2,18
	c23,23.2,52.9,39.1,84.7,44.9c6.7,1.2,15.2,1.3,18.7-4.8c3.9-6.8-1.9-15.4-8.4-19.7c-6.4-4.4-17.7-11.6-17.3-15.2
	c1.1-7.3,19.1,7.4,30.9,8.7c0,0,0,0,0,0c0.4,0,0.7,0.1,1,0.1c0,0,0,0,0,0c0.1,0,0.1,0,0.2,0c0.1,0,0.2,0,0.3,0c0.1,0,0.2,0,0.3,0
	c0.1,0,0.1,0,0.2,0c0,0,0,0,0,0c0.3,0,0.7,0,1-0.1c0,0,0,0,0,0c11.8-1.3,29.8-16,30.9-8.7c0.4,3.6-10.8,10.8-17.3,15.2
	c-6.4,4.4-12.3,12.9-8.4,19.7c3.5,6.1,11.9,6,18.7,4.8c31.7-5.8,61.6-21.7,84.7-44.9c5-5.1,9.9-10.9,11.2-18
	c1.1-5.7-0.3-11.6-1.8-17.2C353.3,391.3,343.6,363.9,331.7,337.6z"/>
<path class="st1" d="M397.8,131.2c-1.8-10.5-3.8-21-6.2-31.4H287.2c21.8,55.8,56.8,105,100.9,140.2c22.5,17.9,17.2-24.7,16.7-38
	C404,178.2,401.7,154.5,397.8,131.2z"/>
</svg>
