<?xml version="1.0" encoding="utf-8"?>
<!-- Generator: Adobe Illustrator 28.2.0, SVG Export Plug-In . SVG Version: 6.00 Build 0)  -->
<svg version="1.1" id="Layer_1" xmlns="http://www.w3.org/2000/svg" xmlns:xlink="http://www.w3.org/1999/xlink" x="0px" y="0px"
	 viewBox="0 0 500 500" style="enable-background:new 0 0 500 500;" xml:space="preserve">
<style type="text/css">
	.st0{fill-rule:evenodd;clip-rule:evenodd;fill:#004DE5;}
	.st1{fill:url(#SVGID_1_);}
</style>
<path class="st0" d="M66.7,38.4v308.5c0,5.8,1.3,11.4,3.8,16.6c2.5,5.2,6.2,9.8,10.7,13.4l146,116.7c5.1,4.1,11.5,6.3,18.1,6.3
	s13-2.2,18.1-6.3l146-116.7c4.5-3.6,8.2-8.2,10.7-13.4c2.5-5.2,3.8-10.9,3.8-16.6V38.4c0-10.2-4.1-20-11.3-27.2
	C405.3,4,395.5-0.1,385.3-0.1H105.3C95.1-0.1,85.3,4,78,11.2C70.8,18.4,66.7,28.2,66.7,38.4z"/>
<linearGradient id="SVGID_1_" gradientUnits="userSpaceOnUse" x1="245.2942" y1="423.7201" x2="245.2942" y2="126.1014" gradientTransform="matrix(1 0 0 -1 0 501)">
	<stop  offset="0" style="stop-color:#FFFFFF"/>
	<stop  offset="0.4583" style="stop-color:#FFFFFF"/>
	<stop  offset="1" style="stop-color:#FFFFFF"/>
</linearGradient>
<path class="st1" d="M349.4,178.1v-67.2c0-8.9-3.5-17.5-9.8-23.8c-6.3-6.3-14.7-9.8-23.6-9.8H174.5c-8.8,0-17.3,3.5-23.6,9.8
	c-6.2,6.3-9.8,14.9-9.8,23.8V306c0,5,1.1,10,3.3,14.5c2.2,4.5,5.3,8.5,9.2,11.7l51.6,41.8c0.6,0.5,1.4,0.8,2.1,0.9
	c0.8,0.1,1.6,0,2.3-0.4c0.7-0.3,1.3-0.9,1.7-1.6c0.4-0.7,0.6-1.5,0.6-2.2V232.8c0-1.1,0.4-2.2,1.2-3s1.8-1.2,2.9-1.2h37.5
	c6.6,0,13,2.7,17.7,7.4c4.7,4.7,7.3,11.1,7.3,17.8v116.9c0,0.8,0.2,1.6,0.6,2.2c0.4,0.7,1,1.2,1.7,1.5c0.7,0.3,1.5,0.5,2.3,0.4
	c0.8-0.1,1.5-0.4,2.1-0.9l51.6-41.8c3.9-3.1,7-7.1,9.2-11.7c2.2-4.5,3.3-9.5,3.3-14.5v-60.6c0-8.9-3.5-17.5-9.8-23.8
	c-6.2-6.3-14.7-9.8-23.6-9.8c8.8,0,17.3-3.6,23.5-9.9C345.9,195.6,349.4,187,349.4,178.1z M253.6,194.9h-37.5
	c-1.1,0-2.2-0.4-2.9-1.2c-0.8-0.8-1.2-1.9-1.2-3v-75.6c0-1.1,0.4-2.2,1.2-3c0.8-0.8,1.8-1.2,2.9-1.2h58.3c1.1,0,2.2,0.4,2.9,1.2
	c0.8,0.8,1.2,1.9,1.2,3v54.6c0,6.7-2.6,13.1-7.3,17.8C266.6,192.3,260.2,194.9,253.6,194.9z"/>
</svg>
