<?xml version="1.0" encoding="utf-8"?>
<!-- Generator: Adobe Illustrator 27.7.0, SVG Export Plug-In . SVG Version: 6.00 Build 0)  -->
<svg version="1.1" id="Layer_1" xmlns="http://www.w3.org/2000/svg" xmlns:xlink="http://www.w3.org/1999/xlink" x="0px" y="0px"
	 viewBox="0 0 500 500" style="enable-background:new 0 0 500 500;" xml:space="preserve">
<style type="text/css">
	.st0{fill-rule:evenodd;clip-rule:evenodd;fill:#FF626D;}
	.st1{fill-rule:evenodd;clip-rule:evenodd;fill:#FFFFFF;}
</style>
<path class="st0" d="M250,500c138.1,0,250-111.9,250-250S388.1,0,250,0S0,111.9,0,250S111.9,500,250,500z"/>
<path class="st1" d="M145.9,231.1l30.9,12.8c-3.5,8.8-6.3,17.9-8.3,27.1l-1.2,5.3l44.4,44.4l5.3-1.1c9.2-2.1,18.3-4.8,27.1-8.3
	l12.8,30.9c0.3,0.6,0.8,1.1,1.5,1.2c0.7,0.1,1.3-0.1,1.8-0.6l19.4-19.4c6.4-6.4,9.8-15.2,9.3-24.2l-0.7-12.5
	c35.9-26.5,72.2-73,82.1-154.2c0.6-4.1-0.8-8.3-3.8-11.2c-2.9-3-7.1-4.4-11.2-3.8c-81.1,10-127.6,46.3-154.2,82.1l-12.4-0.6
	c-9-0.5-17.8,2.9-24.2,9.2l-19.4,19.4c-0.5,0.5-0.8,1.2-0.7,1.9C144.8,230.3,145.3,230.9,145.9,231.1z M270.4,183.9
	c9.4-9.4,24.6-9.3,33.9,0c9.4,9.4,9.4,24.6,0,33.9c-9.4,9.4-24.5,9.4-33.9,0c-4.5-4.5-7.1-10.6-7.1-17
	C263.3,194.5,265.8,188.4,270.4,183.9z M124.1,323.1c5.4-1,10.9-0.5,16,1.3c-24.5,19.6-19.8,42.4-16.9,52.6c0.3,1,1.1,1.8,2.2,2
	c1,0.2,2.1-0.1,2.8-1c8.5-9.7,29.2-13.3,40.4-14.5c7.8-0.8,15.1-4.6,20.1-10.7c11.6-14.2,1.1-28.9-2.7-33.5
	c-0.3-0.3-0.6-0.5-1.1-0.5s-0.8,0.2-1.1,0.5c-5.9,7.3-14.9,11.4-24.3,11c-1.1,0-2-0.9-2.1-2.1c-0.3-9.4,3.9-18.4,11.3-24.3
	c0.3-0.3,0.5-0.6,0.5-1c0-0.4-0.2-0.8-0.5-1c-27.3-19.8-42.4,4.7-48,16.9c-0.5,1.1-0.3,2.4,0.6,3.3
	C122.2,323,123.2,323.3,124.1,323.1z"/>
</svg>
