<?xml version="1.0" encoding="utf-8"?>
<!-- Generator: Adobe Illustrator 28.2.0, SVG Export Plug-In . SVG Version: 6.00 Build 0)  -->
<svg version="1.1" id="Layer_1" xmlns="http://www.w3.org/2000/svg" xmlns:xlink="http://www.w3.org/1999/xlink" x="0px" y="0px"
	 viewBox="0 0 500 500" style="enable-background:new 0 0 500 500;" xml:space="preserve">
<style type="text/css">
	.st0{fill:#075A5A;}
</style>
<path class="st0" d="M324.7,1.2l-77.2,43.7c-27.9,15.8-30.4,55-4.7,74.2l78.8,58.8c16,12,14.5,36.5-2.9,46.4l-71.1,40.3
	c-27.9,15.8-30.4,55.1-4.6,74.2l75,55.8c7.8,5.8,12.4,14.9,12.4,24.6v2.3c0,7.1,7.6,11.5,13.8,8l77.6-44.2
	c27.9-15.9,30.2-55.3,4.3-74.3L347.3,253c-16.2-11.9-14.7-36.5,2.7-46.4l71.9-41.1c27.9-15.9,30.1-55.2,4.3-74.3l-75.3-55.4
	c-7.8-5.8-12.5-15-12.5-24.7V9.2C338.4,2.2,330.8-2.3,324.7,1.2z"/>
<path class="st0" d="M155.5,70.5l-77.2,43.7c-27.9,15.8-30.4,55-4.7,74.2l78.8,58.8c16,12,14.5,36.5-2.9,46.4l-71.1,40.3
	c-27.9,15.8-30.4,55.1-4.6,74.2l75,55.8c7.8,5.8,12.4,14.9,12.4,24.6v2.3c0,7.1,7.6,11.5,13.8,8l77.6-44.2
	c27.9-15.9,30.2-55.3,4.3-74.3l-78.7-57.9c-16.2-11.9-14.7-36.5,2.7-46.4l71.9-41.1c27.9-15.9,30.1-55.2,4.3-74.3l-75.3-55.4
	c-7.8-5.8-12.5-15-12.5-24.7v-1.9C169.2,71.5,161.6,67.1,155.5,70.5z"/>
</svg>
