<svg width="500" height="486" viewBox="0 0 500 486" fill="none" xmlns="http://www.w3.org/2000/svg">
<path d="M301.014 301.395C206.519 328.9 128.352 369.018 79.4219 416.025L77.2617 418.111C90.2727 430.045 104.54 440.717 119.962 449.788L123.278 445.859C136.641 430.045 150.958 414.764 165.878 400.356C205.917 361.693 251.731 328.221 301.064 301.346L301.014 301.395Z" fill="black"/>
<path d="M301.014 301.395C206.519 328.9 128.352 369.018 79.4219 416.025L77.2617 418.111C90.2727 430.045 104.54 440.717 119.962 449.788L123.278 445.859C136.641 430.045 150.958 414.764 165.878 400.356C205.917 361.693 251.731 328.221 301.064 301.346L301.014 301.395Z" fill="black"/>
<path d="M0 260.647C3.76769 309.692 22.556 354.661 52.0446 391.238L53.401 389.928C83.6931 360.967 123.129 334.626 170.702 311.681C212.398 291.549 260.273 274.279 311.866 260.647H0Z" fill="black"/>
<path d="M0 260.647C3.76769 309.692 22.556 354.661 52.0446 391.238L53.401 389.928C83.6931 360.967 123.129 334.626 170.702 311.681C212.398 291.549 260.273 274.279 311.866 260.647H0Z" fill="black"/>
<path d="M192.305 59.0858C276.851 140.729 383.251 194.721 499.95 215.192C485.884 94.1586 379.585 0 250.428 0C216.317 0 183.814 6.59743 154.125 18.4825C166.182 32.5505 179.042 46.2305 192.305 59.0858Z" fill="black"/>
<path d="M192.305 59.0858C276.851 140.729 383.251 194.721 499.95 215.192C485.884 94.1586 379.585 0 250.428 0C216.317 0 183.814 6.59743 154.125 18.4825C166.182 32.5505 179.042 46.2305 192.305 59.0858Z" fill="black"/>
<path d="M79.4219 69.0778C128.352 116.133 206.519 156.203 301.014 183.757C251.681 156.834 205.866 123.41 165.828 84.7471C150.958 70.3876 136.641 55.1067 123.228 39.2438L119.913 35.3145C104.49 44.3859 90.2224 55.0582 77.2617 66.9918L79.4219 69.0778Z" fill="black"/>
<path d="M79.4219 69.0778C128.352 116.133 206.519 156.203 301.014 183.757C251.681 156.834 205.866 123.41 165.828 84.7471C150.958 70.3876 136.641 55.1067 123.228 39.2438L119.913 35.3145C104.49 44.3859 90.2224 55.0582 77.2617 66.9918L79.4219 69.0778Z" fill="black"/>
<path d="M192.305 426.02C178.992 438.875 166.131 452.555 154.125 466.623C183.764 478.508 216.317 485.105 250.428 485.105C379.585 485.105 485.884 390.947 500.001 269.864C383.302 290.336 276.902 344.328 192.355 425.971L192.305 426.02Z" fill="black"/>
<path d="M192.305 426.02C178.992 438.875 166.131 452.555 154.125 466.623C183.764 478.508 216.317 485.105 250.428 485.105C379.585 485.105 485.884 390.947 500.001 269.864C383.302 290.336 276.902 344.328 192.355 425.971L192.305 426.02Z" fill="black"/>
<path d="M170.702 173.424C123.129 150.479 83.6931 124.138 53.401 95.177L52.0446 93.8672C22.556 130.444 3.76769 175.413 0 224.458H311.816C260.223 210.826 212.398 193.556 170.652 173.376L170.702 173.424Z" fill="black"/>
<path d="M170.702 173.424C123.129 150.479 83.6931 124.138 53.401 95.177L52.0446 93.8672C22.556 130.444 3.76769 175.413 0 224.458H311.816C260.223 210.826 212.398 193.556 170.652 173.376L170.702 173.424Z" fill="black"/>
</svg>
