<?xml version="1.0" encoding="utf-8"?>
<!-- Generator: Adobe Illustrator 28.2.0, SVG Export Plug-In . SVG Version: 6.00 Build 0)  -->
<svg version="1.1" id="Layer_1" xmlns="http://www.w3.org/2000/svg" xmlns:xlink="http://www.w3.org/1999/xlink" x="0px" y="0px"
	 viewBox="0 0 500 500" style="enable-background:new 0 0 500 500;" xml:space="preserve">
<style type="text/css">
	.st0{fill:#FF8B00;}
	.st1{fill:#FFFFFA;}
</style>
<circle class="st0" cx="250.3" cy="250.3" r="250"/>
<path class="st1" d="M234.3,105.1l14.5-49.2l33,9.7l-12.6,45.8l27.5,6.3l12.6-45.2l32,8l-13.2,48.1c20.4,8.5,40.3,18.8,59.5,31.5
	l-27.5,31.5c0,0-57.8-37.2-118.4-39.5c-40.3-1.5-44.9,32.4-2.4,54.4c18.6,9.6,105.9,46.9,119.1,95.5s-35.5,70.3-60.2,73.2
	c-19.5,2.3-36.3,2.4-36.3,2.4l-13.1,51.4l-32.8-9.7l13.7-47.5l-28-6.3L189.1,410l-32.6-8.6l13.2-45.8
	c-29.3-11.1-53.6-24.1-73.2-38.9l28-33.8c0,0,68.7,48.1,120.7,48.1s58.9-32,26.9-52.6c-32-20.6-121.9-57.2-131-106.4
	S184,101.6,234.3,105.1z"/>
</svg>
