<svg width="511" height="109" viewBox="0 0 511 109" fill="none" xmlns="http://www.w3.org/2000/svg">
<path fill-rule="evenodd" clip-rule="evenodd" d="M103.675 0.902893H101.648L21.2018 0.902832C17.6865 0.902832 14.6106 1.41271 11.9741 2.43248C9.33759 3.5307 7.14052 4.98193 5.38285 6.78614C3.55195 8.6688 2.1971 10.7868 1.31827 13.1401C0.439429 15.5719 0 18.0821 0 20.6708V40.3792C0 42.2143 1.48766 43.702 3.32279 43.702H74.8986L42.7992 22.3024H101.648H103.672C105.508 22.3024 106.998 20.8147 106.998 18.9796V4.22567C106.998 2.39055 105.51 0.902893 103.675 0.902893ZM3.32333 107.9H5.3504L85.7966 107.901C89.3119 107.901 92.3878 107.391 95.0243 106.371C97.6608 105.273 99.8579 103.821 101.616 102.017C103.446 100.135 104.801 98.0166 105.68 95.6633C106.559 93.2315 106.998 90.7213 106.998 88.1326V68.4242C106.998 66.5891 105.511 65.1014 103.676 65.1014H32.0998L64.1991 86.501H5.3504H3.3259C1.49078 86.501 0.000517658 87.9886 0.000517658 89.8238V104.578C0.000517658 106.413 1.48821 107.9 3.32333 107.9Z" fill="#6966FB"/>
<path d="M153.186 78.3804C153.816 97.3613 169.295 108.918 193.599 108.918C218.673 108.918 234.573 96.5208 234.573 76.9096C234.573 61.5008 225.747 52.8158 205.506 48.4734L193.249 45.8819C181.622 43.2204 176.719 39.7184 176.719 33.4848C176.719 25.9905 183.723 21.0177 194.159 21.0177C204.735 21.0177 212.23 26.2006 212.93 34.7455H232.751C232.401 16.4651 217.623 4.34814 194.089 4.34814C171.537 4.34814 155.427 16.6752 155.427 35.3058C155.427 50.0843 164.603 59.5397 183.233 63.532L196.401 66.4036C208.588 69.1352 213.42 72.7772 213.42 79.361C213.42 86.7852 205.716 92.1783 194.44 92.1783C183.233 92.1783 174.548 86.7152 173.568 78.3804H153.186Z" fill="white"/>
<path d="M269.108 93.5791C262.174 93.5791 257.551 90.0771 257.551 84.4739C257.551 79.1509 261.894 75.7189 269.528 75.1586L285.357 74.178V79.6412C285.357 87.7658 278.003 93.5791 269.108 93.5791ZM262.384 108.358C271.769 108.358 281.085 103.665 285.287 95.6803H285.707V107.167H305.459V55.5474C305.459 40.4188 292.921 30.4731 273.66 30.4731C253.769 30.4731 241.372 40.4888 240.602 55.0571H259.302C260.283 49.524 265.116 45.7418 272.75 45.7418C280.454 45.7418 285.357 49.8041 285.357 56.8081V61.781L266.446 62.9016C247.746 64.0222 237.24 71.9368 237.24 85.5946C237.24 99.1123 248.096 108.358 262.384 108.358Z" fill="white"/>
<path d="M357.574 108.358C376.485 108.358 388.041 93.7893 388.041 69.6255C388.041 45.3916 376.415 30.8933 357.504 30.8933C346.788 30.8933 338.453 36.2164 334.321 45.1114H333.9V6.09915H313.449V107.167H333.62V94.2795H334.041C338.173 103.035 346.578 108.358 357.574 108.358ZM350.5 47.2827C360.656 47.2827 367.099 55.9676 367.099 69.6255C367.099 83.3533 360.726 91.8982 350.5 91.8982C340.554 91.8982 333.83 83.2132 333.83 69.6255C333.83 56.1778 340.624 47.2827 350.5 47.2827Z" fill="white"/>
<path d="M426.639 45.6017C435.744 45.6017 441.978 52.1855 442.398 61.781H410.53C411.23 52.3956 417.674 45.6017 426.639 45.6017ZM442.678 84.1938C440.787 89.9371 435.044 93.6492 427.55 93.6492C417.114 93.6492 410.32 86.295 410.32 75.5788V74.3181H462.079V68.0846C462.079 45.2515 448.281 30.4731 426.429 30.4731C404.226 30.4731 390.218 46.022 390.218 69.9756C390.218 93.9994 404.086 108.778 427.199 108.778C445.76 108.778 459.208 98.9022 461.449 84.1938H442.678Z" fill="white"/>
<path d="M466.918 107.167H487.369V65.2129C487.369 54.6369 493.253 48.4734 503.339 48.4734C506.28 48.4734 509.082 48.9636 510.763 49.664V31.6638C509.362 31.2435 507.331 30.8933 504.949 30.8933C496.124 30.8933 489.751 36.0763 487.089 45.6017H486.669V32.084H466.918V107.167Z" fill="white"/>
</svg>
