<?xml version="1.0" encoding="utf-8"?>
<!-- Generator: Adobe Illustrator 28.2.0, SVG Export Plug-In . SVG Version: 6.00 Build 0)  -->
<svg version="1.1" id="_x31_" xmlns="http://www.w3.org/2000/svg" xmlns:xlink="http://www.w3.org/1999/xlink" x="0px" y="0px"
	 viewBox="0 0 500 500" style="enable-background:new 0 0 500 500;" xml:space="preserve">
<style type="text/css">
	.st0{fill:#EBF7FD;}
	.st1{fill-rule:evenodd;clip-rule:evenodd;fill:url(#SVGID_1_);}
</style>
<path class="st0" d="M276,156.3c12.5,12.5,12.5,31.2,0,43.7c-12.5,12.5-33.3,12.5-45.8,0c-14.6-12.5-14.6-31.2,0-43.7
	C242.7,143.8,263.5,143.8,276,156.3z"/>
<path class="st0" d="M199,229.2c12.5,12.5,12.5,31.2,0,43.7s-33.3,12.5-45.8,0c-14.6-10.4-14.6-31.2-2.1-43.7
	C163.6,216.7,184.4,216.7,199,229.2z"/>
<path class="st0" d="M276,304.2c12.5,12.5,12.5,31.2,0,43.7s-33.3,12.5-45.8,0c-12.5-12.5-12.5-31.2,0-43.7
	C242.7,291.7,263.5,291.7,276,304.2z"/>
<path class="st0" d="M353.1,275c12.5-12.5,12.5-31.2,0-43.7c-12.5-12.5-33.3-12.5-45.8,0c-12.5,12.5-12.5,31.2,0,43.7
	C319.8,285.4,340.6,285.4,353.1,275z"/>
<linearGradient id="SVGID_1_" gradientUnits="userSpaceOnUse" x1="491.02" y1="752.8835" x2="9.6501" y2="699.394" gradientTransform="matrix(1 0 0 1 0 -476.11)">
	<stop  offset="0" style="stop-color:#FCE344"/>
	<stop  offset="0.4721" style="stop-color:#79FA4B"/>
	<stop  offset="0.9362" style="stop-color:#30D7F1"/>
</linearGradient>
<path class="st1" d="M380.2,0.1C205.2,6.3-113.4,162.5,111.5,339.6c39.6,31.2,12.5,64.6-8.3,91.6c-2.1,4.2-6.2,6.2-8.3,10.4
	c-18.7,22.9-10.4,60.4,25,58.3c174.9-6.2,493.6-162.4,268.7-339.5c-39.6-31.2-12.5-64.6,10.4-93.7c2.1-2.1,4.2-6.2,6.2-8.3
	C426,31.3,413.5-2,380.2,0.1z M103.2,281.2c-16.7-16.7-16.7-43.7,0-58.3l118.7-112.5c16.7-16.7,45.8-16.7,62.5,0l118.7,112.5
	c16.7,16.7,16.7,43.7,0,58.3L284.4,393.7c-16.7,16.7-45.8,16.7-62.5,0L103.2,281.2z"/>
</svg>
