<svg width="40" height="40" viewBox="0 0 40 40" fill="none" xmlns="http://www.w3.org/2000/svg">
<path fill-rule="evenodd" clip-rule="evenodd" d="M30.6668 1.27895C31.4159 1.36578 31.8906 2.12549 31.6403 2.83682L27.9773 13.2456C27.6503 14.1749 26.3937 14.3138 25.8716 13.4783L25.0899 12.2272L10.9533 21.0607L9.4994 18.734C7.17725 15.0178 8.30736 10.1227 12.0236 7.80055L19.4313 3.17167L18.5735 1.7989C18.0515 0.963407 18.7271 -0.105115 19.7058 0.00832983L30.6668 1.27895ZM15.846 25.4133C10.7388 28.362 8.98889 34.8926 11.9376 39.9999L26.3216 31.6953C30.1166 29.5042 31.4168 24.6516 29.2258 20.8566L27.854 18.4805L15.846 25.4133Z" fill="#07C166"/>
</svg>
