<?xml version="1.0" encoding="utf-8"?>
<!-- Generator: Adobe Illustrator 28.0.0, SVG Export Plug-In . SVG Version: 6.00 Build 0)  -->
<svg version="1.1" id="Layer_1" xmlns="http://www.w3.org/2000/svg" xmlns:xlink="http://www.w3.org/1999/xlink" x="0px" y="0px"
	 viewBox="0 0 500 500" style="enable-background:new 0 0 500 500;" xml:space="preserve">
<style type="text/css">
	.st0{fill:url(#SVGID_1_);}
	.st1{fill:#FFFFFF;}
</style>
<linearGradient id="SVGID_1_" gradientUnits="userSpaceOnUse" x1="242.3931" y1="494.4244" x2="242.3931" y2="9.5756" gradientTransform="matrix(1 0 0 -1 0 502)">
	<stop  offset="0" style="stop-color:#010160"/>
	<stop  offset="1" style="stop-color:#018EFF"/>
</linearGradient>
<circle class="st0" cx="242.4" cy="250" r="242.4"/>
<path class="st1" d="M420.4,214.5h-36.6H153.5c-6.2,0-10.1-7.1-7-12.6l3.1-4.7c2.3-3.9,6.2-6.3,10.1-6.3h295
	c8.6,0,16.3-4.7,20.2-11.8l23.4-40c4.7-7.9-0.8-18.1-10.1-18.1H162c-14,0-27.2,7.9-34.2,19.6l-42,73.8c-6.2,10.2,1.6,23.6,13.2,23.6
	h27.2h230.4c6.2,0,10.1,7.1,7,12.6l-3.1,4.7c-2.3,3.9-6.2,6.3-10.1,6.3H81.1c-14,0-27.2,7.9-34.2,19.6L1.7,360.6
	c-4.7,7.9,0.8,18.1,10.1,18.1h326.1c14,0,27.2-7.9,34.2-19.6l65.4-114.7C445.3,231,436,214.5,420.4,214.5z"/>
</svg>
