<?xml version="1.0" encoding="UTF-8"?>
<svg width="500px" height="500px" viewBox="0 0 500 500" version="1.1" xmlns="http://www.w3.org/2000/svg" xmlns:xlink="http://www.w3.org/1999/xlink">
    <title>solch</title>
    <defs>
        <linearGradient x1="-5.6378513e-15%" y1="188.314559%" x2="100%" y2="188.314559%" id="linearGradient-1">
            <stop stop-color="#14F195" offset="0%"></stop>
            <stop stop-color="#9945FF" offset="100%"></stop>
        </linearGradient>
        <linearGradient x1="-5.6378513e-15%" y1="188.314559%" x2="100%" y2="188.314559%" id="linearGradient-2">
            <stop stop-color="#9945FF" offset="0%"></stop>
            <stop stop-color="#14F195" offset="100%"></stop>
        </linearGradient>
        <linearGradient x1="-5.6378513e-15%" y1="188.314559%" x2="100%" y2="188.314559%" id="linearGradient-3">
            <stop stop-color="#9945FF" offset="0%"></stop>
            <stop stop-color="#14F195" offset="100%"></stop>
        </linearGradient>
    </defs>
    <g id="Page-1" stroke="none" stroke-width="1" fill="none" fill-rule="evenodd">
        <g id="solch">
            <circle id="Oval" stroke="#FFFFFF" stroke-width="25" fill="#09163E" cx="250" cy="250" r="237.5"></circle>
            <path d="M227.421235,321.608527 L227.421235,297.928779 C227.421235,295.620979 229.272509,293.75 231.556005,293.75 L271.249791,293.75 C273.533287,293.75 275.384561,295.620979 275.384561,297.928779 L275.384561,321.608527 L275.384561,321.608527 L342.740231,321.608527 C345.023726,321.608527 346.875,323.479506 346.875,325.787306 C346.875,326.818679 346.497584,327.813614 345.815396,328.580681 L313.858866,364.516509 C313.231538,365.222004 312.337206,365.625 311.398678,365.625 L275.384561,365.625 L275.384561,365.625 C269.504092,357.824612 261.418136,353.924419 251.127247,353.924419 C240.836357,353.924419 232.934261,357.824612 227.421235,365.625 L160.384769,365.625 C158.101274,365.625 156.25,363.754021 156.25,361.446221 C156.25,360.40981 156.631078,359.410377 157.319251,358.641982 L189.499059,322.708103 C190.126119,322.007825 191.017014,321.608287 191.951529,321.608249 L227.421235,321.608249 L227.421235,321.608249 L227.421235,321.608527 Z" id="Path" fill="url(#linearGradient-1)" fill-rule="nonzero" transform="translate(251.5625, 329.6875) rotate(-180) translate(-251.5625, -329.6875)"></path>
            <path d="M227.421235,228.125 C232.934261,235.878392 240.836357,239.75495 251.127247,239.75495 C261.418136,239.75495 269.504092,235.878392 275.384561,228.125 L342.740231,228.125 C345.023726,228.125 346.875,229.984917 346.875,232.278732 C346.875,233.303854 346.497584,234.29276 345.815396,235.055178 L313.858866,270.773227 C313.231538,271.474446 312.337206,271.875 311.398678,271.875 L275.384561,271.875 L275.384561,271.875 C269.504092,264.121885 261.418136,260.245327 251.127247,260.245327 C240.836357,260.245327 232.934261,264.121885 227.421235,271.875 L160.384769,271.875 C158.101274,271.875 156.25,270.01536 156.25,267.721545 C156.25,266.691415 156.631078,265.698039 157.319251,264.9343 L189.499059,229.218189 C190.126119,228.522155 191.017014,228.125 191.951529,228.125 L227.421235,228.125 L227.421235,228.125 L227.421235,228.125 Z" id="Path" fill="url(#linearGradient-2)" fill-rule="nonzero" transform="translate(251.5625, 250) scale(-1, 1) rotate(-180) translate(-251.5625, -250)"></path>
            <path d="M227.421235,165.358527 L227.421235,141.678779 C227.421235,139.370979 229.272509,137.5 231.556005,137.5 L271.249791,137.5 C273.533287,137.5 275.384561,139.370979 275.384561,141.678779 L275.384561,165.358527 L275.384561,165.358527 L342.740231,165.358527 C345.023726,165.358527 346.875,167.229506 346.875,169.537306 C346.875,170.568679 346.497584,171.563614 345.815396,172.330681 L313.858866,208.266509 C313.231538,208.972004 312.337206,209.375 311.398678,209.375 L275.384561,209.375 L275.384561,209.375 C269.504092,201.574612 261.418136,197.674419 251.127247,197.674419 C240.836357,197.674419 232.934261,201.574612 227.421235,209.375 L160.384769,209.375 C158.101274,209.375 156.25,207.504021 156.25,205.196221 C156.25,204.15981 156.631078,203.160377 157.319251,202.391982 L189.499059,166.458103 C190.126119,165.757825 191.017014,165.358287 191.951529,165.358249 L227.421235,165.358249 L227.421235,165.358249 L227.421235,165.358527 Z" id="Path" fill="url(#linearGradient-3)" fill-rule="nonzero"></path>
        </g>
    </g>
</svg>