<?xml version="1.0" encoding="utf-8"?>
<!-- Generator: Adobe Illustrator 28.2.0, SVG Export Plug-In . SVG Version: 6.00 Build 0)  -->
<svg version="1.1" id="Layer_1" xmlns="http://www.w3.org/2000/svg" xmlns:xlink="http://www.w3.org/1999/xlink" x="0px" y="0px"
	 viewBox="0 0 500 500" style="enable-background:new 0 0 500 500;" xml:space="preserve">
<style type="text/css">
	.st0{fill:url(#SVGID_1_);}
	.st1{fill:url(#SVGID_00000096779953553155049760000000422583770787360646_);}
	.st2{fill:url(#SVGID_00000124129346896174618610000003934473570498792879_);}
	.st3{fill:url(#SVGID_00000003079882406137188830000009034585849833508230_);}
	.st4{fill:url(#SVGID_00000127746748257600880710000016502598299876876204_);}
</style>
<linearGradient id="SVGID_1_" gradientUnits="userSpaceOnUse" x1="324.3335" y1="437.7255" x2="69.3236" y2="149.027" gradientTransform="matrix(1 0 0 -1 0 502)">
	<stop  offset="0" style="stop-color:#F170A8"/>
	<stop  offset="0.474" style="stop-color:#D561CE"/>
	<stop  offset="1" style="stop-color:#6EBFFA"/>
</linearGradient>
<path class="st0" d="M275.8,15.2c-21-20.2-54.9-20.2-75.9,0c-21,20.2-21,53,0,73.2l143.6,138.5l33.8-32.6
	c23.3-22.4,23.3-58.8,0-81.3L275.8,15.2z"/>
<linearGradient id="SVGID_00000175290747288684194440000009800109683011318669_" gradientUnits="userSpaceOnUse" x1="374.532" y1="393.3836" x2="119.5222" y2="104.6853" gradientTransform="matrix(1 0 0 -1 0 502)">
	<stop  offset="0" style="stop-color:#F170A8"/>
	<stop  offset="0.474" style="stop-color:#D561CE"/>
	<stop  offset="1" style="stop-color:#6EBFFA"/>
</linearGradient>
<path style="fill:url(#SVGID_00000175290747288684194440000009800109683011318669_);" d="M145.8,77.3l280.5,274.7l-77.4,75.8
	L68.4,153.1L145.8,77.3z"/>
<linearGradient id="SVGID_00000000211906359991224240000014093765442132079793_" gradientUnits="userSpaceOnUse" x1="419.3526" y1="353.8009" x2="164.3419" y2="65.1022" gradientTransform="matrix(1 0 0 -1 0 502)">
	<stop  offset="0" style="stop-color:#F170A8"/>
	<stop  offset="0.474" style="stop-color:#D561CE"/>
	<stop  offset="1" style="stop-color:#6EBFFA"/>
</linearGradient>
<path style="fill:url(#SVGID_00000000211906359991224240000014093765442132079793_);" d="M145.9,273.2l143.7,135.6
	c20.9,20.9,20.9,54.7,0,75.5c-20.9,20.9-54.9,20.9-75.8,0L112.2,382.1c-23.3-23.2-23.3-52.2,0-75.3L145.9,273.2z"/>
<linearGradient id="SVGID_00000152231853099135612520000011648511623701455536_" gradientUnits="userSpaceOnUse" x1="482.6645" y1="297.865" x2="227.6538" y2="9.1668" gradientTransform="matrix(1 0 0 -1 0 502)">
	<stop  offset="0" style="stop-color:#F170A8"/>
	<stop  offset="0.474" style="stop-color:#D561CE"/>
	<stop  offset="1" style="stop-color:#6EBFFA"/>
</linearGradient>
<path style="fill:url(#SVGID_00000152231853099135612520000011648511623701455536_);" d="M484.6,206.4c-20.6-20.8-53.9-20.8-74.4,0
	c-20.5,20.8-20.5,54.6,0,75.5l37.2,37.8l37.2-37.8C505.1,261,505.1,227.2,484.6,206.4z"/>
<linearGradient id="SVGID_00000149344020373230101070000015732253920969479051_" gradientUnits="userSpaceOnUse" x1="266.7909" y1="488.5576" x2="11.7801" y2="199.8589" gradientTransform="matrix(1 0 0 -1 0 502)">
	<stop  offset="0" style="stop-color:#F170A8"/>
	<stop  offset="0.474" style="stop-color:#D561CE"/>
	<stop  offset="1" style="stop-color:#6EBFFA"/>
</linearGradient>
<path style="fill:url(#SVGID_00000149344020373230101070000015732253920969479051_);" d="M52.6,180.4l37.2,37.7
	c20.6,20.9,20.6,54.6,0,75.5c-20.5,20.9-53.9,20.9-74.4,0c-20.5-20.8-20.5-54.6,0-75.5L52.6,180.4z"/>
</svg>
