<svg width="32" height="32" viewBox="0 0 32 32" fill="none" xmlns="http://www.w3.org/2000/svg">
<path fill-rule="evenodd" clip-rule="evenodd" d="M19.1985 2.35155C17.4688 1.25471 15.235 1.36981 13.6273 2.63862L9.32976 6.03005C8.76437 6.47623 8.30609 7.04337 7.98853 7.68982L3.69356 16.4334C2.73907 18.3765 3.19612 20.7175 4.81138 22.1589L13.2121 29.6554C14.9933 31.245 17.6696 31.2922 19.5059 29.7666L27.6849 22.9714C29.3911 21.5538 29.9105 19.1554 28.9437 17.159L23.5122 5.94333C23.121 5.1355 22.5121 4.45285 21.7541 3.97218L19.1985 2.35155Z" stroke="black" stroke-width="1.76"/>
<path d="M8.38672 6.73677L13.615 8.2504C14.825 8.60074 16.1239 8.46378 17.2342 7.86891L22.9537 4.80469" stroke="black" stroke-width="1.519"/>
<path d="M3.75577 20.8095C3.37524 20.4525 3.27106 19.8885 3.59671 19.4808C4.2305 18.6873 5.5359 17.5312 7.76214 17.5312C11.1516 17.5312 11.7496 20.9521 14.5409 21.0518C17.3322 21.1515 18.03 18.6908 23.1142 18.9584C25.559 19.087 27.206 20.1058 28.0976 20.8521C28.5852 21.2601 28.5206 21.9721 28.0381 22.3862L19.5182 29.6973C17.6494 31.3009 14.8727 31.2393 13.0768 29.5545L3.75577 20.8095Z" fill="black"/>
<path d="M15.4778 8.6875C15.4778 8.6875 13.7901 16.9174 13.9705 20.7461C14.151 24.5749 15.7793 30.393 15.7793 30.393" stroke="url(#paint0_linear_2041_26)" stroke-width="1.51939"/>
<defs>
<linearGradient id="paint0_linear_2041_26" x1="14.8749" y1="8.6875" x2="15.4779" y2="30.393" gradientUnits="userSpaceOnUse">
<stop/>
<stop offset="0.549498"/>
<stop offset="0.549858" stop-color="white"/>
<stop offset="0.553202" stop-color="#FAFAFA"/>
<stop offset="1" stop-color="white"/>
</linearGradient>
</defs>
</svg>
