<?xml version="1.0" encoding="utf-8"?>
<!-- Generator: Adobe Illustrator 28.2.0, SVG Export Plug-In . SVG Version: 6.00 Build 0)  -->
<svg version="1.1" id="Layer_1" xmlns="http://www.w3.org/2000/svg" xmlns:xlink="http://www.w3.org/1999/xlink" x="0px" y="0px"
	 viewBox="0 0 500 500" style="enable-background:new 0 0 500 500;" xml:space="preserve">
<style type="text/css">
	.st0{fill-rule:evenodd;clip-rule:evenodd;fill:#0C0C4F;}
	.st1{fill-rule:evenodd;clip-rule:evenodd;fill:#FAFAFA;}
	.st2{fill-rule:evenodd;clip-rule:evenodd;fill:url(#SVGID_1_);}
	.st3{fill-rule:evenodd;clip-rule:evenodd;fill:#EC796B;}
</style>
<path class="st0" d="M0,250c0,138.1,111.9,250,250,250s250-111.9,250-250C500,111.9,388.1,0,250,0S0,111.9,0,250z"/>
<path class="st1" d="M139.7,191.1l6.2-19.1c1.3-3.9,4.3-6.9,8.2-8.1l19.2-5.9c2.7-0.8,2.7-4.6,0-5.4l-19.1-6.2
	c-3.9-1.3-6.9-4.3-8.1-8.2l-5.9-19.2c-0.8-2.6-4.6-2.7-5.4,0l-6.2,19.1c-1.3,3.9-4.3,6.9-8.2,8.1l-19.2,5.9c-2.7,0.8-2.7,4.6,0,5.4
	l19.1,6.2c3.9,1.3,6.9,4.3,8.1,8.2l5.9,19.2C135.1,193.7,138.9,193.7,139.7,191.1z"/>
<linearGradient id="SVGID_1_" gradientUnits="userSpaceOnUse" x1="499.1211" y1="301.6597" x2="-262.6873" y2="-94.6945" gradientTransform="matrix(0.8537 0 0 -0.8537 13.1707 427.7561)">
	<stop  offset="0" style="stop-color:#EC796B"/>
	<stop  offset="1" style="stop-color:#D672EF"/>
</linearGradient>
<path class="st2" d="M442.6,180c-7.9-8.8-20.2-13.8-32.2-15.8c-12.1-2-24.7-1.8-36.7,0.3c-24.1,4.1-46.1,14.1-65.2,26.4
	c-9.9,6-18.4,13-27.2,20.2c-4.2,3.6-8.1,7.4-12.1,11.2l-11,10.9c-11.9,12.5-23.7,23.8-35,33.2c-11.4,9.4-22.1,16.5-32.6,21.4
	c-10.5,5-21.7,7.9-36.4,8.4c-14.5,0.5-31.7-2.1-50.1-6.4c-18.5-4.3-37.9-10.4-59.6-15.7c7.6,21,19,39.5,33.6,56.5
	c14.8,16.7,33.3,31.8,57,41.8c23.4,10.2,52.8,13.9,80.3,8.3c27.6-5.3,51.8-18.1,71.3-32.8c19.6-14.9,35.5-31.9,48.8-49.5
	c3.7-4.9,5.6-7.6,8.3-11.4l7.4-10.9c5.1-6.8,9.8-14.5,14.9-21.2c10-14,19.8-28.1,31.2-41c5.7-6.6,11.8-12.8,18.9-18.8
	c3.6-2.9,7.4-5.8,11.7-8.4C432.3,183.9,436.9,181.7,442.6,180z"/>
<path class="st1" d="M442.6,180c-8.5-21.4-24.3-39.4-45.4-52.7c-21-13.2-50.3-19.9-79.2-14.1c-14.3,2.8-28.2,8.1-40.3,15.2
	c-12.1,7.1-23,15.6-32.4,24.7c-4.7,4.6-8.9,9.4-13.2,14.2l-11,14l-16.9,22.5c-21.6,28.9-44.8,62.9-83,72.9
	c-37.4,9.9-53.7,1.1-76.5-2.5c4.2,10.8,9.4,21.3,16.4,30.5c6.9,9.4,15,18.2,25.1,25.8c5.1,3.6,10.5,7.2,16.5,10.3
	c6,2.9,12.4,5.5,19.3,7.5c13.7,3.7,29,5.1,43.9,3c14.9-2,29.1-6.7,41.6-13c12.5-6.2,23.5-13.8,33.2-21.8
	c19.4-16.1,34.5-33.9,47.2-51.9c6.4-9,12.2-18.1,17.6-27.3l6.3-10.9c1.9-3.2,3.9-6.4,5.9-9.4c8-12,15.9-21.6,25.4-28.9
	c9.4-7.4,22.5-12.9,40-14.2C400.4,172.7,420.5,175,442.6,180z"/>
<path class="st3" d="M348.4,357.9c0,15.7,12.8,28.5,28.5,28.5s28.5-12.8,28.5-28.5c0-15.7-12.7-28.5-28.5-28.5
	S348.4,342.2,348.4,357.9z"/>
</svg>
