<?xml version="1.0" encoding="utf-8"?>
<!-- Generator: Adobe Illustrator 28.2.0, SVG Export Plug-In . SVG Version: 6.00 Build 0)  -->
<svg version="1.1" id="Layer_2_00000083799033157665004450000009972035976466763711_"
	 xmlns="http://www.w3.org/2000/svg" xmlns:xlink="http://www.w3.org/1999/xlink" x="0px" y="0px" viewBox="0 0 500 500"
	 style="enable-background:new 0 0 500 500;" xml:space="preserve">
<style type="text/css">
	.st0{fill:#C3C6DE;}
</style>
<g id="Layer_1-2">
	<path class="st0" d="M17.4,403.1l336.1,96.7c0.7,0.2,1.5,0.2,2.3,0.1c0.7-0.1,1.5-0.5,2-1c0.6-0.5,1-1.1,1.3-1.8s0.4-1.5,0.3-2.2
		l-24.4-256.7c-0.1-0.8-0.3-1.5-0.7-2.1c-0.4-0.6-1-1.2-1.7-1.5c-0.7-0.4-1.4-0.6-2.2-0.6s-1.5,0.1-2.2,0.5L16.7,394.5
		c-0.8,0.4-1.5,1.1-2,1.9c-0.4,0.8-0.7,1.7-0.6,2.7c0.1,0.9,0.4,1.8,1,2.5C15.8,402.3,16.6,402.8,17.4,403.1L17.4,403.1z"/>
	<path class="st0" d="M170.6,266.3l312.7-160.5c0.8-0.4,1.5-1.1,2-1.9c0.4-0.8,0.6-1.7,0.5-2.7c-0.1-0.9-0.5-1.8-1.1-2.5
		c-0.6-0.7-1.4-1.2-2.3-1.5l-337.2-97c-0.7-0.2-1.5-0.2-2.3-0.1c-0.7,0.1-1.5,0.5-2,1c-0.6,0.5-1,1.1-1.3,1.8s-0.4,1.5-0.3,2.2
		l24.5,257.5c0.1,0.8,0.3,1.5,0.8,2.1c0.4,0.6,1,1.2,1.7,1.5c0.7,0.4,1.4,0.6,2.2,0.6C169.3,266.8,170,266.7,170.6,266.3
		L170.6,266.3z"/>
</g>
</svg>
