<?xml version="1.0" encoding="utf-8"?>
<!-- Generator: Adobe Illustrator 28.0.0, SVG Export Plug-In . SVG Version: 6.00 Build 0)  -->
<svg version="1.1" id="Layer_1" xmlns="http://www.w3.org/2000/svg" xmlns:xlink="http://www.w3.org/1999/xlink" x="0px" y="0px"
	 viewBox="0 0 500 500" style="enable-background:new 0 0 500 500;" xml:space="preserve">
<style type="text/css">
	.st0{fill:url(#SVGID_1_);}
	.st1{fill:#FFFFFF;}
</style>
<linearGradient id="SVGID_1_" gradientUnits="userSpaceOnUse" x1="250" y1="500" x2="250" y2="-9.094947e-13">
	<stop  offset="0" style="stop-color:#487BFF"/>
	<stop  offset="1" style="stop-color:#6690FF"/>
</linearGradient>
<path class="st0" d="M425.6,0H158.8c-16.9,0-31.4,11.9-34.6,28.5L39.8,457.9C35.5,479.7,52.1,500,74.4,500h268.4
	c16.9,0,31.4-12,34.6-28.6L460.3,42C464.5,20.2,447.8,0,425.6,0z"/>
<path class="st1" d="M378.2,91H183.1c-18.8,0-34.2,42-14.4,55.6h66.5l-48,245.8c0,23.1,66.1,23.1,66.1,0l48-245.8h62.5
	C386.4,147.4,396.1,94.5,378.2,91z"/>
</svg>
