<?xml version="1.0" encoding="utf-8"?>
<!-- Generator: Adobe Illustrator 28.0.0, SVG Export Plug-In . SVG Version: 6.00 Build 0)  -->
<svg version="1.1" id="Layer_1" xmlns="http://www.w3.org/2000/svg" xmlns:xlink="http://www.w3.org/1999/xlink" x="0px" y="0px"
	 viewBox="0 0 500 500" style="enable-background:new 0 0 500 500;" xml:space="preserve">
<style type="text/css">
	.st0{fill-rule:evenodd;clip-rule:evenodd;}
</style>
<path id="Fill-1" class="st0" d="M479.2,256.8c0,1.5-2.2,2-2.8,0.5c-0.3-0.6-0.5-1.2-0.8-1.9c-0.5-1.1-0.4-2.4,0.4-3.4
	c0.2-0.2,0.5-0.6,0.8-1.1c1-1.3,2.4-1.1,2.4,0.3C479.3,253.2,479.3,254.9,479.2,256.8 M468.1,226.5c-1.7,3.1-6.1,3.2-8,0.3
	c-0.3-0.5-0.6-0.9-0.9-1.4c-6.8-10.5-14.7-20.8-23.5-30.8c-2.2-2.5-0.4-6.3,2.9-6.3h0.1c20.5,0,31.3,5.1,34.6,11.3
	C476,204.7,475.2,213.7,468.1,226.5 M463.5,333.9c-1.1,2.8-2.3,5.6-3.5,8.3c-0.2,0.4-0.4,0.8-0.6,1.1c-7.6,14.6-20.2,26-37.2,34
	c-3.8,1.8-8-1.7-6.8-5.7c5.6-20.1,9.9-42,12.7-64.9c0.5-4.3,2.6-8.2,5.9-11c7-6,13.5-12.1,19.5-18l0.1-0.1c2.9-2.9,8-1.7,9.2,2.3
	C468.6,299.6,468.9,318,463.5,333.9 M417.4,406.7c-1.7,1.8-3.5,3.7-5.3,5.5c-3.1,3.1-6.3,6.1-9.6,9.1c-2.1,1.8-5.2-0.5-4-3
	c0.3-0.7,0.7-1.4,1-2.2c1.4-3,2.7-6.1,4-9.3c0.3-0.7,0.9-1.3,1.7-1.5c3.3-0.8,6.4-1.7,9.5-2.7C417.3,401.7,419.2,404.8,417.4,406.7
	 M383.6,388.5c-6.8,1-14,1.6-21.6,1.9c-18.4,0.6-37.8-0.9-57.8-4.6c-2.4-0.4-2.9-3.7-0.7-4.9c4.4-2.2,8.7-4.5,13.1-6.8
	c30.5-16.2,59-33.9,84-52c1.9-1.4,4.4,0.2,4.1,2.5c-3.5,20.8-8.2,40.4-14.3,58.1C389.4,385.8,386.7,388,383.6,388.5 M376.5,416.2
	c-16.4,32.2-36.5,50.3-56.1,49.9c-21.2-0.4-42.4-22.5-58.1-60.7l0,0c-1-2.4,0.1-5.2,2.5-6.2c0.2-0.1,0.3-0.1,0.5-0.2
	c1-0.4,2.2-0.5,3.3-0.2c29.3,8.2,58.2,12.5,85.3,12.5c2.9,0,5.9,0,8.8-0.2c3.4-0.1,6.7-0.3,10-0.6
	C375.8,410.3,377.9,413.5,376.5,416.2 M279.6,477.4c-9.7,1.3-19.6,1.9-29.6,1.9c-44.6,0-87.2-12.6-123.8-36.2
	c-2.5-1.6-1.4-5.5,1.5-5.7c0.6,0,1.2-0.1,1.7-0.1c9.3-0.6,19.5-2,30.6-4.1c23.5-4.5,49.6-12.3,77-22.7c2.5-0.9,5.2,0.3,6.2,2.7
	c0,0,0,0,0,0c10.6,25.8,23.7,45.3,38.3,57.7C283.9,473.1,282.7,477,279.6,477.4 M147,316.8c20.2-16.5,43.9-32.9,69.9-48.4
	c0.6,33.2,4.2,65.1,10.6,93.9c-9.6-4.1-19.2-8.6-28.8-13.6C180.3,339.1,162.9,328.4,147,316.8 M84.1,405.8
	c-4.8-9.1,1.4-30.2,33.1-62.2l0,0c3.3-3.3,3-8.8-0.7-11.7c-1.3-1-2.5-2-3.8-3c-3.2-2.5-7.7-2.3-10.6,0.6c-0.6,0.6-1.1,1.1-1.2,1.2
	c-15.8,16.2-26.9,31.3-33.1,44.8c-1.8,3.8-7.1,4.2-9.4,0.7C33.9,339,20.7,295.5,20.7,250c0-16.3,1.7-32.3,5-47.9
	c0.5-2.4,3.8-2.5,4.5-0.2c4.8,15.7,12.5,32,23.2,48.4c14.4,22.1,33.4,43.4,55.9,62.9c7.7,6.7,15.8,13.1,24.3,19.3
	c17.2,12.6,35.8,24.2,55.6,34.5c8.8,4.6,17.4,8.9,26.1,12.9c4.9,2.2,10.4,2.4,15.4,0.4c4.1-1.6,8.3-3.3,12.5-5.1
	c4.6-1.9,7-6.9,5.8-11.7c-0.2-0.6-0.3-1.1-0.3-1.4c-6.9-29.1-10.7-61.8-11.2-96l0,0c0-0.4,0-0.8,0-1.2c0-1.9,0-3.8,0-5.6
	c0-0.6,0-1.6,0-2.2c0-0.2,0-0.5,0-0.7c0,0,0,0,0,0c0-2.1,0-4.3,0.1-6.4c0.1-5.9,0.3-11.7,0.6-17.5c0,0,0,0,0,0
	c2.1-41.3,9.1-80.2,20.3-112.9c1-3-0.6-6.3-3.6-7.3c-2.9-1-5.9-2-8.8-2.9c-3-0.9-6.2,0.7-7.2,3.6c-12.1,35.5-19.5,77.6-21.5,122.2
	c-0.3,5.7-3.3,10.8-8.2,13.7c-26.4,15.6-50.6,32.2-71.6,48.9c-4.4,3.5-10.6,3.4-14.8-0.3c-21-18.2-38.6-38-52-58.5
	c-26.2-40.3-32.5-78.2-17.6-106.8c0-0.1,0.1-0.1,0.1-0.2c1.9-3.2,3.9-6.3,5.9-9.3c17.1-22.7,49.1-35.8,91.4-37.3
	c2.7-0.1,5.4-0.1,8.1-0.1c26,0,53.8,4.3,82.1,12.5l0,0c0.6,0.2,1.2,0.4,1.9,0.5c0.5,0.1,1,0.3,1.4,0.4c0,0,0,0,0,0
	c6.5,2,13.1,4.1,19.7,6.5c0,0,0,0,0,0c0.2,0.1,0.3,0.1,0.5,0.2c1.7,0.6,3.4,1.3,5.1,1.9c0.5,0.2,1.1,0.4,1.6,0.6
	c0.5,0.2,1,0.4,1.5,0.6l0,0c13.8,5.4,27.7,11.6,41.3,18.7c26.4,13.7,50.6,29.8,71.7,47.5c-40.2,9.2-86.9,27-133.8,50.9
	c-2.2,1.1-3.6,3.3-3.7,5.7c-0.2,2.9-0.4,8.8-0.5,13.4c-0.1,2.9,3,4.9,5.6,3.5l0,0c46.5-24.4,92.9-42.7,132.7-52.3
	c7.4-1.8,12.3-9,11.2-16.5c-0.7-5.3-1.6-10.5-2.5-15.6c-1.1-6.4-4.7-12.2-9.9-16.2c-18.7-14.2-39.2-27.3-61.2-38.7
	c-14.8-7.7-29.9-14.5-45-20.2c-3.2-1.2-4.6-5-2.9-8.1c15.5-27.8,34-43.4,52-43.4c0.2,0,0.4,0,0.6,0c21.2,0.4,42.4,22.5,58.1,60.7
	c7.9,19.3,14.1,41.6,18.3,65.8c0,0,0,0-0.1-0.1c1.8,10.3,3.2,21,4.3,32c-0.1,0.1-0.2,0.1-0.3,0.2c0.1,0.1,0.3,0.3,0.4,0.4
	c1.8,18.4,2.5,37.5,2.2,57.1c-0.2,12.4-0.9,24.6-1.9,36.5c-28.4,23-63.6,45.8-102.2,66.3c-12.7,6.7-25.4,13-37.9,18.8
	c-0.2,0.1-0.4,0.2-0.6,0.3c-1,0.4-1.9,0.9-2.9,1.3c0,0,0,0,0,0c-10.4,4.7-20.7,9.1-30.9,13c0,0,0,0,0,0c-0.6,0.2-1.1,0.4-1.7,0.7
	c-0.7,0.3-1.4,0.6-2.1,0.8c-1.7,0.7-3.4,1.3-5.1,1.9c-0.5,0.2-0.9,0.4-1.4,0.5c-2.1,0.8-4.1,1.5-6.1,2.2c-0.3,0.1-0.5,0.2-0.8,0.3
	c0,0,0,0,0,0c-21.7,7.7-42.4,13.6-61.3,17.2C110.5,421.7,89,415,84.1,405.8 M116.9,63.2c38.6-27.6,84.7-42.5,133.1-42.5
	c12.8,0,25.4,1,37.8,3.1c3.3,0.5,4.4,4.8,1.8,6.8c-12,9.4-23.1,23.3-33,41.3c-2.4,4.4-7.5,6.5-12.3,5.2
	c-32.6-9.2-64.7-13.5-94.4-12.5c-10.9,0.4-21.3,1.5-31,3.3C116.1,68.4,114.6,64.9,116.9,63.2 M431.7,230.4c-0.1-2.6,3.3-3.8,4.8-1.6
	c1.9,2.6,3.7,5.3,5.4,7.9c2.3,3.5,4.4,7,6.4,10.5c1.2,2.2,0.9,4.9-0.7,6.7c-2.7,2.9-5.6,6-8.7,9.1c-1.2,1.1-2.3,2.3-3.5,3.5
	c-1.5,1.4-4,0.3-3.9-1.7c0.1-3.8,0.3-7.5,0.3-11.3C431.9,245.7,431.8,238,431.7,230.4 M407.9,83.7c1.4,1.4,2.9,2.8,4.3,4.2
	c22.1,22.1,39.1,47.9,50.5,76c1.1,2.8-1.3,5.8-4.3,5.3c-6.6-1.2-14-1.7-22.2-1.6c-5.7,0.1-10.6-3.9-11.6-9.5
	c-4.5-25-10.9-48.1-19.2-68.2c-0.5-1.1-0.9-2.3-1.4-3.4C402.9,84,405.9,81.8,407.9,83.7 M494.6,198c-9.9-46.9-33.1-90.1-67.8-124.8
	C379.6,26,316.8,0,250,0C183.2,0,120.4,26,73.2,73.2c-11.5,11.5-21.7,23.9-30.6,37.1c-2.6,3.5-5,7.2-7.1,11.1
	C12.4,159.9,0,204,0,250c0,66.8,26,129.6,73.2,176.8S183.2,500,250,500c66.8,0,129.6-26,176.8-73.2c22.3-22.3,39.8-48,52.2-76
	c1.5-3.1,2.8-6.3,4-9.5c11.2-28.7,17.1-59.5,17.1-91.2c0-17.5-1.8-34.6-5.3-51.3C494.7,198.4,494.6,198.2,494.6,198"/>
</svg>
