<?xml version="1.0" encoding="utf-8"?>
<!-- Generator: Adobe Illustrator 28.2.0, SVG Export Plug-In . SVG Version: 6.00 Build 0)  -->
<svg version="1.1" id="Layer_1" xmlns="http://www.w3.org/2000/svg" xmlns:xlink="http://www.w3.org/1999/xlink" x="0px" y="0px"
	 viewBox="0 0 500 500" style="enable-background:new 0 0 500 500;" xml:space="preserve">
<style type="text/css">
	.st0{fill:#FF5A21;}
</style>
<path class="st0" d="M499.7,236.5C493.2,109.8,383.8,9.5,250.6,8c-0.5,0-0.9,0-1.3,0L249.2,8L248.6,8h-0.4
	c-39.9,0.4-79.6,10.1-114.7,28.3c-52.3,26.4-93.1,71.1-115,125.6l-1.9,4.8h62.9l0,0h8.5l1-1.8c0.7-1.1,1.3-2.2,2-3.3l-0.1,0v0
	c1.8-2.9,3.6-5.7,5.4-8.3l-0.1,0c0,0,0,0,0,0c29.4-42.6,79.1-72.2,133-79.3l1.1-0.1l0,0h0.4l0.1-0.1c6.5-0.6,13.2-1,19.8-1h3
	c5,0,10.1,0.2,15.1,0.6l0,0l3.3,0.3c10.6,1.1,21,2.9,31.1,5.6l5.3,1.5c11.8,3.5,23.3,8.3,33.9,14.2l0.4,0.2c4.3,2.4,8.5,5,12.4,7.8
	L344.3,113l-94.6,91.4l-0.1-0.1l-0.2,0.3l-47-45.8l0,0l0,0l-47.6,46l0,0l0,0l2.4,2.4l0.1,0.1l44.8,43.2l-47.4,45.8l44.1,43l2.6,2.5
	l47.5-45.9L352,395.3c-9.2,6.2-19.8,11.7-32.8,17.3c-26.5,10.2-49.6,15-72.7,15c-42.1,0-81.5-13.5-113.8-39.4
	c-4.8-3.9-9.4-8.1-13.7-12.4c-15.8-18.9-29.6-36.3-39.2-58.1l-0.1-0.3l0.1,0c-3.1-7.5-5.7-15.2-7.7-23l-0.1,0
	c-1-4.2-1.8-8.5-2.4-12.9l57.4,0.1v-61.7l-0.1-3.5h-0.1v0H2l-0.5,3C0,228.3,0,238.6,0,248.7c0.7,49.6,16,97.1,44.3,137.3
	C90.5,452.4,167.6,492,250.6,492v0c132.1,0,241.5-100.7,249.1-229.3c0.2-3.3,0.3-7.3,0.3-11.8C500,243.2,499.7,236.5,499.7,236.5z
	 M426.3,302.5c-1.5,4.8-3.3,9.4-5.2,14c-0.4,0.9-0.8,1.8-1.2,2.7c-0.3,0.6-0.5,1.2-0.8,1.8c-0.4,0.9-0.9,1.9-1.3,2.8
	c-0.3,0.6-0.6,1.2-0.9,1.8c-0.2,0.4-0.4,0.8-0.6,1.2c-2.1,4.1-4.4,8.2-6.8,12.1c-2.5,4-5.3,8-8.2,11.9L297.3,250.1l104.1-100.9
	c21.9,29.6,32.9,63.4,32.9,100.6C434.3,268.2,431.6,286,426.3,302.5z"/>
</svg>
