<?xml version="1.0" encoding="utf-8"?>
<!-- Generator: Adobe Illustrator 28.2.0, SVG Export Plug-In . SVG Version: 6.00 Build 0)  -->
<svg version="1.1" id="Layer_1" xmlns="http://www.w3.org/2000/svg" xmlns:xlink="http://www.w3.org/1999/xlink" x="0px" y="0px"
	 viewBox="0 0 500 500" style="enable-background:new 0 0 500 500;" xml:space="preserve">
<style type="text/css">
	.st0{fill:#231F20;}
</style>
<path class="st0" d="M305.3,189.8c-2.5,0.9-5.1,0.5-7.6,0.5c-31.1,0-62.2,0-93.2,0c-1,0-2.1-0.1-3.1,0c-3.9,0.5-5.8-0.9-5.4-5.2
	c0.3-3.6,0.1-7.3,0.1-11c0-18.5,0-37,0-55.6c0-8.4,0.8-7.3-7.5-7.3c-39.6-0.1-79.1-0.1-118.7-0.1c-13.6,0-23.3-5.4-29.3-18.5
	C29.2,68,16.9,43.6,5.1,19c-0.8-1.6-1.6-3.3-2.3-4.9C-0.5,6.4,2.3,1.2,10.4,0.2c2.3-0.3,4.6-0.2,6.9-0.2c155.1,0,310.2,0,465.4,0
	c3.1,0,6.2-0.3,9.2,0.6c6,1.8,8,6.2,5.8,12.1c-0.4,1.2-1.1,2.3-1.7,3.5c-12.6,26-25.3,51.9-37.6,78c-5.6,11.8-14.8,16.9-27.1,16.9
	c-37.7,0.1-75.5,0.1-113.3,0.1c-1.5,0-3.1,0-4.6,0c-8.2,0.1-7.4-1-7.4,7.5c0,21.9,0,43.8-0.1,65.7
	C306,186.3,306.4,188.1,305.3,189.8L305.3,189.8z"/>
<path class="st0" d="M251.4,301.7c16.2,0,32.4,0,48.5,0c6,0,6.1,0.1,6.1,5.7c0,28.9,0,57.9,0,86.8c0,5.3-1.3,10.2-3.6,15
	c-13.2,27.1-26.3,54.2-39.5,81.3c-2.1,4.4-4.1,9.3-10.1,9.4c-6.1,0.1-8.1-4.7-10.3-9.1c-14.5-29.6-28.9-59.3-43.3-89
	c-2.1-4.3-2.9-8.9-2.9-13.6c0-27.1,0-54.2-0.2-81.3c0-4.3,1.4-5.3,5.3-5.3C218,301.8,234.7,301.7,251.4,301.7L251.4,301.7z"/>
<path class="st0" d="M306.2,245.4c0-16.4,0-32.9,0-49.3c0-5.5,0.1-5.6,5.4-5.6c29-0.1,58,0,87-0.1c1.3,0,2.6,0.1,3.8,0.2
	c7.2,0.4,12.6,5.6,8,14.7c-11.1,22.1-21.6,44.4-32.3,66.6c-2.3,4.7-4.6,9.3-6.8,14c-4.3,9.5-11.9,14.6-21.7,15.1
	c-13.3,0.8-26.7,0.3-40,0.5c-4.2,0.1-3.5-2.7-3.5-5.3C306.2,279.3,306.2,262.4,306.2,245.4L306.2,245.4z"/>
</svg>
