<?xml version="1.0" encoding="UTF-8"?>
<svg xmlns="http://www.w3.org/2000/svg" xmlns:xlink="http://www.w3.org/1999/xlink" width="500" height="500" viewBox="0 0 500 500" version="1.1">
<g id="surface1">
<path style=" stroke:none;fill-rule:nonzero;fill:rgb(0%,53.333333%,80%);fill-opacity:1;" d="M 500 250 C 500 388.070312 388.070312 500 250 500 C 111.929688 500 0 388.070312 0 250 C 0 111.929688 111.929688 0 250 0 C 388.070312 0 500 111.929688 500 250 Z M 500 250 "/>
<path style=" stroke:none;fill-rule:evenodd;fill:rgb(100%,100%,100%);fill-opacity:1;" d="M 180.4375 165.21875 L 320.652344 165.21875 C 325.613281 165.21875 330.570312 165.945312 335.75 168.359375 C 341.960938 171.253906 345.253906 175.816406 347.5625 179.191406 C 347.742188 179.453125 347.910156 179.726562 348.0625 180 C 350.777344 184.832031 352.175781 190.042969 352.175781 195.652344 C 352.175781 200.980469 350.90625 206.785156 348.0625 211.84375 C 348.039062 211.894531 348.011719 211.941406 347.980469 211.988281 L 259.394531 364.164062 C 257.441406 367.519531 253.84375 369.578125 249.960938 369.566406 C 246.078125 369.550781 242.5 367.46875 240.570312 364.097656 L 153.609375 212.25 C 153.582031 212.207031 153.558594 212.167969 153.53125 212.125 C 151.542969 208.84375 148.464844 203.773438 147.925781 197.230469 C 147.433594 191.210938 148.785156 185.179688 151.808594 179.949219 C 154.832031 174.722656 159.386719 170.542969 164.863281 167.980469 C 170.734375 165.238281 176.683594 165.21875 180.4375 165.21875 Z M 239.132812 186.957031 L 180.4375 186.957031 C 176.578125 186.957031 175.097656 187.195312 174.0625 187.675781 C 172.632812 188.34375 171.429688 189.445312 170.628906 190.832031 C 169.824219 192.222656 169.460938 193.835938 169.59375 195.449219 C 169.667969 196.371094 170.046875 197.429688 172.269531 201.09375 C 172.3125 201.171875 172.359375 201.25 172.40625 201.324219 L 239.132812 317.84375 Z M 260.871094 186.957031 L 260.871094 318.417969 L 329.144531 201.140625 C 329.914062 199.742188 330.4375 197.71875 330.4375 195.652344 C 330.4375 193.976562 330.089844 192.519531 329.3125 191.019531 C 328.496094 189.847656 328 189.226562 327.585938 188.800781 C 327.230469 188.4375 326.953125 188.246094 326.566406 188.0625 C 324.953125 187.3125 323.300781 186.957031 320.652344 186.957031 Z M 260.871094 186.957031 "/>
</g>
</svg>
