<?xml version="1.0" encoding="utf-8"?>
<!-- Generator: Adobe Illustrator 28.0.0, SVG Export Plug-In . SVG Version: 6.00 Build 0)  -->
<svg version="1.1" id="Layer_1" xmlns="http://www.w3.org/2000/svg" xmlns:xlink="http://www.w3.org/1999/xlink" x="0px" y="0px"
	 viewBox="0 0 500 500" style="enable-background:new 0 0 500 500;" xml:space="preserve">
<style type="text/css">
	.st0{fill:#AD3BBA;}
	.st1{fill:#280B1D;}
	.st2{fill:#B02F9F;}
	.st3{fill:#A85FAE;}
	.st4{fill:#A25BA7;}
	.st5{fill:#813F86;}
	.st6{fill:#D190D4;}
	.st7{fill:#B267B7;}
	.st8{fill:#8B3497;}
	.st9{fill:#732460;}
	.st10{fill:#90257D;}
	.st11{fill:#681959;}
	.st12{fill:#943C9E;}
	.st13{fill:#541560;}
	.st14{fill:#6F3374;}
	.st15{fill:#5D1769;}
	.st16{fill:url(#SVGID_1_);}
	.st17{fill:#853390;}
	.st18{fill:#76387B;}
	.st19{fill:#481053;}
	.st20{fill:url(#SVGID_00000085211761292234722520000005822519672264584342_);}
	.st21{fill:url(#SVGID_00000139294705506831048500000006601226532526356105_);}
	.st22{fill:#9D3FA8;}
	.st23{fill:#9F3589;}
	.st24{fill:#4F135B;}
	.st25{fill:url(#SVGID_00000043414874075966117390000008121117461056743307_);}
	.st26{fill:#9F47A8;}
	.st27{fill:url(#SVGID_00000113317397358486141340000013411546078018241464_);}
	.st28{fill:url(#SVGID_00000129192580053556117860000002100916267646327981_);}
</style>
<path class="st0" d="M107.5,98.5c1.1-1.4,2.2-2.7,3.3-4.1c3.8,0.6,7.5,1.2,11.3,1.8c10,1.7,19.9,3.5,29.9,5.2c0,0.4,0,0.8,0,1.1
	c-0.2,0.3-0.5,0.6-0.7,0.9c-6.1,10.9-12.2,21.8-18.4,32.6c-10.5,18.5-20.9,36.9-31.4,55.3c-9.3,16.4-18.7,32.8-28.1,49.3
	c-1.3,2.3-2.4,4.7-3.6,7.1c-3.1,5.3-6.2,10.6-9.2,15.9c-6,10.5-12,21-17.9,31.6c-5,8.8-10,17.7-15,26.5c-3.8,6.6-7.7,13.2-11.6,19.8
	c0-0.6-0.2-1.2,0-1.8c9.7-25.5,19.5-51,29.3-76.5c9-23.6,18-47.2,27-70.7c11.6-30.3,23.3-60.5,34.9-90.8
	C107.6,100.7,107.4,99.6,107.5,98.5z"/>
<path class="st1" d="M189.3,493.7c-0.3-0.2-0.6-0.5-0.9-0.7c-0.2-0.2-0.5-0.4-0.7-0.5c0,0,0,0,0,0c-0.4-0.3-0.9-0.6-1.3-0.9
	c0,0-0.1-0.1-0.1-0.1c-0.3-0.3-0.6-0.5-0.9-0.8c0,0,0,0,0,0c-0.6-0.8-1-1.8-1.7-2.4c-7.2-6.1-14.4-12.1-21.9-18.3
	c5.6-1.4,10.7-2.8,15.9-4c2.7-0.6,5.4-0.8,8.2-1.2c1.7-0.3,3.3-0.8,4.9-1.2c0.2,0,0.4,0,0.5-0.1c1-0.4,1.9-0.7,2.9-1.1
	c0.4,0,0.8-0.1,1.1-0.1c0.6-0.4,1.2-0.7,1.8-1.1c0.7-0.1,1.4,0,2-0.2c10-3.4,20-6.8,29.9-10.4c1.6-0.6,3.4-1.6,4.3-3
	c7.5-10.8,14.8-21.8,22.1-32.7c0.6-0.9,1.1-1.8,1.7-2.6c3.5-5,7.1-9.9,10.6-14.8c0.2,0.6,0.4,1.2,0.6,1.8c0.4,3.7,0.6,7.4,1.1,11.1
	c1.2,10.3,2.4,20.6,3.7,30.8c1.4,11.9,2.9,23.8,4.4,35.7c0.7,6,1.6,12,2.4,17.9c-1.7,0.3-3.5,0.8-5.2,0.9c-25,1.5-50,3-74.9,4.4
	c-1,0.1-2.2-0.2-2.9-0.8c-2.3-1.6-4.4-3.4-6.6-5.1C189.9,494.1,189.6,493.9,189.3,493.7z"/>
<path class="st2" d="M107.5,98.5c-0.1,1.1,0.1,2.2-0.3,3.2C95.6,132,84,162.2,72.3,192.5c-9,23.6-18,47.1-27,70.7
	c-9.8,25.5-19.5,51-29.3,76.5c-0.2,0.5,0,1.2,0,1.8c-0.2,0.6-0.4,1.1-0.6,1.7c-0.2,0.2-0.4,0.4-0.6,0.6c-0.2,0.2-0.3,0.4-0.5,0.6
	c-0.2-1.1-0.7-2.2-0.6-3.3c1.1-15.6,2.3-31.1,3.4-46.7c1.5-20.6,2.9-41.1,4.5-61.7c0.1-1.3,0.6-2.6,1.3-3.7
	c27.9-43.2,55.8-86.4,83.8-129.6C107,99.1,107.2,98.8,107.5,98.5z"/>
<path class="st3" d="M361.4,222.3c1,1.9,2.4,3.7,3.1,5.7c4.8,14.1,9.5,28.2,14.2,42.3c0.7,2,0.5,3.6-0.4,5.5
	c-4.1,8-8.1,16.1-12.1,24.2c0-5.9-0.1-11.9-0.1-17.8c0-6.1,0-12.2,0-18.2c0-1.8-0.4-3.5-0.6-5.3c-1.4-0.8-2.7-1.7-4.1-2.3
	c-6.5-2.9-13.1-5.7-19.6-8.6c-0.2-0.1-0.3-0.1-0.5-0.2c-0.2-0.5-0.4-1.1-0.6-1.6c-0.2-0.5-0.4-1-0.7-1.5c-2.3-4.5-4.6-9-6.9-13.5
	c0.6-1,1.5-1.8,1.8-2.9c1.6-7.4,3.1-14.8,4.8-22.1c0.1-0.5,1.1-0.7,1.7-1.1c1.3,1.7,2.7,3.5,4,5.2c0.7,2.3,1.3,4.6,2.3,6.8
	c4,9.3,8.1,18.6,12.3,27.8c1.4,3.1,2.2,6.8,6.1,8.9c0.4-1.2,1.1-2.3,0.9-3.2c-1.9-7.1-4-14.2-5.8-21.3c-0.6-2.2-0.5-4.6-0.7-6.9
	C360.6,222.3,361,222.3,361.4,222.3z"/>
<path class="st4" d="M268.4,399.3c-0.2-0.6-0.4-1.2-0.6-1.8c-0.6-0.8-1.2-1.5-1.8-2.3c-0.9-1.5-1.6-3-2.6-4.4
	c-5.5-7.6-11.1-15.1-16.6-22.7c-0.2-0.4-0.4-0.8-0.6-1.2l0,0c-0.6-1.3-1.1-2.8-1.9-4c-2.6-3.9-5.2-7.8-7.8-11.6
	c0.2-0.4,0.4-0.8,0.6-1.2c1-3.6,1.9-7.3,2.9-10.9c3.1,3.3,6.1,6.6,9.3,9.8c1.4,1.5,3.1,2.7,4.6,4.1c0,0,0,0,0,0
	c1,1.2,1.9,2.3,2.9,3.5c5.6,6.6,11.3,13.2,16.9,19.9c0.5,0.6,0.7,1.4,0.9,2.1c6.7,23.3,13.4,46.5,20.1,69.8c0.1,0.4,0.1,0.9,0.2,1.4
	c-1.7-3-3.5-6-5-9.1c-6.4-12.8-12.7-25.7-19.1-38.5C270.2,401,269.2,400.2,268.4,399.3z"/>
<path class="st5" d="M268.4,399.3c0.8,0.9,1.8,1.7,2.3,2.7c6.4,12.8,12.7,25.7,19.1,38.5c1.5,3.1,3.4,6.1,5,9.1
	c1.5,2.8,1.1,5.5-0.1,8.5c-4.8,11.6-9.3,23.3-13.9,34.9c-0.2,0.6-0.6,1.2-0.9,1.8c-0.8-6-1.6-12-2.4-17.9c-1.5-11.9-3-23.8-4.4-35.7
	c-1.2-10.3-2.5-20.6-3.7-30.8C269,406.7,268.7,403,268.4,399.3z"/>
<path class="st0" d="M203.4,244.2c-5.5-4.7-11-9.5-16.6-14.2c-0.3-0.2-0.5-0.5-0.8-0.7c0,0,0,0.1,0,0.1c-0.2-0.5-0.2-1.3-0.6-1.5
	c-3.2-2.3-3.4-5.3-2.3-8.7c0.2-0.6,0.1-1.3,0.1-2c0-6.4,0-12.7,0-19.1c0-0.2,0-0.3,0-0.5c0.2-0.2,0.4-0.4,0.6-0.6
	c1.1-0.6,2.3-1.2,3.4-1.8c2,1.1,4,2,5.9,3.3c4.1,2.7,8.1,5.6,12.1,8.3c0.2,0.4,0.5,0.8,0.7,1.3c0,0.3,0,0.7,0,1
	c0.1,0.2,0.2,0.5,0.4,0.7c0.5,6.9,1,13.8,1.5,20.8C206.3,235,204.9,239.6,203.4,244.2z"/>
<path class="st6" d="M361.4,222.3c-0.4,0-0.7-0.1-1.1-0.1c-2.7-2.3-5.3-4.6-8-6.8c-2.3-1.8-4.7-3.5-7-5.3c-1.3-1.7-2.7-3.5-4-5.2
	c-2.2-3.2-4.3-6.5-6.6-9.7c-6.5-9.1-13.1-18.2-19.6-27.2c-3.9-5.4-7.9-10.8-11.8-16.3c-4.7-6.6-9.4-13.1-14.1-19.7
	c2.7-1.7,5.3-3.5,8-5.2c0.4,1,0.7,2.2,1.3,3.1c16.8,24.5,33.6,48.9,50.5,73.4c3.9,5.6,7.7,11.3,11.5,16.9
	C360.8,220.9,361.1,221.6,361.4,222.3z"/>
<path class="st7" d="M253.8,353c-1.5-1.4-3.2-2.6-4.6-4.1c-3.1-3.2-6.2-6.5-9.3-9.8c-0.6-0.9-1.2-1.9-1.9-2.8
	c-5.2-5.8-10.4-11.6-15.5-17.4c-7.5-8.4-14.9-16.8-22.3-25.2c-3.9-4.4-7.7-8.8-11.5-13.2c-1.7-1.9-3.5-3.8-5.3-5.7
	c-0.2,0.2-0.4,0.3-0.6,0.5c1.9,2.8,3.8,5.6,5.7,8.4c13.2,18.7,26.5,37.4,39.7,56.1c2.7,3.8,5.5,7.6,8.3,11.3
	c2.6,3.9,5.3,7.7,7.8,11.6c0.8,1.2,1.3,2.7,1.9,4c-0.8-0.9-1.7-1.8-2.5-2.8c-6.5-8.7-13.1-17.3-19.6-26c-2.7-3.7-5.4-7.4-8.1-11.2
	c-7.9-10.7-15.8-21.5-23.8-32.2c-5.1-6.8-10.3-13.6-15.4-20.4c-2.6-3.7-5.2-7.3-7.9-11c-3.4-4.6-6.8-9.2-10.1-13.9
	c0.7,0.4,1.6,0.7,2.1,1.2c5.3,5.3,10.6,10.7,15.8,16.1c1.4,0.6,2.8,1.1,4.4,1.8c0.2-1.5,0.3-2.5,0.4-3.5
	c5.8,7.1,11.5,14.2,17.3,21.2c10.8,13.1,21.6,26.1,32.4,39.1c7,8.4,14,16.9,21,25.3C253,351.5,253.4,352.3,253.8,353z M181.2,273
	c0,0.1,0,0.3,0,0.4c0.1-0.1,0.1-0.1,0.2-0.2C181.3,273.1,181.3,273.1,181.2,273z"/>
<path class="st4" d="M199.4,0.1c2.9,2.3,5.8,4.6,8.8,6.9c2.1,1.6,4.2,3.3,6.3,4.9c-0.3,2.2,0.7,3.8,2.2,5.3
	c4.7,4.5,9.3,9.2,13.9,13.9c2.5,2.6,4.8,5.3,7.3,8.2c-0.8,0.4-1.2,0.8-1.6,0.8c-5,0.6-10,1.1-15,1.9c-1.9,0.3-3.7,1.1-5.5,1.7
	c-0.4-0.2-0.7-0.4-1.1-0.6c-1.9-5.8-3.8-11.6-5.9-17.4c-1-2.8-2.2-5.4-3.4-8.1c0-0.6-0.1-1.1-0.1-1.7
	C203.2,10.6,201.3,5.4,199.4,0.1z"/>
<path class="st7" d="M215.6,43.6c1.8-0.6,3.6-1.4,5.5-1.7c5-0.7,10-1.2,15-1.9c0.4-0.1,0.8-0.4,1.6-0.8c-2.5-2.8-4.8-5.6-7.3-8.2
	c-4.5-4.7-9.2-9.3-13.9-13.9c-1.6-1.5-2.6-3-2.2-5.3c8,6.4,16,12.7,24,19.1c0.6,0.5,1,1.3,1.6,2c-1.1,3.7-1,7.1,1.2,10.6
	c3.3,5.2,6.1,10.7,9.1,16.1c-4.1,1-8.1,1.9-12.2,2.9c-0.4-0.5-0.8-1.1-1.3-1.5C229.8,55.3,222.7,49.4,215.6,43.6z"/>
<path class="st8" d="M275.1,269.7c-0.2-0.2-0.4-0.3-0.5-0.5c0.9-0.7,1.7-1.5,2.7-2c10.5-5,21-10,31.5-14.9c0,0,0.3,0,0.3,0l0.3,0
	c0,0.2,0.1,0.4,0.1,0.6c0.6,9.3,1.2,18.5,1.8,27.8c-0.8,0-1.6-0.1-2.4-0.1c-5.8-2-11.6-4.1-17.4-6
	C286,272.9,280.5,271.4,275.1,269.7z"/>
<path class="st7" d="M394.3,66.2c-0.3,0.2-0.7,0.4-1,0.6c-0.4-0.2-0.9-0.4-1.3-0.5c-0.1,0.4-0.2,0.8-0.3,1.2c0,0,0,0,0,0
	c-1,0.6-2,1.1-3,1.7c0,0,0.1,0,0.1,0c-0.6,0.4-1.1,0.8-1.7,1.2c0,0,0,0,0,0c-1.1,0.3-2.3,0.4-3.2,0.9c-4.2,2.5-8.4,5-12.6,7.6
	c-0.4-0.6-0.8-1.2-1.2-1.8c0,0,0,0,0,0c0.8-0.6,1.6-1.2,2.3-1.7c0.5-0.5,1-1.2,1.7-1.6c16.2-10.5,32.5-20.9,48.7-31.4
	c14.5-9.4,29-18.8,43.5-28.2c4.1-2.7,8.1-5.5,12.1-8.2c0,0,0,0,0,0c0.4-0.2,0.8-0.4,1.2-0.6c0,0,0,0,0,0c0.2,0,0.4,0,0.6,0
	c1-0.8,1.9-1.7,2.9-2.5c1.8-1.2,2.2,0.3,2.8,1.5c0.9,1.7,0.9,3-1.1,3.9c-0.3,0.2-0.7,0.5-1,0.7c0,0,0.1,0,0.1,0
	c-0.4,0.4-0.8,0.8-1.2,1.2c0,0,0,0,0,0c-1.2,0.7-2.4,1.5-3.6,2.2c-1.1,0.4-2.2,0.6-3.1,1.2c-15.7,9.8-31.3,19.6-46.9,29.4
	c-0.8,0.5-1.2,1.7-1.8,2.6c0,0,0,0,0,0c-0.8,0.1-1.8-0.1-2.5,0.3c-4.4,2.7-8.8,5.4-13.1,8.2c-0.6,0.4-0.8,1.3-1.2,2c0,0,0,0,0,0
	c-0.6,0.4-1.1,0.8-1.7,1.2c0,0,0,0,0,0c-1.4-0.2-3-0.5-2.9,1.8c0,0,0,0,0,0c-0.6,0.4-1.1,0.8-1.7,1.2c0,0,0,0,0,0
	c-1.4-0.2-3-0.5-2.9,1.8c0,0,0,0,0,0c-0.6,0.4-1.1,0.8-1.7,1.2c0,0,0,0,0,0C395.9,62.7,394.6,63.6,394.3,66.2z"/>
<path class="st9" d="M365.4,300.9c-5.5,0.5-11.1,1-16.6,1.5c-8.7,0.6-17.4,1.2-26.2,1.8c3.7-3.4,7.4-6.8,11.1-10.2
	c4-3.7,8.1-7.3,12.1-10.9c0.2,0,0.5-0.1,0.7-0.1C352.8,289,359.1,294.9,365.4,300.9z"/>
<path class="st4" d="M365.4,300.9c-6.3-6-12.6-12-18.9-17.9c0-0.3,0-0.7,0-1c0.6-0.4,1.4-0.7,1.8-1.3c2.1-2.6,4-5.3,6.1-8
	c3.6-4.7,7.3-9.3,11-13.9c0.2,1.8,0.6,3.5,0.6,5.3c0.1,6.1,0,12.2,0,18.2c0,5.9,0.1,11.9,0.1,17.8
	C365.9,300.3,365.7,300.6,365.4,300.9z"/>
<path class="st10" d="M205.2,15.8c0,0.6,0.1,1.1,0.1,1.7c-0.2,4.3-0.4,8.6-0.6,12.9c-0.2,4-0.4,8-0.6,12.1
	c-0.6,9.6-1.1,19.3-1.7,28.9c-1,0.4-1.9,0.7-2.9,1.1c-1.5-6.7-3.1-13.5-4.6-20.2c-0.2-1.4-0.3-2.8-0.6-4.2
	c-0.8-3.4-1.7-6.8-2.5-10.2c-0.1-0.4-0.1-0.8-0.2-1.2c0-0.4,0-0.8-0.1-1.1c0-0.6,0-1.2,0-1.7c0.1-0.3,0.2-0.6,0.3-1c0,0,0-0.2,0-0.2
	c0.5-0.3,1.2-0.6,1.6-1C197.3,26.3,201.2,21,205.2,15.8z"/>
<path class="st11" d="M345.8,283.1c-4,3.6-8.1,7.3-12.1,10.9c-3.7,3.4-7.4,6.8-11.1,10.2c-0.4,0-0.8-0.1-1.2-0.1
	c-0.3-0.2-0.5-0.4-0.8-0.5c0,0,0,0.1,0,0c-0.1-0.7-0.1-1.5-0.4-2.2c-2.8-6.7-5.7-13.4-8.6-20.1c11,0.4,22,0.8,33,1.2
	C345,282.7,345.4,282.9,345.8,283.1z"/>
<path class="st12" d="M181.7,265.2c-0.1,1-0.3,2-0.4,3.5c-1.6-0.7-3-1.2-4.4-1.8c0-1.1,0-2.1,0.1-3.2c0.7-8.9,1.5-17.7,2.3-26.6
	c0.4-5,0.8-9.9,1.3-14.9c0.7-7.9,1.5-15.8,2.2-23.7c0.2-0.2,0.4-0.4,0.6-0.6c0,6.4,0,12.7,0,19.1c0,0.7,0.1,1.4-0.1,2
	c-1,3.4-0.8,6.4,2.3,8.7c0.4,0.3,0.4,1,0.6,1.5c-1-0.6-2-1.3-3.2-2C182.5,240.1,182.1,252.6,181.7,265.2z"/>
<path class="st13" d="M311.6,281.3c2.9,6.7,5.8,13.4,8.6,20.1c0.3,0.7,0.3,1.4,0.4,2.2c-7.6-5.7-15.2-11.4-22.8-17.1
	c3.1-1.9,5.7-4.9,9.8-4.8c0.4,0,0.8-0.7,1.2-1.1c0.8,0,1.6,0.1,2.4,0.1C311.3,280.9,311.5,281.1,311.6,281.3z"/>
<path class="st14" d="M205.2,15.8c-4,5.2-7.9,10.5-11.9,15.7c-0.4,0.5-1,0.7-1.6,1c2-10.6,4.1-21.2,6.2-31.8c0.1-0.3,1-0.4,1.5-0.6
	C201.3,5.4,203.2,10.6,205.2,15.8z"/>
<path class="st15" d="M308.8,280.6c-0.4,0.4-0.8,1.1-1.2,1.1c-4.1-0.1-6.7,2.9-9.8,4.8c-7.6-5.6-15.1-11.2-22.7-16.7
	c5.4,1.6,10.9,3.2,16.2,4.9C297.2,276.6,303,278.6,308.8,280.6z"/>
<path class="st4" d="M297.1,126.8c-2.7,1.7-5.3,3.5-8,5.2c-2.5,1.5-5,3-7.6,4.5c-1.1,0.5-2.3,0.9-3.4,1.5c-4.1,2.2-8.1,4.5-12.1,6.8
	c-0.2,0-0.5-0.1-0.7-0.1c0.4-0.4,0.7-0.9,1.1-1.2c7.4-4.8,14.8-9.6,22.1-14.4c4.9-3.2,9.7-6.5,14.5-9.7c5.6-3.5,11.2-6.9,16.7-10.4
	c-0.2,1.9,1.3,1.6,2.4,1.7c-2.8,1.9-5.6,3.9-8.4,5.8C308.2,120,302.6,123.4,297.1,126.8z"/>
<path class="st3" d="M322.1,110.7c-1.1-0.1-2.6,0.2-2.4-1.7c0.6-0.4,1.3-0.9,1.9-1.3c11.1-7.3,22.3-14.6,33.4-21.9
	c2.3-1.5,4.6-3,7-4.4c2.6-1.5,5.3-3,7.9-4.4c0.4,0.6,0.8,1.2,1.2,1.8c-11.4,7.2-22.8,14.4-34.1,21.7c-2,1.3-3.8,2.9-5.7,4.4
	c0,0,0,0,0,0c-0.6,0.4-1.2,0.8-1.8,1.2c0,0,0,0,0,0c-0.2,0.2-0.4,0.4-0.7,0.6l-0.2,0.1c0,0-0.2,0-0.2,0c-0.2,0.2-0.5,0.4-0.7,0.6
	c0,0,0,0,0,0c-0.4,0.2-0.8,0.4-1.2,0.6c0,0,0,0,0,0c-0.4,0.2-0.8,0.5-1.2,0.7c-0.2,0.1-0.3,0.3-0.5,0.4c-0.2,0.2-0.5,0.3-0.7,0.5
	c-0.1,0.1-0.3,0.1-0.4,0.1C323.3,109.9,322.7,110.3,322.1,110.7L322.1,110.7z"/>
<linearGradient id="SVGID_1_" gradientUnits="userSpaceOnUse" x1="20.2285" y1="347.1302" x2="114.8434" y2="441.7451">
	<stop  offset="0" style="stop-color:#853390"/>
	<stop  offset="1" style="stop-color:#481053"/>
</linearGradient>
<path class="st16" d="M118.3,433.6c-1.8-1.5-3.8-3-5.6-4.5c-5-4.1-10-8.3-15-12.5c-0.4-0.4-0.8-0.8-1.2-1.2
	c-3.3-2.9-6.5-5.8-9.8-8.7c-1.4-1-2.7-1.9-4.1-2.9c-4.6-3.8-9.3-7.7-13.9-11.5c0,0,0,0,0,0c-5.2-4.5-10.4-8.9-15.6-13.4
	c-2.7-2.1-5.4-4.2-8.1-6.3c0,0,0,0,0,0c-4.2-3.7-8.5-7.3-12.7-11c-3.1-2.7-6.2-5.4-9.3-8c-1.9-1.2-3.8-2.4-5.7-3.6
	c8.5,9.7,16.9,19.3,25.4,29v0c5,5.8,10,11.6,15.2,17.3c1.5,1.6,3.4,2.8,5.1,4.1l0,0c4.2,3.1,8.4,6.2,12.6,9.2c6,4.4,12,8.9,18,13.3
	c7.5,5.6,15.1,11.1,22.6,16.7c0.6-0.5,1.1-1,1.8-1.4C120.5,436.7,120.7,435.6,118.3,433.6z"/>
<path class="st6" d="M250.3,59.8c-3-5.4-5.8-10.9-9.1-16.1c-2.2-3.5-2.3-6.9-1.2-10.6c3.2,5.5,6.4,11.1,9.6,16.6
	c1.8,3,3.6,6,5.4,9.1C253.4,59,251.9,59.4,250.3,59.8z"/>
<path class="st4" d="M426.9,45.5c0.6-0.9,1-2,1.8-2.6c15.6-9.9,31.3-19.7,46.9-29.4c0.9-0.6,2.1-0.8,3.1-1.2c0,0.3,0,0.5,0,0.8
	c-3.4,2.4-6.8,5-10.4,7.2c-12.9,8.1-25.8,16.1-38.7,24.1C428.9,44.9,427.9,45.1,426.9,45.5z"/>
<path class="st4" d="M331.4,105c1.9-1.5,3.7-3.1,5.7-4.4c11.4-7.3,22.8-14.5,34.1-21.7c4.2-2.5,8.3-5.1,12.6-7.6
	c0.9-0.5,2.1-0.6,3.2-0.9c-0.8,0.7-1.5,1.6-2.5,2.2c-16.6,10.3-33.2,20.6-49.8,30.9C333.7,104.1,332.5,104.5,331.4,105z"/>
<path class="st17" d="M194.8,52.2c1.5,6.7,3.1,13.5,4.6,20.2c-1.7,0.4-3.5,0.8-5.2,1.2c-0.4-6.2-0.9-12.4-1.3-18.6
	c0-0.6,0-1.1,0.1-1.7C193.6,53,194.2,52.6,194.8,52.2z"/>
<path class="st4" d="M410.2,55.9c0.4-0.7,0.6-1.6,1.2-2c4.3-2.8,8.7-5.5,13.1-8.2c0.6-0.4,1.6-0.2,2.5-0.3c-0.4,0.5-0.7,1.1-1.2,1.4
	c-4.5,2.8-8.9,5.6-13.4,8.4C411.6,55.6,410.9,55.7,410.2,55.9z"/>
<path class="st14" d="M194.8,52.2c-0.6,0.4-1.2,0.7-1.8,1.1c0-0.8,0-1.6-0.1-2.5c-0.1-0.5-0.2-1-0.3-1.5c-0.3-3.8-0.6-7.7-0.9-11.5
	c0.8,3.4,1.7,6.8,2.5,10.2C194.5,49.4,194.6,50.8,194.8,52.2z"/>
<g>
	<path class="st18" d="M250.3,59.8c-4.1,1-8.1,1.9-12.2,2.9c-7.5,1.9-14.9,3.9-22.4,5.7c-3.3,0.8-6.7,1.6-10,2.3
		c-1.2,0.2-2.3,0.4-3.5,0.7c-1,0.4-1.9,0.7-2.9,1.1c-1.7,0.4-3.5,0.8-5.2,1.2c-11.4,2.8-22.9,5.6-34.3,8.4c-9.3,2.3-18.7,4.5-28,6.9
		c-7.1,1.8-14.1,3.7-21.1,5.5c3.8,0.6,7.5,1.2,11.3,1.8c10,1.7,19.9,3.5,29.9,5.2c21.1-6.2,42.2-12.5,63.3-18.7
		c8.6-2.6,17.2-5.1,25.8-7.7c0.5-0.2,1.1-0.1,1.7-0.2c6.2-2,12.3-3.9,18.5-5.9c1-0.3,1.9-0.7,2.9-1.1c-1.7-3.3-3.3-6.7-5-10
		c-1.4,0.3-2.8,0.6-4.3,0.8C253.4,59,251.9,59.4,250.3,59.8z"/>
	<path class="st18" d="M455.7,9.5c-5.5,1.3-11,2.6-16.5,3.9c-49.9,12.3-99.9,24.5-149.8,36.8c-10.1,2.5-20.1,5.1-30.2,7.6
		c1.7,3.3,3.3,6.7,5,10c4.8-1.3,9.6-2.6,14.4-4c25.4-7.6,50.8-15.2,76.2-22.8c20-6,40.1-11.9,60.1-17.9c0.6-0.2,1.3-0.3,2-0.4
		c13.3-4,26.6-8.1,39.9-12.1c0.2-0.2,0.4-0.3,0.7-0.5c0.4,0,0.7-0.1,1.1-0.1c0-0.4,0-0.8,0-1.1c-0.8,0.2-1.6,0.4-2.3,0.6
		C456.1,9.5,455.9,9.5,455.7,9.5z"/>
	<path class="st18" d="M466.6,7.2c-2.7,0.6-5.4,1.1-8.1,1.7c0,0.4,0,0.8,0,1.1C461.3,9,463.9,8.1,466.6,7.2z"/>
</g>
<path class="st4" d="M394.3,66.2c0.3-2.6,1.6-3.5,4.8-3.4C397.5,63.9,395.9,65.1,394.3,66.2z"/>
<path class="st3" d="M478.8,13.1c0-0.3,0-0.5,0-0.8c1.2-0.7,2.4-1.5,3.6-2.2C481.2,11.1,480,12.1,478.8,13.1z"/>
<path class="st7" d="M256.7,356.5c-1-1.2-1.9-2.3-2.9-3.5C254.8,354.2,255.7,355.3,256.7,356.5z"/>
<path class="st4" d="M400.9,61.7c-0.1-2.3,1.4-2,2.9-1.8C402.8,60.5,401.8,61.1,400.9,61.7z"/>
<path class="st4" d="M405.5,58.8c-0.1-2.3,1.4-2,2.9-1.8C407.4,57.6,406.5,58.2,405.5,58.8z"/>
<path class="st4" d="M388.6,69.1c1-0.6,2-1.1,3-1.7C390.6,68,389.6,68.6,388.6,69.1z"/>
<path class="st8" d="M15.3,348c0.6,0.7,1.3,1.4,1.9,2.1C16.6,349.4,15.9,348.7,15.3,348z"/>
<path class="st4" d="M329.6,106.1c0.6-0.4,1.2-0.8,1.8-1.2C330.8,105.3,330.2,105.7,329.6,106.1z"/>
<path class="st4" d="M387,70.4c0.6-0.4,1.1-0.8,1.7-1.2C388.2,69.6,387.6,70,387,70.4z"/>
<path class="st4" d="M391.6,67.5c0.1-0.4,0.2-0.8,0.3-1.2c0.4,0.2,0.9,0.4,1.3,0.5C392.7,67,392.2,67.3,391.6,67.5z"/>
<path class="st4" d="M399.2,62.8c0.6-0.4,1.1-0.8,1.7-1.2C400.3,62,399.7,62.4,399.2,62.8z"/>
<path class="st4" d="M403.8,59.9c0.6-0.4,1.1-0.8,1.7-1.2C404.9,59.2,404.4,59.5,403.8,59.9z"/>
<path class="st4" d="M408.4,57c0.6-0.4,1.1-0.8,1.7-1.2C409.6,56.3,409,56.7,408.4,57z"/>
<path class="st4" d="M322.1,110.7c0.6-0.4,1.2-0.8,1.8-1.2C323.3,109.9,322.7,110.3,322.1,110.7z"/>
<path class="st3" d="M482.3,10.1c0.4-0.4,0.8-0.8,1.2-1.2C483.2,9.3,482.7,9.7,482.3,10.1z"/>
<path class="st19" d="M186.5,491.6c0.4,0.3,0.9,0.6,1.3,0.9C187.3,492.2,186.9,491.9,186.5,491.6z"/>
<path class="st19" d="M185.4,490.8c0.3,0.3,0.6,0.5,0.9,0.8C186,491.3,185.7,491,185.4,490.8z"/>
<path class="st4" d="M325.6,108.5c0.4-0.2,0.8-0.5,1.2-0.7C326.4,108,326,108.3,325.6,108.5z"/>
<path class="st4" d="M326.7,107.8c0.4-0.2,0.8-0.4,1.2-0.6C327.5,107.4,327.1,107.6,326.7,107.8z"/>
<path class="st3" d="M483.5,8.9c0.3-0.2,0.7-0.5,1-0.7C484.2,8.5,483.8,8.7,483.5,8.9z"/>
<path class="st17" d="M191.4,35.5c0,0.4,0,0.8,0.1,1.1C191.5,36.2,191.4,35.8,191.4,35.5z"/>
<path class="st8" d="M14.5,347.2c0.3,0.3,0.5,0.5,0.8,0.8C15.1,347.7,14.8,347.4,14.5,347.2z"/>
<path class="st17" d="M192.6,49.3c0.1,0.5,0.2,1,0.3,1.5C192.8,50.4,192.7,49.8,192.6,49.3z"/>
<path class="st17" d="M191.7,32.7c-0.1,0.3-0.2,0.6-0.3,1C191.5,33.4,191.6,33.1,191.7,32.7z"/>
<path class="st18" d="M456.3,9.4c-0.2,0-0.4,0.1-0.6,0.1C455.9,9.5,456.1,9.5,456.3,9.4z"/>
<path class="st4" d="M329,106.6c0.2-0.2,0.4-0.4,0.7-0.6C329.4,106.2,329.2,106.4,329,106.6z"/>
<path class="st13" d="M320.6,303.5c0.3,0.2,0.5,0.4,0.8,0.5C321.2,303.9,320.9,303.7,320.6,303.5z"/>
<path class="st4" d="M327.9,107.2c0.2-0.2,0.5-0.4,0.7-0.6C328.3,106.8,328.1,107,327.9,107.2z"/>
<path class="st4" d="M324.4,109.5c0.2-0.2,0.5-0.3,0.7-0.5C324.8,109.1,324.6,109.3,324.4,109.5z"/>
<path class="st12" d="M186,229.3c0.3,0.2,0.5,0.5,0.8,0.7C186.6,229.7,186.3,229.5,186,229.3z"/>
<path class="st19" d="M187.7,492.5c0.2,0.2,0.5,0.4,0.7,0.5C188.2,492.9,188,492.7,187.7,492.5z"/>
<path class="st19" d="M189.3,493.7c0.3,0.2,0.5,0.4,0.8,0.6C189.9,494.1,189.6,493.9,189.3,493.7z"/>
<linearGradient id="SVGID_00000047767437237115673390000005730483521294630049_" gradientUnits="userSpaceOnUse" x1="83.1022" y1="346.7625" x2="83.1022" y2="102.5649">
	<stop  offset="0" style="stop-color:#9E298F"/>
	<stop  offset="1" style="stop-color:#AE339F"/>
</linearGradient>
<path style="fill:url(#SVGID_00000047767437237115673390000005730483521294630049_);" d="M152,102.6c-0.2,0.3-0.5,0.6-0.7,0.9
	c-6.1,10.9-12.2,21.8-18.4,32.6c-10.5,18.5-20.9,36.9-31.4,55.3c-9.3,16.4-18.7,32.8-28.1,49.3c-1.3,2.3-2.4,4.7-3.6,7.1
	c-3.1,5.3-6.2,10.6-9.2,15.9c-6,10.5-12,21-17.9,31.6c-5,8.8-10,17.7-15,26.5c-3.8,6.6-7.7,13.2-11.6,19.8c-0.2,0.6-0.4,1.1-0.6,1.7
	c-0.2,0.2-0.4,0.4-0.6,0.6c-0.2,0.2-0.3,0.4-0.5,0.6c-0.1,0.8-0.1,1.6-0.2,2.4c0.6-0.4,1.2-1,1.9-1.2c13.8-4.1,27.6-8.1,41.4-12.1
	c17.8-5.2,35.5-10.4,53.3-15.6c8.3-2.4,16.6-4.7,24.9-7.1c0.2-1.7,0.4-3.4,0.6-5.1c0.4-3.7,0.8-7.3,1.1-11c-1.1,0.2-2.1,0.3-3.1,0.3
	c1,0,2-0.2,3.1-0.3c0.8-10,1.6-20,2.3-29.9c0.3-4.3,0.3-8.6,0.7-12.9c0.5-5.8,1.1-11.6,1.7-17.3c0,0,0,0,0,0
	c0.6-6.4,1.2-12.7,1.7-19.1c0.2-4.9,0.4-9.8,0.7-14.7c0.3-4.5,0.7-9,1.1-13.4c0.1-1.4,0.4-2.8,0.6-4.2c0.8-10.6,1.5-21.1,2.3-31.7
	c0.4-6.1,0.7-12.2,1.2-18.3c0.7-8.3,1.5-16.6,2.2-24.8C152.1,106.2,152,104.4,152,102.6z"/>
<path class="st19" d="M191.3,463.5c1.1-2.6,1.6-2.8,2.9-1.1C193.3,462.8,192.3,463.2,191.3,463.5z"/>
<path class="st19" d="M195.4,462.3c0.6-0.4,1.2-0.7,1.8-1.1C196.6,461.6,196,462,195.4,462.3z"/>
<linearGradient id="SVGID_00000168105854005570092670000010523100421655305128_" gradientUnits="userSpaceOnUse" x1="141.008" y1="490.8179" x2="141.008" y2="310.7224">
	<stop  offset="0" style="stop-color:#481053"/>
	<stop  offset="1" style="stop-color:#60176D"/>
</linearGradient>
<path style="fill:url(#SVGID_00000168105854005570092670000010523100421655305128_);" d="M266,395.1c-8.8-5.6-17.6-11.1-26.4-16.7
	c-0.6-0.4-1.3-0.8-2-1.2c-3.7,0.7-3.7,0.7,0,0c-9.6-6.4-19.3-12.7-28.9-19.1c-1.1,1.6-1.1,1.6,0,0c-4.8-3.1-9.6-6.3-14.3-9.4
	c-8.2-5.5-16.3-11-24.5-16.5c-1.4-0.8-2.9-1.4-4.2-2.3c-9.5-6.1-18.9-12.3-28.3-18.5c-0.5-0.3-1-0.5-1.5-0.7
	c-8.3,2.4-16.6,4.7-24.9,7.1c-17.8,5.2-35.5,10.4-53.3,15.6c-13.8,4-27.6,8.1-41.4,12.1c-0.7,0.2-1.3,0.8-1.9,1.2
	c0,0.2,0.1,0.3,0.3,0.4c0.3,0.3,0.5,0.5,0.8,0.8c0.6,0.7,1.3,1.4,1.9,2.1c0,0,0,0,0,0c1.9,1.2,3.8,2.4,5.7,3.6
	c0-0.1,0.1-0.3,0.1-0.4c-0.1,0.1-0.1,0.2-0.1,0.4c3.1,2.7,6.2,5.4,9.3,8c4.2,3.7,8.5,7.3,12.7,11c2.7,2.1,5.4,4.2,8.1,6.3
	c5.2,4.5,10.4,8.9,15.6,13.4c4.6,3.8,9.3,7.7,13.9,11.5c1.4,1,2.7,1.9,4.1,2.9c3.3,2.9,6.5,5.8,9.8,8.7c0.4,0.4,0.8,0.8,1.2,1.2
	c5,4.2,10,8.3,15,12.5c1.8,1.5,3.8,3,5.6,4.5c2.4,2,2.3,3.1-0.4,4.8c-0.6,0.4-1.2,0.9-1.8,1.4c5.5,4.1,11.1,8.2,16.6,12.2
	c10.9,8.1,21.7,16.2,32.6,24.2c6.7,4.9,13.4,9.7,20.1,14.6c-0.6-0.8-1-1.8-1.7-2.4c-7.2-6.1-14.4-12.1-21.9-18.3
	c5.6-1.4,10.7-2.8,15.9-4c2.7-0.6,5.4-0.8,8.2-1.2c1.7-0.3,3.3-0.8,4.9-1.2c0.2,0,0.4,0,0.5-0.1c1.1-2.6,1.6-2.8,2.9-1.1
	c0.4,0,0.8-0.1,1.1-0.1c0.6-0.4,1.2-0.7,1.8-1.1c0.7-0.1,1.4,0,2-0.2c10-3.4,20-6.8,29.9-10.4c1.6-0.6,3.4-1.6,4.3-3
	c7.5-10.8,14.8-21.8,22.1-32.7c0,0,0,0,0,0c0.6-0.9,1.1-1.8,1.7-2.6c3.5-5,7.1-9.9,10.6-14.8C267.2,396.6,266.6,395.9,266,395.1z"/>
<path class="st0" d="M15.5,343.2c-0.2,0.2-0.4,0.4-0.6,0.6C15.1,343.6,15.3,343.4,15.5,343.2z"/>
<path class="st22" d="M215.6,43.6c7.1,5.8,14.2,11.7,21.3,17.6c0.5,0.4,0.9,1,1.3,1.5c-7.5,1.9-14.9,3.9-22.4,5.7
	c-3.3,0.8-6.7,1.6-10,2.3c1.3-4.1,2.6-8.1,3.9-12.2c1.6-5.2,3.2-10.4,4.8-15.6C214.9,43.1,215.2,43.4,215.6,43.6z"/>
<path class="st8" d="M214.5,42.9c-1.6,5.2-3.2,10.4-4.8,15.6c-1.3,4.1-2.6,8.1-3.9,12.2c-1.2,0.2-2.3,0.4-3.5,0.7
	c0.6-9.6,1.1-19.3,1.7-28.9c0.2-4,0.4-8,0.6-12.1c0.2-4.3,0.4-8.6,0.6-12.9c1.1,2.7,2.4,5.4,3.4,8.1
	C210.7,31.3,212.5,37.1,214.5,42.9z"/>
<path class="st18" d="M457.5,10.1c-0.2,0.2-0.4,0.3-0.7,0.5C457.1,10.4,457.3,10.2,457.5,10.1z"/>
<path class="st23" d="M333,231c2.3,4.5,4.6,9,6.9,13.5c0.3,0.5,0.5,1,0.7,1.5c-0.6-0.1-1.2,0.1-1.7-0.2c-5.7-3.3-11.4-6.7-17.1-10.1
	c-11.9-7-23.9-13.9-35.7-20.9c-7.9-4.7-15.8-9.5-23.6-14.3c-7.1-4.3-14.2-8.7-21.4-13c11.2-6.7,22.4-13.3,33.6-20
	c5.8-3.5,11.6-7.1,17.3-10.7c0.2,0,0.3,0,0.5,0c0.6,1.6,1.1,3.3,1.9,4.8c3.7,6.7,7.5,13.4,11.2,20.1c7.2,13.1,14.3,26.3,21.5,39.4
	C328.9,224.5,331,227.7,333,231z"/>
<path class="st12" d="M241.1,187.6c7.1,4.3,14.2,8.7,21.4,13c7.9,4.8,15.7,9.6,23.6,14.3c11.9,7,23.8,13.9,35.7,20.9
	c5.7,3.3,11.4,6.7,17.1,10.1c0.4,0.3,1.1,0.1,1.7,0.2c0.2,0.5,0.4,1.1,0.6,1.6c-1.3,0.2-2.6,0.5-4,0.7c-9.3,1.4-18.6,2.7-27.9,4
	l-0.3,0c0,0-0.3,0-0.3,0c-1.2-0.6-2.3-1.1-3.5-1.7c-19.1-8.2-38.2-16.3-57.3-24.5c-5-2.1-10-4.3-15.1-6.4c-1.2-0.7-2.4-1.5-3.7-2.1
	c-7-3.1-14.1-6.2-21.2-9.3c0.5-0.7,0.9-1.7,1.6-2.2c3.7-2.3,7.5-4.5,11.1-6.8c6.2-3.9,12.3-7.9,18.5-11.9
	C239.9,187.6,240.5,187.6,241.1,187.6z"/>
<path class="st7" d="M333,231c-2-3.3-4.1-6.5-5.9-9.8c-7.2-13.1-14.3-26.3-21.5-39.4c-3.7-6.7-7.5-13.4-11.2-20.1
	c-0.8-1.5-1.3-3.2-1.9-4.8c3.6-1.7,7.1-3.5,10.7-5.2c3.9,5.4,7.9,10.8,11.8,16.3c6.6,9.1,13.1,18.1,19.6,27.2
	c2.3,3.2,4.4,6.5,6.6,9.7c-0.6,0.4-1.6,0.6-1.7,1.1c-1.6,7.4-3.1,14.8-4.8,22.1C334.5,229.2,333.6,230.1,333,231z"/>
<path class="st24" d="M309.3,252.4c9.3-1.3,18.6-2.7,27.9-4c1.3-0.2,2.6-0.5,4-0.7c0.2,0.1,0.3,0.1,0.5,0.2
	c1.6,11.4,3.2,22.8,4.9,34.1c0,0.3,0,0.7,0,1c-0.2,0-0.5,0.1-0.7,0.1c-0.4-0.2-0.8-0.4-1.2-0.6c-0.7-1-1.3-2.1-2.2-2.9
	c-7.2-6-14.4-12-21.7-17.9c-3.7-3-7.5-5.8-11.3-8.8C309.4,252.8,309.3,252.6,309.3,252.4z"/>
<path class="st5" d="M346.5,282c-1.6-11.4-3.2-22.8-4.9-34.1c6.5,2.9,13.1,5.7,19.6,8.6c1.4,0.6,2.8,1.5,4.1,2.3
	c-3.7,4.6-7.3,9.3-11,13.9c-2.1,2.6-4,5.3-6.1,8C347.9,281.2,347.1,281.5,346.5,282z"/>
<path class="st7" d="M345.2,210.1c2.3,1.8,4.7,3.4,7,5.3c2.7,2.2,5.4,4.5,8,6.8c0.2,2.3,0.1,4.7,0.7,6.9c1.8,7.1,4,14.2,5.8,21.3
	c0.2,0.9-0.5,2-0.9,3.2c-3.9-2.1-4.6-5.8-6.1-8.9c-4.2-9.2-8.3-18.5-12.3-27.8C346.5,214.7,345.9,212.4,345.2,210.1z"/>
<path class="st3" d="M236.4,351.3c-2.8-3.8-5.6-7.5-8.3-11.3c-13.3-18.7-26.5-37.4-39.7-56.1c-2-2.8-3.8-5.6-5.7-8.4
	c0.2-0.2,0.4-0.3,0.6-0.5c1.8,1.9,3.6,3.7,5.3,5.7c3.9,4.4,7.7,8.8,11.5,13.2c7.4,8.4,14.9,16.8,22.3,25.2
	c5.2,5.8,10.4,11.6,15.5,17.4c0.7,0.8,1.3,1.8,1.9,2.8c-1,3.6-1.9,7.3-2.9,10.9C236.9,350.5,236.6,350.9,236.4,351.3z"/>
<path class="st7" d="M246.8,368.1c-0.2-0.4-0.4-0.8-0.6-1.2C246.4,367.3,246.6,367.7,246.8,368.1z"/>
<path class="st8" d="M197.1,188.7c4.4-2.9,8.9-5.8,13.3-8.7c0.8-0.4,1.5-0.8,2.3-1.2c0,0,0,0,0,0c0.6-0.4,1.2-0.8,1.7-1.1
	c0,0,0,0,0,0c0.4-0.4,0.8-0.8,1.2-1.1c0,0,0,0,0,0c0.6-0.4,1.2-0.8,1.7-1.2c0.4-0.2,0.7-0.4,1.1-0.6c0.4,0,0.8,0,1.2,0
	c3.5,2.2,6.9,4.4,10.3,6.6c3.1,2,6.2,4.1,9.3,6.1c-6.2,4-12.3,7.9-18.5,11.9c-3.7,2.3-7.5,4.5-11.1,6.8c-0.7,0.5-1.1,1.5-1.6,2.2
	c-0.7-0.2-1.5-0.3-2.2-0.5c-0.2-0.4-0.5-0.8-0.7-1.3c-1.7-4.2-3.3-8.4-5.1-12.5C199.2,192.3,198.1,190.5,197.1,188.7z"/>
<linearGradient id="SVGID_00000139980297734185396000000010553937470870582441_" gradientUnits="userSpaceOnUse" x1="203.4324" y1="238.5941" x2="308.785" y2="238.5941">
	<stop  offset="0" style="stop-color:#681959"/>
	<stop  offset="1" style="stop-color:#541560"/>
</linearGradient>
<path style="fill:url(#SVGID_00000139980297734185396000000010553937470870582441_);" d="M207.7,230.4c-1.4,4.6-2.9,9.2-4.3,13.8
	c5,1.7,10.1,3.5,15.1,5.2c5.8,2,11.5,4,17.3,6c5.8,2,11.6,4.1,17.4,6.1c5.2,1.8,10.4,3.6,15.6,5.5c1.9,0.7,3.8,1.5,5.7,2.2
	c0.9-0.7,1.7-1.5,2.7-2c10.5-5,21-10,31.5-14.9c-1.2-0.6-2.3-1.1-3.5-1.7c0,0,0,0,0,0c-19.1-8.2-38.2-16.3-57.3-24.5c0,0,0,0,0,0
	c-5-2.1-10-4.3-15.1-6.4c0,0.1,0,0.2,0,0.3c0-0.1,0-0.2,0-0.3c-1.2-0.7-2.4-1.5-3.7-2.1c-7-3.1-14.1-6.2-21.2-9.3
	c-0.7-0.2-1.5-0.3-2.2-0.5c0,0.3,0,0.7,0,1c0.1,0.2,0.2,0.5,0.4,0.7C206.7,216.5,207.2,223.4,207.7,230.4 M233.1,221
	c0,0.2,0.1,0.4,0.2,0.5C233.2,221.4,233.1,221.2,233.1,221z"/>
<path class="st26" d="M202.8,141.3c-3.5,9.8-6.9,19.7-10.4,29.5c-3.1,8.7-6.1,17.3-9.2,26c0,0.2,0,0.4,0,0.6c0,0.2,0,0.3,0,0.5
	c-0.2,0.2-0.4,0.4-0.6,0.6c-0.4,0.4-0.9,0.7-1.2,1.2c-6.2,10.7-12.4,21.4-18.7,32c-0.4,0.7-1.4,1-2.1,1.5
	c4.8-10.7,9.5-21.4,14.3-32.1c0.9-2,1.7-4,2.5-6c2.1-4.2,4.3-8.3,6.2-12.5c6.1-13.5,12.1-27,18.1-40.4
	C202,141.8,202.5,141.6,202.8,141.3z"/>
<path class="st22" d="M197.1,188.7c1,1.8,2.2,3.6,3,5.4c1.8,4.1,3.4,8.3,5.1,12.5c-4-2.8-8-5.6-12.1-8.3c-1.9-1.2-3.9-2.2-5.9-3.3
	C190.5,192.9,193.8,190.8,197.1,188.7z"/>
<path class="st8" d="M205.9,208.9c0.1,0.2,0.2,0.5,0.4,0.7C206.1,209.4,206,209.1,205.9,208.9z"/>
<path class="st12" d="M183.3,197.5c0-0.2,0-0.4,0-0.6c0.2,0,0.4,0,0.6,0C183.6,197.1,183.4,197.3,183.3,197.5z"/>
<path class="st18" d="M303.2,151.7c-3.6,1.7-7.1,3.5-10.7,5.2c-0.2,0-0.3,0-0.5,0c-1.6-2.9-3.2-5.9-4.7-8.8c-2-3.8-3.8-7.6-5.8-11.4
	c2.5-1.5,5-3,7.6-4.5C293.8,138.6,298.5,145.2,303.2,151.7z"/>
<path class="st4" d="M160.7,233.3c0.7-0.5,1.7-0.8,2.1-1.5c6.3-10.6,12.4-21.3,18.7-32c0.3-0.5,0.8-0.8,1.2-1.2
	c-0.7,7.9-1.5,15.8-2.2,23.7c-0.4,5-0.9,9.9-1.3,14.9c-0.8,8.9-1.5,17.7-2.3,26.6c-0.1,1.1-0.1,2.1-0.1,3.2
	c-5.3-5.4-10.5-10.8-15.8-16.1c-0.6-0.6-1.4-0.8-2.1-1.2c-3.5-3.2-3.6-3.9-1.7-8C158.4,238.8,159.5,236,160.7,233.3z"/>
<path class="st3" d="M181.2,273c0,0.1,0.1,0.2,0.1,0.2c0,0.1-0.1,0.1-0.2,0.2C181.2,273.3,181.2,273.1,181.2,273z"/>
<path class="st19" d="M309.4,253c3.8,2.9,7.6,5.8,11.3,8.8c7.3,5.9,14.5,11.9,21.7,17.9c0.9,0.8,1.5,1.9,2.2,2.9
	c-11-0.4-22-0.8-33-1.2c-0.2-0.2-0.3-0.4-0.5-0.5C310.6,271.5,310,262.2,309.4,253z"/>
<path class="st3" d="M370,77.1c0.8-0.6,1.6-1.2,2.3-1.7C371.6,75.9,370.8,76.5,370,77.1z"/>
<path class="st5" d="M478.2,6c0.4-0.2,0.8-0.4,1.2-0.6C479,5.6,478.6,5.8,478.2,6z"/>
<path class="st5" d="M479.4,5.4c0.2,0,0.4,0,0.6,0C479.8,5.4,479.6,5.4,479.4,5.4z"/>
<linearGradient id="SVGID_00000026132655837450024580000001474163276840091047_" gradientUnits="userSpaceOnUse" x1="183.2163" y1="101.4307" x2="478.2631" y2="101.4307">
	<stop  offset="0" style="stop-color:#652D6A"/>
	<stop  offset="1" style="stop-color:#813F86"/>
</linearGradient>
<path style="fill:url(#SVGID_00000026132655837450024580000001474163276840091047_);" d="M473.7,7.5c-14.9,6.9-29.7,13.8-44.6,20.7
	c-3,1.4-6.2,2.6-9.2,3.8c-0.4,0.4-0.8,0.8-1.3,1.1c-7.3,3.4-14.6,6.8-21.9,10.2c-9.1,4.2-18.3,8.4-27.4,12.6
	c-5.9,2.7-11.7,5.6-17.6,8.5c0,0,0,0,0,0c-3.3,1.5-6.7,2.9-10,4.4c-9.2,4.2-18.3,8.4-27.5,12.6c-5.5,2.5-10.9,5.2-16.3,7.8
	c-8.7,3.9-17.3,7.7-26,11.6c-7.9,3.7-15.7,7.5-23.6,11.2c-0.9,0.4-1.6,1-2.4,1.5l0,0c-7.5,3.4-15,6.7-22.5,10.2
	c-4.9,2.2-9.8,4.5-14.5,7c-1.2,0.6-2.3,2-2.9,3.2c-1.2,2.4-2,4.9-2.9,7.4c-3.5,9.8-6.9,19.7-10.4,29.5c-3.1,8.7-6.1,17.3-9.2,26
	c0.2,0,0.4,0,0.6,0c1.1-0.6,2.3-1.2,3.4-1.8c3.3-2.1,6.6-4.2,9.9-6.3c4.4-2.9,8.9-5.8,13.3-8.7c0.8-0.4,1.5-0.8,2.3-1.2l0,0
	c0.6-0.4,1.2-0.8,1.7-1.1l0,0c0.4-0.4,0.8-0.7,1.2-1.1l0,0c0.6-0.4,1.2-0.8,1.7-1.2c0.4-0.2,0.7-0.4,1.1-0.6
	c1.4-0.8,2.7-1.5,4.1-2.3l0,0c2.3-1.5,4.6-3.1,6.9-4.6l0,0c1-0.4,2-0.8,3-1.2c0.2-0.2,0.3-0.3,0.5-0.5c-0.1-0.2-0.1-0.3-0.2-0.5
	c0.3,0.1,0.6,0.3,0.9,0.4c0.3-0.4,0.7-0.7,1-1.1c0.3-0.6,0.5-1.4,1-1.7c6.6-4.5,13.2-9,19.9-13.4c0.6-0.7,1-1.5,1.1-2.2
	c-0.2,0.7-0.5,1.5-1.1,2.2c2.1-1.2,4.1-2.4,6.2-3.5c1.1-0.6,2.4-1.1,3.5-1.7c0.4-0.4,0.7-0.9,1.1-1.2c7.4-4.8,14.8-9.6,22.1-14.4
	c4.9-3.2,9.7-6.5,14.5-9.7c5.6-3.5,11.2-6.9,16.7-10.4c0.6-0.4,1.3-0.9,1.9-1.3c11.1-7.3,22.3-14.6,33.4-21.9c2.3-1.5,4.6-3,7-4.4
	c2.6-1.5,5.3-3,7.9-4.4c0,0,0,0,0,0c0.8-0.6,1.6-1.2,2.3-1.7c0.5-0.5,1-1.2,1.7-1.6c16.2-10.5,32.5-20.9,48.7-31.4
	c14.5-9.4,29-18.8,43.5-28.2c4.1-2.7,8.1-5.5,12.1-8.2C476.7,6.5,475.1,6.8,473.7,7.5z"/>
<path class="st10" d="M281.5,136.6c1.9,3.8,3.8,7.6,5.8,11.4c1.5,3,3.1,5.9,4.7,8.8c-5.8,3.6-11.5,7.2-17.3,10.7
	c-11.2,6.7-22.4,13.3-33.6,20c-0.6,0-1.2,0-1.7,0c-3.1-2-6.2-4.1-9.3-6.1c-3.4-2.2-6.9-4.4-10.4-6.6c1-0.8,1.9-1.6,2.9-2.3
	c0,0,0,0,0,0c2.3-1.5,4.6-3.1,6.9-4.6c0,0,0,0,0,0c1-0.4,2-0.8,3-1.2c0.2-0.2,0.3-0.3,0.5-0.5c0.2,0,0.5-0.1,0.7-0.1
	c0.3-0.4,0.7-0.7,1-1.1c0.4-0.1,0.8-0.1,1.1-0.3c9.8-6.1,19.6-12.1,29.4-18.2c0.4-0.3,0.6-1.1,0.8-1.7c4-2.3,8.1-4.6,12.1-6.8
	C279.2,137.5,280.4,137.1,281.5,136.6z"/>
<path class="st12" d="M266,144.9c-0.3,0.6-0.4,1.4-0.8,1.7c-9.8,6.1-19.6,12.2-29.4,18.2c-0.3,0.2-0.7,0.2-1.1,0.3
	c0.3-0.6,0.5-1.4,1-1.7c6.6-4.5,13.2-9,19.9-13.4c2.1-1.2,4.1-2.4,6.2-3.5c1.1-0.6,2.4-1.1,3.5-1.7
	C265.5,144.8,265.8,144.8,266,144.9z"/>
<linearGradient id="SVGID_00000032611045371250245850000008966269020262739597_" gradientUnits="userSpaceOnUse" x1="309.3105" y1="395.1161" x2="309.3105" y2="2.8834">
	<stop  offset="0" style="stop-color:#853390"/>
	<stop  offset="1" style="stop-color:#813F86"/>
</linearGradient>
<path style="fill:url(#SVGID_00000032611045371250245850000008966269020262739597_);" d="M466.6,7.2c-2.7,0.9-5.4,1.9-8.1,2.8
	c-0.4,0-0.7,0.1-1.1,0.1c-0.2,0.2-0.4,0.3-0.7,0.5c-13.3,4-26.6,8.1-39.9,12.1c0.1,1.8,0.2,3.7,0.4,5.5c-0.2-1.8-0.3-3.7-0.4-5.5
	c-0.7,0.1-1.3,0.2-2,0.4c-20,6-40.1,11.9-60.1,17.9c-25.4,7.6-50.8,15.2-76.2,22.8c-4.8,1.4-9.6,2.7-14.4,4c-1,0.4-1.9,0.8-2.9,1.1
	c-6.2,2-12.3,3.9-18.5,5.9c-0.6,0-1.2,0-1.7,0.2c-8.6,2.5-17.2,5.1-25.8,7.7c-21.1,6.2-42.2,12.5-63.3,18.7c0,0.4,0,0.8,0,1.1
	c0,1.8,0.1,3.7-0.1,5.5c-0.7,8.3-1.5,16.6-2.2,24.8c-0.5,6.1-0.8,12.2-1.2,18.3c-0.7,10.6-1.5,21.1-2.3,31.7
	c-0.2,1.4-0.4,2.8-0.6,4.2c-0.4,4.5-0.8,8.9-1.1,13.4c-0.3,4.9-0.4,9.8-0.7,14.7c-0.6,6.4-1.2,12.7-1.7,19.1
	c-0.6,5.8-1.2,11.5-1.7,17.3c-0.3,4.3-0.4,8.6-0.7,12.9c-0.7,10-1.5,20-2.3,29.9c-0.4,3.7-0.8,7.3-1.1,11c-0.2,1.7-0.4,3.4-0.6,5.1
	c0.5,0.2,1.1,0.4,1.5,0.7c9.4,6.1,18.9,12.3,28.3,18.5c1.3,0.9,2.8,1.5,4.2,2.3c8.2,5.5,16.3,11,24.5,16.5c4.8,3.2,9.6,6.3,14.3,9.4
	c9.6,6.4,19.3,12.7,28.9,19.1c0.7,0.4,1.3,0.7,2,1.2c8.8,5.5,17.6,11.1,26.4,16.7c-0.9-1.5-1.6-3-2.6-4.4
	c-5.5-7.6-11.1-15.1-16.6-22.7c-0.2-0.4-0.4-0.8-0.6-1.2c0,0,0,0,0,0c-0.8-0.9-1.7-1.8-2.5-2.8c-6.5-8.7-13.1-17.3-19.6-26
	c-2.7-3.7-5.4-7.4-8.1-11.2c-7.9-10.7-15.8-21.5-23.8-32.2c-5.1-6.8-10.3-13.6-15.4-20.4c-2.6-3.7-5.2-7.3-7.9-11
	c-3.4-4.6-6.8-9.2-10.1-13.9c-3.5-3.2-3.6-3.9-1.7-8c1.2-2.7,2.4-5.4,3.5-8.2c4.8-10.7,9.5-21.4,14.3-32.1c0.9-2,1.7-4,2.5-6
	c2.1-4.2,4.3-8.3,6.2-12.5c6.1-13.5,12.1-27,18.1-40.4c0.2-0.4,0.7-0.5,1-0.8c1-2.5,1.8-5,2.9-7.4c0.6-1.3,1.7-2.6,2.9-3.2
	c4.8-2.5,9.6-4.7,14.5-7c7.5-3.4,15-6.8,22.5-10.2c0.8-0.5,1.6-1.1,2.4-1.5c7.9-3.8,15.7-7.5,23.6-11.2h0c8.7-3.9,17.3-7.7,26-11.6
	c5.4-2.6,10.9-5.3,16.3-7.8c9.1-4.2,18.3-8.4,27.5-12.6c3.3-1.5,6.6-3,10-4.4c5.9-2.8,11.7-5.7,17.6-8.5c9.1-4.3,18.3-8.4,27.4-12.6
	c7.3-3.4,14.6-6.8,21.9-10.2c0.5-0.2,0.9-0.7,1.3-1.1c0,0,0,0,0,0c3.1-1.3,6.2-2.4,9.2-3.8c14.9-6.9,29.7-13.8,44.6-20.7
	c1.5-0.7,3.1-1,4.6-1.5c0,0,0,0,0,0c0.4-0.2,0.8-0.4,1.2-0.6c0,0,0,0,0,0c0.2,0,0.4,0,0.6,0c1-0.8,1.9-1.7,2.9-2.5
	C477.4,4.3,472,5.7,466.6,7.2z"/>
<path class="st5" d="M229.5,167.9c-2.3,1.5-4.6,3.1-6.9,4.6C224.9,171,227.2,169.4,229.5,167.9z"/>
<path class="st5" d="M222.5,172.5c-1,0.8-1.9,1.6-2.9,2.3c-0.4,0-0.8,0-1.2,0C219.8,174.1,221.2,173.3,222.5,172.5z"/>
<path class="st12" d="M232.5,166.7c-1,0.4-2,0.8-3,1.2C230.5,167.5,231.5,167.1,232.5,166.7z"/>
<path class="st5" d="M212.7,178.9c-0.8,0.4-1.5,0.8-2.3,1.2C211.2,179.7,211.9,179.3,212.7,178.9z"/>
<path class="st5" d="M217.4,175.4c-0.6,0.4-1.2,0.8-1.7,1.2C216.2,176.2,216.8,175.8,217.4,175.4z"/>
<path class="st5" d="M214.4,177.7c-0.6,0.4-1.2,0.8-1.7,1.1C213.3,178.5,213.9,178.1,214.4,177.7z"/>
<path class="st5" d="M215.6,176.6c-0.4,0.4-0.8,0.8-1.2,1.1C214.8,177.3,215.2,177,215.6,176.6z"/>
<path class="st12" d="M233.6,166.2c-0.2,0-0.5,0.1-0.7,0.1c-0.1-0.2-0.1-0.3-0.2-0.5C233,165.9,233.3,166,233.6,166.2z"/>
</svg>
