<?xml version="1.0" encoding="utf-8"?>
<!-- Generator: Adobe Illustrator 28.2.0, SVG Export Plug-In . SVG Version: 6.00 Build 0)  -->
<svg version="1.1" id="Layer_1" xmlns="http://www.w3.org/2000/svg" xmlns:xlink="http://www.w3.org/1999/xlink" x="0px" y="0px"
	 viewBox="0 0 500 500" style="enable-background:new 0 0 500 500;" xml:space="preserve">
<style type="text/css">
	.st0{fill:#111111;stroke:#111111;stroke-width:7.0536;}
	.st1{fill:url(#SVGID_1_);fill-opacity:0.7;}
	.st2{fill:none;stroke:url(#SVGID_00000129201882098028520780000013633738301917071013_);stroke-width:7.1429;}
	.st3{fill-rule:evenodd;clip-rule:evenodd;fill:#FFFFFF;}
	.st4{fill:#FFFFFF;}
</style>
<path class="st0" d="M250,4.5L250,4.5c135.6,0,245.5,109.9,245.5,245.5v0c0,135.6-109.9,245.5-245.5,245.5h0
	C114.4,495.5,4.5,385.6,4.5,250v0C4.5,114.4,114.4,4.5,250,4.5z"/>
<radialGradient id="SVGID_1_" cx="1.0269" cy="501.1732" r="1.282" gradientTransform="matrix(2.517574e-14 411.151 289.409 -1.772119e-14 -144793.4844 -349.2051)" gradientUnits="userSpaceOnUse">
	<stop  offset="3.125000e-02" style="stop-color:#3A3A3A"/>
	<stop  offset="1" style="stop-color:#1C1C1C"/>
</radialGradient>
<path class="st1" d="M250,0L250,0C111.9,0,0,111.9,0,250v0c0,138.1,111.9,250,250,250h0c138.1,0,250-111.9,250-250v0
	C500,111.9,388.1,0,250,0z"/>
<linearGradient id="SVGID_00000104697057813745813960000016319956678106851501_" gradientUnits="userSpaceOnUse" x1="249.9999" y1="505.5685" x2="249.9999" y2="-1.5745" gradientTransform="matrix(1 0 0 -1 0 502)">
	<stop  offset="0" style="stop-color:#FFFFFF"/>
	<stop  offset="1" style="stop-color:#111111"/>
</linearGradient>
<path style="fill:none;stroke:url(#SVGID_00000104697057813745813960000016319956678106851501_);stroke-width:7.1429;" d="M250,0
	L250,0C111.9,0,0,111.9,0,250v0c0,138.1,111.9,250,250,250h0c138.1,0,250-111.9,250-250v0C500,111.9,388.1,0,250,0z"/>
<path class="st3" d="M210,44.3C113.5,62.9,40.5,147.8,40.5,249.8S113.5,436.7,210,455.3v-19.6c-85.9-18.3-150.3-94.6-150.3-185.9
	S124.1,82.2,210,63.9V44.3z M290,64V44.4C386.4,63.1,459.1,148,459.1,249.8S386.4,436.5,290,455.3v-19.6
	c85.7-18.4,149.9-94.6,149.9-185.8S375.7,82.4,290,64z"/>
<path class="st4" d="M279.6,242.8c16,3,28.4,8.9,37.2,17.6c8.8,8.5,13.2,19.3,13.2,32.6v20.9c0,15.9-5.7,28.7-17.2,38.5
	c-11.5,9.6-26.5,14.3-45.1,14.3h-6.4V400h-22.1v-33.3h-6.8c-12.3,0-23.1-2.7-32.6-8.2c-9.4-5.7-16.8-13.5-22.1-23.5
	c-5.1-10.2-7.7-22-7.7-35.2h22.1c0,13.5,3.7,24.5,11.1,32.9c7.6,8.3,17.5,12.4,29.8,12.4H267c12.1,0,21.8-2.8,29.2-8.5
	c7.4-5.9,11.1-13.5,11.1-22.8V293c0-7.4-2.8-13.7-8.3-18.9c-5.3-5.2-12.7-8.6-22.1-10.1l-55.3-9.8c-15.6-2.8-27.6-8.7-36.2-17.6
	c-8.6-8.9-12.9-20.1-12.9-33.6v-17.6c0-15.9,5.5-28.5,16.6-37.8c11.3-9.6,26.1-14.3,44.5-14.3h5.5V100h22.1v33.3h7.1
	c17.4,0,31.4,5.7,42.1,17c10.6,11.1,16,25.8,16,44h-22.1c0-12-3.3-21.5-9.8-28.7c-6.6-7.2-15.3-10.8-26.1-10.8h-34.7
	c-11.7,0-21,2.8-27.9,8.5c-7,5.4-10.4,12.8-10.4,22.2V203c0,7.6,2.6,14,7.7,19.2c5.3,5.2,12.6,8.7,21.8,10.4L279.6,242.8z"/>
</svg>
