<?xml version="1.0" encoding="utf-8"?>
<!-- Generator: Adobe Illustrator 28.2.0, SVG Export Plug-In . SVG Version: 6.00 Build 0)  -->
<svg version="1.1" id="Layer_1" xmlns="http://www.w3.org/2000/svg" xmlns:xlink="http://www.w3.org/1999/xlink" x="0px" y="0px"
	 viewBox="0 0 500 500" style="enable-background:new 0 0 500 500;" xml:space="preserve">
<style type="text/css">
	.st0{fill:#39394D;}
	.st1{fill:#08080A;}
	.st2{fill:url(#SVGID_1_);}
	.st3{fill:url(#SVGID_00000065053477690760272150000004490082385096641439_);}
	.st4{fill:url(#SVGID_00000066514959855802579970000011921026774745267647_);}
	.st5{fill:url(#SVGID_00000157299775535386849020000009180149232144054155_);}
</style>
<circle class="st0" cx="250" cy="250.5" r="250"/>
<circle class="st1" cx="250" cy="250.5" r="229.6"/>
<linearGradient id="SVGID_1_" gradientUnits="userSpaceOnUse" x1="115.9362" y1="167.0532" x2="278.196" y2="351.9063">
	<stop  offset="0" style="stop-color:#0DF3F4"/>
	<stop  offset="0.9993" style="stop-color:#D979D4"/>
</linearGradient>
<path class="st2" d="M119,285l53.6-167.2c0.8-2.5,4.4-1.9,4.4,0.7v231.1c0,2.1-2.7,3.1-4,1.5l-53.6-64
	C118.9,286.5,118.7,285.7,119,285z"/>
<linearGradient id="SVGID_00000026881874770318620590000002513250134373803190_" gradientUnits="userSpaceOnUse" x1="154.3056" y1="133.5595" x2="316.5655" y2="318.4125">
	<stop  offset="0" style="stop-color:#0DF3F4"/>
	<stop  offset="0.9993" style="stop-color:#D979D4"/>
</linearGradient>
<path style="fill:url(#SVGID_00000026881874770318620590000002513250134373803190_);" d="M210.9,326.6V104.2c0-0.1,0.1-0.2,0.2-0.1
	l91.9,68.2c1.7,1.3,2.7,3.2,2.7,5.3V312c0,3.2-2.3,6-5.5,6.5l-81.6,14.6C214.7,333.9,210.9,330.7,210.9,326.6z"/>
<linearGradient id="SVGID_00000157304417483046449410000012252753110299342208_" gradientUnits="userSpaceOnUse" x1="102.4976" y1="179.0354" x2="264.7575" y2="363.8885">
	<stop  offset="0" style="stop-color:#0DF3F4"/>
	<stop  offset="0.9993" style="stop-color:#D979D4"/>
</linearGradient>
<polygon style="fill:url(#SVGID_00000157304417483046449410000012252753110299342208_);" points="199,372.2 325.3,349.6 
	258.4,392.3 "/>
<linearGradient id="SVGID_00000090270091429456822920000002906256723960655749_" gradientUnits="userSpaceOnUse" x1="203.2514" y1="90.596" x2="365.5113" y2="275.449">
	<stop  offset="0" style="stop-color:#0DF3F4"/>
	<stop  offset="0.9993" style="stop-color:#D979D4"/>
</linearGradient>
<path style="fill:url(#SVGID_00000090270091429456822920000002906256723960655749_);" d="M341,312.3V204.2c0-1.2,1.3-1.8,2.3-1.1
	l46.3,34.6c0.6,0.4,0.7,1.3,0.4,1.9L343.6,313C342.9,314.3,341,313.7,341,312.3z"/>
</svg>
