<?xml version="1.0" encoding="UTF-8"?>
<svg width="568px" height="98px" viewBox="0 0 568 98" version="1.1" xmlns="http://www.w3.org/2000/svg" xmlns:xlink="http://www.w3.org/1999/xlink">
    <!-- Generator: Sketch 55.1 (78136) - https://sketchapp.com -->
    <title>Group 18</title>
    <desc>Created with Sketch.</desc>
    <defs>
        <path d="M49.986,0.564 L0.823,0.564 L0.823,5.232 C3.75,5.487 5.772,6.059 6.887,6.948 L6.887,6.948 C8.002,7.837 9.535,9.997 11.488,13.442 L11.488,13.442 C13.369,16.807 15.163,20.271 16.87,23.827 L16.87,23.827 C18.578,27.4 20.338,31.211 22.15,35.276 L22.15,35.276 L47.867,93.172 L47.878,93.24 L49.986,98 L65.684,62.807 L61.673,53.831 L61.579,53.777 C61.579,53.777 53.538,35.455 49.986,27.332 L49.986,27.332 C48.977,25.023 48.329,23.535 48.333,23.529 L48.333,23.529 C47.333,21.193 46.672,18.696 46.672,16.037 L46.672,16.037 C46.672,12.153 47.904,8.586 49.986,5.529 L49.986,5.529 C51.251,3.672 52.828,2.002 54.635,0.564 L54.635,0.564 L49.986,0.564 Z" id="path-1"></path>
        <linearGradient x1="0.000185165199%" y1="50.0002326%" x2="99.9987032%" y2="50.0002326%" id="linearGradient-3">
            <stop stop-color="#FEFEFE" offset="0%"></stop>
            <stop stop-color="#DEDEDF" offset="100%"></stop>
        </linearGradient>
        <path d="M11.231,1.506 C11.171,1.526 11.112,1.546 11.049,1.568 L11.049,1.568 C10.682,1.696 10.325,1.839 9.97,1.992 L9.97,1.992 C9.898,2.021 9.827,2.055 9.755,2.087 L9.755,2.087 C9.402,2.245 9.056,2.411 8.718,2.592 L8.718,2.592 C8.673,2.615 8.63,2.641 8.586,2.665 L8.586,2.665 C7.108,3.468 5.778,4.473 4.641,5.639 L4.641,5.639 C4.606,5.675 4.57,5.709 4.536,5.745 L4.536,5.745 C4.283,6.009 4.044,6.282 3.813,6.563 L3.813,6.563 C3.759,6.626 3.706,6.69 3.653,6.754 L3.653,6.754 C3.427,7.033 3.215,7.32 3.011,7.611 L3.011,7.611 C2.969,7.672 2.931,7.734 2.889,7.793 L2.889,7.793 C2.68,8.104 2.481,8.419 2.294,8.744 L2.294,8.744 C1.674,9.837 1.197,11.004 0.886,12.226 L0.886,12.226 L0.886,12.228 L0.885,12.228 C0.753,12.746 0.649,13.27 0.58,13.805 L0.58,13.805 C0.576,13.831 0.571,13.856 0.566,13.882 L0.566,13.882 C0.498,14.432 0.456,14.991 0.456,15.556 L0.456,15.556 C0.456,15.868 0.466,16.187 0.486,16.51 L0.486,16.51 C0.549,17.473 0.707,18.456 0.956,19.277 L0.956,19.277 L0.957,19.278 C0.964,19.301 0.968,19.328 0.976,19.351 L0.976,19.351 L2.014,21.879 L16.927,55.223 L26.81,33.121 L27.924,30.633 C29.003,28.277 30.065,26.003 31.103,23.827 L31.103,23.827 C32.811,20.271 34.605,16.807 36.487,13.442 L36.487,13.442 C38.437,9.997 39.972,7.837 41.087,6.948 L41.087,6.948 C42.202,6.059 44.224,5.487 47.15,5.232 L47.15,5.232 L47.15,0.564 L17.331,0.564 C17.196,0.562 17.062,0.545 16.927,0.545 L16.927,0.545 C14.928,0.545 13.012,0.895 11.231,1.506" id="path-4"></path>
        <linearGradient x1="49.9990391%" y1="0.000526902959%" x2="49.9990391%" y2="100.000013%" id="linearGradient-6">
            <stop stop-color="#9C9EA0" offset="0%"></stop>
            <stop stop-color="#48484A" offset="100%"></stop>
        </linearGradient>
        <path d="M28.263,0.333 L28.263,1.762 C30.279,1.893 31.615,2.099 32.271,2.376 L32.271,2.376 C32.931,2.653 33.257,3.342 33.257,4.45 L33.257,4.45 C33.257,4.907 33.142,5.508 32.914,6.252 L32.914,6.252 C32.781,6.709 32.628,7.157 32.458,7.598 L32.458,7.598 L24.838,27.287 L15.615,5.764 C15.483,5.461 15.391,5.181 15.344,4.921 L15.344,4.921 C15.297,4.664 15.272,4.384 15.272,4.079 L15.272,4.079 C15.272,3.124 15.582,2.53 16.199,2.29 L16.199,2.29 C16.819,2.053 18.174,1.875 20.27,1.762 L20.27,1.762 L20.27,0.333 L0.656,0.333 L0.656,1.762 C2.008,1.875 3.001,2.242 3.639,2.858 L3.639,2.858 C4.279,3.478 4.9,4.492 5.51,5.9 L5.51,5.9 L20.555,40.926 L22.097,40.926 L35.427,6.556 C36.092,4.862 36.781,3.678 37.497,3.002 L37.497,3.002 C38.21,2.326 39.281,1.914 40.707,1.762 L40.707,1.762 L40.707,0.333 L28.263,0.333 Z" id="path-7"></path>
        <linearGradient x1="50.0008082%" y1="1.92151357e-05%" x2="50.0008082%" y2="100.001547%" id="linearGradient-9">
            <stop stop-color="#FEFEFE" offset="0%"></stop>
            <stop stop-color="#DEDEDF" offset="100%"></stop>
        </linearGradient>
        <path d="M0.414,0.333 L0.414,1.819 C2.109,1.911 3.282,2.138 3.925,2.498 L3.925,2.498 C5.049,3.085 5.613,4.229 5.613,5.929 L5.613,5.929 L5.613,34.247 C5.613,35.921 5.068,37.063 3.984,37.671 L3.984,37.671 C3.282,38.072 2.09,38.299 0.414,38.359 L0.414,38.359 L0.414,39.842 L34.588,39.842 L36.958,27.682 L35.331,27.682 C33.502,31.657 31.409,34.37 29.049,35.815 L29.049,35.815 C26.684,37.262 23.642,37.986 19.911,37.986 L19.911,37.986 C17.932,37.986 16.625,37.762 15.99,37.316 L15.99,37.316 C15.349,36.868 15.03,36.028 15.03,34.789 L15.03,34.789 L15.03,20.63 C18.36,20.63 20.67,21.311 21.954,22.67 L21.954,22.67 C23.239,24.032 24.089,26.378 24.507,29.708 L24.507,29.708 L25.994,29.708 L25.994,9.954 L24.507,9.954 C23.882,13.266 22.974,15.544 21.797,16.79 L21.797,16.79 C20.617,18.035 18.36,18.641 15.03,18.604 L15.03,18.604 L15.03,5.073 C15.03,3.968 15.273,3.232 15.756,2.858 L15.756,2.858 C16.245,2.487 17.381,2.302 19.169,2.302 L19.169,2.302 C23.87,2.302 27.114,2.996 28.888,4.385 L28.888,4.385 C30.673,5.778 31.93,8.354 32.672,12.122 L32.672,12.122 L34.099,12.122 L34.099,0.333 L0.414,0.333 Z" id="path-10"></path>
        <linearGradient x1="49.9997622%" y1="0.000174137538%" x2="49.9997622%" y2="99.9984528%" id="linearGradient-12">
            <stop stop-color="#FEFEFE" offset="0%"></stop>
            <stop stop-color="#DEDEDF" offset="100%"></stop>
        </linearGradient>
        <path d="M25.583,0.333 L25.583,1.819 C26.932,1.875 27.886,1.99 28.44,2.161 L28.44,2.161 C29.39,2.465 29.868,3.035 29.868,3.874 L29.868,3.874 C29.868,4.556 29.541,5.413 28.894,6.44 L28.894,6.44 C28.247,7.471 26.297,10.099 23.036,14.337 L23.036,14.337 L17.448,5.9 C17.16,5.463 16.944,5.081 16.789,4.757 L16.789,4.757 C16.639,4.434 16.563,4.102 16.563,3.758 L16.563,3.758 C16.563,2.979 16.872,2.486 17.492,2.273 L17.492,2.273 C18.107,2.066 19.358,1.914 21.247,1.819 L21.247,1.819 L21.247,0.333 L1.003,0.333 L1.003,1.819 C1.975,1.875 2.785,2.146 3.433,2.63 L3.433,2.63 C4.075,3.115 4.829,3.977 5.685,5.213 L5.685,5.213 L16.955,22.235 L7.027,35.132 C6.152,36.253 5.195,37.054 4.146,37.531 L4.146,37.531 C3.5,37.814 2.431,38.092 0.948,38.359 L0.948,38.359 L0.948,39.842 L15.565,39.842 L15.565,38.359 C14.519,38.359 13.612,38.244 12.854,38.014 L12.854,38.014 C11.501,37.635 10.825,36.929 10.825,35.903 L10.825,35.903 C10.825,35.2 11.379,34 12.481,32.303 L12.481,32.303 C13.14,31.358 14.404,29.694 16.263,27.317 L16.263,27.317 L18.467,24.526 L24.414,33.504 C24.868,34.227 25.189,34.841 25.372,35.344 L25.372,35.344 C25.549,35.849 25.644,36.245 25.644,36.532 L25.644,36.532 C25.644,37.271 25.211,37.766 24.359,38.014 L24.359,38.014 C23.805,38.166 22.67,38.28 20.959,38.359 L20.959,38.359 L20.959,39.842 L40.855,39.842 L40.855,38.359 C39.82,38.198 38.984,37.843 38.356,37.294 L38.356,37.294 C37.724,36.749 36.745,35.331 35.416,33.044 L35.416,33.044 L24.547,16.626 C29.514,10.179 32.73,6.164 34.198,4.583 L34.198,4.583 C35.666,3.002 37.669,2.081 40.201,1.819 L40.201,1.819 L40.201,0.333 L25.583,0.333 Z" id="path-13"></path>
        <linearGradient x1="49.9976789%" y1="0.000174137538%" x2="49.9976789%" y2="99.9984528%" id="linearGradient-15">
            <stop stop-color="#FEFEFE" offset="0%"></stop>
            <stop stop-color="#DEDEDF" offset="100%"></stop>
        </linearGradient>
        <path d="M19.583,0.534 L6.591,32.535 C5.568,35.067 4.777,36.702 4.22,37.444 L4.22,37.444 C3.368,38.624 2.233,39.263 0.827,39.359 L0.827,39.359 L0.827,40.842 L12.76,40.842 L12.76,39.359 C11.425,39.338 10.429,39.224 9.759,39.014 L9.759,39.014 C8.638,38.635 8.075,38.027 8.075,37.188 L8.075,37.188 C8.075,36.503 8.336,35.409 8.845,33.905 L8.845,33.905 C9.094,33.2 9.646,31.69 10.506,29.365 L10.506,29.365 L23.629,29.365 L25.119,32.906 C25.441,33.688 25.701,34.352 25.889,34.904 L25.889,34.904 C26.194,35.836 26.349,36.53 26.349,36.987 L26.349,36.987 C26.349,37.995 26.049,38.624 25.445,38.874 L25.445,38.874 C24.847,39.119 23.596,39.28 21.691,39.359 L21.691,39.359 L21.691,40.842 L40.618,40.842 L40.618,39.359 C39.289,39.396 38.258,38.914 37.539,37.915 L37.539,37.915 C36.815,36.915 35.717,34.697 34.256,31.25 L34.256,31.25 L21.21,0.534 L19.583,0.534 Z M16.658,13.523 L17.152,13.523 L22.771,27.054 L11.381,27.054 L16.658,13.523 Z" id="path-16"></path>
        <linearGradient x1="49.9997791%" y1="-0.00258261387%" x2="49.9997791%" y2="99.9985308%" id="linearGradient-18">
            <stop stop-color="#FEFEFE" offset="0%"></stop>
            <stop stop-color="#DEDEDF" offset="100%"></stop>
        </linearGradient>
        <path d="M27.961,0.333 L27.961,1.819 C30.115,1.99 31.555,2.498 32.276,3.346 L32.276,3.346 C32.995,4.194 33.355,5.606 33.355,7.584 L33.355,7.584 L33.355,24.758 L33.072,24.758 L12.97,0.333 L0.585,0.333 L0.585,1.819 C1.305,1.914 1.875,2.135 2.296,2.487 L2.296,2.487 C2.717,2.842 3.818,4.016 5.609,6.013 L5.609,6.013 L5.609,33.703 C5.609,35.207 5.292,36.344 4.666,37.114 L4.666,37.114 C4.04,37.887 2.638,38.299 0.469,38.359 L0.469,38.359 L0.469,39.842 L13.714,39.842 L13.714,38.359 C11.3,38.26 9.699,37.611 8.919,36.406 L8.919,36.406 C8.425,35.661 8.177,34.387 8.177,32.59 L8.177,32.59 L8.177,9.669 L8.575,9.669 L34.296,40.926 L35.924,40.926 L35.924,6.471 C35.924,4.693 36.235,3.547 36.856,3.038 L36.856,3.038 C37.469,2.525 38.693,2.121 40.519,1.819 L40.519,1.819 L40.519,0.333 L27.961,0.333 Z" id="path-19"></path>
        <linearGradient x1="50.0000464%" y1="1.92151357e-05%" x2="50.0000464%" y2="100.001547%" id="linearGradient-21">
            <stop stop-color="#FEFEFE" offset="0%"></stop>
            <stop stop-color="#DEDEDF" offset="100%"></stop>
        </linearGradient>
        <path d="M0.227,0.333 L0.227,1.819 C1.975,1.893 3.194,2.11 3.882,2.471 L3.882,2.471 C5.006,3.053 5.565,4.209 5.565,5.929 L5.565,5.929 L5.565,34.247 C5.565,35.981 4.979,37.146 3.798,37.757 L3.798,37.757 C3.073,38.119 1.883,38.318 0.227,38.359 L0.227,38.359 L0.227,39.842 L20.665,39.842 L20.665,38.359 C18.838,38.359 17.47,38.081 16.555,37.531 L16.555,37.531 C15.643,36.979 15.188,35.882 15.188,34.247 L15.188,34.247 L15.188,5.929 C15.188,4.189 15.759,3.027 16.899,2.44 L16.899,2.44 C17.586,2.104 18.838,1.893 20.665,1.819 L20.665,1.819 L20.665,0.333 L0.227,0.333 Z" id="path-22"></path>
        <linearGradient x1="49.9996228%" y1="0.000174137538%" x2="49.9996228%" y2="99.9984528%" id="linearGradient-24">
            <stop stop-color="#FEFEFE" offset="0%"></stop>
            <stop stop-color="#DEDEDF" offset="100%"></stop>
        </linearGradient>
        <path d="M27.72,0.333 L27.72,1.819 C29.969,1.99 31.474,2.471 32.244,3.26 L32.244,3.26 C33.012,4.049 33.401,5.492 33.401,7.584 L33.401,7.584 L33.401,25.47 C33.401,28.766 32.964,31.328 32.089,33.158 L32.089,33.158 C30.51,36.491 27.472,38.158 22.98,38.158 L22.98,38.158 C19.364,38.158 16.923,36.652 15.642,33.64 L15.642,33.64 C14.94,32.016 14.592,29.719 14.592,26.746 L14.592,26.746 L14.592,7.156 C14.592,4.921 14.967,3.494 15.732,2.869 L15.732,2.869 C16.491,2.243 18.008,1.893 20.271,1.819 L20.271,1.819 L20.271,0.333 L0.514,0.333 L0.514,1.819 C2.554,2.044 3.861,2.442 4.441,3.011 L4.441,3.011 C5.023,3.578 5.31,4.959 5.31,7.156 L5.31,7.156 L5.31,26.726 C5.31,30.098 5.968,32.851 7.282,34.984 L7.282,34.984 C9.756,39.003 14.354,41.013 21.07,41.013 L21.07,41.013 C26.209,41.013 29.973,39.661 32.377,36.959 L32.377,36.959 C34.776,34.256 35.971,30.42 35.971,25.453 L35.971,25.453 L35.971,6.756 C35.971,4.871 36.27,3.669 36.868,3.144 L36.868,3.144 C37.472,2.623 38.701,2.18 40.566,1.819 L40.566,1.819 L40.566,0.333 L27.72,0.333 Z" id="path-25"></path>
        <linearGradient x1="50.0025357%" y1="1.91740414e-05%" x2="50.0025357%" y2="99.9986696%" id="linearGradient-27">
            <stop stop-color="#FEFEFE" offset="0%"></stop>
            <stop stop-color="#DEDEDF" offset="100%"></stop>
        </linearGradient>
        <path d="M38.435,0.333 L27.002,27.397 L26.515,27.397 L15.009,0.333 L0.28,0.333 L0.28,1.819 C2.223,1.97 3.575,2.296 4.333,2.794 L4.333,2.794 C5.097,3.296 5.474,4.342 5.474,5.929 L5.474,5.929 L5.474,33.703 C5.474,35.245 5.142,36.402 4.476,37.172 L4.476,37.172 C3.812,37.944 2.361,38.338 0.136,38.359 L0.136,38.359 L0.136,39.842 L13.812,39.842 L13.812,38.359 C11.337,38.26 9.737,37.765 9.018,36.865 L9.018,36.865 C8.292,35.965 7.932,34.542 7.932,32.59 L7.932,32.59 L7.932,6.157 L8.185,6.157 L22.661,39.842 L24.229,39.842 L38.559,5.472 L38.991,5.472 L38.991,34.047 C38.991,35.815 38.552,36.962 37.677,37.487 L37.677,37.487 C36.803,38.012 35.496,38.299 33.762,38.359 L33.762,38.359 L33.762,39.842 L53.175,39.842 L53.175,38.359 C51.2,38.28 49.847,37.909 49.124,37.244 L49.124,37.244 C48.398,36.578 48.038,35.171 48.038,33.02 L48.038,33.02 L48.038,7.156 C48.038,4.906 48.398,3.489 49.124,2.91 L49.124,2.91 C49.847,2.335 51.2,1.97 53.175,1.819 L53.175,1.819 L53.175,0.333 L38.435,0.333 Z" id="path-28"></path>
        <linearGradient x1="50.0007236%" y1="0.000174137538%" x2="50.0007236%" y2="99.9984528%" id="linearGradient-30">
            <stop stop-color="#FEFEFE" offset="0%"></stop>
            <stop stop-color="#DEDEDF" offset="100%"></stop>
        </linearGradient>
    </defs>
    <g id="Page-1" stroke="none" stroke-width="1" fill="none" fill-rule="evenodd">
        <g id="Group-18">
            <g id="Group-40">
                <g id="Group-4">
                    <mask id="mask-2" fill="white">
                        <use xlink:href="#path-1"></use>
                    </mask>
                    <g id="Clip-3"></g>
                    <path d="M49.986,0.564 L0.823,0.564 L0.823,5.232 C3.75,5.487 5.772,6.059 6.887,6.948 L6.887,6.948 C8.002,7.837 9.535,9.997 11.488,13.442 L11.488,13.442 C13.369,16.807 15.163,20.271 16.87,23.827 L16.87,23.827 C18.578,27.4 20.338,31.211 22.15,35.276 L22.15,35.276 L47.867,93.172 L47.878,93.24 L49.986,98 L65.684,62.807 L61.673,53.831 L61.579,53.777 C61.579,53.777 53.538,35.455 49.986,27.332 L49.986,27.332 C48.977,25.023 48.329,23.535 48.333,23.529 L48.333,23.529 C47.333,21.193 46.672,18.696 46.672,16.037 L46.672,16.037 C46.672,12.153 47.904,8.586 49.986,5.529 L49.986,5.529 C51.251,3.672 52.828,2.002 54.635,0.564 L54.635,0.564 L49.986,0.564 Z" id="Fill-2" fill="url(#linearGradient-3)" mask="url(#mask-2)"></path>
                </g>
                <g id="Group-7" transform="translate(52.000000, 0.000000)">
                    <mask id="mask-5" fill="white">
                        <use xlink:href="#path-4"></use>
                    </mask>
                    <g id="Clip-6"></g>
                    <path d="M11.231,1.506 C11.171,1.526 11.112,1.546 11.049,1.568 L11.049,1.568 C10.682,1.696 10.325,1.839 9.97,1.992 L9.97,1.992 C9.898,2.021 9.827,2.055 9.755,2.087 L9.755,2.087 C9.402,2.245 9.056,2.411 8.718,2.592 L8.718,2.592 C8.673,2.615 8.63,2.641 8.586,2.665 L8.586,2.665 C7.108,3.468 5.778,4.473 4.641,5.639 L4.641,5.639 C4.606,5.675 4.57,5.709 4.536,5.745 L4.536,5.745 C4.283,6.009 4.044,6.282 3.813,6.563 L3.813,6.563 C3.759,6.626 3.706,6.69 3.653,6.754 L3.653,6.754 C3.427,7.033 3.215,7.32 3.011,7.611 L3.011,7.611 C2.969,7.672 2.931,7.734 2.889,7.793 L2.889,7.793 C2.68,8.104 2.481,8.419 2.294,8.744 L2.294,8.744 C1.674,9.837 1.197,11.004 0.886,12.226 L0.886,12.226 L0.886,12.228 L0.885,12.228 C0.753,12.746 0.649,13.27 0.58,13.805 L0.58,13.805 C0.576,13.831 0.571,13.856 0.566,13.882 L0.566,13.882 C0.498,14.432 0.456,14.991 0.456,15.556 L0.456,15.556 C0.456,15.868 0.466,16.187 0.486,16.51 L0.486,16.51 C0.549,17.473 0.707,18.456 0.956,19.277 L0.956,19.277 L0.957,19.278 C0.964,19.301 0.968,19.328 0.976,19.351 L0.976,19.351 L2.014,21.879 L16.927,55.223 L26.81,33.121 L27.924,30.633 C29.003,28.277 30.065,26.003 31.103,23.827 L31.103,23.827 C32.811,20.271 34.605,16.807 36.487,13.442 L36.487,13.442 C38.437,9.997 39.972,7.837 41.087,6.948 L41.087,6.948 C42.202,6.059 44.224,5.487 47.15,5.232 L47.15,5.232 L47.15,0.564 L17.331,0.564 C17.196,0.562 17.062,0.545 16.927,0.545 L16.927,0.545 C14.928,0.545 13.012,0.895 11.231,1.506" id="Fill-5" fill="url(#linearGradient-6)" mask="url(#mask-5)"></path>
                </g>
            </g>
            <g id="Group-10" transform="translate(118.000000, 29.000000)">
                <mask id="mask-8" fill="white">
                    <use xlink:href="#path-7"></use>
                </mask>
                <g id="Clip-9"></g>
                <path d="M28.263,0.333 L28.263,1.762 C30.279,1.893 31.615,2.099 32.271,2.376 L32.271,2.376 C32.931,2.653 33.257,3.342 33.257,4.45 L33.257,4.45 C33.257,4.907 33.142,5.508 32.914,6.252 L32.914,6.252 C32.781,6.709 32.628,7.157 32.458,7.598 L32.458,7.598 L24.838,27.287 L15.615,5.764 C15.483,5.461 15.391,5.181 15.344,4.921 L15.344,4.921 C15.297,4.664 15.272,4.384 15.272,4.079 L15.272,4.079 C15.272,3.124 15.582,2.53 16.199,2.29 L16.199,2.29 C16.819,2.053 18.174,1.875 20.27,1.762 L20.27,1.762 L20.27,0.333 L0.656,0.333 L0.656,1.762 C2.008,1.875 3.001,2.242 3.639,2.858 L3.639,2.858 C4.279,3.478 4.9,4.492 5.51,5.9 L5.51,5.9 L20.555,40.926 L22.097,40.926 L35.427,6.556 C36.092,4.862 36.781,3.678 37.497,3.002 L37.497,3.002 C38.21,2.326 39.281,1.914 40.707,1.762 L40.707,1.762 L40.707,0.333 L28.263,0.333 Z" id="Fill-8" fill="url(#linearGradient-9)" mask="url(#mask-8)"></path>
            </g>
            <g id="Group-13" transform="translate(178.000000, 29.000000)">
                <mask id="mask-11" fill="white">
                    <use xlink:href="#path-10"></use>
                </mask>
                <g id="Clip-12"></g>
                <path d="M0.414,0.333 L0.414,1.819 C2.109,1.911 3.282,2.138 3.925,2.498 L3.925,2.498 C5.049,3.085 5.613,4.229 5.613,5.929 L5.613,5.929 L5.613,34.247 C5.613,35.921 5.068,37.063 3.984,37.671 L3.984,37.671 C3.282,38.072 2.09,38.299 0.414,38.359 L0.414,38.359 L0.414,39.842 L34.588,39.842 L36.958,27.682 L35.331,27.682 C33.502,31.657 31.409,34.37 29.049,35.815 L29.049,35.815 C26.684,37.262 23.642,37.986 19.911,37.986 L19.911,37.986 C17.932,37.986 16.625,37.762 15.99,37.316 L15.99,37.316 C15.349,36.868 15.03,36.028 15.03,34.789 L15.03,34.789 L15.03,20.63 C18.36,20.63 20.67,21.311 21.954,22.67 L21.954,22.67 C23.239,24.032 24.089,26.378 24.507,29.708 L24.507,29.708 L25.994,29.708 L25.994,9.954 L24.507,9.954 C23.882,13.266 22.974,15.544 21.797,16.79 L21.797,16.79 C20.617,18.035 18.36,18.641 15.03,18.604 L15.03,18.604 L15.03,5.073 C15.03,3.968 15.273,3.232 15.756,2.858 L15.756,2.858 C16.245,2.487 17.381,2.302 19.169,2.302 L19.169,2.302 C23.87,2.302 27.114,2.996 28.888,4.385 L28.888,4.385 C30.673,5.778 31.93,8.354 32.672,12.122 L32.672,12.122 L34.099,12.122 L34.099,0.333 L0.414,0.333 Z" id="Fill-11" fill="url(#linearGradient-12)" mask="url(#mask-11)"></path>
            </g>
            <g id="Group-16" transform="translate(234.000000, 29.000000)">
                <mask id="mask-14" fill="white">
                    <use xlink:href="#path-13"></use>
                </mask>
                <g id="Clip-15"></g>
                <path d="M25.583,0.333 L25.583,1.819 C26.932,1.875 27.886,1.99 28.44,2.161 L28.44,2.161 C29.39,2.465 29.868,3.035 29.868,3.874 L29.868,3.874 C29.868,4.556 29.541,5.413 28.894,6.44 L28.894,6.44 C28.247,7.471 26.297,10.099 23.036,14.337 L23.036,14.337 L17.448,5.9 C17.16,5.463 16.944,5.081 16.789,4.757 L16.789,4.757 C16.639,4.434 16.563,4.102 16.563,3.758 L16.563,3.758 C16.563,2.979 16.872,2.486 17.492,2.273 L17.492,2.273 C18.107,2.066 19.358,1.914 21.247,1.819 L21.247,1.819 L21.247,0.333 L1.003,0.333 L1.003,1.819 C1.975,1.875 2.785,2.146 3.433,2.63 L3.433,2.63 C4.075,3.115 4.829,3.977 5.685,5.213 L5.685,5.213 L16.955,22.235 L7.027,35.132 C6.152,36.253 5.195,37.054 4.146,37.531 L4.146,37.531 C3.5,37.814 2.431,38.092 0.948,38.359 L0.948,38.359 L0.948,39.842 L15.565,39.842 L15.565,38.359 C14.519,38.359 13.612,38.244 12.854,38.014 L12.854,38.014 C11.501,37.635 10.825,36.929 10.825,35.903 L10.825,35.903 C10.825,35.2 11.379,34 12.481,32.303 L12.481,32.303 C13.14,31.358 14.404,29.694 16.263,27.317 L16.263,27.317 L18.467,24.526 L24.414,33.504 C24.868,34.227 25.189,34.841 25.372,35.344 L25.372,35.344 C25.549,35.849 25.644,36.245 25.644,36.532 L25.644,36.532 C25.644,37.271 25.211,37.766 24.359,38.014 L24.359,38.014 C23.805,38.166 22.67,38.28 20.959,38.359 L20.959,38.359 L20.959,39.842 L40.855,39.842 L40.855,38.359 C39.82,38.198 38.984,37.843 38.356,37.294 L38.356,37.294 C37.724,36.749 36.745,35.331 35.416,33.044 L35.416,33.044 L24.547,16.626 C29.514,10.179 32.73,6.164 34.198,4.583 L34.198,4.583 C35.666,3.002 37.669,2.081 40.201,1.819 L40.201,1.819 L40.201,0.333 L25.583,0.333 Z" id="Fill-14" fill="url(#linearGradient-15)" mask="url(#mask-14)"></path>
            </g>
            <g id="Group-19" transform="translate(294.000000, 28.000000)">
                <mask id="mask-17" fill="white">
                    <use xlink:href="#path-16"></use>
                </mask>
                <g id="Clip-18"></g>
                <path d="M19.583,0.534 L6.591,32.535 C5.568,35.067 4.777,36.702 4.22,37.444 L4.22,37.444 C3.368,38.624 2.233,39.263 0.827,39.359 L0.827,39.359 L0.827,40.842 L12.76,40.842 L12.76,39.359 C11.425,39.338 10.429,39.224 9.759,39.014 L9.759,39.014 C8.638,38.635 8.075,38.027 8.075,37.188 L8.075,37.188 C8.075,36.503 8.336,35.409 8.845,33.905 L8.845,33.905 C9.094,33.2 9.646,31.69 10.506,29.365 L10.506,29.365 L23.629,29.365 L25.119,32.906 C25.441,33.688 25.701,34.352 25.889,34.904 L25.889,34.904 C26.194,35.836 26.349,36.53 26.349,36.987 L26.349,36.987 C26.349,37.995 26.049,38.624 25.445,38.874 L25.445,38.874 C24.847,39.119 23.596,39.28 21.691,39.359 L21.691,39.359 L21.691,40.842 L40.618,40.842 L40.618,39.359 C39.289,39.396 38.258,38.914 37.539,37.915 L37.539,37.915 C36.815,36.915 35.717,34.697 34.256,31.25 L34.256,31.25 L21.21,0.534 L19.583,0.534 Z M16.658,13.523 L17.152,13.523 L22.771,27.054 L11.381,27.054 L16.658,13.523 Z" id="Fill-17" fill="url(#linearGradient-18)" mask="url(#mask-17)"></path>
            </g>
            <g id="Group-22" transform="translate(354.000000, 29.000000)">
                <mask id="mask-20" fill="white">
                    <use xlink:href="#path-19"></use>
                </mask>
                <g id="Clip-21"></g>
                <path d="M27.961,0.333 L27.961,1.819 C30.115,1.99 31.555,2.498 32.276,3.346 L32.276,3.346 C32.995,4.194 33.355,5.606 33.355,7.584 L33.355,7.584 L33.355,24.758 L33.072,24.758 L12.97,0.333 L0.585,0.333 L0.585,1.819 C1.305,1.914 1.875,2.135 2.296,2.487 L2.296,2.487 C2.717,2.842 3.818,4.016 5.609,6.013 L5.609,6.013 L5.609,33.703 C5.609,35.207 5.292,36.344 4.666,37.114 L4.666,37.114 C4.04,37.887 2.638,38.299 0.469,38.359 L0.469,38.359 L0.469,39.842 L13.714,39.842 L13.714,38.359 C11.3,38.26 9.699,37.611 8.919,36.406 L8.919,36.406 C8.425,35.661 8.177,34.387 8.177,32.59 L8.177,32.59 L8.177,9.669 L8.575,9.669 L34.296,40.926 L35.924,40.926 L35.924,6.471 C35.924,4.693 36.235,3.547 36.856,3.038 L36.856,3.038 C37.469,2.525 38.693,2.121 40.519,1.819 L40.519,1.819 L40.519,0.333 L27.961,0.333 Z" id="Fill-20" fill="url(#linearGradient-21)" mask="url(#mask-20)"></path>
            </g>
            <g id="Group-25" transform="translate(414.000000, 29.000000)">
                <mask id="mask-23" fill="white">
                    <use xlink:href="#path-22"></use>
                </mask>
                <g id="Clip-24"></g>
                <path d="M0.227,0.333 L0.227,1.819 C1.975,1.893 3.194,2.11 3.882,2.471 L3.882,2.471 C5.006,3.053 5.565,4.209 5.565,5.929 L5.565,5.929 L5.565,34.247 C5.565,35.981 4.979,37.146 3.798,37.757 L3.798,37.757 C3.073,38.119 1.883,38.318 0.227,38.359 L0.227,38.359 L0.227,39.842 L20.665,39.842 L20.665,38.359 C18.838,38.359 17.47,38.081 16.555,37.531 L16.555,37.531 C15.643,36.979 15.188,35.882 15.188,34.247 L15.188,34.247 L15.188,5.929 C15.188,4.189 15.759,3.027 16.899,2.44 L16.899,2.44 C17.586,2.104 18.838,1.893 20.665,1.819 L20.665,1.819 L20.665,0.333 L0.227,0.333 Z" id="Fill-23" fill="url(#linearGradient-24)" mask="url(#mask-23)"></path>
            </g>
            <g id="Group-28" transform="translate(454.000000, 29.000000)">
                <mask id="mask-26" fill="white">
                    <use xlink:href="#path-25"></use>
                </mask>
                <g id="Clip-27"></g>
                <path d="M27.72,0.333 L27.72,1.819 C29.969,1.99 31.474,2.471 32.244,3.26 L32.244,3.26 C33.012,4.049 33.401,5.492 33.401,7.584 L33.401,7.584 L33.401,25.47 C33.401,28.766 32.964,31.328 32.089,33.158 L32.089,33.158 C30.51,36.491 27.472,38.158 22.98,38.158 L22.98,38.158 C19.364,38.158 16.923,36.652 15.642,33.64 L15.642,33.64 C14.94,32.016 14.592,29.719 14.592,26.746 L14.592,26.746 L14.592,7.156 C14.592,4.921 14.967,3.494 15.732,2.869 L15.732,2.869 C16.491,2.243 18.008,1.893 20.271,1.819 L20.271,1.819 L20.271,0.333 L0.514,0.333 L0.514,1.819 C2.554,2.044 3.861,2.442 4.441,3.011 L4.441,3.011 C5.023,3.578 5.31,4.959 5.31,7.156 L5.31,7.156 L5.31,26.726 C5.31,30.098 5.968,32.851 7.282,34.984 L7.282,34.984 C9.756,39.003 14.354,41.013 21.07,41.013 L21.07,41.013 C26.209,41.013 29.973,39.661 32.377,36.959 L32.377,36.959 C34.776,34.256 35.971,30.42 35.971,25.453 L35.971,25.453 L35.971,6.756 C35.971,4.871 36.27,3.669 36.868,3.144 L36.868,3.144 C37.472,2.623 38.701,2.18 40.566,1.819 L40.566,1.819 L40.566,0.333 L27.72,0.333 Z" id="Fill-26" fill="url(#linearGradient-27)" mask="url(#mask-26)"></path>
            </g>
            <g id="Group-31" transform="translate(514.000000, 29.000000)">
                <mask id="mask-29" fill="white">
                    <use xlink:href="#path-28"></use>
                </mask>
                <g id="Clip-30"></g>
                <path d="M38.435,0.333 L27.002,27.397 L26.515,27.397 L15.009,0.333 L0.28,0.333 L0.28,1.819 C2.223,1.97 3.575,2.296 4.333,2.794 L4.333,2.794 C5.097,3.296 5.474,4.342 5.474,5.929 L5.474,5.929 L5.474,33.703 C5.474,35.245 5.142,36.402 4.476,37.172 L4.476,37.172 C3.812,37.944 2.361,38.338 0.136,38.359 L0.136,38.359 L0.136,39.842 L13.812,39.842 L13.812,38.359 C11.337,38.26 9.737,37.765 9.018,36.865 L9.018,36.865 C8.292,35.965 7.932,34.542 7.932,32.59 L7.932,32.59 L7.932,6.157 L8.185,6.157 L22.661,39.842 L24.229,39.842 L38.559,5.472 L38.991,5.472 L38.991,34.047 C38.991,35.815 38.552,36.962 37.677,37.487 L37.677,37.487 C36.803,38.012 35.496,38.299 33.762,38.359 L33.762,38.359 L33.762,39.842 L53.175,39.842 L53.175,38.359 C51.2,38.28 49.847,37.909 49.124,37.244 L49.124,37.244 C48.398,36.578 48.038,35.171 48.038,33.02 L48.038,33.02 L48.038,7.156 C48.038,4.906 48.398,3.489 49.124,2.91 L49.124,2.91 C49.847,2.335 51.2,1.97 53.175,1.819 L53.175,1.819 L53.175,0.333 L38.435,0.333 Z" id="Fill-29" fill="url(#linearGradient-30)" mask="url(#mask-29)"></path>
            </g>
        </g>
    </g>
</svg>