<?xml version="1.0" encoding="UTF-8"?>
<svg version="1.1" xmlns="http://www.w3.org/2000/svg" width="400" height="400">
<path d="M0 0 C1.21373795 0.00223572 1.21373795 0.00223572 2.45199585 0.0045166 C14.7664382 0.04521797 26.69484067 0.60173681 38.75 3.3125 C39.44206543 3.46235352 40.13413086 3.61220703 40.84716797 3.76660156 C45.52668462 4.79821979 50.14032741 6.00646504 54.75 7.3125 C55.39356445 7.49006836 56.03712891 7.66763672 56.70019531 7.85058594 C67.86541559 10.9652993 78.28017032 15.36862375 88.75 20.3125 C90.44189453 21.10527344 90.44189453 21.10527344 92.16796875 21.9140625 C110.30781579 30.69065085 126.31311649 43.3547627 140.75 57.3125 C141.63300781 58.15554687 142.51601563 58.99859375 143.42578125 59.8671875 C148.9802596 65.27837885 154.34108626 70.90849122 158.75 77.3125 C158.75 77.9725 158.75 78.6325 158.75 79.3125 C159.41 79.3125 160.07 79.3125 160.75 79.3125 C161.9675293 80.74267578 161.9675293 80.74267578 163.32421875 82.7578125 C163.82348877 83.49797607 164.32275879 84.23813965 164.8371582 85.00073242 C165.365271 85.80486572 165.89338379 86.60899902 166.4375 87.4375 C166.97914795 88.25774658 167.5207959 89.07799316 168.07885742 89.9230957 C172.56504148 96.82383328 176.2944746 103.83693268 179.75 111.3125 C180.33605292 112.51423772 180.92465268 113.71473632 181.515625 114.9140625 C203.60427029 160.19398758 206.49550882 215.56300557 190.75 263.3125 C184.6850129 280.64833464 176.70094737 296.89264355 166.75 312.3125 C165.87601562 313.70082031 165.87601562 313.70082031 164.984375 315.1171875 C161.98680714 319.7881549 161.98680714 319.7881549 160.75 321.3125 C160.09 321.3125 159.43 321.3125 158.75 321.3125 C158.5025 322.034375 158.255 322.75625 158 323.5 C156.62730408 326.58856582 155.02646704 328.82261418 152.75 331.3125 C152.09 331.3125 151.43 331.3125 150.75 331.3125 C150.36714844 332.18213379 150.36714844 332.18213379 149.9765625 333.06933594 C148.62415223 335.54265312 147.11267476 337.20852109 145.125 339.203125 C144.41859375 339.91210938 143.7121875 340.62109375 142.984375 341.3515625 C142.24703125 342.08117187 141.5096875 342.81078125 140.75 343.5625 C140.01265625 344.30757813 139.2753125 345.05265625 138.515625 345.8203125 C137.80921875 346.52414062 137.1028125 347.22796875 136.375 347.953125 C135.72789062 348.59797852 135.08078125 349.24283203 134.4140625 349.90722656 C132.75 351.3125 132.75 351.3125 130.75 351.3125 C130.75 351.9725 130.75 352.6325 130.75 353.3125 C129.0703125 354.8203125 129.0703125 354.8203125 126.875 356.4375 C126.15570313 356.97632813 125.43640625 357.51515625 124.6953125 358.0703125 C122.75 359.3125 122.75 359.3125 120.75 359.3125 C120.75 359.9725 120.75 360.6325 120.75 361.3125 C118.57406733 362.95206831 116.40692075 364.4576955 114.125 365.9375 C113.43986328 366.38480469 112.75472656 366.83210938 112.04882812 367.29296875 C79.01617044 388.6652505 42.43485542 400.50175222 3.06640625 400.49780273 C0.65085886 400.49997673 -1.76422121 400.51815392 -4.1796875 400.53710938 C-37.78287388 400.65858633 -71.57788048 392.02432918 -100.25 374.3125 C-101.74528727 373.49135919 -103.24507484 372.67834084 -104.75 371.875 C-110.45199229 368.72472802 -116.07819123 365.2766783 -121.25 361.3125 C-121.25 360.6525 -121.25 359.9925 -121.25 359.3125 C-121.91515625 359.12816406 -122.5803125 358.94382812 -123.265625 358.75390625 C-127.56834616 356.67575951 -130.58768316 353.55213871 -134 350.25 C-134.71518799 349.56534668 -135.43037598 348.88069336 -136.16723633 348.17529297 C-137.5783145 346.82144017 -138.98637872 345.46443759 -140.39111328 344.10400391 C-141.85723422 342.69102841 -143.34477943 341.30028312 -144.83984375 339.91796875 C-154.75509727 330.55664001 -163.00747124 318.82626368 -170.25 307.3125 C-170.83652344 306.44882812 -171.42304688 305.58515625 -172.02734375 304.6953125 C-191.75795083 274.61102052 -200.72137134 237.13691034 -200.625 201.5 C-200.62412384 200.69979431 -200.62324768 199.89958862 -200.62234497 199.07513428 C-200.53916046 175.85082476 -196.92762886 154.25629737 -189.25 132.3125 C-189.01635742 131.64025391 -188.78271484 130.96800781 -188.54199219 130.27539062 C-185.63873686 122.05464035 -181.99513602 114.17599866 -178.25 106.3125 C-177.59 106.3125 -176.93 106.3125 -176.25 106.3125 C-176.15589844 105.78527344 -176.06179687 105.25804688 -175.96484375 104.71484375 C-172.70399629 93.75625804 -164.28322695 84.09545658 -157.25 75.3125 C-155.3701935 72.81993889 -153.493132 70.32553972 -151.625 67.82421875 C-150.944375 67.07591797 -150.944375 67.07591797 -150.25 66.3125 C-149.59 66.3125 -148.93 66.3125 -148.25 66.3125 C-148.023125 65.76078125 -147.79625 65.2090625 -147.5625 64.640625 C-145.86274074 61.62557583 -143.70195184 59.50019631 -141.25 57.0625 C-140.363125 56.17046875 -139.47625 55.2784375 -138.5625 54.359375 C-136.25 52.3125 -136.25 52.3125 -134.25 52.3125 C-134.25 51.6525 -134.25 50.9925 -134.25 50.3125 C-126.12586957 42.67506863 -105.82169213 24.3125 -94.25 24.3125 C-94.25 23.6525 -94.25 22.9925 -94.25 22.3125 C-77.51915856 14.70654618 -60.99262178 8.19167233 -43.0625 4.0625 C-42.41112061 3.91119629 -41.75974121 3.75989258 -41.08862305 3.60400391 C-27.46457287 0.67000113 -13.8829496 -0.06359557 0 0 Z " fill="#4B4B4B" transform="translate(200.25,-0.3125)"/>
<path d="M0 0 C1.21373795 0.00223572 1.21373795 0.00223572 2.45199585 0.0045166 C14.7664382 0.04521797 26.69484067 0.60173681 38.75 3.3125 C39.44206543 3.46235352 40.13413086 3.61220703 40.84716797 3.76660156 C45.52668462 4.79821979 50.14032741 6.00646504 54.75 7.3125 C55.39356445 7.49006836 56.03712891 7.66763672 56.70019531 7.85058594 C67.86541559 10.9652993 78.28017032 15.36862375 88.75 20.3125 C90.44189453 21.10527344 90.44189453 21.10527344 92.16796875 21.9140625 C104.8689864 28.05918618 115.86760857 36.20655351 126.92089844 44.88818359 C128.51161302 46.12686871 130.13234411 47.32681743 131.7578125 48.51953125 C132.41523438 49.11121094 133.07265625 49.70289063 133.75 50.3125 C133.75 51.3025 133.75 52.2925 133.75 53.3125 C95.42418626 53.61282283 95.42418626 53.61282283 87.75 51.3125 C87.62753906 51.87710938 87.50507813 52.44171875 87.37890625 53.0234375 C86.70224067 55.4863321 85.77079484 57.62402287 84.6875 59.9375 C83.06643998 63.43582206 81.46687756 66.94018939 79.921875 70.47265625 C76.81507141 77.56936439 73.6644132 84.60750778 70.125 91.5 C65.3652808 100.78585507 61.17619252 110.34060686 56.93701172 119.87182617 C53.5856844 127.38463776 50.05961827 134.77045208 46.34594727 142.11083984 C44.18041036 146.45516461 42.20091395 150.86875155 40.25 155.3125 C37.74862968 160.94613595 35.19446155 166.51621474 32.375 172 C28.51718912 179.56310365 25.19217431 187.348192 21.80615234 195.13134766 C18.85596236 201.88350722 15.74791245 208.48001619 12.375 215.03125 C10.12286254 219.57883525 8.11919157 224.22443459 6.14550781 228.89868164 C4.58748763 232.55407248 2.8860237 235.9604869 0.75 239.3125 C-2.89782182 235.09313006 -5.47931521 230.56121011 -8.125 225.6875 C-8.56191162 224.89150391 -8.99882324 224.09550781 -9.44897461 223.27539062 C-10.72038971 220.95680334 -11.98561407 218.63492572 -13.25 216.3125 C-13.89927508 215.12734957 -14.54895929 213.94242311 -15.19921875 212.7578125 C-18.96354167 205.88541667 -18.96354167 205.88541667 -20.25 203.3125 C-79.65 202.9825 -139.05 202.6525 -200.25 202.3125 C-200.25 178.82691835 -200.25 178.82691835 -198.6875 169 C-198.51404053 167.87190918 -198.34058105 166.74381836 -198.16186523 165.58154297 C-196.27175397 154.14793221 -193.07185885 143.23593714 -189.25 132.3125 C-189.01635742 131.64025391 -188.78271484 130.96800781 -188.54199219 130.27539062 C-185.63873686 122.05464035 -181.99513602 114.17599866 -178.25 106.3125 C-177.59 106.3125 -176.93 106.3125 -176.25 106.3125 C-176.15589844 105.78527344 -176.06179687 105.25804688 -175.96484375 104.71484375 C-172.70399629 93.75625804 -164.28322695 84.09545658 -157.25 75.3125 C-155.3701935 72.81993889 -153.493132 70.32553972 -151.625 67.82421875 C-150.944375 67.07591797 -150.944375 67.07591797 -150.25 66.3125 C-149.59 66.3125 -148.93 66.3125 -148.25 66.3125 C-148.023125 65.76078125 -147.79625 65.2090625 -147.5625 64.640625 C-145.86274074 61.62557583 -143.70195184 59.50019631 -141.25 57.0625 C-140.363125 56.17046875 -139.47625 55.2784375 -138.5625 54.359375 C-136.25 52.3125 -136.25 52.3125 -134.25 52.3125 C-134.25 51.6525 -134.25 50.9925 -134.25 50.3125 C-126.12586957 42.67506863 -105.82169213 24.3125 -94.25 24.3125 C-94.25 23.6525 -94.25 22.9925 -94.25 22.3125 C-77.51915856 14.70654618 -60.99262178 8.19167233 -43.0625 4.0625 C-42.41112061 3.91119629 -41.75974121 3.75989258 -41.08862305 3.60400391 C-27.46457287 0.67000113 -13.8829496 -0.06359557 0 0 Z " fill="#CE3C3C" transform="translate(200.25,-0.3125)"/>
<path d="M0 0 C15.18 0.66 30.36 1.32 46 2 C46.33 1.34 46.66 0.68 47 0 C66.38641017 18.92785244 66.38641017 18.92785244 71 26 C71 26.66 71 27.32 71 28 C71.66 28 72.32 28 73 28 C74.2175293 29.43017578 74.2175293 29.43017578 75.57421875 31.4453125 C76.0738916 32.1863623 76.57356445 32.92741211 77.08837891 33.69091797 C77.87994385 34.89578857 77.87994385 34.89578857 78.6875 36.125 C79.49453369 37.34340576 79.49453369 37.34340576 80.31787109 38.58642578 C84.81205874 45.48382114 88.54598493 52.53353628 92 60 C92.38929688 60.72445312 92.77859375 61.44890625 93.1796875 62.1953125 C94 64 94 64 94 67 C64.3 66.505 64.3 66.505 34 66 C33.34 68.31 32.68 70.62 32 73 C30.99032939 75.17119142 29.92488422 77.31709714 28.8125 79.4375 C26.17615392 84.54957444 23.76264352 89.71219635 21.5 95 C19.3971186 99.90032445 17.18958963 104.69191731 14.75 109.4375 C10.8901794 117.00935527 7.52693471 124.78525455 4.17089844 132.59155273 C1.78611953 138.09856702 -0.7203162 143.50376337 -3.4296875 148.859375 C-7.06910108 156.05481134 -10.37132438 163.37383573 -13.625 170.75 C-16.90489814 178.17425056 -20.2202779 185.55520486 -23.90087891 192.79199219 C-25.52571757 196.0561061 -26.95296845 199.39386714 -28.375 202.75 C-30.59832554 207.91984269 -32.94530877 212.98226565 -35.5 218 C-38.01304889 222.93634604 -40.31667628 227.91308083 -42.5 233 C-44.59382109 237.87077367 -46.7778498 242.64905166 -49.1875 247.375 C-56.54335296 261.85424105 -63.20554311 276.7106048 -69.62011719 291.62817383 C-72.01010726 297.13711572 -74.67868924 302.47744893 -77.421875 307.81640625 C-79.08347147 311.16838923 -80.55555951 314.54987559 -82 318 C-84.90040493 314.54231202 -87.19849666 311.07422099 -89.375 307.125 C-93.07582497 300.5093097 -96.98423157 294.03000081 -100.9375 287.5625 C-101.54883789 286.5619458 -102.16017578 285.5613916 -102.79003906 284.53051758 C-103.98702742 282.57170736 -105.18412669 280.61296493 -106.38134766 278.65429688 C-109.56026891 273.44144139 -112.69340036 268.201311 -115.82666016 262.9609375 C-118.15136744 259.07578376 -120.48260313 255.19454292 -122.8125 251.3125 C-123.82814906 249.6198061 -124.84377382 247.92709762 -125.859375 246.234375 C-126.37177734 245.38037109 -126.88417969 244.52636719 -127.41210938 243.64648438 C-141 221 -141 221 -142.24291992 218.27270508 C-143.83413112 215.70104577 -143.83413112 215.70104577 -146.92089844 215.41650391 C-148.1380957 215.43632324 -149.35529297 215.45614258 -150.609375 215.4765625 C-151.29888245 215.48090302 -151.98838989 215.48524353 -152.6987915 215.48971558 C-155.05013602 215.51084815 -157.39926368 215.56826292 -159.75 215.625 C-161.44528519 215.64735869 -163.14060127 215.66746713 -164.8359375 215.68554688 C-169.75535601 215.74518225 -174.67372786 215.83850145 -179.5925293 215.93566895 C-185.89994919 216.05474935 -192.20781597 216.14642153 -198.515625 216.2421875 C-206.62618355 216.36575372 -214.73655725 216.49304861 -222.84667969 216.64306641 C-240.90066758 216.97038189 -258.94383408 217.06086769 -277 217 C-281.26240516 203.80153023 -285.01427023 190.96754996 -286.72216797 177.17382812 C-286.94657857 175.41798277 -287.22213092 173.66871958 -287.51345825 171.92272949 C-288.050368 167.5939094 -288.11099616 163.41596317 -288.0625 159.0625 C-288.05798828 158.28326172 -288.05347656 157.50402344 -288.04882812 156.70117188 C-288.03716908 154.80074732 -288.01923877 152.90036294 -288 151 C-264.63478466 150.76643604 -241.26976167 150.59007527 -217.90361595 150.48187828 C-207.05432497 150.43030573 -196.20575913 150.35999176 -185.35693359 150.24560547 C-175.90143849 150.14595747 -166.44646848 150.08142402 -156.9904629 150.05911505 C-151.98286289 150.0460729 -146.97676508 150.01541141 -141.96964645 149.94269943 C-137.25617376 149.8748064 -132.54482113 149.85388508 -127.83090591 149.86892319 C-126.10142235 149.86617248 -124.37186779 149.84628266 -122.64280701 149.80794525 C-109.5581834 149.53206439 -109.5581834 149.53206439 -105.67524719 153.19010639 C-104.11052374 155.75521901 -103.01745172 158.18015672 -102 161 C-101.39188477 162.05566162 -100.78376953 163.11132324 -100.15722656 164.19897461 C-99.65674805 165.09108643 -99.15626953 165.98319824 -98.640625 166.90234375 C-98.08246094 167.89427734 -97.52429688 168.88621094 -96.94921875 169.90820312 C-96.38847656 170.90787109 -95.82773438 171.90753906 -95.25 172.9375 C-94.11044524 174.96804891 -92.96986695 176.99802385 -91.828125 179.02734375 C-91.0841748 180.35366821 -91.0841748 180.35366821 -90.32519531 181.70678711 C-89.28264882 183.51088423 -88.15581069 185.26628397 -87 187 C-83.46352967 179.40005593 -79.99248815 171.77343755 -76.5625 164.125 C-72.04463493 154.06393212 -67.42436802 144.05641933 -62.66015625 134.109375 C-61.81493499 132.34383098 -60.96988683 130.57820408 -60.125 128.8125 C-59.70057617 127.925625 -59.27615234 127.03875 -58.83886719 126.125 C-55.90849505 119.97543968 -53.08381378 113.78516441 -50.3125 107.5625 C-47.89910703 102.1476503 -45.44165249 96.78410403 -42.75 91.5 C-39.23105852 84.57642141 -35.95330474 77.54593338 -32.6875 70.5 C-32.40626282 69.89339539 -32.12502563 69.28679077 -31.83526611 68.6618042 C-27.63627619 59.59721779 -23.5040438 50.50320692 -19.39404297 41.39794922 C-16.63304585 35.3114895 -13.69901488 29.34546047 -10.6640625 23.390625 C-8.08671878 18.13913591 -5.78673724 12.77315232 -3.48046875 7.3984375 C-2.39199322 4.89982612 -1.21883861 2.43767722 0 0 Z " fill="#000000" transform="translate(288,51)"/>
</svg>
