<?xml version="1.0" encoding="utf-8"?>
<!-- Generator: Adobe Illustrator 28.2.0, SVG Export Plug-In . SVG Version: 6.00 Build 0)  -->
<svg version="1.1" id="Layer_1" xmlns="http://www.w3.org/2000/svg" xmlns:xlink="http://www.w3.org/1999/xlink" x="0px" y="0px"
	 viewBox="0 0 500 500" style="enable-background:new 0 0 500 500;" xml:space="preserve">
<style type="text/css">
	.st0{fill:#FFFFFF;}
</style>
<a xlink:href="1.4210854715202e-14" >
	<circle id="fullLogo" class="st0" cx="250" cy="250" r="250"/>
</a>
<a xlink:href="100" >
	<path id="fullLogo-2" d="M376.5,334.5c-13.2,22.9-37.6,37-64,37h-42.7V227.4l-61.7,107.1c-13.2,22.9-37.6,37-64,37h-42.4V158.9
		h85.3v143.7L269.8,159v-0.1h85.3v144.3l89.6-155.7c3.6-6.3,3.6-14.2-0.4-20.3C403,61.9,329.7,18.8,246.4,20.1
		c-127,2-227,104.2-226.4,231.2C20.7,377.7,123.4,479.9,250,479.9S479.9,377,479.9,250c0-20.5-2.7-40.3-7.7-59.2
		c-1.5-5.7-9.2-6.8-12.1-1.7L376.5,334.5L376.5,334.5L376.5,334.5z"/>
</a>
<div  id="divScriptsUsed" style="display: none" xmlns=""></div>
<script  id="globalVarsDetection" src="chrome-extension://cmkdbmfndkfgebldhnkbfhlneefdaaip/js/wrs_env.js" xmlns=""></script>
</svg>
