<?xml version="1.0" encoding="utf-8"?>
<!-- Generator: Adobe Illustrator 28.0.0, SVG Export Plug-In . SVG Version: 6.00 Build 0)  -->
<svg version="1.1" id="Layer_1" xmlns="http://www.w3.org/2000/svg" xmlns:xlink="http://www.w3.org/1999/xlink" x="0px" y="0px"
	 viewBox="0 0 500 500" style="enable-background:new 0 0 500 500;" xml:space="preserve">
<style type="text/css">
	.st0{fill:#00D8FF;}
	.st1{fill:#FFFFFF;}
	.st2{fill:#FF104D;}
</style>
<circle cx="246.4" cy="249.5" r="221.6"/>
<path class="st0" d="M246.4,27.9c122.4,0,221.6,99.2,221.6,221.6s-99.2,221.6-221.6,221.6S24.9,371.9,24.9,249.5
	S124.1,27.9,246.4,27.9 M246.4,0.9c-33.5,0-66.1,6.6-96.8,19.5c-29.6,12.5-56.2,30.4-79,53.3c-22.8,22.8-40.7,49.4-53.3,79
	C4.4,183.4-2.1,216-2.1,249.5s6.6,66.1,19.5,96.8c12.5,29.6,30.4,56.2,53.3,79s49.4,40.7,79,53.3c30.7,13,63.2,19.5,96.8,19.5
	s66.1-6.6,96.8-19.5c29.6-12.5,56.2-30.4,79-53.3c22.8-22.8,40.7-49.4,53.3-79c13-30.7,19.5-63.2,19.5-96.8s-6.6-66.1-19.5-96.8
	c-12.5-29.6-30.4-56.2-53.3-79c-22.8-22.8-49.4-40.7-79-53.3C312.5,7.5,280,0.9,246.4,0.9L246.4,0.9z"/>
<polygon class="st1" points="80.4,190.3 112.4,190.3 172.7,322.7 233.4,190.3 258.8,190.3 318.3,322.7 379.2,190.3 411.8,190.3 
	331.3,364.8 305.6,364.8 246.1,232.3 185,364.8 160.4,364.8 "/>
<polygon class="st2" points="78.2,162 78.2,143.8 417.1,143.8 417.1,150.6 209,150.6 197.7,162 "/>
</svg>
