<?xml version="1.0" encoding="utf-8"?>
<!-- Generator: Adobe Illustrator 28.1.0, SVG Export Plug-In . SVG Version: 6.00 Build 0)  -->
<svg version="1.1" id="Layer_1" xmlns="http://www.w3.org/2000/svg" xmlns:xlink="http://www.w3.org/1999/xlink" x="0px" y="0px"
	 viewBox="0 0 500 500" style="enable-background:new 0 0 500 500;" xml:space="preserve">
<style type="text/css">
	.st0{fill:url(#SVGID_1_);}
	.st1{fill:#E02155;}
	.st2{fill:#2DB990;}
	.st3{fill:#FFFFFF;}
</style>
<linearGradient id="SVGID_1_" gradientUnits="userSpaceOnUse" x1="228.1503" y1="317.9437" x2="271.7125" y2="781.4258" gradientTransform="matrix(1 0 0 1 0 -299.65)">
	<stop  offset="0" style="stop-color:#EED6F4"/>
	<stop  offset="0.1" style="stop-color:#E5C0EE"/>
	<stop  offset="0.22" style="stop-color:#DEB0EA"/>
	<stop  offset="0.43" style="stop-color:#CD87DE"/>
	<stop  offset="0.59" style="stop-color:#C370D8"/>
	<stop  offset="0.85" style="stop-color:#964FBF"/>
</linearGradient>
<circle class="st0" cx="249.9" cy="249.9" r="249.8"/>
<g>
	<path class="st1" d="M148.9,349c0.1-0.6,0.2-1.2,0.2-1.8c-0.1,0-0.2,0-0.2,0V349z"/>
	<path class="st1" d="M322.4,489.2c-0.9,0.3-1.8,0.6-2.8,0.8c-22.2,6.5-45.8,10-70.1,10c-33.7,0-65.9-6.7-95.3-18.8
		c-0.2-0.1-0.4-0.2-0.6-0.2c-0.7-0.3-1.4-0.6-2.1-0.9c-0.5-0.2-1-0.4-1.5-0.6c0.5-1.2,1.1-2.8,1.1-2.9c1.8-2.9,1.8-5.9,1.4-9.2
		c-0.5-4.2-0.6-8.5-0.8-12.8c0.4-0.7,0.4-1.6,0-2.5c0-0.1-0.1-0.2-0.1-0.3c0-0.3,0-0.7,0-1c0.1-0.3,0.2-0.6,0.2-0.8
		c0.1-0.1,0.1-0.2,0.2-0.3c3.3-6.4,2.5-14,1.6-20.8c-0.1-0.4-0.1-0.8-0.2-1.3c0.5-4,0.8-8,1.1-12.1c0.3-3.8,0.5-7.6,0.6-11.4
		c0,0,0-0.1,0-0.1c0-1.1,0.1-2.2,0.1-3.3c0.4-1.5,0.8-3.1,1-4.7c0.5-3.4,0.6-6.9,1.1-10.1c1-7,6.3-12.9,4.9-20.1
		c1.8-4.6,3.7-9.2,5.6-13.8c1.8-4.4,4.5-10.9,3-15.9l4-0.4l16.7-1.6l26-11l20.9-17.1l18-36.4l16.5-20.2l5.5,8.9l2.3,3.8c0,0,0,0,0,0
		l1.2,2l1.4,1.1l8.9,7.1l6.2,11.1l1.5,2.7l7.2,16.1l2.1,5l4.5,10.4l1.8,8.9l2.2,11.2l1.7,14.1l0.3,2.7l0.3,1.7
		c-0.2,0.1-0.4,0.1-0.6,0.2c-0.7,0.4-1.3,1.1-1.3,2.2c0,5.8,0.3,11.6,0.4,17.5c0,0.6,0,1.3,0,1.9c0,3.6-0.2,7.2-0.4,10.8
		c-0.1,2.3-0.2,4.6-0.3,6.9c-0.3,3.2-0.3,6.4-0.3,9.6c0,0.9,0,1.8,0.1,2.8c-0.1,0.2-0.1,0.5-0.1,0.7c-0.3,4.5-0.7,9-0.8,13.5
		c0,1.7,0,3.4,0,5.1c0.1,2.7,0.4,5.4,0.6,8.2c0.1,2.4,0.2,4.7,1,7c0,0.1,0.1,0.2,0.1,0.3c0.3,3.6,0.8,7.1,1.3,10.8
		c0.7,5.5-0.2,11.1,0.5,16.6c0.4,2.9,0.6,7.9,1.1,12.5c0,0,0,0,0,0.1C321.7,485.1,322,487.4,322.4,489.2L322.4,489.2z"/>
	<path class="st2" d="M175.2,334.5l-0.2,1.1l-0.3,1.8c-0.4,0.2-0.8,0.6-1,1.2c-5.8,13.4-8.5,27.8-12.3,41.9c-1.2,4.6-2.9,9-4.4,13.5
		c-0.2,0.7-0.5,1.4-0.7,2.1c-0.8,2.6-1.6,5.4-1.1,8c0,0,0,0,0,0c0,0,0,0.1,0,0.1c-0.1,0.3-0.1,0.7-0.2,1.1
		c-0.3,3.4-0.5,6.9-0.5,10.4c0,4.7,0.2,9.4,0.3,14c0.2,7.8,0.2,15.6,0.1,23.5c-0.1,3.7,0,7.4-0.5,11.1c-0.3,2.6-2.3,11.2-2.9,15.9
		c-0.5-0.2-1-0.4-1.5-0.6c-0.5-0.2-1-0.4-1.5-0.7c-5.3-2.3-10.5-4.8-15.6-7.5c-1.5-0.8-2.9-1.6-4.4-2.4l0.6-4.1l11-54.4l5.4-20.6
		l10.6-53.4L175.2,334.5L175.2,334.5z"/>
	<path class="st2" d="M322,172.5c-8.7,0.2-16.8,5.2-25.5,6.4c-5.8,0.8-17.8,0.2-19.4-7.4c-1.4-6.6,7.2-8.5,12-9.2
		c8.6-1.2,17.5-0.6,26.2-0.6c1.8,0,3,0.8,3.6,2c1-0.1,2.1-0.2,3.2-0.3C328,163.3,327.8,172.3,322,172.5z M382,371
		c-1.2-4.3-2.5-8.5-3.5-12.8c-1.8-7.3-1.8-14.5-1.8-22v-10l-2,10.3l-4-91.7l-0.6-23.4c-2.7-13.6-2.4-27.9-6.5-41.3
		c-0.6-2-2.1-4.2-0.4-4.2l-0.9-20.2l-17.4-44.4C313.9,60.6,239,78.6,239,78.6c-54.1,1.2-71.7,38.2-77.4,59.7v0
		c-0.6,2.2-1.1,4.2-1.4,6.1c-1.1,5.5-1.3,9-1.3,9l15-0.1l6.9,4.3l3.2,3.9v8.3l-5.5,5.8l-15,2.1h-11.5l-2.4,8.5v23l2.4,19.3l16-15.9
		l18.7-15.9l11.1-5.7h10.4l9.9,3l10.2,1.8l5.1,7.6l7.6,7.9l12.2,5.9l12.2,5.7l12.5,6.8l3.9,5.4v6.5l-4.8,10.5
		c0.3,0.4,0.4,0.8,0.5,1.4c0.1,1.6,0.6,3.2,1.3,4.7c0.5,1,0.5,1,0,0c0.6,1.3,1.4,2.6,2.3,3.8c0,0,0,0,0,0c0.8,1.1,1.7,2.1,2.6,3.1
		c0,0,0,0,0,0c0.7,0.8,1.5,1.6,2.2,2.3c3,3,5.2,6.7,7.5,10.3c0.6,0.5,1.1,1,1.7,1.6c1.3,1.3,2.5,2.7,3.7,4.1c0.8,0.9,0.8,0.9,0,0
		c5.6,6.9,9.3,15.1,10.9,23.8c0.3,1.5,0.5,3,0.6,4.5c0,0,0,0.1,0,0.1c2.5,5.7,4.2,10.5,5.6,14.7c0.7,2.2,1.4,4.3,2,6.2
		c1.4,4.5,1.9,11.5,1.8,19.1v0c0,1.5,0,3.1-0.1,4.6c-0.2,6.8-0.6,13.8-0.9,19.7c0,0,0,0,0,0c-0.3,4.6-0.5,8.6-0.4,11.3
		c0,0.4,0,0.9,0,1.4v0c0.1,11.6-0.5,33.7-1.3,33.5c0,0-0.1,0-0.1,0c-4.2-0.7,1.8,41.7,4.6,60.5c0,0,0,0,0,0.1c0.4,2.7,0.8,4.9,1,6.5
		c1.1-0.3,2.1-0.6,3.2-1c20.4-6.5,39.6-15.5,57.3-26.7c1.2-0.8,2.5-1.6,3.7-2.4L382,371L382,371z"/>
	<path class="st3" d="M279.6,235.4l-4.4-7.1c0,0-15.1-7-16.5-8.4c-1.3-1.5-14.9-12.1-14.9-12.1l-11.7-9.8l-9-3.8l-5.5-2.1l-7.2,4.2
		h0c0,0-2.3-5.4-6.8-6.8s-20,7.6-20,7.6l-6.6,3.1c0,0.7-0.3,1.3-0.8,1.8c-1.3,1.2-2.8,1.9-4.3,2.5c-0.7,0.7-1.4,1.4-1.8,1.8
		c-1.2,1.3-2.5,2.6-3.3,4.1c-1,1.9-2.2,3.5-4.5,3.8c-2.6,0.3-4.3-1.4-6.6-2.3c-0.7-0.3-1.1-0.7-1.4-1.2l-7.2,3.3c0,0-1.4,2.3-3.7,6
		c0,0,0,0.1,0,0.1c0.3,2.4,0.2,4.6-0.3,6.8c1,0,2.1,0.5,2.5,1.4c3.3,6.3-1.9,13.1-5.7,17.9c-1.9,2.3-3.9,4.5-5.8,6.8
		c-3.5,6.2-8.1,15.2-16.4,14.6c-1-0.1-1.8-0.6-2.2-1.3c-0.6,0.4-1.1,0.8-1.7,1.3c-0.2,0.2-0.4,0.3-0.6,0.5
		c-7.2,11.1-13.8,20.8-17.5,25.4c-11.9,14.4-8.5,20-8.5,20l3.2,6.8l11.2,2.6v0.9c2.4,0.1,4.6,0.6,6.7,1.5c1.8,0.5,3.7,1,5.5,1.5
		c4.8,1.1,9.6,0.5,14.4,1.5c4.7,0.9,9,3,13.8,3.4c5.1,0.4,10.3,0.4,15.5,0.7c10.6,0.4,20.9,0.5,31.4-1.2c7.4-1.2,14.8-3,22-4.9
		l6.9-3.3l4.8-2.1c3.9-3.3,8.5-5.7,12.5-9.1c0.7-0.6,1.4-1.2,2-1.9l2.6-2.9c3.5-4.4,6.2-9.7,7.9-15c0.4-1.3,1.5-1.9,2.6-1.9
		c0.5-1.7,0.9-3.4,1.4-5.2c0.9-3.6,2.5-6.8,4.3-10.1c1.3-2.3,2.6-4.6,4-6.8c1.3-3.1,2.5-6.1,3.8-9.2c1.3-3,3.5-5.2,6-7.2
		c0.5-0.5,1.1-0.6,1.7-0.7c1.9-3.5,4.4-6.6,6.6-9.8c0.5-0.8,1.3-1.1,2-1.2L279.6,235.4L279.6,235.4z"/>
	<path class="st3" d="M304.7,181.1h-11.5l-13.6-5.5l-6.4-5.8c0,0,2.7-7.8,4.6-8.2c1.8-0.4,17.1-2.5,17.1-2.5h26.2
		c0,0,6.9,2.6,7.4,5.1s-2,9-2,9l-7.4,2.5L304.7,181.1L304.7,181.1L304.7,181.1z"/>
	<path class="st3" d="M166.3,179.1c-2.8-1.4-23.3-6-23.3-6l-5.1-9l2.3-5.1l18-7.2l14.9,1.5l12.9,4.1l-1.9,12.4l-5.5,5.8L166.3,179.1
		L166.3,179.1L166.3,179.1z"/>
	<path d="M154.5,157.3l1.9-1.9l3.4,0.3l1.5,0.1l1.3-0.1l3-0.2l3.7-0.1l1.9,0.1l3.6,0.7l2.9,1.1l2.8,1.8l-0.7,2.7l-1.8,2.3l-1.4,1.1
		l-3.5,1.5l-3.7,0.8l-3.7-0.1l-1.9-0.4l-3.7-1.2l-1.9-0.9l-0.9-0.3l-2.8-1.9L154.5,157.3L154.5,157.3z M132.3,322.2l-3.7-0.7
		l-1.9-0.4l-3.7-0.6l-1.9-0.1l-3.7-0.1v-3.7h35.2l3.7,0.2l3.7,0.6l3.1,1.2l1.1,1l0.7,0.5l0.7,2.1L132.3,322.2L132.3,322.2z
		 M146.5,222.6l0.3-1l2.1-1.4l-0.2,2.6l-1,1.8l-0.6,0.6l-1.9,0.7L146.5,222.6L146.5,222.6z M111.9,309.2l-3.7,0.8l-1.9,0.7l-3.7,1.3
		l-1.9,0.4l-2.8,0.5h-2.8v-2.8l0.5-2.8l0.5-1.9l1.7-3.7L99,300l2.6-3.7l1.1-1.9l3-3.7l1.3-1.9l2.8-3.5l1.4-1.4l1.4-1.1l0.8-0.7
		l2.3-0.7l-1.9,3.7l2.8-1.4l2.7-2.3l3-3.7l1.4-1.9l3-3.7l1.9-1.9l3.7-3.7l1.7-1.9l3.1-3.7l1.3-1.9l2.4-3.7l2.1-3.7l0.9-1.9l2.1-3.7
		l2.3-3.7l2.1-3.7l0.8-1.9l1.5-3.7l2.4-3.7l3.1-3.7l3.7-3.5l3.7-3.1l1.9-1.3l3.6-2.6l3.1-2.8l1.4-1.5l3-2.8l3.7-2.3l1.9-0.9l3.7-2.1
		l1.8-1l1.9-0.8l1-0.6l2.8-0.6v11.1h2.8l2.8-0.5l1.9-0.5l3.7-1.7l7.4-4.6l1.9-1l1.9-0.9l3.7-1.4l3.6-1.2l1-0.4l2.8-0.8l5.6,5.6
		l3.7,2.9l1.9,1.3l3.7,2.6l1.9,1.3l1.9,1.4l3.7,2.7l3.6,2.6l3,2.6l1.2,1.5l2.4,3.3l1.4,1.8l3.1,3.7l2.9,3.7l0.9,1.9l1.4,2.8l0.5,2.8
		l-3.8,3.8l-1.9,1.8l-1.8,1.8l-3.7,2.9l-2.9,2.6l-2.6,2.6l-1.3,1.5l-2.6,3.3l-2.4,3.6l-1.1,1.9l-0.3,0.5c0,0.4,0,0.8-0.1,1.2
		c-0.5,3-1.5,5.7-2.8,8.5c-0.1,0.2-0.1,0.3-0.2,0.5c-0.1,0.6-0.2,1.2-0.4,1.8l-0.1,1.5l-1.1,2.9L241,287l-1.3,1.9l-2.9,3.7l-2.6,3.7
		l-1.2,1.9l-3.7,5.6l-1.2,1.9l-2.5,3.7l-2.8,2.8l-3.3,1.9l-1.8,0.5l-3.7,0.5h-20.4l-1.9-0.4l-1.9-0.3l-3.7-1.1l-3.7-1.1l-1.9-0.5
		l-1.9-0.3l-1.9-0.7l-1.9-0.5l-3.7-0.6l-3.7-0.2l-1.9-0.4l-3.7-0.7l-3.7-0.6l-1.9-0.1l-3.7-0.1h-29.6l-3.7,0.2l-1.9,0.3l-3.7,0.8
		L111.9,309.2L111.9,309.2z M389.7,452.4V450l-0.1-3.7l-0.3-1.8l-0.7-3.7l-0.7-3.7v-11.1l0-3.7l-0.1-1.9l-0.6-3.7l-0.4-1.9l-0.7-3.7
		v-18.5l0-3.7l-0.1-1.8l-0.6-3.7l-0.4-1.8l-0.3-1.9l-0.4-1.8l-0.1-1.9l-0.6-3.7l-0.4-1.9l-0.3-1.8l-0.7-3.7l-0.4-1.8l-0.8-3.7
		l-0.4-1.9l-0.7-3.7l-0.4-1.8l-0.7-3.7v-77.8l0-1.9l-0.1-1.8l-0.6-3.7l-0.4-1.8l-0.7-3.7v-1.9l0-3.7l-0.1-1.9l-0.6-3.7l-0.4-1.8
		l-0.7-3.7l-0.1-3.7l-0.6-3.7l-1.4-5.6l-0.9-3.7l-0.4-1.8l-0.7-3.7l-0.8-3.7l-0.7-3.7l0-3.7l-0.1-1.9l-0.6-3.7l-0.4-1.8l-0.7-3.7
		v-14.8l0-3.7l-0.1-1.8l-0.6-3.7l-0.7-3.7l-0.4-1.8l-0.1-3.7l-0.6-3.7l-1.4-5.6l-0.4-1.9l-0.5-1.8l-1.4-5.6l-0.6-1.9l-0.6-1.8
		l-1.2-3.7l-0.6-1.8l-1.1-3.7l-1-3.7l-0.5-1.9l-1.2-3.7l-0.7-1.9l-1.6-3.7l-1-1.8l-0.8-1.8l-1-1.9l-0.9-1.8l-2.1-3.7l-1.2-1.9
		l-2.6-3.7l-3.1-3.7l-3.6-3.7l-3.7-3.5l-1.8-1.5l-3.7-2.3l-1.9-0.8l-3.7-1.5l-1.8-0.8l-3.7-1.3l-3.7-1.2l-3.7-1.2l-1.9-0.6l-1.8-0.6
		l-1.9-0.6l-3.7-0.7l-1.8-0.7l-1.8-0.5l-1.9-0.4l-1.8-0.3l-1.9-0.7l-1.8-0.5l-3.7-0.6l-1.8-0.1l-3.7-0.1h-7.4l-1.8-0.3l-3.7-0.4
		h-1.8l-3.7,0.2l-1.9-0.1l-3.7-0.6l-1.9-0.3l-1.8-0.3l-3.7-0.1l-3.7,0.2l-1.8,0.1l-1.9-0.1l-3.7-0.2l-3.7,0.1l-1.9,0.3l-3.7,0.8
		l-1.8,0.7l-3.7,0.8l-3.7,1.4l-1.8,0.8l-3.7,1.4l-3.7,1.5l-1.8,0.8l-3.7,1.4l-3.7,1.6l-1.8,1l-1.9,0.9l-3.7,2.3l-1.8,1.4l-1.8,1.6
		l-3.7,3.5l-16.7,16.7l-2.8,3.7l-2.3,3.7l-0.9,1.9l-1,1.8l-0.8,1.9l-1,1.8l-0.8,1.8l-1,1.9l-1.6,3.7l-1.4,3.7l-1.5,3.7l-0.8,1.9
		l-0.8,1.8l-2.3,3.7l-1.5,1.4l-3.5,3l-3.7,3.1l-1.4,1.7l-2.4,3.7l-0.7,1.8l-0.2,3.7l0.9,3.7l1.2,1.8l1.2,1.4l3.1,3l3.1,3.1l1.8,3.5
		l0.4,1.8l0.2,3.7v11.1l-0.1,3.7l-0.3,1.9l-0.4,1.8l-1.3,3.7l-0.9,1.9l-2.6,3.7l-1,1.9l-1.8,3.7l-1.1,3.7l-0.4,1.9l-0.5,1.8
		l-0.7,3.7v3.7l0,1.8l-0.1,1.9l-0.8,3.7l-0.9,1.8l-1.9,3.7l-1.2,1.8l-2.8,3.7l-1.6,1.8l-3.6,3.2l-1.8,1.4l-1.9,1.2l-3.7,2.4
		l-1.8,1.4l-3,3.3l-1.4,1.8l-6,7.4l-2.8,3.7l-1.6,1.9l-1.2,1.8l-1.3,1.9l-2.7,3.7l-1.3,1.9l-2.2,3.7l-1.8,3.7l-1.4,3.7l-0.9,3.7v3.7
		l0.9,3.7l1.8,3.7l2.8,2.9l1.8,1.3l3.7,2.4l3.7,2.1l3.7,1.6l3.7,1.3l1.8,0.5l1.9,0.4l3.7,0.5l1.9,0.3l3.7,0.7l3.7,0.7h1.8l3.7,0.1
		l1.8,0.1l3.7,0.6l3.6,0.7l2.9,0.4h2.8l1.8,1.9v5.7l0.3,1.7l0.1,1.9l-0.4,3.7v1.8l-0.1,1.8l-0.6,3.7l-0.7,3.7l-0.4,1.9l-0.1,3.7
		l-0.3,1.9l-0.7,3.7l-0.7,3.7l-0.1,3.7l-0.3,1.9l-0.7,3.7l-0.7,3.7l0.3,3.3l0.1,1.5l-0.1,1.4l-0.4,3.1l-0.7,3.5l-0.5,1.9l-0.7,1.8
		l-0.3,1.8l-0.9,3.7l-0.4,1.9l-0.7,3.7l-0.8,3.7l-0.3,1.9l-0.7,3.7l-0.4,1.8l-0.4,1.8l-0.4,1.9l-0.7,3.7l-0.4,1.8l-0.4,1.9l-0.7,3.7
		l-0.1,1.9l-0.6,3.7l-0.4,1.8l-0.4,1.8l-0.7,3.7l-0.4,1.9l-0.4,1.8l-0.7,3.7l-0.8,5.5c0.2,0.1,0.5,0.3,0.7,0.4
		c1.5,0.8,2.9,1.6,4.4,2.4l0.9-4.6l0.7-3.7l0.4-1.8l0.4-1.9l0.4-1.8l0.7-3.7l0.3-1.9l0.4-1.8l0.6-3.7l0.1-3.7l0.7-3.7l0.5-1.9
		l0.7-3.7l0.7-1.8l0.5-1.8l1-3.2l0.1-1l0.8-5.6l1-4.4l1.6-5.5l1.2-4.1l1.4-5l1.3-9.6l0.6-4.4l0.9-3.1l0.3-3.5l0.1-3.1l0.6-2.5
		l0.6-3.8l0.7-1.9l0.6-3.1l-0.3-4.3l0.3-4.2l0.6-3.5l1.2-3.3l0.7-3.6v-1.7l0.7-2.7h10.4l-0.2,2.8l-0.9,2.9l-1.6,3.6l-1,1.8l-1.5,3.7
		l-2,12.2l-6.5,21.1l-1.5,24.4l-1.1,23.7l-0.6,16.4l-2.2,23.6c0.5,0.2,1,0.5,1.5,0.7c0.5,0.2,1,0.4,1.5,0.6c0.7,0.3,1.4,0.6,2.1,0.9
		c0.2,0.1,0.4,0.2,0.6,0.2c0.3-2.4,0.5-6.1,0.6-6.7c0.3-3.9,0.6-7.8,0.8-11.8c0.2-3.8,0.4-7.6,0.7-11.4v-45.8l0.7-3.7l0.4-1.8
		l0.3-1.9l0.3-1.8l0.1-1.8l0.9-3.7l0.7-1.9l0.7-1.8l0.8-1.8l1.3-3.7l0.5-1.9l0.7-3.7l0.1-1.8l0.7-3.7l0.5-1.8l0.4-1.9l1-3.7l0.6-1.9
		l0.6-1.8l1.2-3.7l1.3-3.7l0.8-1.8l1.3-3.6l0.4-1l0.5-2.8l2.7-0.7l2.4-1.7l2.1-2.3l2-2.7h5.6l3.7-0.7l3.7-0.9l1.9-0.3l1.8-0.7
		l1.9-0.5l1.8-0.4l3.7-0.9l1.8-0.5l1.9-0.4l1.8-0.3l3.7-1.2l1.8-0.4l3.7-1.1l1.7-0.9l1.6-1l1.5-1.4l3-3.2l3.3-3.7l5.6-5.6l1.8-1.8
		l1.7-1.9l3.1-3.7l2.6-3.7l1.2-1.8l2.1-3.7l1.6-3.7l1.4-3.7l1.6-3.7l1-1.9l0.9-1.8l2.2-3.7l1-1.8l2.6-3.7l0.9-1.9l1.4-3.7l0.6-1.9
		l0.8-1.8l1.9-3.5l1.4-1.5l0.7-1l2.6-1.4l2.7,3.8l2.8,3.6l3,3.7l3,3.7l1.4,1.9l3.6,3.7l1.6,1.8l1.5,1.8l2.6,3.7l2.3,3.7l1.1,1.9
		l2.1,3.7l1.9,3.7l0.8,1.9l0.8,1.8l1.5,3.7l0.7,1.8l0.7,1.9l1.2,3.7l0.6,1.8l0.6,1.8l0.5,1.9l1,3.7l0.6,1.8l1.1,3.7l0.6,1.8l0.7,3.7
		l0.7,1.8l0.5,1.9l0.6,3.7l0.1,3.7v50l0,3.7l-0.1,1.8l-0.6,3.7l-0.4,1.8l-0.7,3.7v29.6l0.7,3.7l0.4,1.8l0.6,3.7l0.1,1.8l0,3.7v5.6
		l0.7,3.7l0.4,1.9l0.6,3.7l0.1,1.9l0,3.7v1.8l0.7,3.7l0.7,3.7l0.3,1.8l0.1,3.7l0.3,4.9c0.9-0.3,1.8-0.5,2.8-0.8c0.1,0,0.1,0,0.2-0.1
		c1.1-0.3,2.1-0.6,3.2-1l-0.4-4.9l-0.4-3.7l0-3.7l-0.1-1.9l-0.6-3.7l-0.7-3.7l-0.4-1.9l0-3.7l-0.1-1.9l-0.6-3.7l-0.4-1.8l-0.7-3.7
		v-1.8l0-3.7l-0.1-1.9l-0.6-3.7l-0.4-1.9l-0.7-3.7v-35.2l0.7-3.7l0.4-1.9l0.6-3.7l0.1-1.8l0-3.7v-42.6l0-1.9l-0.1-1.8l-0.6-3.7
		l-0.8-3.7l-0.7-3.7l-0.4-1.8l-0.5-1.9l-0.6-1.8l-1.2-3.7l-2.5-7.4l-1.9-5.6l-0.6-1.8l-1.3-3.7l-0.7-1.8l-1.6-3.7l-0.9-1.9l-1.6-3.7
		l-0.8-1.9l-1.8-3.7l-1.1-1.8l-2.2-3.7l-1.2-1.8l-1.4-1.9l-1.5-1.8l-3.6-3.7l-3.7-3.3l-1.3-1.2l-2.4-1l-0.9-1l-0.9-1.3l-0.2-0.8
		l-0.6-1.4l-1.6-2.9l-0.5-3.7l1.1-3.7l2.8-5.6l0.8-3.7l0.1-3.6v-3.8l-2.8-1l-1-0.7l-1.9-1l-1.8-1.1l-1.9-1.2l-3.7-2.4l-1.8-1.2
		l-1.9-1.1l-3.7-2.4l-1.9-1.4l-1.8-1.4l-3.7-3.5l-3.7-3.1l-1.8-1.4l-3.7-3l-3.7-2.8l-3.7-2.4l-1.8-1.2l-3-2.8l-3-3.5l-3.3-3
		l-3.7-2.2l-1.9-0.5l-1.8-1l-3.7-0.8l-1.8-0.1l-3.7-0.4l-1.8,0.1l-3.7,0.3h-1.9l-3.7,0.2l-3.7,0.7l-1.9,1l-1.8,0.5l-3.7,2.2
		l-1.8,1.3l-1.9,1.5l-3.7,2.6l-1.8,1.6l-3,3.3l-3,2.8l-3.3,2.4l-1.8,1.2l-3.7,2.9l-0.9,0.9L162,211l-2.7-0.5l-2-0.6l-2.7-0.8v-25.9
		h9.3l3.7-0.8l3.7-1.1l1.8-0.6l3.7-1.2l3.7-1.8l1.8-1.3l1.7-1.3l3-2.9l2.4-3.7l1.1-1.8l1-1.9l2.4-3.7l0.6-1.8l0.3-1.8l-0.9-3.7
		l-1.1-1.8l-1.4-1.7l-3.5-2.6l-3.7-1.3l-3.7-1.2l-1.8-0.4l-5.6-1.4l-3.7-0.4l-1.8,0.2l-3.7,0.7l-0.9,0.3l-2.7,0.5l-0.1,0l0.5-2.8
		l0.8-2.8l0.2-0.5v0l1.1-3.2l0.8-1.9l0.7-1.8l1.5-3.7l1.1-1.9l2.3-3.7l1.3-1.9l1.1-1.8l2.4-3.7l2.8-3.6l3.7-3.3l1.8-1.6l1.9-1.4
		l1.8-1.5l3.7-3l1.8-1.4l3.7-2.6l1.9-1.2l3.7-2.1l3.7-1.6l3.7-1.4l3.7-1.6l1.8-1l1.9-0.8l1.8-1l3.7-1.4l1.8-0.5l3.7-0.8l1.9-0.4
		l1.8-0.4l3.7-0.6l1.8-0.1l1.9-0.1h20.4l1.9-0.4l3.7-0.7l3.7-0.5l1.9,0.1l3.7,0.1l3.7-0.1l1.8-0.1l3.7,0.5l3.7,0.7l1.8,0.4l1.8,0.1
		l3.7,0.6l9.3,2.3l1.9,0.7l3.7,0.8l1.8,1l1.8,0.5l1.9,1l3.6,2.2l3.1,2.4l1.4,1.3l3,1.9l1.9,1.1l1.8,1.3l3.6,3.2l1.6,1.8l1.5,1.9
		l2.6,3.7l1.2,1.8l2.4,3.7l1.2,1.8l2.1,3.7l0.9,1.9l1,1.8l0.8,1.8l1,1.9l1.4,3.7l0.5,1.8l0.4,1.9l0.7,3.7l0.9,3.7l0.3,1.9l1.1,3.7
		l0.4,1.9l0.7,3.7l0.3,1.8l0.4,1.9l0.6,3.7l0.1,1.9l0,3.7l0.7,3.7l0.4,1.9l0.6,3.7l0.1,3.7v11.1l0.7,3.7l0.4,1.8l0.6,3.7l0.1,1.8
		l0,1.9v7.4l0.7,3.7l0.4,1.9l0.6,3.7l0.1,1.8l0.8,3.7l0.5,1.8l1.1,3.7l0.6,1.9l0.7,3.7l0.7,1.9l0.5,1.8l0.4,1.9l0.7,3.7l0.3,1.9
		l0.4,1.8l0.6,3.7l0.1,1.8l0,3.7v70.4l0.7,3.7l0.4,1.8l0.6,3.7l0.1,1.9l0,3.7v13l0.7,3.7l0.4,1.9l0.6,3.7l0.1,1.9l0,3.7v1.8l0.7,3.7
		l0.7,3.7l0.3,1.8l0.1,3.7l0.4,1.8l0.7,3.7l0.6,3.7l0.1,1.8l0,3.7v11.1l0.7,3.7l0.4,1.8l0.4,1.8l0.7,3.7l0.4,1.9l0.7,3.7l0.4,3.7
		l0,3.7v1.9l0.7,3.7l0.4,1.9l0.6,3.7l0.1,1.8l0,3.7l0.7,7.8c1.2-0.8,2.5-1.6,3.7-2.4c1-0.6,2-1.3,3-2
		C389.8,455,389.8,452.8,389.7,452.4L389.7,452.4z"/>
	<path d="M271.8,175.9l3.1,2.8l1.9,1l1.9,0.9l3.7,1.1l1.9,0.5l1.9,0.6l1.9,0.6l3.7,1.1l3.7,0.8h9.3l3.7-0.7l1.9-0.4l3.7-0.6l1.9-0.1
		l3.7-0.1l3.7-0.8l1.9-0.5l3.7-1.3l1.7-0.9l1.5-1.1l2.3-2.8l0.9-1.9l0.3-3.7l-0.3-1.9l-1.8-3.6l-1.4-1.7l-3.3-3l-1.8-0.9l-3.7-2.1
		l-1.9-0.8l-3.7-1.3l-1.9-0.6l-7.4-1.9l-3.7-0.6l-3.7-0.2l-3.7,0.2l-3.7,0.7l-1.9,0.7l-3.7,1.3l-3.7,0.9l-1.9,0.4l-1.9,0.5l-3.7,1.5
		l-1.9,1.3l-1.9,0.9l-2.4,3l-1.4,3.5v3.7l1.4,3.7L271.8,175.9L271.8,175.9z M283.8,165.9l2.3-1.7l3.7-1l1.9-0.1l1.9-0.1h13l1.9,0.1
		l1.8,0.1l1.9,0.3l1,0.1l2.8,1.3l-0.2,2.8l-0.9,2.8l-0.8,1.9l-0.6,0.9l-1.2,2.8h-2.8l-2.9-0.4l-3.6-0.7l-3.7-0.6l-1.9-0.1l-3.7-0.1
		l-3.7-1.2L286,171l-3.7-2.5L283.8,165.9L283.8,165.9z"/>
	<g id="outline">
		<g>
			<path class="st3" d="M201.1,398.9l10.3,9.3l10.8,4.6h18.4l13.5-3.6l12.2-11.5l11-11.1l3.6-3.7l1.5-3.3l0.7-4.2c0,0-0.1-4.5,0-4.7
				s-1.7-6-1.7-6l-4.8-15.6l-7-13.3l-0.2,27.2l-3.6,12.4l-1.3-2.3l2.3-5.7l-0.3-5.1h-0.9l-4.6,5.1l-4.6,7l-3.9,5.2l-9.2,5.3l-8,4.1
				c0,0-10,1.8-10.5,1.9c-0.6,0.1-10.7,1.6-10.7,1.6l-11-2l-2.5-1.5l-1.7,4.5l0.8,3.7L201.1,398.9L201.1,398.9z"/>
			<path d="M227.5,416c-6.2-0.7-11.1-2.2-16-5.2c-1.7-1-4.5-2.6-6.1-3.5c-2.9-1.5-3.4-2.4-1.2-2.5c0.6-0.1,0.8-0.6,0.7-1.2
				c-0.2-0.7-0.5-2-0.7-2.9c-0.3-1.5-0.2-1.5,2,0.4c9,7.9,18.5,10.2,32.5,7.9c9.9-1.7,14.7-3.2,18.2-5.8c4.9-3.8,10.6-10,10.8-11.8
				c0.2-1.8,3.3-9.9,4.6-11.5c0.4-0.6,1.8-1.2,3.2-1.3c2.3-0.3,2.5-0.2,1.9,1.7c-0.7,2.8-0.7,3.4,0,6.1c0.5,2.1-0.1,2.9-6.6,9.1
				c-3.9,3.7-8.5,8.6-10.1,10.9c-1.7,2.2-5.2,5.5-7.9,7.2c-4.9,3.1-5.1,3.2-12.1,3.1C236.5,416.6,230.7,416.4,227.5,416L227.5,416
				L227.5,416z"/>
			<path d="M200,402.6c-0.9-1.2-2.2,2-2.7-5c-0.5-6,1.7-11.6,4-9.5c0.8,0.7,2.9,1.4,4.6,1.4c1.7,0,5,0.5,7.4,1.2
				c9.4,2.4,27.3-2.9,36.7-10.9c2.8-2.4,3.4-2.7,4.2-1.6c0.7,1.1,1.5,0.8,5.1-1.7c4.8-3.2,6.5-5.4,7.3-9.4c0.5-2.2,0.3-2.7-1.2-3.1
				c-2.2-0.6-2.2-0.8,0.7-6.2c2.3-4.4,2.4-4.8,2-13l-0.5-8.5l2,1.1c1.1,0.6,2.7,1.2,3.5,1.3c1.1,0.2,1.2-0.1,0.7-1.2
				c-0.4-0.7-1-2.1-1.2-3c-0.3-0.9-1-1.3-1.8-1c-0.7,0.2-1,0.2-0.7-0.2s-0.4-1-1.4-1.2c-1.1-0.2-1-0.4,0.3-0.5
				c3.8-0.2,7.5,5.7,9,14.8c0.5,2.5,1.3,6,1.9,7.9c3.3,9.9,3.2,9.4,1.4,11.9c-1,1.3-1.7,2.8-1.7,3.3s-0.3,0.9-0.7,0.9
				s-1,0.9-1.2,2.1c-0.5,2-2.2,3-2.2,1.2c0-1.7-1.7-0.7-1.7,1.1c-0.1,1.3-0.2,1.5-0.5,0.4c-0.6-2.4-1.8-1.7-8,4.1
				c-3.3,3.1-7.9,6.5-10.1,7.5c-2.2,1.1-5.4,2.6-7,3.4c-10.2,5.2-26.5,8-34.8,5.8c-7.3-1.9-8.3-1.9-8.3-0.5c0,0.7-0.4,1.3-0.9,1.3
				c-0.4,0-0.7,0.3-0.4,0.7s-0.2,1.7-1.2,2.7c-0.9,1.2-1.3,2.3-1.1,2.7c0.2,0.2,0.3,0.5,0.1,0.5S200.4,403.1,200,402.6L200,402.6
				L200,402.6z"/>
			<path d="M276.9,371.8c2.2-8.7,2.2-9.3,1-13.7c-0.7-2.6-1.7-6.7-2.3-9.2c-1.7-7.6-3.1-11.5-4.2-11.9c-0.8-0.3-1.2,0.3-1.2,2.4
				s-0.4,2.9-1.2,2.9c-1.2,0-2.1-3.2-2.3-8.4c-0.2-2.6,0.1-2.8,2.5-3.1c2.3-0.2,2.9,0.2,4.9,3.3c3.4,5.3,9.7,30,9.7,38
				c0.1,5.7-0.2,6.8-3.1,12.2c-2,3.7-6.5,9.5-12.5,16.1c-5.2,5.6-9.4,10.4-9.4,10.7c0,0.3-2,1.8-4.3,3.4c-4.1,2.7-4.8,2.8-12.3,3
				c-4.3,0.1-8.5-0.1-9.3-0.2l0,0c-0.8-0.2-1.5-1-1.5-1.7c0-0.9,1.5-1.2,7-1.2c7.5,0,10.7-1.1,15.7-5.3l2.5-2.1l-2.9,0.8
				c-8.5,2.7-16.8,4.1-24.4,4.1c-5.6,0-7.9,0.2-7,0.8c0.7,0.4,2.5,0.8,4,0.8c2.1,0,2.7,0.3,2.7,1.7c0,1.5-0.6,1.7-4.5,1.7
				c-3.8,0-5.9-0.7-12.9-4.3c-9.9-5.1-14.1-9.1-14.1-13.5c0-2.3,0.3-2.9,1.6-2.9c1.2,0,1.8,0.8,2.2,2.7c0.7,2.6,0.7,2.6,1.2-1.5
				l0.4-4.1l4.6,0.2c13.5,0.7,23.8,0.4,27.4-0.8c8.9-3.1,25.7-11.3,25.7-12.5c0-0.2-1.4-0.1-3.1,0.1c-1.7,0.2-4.4,1.4-6,2.7
				c-1.7,1.3-6.9,4-11.6,5.9l-8.7,3.6l-12.8-0.1c-7,0-13.8-0.2-15.1-0.6c-2.1-0.6-2.3-0.4-2.3,1.5c0,1.6-0.4,2.1-1.7,2.1
				c-1.7,0-1.7-0.3-1.3-5.1c0.5-6,1.7-7.2,4.2-4.3c2.2,2.4,6.7,3.4,16.2,3.5c5.9,0.1,12-1.1,13.8-2.6c0.4-0.3,1.4-0.7,2.2-0.7
				c0.8,0,2.2-0.3,3-0.8c0.7-0.4,3.5-1.6,6-2.5c4.9-1.7,9.1-5.4,14.6-12.5c4.3-5.6,9.1-14.3,9.9-17.9c0.3-1.6,1.1-2.7,1.7-2.7
				c1.5,0,1.6,6,0.2,8.5c-0.6,1-0.9,4-0.7,6.6c0.2,3.4-0.2,5.5-1.2,7c-0.7,1.2-0.9,1.7-0.2,1.2c0.6-0.6,2.5-1.1,4.1-1.1h3.1
				 M241,407.3c8-1.7,14.8-4.9,19.1-9c3.9-3.7,10.9-17.2,10.9-21.1c0-1.9-0.4-1.7-5.6,3.1c-4.3,4.1-8,6.5-16.1,10.5
				c-9.4,4.7-11.2,5.3-18.2,6c-7.3,0.9-18.2,0.6-23.2-0.6c-1.9-0.4-2.3-0.2-2.3,1.1c0,0.9,0.8,2.4,1.9,3.4c1.6,1.5,9.3,5.6,13,7
				C222.9,408.9,235.4,408.6,241,407.3L241,407.3L241,407.3z M272.7,389.4c1.1-1.2,1.7-2.9,1.6-4.7v-3l-2,4.1
				C269.4,391.6,269.5,392.7,272.7,389.4L272.7,389.4L272.7,389.4z"/>
			<g>
				<path d="M228.7,415.2c0-1.4,0.6-1.7,3.3-1.7s3.3,0.2,3.3,1.7s-0.6,1.7-3.3,1.7S228.7,416.6,228.7,415.2z"/>
				<path d="M276.3,371.1c0.3-2.9,1-5.6,1.4-6c1.1-1.2,0.9-5-0.5-8.5c-0.7-1.7-1.6-5.4-2-8c-0.5-2.7-1.8-6.8-3-9.1
					c-1.3-2.8-2-3.3-2.1-1.5c0,3.5-2.2,3.6-2.9,0.1c-0.4-1.8-0.2-2.8,0.5-3.3c0.9-0.6,0.8-0.7-0.2-0.7c-0.8,0-1.5-0.6-1.5-1.2
					c0-0.7,0.3-1.2,0.7-1.2c0.4,0,1.3-0.2,2.1-0.5c1.6-0.6,5.2,3.1,6.8,7c0.7,1.5,1.7,5,2.3,7.9c0.6,2.8,1.9,8.1,3,11.8
					c2.2,8.3,3.3,14.5,2.4,14.5c-0.4,0-0.7-0.8-0.7-1.8c-0.1-4.5-1.4-3.9-2.5,0.9c-0.8,4.1-1.3,5.1-2.7,5.1
					C275.9,376.3,275.8,375.9,276.3,371.1L276.3,371.1L276.3,371.1z"/>
				<path d="M258.6,370c2.9-3.1,3.8-3.6,2.8-1.8c-1.1,1.9-3.9,4.7-4.8,4.7C256.2,373,257,371.6,258.6,370L258.6,370z"/>
				<path d="M267.7,349.3c0-2.3,0.3-2.9,1.7-2.9c1.3,0,1.7,0.6,1.7,2.9s-0.3,2.9-1.7,2.9C268,352.2,267.7,351.6,267.7,349.3z"/>
			</g>
			<g>
				<path d="M225.3,416.3c-0.8-0.2-1.5-0.9-1.5-1.6c0-0.9,1.2-1.2,5-1.2c4.1,0,5,0.2,5,1.5c0,1.1-0.7,1.4-3.6,1.5
					C228.2,416.6,226,416.6,225.3,416.3L225.3,416.3z"/>
				<path d="M211.7,411.4c-2.3-1.2-4.9-2.9-5.8-3.7c-1-1-0.7-1.6,1.1-1.6c4.2,0,9.3,2.9,9.3,5.4c0,1.2-0.1,2.1-0.2,2.1
					C216,413.6,214,412.6,211.7,411.4L211.7,411.4z"/>
				<path d="M204.7,404c0-0.7-0.6-1.2-1.2-1.2c-1,0-1.2-1.1-1.2-5v-5h2.9c1.6,0,2.9,0.4,2.9,0.8c0,0.5-0.7,0.8-1.7,0.8
					c-0.9,0-1.5,0.3-1.2,0.7c0.2,0.4,0.1,1-0.4,1.3c-1.4,0.9-0.9,1.9,2.6,5.4l3.4,3.3h-3C205.6,405.3,204.7,404.9,204.7,404
					L204.7,404z"/>
				<path d="M265.2,399.6c0-0.5-0.7-1-1.7-1.2c-1.7-0.2-1.6-0.4,0.6-2.7c1.7-1.9,3.1-2.6,5.9-2.8l3.5-0.2l-2.7,2.8
					C267.2,399.2,265.2,400.7,265.2,399.6L265.2,399.6L265.2,399.6z"/>
				<path d="M210.3,395.7c-2.2-1.6-1.7-2.1,1.9-2.1c2.6,0,3.3,0.3,3.3,1.5C215.5,396.9,212.3,397.2,210.3,395.7L210.3,395.7z"/>
				<path d="M232.1,389.6c0-0.7,2-1.8,4.4-2.2c0.9-0.2,1.4,0.2,1.4,1.3c0,1.3-0.6,1.7-2.9,1.7C233.4,390.4,232,390,232.1,389.6
					L232.1,389.6z"/>
				<path d="M243.7,384.8c0-0.3,1.6-1.7,3.4-3.1l3.3-2.3l-0.2,2.7c-0.2,2.6-0.5,2.8-3.3,3.1C245.1,385.4,243.7,385.2,243.7,384.8
					L243.7,384.8z"/>
				<path d="M257.7,383.5c0-2.6,1.5-3.9,4.3-3.9s2.9,0.8,0.5,3.1C259.5,385.4,257.8,385.6,257.7,383.5L257.7,383.5z"/>
				<path d="M266,357.5c0-0.2,0.4-1.2,0.8-2c0.5-0.8,0.9-3.1,1-4.9c0.1-2.7,0.4-3.4,1.7-3.4c1.2,0,1.5,0.7,1.5,3.6
					c0,5.5-0.7,7.2-3,7.2C267,358,266,357.8,266,357.5L266,357.5z"/>
				<path d="M266.9,336.1c-1.2-4.9-1.2-4.6,1.6-4.6c2.2,0,2.5,0.2,2.5,2.8C271,340.7,268.4,341.8,266.9,336.1L266.9,336.1z"/>
			</g>
			<g>
				<path d="M205.8,407.8c-4.6-2.7-6.4-4.9-7-8.5c-0.3-1.7-0.1-2.3,0.7-2.3c0.7,0,1.2-0.6,1.2-1.2c0-0.7,0.8-1.2,2.2-1.2
					c1.9,0,2.1,0.2,1.7,2c-0.3,1.5,0.1,2.7,1.6,4.5c1.2,1.4,2.1,3.1,2.1,3.8s0.7,1.3,1.7,1.3c1.2,0,1.7,0.6,1.7,2.1
					C211.3,410.7,211,410.7,205.8,407.8L205.8,407.8z"/>
				<path d="M208.3,395.2c-3.7-1.2-3.6-3.1,0.2-3.1c2.6,0,2.9,0.2,2.9,2.1c0,1.2-0.1,2.1-0.2,2C211,396,209.7,395.6,208.3,395.2z"/>
				<path d="M216.6,394.7c-1.2-0.2-1.9-1-1.9-1.9c0-1.3,0.8-1.6,5.4-1.8l5.4-0.2v2.3c0,2.1-0.2,2.2-3.5,2.2
					C219.9,395.2,217.5,394.9,216.6,394.7L216.6,394.7z"/>
				<path d="M233.7,389.3c0-0.6,1.9-1.8,4.3-2.7c2.4-0.8,4.6-1.7,5-1.8c0.3-0.2,0.7,0.7,0.7,1.8c0,1.7-0.4,2.2-2.1,2.2
					c-1.2,0-2.1,0.4-2.1,0.8c0,0.5-1.3,0.8-2.9,0.8C234.8,390.4,233.7,389.9,233.7,389.3L233.7,389.3L233.7,389.3z"/>
				<path d="M256.9,383.3c0-1.5,0.4-2.1,1.6-2.1c0.8,0,1.7-0.7,2-1.7c0.3-1.2,1.2-1.7,3.1-1.7c2.4,0,2.5,0.1,1.4,1.7
					c-1.3,1.8-6.3,5.7-7.4,5.7C257.2,385.4,256.9,384.5,256.9,383.3L256.9,383.3L256.9,383.3z"/>
				<path d="M267.9,353.5c0.5-1.6,1.3-2.9,2-2.9s1.1,1.1,1.1,2.9c0,2.5-0.2,2.9-2,2.9C267.1,356.4,267,356.2,267.9,353.5z"/>
				<path d="M267.9,340.2c-0.2-0.7-0.2-2.5,0.1-4c0.3-1.9,0.2-2.3-0.3-1.4c-0.7,1-0.8,0.7-0.8-1c0-5.2,6.5-1.4,9,5.4l0.9,2.2h-4.2
					C269.7,341.5,268.4,341.1,267.9,340.2L267.9,340.2z"/>
			</g>
		</g>
	</g>
</g>
<g id="flat_border">
	<path d="M435.9,82.8C400.7,44.2,355.1,17.1,304,5.9C190.3-19.1,73.8,37.5,23.8,143.6c-11.5,24.6-18.9,50.4-22.1,77.4
		C-5,280.8,9.3,338.5,42,388.4c29.1,43,69.6,75.9,118,94.5c126.1,48.6,267.1-11.7,320.1-135.7C517.9,256.9,500.5,155.9,435.9,82.8
		L435.9,82.8z M388.7,447.1c-0.3,0.2-9.9,6.7-11.2,7.5c-14,8.7-28.8,15.9-44.3,21.7c-0.9,0.3-13,4.3-13.2,4.3
		c-54,16.8-112.5,13.2-163.8-8.5c-0.2-0.1-8.6-4-8.8-4.1c-3.9-1.7-5.7-2.5-8.2-4.1l0,0c-0.2-0.1-8.8-4.6-9.1-4.7
		C82.5,431.4,48,392,26.7,341.1c-7.1-17.7-12.2-35.9-15.1-54.7c-0.3-2.2-0.6-4.3-0.8-6.4c-3.4-28.8-2.2-56.6,4.3-84.9
		c2.6-11.1,6-22.2,10.3-33.1c4.2-10.8,9.2-21.3,15-31.4c8.6-15,18.6-29,30.2-41.9C81.7,76.3,94,65.2,107.4,55.4l0,0
		c51.4-37.4,114.2-52.9,177.3-44.3c3.3,0.4,9.4,1.7,18.4,3.7c15.8,3.5,31.2,8.6,46,15.3c16.4,7.4,31.8,16.5,46.2,27.4
		c9.9,7.5,19.2,15.7,27.9,24.6c27.1,28.2,46.4,61,57.8,98.5c5.8,19.2,9.1,38.9,10,59c0.8,19.3-0.7,38.5-4.4,57.5
		C474.3,357.8,439.4,411.4,388.7,447.1L388.7,447.1z"/>
</g>
<g id="flat_border-2">
	<path d="M434.6,84c-35-38.3-80.2-65.2-131-76.4C190.8-17.3,75,39,25.4,144.3c-11.5,24.4-18.8,50-21.9,76.8
		c-6.7,59.4,7.4,116.7,40,166.3c28.9,42.7,69.1,75.3,117.2,93.8c125.2,48.2,265.2-11.7,317.8-134.8
		C516.1,256.9,498.7,156.5,434.6,84L434.6,84z M387.7,445.7c-0.3,0.2-9.9,6.6-11.1,7.4c-14,8.6-28.6,15.8-44,21.5
		c-0.9,0.3-12.9,4.2-13.1,4.3c-53.6,16.7-111.7,13.1-162.6-8.4c-0.2-0.1-8.5-4-8.7-4.1c-3.9-1.7-5.7-2.5-8.1-4l0,0
		c-0.2-0.1-8.7-4.5-9-4.7C83.7,430.1,49.4,391,28.3,340.4c-7.1-17.5-12.1-35.7-15-54.3c-0.3-2.1-0.6-4.3-0.8-6.4
		c-3.4-28.6-2.2-56.2,4.3-84.3c2.6-11.1,6-22,10.2-32.8c4.2-10.8,9.2-21.1,14.9-31.2c8.5-14.9,18.5-28.8,30-41.6
		c11-12.3,23.2-23.3,36.5-33l0,0c51-37.2,113.4-52.5,176-44c3.3,0.4,9.4,1.7,18.3,3.6c15.7,3.5,31,8.5,45.7,15.2
		c16.3,7.3,31.5,16.4,45.8,27.2c9.9,7.4,19.1,15.6,27.7,24.4c26.9,28,46.1,60.5,57.4,97.8c5.7,19.1,9,38.6,9.9,58.6
		c0.8,19.2-0.7,38.2-4.4,57.1C472.7,357,438,410.2,387.7,445.7L387.7,445.7z"/>
</g>
</svg>
