<?xml version="1.0" encoding="utf-8"?>
<!-- Generator: Adobe Illustrator 28.2.0, SVG Export Plug-In . SVG Version: 6.00 Build 0)  -->
<svg version="1.1" id="Layer_1" xmlns="http://www.w3.org/2000/svg" xmlns:xlink="http://www.w3.org/1999/xlink" x="0px" y="0px"
	 viewBox="0 0 500 500" style="enable-background:new 0 0 500 500;" xml:space="preserve">
<style type="text/css">
	.st0{fill:url(#SVGID_1_);}
	.st1{fill:url(#SVGID_00000128478406217728569300000000983774684267094664_);}
	.st2{fill:#FFFFFF;filter:url(#Adobe_OpacityMaskFilter);}
	
		.st3{mask:url(#path-2-inside-1_11942_10021_00000134222522230767948080000006215853065978369209_);fill:url(#SVGID_00000037676235133547698050000012082138335298420632_);}
	.st4{fill:#D9D9D9;filter:url(#Adobe_OpacityMaskFilter_00000062183112199474255740000010902260499044385972_);}
	.st5{mask:url(#mask0_11942_10021_00000168112931442175899750000015396744187675504781_);}
	.st6{fill-rule:evenodd;clip-rule:evenodd;fill:#FFFFFF;}
	.st7{fill-rule:evenodd;clip-rule:evenodd;fill:#FFFFFF;fill-opacity:0.2;}
</style>
<linearGradient id="SVGID_1_" gradientUnits="userSpaceOnUse" x1="287.5244" y1="428.3105" x2="274.6661" y2="10.2554" gradientTransform="matrix(0.8889 0 0 -0.8889 0.1111 446.7778)">
	<stop  offset="0" style="stop-color:#AF5BF9"/>
	<stop  offset="1" style="stop-color:#557AE9"/>
</linearGradient>
<path class="st0" d="M500,249.5c0-138.1-111.9-250-250-250C112-0.5,0,111.5,0,249.5c0,138.1,111.9,250,250,250
	C388.1,499.5,500,387.6,500,249.5z"/>
<linearGradient id="SVGID_00000178896441755781525000000001524906125734797204_" gradientUnits="userSpaceOnUse" x1="587.5291" y1="570.9099" x2="27.1397" y2="-67.4882" gradientTransform="matrix(0.8889 0 0 -0.8889 0.1111 446.7778)">
	<stop  offset="0" style="stop-color:#542ACA"/>
	<stop  offset="1" style="stop-color:#170745"/>
</linearGradient>
<path style="fill:url(#SVGID_00000178896441755781525000000001524906125734797204_);" d="M500,249.5c0-138.1-111.9-250-250-250
	C112-0.5,0,111.5,0,249.5c0,138.1,111.9,250,250,250C388.1,499.5,500,387.6,500,249.5z"/>
<g>
	<path d="M292.5,28.5c41.9,8,80.6,27.6,111.8,56.8c31.1,29.1,53.3,66.5,64,107.8c10.7,41.3,9.5,84.7-3.6,125.3
		c-13,40.6-37.3,76.6-70.1,104c-32.7,27.3-72.6,44.8-114.8,50.3c-42.3,5.6-85.2-1-123.9-19c-38.7-17.9-71.5-46.5-94.5-82.3
		c-23.1-35.8-35.5-77.5-35.8-120.2c-0.4-59.7,22.8-117.1,64.7-159.6c41.9-42.5,98.9-66.6,158.6-67.1
		C263.4,24.4,278.1,25.7,292.5,28.5z M210,459.4c13.8,2.6,27.8,3.9,41.9,3.8c54.6-0.5,106.8-22,146-60c39.2-38,62.2-89.6,64.4-144.1
		c2.2-54.5-16.7-107.8-52.7-148.8c-36-41-86.4-66.6-140.7-71.5C214.5,33.9,160.4,50.1,117.7,84c-42.7,33.9-70.8,83-78.3,137
		c-7.6,54,5.9,108.9,37.7,153.3C108.8,418.7,156.4,449.1,210,459.4z"/>
	<defs>
		<filter id="Adobe_OpacityMaskFilter" filterUnits="userSpaceOnUse" x="2.5" y="1.5" width="496" height="496">
			<feColorMatrix  type="matrix" values="1 0 0 0 0  0 1 0 0 0  0 0 1 0 0  0 0 0 1 0"/>
		</filter>
	</defs>
	
		<mask maskUnits="userSpaceOnUse" x="2.5" y="1.5" width="496" height="496" id="path-2-inside-1_11942_10021_00000134222522230767948080000006215853065978369209_">
		<path class="st2" d="M292.5,28.5c41.9,8,80.6,27.6,111.8,56.8c31.1,29.1,53.3,66.5,64,107.8c10.7,41.3,9.5,84.7-3.6,125.3
			c-13,40.6-37.3,76.6-70.1,104c-32.7,27.3-72.6,44.8-114.8,50.3c-42.3,5.6-85.2-1-123.9-19c-38.7-17.9-71.5-46.5-94.5-82.3
			c-23.1-35.8-35.5-77.5-35.8-120.2c-0.4-59.7,22.8-117.1,64.7-159.6c41.9-42.5,98.9-66.6,158.6-67.1
			C263.4,24.4,278.1,25.7,292.5,28.5z M210,459.4c13.8,2.6,27.8,3.9,41.9,3.8c54.6-0.5,106.8-22,146-60
			c39.2-38,62.2-89.6,64.4-144.1c2.2-54.5-16.7-107.8-52.7-148.8c-36-41-86.4-66.6-140.7-71.5C214.5,33.9,160.4,50.1,117.7,84
			c-42.7,33.9-70.8,83-78.3,137c-7.6,54,5.9,108.9,37.7,153.3C108.8,418.7,156.4,449.1,210,459.4z"/>
	</mask>
	
		<linearGradient id="SVGID_00000106110735711197097940000011684040609829965453_" gradientUnits="userSpaceOnUse" x1="499.7805" y1="301.2301" x2="61.3142" y2="141.7807" gradientTransform="matrix(0.8889 0 0 -0.8889 0.1111 446.7778)">
		<stop  offset="0" style="stop-color:#29BCFA"/>
		<stop  offset="0.43" style="stop-color:#6464E4"/>
		<stop  offset="1" style="stop-color:#B45AFA"/>
	</linearGradient>
	
		<path style="mask:url(#path-2-inside-1_11942_10021_00000134222522230767948080000006215853065978369209_);fill:url(#SVGID_00000106110735711197097940000011684040609829965453_);" d="
		M292.5,28.5l4.3-22.6l0,0L292.5,28.5z M25.5,251.2l23-0.2v0L25.5,251.2z M248.8,24.5l-0.2-23h0L248.8,24.5z M210,459.4l-4.3,22.6
		l0,0L210,459.4z M251.9,463.1l0.2,23l0,0L251.9,463.1z M288.2,51.1c37.6,7.1,72.4,24.8,100.4,51L420,68.4
		c-34.3-32.1-77-53.8-123.2-62.6L288.2,51.1z M388.5,102c27.9,26.2,47.9,59.7,57.5,96.8l44.5-11.5c-11.8-45.5-36.3-86.7-70.6-118.8
		L388.5,102z M446,198.8c9.6,37.1,8.5,76.1-3.2,112.5l43.8,14.1c14.4-44.7,15.7-92.6,3.9-138.1L446,198.8z M442.8,311.3
		c-11.7,36.4-33.5,68.8-62.9,93.3l29.5,35.3c36.1-30.1,62.9-69.8,77.3-114.6L442.8,311.3z M379.9,404.6
		c-29.4,24.5-65.1,40.2-103.1,45.2l6,45.6c46.6-6.1,90.5-25.3,126.6-55.4L379.9,404.6z M276.8,449.8c-38,5-76.5-0.9-111.3-17
		l-19.3,41.7c42.6,19.8,90,27,136.6,20.9L276.8,449.8z M165.5,432.8c-34.7-16.1-64.2-41.7-84.9-73.9L42,383.8
		c25.4,39.5,61.6,71,104.2,90.8L165.5,432.8z M80.6,358.9C59.9,326.7,48.8,289.3,48.5,251l-46,0.3c0.3,47,14,92.9,39.5,132.4
		L80.6,358.9z M48.5,251c-0.4-53.6,20.5-105.1,58.1-143.2L73.8,75.5C27.7,122.3,2,185.6,2.5,251.3L48.5,251z M106.6,107.7
		c37.6-38.2,88.8-59.8,142.4-60.2l-0.3-46C182.8,2,120,28.6,73.8,75.5L106.6,107.7z M248.9,47.5c13.2-0.1,26.3,1.1,39.3,3.5
		l8.5-45.2c-15.9-3-32-4.4-48.1-4.3L248.9,47.5z M205.8,482c15.3,2.9,30.8,4.3,46.3,4.2l-0.3-46c-12.6,0.1-25.1-1-37.4-3.4
		L205.8,482z M252.1,486.1c60.5-0.6,118.4-24.4,161.8-66.5l-32-33c-34.9,33.9-81.5,53-130.2,53.5L252.1,486.1z M413.9,419.7
		c43.4-42.1,69-99.3,71.4-159.7l-46-1.8c-1.9,48.6-22.5,94.6-57.4,128.5L413.9,419.7z M485.3,260c2.4-60.4-18.5-119.5-58.4-164.9
		l-34.6,30.4c32.1,36.6,48.9,84.1,47,132.7L485.3,260z M426.9,95.1c-39.9-45.4-95.7-73.8-156-79.2l-4.1,45.8
		c48.5,4.4,93.4,27.2,125.5,63.7L426.9,95.1z M270.9,15.9C210.7,10.5,150.7,28.4,103.4,66l28.6,36c38.1-30.3,86.4-44.7,134.9-40.4
		L270.9,15.9z M103.4,66C56,103.6,24.9,158,16.5,217.9l45.6,6.4c6.7-48.2,31.8-91.9,69.9-122.2L103.4,66z M16.5,217.9
		c-8.4,59.9,6.6,120.7,41.8,169.9l37.4-26.8c-28.3-39.6-40.4-88.5-33.6-136.7L16.5,217.9z M58.3,387.7c35.2,49.2,88,82.9,147.4,94.2
		l8.6-45.2c-47.8-9.1-90.3-36.3-118.6-75.8L58.3,387.7z"/>
</g>
<defs>
	<filter id="Adobe_OpacityMaskFilter_00000095308303477434119800000011162381828118159749_" filterUnits="userSpaceOnUse">
		<feColorMatrix  type="matrix" values="1 0 0 0 0  0 1 0 0 0  0 0 1 0 0  0 0 0 1 0"/>
	</filter>
</defs>
<mask maskUnits="userSpaceOnUse" id="mask0_11942_10021_00000168112931442175899750000015396744187675504781_">
	
		<circle style="fill:#D9D9D9;filter:url(#Adobe_OpacityMaskFilter_00000095308303477434119800000011162381828118159749_);" cx="249.5" cy="249.5" r="29.6"/>
</mask>
<g class="st5">
</g>
<path class="st6" d="M324.6,325.1c0,0.1,0,0.3,0,0.4c0,1.1-0.6,2.1-1.5,2.7l-75.7,46.7c-1,0.6-2.3,0.6-3.3,0L169,328.8
	c-0.9-0.6-1.5-1.6-1.5-2.7c0-0.1,0-0.2,0-0.3c0-0.1,0-0.2,0-0.3l0-57.6c0-0.1,0-0.1,0-0.2c-0.1-0.8,0.2-1.7,0.8-2.3
	c1-1.1,2.7-1.4,4-0.6l73.8,42.8l73.1-42.4c0.1-0.1,0.2-0.1,0.4-0.2c0.5-0.4,1.2-0.7,1.9-0.7c1.8,0,3.2,1.4,3.2,3.2l0,57.2
	C324.6,324.8,324.6,324.9,324.6,325.1z M173.8,320.5l21.8-13.2l-21.8-30L173.8,320.5z M199.4,312.4c-6.1,3.7-22.6,13.7-22.6,13.7
	l58.8,36.1L199.4,312.4z M257,361.5l58.4-36L292.8,312L257,361.5z M296.5,306.8l21.8,13.1l0-43.2L296.5,306.8z M244.4,314L182,277.8
	l64,88.1l63.4-87.7L247.6,314C246.6,314.5,245.4,314.5,244.4,314z M170.5,252.4c-1.7-0.1-3.1-1.5-3.1-3.2l0-74.9c0-0.2,0-0.4,0-0.5
	c0-0.2,0-0.3,0-0.5c0-1.1,0.6-2.1,1.5-2.7l75.7-46.4c1-0.6,2.3-0.6,3.3,0l75.1,45.9c0.9,0.6,1.5,1.6,1.5,2.7c0,0,0,0.1,0,0.1
	c0,0,0,0.1,0,0.1l0,75.9c0,1.3-0.8,2.5-2,3l-75.1,41.3c-1,0.5-2.1,0.5-3.1,0L170.5,252.4z M173.8,178.9l0,60.3l27-44L173.8,178.9z
	 M318.3,178.3L291,194.8l27.3,44.4L318.3,178.3z M287.7,189.4c7-4.2,27.6-16.7,27.6-16.7l-60.6-37L287.7,189.4z M236.8,136.4
	l-60.1,36.9l27.4,16.5L236.8,136.4z M175.8,248.1l70.2,38.6l70.2-38.6L246,133.6L175.8,248.1z"/>
<path class="st7" d="M324.6,325.1c0,0.1,0,0.3,0,0.4c0,1.1-0.6,2.1-1.5,2.7l-75.7,46.7c-1,0.6-2.3,0.6-3.3,0L169,328.8
	c-0.9-0.6-1.5-1.6-1.5-2.7c0-0.1,0-0.2,0-0.3c0-0.1,0-0.2,0-0.3l0-57.6c0-0.1,0-0.1,0-0.2c-0.1-0.8,0.2-1.7,0.8-2.3
	c1-1.1,2.7-1.4,4-0.6l73.8,42.8l73.1-42.4c0.1-0.1,0.2-0.1,0.4-0.2c0.5-0.4,1.2-0.7,1.9-0.7c1.8,0,3.2,1.4,3.2,3.2l0,57.2
	C324.6,324.8,324.6,324.9,324.6,325.1z M173.8,320.5l21.8-13.2l-21.8-30L173.8,320.5z M199.4,312.4c-6.1,3.7-22.6,13.7-22.6,13.7
	l58.8,36.1L199.4,312.4z M257,361.5l58.4-36L292.8,312L257,361.5z M296.5,306.8l21.8,13.1l0-43.2L296.5,306.8z M244.4,314L182,277.8
	l64,88.1l63.4-87.7L247.6,314C246.6,314.5,245.4,314.5,244.4,314z M170.5,252.4c-1.7-0.1-3.1-1.5-3.1-3.2l0-74.9c0-0.2,0-0.4,0-0.5
	c0-0.2,0-0.3,0-0.5c0-1.1,0.6-2.1,1.5-2.7l75.7-46.4c1-0.6,2.3-0.6,3.3,0l75.1,45.9c0.9,0.6,1.5,1.6,1.5,2.7c0,0,0,0.1,0,0.1
	c0,0,0,0.1,0,0.1l0,75.9c0,1.3-0.8,2.5-2,3l-75.1,41.3c-1,0.5-2.1,0.5-3.1,0L170.5,252.4z M173.8,178.9l0,60.3l27-44L173.8,178.9z
	 M318.3,178.3L291,194.8l27.3,44.4L318.3,178.3z M287.7,189.4c7-4.2,27.6-16.7,27.6-16.7l-60.6-37L287.7,189.4z M236.8,136.4
	l-60.1,36.9l27.4,16.5L236.8,136.4z M175.8,248.1l70.2,38.6l70.2-38.6L246,133.6L175.8,248.1z"/>
</svg>
