<svg width="32" height="32" viewBox="0 0 32 32" fill="none" xmlns="http://www.w3.org/2000/svg">
<rect width="32" height="32" rx="16" fill="#162F29"/>
<path d="M4.70215 20.2139C4.21795 18.935 3.9449 17.5516 3.9248 16.1074L4.06445 16.1074C4.13654 16.9149 4.35798 17.6785 4.70215 18.3711L4.70215 20.2139ZM4.71094 12.6748C4.28039 13.5344 4.03711 14.5049 4.03711 15.5322C4.03712 15.6538 4.04114 15.7746 4.04785 15.8945L3.93359 15.8945C3.95368 14.4504 4.22676 12.7046 4.71094 11.4258L4.71094 12.6748ZM6.50391 23.3994C6.04755 22.8197 5.64324 22.1967 5.29785 21.5381L5.49023 21.4971L4.89941 18.7373C5.04676 18.9908 5.21194 19.2322 5.3916 19.4619L5.81152 21.4277L6.07031 21.3721L6.50391 23.3994ZM6.0791 10.6299L5.82031 10.5742L5.67285 11.2627C5.49063 11.4653 5.32238 11.6804 5.16699 11.9053L5.49902 10.5049L5.30664 10.4639C5.65201 9.80525 6.05637 9.18224 6.5127 8.60254L6.0791 10.6299ZM8.49805 25.3994C8.01708 25.0181 7.56584 24.6006 7.14844 24.1514L6.74121 22.9951L6.99023 22.9072L6.02344 20.1582C6.1826 20.3095 6.34934 20.4526 6.52344 20.5869L7.30078 22.7969L7.5498 22.709L8.49805 25.3994ZM7.55859 9.29297L7.30957 9.2041L6.97363 10.1582C6.81371 10.2609 6.65852 10.3701 6.50879 10.4863L6.99902 9.09473L6.74902 9.00684L7.15723 7.84961C7.57453 7.40047 8.026 6.98273 8.50684 6.60156L7.55859 9.29297ZM10.7021 26.7881C10.2152 26.5508 9.74634 26.2818 9.29883 25.9834L8.42676 24.3486L8.66016 24.2236L6.84375 20.8213C7.021 20.9413 7.20519 21.0514 7.39453 21.1533L8.95019 24.0684L9.18359 23.9424L10.7021 26.7881ZM9.19238 8.05859L8.95898 7.93359L8.07129 9.5957C7.90498 9.66134 7.74213 9.73358 7.58301 9.8125L8.66895 7.77832L8.43555 7.65332L9.30762 6.01855C9.75513 5.72011 10.224 5.45114 10.7109 5.21387L9.19238 8.05859ZM12.9258 27.6094C12.4853 27.4948 12.0541 27.3561 11.6348 27.1943L10.2773 25.0928L10.5 24.9492L8.30762 21.5547C8.46836 21.6108 8.63153 21.6618 8.79785 21.7051L10.7764 24.7695L10.998 24.626L12.9258 27.6094ZM11.0068 7.37598L10.7842 7.23242L9.50195 9.2168C9.35274 9.23796 9.20527 9.26455 9.05957 9.2959L10.5088 7.05273L10.2861 6.90918L11.6436 4.80762C12.063 4.64578 12.494 4.50618 12.9346 4.3916L11.0068 7.37598ZM15.3916 27.9824C14.9824 27.9634 14.5782 27.9242 14.1807 27.8652L12.0342 25.2637L12.2383 25.0947L9.56348 21.8535C9.71684 21.8737 9.87171 21.8893 10.0283 21.8984L12.4912 24.8848L12.6953 24.7158L15.3916 27.9824ZM12.7041 7.28613L12.5 7.11719L10.8086 9.16699C10.6742 9.1585 10.5388 9.15333 10.4023 9.15332C10.3992 9.15332 10.3957 9.15331 10.3926 9.15332L12.2461 6.90723L12.043 6.73828L14.1895 4.13672C14.5869 4.07777 14.9912 4.03852 15.4004 4.01953L12.7041 7.28613ZM17.9375 27.833C17.58 27.8923 17.217 27.9359 16.8496 27.9629L14.0361 25.1631L14.2227 24.9756L11.1035 21.8711C11.2407 21.856 11.3763 21.8352 11.5107 21.8115L14.4541 24.7412L14.6406 24.5527L17.9375 27.833ZM14.6494 7.44824L14.4629 7.26074L12.2783 9.43359C12.1579 9.39642 12.0355 9.36407 11.9121 9.33398L14.2314 7.02637L14.0449 6.83789L16.8584 4.03906C17.2258 4.06605 17.5888 4.10963 17.9463 4.16894L14.6494 7.44824ZM20.2422 27.209C19.9273 27.3293 19.6053 27.4364 19.2783 27.5303L15.9951 24.8379L16.1631 24.6328L12.4375 21.5752C12.5583 21.5343 12.6775 21.4902 12.7949 21.4424L16.3711 24.377L16.5391 24.1719L20.2422 27.209ZM16.5479 7.83008L16.3799 7.62402L13.5195 9.96973C13.4161 9.91136 13.3111 9.85537 13.2041 9.80273L16.1719 7.36914L16.0039 7.16406L19.2871 4.4707C19.614 4.56456 19.9352 4.67274 20.25 4.79297L16.5479 7.83008ZM22.4014 26.123C22.1297 26.296 21.8503 26.4582 21.5645 26.6094L17.6133 24.0967L17.7549 23.8721L13.4492 21.1328C13.5574 21.0736 13.6633 21.0106 13.7676 20.9453L17.9316 23.5937L18.0732 23.3701L22.4014 26.123ZM18.082 8.63184L17.9404 8.40723L14.4629 10.6191C14.3734 10.5448 14.282 10.4728 14.1885 10.4033L17.7637 8.12891L17.6221 7.90527L21.5732 5.39258C21.8592 5.54375 22.1384 5.70591 22.4102 5.87891L18.082 8.63184ZM24.2998 24.6279C24.0793 24.8406 23.8504 25.0448 23.6143 25.2402L19.1133 22.8945L19.2354 22.6582L14.6592 20.2734C14.7455 20.1955 14.8301 20.1157 14.9121 20.0332L19.3867 22.3662L19.5088 22.1309L24.2998 24.6279ZM19.5176 9.87109L19.3955 9.63574L15.4746 11.6787C15.407 11.5895 15.3367 11.5025 15.2646 11.417L19.2432 9.34277L19.1211 9.10742L23.623 6.76172C23.8592 6.9571 24.0881 7.16145 24.3086 7.37402L19.5176 9.87109ZM25.8867 22.752C25.7181 22.9981 25.5404 23.2382 25.3545 23.4707L20.3955 21.5977L20.4883 21.3496L15.4326 19.4385C15.5021 19.3487 15.57 19.2576 15.6348 19.1641L20.6045 21.041L20.6973 20.793L25.8867 22.752ZM20.7061 11.209L20.6133 10.9609L16.0898 12.668C16.04 12.5687 15.9874 12.4712 15.9326 12.375L20.4971 10.6523L20.4033 10.4043L25.3633 8.53125C25.5492 8.7638 25.7269 9.00381 25.8955 9.25L20.7061 11.209ZM27.042 20.6387C26.9279 20.9084 26.8046 21.1734 26.6719 21.4326L21.2676 20.082L21.332 19.8252L16.0361 18.501C16.0882 18.4019 16.1376 18.3013 16.1846 18.1992L21.4111 19.5049L21.4756 19.248L27.042 20.6387ZM21.4844 12.7539L21.4199 12.4961L16.5068 13.7236C16.4756 13.6176 16.4418 13.5128 16.4053 13.4092L21.3398 12.1768L21.2764 11.9189L26.6797 10.5693C26.8124 10.8286 26.9367 11.0935 27.0508 11.3633L21.4844 12.7539ZM27.7686 18.2568C27.7132 18.5414 27.6482 18.8226 27.5732 19.0996L21.8672 18.3975L21.8994 18.1338L16.4697 17.4658C16.5033 17.3599 16.5344 17.2528 16.5625 17.1445L21.9395 17.8066L21.9717 17.5439L27.7686 18.2568ZM21.9805 14.458L21.9482 14.1953L16.7295 14.8369C16.7176 14.727 16.7029 14.6179 16.6855 14.5098L21.9082 13.8682L21.876 13.6045L27.582 12.9023C27.657 13.1793 27.722 13.4606 27.7773 13.7451L21.9805 14.458ZM27.9941 16.4307L27.9824 16.4307L27.9814 16.4316L22.167 16.4316L22.167 16.166L16.7363 16.166C16.7471 16.0565 16.7546 15.9461 16.7598 15.835L22.167 15.835L22.167 15.5713L22.1758 15.5713L22.1758 15.5703L27.9902 15.5703C27.9969 15.7345 28 15.8996 28 16.0654C28 16.1874 27.9977 16.3096 27.9941 16.4307Z" fill="white"/>
</svg>
