<?xml version="1.0" encoding="utf-8"?>
<!-- Generator: Adobe Illustrator 28.1.0, SVG Export Plug-In . SVG Version: 6.00 Build 0)  -->
<svg version="1.1" id="Layer_1" xmlns="http://www.w3.org/2000/svg" xmlns:xlink="http://www.w3.org/1999/xlink" x="0px" y="0px"
	 viewBox="0 0 500 500" style="enable-background:new 0 0 500 500;" xml:space="preserve">
<style type="text/css">
	.st0{fill:#8D33E5;}
	.st1{fill:#7000DF;}
	.st2{fill:#3F017F;}
	.st3{fill:#531B8C;}
	.st4{fill:#F4A900;}
	.st5{fill:#78B6E4;}
	.st6{fill:#20B5AC;}
	.st7{fill:#FFFFFF;}
</style>
<path class="st0" d="M250,0.7c85.7,0,166.5,26,240.9,68.8l5.6,2.4l-1.7,5.8c-0.2,83.8-23,165.9-65.8,237.9
	c-41.6,73.7-102,135-175,177.6l-4,2.9l-4.3-3.1c-74-42.9-130.1-103.2-172.6-177.2S5.1,159.6,5,74.1l-0.7-4l2.9-2.3
	C81.3,25,164.2,0.2,249.9,0.2"/>
<path class="st1" d="M493.5,67.1c-74-43-158-65.9-243.6-66.3v492.5l5.6,3.3c73.7-42.9,134.8-104.5,177.2-178.5
	c42.9-73.5,65.7-157.1,65.9-242.2v-6.1L493.5,67.1z"/>
<path class="st2" d="M499.4,75v-6.5l-5.6-3.2c-151-87-337-87-488.1,0l-5.6,3.2V75c0.4,174.1,93.5,334.8,244.2,421.8l5.6,3.2l5.6-3.2
	c150.9-87,243.9-247.7,244.2-421.8H499.4z M249.6,475.3C106,391.4,13.9,241.1,13,74.7c147.2-82.8,326.9-82.8,474,0
	c-0.8,166.9-93,316.7-237.1,400.5L249.6,475.3z"/>
<path class="st3" d="M250,475.1C106,391.4,13.9,241.1,13,74.7c72.4-40.7,154-62,237-62.1V0C164.3,0,80,22.5,5.7,65.3l-5.6,3.2V75
	c0.4,174.1,93.5,334.8,244.2,421.8l5.6,3.2V475.1z"/>
<path class="st2" d="M406.9,155.5c0-1.9-0.3-3.8-0.9-5.6c-5.6-16.1-13.8-31.1-24.4-44.4c-2.5-3.4-5.6-6.7-8.2-10l-2.2-2.5
	c-0.9-1-2-1.8-3.1-2.5c-2.3-1.3-4.9-2-7.5-1.9c-1.3,0.1-2.6,0.4-3.8,0.8c-0.6,0.2-1.2,0.4-1.7,0.7c0,0-90.9,49.2-105,56.6
	c-14-7.3-104.5-56.9-106.6-57.1c-1.2-0.4-2.5-0.7-3.8-0.8c-2.7-0.1-5.3,0.6-7.6,1.9c-1.2,0.6-2.2,1.5-3.1,2.5l-2.2,2.5
	c-2.8,3.2-5.6,6.4-8.2,10c-10,12.9-18.2,27.1-24.1,42.4c-1.1,2.3-1.7,4.8-1.7,7.4c-0.1,5.2,2.2,10.2,6.2,13.5
	c0.4,0.3,0.7,0.6,1.2,0.9l1.2,0.8l1.7,1.2l14.3,8.9l28.4,17.7l28.4,17.9l23.6,14.2l0.3,99.9v11.1v5.6c-0.1,1.1-0.1,2.1,0,3.2
	c0.2,1.9,0.6,3.8,1.3,5.6c1.5,3.3,3.8,6.1,6.6,8.3c2.9,2.1,6.2,3.7,9.7,4.6c3.6,0.9,7.2,1.6,10.8,2.2c15.3,2.2,30.9,2.2,46.2,0
	c5.6-0.9,6.9-1.2,10.6-2.1c3.6-0.8,7-2.4,9.8-4.7c2.8-2.2,5.1-5.1,6.6-8.3c0.7-1.8,1.2-3.6,1.3-5.6c0-1.2,0-2.2,0-3.2
	c0,0,1.2-90.1,0.8-116.3l23.4-14.3l29-18.2l28.6-17.8l14.2-8.9l0,0C403.2,168.5,407,162.3,406.9,155.5z"/>
<path class="st4" d="M208.6,224.9c0-8.4-1.9-16.8-5.6-24.4c-3.7-7.6-9-14.2-15.5-19.4c-18.7-14.9-47.8-20.3-76.1-14.2
	c-1.8,0.3-7-2.8-8.8-3.2c0,0-0.4-0.3,0.6,0.6c1,0.9,0.8,1.6,1,1.8L208.6,226V224.9z"/>
<path class="st5" d="M300,159.2c22.2-8.7,41.5-31.2,50.3-58.6c0.7-2,4.2-2.5,5.6-3.8c0.5-0.4-1.2-2.2-0.6-2.5L249.8,155l1.3,0.7
	c14.8,8.6,32.7,9.9,48.6,3.6L300,159.2z"/>
<path class="st6" d="M289.5,227.6c-14.6,8.6-24.5,23.4-26.7,40.2c-3.3,23.6,6.5,51.4,25.9,72.5c1.5,1.6,1.4,4.5,1.7,6.5
	c0,0.6,0.6,0.6,1.2,0.9l0.4-121.3L289.5,227.6z"/>
<path class="st2" d="M267.7,272.4c2.9-16.8,13.4-31.3,28.5-39.4l-4.3-6.8l-2.3,1.4c-7.2,4.2-13.4,10-18,17c-4.6,7-7.6,14.9-8.7,23.2
	c-2.8,20.6,4.3,44.7,19.4,64.6C270.8,314.7,265.7,293.5,267.7,272.4z"/>
<path class="st2" d="M301,153c-16,5.8-33.8,3.8-48.3-5.2l-3.8,7l2.4,1.4c14.7,8.4,32.4,9.7,48.1,3.4c22.1-10,39.8-27.6,50-49.7
	c0-0.4-1.5-2.2-3.1,1.1C336.3,129.8,320.3,144.5,301,153z"/>
<path class="st2" d="M181.6,184.7c12.7,10.3,19.5,26,18.4,42.3l8,2.5l2.5-2.7c0.5-16.7-6.9-38-20.1-48.8
	c-15.4-13-47.8-17.3-69.5-14.1c-0.8,0-1.2,1.4,4.5,1.2C145.8,164.7,165.7,171.7,181.6,184.7z"/>
<path class="st7" d="M250,361.7c-11.2,0-22.4-1.4-33.3-4.3c-4.7-1.3-8-5.5-8.1-10.4V224.9c0.1-17-7.5-33.1-20.8-43.7
	c-18.7-14.9-47.8-20.3-76.1-14.2c-2.9,0.7-5.9,0.2-8.3-1.4c-2.5-1.6-4.3-4-4.9-6.9c-0.5-2.1-0.3-4.3,0.4-6.3
	c3.6-10.1,8-19.9,13.2-29.3c5.5-9.8,12.3-18.7,20.2-26.6c3.6-3.4,8.9-4,13.2-1.6l103,59.3l2.7,1.6c14.8,8.6,32.7,9.9,48.5,3.4
	c22.2-8.7,41.5-31.2,50.3-58.6c0.4-1.4,1.1-2.7,2.1-3.8c1-1.1,2.1-2,3.4-2.7c1.3-0.7,2.7-1.1,4.2-1.3c1.5-0.2,2.9,0,4.3,0.5
	c2,0.7,3.8,1.9,5.2,3.5c7,8.2,13.2,16.9,18.7,26.2c5.8,9.7,10.1,20.1,12.9,31c0.6,2.3,0.4,4.8-0.6,7c-0.9,2.2-2.6,4.1-4.7,5.2
	L292,226l-2.8,1.7c-14.6,8.6-24.4,23.4-26.7,40.2c-3.3,23.6,6.5,51.4,25.9,72.5c2.8,3,3.6,7.3,2.3,11.1c-0.7,1.9-1.8,3.5-3.3,4.8
	c-1.6,1.3-3.5,2.2-5.6,2.5C271.3,360.5,260.7,361.5,250,361.7z"/>
</svg>
