<?xml version="1.0" encoding="utf-8"?>
<!-- Generator: Adobe Illustrator 28.2.0, SVG Export Plug-In . SVG Version: 6.00 Build 0)  -->
<svg version="1.1" id="Layer_1" xmlns="http://www.w3.org/2000/svg" xmlns:xlink="http://www.w3.org/1999/xlink" x="0px" y="0px"
	 viewBox="0 0 500 500" style="enable-background:new 0 0 500 500;" xml:space="preserve">
<style type="text/css">
	.st0{fill:url(#SVGID_1_);}
</style>
<linearGradient id="SVGID_1_" gradientUnits="userSpaceOnUse" x1="0" y1="250" x2="500" y2="250">
	<stop  offset="0" style="stop-color:#4F54A4"/>
	<stop  offset="0.5104" style="stop-color:#6F5BA7"/>
	<stop  offset="1" style="stop-color:#8B63AA"/>
</linearGradient>
<path class="st0" d="M452,188.3C423,159.3,359.9,66,248.4,66C143.6,66,61.7,174.2,47.1,192.4c-14.6,18.1-28.7,24.6-38.6,35.7
	C2.3,234.9,0.5,249,0,258.8c-0.3,6.3,2.5,12.4,7.5,16.2c8,6.2,22,17.4,40.7,34.4C78.7,336.9,138.9,434,250,434
	c115.3,0,179.2-100.1,200.3-121.7c21.1-21.7,49.7-48,49.7-48v-34.5C500,229.8,481,217.2,452,188.3z M448.9,253.5l-72.5,80.1
	c0,0-55.7,59.6-123.3,59.6c-63,0-118.3-51.9-131.8-65.6c-1.8-1.8-1.8-4.7,0-6.5l99.3-100.4c12.6-12.7,32.2-15.5,47.8-6.7l11.2,6.3
	c1.7,0.9,3.7,0.7,5.1-0.7l24.1-23.7c1.6-1.6,1.7-4.1,0.2-5.8c-6-6.9-23.6-22.6-58-22.6c-44,0-70.5,33.5-70.5,33.5l-87.2,86.7
	c-1.7,1.7-4.4,1.6-6.1-0.1l-34.3-35.9c-1.5-1.6-1.6-4.1-0.1-5.8l41.6-46.4c0,0,77.2-93.1,154-93.1c66.3,0,118.7,53.1,131.8,67.6
	c1.8,2,1.7,5.1-0.2,6.9l-98.9,97.8c-13.2,13.1-33.6,15.8-49.8,6.5l-8.1-4.6c-2.1-1.2-4.8-0.8-6.6,0.9l-21.8,22.1
	c-2.2,2.2-2.1,5.7,0.2,7.8c7.4,6.8,25.7,19.7,58,19.7c43.7,0,69.7-33.2,69.7-33.2l86-87.5c1.9-1.9,5-1.9,6.9,0.1l33.3,36.4
	C450.5,248.9,450.5,251.7,448.9,253.5z"/>
</svg>
