<?xml version="1.0" encoding="utf-8"?>
<!-- Generator: Adobe Illustrator 28.1.0, SVG Export Plug-In . SVG Version: 6.00 Build 0)  -->
<svg version="1.1" id="Logos" xmlns="http://www.w3.org/2000/svg" xmlns:xlink="http://www.w3.org/1999/xlink" x="0px" y="0px"
	 viewBox="0 0 500 500" style="enable-background:new 0 0 500 500;" xml:space="preserve">
<style type="text/css">
	.st0{fill:#104499;}
	.st1{fill:#FFFFFF;}
</style>
<g>
	<path class="st0" d="M495.4,250c0,138.1-109.9,250-245.4,250S4.6,388.1,4.6,250S114.5,0,250,0S495.4,111.9,495.4,250L495.4,250z"/>
	<g>
		<path class="st1" d="M284.4,236.1L284.4,236.1l-117.1,106c-4.2,3.8-8.2,7.1-12.1,10.1L116,385.2c18.6,7.1,48.9,11.3,81.6-14.9
			l106.7-97.7l0,0c6.9-5.5,17.8-10.9,27.3-10.9c22.3,0,40.3,18.4,40.3,41.1s-18,41.1-40.3,41.1c-18.7,0-30.4-8.8-38.5-28.1
			L261,342.7c10,19.1,30.4,42.2,70.6,42.2c44.5,0,80.7-36.8,80.7-82.2s-36.1-82.2-80.7-82.2C314,220.5,297.7,226.3,284.4,236.1
			L284.4,236.1z"/>
		<path class="st1" d="M302.4,129.8l-106.7,97.7c-6.9,5.5-17.8,10.9-27.3,10.9c-22.3,0-40.3-18.4-40.3-41.1s18-41.1,40.3-41.1
			c18.1,0,29.6,8.3,37.6,26.2l31.9-27.1c-10.4-18.7-30.7-40.3-69.5-40.3c-44.5,0-80.7,36.8-80.7,82.2s36.1,82.2,80.7,82.2
			c17.6,0,33.9-5.8,47.2-15.5l0,0l117.1-106c4.2-3.8,8.2-7.1,12.1-10.1l39.2-32.9C365.4,107.7,335.1,103.5,302.4,129.8L302.4,129.8z
			"/>
	</g>
</g>
</svg>
