<?xml version="1.0" encoding="utf-8"?>
<!-- Generator: Adobe Illustrator 28.0.0, SVG Export Plug-In . SVG Version: 6.00 Build 0)  -->
<svg version="1.1" id="Layer_1" xmlns="http://www.w3.org/2000/svg" xmlns:xlink="http://www.w3.org/1999/xlink" x="0px" y="0px"
	 viewBox="0 0 500 500" style="enable-background:new 0 0 500 500;" xml:space="preserve">
<style type="text/css">
	.st0{fill:#282554;}
	.st1{fill:#FFFFFF;}
	.st2{fill:#1F1D40;}
</style>
<circle class="st0" cx="249.7" cy="247.8" r="236.7"/>
<path class="st1" d="M249.7,11.1c130.7,0,236.7,106,236.7,236.7s-106,236.7-236.7,236.7S13,378.5,13,247.8S119,11.1,249.7,11.1
	 M249.7,0.1c-33.4,0-65.9,6.6-96.4,19.5c-29.5,12.5-56,30.3-78.7,53.1c-22.7,22.7-40.6,49.2-53.1,78.7C8.5,181.9,2,214.3,2,247.8
	s6.6,65.9,19.5,96.4c12.5,29.5,30.3,56,53.1,78.7c22.7,22.7,49.2,40.6,78.7,53.1c30.5,12.9,63,19.5,96.4,19.5s65.9-6.6,96.4-19.5
	c29.5-12.5,56-30.3,78.7-53.1c22.7-22.7,40.6-49.2,53.1-78.7c12.9-30.5,19.5-63,19.5-96.4s-6.6-65.9-19.5-96.4
	c-12.5-29.5-30.3-56-53.1-78.7c-22.7-22.7-49.2-40.6-78.7-53.1C315.6,6.6,283.1,0.1,249.7,0.1L249.7,0.1z"/>
<polygon class="st2" points="131.1,157.8 164.2,124.6 423.4,124.6 305.8,242.3 408.1,242.3 375.1,275.3 272,275.3 187.1,360.2 
	392.7,360.2 359.5,393.5 100.4,393.5 218.7,275.2 115.5,275.2 148.8,241.9 251.9,241.9 336,157.9 "/>
<polygon class="st1" points="118.4,146.6 151.5,113.4 410.7,113.4 293.1,231.1 395.4,231.1 362.4,264.1 259.3,264.1 174.4,349 
	380,349 346.8,382.3 87.7,382.3 206,264 102.8,264 136.1,230.7 239.2,230.7 323.3,146.7 "/>
</svg>
