<?xml version="1.0" encoding="utf-8"?>
<!-- Generator: Adobe Illustrator 28.2.0, SVG Export Plug-In . SVG Version: 6.00 Build 0)  -->
<svg version="1.1" id="Layer_1" xmlns="http://www.w3.org/2000/svg" xmlns:xlink="http://www.w3.org/1999/xlink" x="0px" y="0px"
	 viewBox="0 0 500 500" style="enable-background:new 0 0 500 500;" xml:space="preserve">
<path d="M250,0c-18.8,0.1-37.4,3.9-54.7,11.2s-33,18-46.2,31.4c-13.2,13.4-23.7,29.3-30.8,46.8c-7.1,17.5-10.7,36.2-10.6,55.1v47.7
	h115.6v-69.2c0-3.2,0.6-6.5,1.9-9.5c1.2-3,3-5.7,5.3-8c2.3-2.3,5-4.1,8-5.4c3-1.2,6.2-1.9,9.4-1.9h4.2c3.2,0,6.4,0.6,9.4,1.9
	c3,1.2,5.7,3.1,8,5.4c2.3,2.3,4.1,5,5.3,8c1.2,3,1.9,6.2,1.9,9.5v185.4c15.2,0,30.2-3,44.2-8.8c14-5.8,26.8-14.4,37.5-25.2
	c10.7-10.8,19.2-23.6,25.1-37.7c5.8-14.1,8.8-29.2,8.8-44.5v-47.7c0.1-38.3-14.9-75-41.7-102.2c-13.1-13.4-28.8-24.1-46.1-31.3
	C287.3,3.7,268.7,0,250,0z"/>
<path d="M252.1,402.3h-4.2c-3.2,0-6.4-0.6-9.4-1.9c-3-1.2-5.7-3.1-8-5.4c-2.3-2.3-4.1-5-5.3-8c-1.2-3-1.9-6.2-1.9-9.5V192.2
	c-15.2,0-30.2,3-44.2,8.8c-14,5.8-26.8,14.4-37.5,25.2c-10.7,10.8-19.2,23.6-25.1,37.7c-5.8,14.1-8.8,29.2-8.8,44.5v47.1
	c-0.2,18.9,3.3,37.7,10.4,55.2c7.1,17.5,17.5,33.5,30.7,46.9c13.2,13.4,29,24.1,46.3,31.4c17.4,7.3,36,11,54.8,11
	c18.8,0,37.4-3.7,54.8-11c17.4-7.3,33.1-18,46.3-31.4c13.2-13.4,23.7-29.4,30.7-46.9c7.1-17.5,10.6-36.3,10.4-55.2v-47.1H276.7v69.2
	c0,3.2-0.6,6.5-1.9,9.5c-1.2,3-3,5.7-5.3,8c-2.3,2.3-5,4.1-8,5.4C258.5,401.7,255.3,402.3,252.1,402.3z"/>
</svg>
