<?xml version="1.0" encoding="UTF-8"?>
<svg version="1.1" xmlns="http://www.w3.org/2000/svg" width="280" height="100">
<path d="M0 0 C1.02800217 -0.0033284 2.05600433 -0.0066568 3.11515808 -0.01008606 C5.28095048 -0.01512711 7.44675057 -0.01749526 9.61254883 -0.01733398 C12.89743057 -0.0195176 16.18197452 -0.03769588 19.46679688 -0.05664062 C21.58203012 -0.05957585 23.69726493 -0.06155978 25.8125 -0.0625 C27.26460625 -0.07327827 27.26460625 -0.07327827 28.74604797 -0.08427429 C36.31668939 -0.0593455 44.57753781 0.00801103 51.16796875 4.04296875 C54.52979007 7.73012762 55.36135347 10.44434957 55.23046875 15.41796875 C55.21242188 16.31 55.194375 17.20203125 55.17578125 18.12109375 C55.15257813 18.7965625 55.129375 19.47203125 55.10546875 20.16796875 C83.77275899 20.85989975 112.42897886 21.47670867 141.10546875 21.16796875 C142.21905762 21.16071777 143.33264648 21.1534668 144.47998047 21.14599609 C154.70476006 21.04871146 163.04342738 20.41721385 172.10546875 15.16796875 C178.2059855 13.13446317 184.90751891 13.14478521 190.73046875 15.85546875 C194.51287672 19.53833967 195.41520664 23.28731491 195.54296875 28.48046875 C195.41146142 34.22811282 194.02184962 37.95255387 190.10546875 42.16796875 C185.09436558 46.67302456 178.83307509 48.3432279 172.52368164 50.29150391 C169.12608543 51.37219124 166.37258193 52.3907637 163.66796875 54.73046875 C159.79094705 57.9546241 154.95848382 58.57468161 150.1628418 59.64208984 C145.10325739 60.80538846 140.82600704 62.48794372 136.31640625 65.1171875 C131.89398428 67.21900996 127.17225733 67.28768688 122.34765625 67.23046875 C121.18878906 67.22208984 120.02992188 67.21371094 118.8359375 67.20507812 C116.92748047 67.18670898 116.92748047 67.18670898 114.98046875 67.16796875 C99.35066256 67.07049747 83.73167331 67.35046366 68.10546875 67.66796875 C66.91789978 67.69197754 65.73033081 67.71598633 64.5067749 67.74072266 C57.70624924 67.87897387 50.90581546 68.0211817 44.10546875 68.16796875 C43.98816406 69.42867188 43.87085937 70.689375 43.75 71.98828125 C43.42684017 75.46136157 43.12421608 76.14466126 40.79296875 79.04296875 C33.28046597 84.98308723 24.49661213 84.32534199 15.28125 84.3359375 C14.25799118 84.3392659 13.23473236 84.3425943 12.1804657 84.34602356 C10.02306566 84.35106539 7.86565788 84.35343274 5.70825195 84.35327148 C2.44534105 84.35545047 -0.81722722 84.37361522 -4.08007812 84.39257812 C-32.39763836 84.47303113 -32.39763836 84.47303113 -39.89453125 79.16796875 C-42.8972673 74.26349987 -43.3911126 70.33981234 -42.59765625 64.65625 C-41.38107807 60.35091498 -38.89185383 57.40756913 -35.89453125 54.16796875 C-35.34667969 53.5646875 -34.79882812 52.96140625 -34.234375 52.33984375 C-32.85160106 50.88572275 -31.37931124 49.51776874 -29.89453125 48.16796875 C-29.23453125 48.16796875 -28.57453125 48.16796875 -27.89453125 48.16796875 C-27.89453125 47.50796875 -27.89453125 46.84796875 -27.89453125 46.16796875 C-27.23453125 46.16796875 -26.57453125 46.16796875 -25.89453125 46.16796875 C-25.89453125 45.50796875 -25.89453125 44.84796875 -25.89453125 44.16796875 C-24.25 42.6171875 -24.25 42.6171875 -22.08203125 40.85546875 C-18.96062733 38.21470579 -16.70441264 35.90084911 -14.89453125 32.16796875 C-15.4978125 31.72066406 -16.10109375 31.27335937 -16.72265625 30.8125 C-27.73919366 22.4790225 -27.73919366 22.4790225 -28.83203125 15.73046875 C-29.15874444 11.48319728 -28.2190899 8.79428024 -25.89453125 5.16796875 C-25.23453125 5.16796875 -24.57453125 5.16796875 -23.89453125 5.16796875 C-23.89453125 4.50796875 -23.89453125 3.84796875 -23.89453125 3.16796875 C-16.39225537 -0.34872307 -8.1140355 0.00926916 0 0 Z " fill="#FD51E6" transform="translate(65.89453125,9.83203125)"/>
<path d="M0 0 C0.69104324 -0.00175232 1.38208649 -0.00350464 2.09407043 -0.00531006 C4.3889107 -0.00972801 6.68367451 -0.0067908 8.97851562 -0.00341797 C10.56652847 -0.00409102 12.15454122 -0.00506106 13.74255371 -0.00631714 C17.07496112 -0.00779403 20.40734178 -0.00563983 23.73974609 -0.00097656 C28.02075073 0.00472073 32.30169268 0.00144168 36.58269501 -0.00454903 C39.86310299 -0.00815487 43.143496 -0.00701595 46.42390442 -0.00442123 C48.00283312 -0.00375203 49.58176317 -0.00458017 51.16069031 -0.00690079 C53.36367415 -0.0094277 55.56655511 -0.00558622 57.76953125 0 C59.65363708 0.00119339 59.65363708 0.00119339 61.57580566 0.00241089 C64.38476562 0.12939453 64.38476562 0.12939453 65.38476562 1.12939453 C65.84888416 4.94608697 65.7120719 6.64838468 63.52148438 9.86767578 C62.71324219 10.71716797 61.905 11.56666016 61.07226562 12.44189453 C59.87150391 13.73546875 59.87150391 13.73546875 58.64648438 15.05517578 C56.38476562 17.12939453 56.38476562 17.12939453 53.38476562 18.12939453 C53.38476562 19.11939453 53.38476562 20.10939453 53.38476562 21.12939453 C54.0436377 20.96785889 54.70250977 20.80632324 55.38134766 20.63989258 C59.07753921 20.01164217 62.7024316 19.96707253 66.43945312 19.96142578 C67.60735886 19.95643318 67.60735886 19.95643318 68.79885864 19.95133972 C70.44793104 19.94628715 72.09701362 19.94393088 73.74609375 19.9440918 C76.21697929 19.94193193 78.68739805 19.92383321 81.15820312 19.90478516 C91.07932722 19.87078055 100.58802119 20.51127232 110.38476562 22.12939453 C110.38476562 21.46939453 110.38476562 20.80939453 110.38476562 20.12939453 C122.92476562 20.12939453 135.46476563 20.12939453 148.38476562 20.12939453 C148.38476562 20.78939453 148.38476562 21.44939453 148.38476562 22.12939453 C151.30128737 22.29620562 151.30128737 22.29620562 154.38476562 22.12939453 C155.04476562 21.46939453 155.70476562 20.80939453 156.38476562 20.12939453 C158.76733398 19.91821289 158.76733398 19.91821289 161.72460938 19.96923828 C163.31885742 19.98567383 163.31885742 19.98567383 164.9453125 20.00244141 C166.05970703 20.02371094 167.17410156 20.04498047 168.32226562 20.06689453 C170.51881467 20.10131521 172.71543611 20.13145858 174.91210938 20.15673828 C175.88913818 20.17470459 176.86616699 20.1926709 177.87280273 20.21118164 C180.51414609 20.24470572 180.51414609 20.24470572 183.38476562 19.12939453 C183.71476563 18.13939453 184.04476562 17.14939453 184.38476562 16.12939453 C189.33476562 15.13939453 189.33476562 15.13939453 194.38476562 14.12939453 C193.72476563 15.44939453 193.06476563 16.76939453 192.38476562 18.12939453 C190.40476563 18.12939453 188.42476562 18.12939453 186.38476562 18.12939453 C185.72476563 19.44939453 185.06476563 20.76939453 184.38476562 22.12939453 C185.37476563 22.78939453 186.36476562 23.44939453 187.38476562 24.12939453 C186.39476562 25.61439453 186.39476562 25.61439453 185.38476562 27.12939453 C187.75851424 27.46365188 187.75851424 27.46365188 190.38476562 27.12939453 C190.85914063 26.46939453 191.33351562 25.80939453 191.82226562 25.12939453 C192.33789062 24.46939453 192.85351562 23.80939453 193.38476562 23.12939453 C196.57226562 22.87939453 196.57226562 22.87939453 199.38476562 23.12939453 C200.04476562 21.80939453 200.70476562 20.48939453 201.38476562 19.12939453 C200.39476562 18.46939453 199.40476563 17.80939453 198.38476562 17.12939453 C199.70476562 15.80939453 201.02476562 14.48939453 202.38476562 13.12939453 C204.03441731 14.77904622 203.63426061 16.67703003 203.69726562 18.94189453 C203.66223353 22.44510445 203.64745684 23.74473954 201.63476562 26.69189453 C199.46396219 28.07879673 197.84688058 28.53509092 195.38476562 29.12939453 C195.05476562 30.11939453 194.72476563 31.10939453 194.38476562 32.12939453 C190.96382321 34.41002281 189.7028934 34.3486446 185.69726562 34.25439453 C184.70339844 34.23634766 183.70953125 34.21830078 182.68554688 34.19970703 C181.92628906 34.17650391 181.16703125 34.15330078 180.38476562 34.12939453 C180.17851562 34.70689453 179.97226563 35.28439453 179.75976562 35.87939453 C177.78691096 39.10770217 175.72730873 40.37504243 172.38476562 42.12939453 C168.92446832 42.48199226 165.68178333 42.54478874 162.21875 42.44189453 C159.3244092 42.47487847 157.06380285 42.52211846 154.84619141 44.50537109 C153.64229982 46.00791955 152.50872942 47.56615681 151.38476562 49.12939453 C150.72476563 49.12939453 150.06476563 49.12939453 149.38476562 49.12939453 C149.38476562 49.78939453 149.38476562 50.44939453 149.38476562 51.12939453 C141.13476562 51.12939453 132.88476562 51.12939453 124.38476562 51.12939453 C123.39476562 49.14939453 123.39476562 49.14939453 122.38476562 47.12939453 C121.62349365 47.61907715 120.86222168 48.10875977 120.07788086 48.61328125 C115.04955412 50.6775312 110.6742412 50.48453089 105.29492188 50.38720703 C104.20987869 50.38045456 103.12483551 50.37370209 102.00691223 50.366745 C98.48677083 50.34286289 94.96720085 50.29894048 91.44726562 50.25439453 C86.62829751 50.21092875 81.80930984 50.17789748 76.99023438 50.14892578 C75.21649445 50.13683327 75.21649445 50.13683327 73.40692139 50.12449646 C66.71653686 50.0937003 60.05517226 50.18158119 53.37304688 50.51611328 C52.65490311 50.5505957 51.93675934 50.58507812 51.19685364 50.62060547 C48.02248461 50.7796354 44.85505512 50.97269223 41.68579102 51.21386719 C33.74489131 51.65799041 28.31012602 50.02999429 21.38476562 46.12939453 C25.94626219 40.65622957 30.79203675 35.58983807 35.84570312 30.57080078 C36.54735596 29.87015503 37.24900879 29.16950928 37.97192383 28.44763184 C40.56511805 25.85962457 43.16269333 23.27601013 45.75976562 20.69189453 C51.57601562 14.89626953 57.39226562 9.10064453 63.38476562 3.12939453 C41.27476563 3.12939453 19.16476563 3.12939453 -3.61523438 3.12939453 C11.12167516 10.77820297 11.12167516 10.77820297 26.38476562 17.12939453 C25.27989665 20.44400146 24.50853477 21.09915559 21.88476562 23.25439453 C18.73370327 25.92154374 15.77887151 28.68504375 12.88476562 31.62939453 C10.19698103 34.35380993 7.486597 36.96199765 4.57226562 39.44189453 C0.38139843 43.02685322 -3.46618483 46.9230341 -7.31567383 50.86694336 C-10.26218379 53.8644327 -13.31430929 56.53340689 -16.61523438 59.12939453 C-15.78695633 59.13748138 -14.95867828 59.14556824 -14.1053009 59.15390015 C-6.29245321 59.23190108 1.52022345 59.31920839 9.33285046 59.41692162 C13.34922532 59.46682778 17.3655746 59.5131582 21.38208008 59.55126953 C25.25958268 59.58819427 29.13686833 59.6345735 33.01418495 59.68745804 C34.49208068 59.70596385 35.97002286 59.72108586 37.44798851 59.73273849 C39.52113345 59.74966662 41.59378564 59.77871627 43.66674805 59.81054688 C44.84589279 59.82387054 46.02503754 59.83719421 47.23991394 59.85092163 C50.34543503 60.12591185 52.57988088 60.8078439 55.38476562 62.12939453 C54.38476562 65.12939453 54.38476562 65.12939453 52.38476562 66.12939453 C50.07688688 66.22154085 47.76625713 66.2468885 45.45654297 66.24291992 C44.38808891 66.24313896 44.38808891 66.24313896 43.29804993 66.24336243 C40.93890356 66.24266464 38.57983573 66.2348785 36.22070312 66.22705078 C34.58688398 66.22518613 32.95306428 66.22376245 31.31924438 66.22276306 C27.01528383 66.21894162 22.71135692 66.20911451 18.40740967 66.19805908 C14.01705378 66.18783695 9.62669247 66.18326372 5.23632812 66.17822266 C-3.38087483 66.16749192 -11.99805042 66.15041996 -20.61523438 66.12939453 C-21.73193359 60.36767578 -21.73193359 60.36767578 -20.68164062 58.22314453 C-17.21409986 54.54845198 -13.61457649 51.4771389 -9.50195312 48.53955078 C-6.95857438 46.63859896 -4.82602579 44.40159682 -2.61523438 42.12939453 C-1.91398437 41.63439453 -1.21273437 41.13939453 -0.49023438 40.62939453 C1.52539431 39.21124359 1.52539431 39.21124359 2.63476562 36.87939453 C4.78392712 33.50214076 7.40414454 31.33845317 10.45117188 28.77783203 C12.52087101 27.06472211 12.52087101 27.06472211 14.75976562 24.69189453 C16.38476562 23.12939453 16.38476562 23.12939453 18.38476562 23.12939453 C18.38476562 22.13939453 18.38476562 21.14939453 18.38476562 20.12939453 C17.51851562 19.86126953 16.65226562 19.59314453 15.75976562 19.31689453 C11.40960718 17.78628323 7.46803241 15.69359598 3.38476562 13.56689453 C0.4325371 12.15228503 -2.50559509 11.13792619 -5.61523438 10.12939453 C-7.55273438 8.87939453 -7.55273438 8.87939453 -8.61523438 7.12939453 C-8.04056847 -0.05392923 -6.87636007 0.00435548 0 0 Z " fill="#AC369D" transform="translate(47.615234375,17.87060546875)"/>
<path d="M0 0 C23.1 0 46.2 0 70 0 C63.25 7.875 63.25 7.875 60.01416016 11.09936523 C59.29386627 11.81958359 58.57357239 12.53980194 57.83145142 13.28184509 C57.07496307 14.03317215 56.31847473 14.78449921 55.5390625 15.55859375 C54.74849457 16.34774673 53.95792664 17.13689972 53.1434021 17.94996643 C50.63962374 20.44818661 48.13237525 22.94289044 45.625 25.4375 C43.91773752 27.13974208 42.21070391 28.84221373 40.50390625 30.54492188 C36.33858102 34.69927363 32.17040781 38.85075081 28 43 C29.59840674 43.80513246 31.19749704 44.60890796 32.796875 45.41210938 C34.13250488 46.08373108 34.13250488 46.08373108 35.49511719 46.7689209 C38.28565702 48.14039235 41.11111739 49.3510126 44 50.5 C49.47938769 52.73576052 54.75098128 55.27097478 60 58 C56.39248995 59.13744955 53.06935067 59.08448918 49.30371094 59.02172852 C48.30797058 59.0073172 48.30797058 59.0073172 47.29211426 58.99261475 C45.10608961 58.95973187 42.92027156 58.91935925 40.734375 58.87890625 C39.21552246 58.85459464 37.69666236 58.8307516 36.17779541 58.80735779 C32.18615072 58.74462036 28.19464052 58.67552462 24.203125 58.60510254 C20.1276663 58.53432551 16.05211249 58.46956467 11.9765625 58.40429688 C3.98426966 58.27541789 -4.00789113 58.13982133 -12 58 C-9.64980162 55.01950461 -7.43279407 52.34933723 -4.5 49.9375 C-0.81199888 46.79306621 2.599967 43.44739612 6 40 C9.88766565 36.06335303 13.83971302 32.31155711 18.0546875 28.72265625 C21.88118907 25.33412775 25.41932157 21.64424077 29 18 C29.99889197 16.99889319 30.99842147 15.99841898 32 15 C31.30688721 14.8956665 30.61377441 14.79133301 29.8996582 14.68383789 C26.51614154 13.88588974 23.72971162 12.58369809 20.60546875 11.05859375 C20.01325027 10.77146011 19.4210318 10.48432648 18.81086731 10.18849182 C16.93374306 9.27686001 15.06061897 8.35732876 13.1875 7.4375 C11.9097618 6.81522806 10.63176946 6.19347768 9.35351562 5.57226562 C6.23271328 4.05420157 3.11544607 2.52903189 0 1 C0 0.67 0 0.34 0 0 Z " fill="#CB22FB" transform="translate(42,20)"/>
<path d="M0 0 C0.99 0.495 0.99 0.495 2 1 C2.62422591 10.08595492 2.62422591 10.08595492 0.25 13.5625 C-1.92080344 14.9494022 -3.53788505 15.40569639 -6 16 C-6.495 17.485 -6.495 17.485 -7 19 C-10.42094242 21.28062828 -11.68187222 21.21925007 -15.6875 21.125 C-17.17830078 21.09792969 -17.17830078 21.09792969 -18.69921875 21.0703125 C-19.45847656 21.04710938 -20.21773438 21.02390625 -21 21 C-21.2784375 21.8971875 -21.2784375 21.8971875 -21.5625 22.8125 C-23.6573863 26.00037046 -26.4422965 27.02837291 -30 28 C-33.40093846 28.39151697 -36.7962728 28.34354503 -40.21484375 28.26367188 C-43.06330301 28.31541253 -45.31975394 28.38955117 -47.49902344 30.34521484 C-48.71041513 31.86239913 -49.85832204 33.42968494 -51 35 C-53.84909606 35.94969869 -55.64248748 36.12869462 -58.59765625 36.1328125 C-59.92313477 36.13474609 -59.92313477 36.13474609 -61.27539062 36.13671875 C-62.19513672 36.13285156 -63.11488281 36.12898438 -64.0625 36.125 C-64.98611328 36.12886719 -65.90972656 36.13273437 -66.86132812 36.13671875 C-68.18487305 36.13478516 -68.18487305 36.13478516 -69.53515625 36.1328125 C-70.343479 36.13168457 -71.15180176 36.13055664 -71.98461914 36.12939453 C-74 36 -74 36 -76 35 C-75.49701212 30.59885603 -73.91227269 28.28804981 -71 25 C-72.32 24.67 -73.64 24.34 -75 24 C-73.70689829 21.11538849 -72.58442376 18.87147927 -70 17 C-66.3125 16.3125 -66.3125 16.3125 -63 16 C-68.19309797 15.25510861 -68.19309797 15.25510861 -72.76904297 17.29638672 C-74.44400804 19.10612496 -75.9516288 20.96972463 -77.4375 22.9375 C-77.96537109 23.59685547 -78.49324219 24.25621094 -79.03710938 24.93554688 C-80.3751257 26.61021429 -81.68951188 28.30370418 -83 30 C-84 31 -84 31 -86.28515625 31.09765625 C-87.65994141 31.08025391 -87.65994141 31.08025391 -89.0625 31.0625 C-89.98160156 31.05347656 -90.90070313 31.04445313 -91.84765625 31.03515625 C-92.55792969 31.02355469 -93.26820313 31.01195313 -94 31 C-90.02945249 25.42566272 -85.68903221 20.32765497 -81.05078125 15.296875 C-78.98357294 13.14085396 -78.98357294 13.14085396 -77.78222656 10.87646484 C-76 9 -76 9 -73.02905273 8.57763672 C-71.84255127 8.61131348 -70.6560498 8.64499023 -69.43359375 8.6796875 C-68.14388672 8.70160156 -66.85417969 8.72351562 -65.52539062 8.74609375 C-64.16271751 8.78767959 -62.80008643 8.83066457 -61.4375 8.875 C-58.76949305 8.94768052 -56.1022212 9.00395821 -53.43359375 9.0546875 C-52.24822021 9.09062012 -51.06284668 9.12655273 -49.84155273 9.16357422 C-46.86480919 9.308343 -46.86480919 9.308343 -45 7 C-42.61743164 6.78881836 -42.61743164 6.78881836 -39.66015625 6.83984375 C-38.0659082 6.8562793 -38.0659082 6.8562793 -36.43945312 6.87304688 C-35.32505859 6.89431641 -34.21066406 6.91558594 -33.0625 6.9375 C-30.86595095 6.97192068 -28.66932952 7.00206405 -26.47265625 7.02734375 C-25.49562744 7.04531006 -24.51859863 7.06327637 -23.51196289 7.08178711 C-20.87061953 7.11531119 -20.87061953 7.11531119 -18 6 C-17.67 5.01 -17.34 4.02 -17 3 C-13.7 2.34 -10.4 1.68 -7 1 C-7.66 2.32 -8.32 3.64 -9 5 C-10.98 5 -12.96 5 -15 5 C-15.66 6.32 -16.32 7.64 -17 9 C-16.01 9.66 -15.02 10.32 -14 11 C-14.66 11.99 -15.32 12.98 -16 14 C-13.62625139 14.33425735 -13.62625139 14.33425735 -11 14 C-10.525625 13.34 -10.05125 12.68 -9.5625 12 C-9.046875 11.34 -8.53125 10.68 -8 10 C-4.8125 9.75 -4.8125 9.75 -2 10 C-1.34 8.68 -0.68 7.36 0 6 C-0.99 5.34 -1.98 4.68 -3 4 C-2.01 2.68 -1.02 1.36 0 0 Z " fill="#D042BE" transform="translate(249,31)"/>
<path d="M0 0 C4.29 0 8.58 0 13 0 C13 0.33 13 0.66 13 1 C8.545 1.495 8.545 1.495 4 2 C7.78916639 3.8354072 11.57947284 5.66843232 15.37084961 7.49926758 C16.66022764 8.12231294 17.94929296 8.74600588 19.23803711 9.37036133 C21.09146423 10.26814857 22.94600679 11.16359401 24.80078125 12.05859375 C25.91622314 12.59798584 27.03166504 13.13737793 28.1809082 13.69311523 C30.98685879 15.05790057 30.98685879 15.05790057 34 16 C32.89513102 19.31460693 32.12376914 19.96976106 29.5 22.125 C26.34893765 24.79214921 23.39410589 27.55564922 20.5 30.5 C17.8122154 33.2244154 15.10183137 35.83260312 12.1875 38.3125 C7.99663281 41.89745868 4.14904955 45.79363957 0.29956055 49.73754883 C-2.64694941 52.73503816 -5.69907491 55.40401236 -9 58 C-8.17172195 58.00808685 -7.34344391 58.01617371 -6.49006653 58.02450562 C1.32278116 58.10250655 9.13545783 58.18981386 16.94808483 58.28752708 C20.96445969 58.33743325 24.98080898 58.38376367 28.99731445 58.421875 C32.87481706 58.45879974 36.7521027 58.50517897 40.62941933 58.55806351 C42.10731506 58.57656932 43.58525723 58.59169133 45.06322289 58.60334396 C47.13636783 58.62027209 49.20902002 58.64932174 51.28198242 58.68115234 C52.46112717 58.69447601 53.64027191 58.70779968 54.85514832 58.7215271 C57.96066941 58.99651732 60.19511526 59.67844937 63 61 C62 64 62 64 60 65 C57.69212126 65.09214631 55.3814915 65.11749397 53.07177734 65.11352539 C52.00332329 65.11374443 52.00332329 65.11374443 50.9132843 65.1139679 C48.55413794 65.11327011 46.19507011 65.10548397 43.8359375 65.09765625 C42.20211836 65.0957916 40.56829866 65.09436792 38.93447876 65.09336853 C34.6305182 65.08954709 30.32659129 65.07971998 26.02264404 65.06866455 C21.63228816 65.05844242 17.24192685 65.05386919 12.8515625 65.04882812 C4.23435954 65.03809739 -4.38281604 65.02102543 -13 65 C-14.11669922 59.23828125 -14.11669922 59.23828125 -13.06640625 57.09375 C-9.59886549 53.41905745 -5.99934211 50.34774436 -1.88671875 47.41015625 C0.65666 45.50920443 2.78920859 43.27220229 5 41 C5.70125 40.505 6.4025 40.01 7.125 39.5 C9.14062868 38.08184905 9.14062868 38.08184905 10.25 35.75 C12.39916149 32.37274623 15.01937892 30.20905863 18.06640625 27.6484375 C20.13610538 25.93532758 20.13610538 25.93532758 22.375 23.5625 C24 22 24 22 26 22 C26 21.01 26 20.02 26 19 C25.13375 18.731875 24.2675 18.46375 23.375 18.1875 C19.02484156 16.6568887 15.08326679 14.56420145 11 12.4375 C8.04777147 11.0228905 5.10963929 10.00853166 2 9 C0.0625 7.75 0.0625 7.75 -1 6 C-0.67 4.02 -0.34 2.04 0 0 Z " fill="#932891" transform="translate(40,19)"/>
<path d="M0 0 C12.54 0 25.08 0 38 0 C38 0.66 38 1.32 38 2 C37.3608667 1.96221436 36.7217334 1.92442871 36.06323242 1.88549805 C22.84805826 0.77540029 22.84805826 0.77540029 11.234375 5.71484375 C8.39821785 8.87390658 6.21532176 12.38843138 4 16 C2.80296122 17.46436167 1.58015232 18.90882107 0.3125 20.3125 C-0.8321875 21.6428125 -0.8321875 21.6428125 -2 23 C1.62208293 23.64262762 3.51448758 23.9380129 7 23 C11.50784978 19.17221376 15.31391572 14.6413853 18.49609375 9.65625 C20 8 20 8 22.26171875 7.609375 C23.06222656 7.65578125 23.86273438 7.7021875 24.6875 7.75 C25.49574219 7.78609375 26.30398437 7.8221875 27.13671875 7.859375 C28.05904297 7.92898437 28.05904297 7.92898437 29 8 C28.67 8.66 28.34 9.32 28 10 C26.9275 10.0825 25.855 10.165 24.75 10.25 C19.75410317 11.24917937 18.85762456 12.93004988 16 17 C17.65 17 19.3 17 21 17 C19.68 18.32 18.36 19.64 17 21 C17 20.34 17 19.68 17 19 C14.34641708 19.72370443 12.45314456 20.37769679 10.80206299 22.64512634 C8.08824046 26.36841397 5.97166793 27.82994092 1.37854004 28.63381958 C-3.29351201 28.93725225 -7.96265364 28.84084636 -12.640625 28.75390625 C-14.37220215 28.74591762 -16.10379439 28.7407476 -17.83538818 28.73826599 C-21.45361594 28.72605607 -25.07062313 28.6911804 -28.68847656 28.63793945 C-33.32794825 28.56987999 -37.96656052 28.54108856 -42.60647964 28.52694798 C-47.03464216 28.51183323 -51.46259127 28.47740676 -55.890625 28.44140625 C-56.73570869 28.43612978 -57.58079239 28.43085331 -58.45148468 28.42541695 C-60.83804865 28.40698707 -63.2240073 28.37484159 -65.61035156 28.33813477 C-66.67171326 28.33242462 -66.67171326 28.33242462 -67.7545166 28.32659912 C-71.38302948 28.25481442 -72.89306866 28.07128756 -76 26 C-76 25.34 -76 24.68 -76 24 C-75.14768799 23.99589111 -74.29537598 23.99178223 -73.41723633 23.98754883 C-70.23904652 23.9604958 -67.06216708 23.9113357 -63.88452148 23.84741211 C-62.51224569 23.82429022 -61.13979391 23.80984997 -59.76733398 23.80444336 C-57.78865529 23.79511335 -55.81023376 23.75142981 -53.83203125 23.70703125 C-52.64327393 23.6913208 -51.4545166 23.67561035 -50.22973633 23.65942383 C-46.01103246 22.79807988 -44.76265924 21.26521139 -42 18 C-40.02 15.69 -38.04 13.38 -36 11 C-42.27 11 -48.54 11 -55 11 C-55 10.34 -55 9.68 -55 9 C-52.59838243 7.79919121 -50.99718316 7.84444101 -48.31640625 7.7890625 C-46.92518555 7.74652344 -46.92518555 7.74652344 -45.50585938 7.703125 C-43.54771536 7.65115037 -41.58935232 7.60684668 -39.63085938 7.5703125 C-38.70208984 7.539375 -37.77332031 7.5084375 -36.81640625 7.4765625 C-35.96506104 7.45674316 -35.11371582 7.43692383 -34.23657227 7.41650391 C-31.58103746 6.92197903 -30.68091168 6.06117901 -29 4 C-28.01 4.33 -27.02 4.66 -26 5 C-26.56714722 5.6501709 -26.56714722 5.6501709 -27.14575195 6.31347656 C-28.86942128 8.29108521 -30.5909769 10.27052285 -32.3125 12.25 C-32.90740234 12.93191406 -33.50230469 13.61382812 -34.11523438 14.31640625 C-34.69208984 14.98027344 -35.26894531 15.64414062 -35.86328125 16.328125 C-36.39219971 16.9355957 -36.92111816 17.54306641 -37.46606445 18.16894531 C-39.05223734 20.06235557 -40.53548806 22.01148837 -42 24 C-37.03629594 24.12992786 -32.0789251 24.18610926 -27.11352539 24.17700195 C-25.42875788 24.18393515 -23.74394547 24.21025759 -22.05981445 24.25708008 C-11.90574268 24.73363073 -11.90574268 24.73363073 -2.99194336 20.67114258 C-0.71219581 17.88771073 1.16745458 15.09168762 3 12 C3.85304989 10.89442271 4.72418142 9.80198621 5.62890625 8.73828125 C6.26699219 7.93777344 6.90507812 7.13726562 7.5625 6.3125 C8.55443359 5.06919922 8.55443359 5.06919922 9.56640625 3.80078125 C10.27603516 2.90939453 10.27603516 2.90939453 11 2 C6.91942935 1.8882432 3.37726385 1.95462348 0.03857422 4.48876953 C-1.78036102 6.44083449 -3.43441676 8.44888188 -5.0625 10.5625 C-5.64193359 11.27341797 -6.22136719 11.98433594 -6.81835938 12.71679688 C-8.23516135 14.46145385 -9.62684615 16.22093128 -11 18 C-11.99 17.67 -12.98 17.34 -14 17 C-13.21753906 16.08476563 -12.43507812 15.16953125 -11.62890625 14.2265625 C-10.60666469 13.02613205 -9.58453507 11.82560626 -8.5625 10.625 C-7.7880957 9.72007813 -7.7880957 9.72007813 -6.99804688 8.796875 C-4.21367706 5.59551296 -4.21367706 5.59551296 -2 2 C-1.34 2 -0.68 2 0 2 C0 1.34 0 0.68 0 0 Z " fill="#782671" transform="translate(158,38)"/>
<path d="M0 0 C-1.37822856 3.12672749 -2.96245871 5.15802544 -5.4375 7.5 C-7.8807324 9.86688138 -10.07887145 12.17481095 -12 15 C-8.26292279 13.69332965 -6.52392831 11.29391193 -4.19262695 8.19995117 C1.69904641 0.40935178 1.69904641 0.40935178 5.71875 -0.85546875 C8.1875 -0.8125 8.1875 -0.8125 12 0 C10.3718356 3.75730247 7.98598083 6.616823 5.375 9.75 C4.55773437 10.73484375 3.74046875 11.7196875 2.8984375 12.734375 C2.27195313 13.48203125 1.64546875 14.2296875 1 15 C4.73707721 13.69332965 6.47607169 11.29391193 8.80737305 8.19995117 C14.69904641 0.40935178 14.69904641 0.40935178 18.71875 -0.85546875 C21.1875 -0.8125 21.1875 -0.8125 25 0 C23.70977448 2.7860677 22.30620729 5.00548039 20.28515625 7.3125 C19.76373047 7.91320313 19.24230469 8.51390625 18.70507812 9.1328125 C18.16302734 9.74898437 17.62097656 10.36515625 17.0625 11 C15.98976315 12.22818734 14.91811687 13.45732824 13.84765625 14.6875 C13.37336182 15.22761719 12.89906738 15.76773438 12.41040039 16.32421875 C10.90653589 17.99373425 10.90653589 17.99373425 9.83251953 20.18261719 C7.419068 22.57613347 5.47215036 22.45457011 2.17134094 22.45318604 C1.01338264 22.42221832 1.01338264 22.42221832 -0.16796875 22.390625 C-0.96278152 22.38496521 -1.7575943 22.37930542 -2.57649231 22.37347412 C-5.11410866 22.35109004 -7.6503108 22.30089262 -10.1875 22.25 C-11.90818273 22.2299375 -13.62888759 22.21168629 -15.34960938 22.1953125 C-19.56695082 22.15121894 -23.78323569 22.08217965 -28 22 C-25.70619474 17.11497235 -22.18847939 13.6876509 -18.515625 9.7734375 C-16.47247608 7.52089754 -14.75366286 5.28173793 -13 2.8125 C-9.54275793 -1.38415223 -5.00846373 -0.62358343 0 0 Z " fill="#825EF8" transform="translate(144,40)"/>
<path d="M0 0 C1.20205078 0.01289062 2.40410156 0.02578125 3.64257812 0.0390625 C4.88845703 0.07257812 6.13433594 0.10609375 7.41796875 0.140625 C8.68318359 0.15867188 9.94839844 0.17671875 11.25195312 0.1953125 C14.3705621 0.24238584 17.48762848 0.30813406 20.60546875 0.390625 C19.4537352 2.85862547 18.5576331 4.43846065 16.60546875 6.390625 C14.26708984 6.70947266 14.26708984 6.70947266 11.37890625 6.8046875 C10.34765625 6.84335937 9.31640625 6.88203125 8.25390625 6.921875 C7.17367187 6.9528125 6.0934375 6.98375 4.98046875 7.015625 C3.34851563 7.07363281 3.34851563 7.07363281 1.68359375 7.1328125 C-1.0089429 7.22728747 -3.70146882 7.31284931 -6.39453125 7.390625 C-6.39453125 8.050625 -6.39453125 8.710625 -6.39453125 9.390625 C-0.12453125 9.390625 6.14546875 9.390625 12.60546875 9.390625 C10.92968983 12.74218284 9.5346587 14.83499313 7.10546875 17.578125 C6.1928125 18.62033203 6.1928125 18.62033203 5.26171875 19.68359375 C2.90694645 22.11056426 1.96684834 22.37727354 -1.46728516 22.50415039 C-3.39967041 22.49629517 -3.39967041 22.49629517 -5.37109375 22.48828125 C-6.05634125 22.4868663 -6.74158875 22.48545135 -7.44760132 22.48399353 C-9.63828886 22.47839175 -11.82887455 22.46583906 -14.01953125 22.453125 C-15.50390477 22.44811022 -16.9882799 22.44354728 -18.47265625 22.43945312 C-22.1133144 22.42842177 -25.75391289 22.41115599 -29.39453125 22.390625 C-23.26953125 16.265625 -23.26953125 16.265625 -18.703125 16.07421875 C-17.28676758 16.01137695 -17.28676758 16.01137695 -15.84179688 15.94726562 C-14.84857422 15.90794922 -13.85535156 15.86863281 -12.83203125 15.828125 C-11.33639648 15.76334961 -11.33639648 15.76334961 -9.81054688 15.69726562 C-7.33872014 15.59082333 -4.86664465 15.49018741 -2.39453125 15.390625 C-8.33453125 15.060625 -14.27453125 14.730625 -20.39453125 14.390625 C-19.27250924 11.02455898 -18.30179104 10.19581231 -15.64453125 7.953125 C-14.63132812 7.08880859 -14.63132812 7.08880859 -13.59765625 6.20703125 C-12.870625 5.60761719 -12.14359375 5.00820313 -11.39453125 4.390625 C-10.655979 3.70121826 -9.91742676 3.01181152 -9.15649414 2.30151367 C-5.80289871 -0.01870125 -4.03897608 -0.07656827 0 0 Z " fill="#A73FF8" transform="translate(109.39453125,39.609375)"/>
<path d="M0 0 C0.92876953 0.00821777 1.85753906 0.01643555 2.81445312 0.02490234 C4.33619141 0.03070313 4.33619141 0.03070313 5.88867188 0.03662109 C6.94699219 0.06111328 8.0053125 0.08560547 9.09570312 0.11083984 C10.68318359 0.11277344 10.68318359 0.11277344 12.30273438 0.11474609 C20.17408568 0.20476155 20.17408568 0.20476155 23.59570312 2.48583984 C22.14942663 7.15180329 19.41893548 10.1673872 16.09570312 13.61083984 C13.38045475 16.46641113 10.79109824 19.19274717 8.59570312 22.48583984 C6.21289062 22.77880859 6.21289062 22.77880859 3.47070312 22.67333984 C2.560625 22.64626953 1.65054688 22.61919922 0.71289062 22.59130859 C0.01421875 22.55650391 -0.68445313 22.52169922 -1.40429688 22.48583984 C-0.08429688 20.50583984 1.23570312 18.52583984 2.59570312 16.48583984 C1.27570313 16.15583984 -0.04429687 15.82583984 -1.40429688 15.48583984 C-0.11119516 12.60122834 1.01127937 10.35731912 3.59570312 8.48583984 C7.28320312 7.79833984 7.28320312 7.79833984 10.59570312 7.48583984 C5.40260516 6.74094845 5.40260516 6.74094845 0.82666016 8.78222656 C-0.84830491 10.5919648 -2.35592568 12.45556448 -3.84179688 14.42333984 C-4.36966797 15.08269531 -4.89753906 15.74205078 -5.44140625 16.42138672 C-6.77942257 18.09605413 -8.09380876 19.78954402 -9.40429688 21.48583984 C-10.40429688 22.48583984 -10.40429688 22.48583984 -12.68945312 22.58349609 C-14.06423828 22.56609375 -14.06423828 22.56609375 -15.46679688 22.54833984 C-16.38589844 22.53931641 -17.305 22.53029297 -18.25195312 22.52099609 C-18.96222656 22.50939453 -19.6725 22.49779297 -20.40429688 22.48583984 C-16.43374937 16.91150256 -12.09332909 11.81349482 -7.45507812 6.78271484 C-5.39768884 4.61410491 -5.39768884 4.61410491 -4.10229492 2.37109375 C-2.40429688 0.48583984 -2.40429688 0.48583984 0 0 Z " fill="#5583F7" transform="translate(175.404296875,39.51416015625)"/>
<path d="M0 0 C-0.50298788 4.40114397 -2.08772731 6.71195019 -5 10 C-3.95838876 11.62468844 -3.95838876 11.62468844 -2 13 C0.53649861 13.3217832 2.83350684 13.46111557 5.3737793 13.4675293 C6.12214554 13.48081772 6.87051178 13.49410614 7.64155579 13.50779724 C10.11921755 13.54653101 12.596292 13.56209555 15.07421875 13.57421875 C16.79954662 13.58894031 18.52487316 13.60381989 20.25019836 13.61885071 C23.87085714 13.64585945 27.49131034 13.65939356 31.11206055 13.66577148 C35.73851057 13.67661861 40.3627674 13.73824409 44.98857403 13.8124876 C48.55498975 13.86101431 52.1208835 13.87330355 55.68760109 13.87583351 C57.39203404 13.88304109 59.09646649 13.90342699 60.80057335 13.93753624 C70.20651615 14.38752326 70.20651615 14.38752326 78.73428345 11.15908813 C80.87505721 9.02630487 80.87505721 9.02630487 82.48298645 6.71882629 C82.98360092 6.15161362 83.48421539 5.58440094 84 5 C85.32 5 86.64 5 88 5 C89 8 89 8 87.5625 11.1875 C86.7890625 12.5796875 86.7890625 12.5796875 86 14 C89.58326501 14.05814085 93.16640838 14.09364357 96.75 14.125 C97.76578125 14.14175781 98.7815625 14.15851563 99.828125 14.17578125 C101.29765625 14.18544922 101.29765625 14.18544922 102.796875 14.1953125 C104.14797363 14.21102295 104.14797363 14.21102295 105.52636719 14.22705078 C108.19443996 13.98215267 109.7562848 13.44473519 112 12 C112.57621094 11.15050781 113.15242187 10.30101562 113.74609375 9.42578125 C116.39831996 6.57130556 118.06802709 6.36458211 121.89257812 6.20507812 C122.60865234 6.19927734 123.32472656 6.19347656 124.0625 6.1875 C124.78244141 6.16236328 125.50238281 6.13722656 126.24414062 6.11132812 C129.16301349 6.01647153 132.07974781 6 135 6 C132.10633124 8.89366876 129.06338793 8.22929178 125.1875 8.25 C124.11918945 8.23259766 124.11918945 8.23259766 123.02929688 8.21484375 C120.07594825 8.28587711 117.71164381 8.36673303 115.44384766 10.38476562 C114.24425965 11.88326015 113.11705609 13.4390122 112 15 C111.34 15 110.68 15 110 15 C110 15.66 110 16.32 110 17 C101.75 17 93.5 17 85 17 C84.01 15.02 84.01 15.02 83 13 C82.23872803 13.48968262 81.47745605 13.97936523 80.69311523 14.48388672 C75.66479921 16.54813227 71.28946753 16.35516156 65.91015625 16.2578125 C64.82502243 16.25101471 63.73988861 16.24421692 62.62187195 16.23721313 C59.10182742 16.21322341 55.58234241 16.16928301 52.0625 16.125 C47.24613499 16.08287531 42.4297476 16.05140384 37.61328125 16.0234375 C36.43120087 16.01558228 35.24912048 16.00772705 34.03121948 15.99963379 C27.31650668 15.96846443 20.62587178 16.04604401 13.91796875 16.3515625 C12.83365318 16.39973618 12.83365318 16.39973618 11.72743225 16.44888306 C8.52377014 16.59841303 5.32503849 16.77890895 2.12524414 16.99658203 C-4.92662186 17.36797789 -9.85133407 16.57388739 -16 13 C-12.87608257 9.77531104 -9.63668034 6.70607022 -6.3125 3.6875 C-5.54550781 2.99011719 -4.77851562 2.29273438 -3.98828125 1.57421875 C-2 0 -2 0 0 0 Z " fill="#C33EB3" transform="translate(87,52)"/>
<path d="M0 0 C1.27701782 0.02187378 1.27701782 0.02187378 2.57983398 0.04418945 C3.97298828 0.05675781 3.97298828 0.05675781 5.39428711 0.06958008 C6.36172852 0.09858398 7.32916992 0.12758789 8.32592773 0.1574707 C9.29723633 0.16713867 10.26854492 0.17680664 11.26928711 0.18676758 C18.42579089 0.30115228 18.42579089 0.30115228 20.76342773 1.4699707 C20.76342773 4.83510576 20.30285736 6.87490484 18.02124023 9.3918457 C13.21165332 13.65528905 10.12929822 15.61757941 3.57592773 15.5324707 C2.67487305 15.52344727 1.77381836 15.51442383 0.84545898 15.50512695 C0.15838867 15.49352539 -0.52868164 15.48192383 -1.23657227 15.4699707 C0.14402919 12.62064429 1.23077558 10.43981127 3.76342773 8.4699707 C6.45092773 7.7824707 6.45092773 7.7824707 8.76342773 7.4699707 C6.56428277 6.87799457 6.56428277 6.87799457 3.76342773 7.4699707 C0.39719716 10.08459635 -2.37029087 13.29240144 -4.88891602 16.71606445 C-9.08257351 22.25169235 -9.08257351 22.25169235 -12.90063477 22.97387695 C-15.39676503 22.97036128 -17.76792054 22.82760234 -20.23657227 22.4699707 C-16.26602476 16.89563342 -11.92560448 11.79762567 -7.28735352 6.7668457 C-5.23181897 4.59415767 -5.23181897 4.59415767 -3.90942383 2.35302734 C-2.23657227 0.4699707 -2.23657227 0.4699707 0 0 Z " fill="#2EA3F6" transform="translate(207.236572265625,39.530029296875)"/>
<path d="M0 0 C1.32 0.33 2.64 0.66 4 1 C3.40832031 1.65226562 2.81664062 2.30453125 2.20703125 2.9765625 C-1.95518632 7.58012451 -6.07669156 12.1907832 -10 17 C-5.98425832 17.61701537 -2.46348087 18.05081648 0.95849609 15.59375 C2.81167347 13.63282382 4.51487381 11.61700693 6.1875 9.5 C12.13990569 2.11768679 12.13990569 2.11768679 16.42578125 1.53125 C17.70001953 1.76328125 17.70001953 1.76328125 19 2 C18.67 2.66 18.34 3.32 18 4 C17.071875 4.268125 16.14375 4.53625 15.1875 4.8125 C11.43990694 6.20866212 10.33973659 7.84820732 8 11 C16.37858358 10.26923632 22.29782728 9.45661403 28 3 C28.66 2.34 29.32 1.68 30 1 C28.90780355 6.89786083 25.57622008 11.2524468 21 15 C17.51488543 15.45349339 14.37322259 15.48690561 10.8828125 15.36132812 C6.85856874 15.373021 6.85856874 15.373021 3.4921875 17.33642578 C2.28142657 18.85486137 1.13742728 20.42588188 0 22 C-2.84909606 22.94969869 -4.64248748 23.12869462 -7.59765625 23.1328125 C-8.92313477 23.13474609 -8.92313477 23.13474609 -10.27539062 23.13671875 C-11.19513672 23.13285156 -12.11488281 23.12898438 -13.0625 23.125 C-13.98611328 23.12886719 -14.90972656 23.13273437 -15.86132812 23.13671875 C-16.74369141 23.13542969 -17.62605469 23.13414063 -18.53515625 23.1328125 C-19.343479 23.13168457 -20.15180176 23.13055664 -20.98461914 23.12939453 C-23 23 -23 23 -25 22 C-24.67 20.68 -24.34 19.36 -24 18 C-23.38253906 18.05542969 -22.76507813 18.11085938 -22.12890625 18.16796875 C-17.56829114 18.20267663 -14.93727524 17.86675924 -11.5078125 14.6953125 C-9.22830082 11.86319193 -7.095581 8.9701148 -5 6 C-3.99385842 4.75877862 -2.97637011 3.52646058 -1.9375 2.3125 C-1.298125 1.549375 -0.65875 0.78625 0 0 Z " fill="#6B286C" transform="translate(198,44)"/>
<path d="M0 0 C12.54 0 25.08 0 38 0 C38 0.66 38 1.32 38 2 C37.3608667 1.96221436 36.7217334 1.92442871 36.06323242 1.88549805 C22.84805826 0.77540029 22.84805826 0.77540029 11.234375 5.71484375 C8.39821785 8.87390658 6.21532176 12.38843138 4 16 C2.80296122 17.46436167 1.58015232 18.90882107 0.3125 20.3125 C-0.8321875 21.6428125 -0.8321875 21.6428125 -2 23 C1.62208293 23.64262762 3.51448758 23.9380129 7 23 C11.50784978 19.17221376 15.31391572 14.6413853 18.49609375 9.65625 C20 8 20 8 22.26171875 7.609375 C23.06222656 7.65578125 23.86273438 7.7021875 24.6875 7.75 C25.49574219 7.78609375 26.30398437 7.8221875 27.13671875 7.859375 C28.05904297 7.92898437 28.05904297 7.92898437 29 8 C28.67 8.66 28.34 9.32 28 10 C26.39125 10.12375 26.39125 10.12375 24.75 10.25 C19.75410317 11.24917937 18.85762456 12.93004988 16 17 C17.65 17 19.3 17 21 17 C19.68 18.32 18.36 19.64 17 21 C17 20.34 17 19.68 17 19 C13.08637121 20.06735331 11.44780621 21.62316405 9 24.6875 C6.46848409 27.41635011 5.44343446 27.96888179 1.66015625 28.234375 C-1.60105302 27.96526327 -4.7796939 27.5762653 -8 27 C-6.44723191 23.48584063 -4.33432968 20.81419888 -1.875 17.875 C2.47919822 12.63161382 6.75513485 7.33210582 11 2 C6.91942935 1.8882432 3.37726385 1.95462348 0.03857422 4.48876953 C-1.78036102 6.44083449 -3.43441676 8.44888188 -5.0625 10.5625 C-5.93165039 11.62887695 -5.93165039 11.62887695 -6.81835938 12.71679688 C-8.23516135 14.46145385 -9.62684615 16.22093128 -11 18 C-11.99 17.67 -12.98 17.34 -14 17 C-13.21753906 16.08476563 -12.43507812 15.16953125 -11.62890625 14.2265625 C-10.60666469 13.02613205 -9.58453507 11.82560626 -8.5625 10.625 C-8.04623047 10.02171875 -7.52996094 9.4184375 -6.99804688 8.796875 C-4.21367706 5.59551296 -4.21367706 5.59551296 -2 2 C-1.34 2 -0.68 2 0 2 C0 1.34 0 0.68 0 0 Z " fill="#7B2C7B" transform="translate(158,38)"/>
<path d="M0 0 C0 3 0 3 -1.4609375 4.82421875 C-2.09257813 5.43910156 -2.72421875 6.05398437 -3.375 6.6875 C-4.00148438 7.31011719 -4.62796875 7.93273438 -5.2734375 8.57421875 C-7 10 -7 10 -9 10 C-9 10.99 -9 11.98 -9 13 C-8.34402832 12.83773926 -7.68805664 12.67547852 -7.01220703 12.50830078 C-3.26525799 11.87601452 0.40822078 11.85695281 4.1953125 11.8671875 C4.98340302 11.86623077 5.77149353 11.86527405 6.58346558 11.86428833 C8.24932943 11.86360945 9.91519596 11.86544333 11.58105469 11.86962891 C14.09576578 11.87493828 16.61029474 11.86969631 19.125 11.86328125 C27.46721886 11.86017705 35.70583782 11.97978784 44 13 C44 13.33 44 13.66 44 14 C42.97261719 14.020625 41.94523437 14.04125 40.88671875 14.0625 C35.65571713 15.32424914 33.96288725 17.83771983 30.8125 22 C29.80677346 23.29837124 28.79273411 24.59035621 27.76953125 25.875 C27.33229736 26.44992188 26.89506348 27.02484375 26.44458008 27.6171875 C24.70231074 29.28496062 23.34920554 29.60820413 21 30 C25.06133537 24.40636594 29.3791401 19.14036486 34 14 C32.41632253 14.14204741 30.83306682 14.28880153 29.25 14.4375 C28.36828125 14.51871094 27.4865625 14.59992187 26.578125 14.68359375 C24.30649548 14.96238465 22.20148177 15.38790577 20 16 C20 15.34 20 14.68 20 14 C15.68619029 13.99368733 11.37566951 14.0536711 7.0625 14.125 C5.24395508 14.12113281 5.24395508 14.12113281 3.38867188 14.1171875 C-3.81989711 14.27347084 -8.46519271 15.0182348 -14.13500977 19.62060547 C-16.10971356 21.08114696 -17.60246256 21.5744962 -20 22 C-19.35330586 20.65686601 -18.68096422 19.32608822 -18 18 C-17.62875 17.2575 -17.2575 16.515 -16.875 15.75 C-14.11071661 11.69571769 -10.72870868 8.19038131 -7 5 C-6.34 5 -5.68 5 -5 5 C-5 4.34 -5 3.68 -5 3 C-2.5 1.375 -2.5 1.375 0 0 Z " fill="#CF42BD" transform="translate(110,26)"/>
<path d="M0 0 C4.29 0 8.58 0 13 0 C13 0.33 13 0.66 13 1 C8.545 1.495 8.545 1.495 4 2 C7.78916639 3.8354072 11.57947284 5.66843232 15.37084961 7.49926758 C16.66022764 8.12231294 17.94929296 8.74600588 19.23803711 9.37036133 C21.09146423 10.26814857 22.94600679 11.16359401 24.80078125 12.05859375 C25.91622314 12.59798584 27.03166504 13.13737793 28.1809082 13.69311523 C30.98685879 15.05790057 30.98685879 15.05790057 34 16 C33 19 33 19 30.9375 20.1875 C30.298125 20.455625 29.65875 20.72375 29 21 C28.34 20.01 27.68 19.02 27 18 C24.28054772 16.34193732 21.7381347 15.63597218 18.625 15.0625 C14.69358108 14.24533109 11.55627667 12.89668089 8 11 C6.948125 10.67 5.89625 10.34 4.8125 10 C0.49696356 8.46558704 0.49696356 8.46558704 -1 6 C-0.67 4.02 -0.34 2.04 0 0 Z " fill="#942F87" transform="translate(40,19)"/>
<path d="M0 0 C23.43 0 46.86 0 71 0 C70.67 0.99 70.34 1.98 70 3 C46.9 3 23.8 3 0 3 C0 2.01 0 1.02 0 0 Z " fill="#601E57" transform="translate(30,79)"/>
<path d="M0 0 C0.66 0.33 1.32 0.66 2 1 C2 4.3 2 7.6 2 11 C-4.625 15 -4.625 15 -8 15 C-8.66 16.32 -9.32 17.64 -10 19 C-12.31 19 -14.62 19 -17 19 C-19.33479983 15.35187527 -19.38018947 12.25812212 -19 8 C-18.0625 5.75 -18.0625 5.75 -16 4 C-13.05432688 2.78830467 -10.06811172 1.8490372 -7 1 C-7.66 2.32 -8.32 3.64 -9 5 C-10.98 5 -12.96 5 -15 5 C-15.66 6.32 -16.32 7.64 -17 9 C-16.01 9.66 -15.02 10.32 -14 11 C-14.99 12.485 -14.99 12.485 -16 14 C-13.62625139 14.33425735 -13.62625139 14.33425735 -11 14 C-10.2884375 13.01 -10.2884375 13.01 -9.5625 12 C-9.046875 11.34 -8.53125 10.68 -8 10 C-4.8125 9.75 -4.8125 9.75 -2 10 C-1.34 8.68 -0.68 7.36 0 6 C-0.99 5.34 -1.98 4.68 -3 4 C-2.01 2.68 -1.02 1.36 0 0 Z " fill="#832B79" transform="translate(249,31)"/>
<path d="M0 0 C3.95820859 0.56545837 6.6659053 1.80902348 10 4 C9.58518512 8.45660087 6.48915112 10.88261973 3.4375 13.8125 C2.89029297 14.34875 2.34308594 14.885 1.77929688 15.4375 C-1.6587941 18.7824507 -5.19441447 21.97511474 -8.859375 25.0703125 C-10.64936506 26.68391668 -12.33338761 28.33180126 -14.015625 30.0546875 C-14.54929687 30.60060547 -15.08296875 31.14652344 -15.6328125 31.70898438 C-16.69181752 32.79996419 -17.74419952 33.89742158 -18.7890625 35.00195312 C-23.35208925 39.70380212 -23.35208925 39.70380212 -27 40 C-27.99 40 -28.98 40 -30 40 C-29.26394531 39.40832031 -28.52789063 38.81664062 -27.76953125 38.20703125 C-26.79371094 37.41683594 -25.81789063 36.62664062 -24.8125 35.8125 C-23.84957031 35.03519531 -22.88664062 34.25789063 -21.89453125 33.45703125 C-19.11101358 31.0942342 -16.56678834 28.59329562 -14 26 C-12.948125 25.2575 -12.948125 25.2575 -11.875 24.5 C-9.85937132 23.08184905 -9.85937132 23.08184905 -8.75 20.75 C-6.60083851 17.37274623 -3.98062108 15.20905863 -0.93359375 12.6484375 C1.13610538 10.93532758 1.13610538 10.93532758 3.375 8.5625 C5 7 5 7 7 7 C7 6.01 7 5.02 7 4 C6.030625 3.71125 5.06125 3.4225 4.0625 3.125 C1 2 1 2 0 0 Z " fill="#AE34A2" transform="translate(59,34)"/>
<path d="M0 0 C3.1875 -0.25 3.1875 -0.25 6 0 C5.34 1.32 4.68 2.64 4 4 C4.99 4.66 5.98 5.32 7 6 C5.12956201 9.30077292 4.17305965 9.94838572 0.4375 11.0625 C-1.2640625 11.5265625 -1.2640625 11.5265625 -3 12 C-3.99 13.485 -3.99 13.485 -5 15 C-8.125 15.1875 -8.125 15.1875 -11 15 C-10.34 13.68 -9.68 12.36 -9 11 C-9.99 10.34 -10.98 9.68 -12 9 C-10.875 7.0625 -10.875 7.0625 -9 5 C-7 4.66666667 -5 4.33333333 -3 4 C-2.505 3.319375 -2.01 2.63875 -1.5 1.9375 C-1.005 1.298125 -0.51 0.65875 0 0 Z " fill="#0BC0F7" transform="translate(243,31)"/>
<path d="M0 0 C12.54 0 25.08 0 38 0 C38 0.66 38 1.32 38 2 C36.97753174 1.95174072 35.95506348 1.90348145 34.90161133 1.85375977 C14.77749008 -0.01004572 14.77749008 -0.01004572 -3.28515625 6.40625 C-6.56055541 9.91196055 -8.9079093 13.69671442 -11 18 C-11.99 17.67 -12.98 17.34 -14 17 C-13.21753906 16.08476563 -12.43507812 15.16953125 -11.62890625 14.2265625 C-10.60666469 13.02613205 -9.58453507 11.82560626 -8.5625 10.625 C-8.04623047 10.02171875 -7.52996094 9.4184375 -6.99804688 8.796875 C-4.21367706 5.59551296 -4.21367706 5.59551296 -2 2 C-1.34 2 -0.68 2 0 2 C0 1.34 0 0.68 0 0 Z " fill="#D042BE" transform="translate(158,38)"/>
<path d="M0 0 C0.66 0.33 1.32 0.66 2 1 C-0.89366876 3.89366876 -3.93661207 3.22929178 -7.8125 3.25 C-8.52470703 3.23839844 -9.23691406 3.22679687 -9.97070312 3.21484375 C-12.92405175 3.28587711 -15.28835619 3.36673303 -17.55615234 5.38476562 C-18.75574035 6.88326015 -19.88294391 8.4390122 -21 10 C-21.66 10 -22.32 10 -23 10 C-23 10.66 -23 11.32 -23 12 C-31.25 12 -39.5 12 -48 12 C-48.66 10.68 -49.32 9.36 -50 8 C-51.98 8.99 -51.98 8.99 -54 10 C-53.45912682 6.21388773 -51.88277668 4.44599233 -49 2 C-48.34 2 -47.68 2 -47 2 C-47.33 4.31 -47.66 6.62 -48 9 C-44.25006521 9.05811773 -40.50024648 9.09363593 -36.75 9.125 C-35.68652344 9.14175781 -34.62304688 9.15851563 -33.52734375 9.17578125 C-31.99013672 9.18544922 -31.99013672 9.18544922 -30.421875 9.1953125 C-29.00793457 9.21102295 -29.00793457 9.21102295 -27.56542969 9.22705078 C-24.84636636 8.98640281 -23.27888196 8.4794342 -21 7 C-20.13955078 5.72382812 -20.13955078 5.72382812 -19.26171875 4.421875 C-16.57531796 1.54524549 -14.86906133 1.38808121 -11.00976562 1.25390625 C-10.28466797 1.25261719 -9.55957031 1.25132813 -8.8125 1.25 C-4.02295528 1.58838667 -4.02295528 1.58838667 0 0 Z " fill="#D343C1" transform="translate(220,57)"/>
<path d="M0 0 C0.99 0.33 1.98 0.66 3 1 C1.14002397 3.30540718 -0.73626986 5.59334255 -2.625 7.875 C-3.14707031 8.52597656 -3.66914062 9.17695312 -4.20703125 9.84765625 C-7.47631965 13.76273002 -9.81926796 15.89539948 -15 17 C-14.38511719 16.29423828 -14.38511719 16.29423828 -13.7578125 15.57421875 C-13.21898438 14.95160156 -12.68015625 14.32898437 -12.125 13.6875 C-11.32449219 12.76517578 -11.32449219 12.76517578 -10.5078125 11.82421875 C-8.8359553 9.86501788 -8.8359553 9.86501788 -7 7 C-13.27 7 -19.54 7 -26 7 C-26 6.34 -26 5.68 -26 5 C-23.59838243 3.79919121 -21.99718316 3.84444101 -19.31640625 3.7890625 C-17.92518555 3.74652344 -17.92518555 3.74652344 -16.50585938 3.703125 C-14.54771536 3.65115037 -12.58935232 3.60684668 -10.63085938 3.5703125 C-9.23770508 3.52390625 -9.23770508 3.52390625 -7.81640625 3.4765625 C-6.96506104 3.45674316 -6.11371582 3.43692383 -5.23657227 3.41650391 C-2.58103746 2.92197903 -1.68091168 2.06117901 0 0 Z " fill="#792980" transform="translate(129,42)"/>
<path d="M0 0 C7.26315789 0.48421053 7.26315789 0.48421053 10.5 2.75 C12.29700651 5.44550976 12.50188782 6.82137714 12 10 C10 12 10 12 6.98812866 12.24050903 C5.04953476 12.2338472 5.04953476 12.2338472 3.07177734 12.22705078 C2.00332329 12.22748886 2.00332329 12.22748886 0.9132843 12.22793579 C-1.44595434 12.22654016 -3.80487889 12.21096827 -6.1640625 12.1953125 C-7.79788032 12.19158319 -9.43170038 12.18873583 -11.06552124 12.18673706 C-15.36952876 12.1790941 -19.67340168 12.15943999 -23.97735596 12.1373291 C-28.36769795 12.1168849 -32.75806165 12.1077384 -37.1484375 12.09765625 C-45.76568682 12.07619466 -54.38282668 12.04205081 -63 12 C-63 11.67 -63 11.34 -63 11 C-38.91 10.67 -14.82 10.34 10 10 C9.505 7.525 9.505 7.525 9 5 C6.94773448 3.53827523 6.94773448 3.53827523 4.4375 2.6875 C3.61121094 2.36136719 2.78492187 2.03523438 1.93359375 1.69921875 C1.29550781 1.46847656 0.65742187 1.23773438 0 1 C0 0.67 0 0.34 0 0 Z " fill="#DA45C7" transform="translate(92,73)"/>
<path d="M0 0 C1.09445938 0.00212242 1.09445938 0.00212242 2.21102905 0.00428772 C4.54437335 0.00989094 6.87762214 0.0224439 9.2109375 0.03515625 C10.79166528 0.04017084 12.37239457 0.04473382 13.953125 0.04882812 C17.83076604 0.05986141 21.70833557 0.07712814 25.5859375 0.09765625 C25.2559375 1.08765625 24.9259375 2.07765625 24.5859375 3.09765625 C13.3659375 3.09765625 2.1459375 3.09765625 -9.4140625 3.09765625 C-9.4140625 2.43765625 -9.4140625 1.77765625 -9.4140625 1.09765625 C-6.40193221 -0.4084089 -3.30123628 -0.02394706 0 0 Z " fill="#6A2467" transform="translate(125.4140625,61.90234375)"/>
<path d="M0 0 C0.66 0.33 1.32 0.66 2 1 C-0.85867693 4.53426269 -2.22031242 5.89854475 -6.8125 6.49609375 C-8.91810545 6.50205301 -11.013066 6.43702991 -13.1171875 6.36132812 C-17.14143126 6.373021 -17.14143126 6.373021 -20.5078125 8.33642578 C-21.71857343 9.85486137 -22.86257272 11.42588188 -24 13 C-27.42232972 14.14077657 -30.08673217 14.09815117 -33.6875 14.0625 C-35.45673828 14.04896484 -35.45673828 14.04896484 -37.26171875 14.03515625 C-38.16535156 14.02355469 -39.06898438 14.01195313 -40 14 C-40 13.34 -40 12.68 -40 12 C-37.47711182 11.32722982 -35.26134328 10.97999702 -32.65234375 11.1796875 C-29.96958832 11.38200691 -27.65375972 11.47110718 -25 11 C-23.40391322 9.5061154 -23.40391322 9.5061154 -22.1875 7.5625 C-20.20017635 4.72102579 -19.44099989 4.08435043 -15.95703125 3.41796875 C-13.66409089 3.30656035 -11.36938067 3.22679459 -9.07421875 3.1796875 C-5.2522674 2.95629517 -3.22762605 1.919129 0 0 Z " fill="#A33495" transform="translate(222,53)"/>
<path d="M0 0 C0.495 1.485 0.495 1.485 1 3 C-1.83869099 7.81343256 -5.74340562 10.40232643 -11 12 C-13.20545385 12.15349312 -15.41497116 12.25454029 -17.625 12.3125 C-22.23684235 12.46207685 -22.23684235 12.46207685 -26.16796875 14.609375 C-27.62876083 16.34428246 -28.8753596 18.03316313 -30 20 C-30.66 19.67 -31.32 19.34 -32 19 C-30.08538791 16.74822352 -28.16840121 14.49854467 -26.25 12.25 C-25.71117187 11.61578125 -25.17234375 10.9815625 -24.6171875 10.328125 C-18.46317268 3.12342473 -18.46317268 3.12342473 -16 1 C-12.75 0.75 -12.75 0.75 -10 1 C-10.33 1.66 -10.66 2.32 -11 3 C-11.928125 3.268125 -12.85625 3.53625 -13.8125 3.8125 C-17.56009306 5.20866212 -18.66026341 6.84820732 -21 10 C-10.59499784 9.09843301 -10.59499784 9.09843301 -2.171875 3.4375 C-0.90275637 1.98761765 -0.90275637 1.98761765 0 0 Z " fill="#6F276B" transform="translate(227,45)"/>
<path d="M0 0 C1.20076172 0.06960937 1.20076172 0.06960937 2.42578125 0.140625 C3.23402344 0.17671875 4.04226562 0.2128125 4.875 0.25 C5.79732422 0.31960937 5.79732422 0.31960937 6.73828125 0.390625 C6.40828125 1.050625 6.07828125 1.710625 5.73828125 2.390625 C4.66578125 2.473125 3.59328125 2.555625 2.48828125 2.640625 C-2.50761558 3.63980437 -3.40409419 5.32067488 -6.26171875 9.390625 C-4.61171875 9.390625 -2.96171875 9.390625 -1.26171875 9.390625 C-2.58171875 10.710625 -3.90171875 12.030625 -5.26171875 13.390625 C-5.26171875 12.730625 -5.26171875 12.070625 -5.26171875 11.390625 C-8.82600376 12.43894412 -10.77408091 13.80254203 -13.19921875 16.515625 C-15.58421905 19.06788506 -15.94943252 19.35592653 -19.63671875 19.765625 C-20.93609375 19.58 -20.93609375 19.58 -22.26171875 19.390625 C-22.59171875 18.400625 -22.92171875 17.410625 -23.26171875 16.390625 C-22.14796875 16.4525 -21.03421875 16.514375 -19.88671875 16.578125 C-13.08681238 15.80237811 -9.2474539 9.39580218 -5.26171875 4.390625 C-4.76671875 3.61847656 -4.27171875 2.84632812 -3.76171875 2.05078125 C-2.26171875 0.390625 -2.26171875 0.390625 0 0 Z " fill="#69276B" transform="translate(180.26171875,45.609375)"/>
<path d="M0 0 C-0.78375 0.0825 -1.5675 0.165 -2.375 0.25 C-5.14044802 0.71525923 -5.14044802 0.71525923 -6.1875 3 C-6.455625 3.66 -6.72375 4.32 -7 5 C-9.57169949 6.28584974 -11.49837366 6.15950176 -14.375 6.2109375 C-15.97601563 6.25347656 -15.97601563 6.25347656 -17.609375 6.296875 C-19.86962524 6.3489545 -22.13006886 6.39322692 -24.390625 6.4296875 C-25.45796875 6.460625 -26.5253125 6.4915625 -27.625 6.5234375 C-29.09839844 6.5531665 -29.09839844 6.5531665 -30.6015625 6.58349609 C-31.39304688 6.72094238 -32.18453125 6.85838867 -33 7 C-33.99 8.485 -33.99 8.485 -35 10 C-36.32 10 -37.64 10 -39 10 C-40.75 8 -40.75 8 -42 6 C-41.05125 6.04125 -40.1025 6.0825 -39.125 6.125 C-35.89755144 6.34973818 -35.89755144 6.34973818 -34 4 C-31.61743164 3.78881836 -31.61743164 3.78881836 -28.66015625 3.83984375 C-27.0659082 3.8562793 -27.0659082 3.8562793 -25.43945312 3.87304688 C-24.32505859 3.89431641 -23.21066406 3.91558594 -22.0625 3.9375 C-19.86595095 3.97192068 -17.66932952 4.00206405 -15.47265625 4.02734375 C-14.49562744 4.04531006 -13.51859863 4.06327637 -12.51196289 4.08178711 C-9.87061953 4.11531119 -9.87061953 4.11531119 -7 3 C-6.67 2.01 -6.34 1.02 -6 0 C-3 -1 -3 -1 0 0 Z " fill="#D945C6" transform="translate(238,34)"/>
<path d="M0 0 C0.66 0.33 1.32 0.66 2 1 C1.43410156 1.48210938 0.86820313 1.96421875 0.28515625 2.4609375 C-0.44832031 3.09257813 -1.18179688 3.72421875 -1.9375 4.375 C-2.66839844 5.00148438 -3.39929688 5.62796875 -4.15234375 6.2734375 C-6.08380906 7.87747714 -6.08380906 7.87747714 -7 10 C-0.73 10 5.54 10 12 10 C11.67 10.66 11.34 11.32 11 12 C4.07 12 -2.86 12 -10 12 C-9.67 10.68 -9.34 9.36 -9 8 C-10.98 8.99 -10.98 8.99 -13 10 C-11.64905419 5.94716257 -9.62004582 5.12943872 -6 3 C-4.6757713 2.63215869 -3.34386088 2.28797019 -2 2 C-1.34 1.34 -0.68 0.68 0 0 Z " fill="#98308D" transform="translate(96,44)"/>
<path d="M0 0 C1 2 1 2 1 8 C21.13 8 41.26 8 62 8 C62 8.33 62 8.66 62 9 C41.21 9 20.42 9 -1 9 C-2 3 -2 3 0 0 Z " fill="#BC3CAB" transform="translate(28,75)"/>
<path d="M0 0 C0.66 0.33 1.32 0.66 2 1 C2 4.3 2 7.6 2 11 C-5.625 14 -5.625 14 -9 14 C-9.33 14.99 -9.66 15.98 -10 17 C-11.65 17 -13.3 17 -15 17 C-15 16.34 -15 15.68 -15 15 C-14.1028125 14.87625 -14.1028125 14.87625 -13.1875 14.75 C-10.8229863 14.18669597 -10.8229863 14.18669597 -9.625 11.9375 C-8.820625 10.9784375 -8.820625 10.9784375 -8 10 C-4.8125 9.75 -4.8125 9.75 -2 10 C-1.34 8.68 -0.68 7.36 0 6 C-0.99 5.34 -1.98 4.68 -3 4 C-2.01 2.68 -1.02 1.36 0 0 Z " fill="#7A2A73" transform="translate(249,31)"/>
<path d="M0 0 C0.99 0 1.98 0 3 0 C2.67 0.99 2.34 1.98 2 3 C-17.02782979 3.15936206 -35.98865566 2.71726525 -55 2 C-55 1.67 -55 1.34 -55 1 C-15.94157589 0.79361047 -15.94157589 0.79361047 0 2 C0 1.34 0 0.68 0 0 Z " fill="#76256C" transform="translate(98,79)"/>
<path d="M0 0 C0.33 1.32 0.66 2.64 1 4 C-0.25 5.75 -0.25 5.75 -2 7 C-2.99 7 -3.98 7 -5 7 C-5 7.66 -5 8.32 -5 9 C-6.328125 10.3046875 -6.328125 10.3046875 -8.25 11.875 C-14.17833782 16.89702718 -19.55174107 22.47001718 -25 28 C-25.66 27.67 -26.32 27.34 -27 27 C-18.09 18.09 -9.18 9.18 0 0 Z " fill="#872A7C" transform="translate(110,22)"/>
<path d="M0 0 C2.65186289 1.09124008 5.29584828 2.19703619 7.9375 3.3125 C8.69224609 3.62123047 9.44699219 3.92996094 10.22460938 4.24804688 C11.30258789 4.70727539 11.30258789 4.70727539 12.40234375 5.17578125 C13.06741943 5.45333252 13.73249512 5.73088379 14.41772461 6.0168457 C16 7 16 7 17 10 C10.59859065 9.53444296 5.73230171 7.85288164 0 5 C0 3.35 0 1.7 0 0 Z " fill="#591B52" transform="translate(41,20)"/>
<path d="M0 0 C5.28 2.31 10.56 4.62 16 7 C15 10 15 10 12.9375 11.1875 C12.298125 11.455625 11.65875 11.72375 11 12 C10.34 11.01 9.68 10.02 9 9 C6.94996045 7.80767387 6.94996045 7.80767387 5 7 C5 6.34 5 5.68 5 5 C2.69 4.34 0.38 3.68 -2 3 C-1.34 2.67 -0.68 2.34 0 2 C0 1.34 0 0.68 0 0 Z " fill="#681F61" transform="translate(58,28)"/>
<path d="M0 0 C0.99 0.33 1.98 0.66 3 1 C0.26232877 3.82473024 -2.4921069 6.63252092 -5.25 9.4375 C-6.02730469 10.23994141 -6.80460937 11.04238281 -7.60546875 11.86914062 C-8.73662109 13.01479492 -8.73662109 13.01479492 -9.890625 14.18359375 C-10.92751465 15.24404907 -10.92751465 15.24404907 -11.98535156 16.32592773 C-14.9960675 18.82768236 -17.15154795 19 -21 19 C-20.26394531 18.40832031 -19.52789063 17.81664063 -18.76953125 17.20703125 C-17.79371094 16.41683594 -16.81789063 15.62664062 -15.8125 14.8125 C-14.36810547 13.64654297 -14.36810547 13.64654297 -12.89453125 12.45703125 C-10.10830504 10.09193505 -7.54835243 7.61722682 -5 5 C-2.5 2.5 -2.5 2.5 0 0 Z " fill="#A13094" transform="translate(50,55)"/>
<path d="M0 0 C1.32 0.33 2.64 0.66 4 1 C-5.41002278 11.55808656 -5.41002278 11.55808656 -10 16 C-10.99 15.67 -11.98 15.34 -13 15 C-12.14535156 14.08476563 -11.29070312 13.16953125 -10.41015625 12.2265625 C-9.29415079 11.02615326 -8.17827192 9.82562632 -7.0625 8.625 C-6.49853516 8.02171875 -5.93457031 7.4184375 -5.35351562 6.796875 C-4.54624023 5.92675781 -4.54624023 5.92675781 -3.72265625 5.0390625 C-3.22515869 4.50490723 -2.72766113 3.97075195 -2.21508789 3.42041016 C-0.89706492 1.9954525 -0.89706492 1.9954525 0 0 Z " fill="#7B3381" transform="translate(198,44)"/>
<path d="M0 0 C0.99 0.33 1.98 0.66 3 1 C1.09422661 3.32228675 -0.82354536 5.63247462 -2.75 7.9375 C-3.28882813 8.59685547 -3.82765625 9.25621094 -4.3828125 9.93554688 C-4.91132813 10.56396484 -5.43984375 11.19238281 -5.984375 11.83984375 C-6.46616211 12.42113037 -6.94794922 13.00241699 -7.44433594 13.60131836 C-9.2559489 15.23012104 -10.62344867 15.60316077 -13 16 C-8.93866463 10.40636594 -4.6208599 5.14036486 0 0 Z " fill="#802B7C" transform="translate(144,40)"/>
<path d="M0 0 C1 3 1 3 -0.4375 6.1875 C-1.2109375 7.5796875 -1.2109375 7.5796875 -2 9 C-2.93423645 5.98968256 -3.04449911 5.13349732 -2 2 C-2.969375 2.763125 -3.93875 3.52625 -4.9375 4.3125 C-5.48277344 4.74175781 -6.02804688 5.17101563 -6.58984375 5.61328125 C-8.27155077 7.05683091 -8.27155077 7.05683091 -9 10 C-12.3 10 -15.6 10 -19 10 C-19 9.67 -19 9.34 -19 9 C-18.01 9 -17.02 9 -16 9 C-11.21708317 8.38879562 -8.91578989 5.21605794 -5.89453125 1.71484375 C-4 0 -4 0 0 0 Z " fill="#A03697" transform="translate(175,57)"/>
<path d="M0 0 C0.99 0.33 1.98 0.66 3 1 C1.54300902 2.79275845 0.08436345 4.58417229 -1.375 6.375 C-2.18710938 7.37273438 -2.99921875 8.37046875 -3.8359375 9.3984375 C-6 12 -6 12 -8 14 C-8.99 13.67 -9.98 13.34 -11 13 C-7.37 8.71 -3.74 4.42 0 0 Z " fill="#7B2C7B" transform="translate(155,42)"/>
<path d="M0 0 C9.24 0 18.48 0 28 0 C28 0.33 28 0.66 28 1 C17.11 1.495 17.11 1.495 6 2 C6.99 2.99 7.98 3.98 9 5 C6.03 4.01 3.06 3.02 0 2 C0 1.34 0 0.68 0 0 Z " fill="#E348D0" transform="translate(83,68)"/>
<path d="M0 0 C0.91644287 0.00523682 1.83288574 0.01047363 2.77709961 0.01586914 C3.76645508 0.0190918 4.75581055 0.02231445 5.77514648 0.02563477 C6.81606445 0.03401367 7.85698242 0.04239258 8.92944336 0.05102539 C10.49662109 0.05779297 10.49662109 0.05779297 12.09545898 0.06469727 C14.68600996 0.07652627 17.27644895 0.0930085 19.86694336 0.11352539 C19.86694336 0.44352539 19.86694336 0.77352539 19.86694336 1.11352539 C18.97386475 1.13539917 18.97386475 1.13539917 18.06274414 1.15771484 C15.37181285 1.23206883 12.68214003 1.32876726 9.99194336 1.42602539 C8.5862207 1.45986328 8.5862207 1.45986328 7.15209961 1.49438477 C5.80825195 1.54755859 5.80825195 1.54755859 4.43725586 1.60180664 C3.19613037 1.64108276 3.19613037 1.64108276 1.92993164 1.68115234 C-0.52633596 1.94449176 -0.52633596 1.94449176 -2.13305664 5.11352539 C-3.45305664 5.11352539 -4.77305664 5.11352539 -6.13305664 5.11352539 C-7.88305664 3.11352539 -7.88305664 3.11352539 -9.13305664 1.11352539 C-7.67899414 1.14446289 -7.67899414 1.14446289 -6.19555664 1.17602539 C-2.89616289 1.10869082 -2.95384468 0.15720931 0 0 Z " fill="#C53FB4" transform="translate(205.133056640625,38.886474609375)"/>
<path d="M0 0 C0.66 0 1.32 0 2 0 C2.41290283 0.48895752 2.82580566 0.97791504 3.2512207 1.48168945 C5.78786432 3.68403298 7.66518321 3.34148512 10.98046875 3.29296875 C12.72553711 3.2784668 12.72553711 3.2784668 14.50585938 3.26367188 C16.32827148 3.2259668 16.32827148 3.2259668 18.1875 3.1875 C20.02731445 3.16719727 20.02731445 3.16719727 21.90429688 3.14648438 C24.93663664 3.11108741 27.96809996 3.0617076 31 3 C30.67 3.66 30.34 4.32 30 5 C20.43 5 10.86 5 1 5 C0.67 3.35 0.34 1.7 0 0 Z " fill="#A53598" transform="translate(80,62)"/>
<path d="M0 0 C7.26315789 0.48421053 7.26315789 0.48421053 10.5 2.75 C12.29700651 5.44550976 12.50188782 6.82137714 12 10 C10 12 10 12 6.375 12.125 C5.26125 12.08375 4.1475 12.0425 3 12 C3 11.67 3 11.34 3 11 C6.465 10.505 6.465 10.505 10 10 C10.2113453 7.6087705 10.2113453 7.6087705 9 5 C6.13325156 3.30699573 3.12586629 2.13036377 0 1 C0 0.67 0 0.34 0 0 Z " fill="#CA40BB" transform="translate(92,73)"/>
<path d="M0 0 C3.95820859 0.56545837 6.6659053 1.80902348 10 4 C9.8125 5.8125 9.8125 5.8125 9 8 C6.6875 9.625 6.6875 9.625 4 11 C3.236875 11.391875 2.47375 11.78375 1.6875 12.1875 C1.130625 12.455625 0.57375 12.72375 0 13 C1.61594832 10.95880212 3.2856382 8.95927063 5 7 C5.66 7 6.32 7 7 7 C7 6.01 7 5.02 7 4 C6.030625 3.71125 5.06125 3.4225 4.0625 3.125 C1 2 1 2 0 0 Z " fill="#C33EB1" transform="translate(59,34)"/>
<path d="M0 0 C1.32 0.33 2.64 0.66 4 1 C1.36 4.3 -1.28 7.6 -4 11 C-4.99 10.34 -5.98 9.68 -7 9 C-4.69 6.03 -2.38 3.06 0 0 Z " fill="#873085" transform="translate(169,40)"/>
<path d="M0 0 C2 2 2 2 2.1953125 4.6015625 C2.17210937 5.59929688 2.14890625 6.59703125 2.125 7.625 C2.10695312 8.62789062 2.08890625 9.63078125 2.0703125 10.6640625 C2.03550781 11.82035156 2.03550781 11.82035156 2 13 C1.67 13 1.34 13 1 13 C0.67 9.7 0.34 6.4 0 3 C-4.16138263 2.91840426 -7.9472484 3.01751476 -12 4 C-8.41606395 -0.7785814 -5.59971929 -0.54190832 0 0 Z " fill="#C63FB4" transform="translate(250,29)"/>
<path d="M0 0 C0.66 3.63 1.32 7.26 2 11 C1.05125 11.309375 0.1025 11.61875 -0.875 11.9375 C-3.86080408 12.87394742 -3.86080408 12.87394742 -6 14 C-4.125 10.125 -4.125 10.125 -3 9 C-2.63239269 6.67182036 -2.29758419 4.3381615 -2 2 C-2.66 1.67 -3.32 1.34 -4 1 C-1 0 -1 0 0 0 Z " fill="#B038A0" transform="translate(230,39)"/>
<path d="M0 0 C0 3.6404329 -0.63096927 4.06307093 -3.125 6.5625 C-6.19262122 9.5239103 -8.7640173 11.07015014 -13 12 C-12.04882866 10.8274869 -11.08882991 9.66212985 -10.125 8.5 C-9.32449219 7.52546875 -9.32449219 7.52546875 -8.5078125 6.53125 C-8.01023437 6.0259375 -7.51265625 5.520625 -7 5 C-6.34 5 -5.68 5 -5 5 C-5 4.34 -5 3.68 -5 3 C-2.5 1.375 -2.5 1.375 0 0 Z " fill="#B73AA6" transform="translate(110,26)"/>
<path d="M0 0 C1 2 1 2 1 8 C5.95 8 10.9 8 16 8 C16 8.33 16 8.66 16 9 C10.39 9 4.78 9 -1 9 C-2 3 -2 3 0 0 Z " fill="#A73598" transform="translate(28,75)"/>
<path d="M0 0 C0.6875 1.8125 0.6875 1.8125 1 4 C-0.25 5.75 -0.25 5.75 -2 7 C-2.99 7 -3.98 7 -5 7 C-5 7.66 -5 8.32 -5 9 C-6.65 9.66 -8.3 10.32 -10 11 C-6.79239749 7.19364503 -3.59253891 3.45436433 0 0 Z " fill="#7C2770" transform="translate(110,22)"/>
<path d="M0 0 C3.1875 -0.25 3.1875 -0.25 6 0 C5 2 5 2 2.5625 2.9375 C-0.29863959 3.84547289 -0.29863959 3.84547289 -2 7 C-4.625 7.1875 -4.625 7.1875 -7 7 C-7 6.34 -7 5.68 -7 5 C-6.401875 4.9175 -5.80375 4.835 -5.1875 4.75 C-2.8229863 4.18669597 -2.8229863 4.18669597 -1.625 1.9375 C-1.08875 1.298125 -0.5525 0.65875 0 0 Z " fill="#591F55" transform="translate(241,41)"/>
<path d="M0 0 C3.63 0.33 7.26 0.66 11 1 C10 4 10 4 7.9375 5.1875 C7.298125 5.455625 6.65875 5.72375 6 6 C5.34 5.01 4.68 4.02 4 3 C1.94996045 1.80767387 1.94996045 1.80767387 0 1 C0 0.67 0 0.34 0 0 Z " fill="#8B2A82" transform="translate(63,34)"/>
<path d="M0 0 C3.96 0 7.92 0 12 0 C8.96474514 2.02350324 7.80573798 2.32124018 4.3125 2.625 C3.50425781 2.69976562 2.69601563 2.77453125 1.86328125 2.8515625 C1.24839844 2.90054688 0.63351563 2.94953125 0 3 C0 2.01 0 1.02 0 0 Z " fill="#4E1847" transform="translate(30,79)"/>
<path d="M0 0 C0.66 0.33 1.32 0.66 2 1 C0 4 0 4 -1.828125 4.68359375 C-4.17021759 5.02479789 -6.38392907 5.09729516 -8.75 5.0625 C-9.54921875 5.05347656 -10.3484375 5.04445313 -11.171875 5.03515625 C-11.77515625 5.02355469 -12.3784375 5.01195312 -13 5 C-13 4.67 -13 4.34 -13 4 C-11.96875 3.896875 -10.9375 3.79375 -9.875 3.6875 C-6.04492699 3.00797092 -3.42835434 1.75404176 0 0 Z " fill="#912E84" transform="translate(222,53)"/>
<path d="M0 0 C0 0.99 0 1.98 0 3 C-1.61736259 4.3927289 -3.2925002 5.71937515 -5 7 C-6.35147138 8.31494512 -7.69112542 9.64264858 -9 11 C-9 8 -9 8 -7.5390625 6.2109375 C-6.90742187 5.60507812 -6.27578125 4.99921875 -5.625 4.375 C-4.68527344 3.45847656 -4.68527344 3.45847656 -3.7265625 2.5234375 C-2 1 -2 1 0 0 Z " fill="#DA45C7" transform="translate(49,55)"/>
<path d="M0 0 C0.66 0.33 1.32 0.66 2 1 C-1.43054357 6.75841242 -1.43054357 6.75841242 -4.0625 7.875 C-5.70544499 7.98099645 -7.35363932 8 -9 8 C-6.03 5.36 -3.06 2.72 0 0 Z " fill="#BA37AC" transform="translate(38,66)"/>
<path d="M0 0 C0 3.61186134 -0.52269616 4.44011936 -3 7 C-6.1875 8.25 -6.1875 8.25 -9 9 C-7.48328036 4.44984107 -3.83108947 2.49942736 0 0 Z " fill="#7E2873" transform="translate(118,56)"/>
<path d="M0 0 C3.48670834 1.1094072 6.77484237 2.26337666 10 4 C10 4.66 10 5.32 10 6 C6.7 5.01 3.4 4.02 0 3 C0 2.01 0 1.02 0 0 Z " fill="#3E1338" transform="translate(44,22)"/>
<path d="M0 0 C1.98 0 3.96 0 6 0 C6 0.66 6 1.32 6 2 C8.64 2 11.28 2 14 2 C14 2.33 14 2.66 14 3 C12.41676312 3.027193 10.83338938 3.04648306 9.25 3.0625 C7.92742187 3.07990234 7.92742187 3.07990234 6.578125 3.09765625 C4.2181162 3.00826198 2.25501476 2.66912821 0 2 C0 1.34 0 0.68 0 0 Z " fill="#BF3DAE" transform="translate(150,65)"/>
<path d="M0 0 C0.99 0 1.98 0 3 0 C3 0.66 3 1.32 3 2 C4.98 2 6.96 2 9 2 C9 2.66 9 3.32 9 4 C2.25 4.125 2.25 4.125 0 3 C0 2.01 0 1.02 0 0 Z " fill="#882B7B" transform="translate(173,63)"/>
<path d="M0 0 C-0.33 1.98 -0.66 3.96 -1 6 C-1.33 5.34 -1.66 4.68 -2 4 C-3.65 5.32 -5.3 6.64 -7 8 C-6.44414399 4.1090079 -4.34122117 0 0 0 Z " fill="#C73FB5" transform="translate(173,59)"/>
<path d="M0 0 C0.33 0.66 0.66 1.32 1 2 C3.52733235 2.65555119 3.52733235 2.65555119 6 3 C6 3.33 6 3.66 6 4 C1.71 3.67 -2.58 3.34 -7 3 C-4.74624683 0.74624683 -3.20799182 0 0 0 Z " fill="#892D80" transform="translate(157,62)"/>
<path d="M0 0 C0.66 0.33 1.32 0.66 2 1 C1.01 2.485 1.01 2.485 0 4 C-3.125 4.1875 -3.125 4.1875 -6 4 C-6.66 5.32 -7.32 6.64 -8 8 C-8 5 -8 5 -7 3 C-3.5625 1.3125 -3.5625 1.3125 0 0 Z " fill="#883E95" transform="translate(240,32)"/>
<path d="M0 0 C0.66 0.33 1.32 0.66 2 1 C2 4.3 2 7.6 2 11 C1.67 11 1.34 11 1 11 C1 9.02 1 7.04 1 5 C-0.32 4.67 -1.64 4.34 -3 4 C-2.01 2.68 -1.02 1.36 0 0 Z " fill="#8B388D" transform="translate(249,31)"/>
<path d="M0 0 C0.99 0.33 1.98 0.66 3 1 C1.35 2.98 -0.3 4.96 -2 7 C-3.32 6.67 -4.64 6.34 -6 6 C-5.01 6 -4.02 6 -3 6 C-2.87625 5.38125 -2.7525 4.7625 -2.625 4.125 C-2 2 -2 2 0 0 Z " fill="#7E2978" transform="translate(129,42)"/>
<path d="M0 0 C2.97 0 5.94 0 9 0 C8.34 1.32 7.68 2.64 7 4 C5.68 4 4.36 4 3 4 C1.25 2 1.25 2 0 0 Z " fill="#B73DAB" transform="translate(196,40)"/>
<path d="M0 0 C0 1.65 0 3.3 0 5 C-1.65 5 -3.3 5 -5 5 C-4.6875 3.0625 -4.6875 3.0625 -4 1 C-1 0 -1 0 0 0 Z " fill="#E148CD" transform="translate(79,61)"/>
<path d="M0 0 C3.125 0.375 3.125 0.375 6 1 C4.68 2.32 3.36 3.64 2 5 C2 4.34 2 3.68 2 3 C0.68 2.67 -0.64 2.34 -2 2 C-1.34 1.34 -0.68 0.68 0 0 Z " fill="#802976" transform="translate(173,54)"/>
<path d="M0 0 C0.99 0 1.98 0 3 0 C2.67 0.99 2.34 1.98 2 3 C-1.63 3 -5.26 3 -9 3 C-9 2.67 -9 2.34 -9 2 C-6.03 2 -3.06 2 0 2 C0 1.34 0 0.68 0 0 Z " fill="#68205E" transform="translate(98,79)"/>
</svg>
