<?xml version="1.0" encoding="iso-8859-1"?>
<!-- Generator: Adobe Illustrator 19.0.0, SVG Export Plug-In . SVG Version: 6.00 Build 0)  -->
<svg version="1.1" id="Layer_1" xmlns="http://www.w3.org/2000/svg" xmlns:xlink="http://www.w3.org/1999/xlink" x="0px" y="0px"
	 viewBox="453.5 -1000 2500 2500" style="enable-background:new 453.5 -1000 2500 2500;" xml:space="preserve">
<path style="fill:#333333;" d="M1864.16,1447.793c-1.458,0-2.917-0.486-4.375-1.458c-0.972-0.972-1.944-2.431-2.431-3.889
	l-32.084-126.877c-0.486-1.458-0.486-2.917,0-3.889c0.486-1.458,0.972-2.431,2.431-3.403c0.972-0.972,2.431-1.458,3.403-1.458
	c1.458,0,2.431,0,3.889,0.486l202.225,107.918c1.458,0.486,2.431,1.458,2.917,2.917c0.486,1.458,0.972,2.917,0.486,4.375
	c-0.486,1.458-0.972,2.917-1.944,3.889c-0.972,0.972-2.431,1.458-3.889,1.944l-170.141,19.445L1864.16,1447.793L1864.16,1447.793z
	 M1842.771,1326.263l27.223,106.46l141.946-16.528L1842.771,1326.263z M1926.383,1028.274c-1.458,0-2.917-0.486-4.375-1.458
	l-292.156-247.92c-0.972-0.972-1.944-2.431-2.431-3.889c-0.486-1.458,0-2.917,0.486-4.375c0.486-1.458,1.458-2.431,2.917-3.403
	c1.458-0.972,2.917-0.972,4.375-0.486l381.602,62.223c0.972,0,1.944,0.486,2.917,1.458c0.972,0.486,1.458,1.458,1.944,2.431
	c0.486,0.972,0.972,1.944,0.972,2.917s-0.486,2.431-0.972,2.917l-89.445,185.697c-0.486,0.972-0.972,1.944-1.944,2.431l-2.917,1.458
	H1926.383L1926.383,1028.274z M1658.047,785.215l266.392,226.044l81.668-169.169L1658.047,785.215L1658.047,785.215z
	 M949.288,142.082c-0.972,0-2.431-0.486-3.403-0.972c-0.972-0.486-1.944-1.458-2.431-2.431c-0.486-0.972-0.972-2.431-0.972-3.403
	c0-0.972,0.486-2.431,0.972-3.403l136.599-259.587c0.486-1.458,1.458-2.431,2.431-2.917c0.972-0.486,2.431-0.972,3.889-0.486
	c1.458,0,2.431,0.486,3.403,1.458c0.972,0.972,1.944,1.944,2.431,2.917l88.959,243.545c0.486,0.972,0.486,1.944,0.486,3.403
	c0,0.972-0.486,1.944-0.972,2.917c-0.486,0.972-1.458,1.458-2.431,2.431c-0.972,0.486-1.944,0.972-2.917,0.972l-225.558,16.042
	h-0.486V142.082z M1084.915-107.782L961.441,127.012l204.655-14.584L1084.915-107.782L1084.915-107.782z M1086.373-117.991h-1.458
	L854.981-163.2c-1.458-0.486-2.431-0.972-3.403-1.944c-0.972-0.972-1.458-2.431-1.458-3.889c0-1.458,0-2.917,0.972-4.375
	c0.972-1.458,1.944-2.431,2.917-2.917l180.349-76.807l33.056-355.838c0-1.944,0.972-3.403,2.431-4.375
	c1.458-0.972,2.917-1.944,4.375-1.944s3.403,0.486,4.375,1.944c1.458,1.458,1.944,2.917,1.944,4.375l15.07,197.364v2.431
	l-48.126,160.419l44.237,121.529c0.486,0.972,0.486,2.431,0.486,3.403c0,1.458-0.486,2.431-1.458,3.403
	c-0.486,0.972-1.458,1.458-2.431,1.458C1088.318-117.991,1087.345-117.991,1086.373-117.991 M880.259-172.436l195.419,38.403
	l-38.889-105.487L880.259-172.436L880.259-172.436z M1073.734-530.218l-20.417,214.864l29.167-96.737L1073.734-530.218
	L1073.734-530.218z M949.288,142.568c-1.458,0-2.917-0.486-3.889-1.458c-0.972-0.972-1.944-1.944-2.431-3.403l-91.876-305.768
	c-0.486-1.458-0.486-2.917,0-3.889c0.486-1.458,0.972-2.431,1.944-3.403c0.972-0.972,1.944-1.458,3.403-1.458s2.431,0,3.889,0.486
	l178.405,89.932c1.458,0.972,2.917,1.944,3.403,3.889c0.486,1.458,0.486,3.403,0,5.347l-86.043,215.35
	c-0.486,1.458-1.458,2.431-2.917,3.403C952.205,142.082,950.746,142.568,949.288,142.568 M868.106-156.88l82.154,271.253
	l76.32-191.53L868.106-156.88L868.106-156.88z M1040.192-241.951c-1.458,0-3.403-0.486-4.375-1.944
	c-0.972-0.972-1.458-1.944-1.944-3.403c-0.486-1.458-0.486-2.917,0-3.889l49.584-162.363c0-0.972,0.486-1.944,1.458-2.431
	c0.486-0.972,1.458-1.458,2.431-1.458l155.071-68.542c1.458-0.486,2.917-0.972,4.375-0.486s2.431,0.972,3.403,2.431
	c0.972,1.458,1.458,2.431,1.458,4.375c0,1.458-0.486,2.917-0.972,4.375L1130.61-280.354c-0.486,1.458-1.458,1.944-2.917,2.431
	l-83.612,36.945C1042.623-241.951,1041.65-241.951,1040.192-241.951L1040.192-241.951z M1095.123-406.258l-43.264,145.349
	l69.029-30.139l106.946-173.544L1095.123-406.258z M1035.331-73.268c-0.972,0-1.944,0-2.917-0.486l-178.405-89.932
	c-1.458-0.972-2.431-1.944-3.403-3.403c-0.486-1.458-0.972-3.403,0-4.861c0.486-1.458,1.458-2.917,2.917-3.889
	c1.458-0.972,2.917-1.458,4.375-0.972l229.933,45.209c1.458,0,2.431,0.972,3.403,1.944c0.972,0.972,1.458,1.944,1.944,3.403
	c0.486,1.458,0.486,2.431,0,3.889c-0.486,1.458-0.972,2.431-1.944,3.403l-51.042,45.209
	C1038.734-73.754,1036.789-72.782,1035.331-73.268 M905.051-153.477l129.307,65.14l36.945-32.57L905.051-153.477L905.051-153.477z
	 M1657.075,1206.192h-2.431l-249.864-98.196c-0.972-0.486-1.944-0.972-2.431-1.944c-0.972-0.972-1.458-1.458-1.458-2.917
	c-0.486-0.972-0.486-1.944,0-3.403c0.486-1.458,0.486-1.944,1.458-2.917l151.182-213.405c0.972-1.458,1.944-1.944,3.403-2.431
	s2.917-0.486,4.375,0l366.532,132.71c0.972,0.486,2.431,0.972,2.917,1.944c0.972,0.972,1.458,2.431,1.458,3.403
	c0,1.458,0,2.917-0.486,3.889c-0.486,0.972-1.458,1.944-2.431,2.917l-268.337,177.919
	C1659.505,1205.706,1658.533,1206.192,1657.075,1206.192 M1418.391,1097.788l238.197,93.821l252.781-168.197l-348.06-125.904
	L1418.391,1097.788z M1362.001,704.52h-1.944l-324.726-95.765c-0.972-0.486-1.944-0.972-2.431-1.944l-0.972-0.972
	c-0.972-1.458-0.972-2.917-0.972-4.375c0-1.458,0.972-2.917,1.458-3.889l197.85-225.558c0.486-0.486,1.458-0.972,1.944-1.458
	c0.972-0.486,1.458-0.486,2.431-0.486l146.321-8.264c0.972,0,1.944,0,2.917,0.486s1.458,0.972,2.431,1.458
	c1.458,1.458,1.944,2.917,1.944,4.861v209.516l-19.445,120.557c0,0.972-0.486,1.944-0.972,2.917s-0.972,1.458-1.944,1.944
	C1364.918,704.033,1363.46,704.52,1362.001,704.52 M1076.651,606.324l280.49,82.154l17.014-104.029L1076.651,606.324z
	 M1238.528,383.196l-184.724,210.489l321.81-23.82V375.418L1238.528,383.196z M949.288,142.082c-0.972,0-1.944,0-2.917-0.486
	c-1.458-0.972-2.917-1.944-3.403-3.889c-0.486-1.458-0.486-3.403,0-5.347l86.043-215.35c0.486-0.972,0.972-1.458,1.458-2.431
	l51.042-45.209c1.458-0.972,2.917-1.458,4.375-1.458s2.917,0.486,4.375,1.458c1.458,0.972,1.944,2.431,2.431,3.889
	c0.486,1.458,0,3.403-0.486,4.861L955.121,138.193c-0.486,0.972-1.458,2.431-2.431,2.917
	C951.719,141.596,950.26,142.082,949.288,142.082 M1041.164-75.212l-37.431,93.334l59.792-112.779L1041.164-75.212z
	 M1518.531,1393.833c-1.944,0-3.403-0.972-4.861-1.944l-207.086-215.35c-0.486-0.972-0.972-1.458-1.458-2.431
	s-0.486-1.944-0.486-2.917s0.486-1.944,0.972-2.917s0.972-1.458,1.944-2.431l90.418-67.57c0-1.458,0-2.917,0.972-4.375
	c0.972-1.458,1.944-2.431,3.889-2.917c1.458-0.486,2.917-0.486,4.375,0l251.809,101.598c0.972,0.486,1.944,0.972,2.917,1.944
	c0.972,0.972,1.458,1.944,1.458,3.403v3.403c-0.486,0.972-0.972,2.431-1.944,2.917l-62.223,62.223l-74.376,123.96
	c-0.486,0.972-1.458,1.458-1.944,2.431c-0.972,0.486-1.944,0.972-2.917,0.972L1518.531,1393.833L1518.531,1393.833z
	 M1322.626,1172.65l195.419,203.197l67.57-112.779l-176.947-154.099L1322.626,1172.65L1322.626,1172.65z M1441.239,1119.177
	l153.127,133.196l51.042-50.556L1441.239,1119.177z M1756.729,1479.876h-2.431l-237.711-86.043
	c-1.458-0.486-2.917-1.458-3.403-2.917c-0.972-1.458-0.972-2.917-0.972-4.375c0-1.458,0.972-2.917,1.944-4.375
	c0.972-0.972,2.431-1.458,3.889-1.944l190.558-17.986c1.458,0,2.917,0,3.889,0.972c1.458,0.972,1.944,1.944,2.917,2.917
	l47.153,104.029c0.486,1.458,0.972,2.917,0.486,3.889c0,1.458-0.972,2.431-1.458,3.403c-0.486,0.486-1.458,1.458-2.431,1.458
	C1758.187,1479.876,1757.701,1479.876,1756.729,1479.876 M1550.615,1390.917l192.988,70.001l-38.403-83.612L1550.615,1390.917
	L1550.615,1390.917z M1864.161,1447.793c-1.458,0-2.431-0.486-3.403-1.458l-270.281-179.377c-0.972-0.486-1.458-1.458-1.944-1.944
	c-0.486-0.972-0.972-1.944-0.972-2.917s0-1.944,0.486-2.917l1.458-2.917l63.195-62.709c0.972-0.972,2.431-1.944,3.889-1.944
	s2.917,0.486,4.375,0.972l174.516,115.21c1.458,0.972,2.431,2.431,2.917,3.889l32.084,126.877v3.403
	c0,0.972-0.486,1.944-1.458,2.917c-0.486,0.972-1.458,1.458-2.431,1.944C1866.105,1447.307,1864.647,1447.793,1864.161,1447.793
	L1864.161,1447.793z M1605.546,1260.638l248.406,164.308l-27.223-106.946l-168.197-110.349L1605.546,1260.638L1605.546,1260.638z
	 M1518.531,1393.833c-0.972,0-2.431-0.486-3.403-0.972c-0.972-0.486-1.944-1.458-2.431-2.917c-0.486-0.972-0.972-2.431-0.972-3.403
	c0-1.458,0.486-2.431,0.972-3.403l75.348-124.932c0.486-0.972,0.972-1.458,1.944-2.431c0.972-0.486,1.458-0.972,2.917-0.972h2.917
	c0.972,0.486,1.944,0.972,2.431,1.458l115.21,107.432c0.972,0.972,1.458,1.944,1.944,3.403c0.486,1.458,0,2.917,0,3.889
	c-0.486,1.458-0.972,2.431-1.944,2.917c-0.972,0.972-2.431,1.458-3.403,1.458L1518.531,1393.833L1518.531,1393.833z
	 M1595.338,1272.304l-63.681,105.974l161.877-15.07L1595.338,1272.304L1595.338,1272.304z M1864.16,1447.793
	c-0.972,0-1.944,0-2.917-0.486l-154.585-71.945c-0.486-0.486-1.458-0.486-1.458-0.972l-115.21-107.918
	c-1.458-0.972-1.944-2.917-1.944-4.375c0-1.944,0.486-3.403,1.458-4.861c0.972-1.458,2.431-2.431,3.889-2.917
	c1.458-0.486,3.403,0,4.861,0.972l270.281,179.377c1.458,0.972,1.944,1.944,2.917,3.403c0.486,1.458,0.486,2.917,0,4.375
	c-0.486,1.458-1.458,2.917-2.431,3.889c-0.972,0.972-2.431,1.458-3.889,1.458L1864.16,1447.793L1864.16,1447.793z
	 M1712.978,1362.722l70.973,33.056l-123.474-81.182L1712.978,1362.722L1712.978,1362.722z M1756.729,1479.876
	c-1.458,0-2.431-0.486-3.889-0.972c-0.972-0.972-1.944-1.944-2.431-2.917l-47.153-104.029c-0.486-1.458-0.486-2.917-0.486-3.889
	c0.486-1.458,0.972-2.917,1.944-3.889c0.972-0.972,1.944-1.458,3.403-1.944c1.458,0,2.917,0,3.889,0.486l155.071,71.945
	c1.458,0.486,2.431,1.458,2.917,2.917c0.972,1.458,0.972,2.917,0.972,4.375s-0.486,2.917-1.458,3.889
	c-0.972,0.972-1.944,1.944-3.403,2.431l-107.432,31.598H1756.729z M1723.187,1383.139l36.945,81.182l84.584-25.278
	L1723.187,1383.139z M897.76,690.422h-1.944c-0.972,0-1.458-0.486-2.431-1.458c-0.486-0.486-1.458-1.458-1.458-1.944l-19.445-39.375
	c-0.486-0.972-0.486-1.944-0.486-2.917s0-1.944,0.486-2.917s0.972-1.944,1.944-2.431s1.458-1.458,2.917-1.458l158.96-41.806
	c1.458-0.486,3.403,0,4.861,0.486c1.458,0.972,2.431,1.944,3.403,3.403c0.486,1.458,0.486,3.403,0,4.861
	c-0.486,1.458-1.458,2.917-2.917,3.889l-139.516,81.668C899.704,690.422,898.732,690.908,897.76,690.422 M888.037,649.102
	l12.153,24.792l88.959-52.015C989.15,621.88,888.037,649.102,888.037,649.102z M1258.458,879.036c-0.972,0-1.944,0-2.917-0.486
	L894.357,689.936c-0.972-0.486-1.944-1.458-2.917-2.431c-0.486-0.972-0.972-2.431-0.972-3.403c0-1.458,0.486-2.431,0.972-3.403
	c0.486-0.972,1.458-1.944,2.431-2.431l140.002-81.182c1.458-0.972,3.403-0.972,4.861-0.972l325.212,94.793l2.917,1.458
	c0.972,0.972,1.458,1.458,1.944,2.917c0.486,0.972,0.486,1.944,0.486,2.917s-0.486,1.944-0.972,2.917l-103.543,175.488
	c-0.486,0.972-1.458,1.944-2.431,2.431S1259.431,879.035,1258.458,879.036 M911.857,683.13l344.171,179.377l95.279-161.877
	l-313.059-91.39L911.857,683.13L911.857,683.13z M1033.386,1077.371h-1.458c-0.972,0-1.945-0.972-2.917-1.458
	c-0.972-0.972-1.458-1.944-1.944-2.917L890.954,685.561c-0.486-1.458-0.486-2.917,0-4.375c0.486-1.458,1.458-2.431,2.431-3.403
	s2.431-1.458,3.889-1.458c1.458,0,2.917,0.486,3.889,1.458l301.393,234.794c0.972,0.486,1.458,1.458,1.944,2.431
	s0.972,1.944,0.972,2.917s0,1.944-0.486,2.917s-0.972,1.944-1.458,2.431l-165.766,151.669
	C1036.789,1076.399,1034.845,1077.372,1033.386,1077.371 M911.371,703.061l124.932,355.352l151.669-139.516L911.371,703.061z
	 M1198.666,925.217c-1.458,0-2.917-0.486-3.889-1.458L893.385,688.964c-1.458-0.972-2.431-2.431-2.431-4.375
	c-0.486-1.944,0-3.403,0.972-4.861s2.431-2.431,3.889-2.917s3.403,0,4.861,0.486l361.185,188.613
	c0.972,0.486,1.944,1.458,2.431,2.431c0.486,0.972,0.972,1.944,0.972,3.403c0,1.458,0,2.431-0.486,3.403
	c-0.486,0.972-1.458,1.944-2.431,2.917l-60.278,46.181C1201.097,924.731,1199.638,925.217,1198.666,925.217 M961.441,724.936
	l236.739,184.725l47.153-35.973L961.441,724.936z M1311.931,1179.456c-1.458,0-2.431-0.486-3.403-0.972
	c-0.972-0.486-1.944-1.944-2.431-2.917l-113.751-253.753c-0.486-1.458-0.972-2.917-0.486-4.861c0.486-1.458,1.458-2.917,2.431-3.889
	l60.279-46.181l2.917-1.458c0.972,0,2.431,0,3.403,0.486c0.972,0.486,1.944,0.972,2.917,1.944c0.486,0.972,0.972,1.944,1.458,3.403
	l53.473,299.934c0,1.458,0,3.403-0.972,4.861c-0.972,1.458-1.944,2.431-3.889,2.917
	C1313.39,1178.97,1312.904,1179.456,1311.931,1179.456 M1206.93,920.356l88.959,198.822l-41.806-235.281L1206.93,920.356
	L1206.93,920.356z M1831.104,1322.374c-1.944,0-3.403-0.972-4.861-1.944c-0.972-0.972-1.458-1.944-1.944-3.403
	c-0.486-1.458,0-2.431,0-3.889l93.821-294.587c0.486-0.972,0.486-1.458,1.458-2.431c0.486-0.486,1.458-1.458,1.944-1.458
	c0.972-0.486,1.458-0.486,2.431-0.972c0.972,0,1.944,0,2.917,0.486l386.463,125.418c1.458,0.486,2.43,1.458,3.403,2.431
	c0.972,0.972,1.458,2.431,1.458,4.375c0,1.458-0.486,2.917-1.458,3.889c-0.972,1.458-1.945,1.944-3.403,2.431l-480.284,169.169
	C1832.563,1321.888,1832.077,1322.374,1831.104,1322.374 M1929.3,1029.246l-87.501,275.142l447.714-157.502L1929.3,1029.246z
	 M1312.417,1178.484h-1.944l-279.031-101.112c-0.972-0.486-1.944-0.972-2.917-1.944c-0.972-0.972-1.458-1.944-1.458-3.403v-3.403
	c0.486-0.972,0.972-2.431,1.944-2.917l164.794-152.155c0.972-0.972,1.944-1.458,2.917-1.458h2.917c0.972,0,1.944,0.486,2.917,1.458
	c0.972,0.486,1.458,1.458,1.944,2.431l113.265,252.781c0.486,1.458,0.972,2.917,0.486,3.889c0,1.458-0.972,2.431-1.944,3.889
	c-0.486,0.486-1.458,1.458-1.944,1.458C1313.876,1178.484,1313.39,1178.484,1312.417,1178.484 M1046.511,1067.649l252.781,91.876
	l-103.543-229.933L1046.511,1067.649z M2284.652,1353.972c-1.458,0-2.917-0.486-3.889-1.458c-0.972-0.486-1.944-1.458-2.431-2.917
	c-0.486-0.972-0.486-2.431-0.486-3.889l25.764-194.933l-381.116-123.474c-1.458-0.486-2.917-1.458-3.403-2.917
	c-0.972-1.458-1.458-2.917-0.972-4.375c0-1.458,0.972-2.917,1.944-4.375c0.972-0.972,2.431-1.944,3.889-1.944l298.962-33.542
	c1.458,0,2.431,0,3.889,0.486c0.972,0.486,1.945,1.458,2.917,2.917l85.557,155.557l341.74-14.097c1.458,0,2.917,0.486,3.889,1.458
	c1.458,0.972,1.945,2.431,2.431,3.889c0,1.458,0,2.917-0.486,4.375c-0.486,1.458-1.458,2.917-2.917,3.403l-372.852,215.35
	C2287.082,1353.972,2286.11,1353.972,2284.652,1353.972 M2317.708,1152.72l-24.306,181.322l336.393-194.447L2317.708,1152.72z
	 M1957.981,1023.898l339.31,109.862l-77.293-139.516L1957.981,1023.898z M2034.302,1427.862c-1.458,0-2.431-0.486-3.403-0.972
	c-0.972-0.486-1.944-1.458-2.431-2.917c-0.486-1.458-0.972-2.917-0.486-4.375c0.486-1.458,0.972-2.917,2.431-3.889l125.904-105.973
	c0.972-0.972,1.458-1.458,2.917-1.458c0.972-0.486,1.945,0,2.917,0l124.932,31.598c1.458,0.486,2.917,0.972,3.889,2.431
	c0.972,0.972,1.458,2.917,1.458,4.375c0,1.458-0.486,2.917-1.458,4.375s-1.944,1.944-3.403,2.431l-250.836,73.89
	C2035.274,1427.862,2034.787,1427.862,2034.302,1427.862 M2161.664,1322.861l-97.709,82.154l194.447-57.362L2161.664,1322.861z
	 M1831.104,1322.861c-1.458,0-2.431-0.486-3.403-1.458l-174.516-116.668c-0.972-0.486-1.944-1.458-2.431-2.431
	c-0.486-0.972-0.972-2.431-0.972-3.403c0-1.458,0-2.431,0.972-3.403c0.486-0.972,1.458-1.944,2.431-2.431l267.851-177.919
	c0.972-0.972,2.431-1.458,3.889-1.458s2.917,0.486,3.889,1.458c0.972,0.972,1.944,1.944,2.431,3.403
	c0.486,1.458,0.486,2.917,0,4.375l-93.821,294.101l-1.458,2.917c-0.486,0.972-1.458,1.458-2.431,1.458
	c-0.972,0.486-1.458,0.486-2.431,0.486V1322.861z M1669.714,1198.901l157.988,105.974l85.07-266.878L1669.714,1198.901z
	 M2311.388,1153.206c-1.458,0-2.43-0.486-3.403-0.972c-0.972-0.486-1.944-1.458-2.431-2.431l-87.987-158.96
	c-0.486-1.458-0.972-2.917-0.972-3.889c0-1.458,0.486-2.917,1.458-3.889c0.972-0.972,1.945-1.944,3.403-2.431
	c1.458-0.486,2.917-0.486,3.889,0l434.103,143.405c1.458,0.486,2.917,1.458,3.403,2.917c0.972,1.458,1.458,2.917,0.972,4.861
	c0,1.458-0.972,2.917-1.945,4.375c-0.972,0.972-2.917,1.944-4.375,1.944l-346.115,14.584V1153.206z M2237.985,999.107
	l77.292,139.516l303.823-12.639L2237.985,999.107z M2284.652,1353.972h-1.458l-124.932-31.598c-1.458,0-2.43-0.972-3.403-1.458
	c-0.972-0.972-1.458-1.944-1.944-3.403c-0.486-1.458-0.486-2.431,0-3.889c0.486-1.458,0.972-2.431,1.944-3.403l151.669-169.169
	c0.972-0.972,2.431-1.944,3.889-1.944c1.458-0.486,2.917,0,4.375,0.486s2.431,1.458,2.917,2.917
	c0.486,1.458,0.972,2.917,0.486,4.375l-26.736,200.766c0,0.972-0.486,1.944-0.972,2.917s-0.972,1.458-1.944,1.944
	C2287.568,1353.486,2286.11,1353.972,2284.652,1353.972 M2172.845,1311.194l106.459,27.223l22.848-171.113L2172.845,1311.194z
	 M2034.302,1427.862c-0.972,0-1.944-0.486-2.917-0.486l-204.655-105.974c-1.458-0.972-2.431-1.944-2.917-3.403
	c-0.486-1.458-0.972-2.917-0.486-4.861c0.486-1.458,0.972-2.917,2.431-3.889c1.458-0.972,2.431-1.458,4.375-1.458h0.972
	l479.311-168.683c1.458-0.486,2.917-0.486,4.375,0c1.458,0.486,2.917,1.458,3.403,2.917c0.972,1.458,1.458,2.917,0.972,4.375
	c0,1.458-0.972,2.917-1.458,4.375l-151.669,169.169l-0.486,0.486l-126.877,105.974
	C2037.218,1427.376,2035.76,1427.862,2034.302,1427.862 M1858.327,1322.374l175.488,90.418l107.918-90.418H1858.327z
	 M1872.424,1308.277h284.865l131.252-146.807L1872.424,1308.277L1872.424,1308.277z M1926.869,1028.759h-2.431l-367.991-133.682
	c-0.972-0.486-1.944-0.972-2.431-1.944c-0.972-0.972-1.458-1.458-1.458-2.917c-0.486-0.972-0.486-1.944,0-3.403
	c0-0.972,0.486-1.944,0.972-2.917l75.348-114.724c0.486-0.972,1.458-1.458,1.944-1.944c0.972-0.486,1.458-0.972,2.431-0.972h2.917
	c0.972,0,1.458,0.486,2.431,0.972l292.156,247.92c0.972,0.972,1.458,1.944,1.944,3.403c0,1.458,0,2.431-0.486,3.889
	c-0.486,1.458-1.458,2.431-2.431,2.917c-0.972,0.972-2.431,1.458-3.403,1.458L1926.869,1028.759L1926.869,1028.759z
	 M1570.546,884.869l322.296,117.154l-257.156-217.78L1570.546,884.869L1570.546,884.869z M1558.879,895.563
	c-0.972,0-1.458,0-2.431-0.486c-0.972-0.486-1.458-0.972-1.944-1.458l-197.364-191.53c-0.972-0.972-1.944-2.431-1.944-3.889
	c0-1.458,0-2.917,0.972-4.375c0.486-1.458,1.945-2.431,3.403-2.917c1.458-0.486,2.917-0.486,4.375-0.486l272.712,77.293l2.917,1.458
	c0.972,0.972,1.458,1.458,1.944,2.917c0.486,0.972,0.486,2.431,0.486,3.403s-0.486,1.944-0.972,2.917l-76.807,114.238
	c-0.486,0.972-1.458,1.458-1.944,1.944c-0.972,0.486-1.944,0.486-2.917,0.972L1558.879,895.563L1558.879,895.563z M1386.307,711.325
	l171.599,166.738l65.626-99.168L1386.307,711.325z M1407.696,1107.511h-1.944c-1.458-0.486-2.431-0.972-3.403-2.431
	c-0.972-1.458-1.458-2.431-1.458-3.889l-45.695-403.963c0-1.458,0-2.917,0.486-4.375s1.458-2.431,2.917-2.917
	s2.917-0.972,3.889-0.486c1.458,0,2.917,0.972,3.889,1.944l197.364,192.016c0.972,1.458,1.944,2.917,1.944,4.375
	s-0.486,3.403-1.458,4.861l-151.668,211.947c-0.486,0.972-1.458,1.458-2.431,1.944
	C1409.641,1107.511,1408.669,1107.511,1407.696,1107.511 M1370.265,714.242l41.806,367.991l137.571-192.989L1370.265,714.242
	L1370.265,714.242z M1407.696,1107.511c-0.972,0-1.944,0-2.917-0.972c-0.972-0.486-1.944-1.458-2.431-2.431l-149.238-228.475
	c-0.486-0.972-0.972-2.431-0.972-3.889s0.486-2.917,0.972-3.889l103.543-175.488c0.486-1.458,1.944-2.431,2.917-2.917
	c1.458-0.486,2.917-0.486,3.889-0.486c1.458,0.486,2.431,0.972,3.403,1.944c0.972,0.972,1.458,2.431,1.458,3.889l46.181,404.449
	c0,1.458,0,2.917-0.972,4.375c-0.972,1.458-1.944,2.431-3.403,2.917C1409.641,1107.51,1408.669,1107.51,1407.696,1107.511
	 M1266.723,871.744l131.252,200.766l-40.834-355.838L1266.723,871.744L1266.723,871.744z M1311.931,1178.97h-2.431
	c-0.972-0.486-1.944-0.972-2.917-1.944c-0.972-0.972-1.458-1.944-1.458-2.917l-53.959-299.934v-1.944
	c0-1.458,0.486-2.917,0.972-3.889c0.972-0.972,1.944-1.944,2.917-2.431c1.458-0.486,2.917-0.486,4.375,0s2.917,1.458,3.403,2.917
	l149.724,228.475c0.972,0.972,0.972,2.431,0.972,3.889c0,0.972-0.486,2.431-0.972,3.403c-0.486,0.972-0.972,1.944-1.944,2.431
	l-94.307,71.459C1314.848,1178.97,1313.39,1179.456,1311.931,1178.97 M1271.098,903.828l46.181,256.67l81.668-61.251
	L1271.098,903.828L1271.098,903.828z M878.315,651.533h-1.944c-0.972-0.486-1.944-0.972-2.431-1.944
	c-0.486-0.486-0.486-0.486-0.972-1.458v-0.972L743.174,270.903c-0.486-1.458-0.486-2.917,0-4.375
	c0.486-1.458,1.458-2.917,2.431-3.403L873.94,158.124c1.458-0.972,2.917-1.458,4.375-1.458c1.458,0,2.917,0.486,4.375,1.458
	l192.016,183.752l0.486,0.972c0.486,0.486,0.972,1.458,1.458,2.431v2.917l-32.57,254.725c0,1.458-0.972,2.917-1.944,3.889
	c-0.972,0.972-1.944,1.944-3.403,2.431l-158.474,42.292H878.315L878.315,651.533z M1059.637,376.39L893.871,632.574l138.057-35.973
	L1059.637,376.39L1059.637,376.39z M757.758,270.903l122.502,358.268l181.322-280.49L877.829,172.707
	C877.829,172.707,757.758,270.903,757.758,270.903z M1037.275,608.754c-0.972,0-1.944,0-2.917-0.486
	c-1.458-0.486-2.431-1.458-2.917-2.917c-0.486-1.458-0.972-2.917-0.486-4.375l32.57-254.725c0-0.972,0.486-1.944,0.972-2.431
	c0.486-0.972,0.972-1.458,1.944-1.944c1.458-0.972,3.403-1.458,5.347-1.458l165.28,29.653c0.972,0,2.431,0.972,2.917,1.458
	c0.972,0.972,1.458,1.944,1.944,2.917c0.486,1.458,0.486,2.431,0,3.889c-0.486,1.458-0.972,2.431-1.458,3.403l-198.336,225.558
	c-0.486,0.486-1.458,0.972-1.944,1.458H1037.275 M1075.678,355.001l-29.167,225.558l175.002-199.308L1075.678,355.001z
	 M1235.611,384.168h-0.972l-165.766-29.653c-1.458-0.486-2.431-0.972-3.403-1.944L873.454,168.332
	c-0.972-0.972-1.944-2.917-1.944-4.375c0-1.458,0.486-3.403,1.458-4.861c0.972-1.458,2.431-2.431,3.889-2.917
	c1.458-0.486,3.403,0,4.861,0.972L1239.5,370.557c1.458,0.972,2.431,1.944,2.917,3.403c0.486,1.458,0.486,2.917,0,4.861
	c-0.486,1.458-1.458,2.431-2.431,3.403C1238.528,383.682,1237.069,384.169,1235.611,384.168 M1073.248,340.904l126.39,22.361
	L926.927,200.416L1073.248,340.904z M1235.611,384.168c-0.972,0-2.431-0.486-3.403-0.972L874.426,169.791
	c-0.972-0.486-1.945-1.458-2.431-2.917c-0.486-0.972-0.972-2.431-0.972-3.889c0-1.458,0.486-2.431,1.458-3.889
	c0.972-0.972,1.944-1.944,2.917-2.431l70.487-28.681h1.944l226.044-16.042h2.917l197.363,72.431
	c0.972,0.486,1.944,0.972,2.917,1.944c0.486,0.972,1.458,1.944,1.458,2.917c0,0.972,0.486,1.944,0,3.403
	c0,0.972-0.486,1.944-1.458,2.917l-136.113,185.697c-0.486,0.972-1.458,1.458-2.431,1.944
	C1237.555,383.682,1236.583,384.168,1235.611,384.168 M893.871,164.443l340.282,203.197l127.363-173.544l-187.641-68.543
	l-224.1,16.042L893.871,164.443L893.871,164.443z M1926.383,1028.76c-0.972,0-2.431-0.486-3.403-0.972
	c-0.972-0.486-1.944-1.458-2.431-2.431c-0.486-0.972-0.972-1.944-0.972-3.403s0-2.431,0.486-3.403l89.932-185.697
	c0.486-0.972,0.972-1.458,1.944-2.431c0.972-0.486,1.458-0.972,2.431-1.458l262.99-66.112c1.458-0.486,2.917,0,4.375,0.486
	s2.431,1.944,2.917,3.403c0.486,1.458,0.972,2.917,0.486,4.375c-0.486,1.458-1.458,2.917-2.431,3.889l-352.921,251.323
	C1929.3,1028.273,1927.842,1028.76,1926.383,1028.76 M2020.69,842.091l-76.32,158.474l300.906-215.35L2020.69,842.091
	L2020.69,842.091z M878.315,170.277c-1.458,0-2.431-0.486-3.403-0.972c-0.972-0.486-1.458-1.458-2.431-2.431
	c-0.486-0.972-0.972-1.944-0.972-2.917L850.12-168.547c0-1.458,0.486-3.403,1.458-4.861c0.972-1.458,2.431-2.431,3.889-2.431
	c1.458-0.486,3.403,0,4.861,0.972c1.458,0.972,2.431,2.431,2.917,3.889l92.362,304.309c0.486,1.458,0.486,3.403-0.486,5.347
	c-0.972,1.458-1.944,2.917-3.889,3.403l-70.487,28.195C880.26,170.277,879.287,170.763,878.315,170.277 M867.62-111.671
	l17.014,265.42l56.39-23.334C941.024,130.415,867.62-111.671,867.62-111.671z M1924.925,1027.301c-1.458,0-2.917-0.486-3.889-1.458
	c-0.972-0.972-1.944-1.945-2.431-3.403c-0.486-1.458-0.486-2.917,0-4.375c0.486-1.458,1.458-2.917,2.431-3.403l353.893-250.35
	c0.972-0.972,2.431-0.972,3.889-0.972s2.917,0.486,3.889,1.458c0.972,0.972,1.944,1.944,2.43,3.403c0.486,1.458,0.486,2.917,0,3.889
	l-55.903,217.78c-0.486,1.458-0.972,2.431-1.945,3.403s-2.43,1.458-3.889,1.944l-297.504,32.57h-0.972L1924.925,1027.301z
	 M2267.638,786.187l-316.462,224.1l266.392-29.167L2267.638,786.187L2267.638,786.187z M1510.267,634.519
	c-1.458,0-2.431-0.486-3.403-0.972c-0.972-0.486-1.944-1.458-2.431-2.917l-128.821-258.614c-0.486-1.458-0.972-2.917-0.486-4.375
	c0-1.458,0.972-2.917,1.944-3.889c1.458-0.972,2.431-1.458,3.889-1.458c1.458,0,2.917,0.486,3.889,1.458l171.113,116.668
	c1.458,0.972,1.944,1.944,2.917,3.403c0.486,1.458,0.486,2.917,0,4.375l-42.778,142.432c-0.486,1.458-0.972,2.431-2.431,3.403
	c-0.972,0.972-2.431,1.458-3.403,1.458V634.519L1510.267,634.519z M1399.432,388.543l109.376,220.697l36.459-121.043
	L1399.432,388.543z M1553.045,492.086c-1.458,0-2.431-0.486-3.889-0.972l-171.113-116.668c-0.972-0.486-1.458-1.458-1.944-1.944
	c-0.486-0.972-0.486-1.944-0.972-2.917l-9.236-176.947c0-1.458,0.486-2.917,0.972-4.375c0.972-1.458,1.944-2.431,3.403-2.917
	s2.917-0.486,4.375,0c1.458,0.486,2.431,1.458,3.403,2.917l180.836,293.615c0.972,1.458,0.972,2.917,0.972,4.375
	s-0.972,2.917-1.944,4.375c-0.972,0.486-1.458,0.972-2.431,1.458C1554.99,492.086,1554.018,492.572,1553.045,492.086
	 M1388.252,364.723l141.946,96.737L1380.474,217.43L1388.252,364.723z M1235.611,383.682c-1.458,0-2.431-0.486-3.403-0.972
	c-0.972-0.486-1.945-1.458-2.431-2.917c-0.486-1.458-0.972-2.431-0.486-3.889c0-1.458,0.486-2.431,1.458-3.889l136.599-186.183
	c0.972-0.972,1.944-1.944,3.403-2.431c1.458-0.486,2.917-0.486,3.889,0c1.458,0.486,2.431,1.458,3.403,2.431
	c0.972,0.972,1.458,2.431,1.458,3.889l9.236,177.433c0,0.972,0,1.944-0.486,2.917c-0.486,0.972-0.486,1.458-1.458,2.431
	c-0.486,0.486-1.458,1.458-1.944,1.458c-0.972,0.486-1.458,0.486-2.431,0.486L1235.611,383.682L1235.611,383.682z M1366.863,210.138
	l-117.154,159.446l124.932-7.292L1366.863,210.138z M1372.696,198.472h-2.431l-198.336-72.918c-1.458-0.486-2.431-1.458-2.917-2.431
	c-0.972-0.972-1.458-2.431-1.458-3.889s0.486-2.917,0.972-3.889c0.972-1.458,1.944-1.944,2.917-2.917L1405.266,3.052
	c0.972-0.486,1.944-0.972,3.403-0.972s2.431,0.486,3.403,0.972c0.972,0.486,1.458,1.458,2.431,2.431
	c0.486,0.972,0.972,1.944,0.972,3.403v1.458l-35.487,181.808c0,0.972-0.486,1.944-0.972,2.917c-0.486,0.972-1.458,1.458-1.944,1.944
	C1375.127,197.499,1373.668,198.471,1372.696,198.472 M1192.347,118.262l175.002,64.167l31.111-161.391L1192.347,118.262z
	 M1372.21,198.958c-0.972,0-1.944,0-2.917-0.486c-1.458-0.486-2.431-1.944-2.917-3.403c-0.486-1.458-0.972-2.917-0.486-4.375
	c0,0,6.32-31.598,12.639-62.223l22.847-119.585c0-1.458,0.972-2.917,1.944-3.889s2.431-1.458,3.889-1.944l117.154-8.264
	c1.458,0,2.431,0.486,3.403,0.972c0.972,0.486,1.944,1.458,2.431,2.917c0.486,1.458,0.972,2.431,0.972,3.889
	s-0.486,2.917-1.458,3.889l-152.641,191.53C1375.127,198.472,1373.668,198.958,1372.21,198.958 M1413.53,16.178l-22.848,114.724
	l-6.806,35l125.418-156.53L1413.53,16.178L1413.53,16.178z M1408.182,16.664c-0.972,0-1.944,0-2.917-0.486
	c-0.972-0.486-1.458-0.972-2.431-1.944c-0.486-0.972-1.458-1.944-1.458-2.917V7.914l31.598-127.363
	c0.486-1.458,0.972-2.431,1.944-3.403c0.972-0.972,1.944-1.458,3.403-1.944c1.458,0,2.431,0,3.889,0.486
	c0.972,0.486,1.944,1.458,2.917,2.431l85.071,118.613c0.486,0.972,0.972,2.431,1.458,3.403c0,1.458,0,2.431-0.486,3.403
	c-0.486,0.972-1.458,1.944-2.431,2.917c-0.972,0.486-1.944,0.972-3.403,1.458L1408.182,16.664L1408.182,16.664z M1442.697-101.463
	L1416.933,2.08l95.279-6.806L1442.697-101.463L1442.697-101.463z M1175.333,125.554c-0.972,0-2.431,0-3.403-0.972
	c-0.972-0.486-1.944-1.458-2.431-2.431c-0.972-1.458-1.458-2.917-0.972-4.861c0.486-1.458,0.972-2.917,2.431-4.375l264.448-236.739
	c0.972-0.972,2.431-1.458,3.889-1.458s2.917,0,3.889,0.972c1.458,0.972,1.944,1.944,2.917,3.403
	c0.486,1.458,0.486,2.917,0.486,4.375l-31.598,126.877c0,0.972-0.486,1.944-1.458,2.917c-0.486,0.972-1.458,1.458-2.431,1.944
	l-232.85,109.376C1177.277,125.068,1176.305,125.554,1175.333,125.554 M1428.113-97.574L1215.194,92.498l187.155-87.987
	L1428.113-97.574z M1175.333,125.554h-2.431c-0.972-0.486-1.944-0.972-2.917-1.944c-0.972-0.972-1.458-1.944-1.458-3.403
	l-8.75-49.584v-2.917c0-0.972,0.486-1.944,1.458-2.431l322.296-440.908c0.972-0.972,2.431-1.458,3.403-1.944
	c1.458,0,2.917,0,3.889,0.486c1.458,0.486,2.431,1.458,2.917,2.917c0.486,1.458,0.972,2.917,0.972,4.375l-49.584,253.753
	c0,1.458-0.972,2.917-1.944,3.889l-262.989,236.253c-0.486,0.486-1.458,0.972-2.431,1.458L1175.333,125.554 M1173.874,70.623
	l5.833,34.514l253.753-227.017l43.265-221.183L1173.874,70.623z M1510.267,634.519h-2.431l-128.335-51.042
	c-1.458-0.486-2.431-1.458-2.917-2.431c-0.972-0.972-1.458-2.431-1.458-3.889V368.613c0-1.458,0.486-2.917,1.458-4.375
	c0.972-1.458,2.431-1.944,3.889-2.431s2.917,0,4.375,0.486c1.458,0.486,2.431,1.944,2.917,2.917l128.335,259.1
	c0.486,1.458,0.972,2.917,0.486,3.889c0,1.458-0.972,2.917-1.944,3.889c-0.486,0.972-1.458,1.458-1.944,1.944
	S1511.239,634.519,1510.267,634.519 M1388.252,571.81l107.918,42.778l-107.432-217.294v174.516L1388.252,571.81z M1524.365,9.372
	c-0.972,0-1.944-0.486-2.917-0.972c-0.972-0.486-1.944-1.458-2.431-1.944l-84.584-120.557c-0.486-0.972-0.972-1.458-1.458-2.431
	v-2.917l48.126-249.864c0-0.972,0.972-2.431,1.458-3.403c0.972-0.972,1.944-1.458,2.917-1.944h0.486l270.281-83.612
	c1.458-0.486,3.403-0.486,4.861,0.486c1.458,0.486,2.917,1.944,3.403,3.403c0.486,1.458,0.972,3.403,0,4.861
	c-0.486,1.458-1.458,2.917-2.917,3.889l-214.864,127.363L1530.684,3.053c0,1.458-0.486,2.917-1.458,3.889
	c-0.972,0.972-1.944,1.944-3.403,2.431C1525.823,9.858,1524.851,9.858,1524.365,9.372L1524.365,9.372z M1447.072-119.449
	l71.459,102.085l15.07-301.879l-41.32-35.973L1447.072-119.449z M1502.003-364.452l38.889,33.542l162.849-95.765L1502.003-364.452
	L1502.003-364.452z M1362.001,704.52c-1.458,0-2.917-0.486-4.375-1.458c-0.972-0.972-1.458-1.944-1.944-2.917
	s-0.486-2.431-0.486-3.403l19.931-121.043c0-0.972,0.486-1.944,0.972-2.917s1.458-1.458,1.944-1.944
	c0.972-0.486,1.944-0.486,2.917-0.486s1.944,0,2.917,0.486l127.849,50.556c1.458,0.486,2.431,1.458,2.917,2.431
	c0.972,1.458,0.972,2.431,0.972,3.889c0,1.458-0.486,2.917-0.972,3.889c-0.486,0.972-1.944,1.944-2.917,2.431l-148.266,69.029
	C1363.946,703.547,1362.974,704.033,1362.001,704.52 M1386.793,585.907l-16.042,99.168l122.016-56.876L1386.793,585.907
	L1386.793,585.907z M1634.227,781.326h-1.944l-271.74-77.293c-1.458-0.486-2.431-0.972-3.403-2.431
	c-0.972-0.972-1.458-2.431-1.458-3.889c0-1.458,0-2.917,0.972-4.375c0.972-0.972,1.944-2.431,2.917-2.917l148.266-69.029
	c1.458-0.486,2.917-0.972,4.375-0.486c1.458,0.486,2.917,0.972,3.889,1.944l123.96,146.807c0.972,0.972,1.458,2.431,1.458,3.889
	c0,1.458,0,2.917-0.972,4.375c-0.486,0.972-1.458,1.458-2.431,2.431C1637.144,781.326,1635.199,781.326,1634.227,781.326
	 M1381.932,695.283l232.364,66.112l-105.974-125.418L1381.932,695.283L1381.932,695.283z M1166.582,76.456
	c-0.972,0-1.945,0-2.917-0.486s-1.458-0.972-2.431-1.944l-1.458-2.917v-2.917l84.098-355.352l1.458-2.917
	c0.972-0.972,1.945-1.458,2.917-1.944l237.225-81.182c1.458-0.486,2.917-0.486,4.375,0c1.458,0.486,2.431,1.458,3.403,2.431
	c0.972,0.972,1.458,2.917,1.458,4.375s-0.486,2.917-1.458,4.375L1171.443,74.026c-0.486,0.972-1.458,1.458-1.944,1.944
	C1168.527,75.97,1167.554,76.456,1166.582,76.456 M1256.514-280.354l-75.348,318.893l288.754-391.324L1256.514-280.354
	L1256.514-280.354z M1166.582,76.456c-1.458,0-2.917-0.972-4.375-1.944c-0.972-0.972-1.944-2.431-1.944-4.375l-41.806-355.352
	v-2.917c0-0.972,0.972-1.944,1.458-2.431c0.486-0.972,1.458-1.458,2.431-1.458c0.972-0.486,1.944-0.486,2.917-0.486h125.904
	c0.972,0,1.944,0,2.917,0.486c0.972,0.486,1.458,0.972,2.431,1.944l1.458,2.917v2.917l-84.098,354.866
	c-0.486,1.458-0.972,2.917-2.431,4.375C1169.985,75.484,1168.527,76.456,1166.582,76.456 M1132.068-278.895l36.459,309.657
	l73.404-309.657H1132.068z M1174.846,125.554c-1.458,0-2.917-0.486-3.889-1.458c-0.972-0.972-1.944-1.944-2.431-3.403
	l-134.168-367.018c-0.486-1.458-0.486-3.403,0-5.347c0.486-1.945,1.944-2.917,3.403-3.889l82.64-35.973l106.946-173.058
	L1092.206-404.8c-1.458,0.486-3.403,0.972-4.861,0c-1.458-0.486-2.917-1.458-3.889-3.403c-0.972-1.458-0.972-3.403-0.972-4.861
	c0.486-1.458,1.458-3.403,2.431-4.375l302.851-236.253l2.917-1.458h2.917c0.972,0.486,1.944,0.972,2.431,1.458
	c0.972,0.972,1.458,1.458,1.944,2.431l34.514,85.557c0.486,0.972,0.486,1.944,0.486,2.917s0,1.944-0.486,2.917
	c-0.486,0.972-0.972,1.458-1.458,2.431c-0.486,0.486-1.458,0.972-2.431,1.458l-177.919,79.237l5.833,189.1
	c0,1.944-0.486,3.889-1.944,5.347s-2.917,1.944-4.861,1.944h-117.154l49.098,396.672c0,1.458,0,3.403-0.972,4.861
	c-0.972,1.458-2.431,2.431-3.889,2.917L1174.846,125.554L1174.846,125.554z M1048.942-245.353l111.807,305.282l-41.32-336.393
	L1048.942-245.353z M1137.415-293.479h106.46l-5.347-164.308L1137.415-293.479z M1390.196-636.191l-251.809,195.905l280.003-124.446
	L1390.196-636.191L1390.196-636.191z M1250.681-278.895c-1.458,0-2.917-0.486-3.889-1.458c-0.972-0.486-1.458-1.458-1.944-2.431
	s-0.972-1.944-0.972-2.917l-6.32-193.961c0-0.972,0-2.431,0.972-3.403c0.486-0.972,1.458-1.944,2.431-2.431
	c0.972-0.486,1.944-0.972,3.403-0.972s2.431,0.486,3.403,0.972l243.545,113.751c1.458,0.486,2.431,1.458,2.917,2.917
	c0.486,1.458,0.972,2.431,0.972,3.889c0,0.972-0.486,1.944-1.458,2.917c-0.486,0.972-1.458,1.458-2.431,1.944l-238.197,80.695
	C1252.139-278.895,1251.653-278.895,1250.681-278.895 M1251.653-469.453l5.833,174.03l212.433-71.945L1251.653-469.453
	L1251.653-469.453z M1488.392-359.105c-0.972,0-1.944,0-2.917-0.486l-244.031-113.751c-0.972-0.486-1.944-1.458-2.917-2.431
	c-0.486-0.972-0.972-2.431-1.458-3.403c0-1.458,0.486-2.917,0.972-3.889c0.972-0.972,1.944-1.944,2.917-2.431l175.974-79.237
	l-30.625-78.751c-0.486-1.944-0.486-3.889,0-5.347l115.21-270.281c0.486-1.458,1.944-2.917,3.403-3.403
	c1.458-0.486,3.403-0.486,4.861,0c1.458,0.486,2.917,1.458,3.889,3.403c0.972,1.458,0.972,3.403,0.486,4.861l-81.182,351.949
	l61.737,193.961c0.486,1.458,0.486,2.917,0,3.889c-0.486,1.458-0.972,2.431-1.944,3.403
	C1491.309-360.077,1489.85-359.105,1488.392-359.105 M1260.403-479.662l216.322,100.626l-54.931-173.544L1260.403-479.662
	L1260.403-479.662z M1399.919-646.4l24.792,61.737l59.792-259.587L1399.919-646.4L1399.919-646.4z M1074.706-601.677
	c-1.458,0-2.917-0.486-3.889-1.458c-0.972-0.972-1.944-1.944-2.431-3.403c-0.486-1.458-0.486-2.917,0-4.375
	c0.486-1.458,1.458-2.917,2.917-3.403l433.616-308.198c0.972-0.972,2.431-0.972,3.889-0.972c1.458,0,2.917,0.486,3.889,1.458
	c0.972,0.972,1.944,2.431,2.431,3.889c0.486,1.458,0,2.917-0.486,4.375l-115.696,269.795c-0.486,0.972-0.972,1.945-1.944,2.917
	c-0.972,0.486-1.944,0.972-3.403,1.458l-317.921,37.917H1074.706L1074.706-601.677z M1492.281-896.75l-391.324,278.059
	l287.295-34.028L1492.281-896.75L1492.281-896.75z M1089.776-404.314c-1.944,0-3.403-0.486-4.861-1.944
	c-0.972-1.458-1.458-2.917-1.458-4.375s0.486-3.403,1.458-4.375l85.557-114.238c0.486-0.972,1.458-1.458,1.944-1.944
	l216.808-121.529c0.486-0.486,1.458-0.972,2.431-0.972h2.431c0.972,0,1.458,0.486,2.431,0.972l1.944,1.945
	c0.486,0.972,0.972,1.458,0.972,2.431v2.917c0,0.972-0.486,1.944-0.972,2.431c-0.486,0.972-0.972,1.458-1.944,1.945
	l-302.851,235.767C1092.693-404.314,1091.234-404.314,1089.776-404.314 M1180.194-519.523l-53.959,71.945l189.586-147.78
	L1180.194-519.523z M1175.333-518.065c-1.458,0-2.917-0.486-4.375-1.458l-100.626-83.612c-0.972-0.972-1.458-1.944-1.944-3.403
	c-0.486-1.458-0.486-2.431,0-3.889s0.972-2.431,1.944-3.403c0.972-0.972,1.944-1.458,3.403-1.458l318.407-37.917
	c1.458,0,2.917,0.486,4.375,1.458c1.458,0.972,2.431,1.944,2.917,3.889c0.486,1.458,0.486,3.403,0,4.861
	c-0.486,1.458-1.458,2.917-2.917,3.403l-217.781,120.557C1177.763-518.551,1176.305-518.065,1175.333-518.065 M1091.234-603.622
	l84.584,70.001l182.294-101.599L1091.234-603.622z M1089.776-402.855h-1.944c-1.458-0.486-2.431-1.458-3.403-2.431
	c-0.972-0.972-1.458-2.431-1.458-3.889l-15.07-198.336c0-1.458,0-2.917,0.972-3.889c0.486-1.458,1.458-2.431,2.917-2.917
	c0.972-0.486,2.431-0.972,3.889-0.972s2.431,0.486,3.403,1.458l100.626,83.612c1.458,0.972,2.431,2.917,2.431,4.375
	c0,1.944-0.486,3.889-1.458,5.347l-85.557,115.21c-0.486,0.972-1.458,1.458-2.431,1.458
	C1091.72-402.855,1090.748-402.855,1089.776-402.855 M1082.484-592.927l12.639,164.308l70.487-95.765L1082.484-592.927
	L1082.484-592.927z M2215.623-540.426c-1.458,0-2.43-0.486-3.889-1.458l-280.49-193.961c-0.972-0.972-1.944-1.945-2.431-3.403
	c-0.486-1.458-0.486-2.917-0.486-4.375c0.486-1.458,1.458-2.917,2.431-3.403c0.972-0.972,2.431-1.458,3.889-1.458l392.297-30.139
	c1.458,0,2.431,0,3.403,0.486c0.972,0.486,1.944,1.458,2.431,2.431c0.486,0.972,0.972,2.431,0.972,3.403s-0.486,2.431-0.972,3.403
	l-111.321,224.586c-0.486,0.972-0.972,1.458-1.945,2.431c-0.486,0.486-1.458,0.972-2.43,1.458H2215.623L2215.623-540.426z
	 M1955.064-735.846l258.128,178.405l102.571-206.6L1955.064-735.846L1955.064-735.846z M1935.134-734.387
	c-1.944,0-3.403-0.486-4.861-1.945l-111.321-117.64c-0.972-0.972-1.458-1.944-1.944-3.403c-0.486-1.458,0-2.431,0-3.889
	c0.486-1.458,1.458-2.431,2.431-2.917c0.972-0.972,2.431-1.458,3.403-1.458l517.229-41.806c0.972,0,1.945,0,2.917,0.486
	c0.972,0.486,1.944,0.972,2.431,1.944c0.486,0.972,0.972,1.458,1.458,2.431c0.486,0.972,0.486,1.944,0.486,2.917l-13.611,128.821
	c0,1.458-0.972,2.917-1.944,4.375c-0.972,0.972-2.431,1.944-4.375,1.944L1935.134-734.387L1935.134-734.387z M1838.882-853
	l98.682,104.515l383.547-30.139l11.667-114.724C2332.777-893.347,1838.882-853,1838.882-853z M2177.22-295.91
	c-1.458,0-2.917-0.486-3.889-0.972c-0.972-0.972-1.945-1.944-2.431-2.917c-0.486-1.458-0.486-2.917-0.486-3.889
	c0-0.972,0.972-2.917,1.944-3.403l243.059-262.989c0.972-0.972,1.945-1.458,2.917-1.945c0.972-0.486,2.431-0.486,3.403-0.486
	c0.972,0,1.945,0.972,2.917,1.458c0.972,0.972,1.458,1.458,1.945,2.917l75.348,188.127c0.486,0.972,0.486,1.944,0.486,2.917
	s0,1.944-0.486,2.917c-0.486,0.972-0.972,1.458-1.945,2.431l-2.917,1.458l-317.92,74.862L2177.22-295.91L2177.22-295.91z
	 M2418.82-553.065l-221.183,238.683l288.267-68.056L2418.82-553.065z M2110.622-467.023h-1.458l-202.711-37.431
	c-1.458-0.486-2.917-1.458-4.375-2.917c-0.972-1.458-1.458-3.403-0.972-4.861l27.223-230.419c0-0.972,0.486-2.431,1.458-3.403
	c0.486-0.972,1.458-1.945,2.431-2.431c0.972-0.486,1.944-0.972,3.403-0.972c0.972,0,2.431,0.486,3.403,0.972l280.003,193.961
	c0.972,0.486,1.458,1.458,2.431,2.431c0.486,0.972,0.972,1.944,0.972,3.403c0,0.972-0.486,2.431-0.972,3.403
	c-0.486,0.972-1.458,1.945-2.431,2.431l-105.488,74.862c-0.972,0.486-2.431,0.972-3.889,0.486h0.972V-467.023z M1915.203-517.093
	l193.475,35.973l94.307-66.598l-262.503-181.808L1915.203-517.093z M1823.813-852.028c-1.458,0-2.917-0.486-3.889-1.458
	c-0.972-0.972-1.944-2.431-2.431-3.889c-0.486-1.458,0-2.917,0.486-4.375c0.486-1.458,1.458-2.431,2.917-3.403l197.363-113.751
	c0.486-0.486,1.458-0.486,2.431-0.972h2.431l319.865,71.945c1.458,0,2.917,1.458,4.375,2.431c0.972,1.458,1.458,2.917,1.458,4.861
	c0,1.458-0.972,3.403-1.944,4.375c-0.972,0.972-2.917,1.944-4.375,1.944L1823.813-852.028L1823.813-852.028z M2022.635-965.293
	l-168.197,97.223l440.422-35.973L2022.635-965.293z M2177.22-295.423c-0.972,0-2.431,0-3.403-0.972
	c-0.972-0.486-1.944-1.458-2.43-2.431s-0.972-1.944-0.972-3.403s0-2.431,0.486-3.403l234.308-513.826
	c0.486-1.458,1.945-2.431,2.917-3.403c1.458-0.486,2.917-0.972,4.375-0.486c1.458,0.486,2.917,0.972,3.889,2.431
	c0.972,0.972,1.458,2.917,1.458,4.375l9.236,251.809c0,0.972,0,1.944-0.486,2.917c0,0.972-0.486,1.458-1.458,2.431l-243.544,262.989
	C2180.623-295.909,2179.164-295.423,2177.22-295.423 M2405.695-787.86L2201.04-338.202l212.919-229.933L2405.695-787.86
	L2405.695-787.86z M2177.22-295.423h-1.945c-1.458-0.486-2.917-1.458-3.889-2.917c-0.972-1.458-1.458-2.917-0.972-4.861
	l38.403-245.003c0-0.972,0.486-1.458,0.486-1.944l111.807-224.586c0.486-1.458,1.458-2.431,2.917-2.917l84.098-44.237
	c0.972-0.486,2.431-0.972,3.889-0.486c1.458,0,2.917,0.972,3.403,1.944c0.972,0.972,1.458,2.431,1.945,3.889
	c0,1.458,0,2.917-0.486,4.375l-233.822,512.854c-0.486,1.458-1.458,1.944-2.431,2.917
	C2179.65-295.909,2178.192-295.423,2177.22-295.423 M2221.943-545.288l-30.139,195.419l205.627-451.117l-65.14,34.514
	L2221.943-545.288L2221.943-545.288z M2177.22-295.423c-1.458,0-2.917-0.486-3.889-0.972c-0.972-0.972-1.945-1.944-2.431-2.917
	l-67.084-172.085c-0.486-1.458-0.486-2.917-0.486-4.861c0.486-1.458,1.458-2.917,2.917-3.889l105.487-73.89
	c0.972-0.972,2.431-0.972,3.889-0.972s2.431,0.486,3.889,0.972c0.972,0.972,1.945,1.944,2.431,2.917
	c0.486,1.458,0.486,2.431,0.486,3.889l-38.403,245.489c0,1.458-0.972,2.917-1.944,3.889c-0.972,0.972-2.431,1.944-3.889,1.944
	L2177.22-295.423z M2118.4-471.398l56.39,143.405l32.084-204.655L2118.4-471.398L2118.4-471.398z M1759.159-443.689
	c-0.972,0-2.431-0.486-3.403-0.972l-158.96-96.251c-1.458-0.972-2.431-1.944-2.917-3.403c-0.486-1.458-0.486-2.917,0-4.861
	c0.486-1.458,1.458-2.917,2.431-3.889c1.458-0.972,2.917-1.458,4.375-0.972l307.712,35.973c1.458,0,2.917,0.972,3.889,1.944
	c0.972,0.972,1.458,2.431,1.944,3.889c0,1.458,0,2.917-0.972,4.375c-0.972,1.458-1.944,2.431-3.403,2.917l-148.752,61.251
	L1759.159-443.689 M1630.824-536.537l128.821,78.265l120.557-49.584L1630.824-536.537L1630.824-536.537z M1487.906-360.077h-0.972
	c-1.458,0-2.431-0.486-3.403-1.458s-1.458-1.944-1.944-2.917l-62.223-196.391c-0.486-1.458-0.486-2.917,0-3.889
	c0.486-1.458,0.972-2.431,1.944-3.403L1549.643-681.4c0.972-0.972,1.944-1.458,2.917-1.458c0.972-0.486,1.944,0,3.403,0l2.917,1.458
	c0.972,0.486,1.458,1.458,1.944,2.917l45.209,126.877l157.016,95.765c0.972,0.972,1.944,1.944,2.431,2.917
	c0.486,1.458,0.972,2.431,0.486,3.889c0,1.458-0.486,2.431-1.458,3.403c-0.972,0.972-1.944,1.944-2.917,2.431l-268.823,82.64
	C1490.823-359.591,1489.364-359.591,1487.906-360.077 M1602.143-537.996l-98.196,158.474l238.197-72.918L1602.143-537.996z
	 M1432.974-560.843l57.362,177.919l102.085-164.794L1551.587-663.9L1432.974-560.843z M2495.627-370.772h-0.486
	c-1.458,0-2.43-0.486-3.403-1.458c-0.972-0.486-1.944-1.944-2.431-2.917l-75.348-188.127c-0.486-1.458-0.486-2.917,0-4.375
	c0.486-1.458,1.458-2.917,2.431-3.889c1.458-0.972,2.917-1.458,4.375-1.458s2.917,0.486,4.375,1.458l125.904,109.862
	c0.972,0.972,1.945,2.917,2.431,4.375s0,3.403-0.972,4.861l-51.042,78.751c-0.486,0.972-1.458,1.944-2.43,2.431
	C2498.057-370.772,2496.599-370.772,2495.627-370.772 M2437.292-542.371l59.792,150.21l39.862-63.195L2437.292-542.371
	L2437.292-542.371z M2546.183-449.523c-1.458,0-2.917-0.486-4.375-1.458L2416.39-560.357c-0.972-0.972-1.458-1.945-1.945-3.403
	c-0.486-1.458-0.486-2.431,0-3.889c0.486-1.458,0.972-2.431,1.945-2.917c0.972-0.972,1.944-1.458,3.403-1.458l197.85-19.445
	c1.458,0,2.431,0,3.403,0.972c0.972,0.486,1.944,1.458,2.917,2.431c0.486,0.972,0.972,2.431,0.972,3.403
	c0,1.458-0.486,2.431-0.972,3.889l-72.431,128.821c-0.486,0.972-0.972,1.458-1.944,2.431c-0.972,0.486-1.944,0.972-2.917,0.972
	L2546.183-449.523L2546.183-449.523z M2437.292-560.357l106.946,93.334l61.737-109.862L2437.292-560.357z M2420.765-558.899h-0.972
	c-1.458,0-2.917-0.972-3.889-2.431s-1.458-2.917-1.944-4.375l-9.236-251.323c0-0.972,0-1.944,0.486-2.917s0.972-1.944,1.944-2.431
	l2.917-1.458c0.972-0.486,1.945,0,3.403,0l85.557,26.25c0.972,0.486,1.458,0.486,2.431,1.458c0.972,0.486,1.458,1.458,1.944,2.431
	c0.486,0.972,0.486,1.945,0.486,2.917c0,0.972,0,1.945-0.486,2.917l-76.32,225.072c-0.486,1.458-1.458,2.431-2.431,3.403
	C2423.681-559.385,2422.223-558.899,2420.765-558.899 M2418.82-807.305l7.292,205.141l62.223-183.266L2418.82-807.305
	L2418.82-807.305z M2420.765-558.899c-0.972,0-1.945,0-2.917-0.486c-0.972-0.486-1.458-0.972-2.431-1.944
	c-0.486-0.972-0.972-1.945-1.458-3.403c0-0.972,0-2.431,0.486-3.403l74.376-217.781l-79.237-23.82
	c-1.458-0.486-2.431-0.972-3.403-1.945l-70.487-83.612c-0.972-1.458-1.458-2.917-1.458-4.375c0-1.944,0.486-3.403,1.458-4.375
	c0.972-1.458,2.431-1.944,4.375-2.431c1.458,0,3.403,0,4.375,0.972l156.53,110.349c0.972,0.972,1.945,1.944,2.431,3.403
	l121.043,204.169c0.486,0.972,0.972,2.431,0.972,3.403c0,1.458,0,2.431-0.486,3.403c-0.486,0.972-1.458,1.945-2.431,2.431
	l-2.917,1.458l-198.336,19.445L2420.765-558.899L2420.765-558.899z M2499.03-774.249l-68.543,200.766l176.947-17.5L2499.03-774.249z
	 M2415.417-822.86l42.778,13.125l-77.779-54.931L2415.417-822.86L2415.417-822.86z M2327.43-765.013
	c-1.458,0-2.43-0.486-3.889-1.458c-0.972-0.486-1.945-1.458-2.431-2.917c-0.486-0.972-0.972-2.431-0.486-3.889l13.611-128.821
	c0-1.458,0.486-2.917,1.458-3.889c0.972-0.972,1.945-1.944,2.917-2.431c1.458-0.486,2.431-0.486,3.889,0
	c1.458,0.486,2.431,0.972,3.403,2.431l70.487,83.612c0.486,0.972,1.458,1.944,1.458,2.917v3.403c0,0.972-0.486,1.944-0.972,2.917
	c-0.486,0.972-1.458,1.458-2.431,1.944l-83.612,45.209C2329.861-765.499,2328.888-765.013,2327.43-765.013 M2345.902-884.597
	l-10.695,100.14l65.14-34.514L2345.902-884.597L2345.902-884.597z M1907.911-503.482h-0.486l-308.198-35.973
	c-1.458,0-2.431-0.486-3.403-1.458c-0.972-0.972-1.944-1.944-1.944-2.917l-45.695-129.307c-0.486-0.972-0.486-1.944-0.486-2.917
	s0-1.945,0.486-2.917c0.486-0.972,0.972-1.945,1.944-2.431l2.917-1.458l229.933-41.32c1.458,0,2.917,0,3.889,0.486
	c1.458,0.486,2.431,1.458,2.917,2.917l124.446,205.628c0.486,0.972,0.972,2.431,0.972,3.403c0,1.458-0.486,2.431-0.972,3.403
	s-1.458,1.944-2.431,2.431c-0.972,0.486-1.944,0.972-3.403,0.972L1907.911-503.482L1907.911-503.482z M1604.574-553.552
	l289.726,34.028l-114.238-189.1l-217.294,38.889L1604.574-553.552L1604.574-553.552z M1907.911-503.482
	c-0.972,0-2.431-0.486-3.403-0.972c-0.972-0.486-1.944-1.458-2.431-2.431l-123.96-206.114c-0.486-0.972-0.972-1.945-0.972-2.917
	v-2.917l40.348-141.946c0.486-1.458,0.972-2.431,1.944-2.917c0.972-0.972,1.944-1.458,2.917-1.944c1.458-0.486,2.431-0.486,3.403,0
	c0.972,0.486,1.944,0.972,2.917,1.944l111.807,117.154c0.972,0.972,1.458,1.458,1.458,2.917c0.486,0.972,0.486,1.945,0.486,2.917
	l-28.195,230.419c0,1.458-0.972,2.917-1.458,3.889c-0.972,0.972-1.944,1.944-3.403,1.944L1907.911-503.482z M1790.757-717.859
	l112.293,186.183l25.278-207.572l-101.112-106.46L1790.757-717.859L1790.757-717.859z M1553.532-668.761
	c-0.972,0-1.944,0-2.917-0.486c-0.972-0.486-1.944-1.458-2.431-1.944c-0.486-0.972-0.972-1.944-0.972-2.917s0-1.944,0.486-3.403
	l37.431-114.237c0-0.972,0.972-1.945,1.458-2.917c0.972-0.972,1.458-1.458,2.917-1.458l232.85-69.029
	c1.458-0.486,2.431-0.486,3.403,0c0.972,0,2.431,0.972,2.917,1.944c0.972,0.972,1.458,1.944,1.458,2.917v3.403l-40.348,142.432
	c-0.486,1.458-0.972,2.431-1.944,3.403c-0.972,0.972-1.944,1.458-3.403,1.458l-229.933,40.834H1553.532z M1596.31-783.971
	l-32.57,99.654l214.378-38.403l35.973-125.904L1596.31-783.971L1596.31-783.971z M1590.963-782.513
	c-0.972,0-2.431-0.486-2.917-0.972c-0.972-0.486-1.944-1.458-2.431-2.431l-82.64-126.877c-0.972-0.972-0.972-2.431-0.972-3.889
	c0-1.458,0.486-2.917,0.972-3.889c0.486-0.972,1.458-1.944,2.917-2.431c1.458-0.486,2.431-0.972,3.889-0.486l315.976,57.362
	c1.458,0.486,2.917,0.972,3.889,2.431c0.972,1.458,1.458,2.917,1.944,4.375c0,1.458-0.486,2.917-1.458,4.375
	c-0.972,1.458-1.944,2.431-3.889,2.431l-233.336,69.029C1592.421-782.513,1591.449-782.513,1590.963-782.513 M1522.42-906.473
	l71.459,108.89l200.28-59.792C1794.16-857.375,1522.42-906.473,1522.42-906.473z M1553.045-664.872
	c-1.458,0-2.917-0.486-3.889-1.944c-0.972-0.972-1.944-2.431-2.431-3.889l-44.723-244.517c0-1.458,0-2.917,0.972-4.375
	c0.486-1.458,1.944-2.431,3.403-2.917c1.458-0.486,2.917-0.486,4.375,0c1.458,0.486,2.917,1.458,3.403,2.917l83.126,126.877
	c0.486,0.972,0.972,1.944,0.972,2.917s0,1.944-0.486,3.403l-38.403,116.668c-0.486,1.458-1.458,2.917-2.431,3.403
	C1555.962-665.359,1554.504-664.872,1553.045-664.872 M1520.962-884.597l34.514,185.211l28.681-88.959L1520.962-884.597z
	 M1426.169-555.982c-1.458,0-2.431-0.486-3.403-0.972c-0.972-0.972-1.944-1.945-2.431-3.403c-0.486-1.458-0.486-2.917,0-4.375
	l82.154-353.893c0.486-1.458,0.972-2.917,2.431-3.889s2.917-1.458,4.375-1.458c1.458,0,2.917,0.486,4.375,1.458
	c0.972,0.972,1.944,2.431,2.431,3.889l43.264,245.003c0,1.458,0,2.431-0.486,3.889c-0.486,0.972-0.972,2.431-1.944,2.917
	l-126.391,109.376C1429.572-556.468,1427.627-555.982,1426.169-555.982 M1507.35-883.139L1437.35-581.26l108.404-93.335
	L1507.35-883.139L1507.35-883.139z M2657.504,1138.622c-1.458,0-2.917-0.486-4.375-1.458l-288.267-236.253
	c-0.486-0.486-1.458-1.458-1.944-2.431c-0.486-0.972-0.486-1.944-0.486-2.917l-9.236-187.641c0-0.972,0-1.944,0.486-2.917
	c0.486-0.972,0.972-1.944,1.458-2.431c0.972-0.486,1.458-0.972,2.431-1.458c0.972-0.486,1.945-0.486,2.917-0.486l199.794,28.681
	c1.458,0,2.431,0.972,3.403,1.458c0.972,0.972,1.945,2.431,1.945,3.403l97.709,395.213c0.486,1.458,0.486,2.917,0,4.375
	c-0.486,1.458-1.458,2.431-2.431,3.403C2660.42,1138.136,2658.962,1138.622,2657.504,1138.622 M2376.042,891.675l269.795,221.669
	l-91.39-370.907l-187.155-27.223L2376.042,891.675z M2222.915,995.217c-0.972,0-1.944,0-2.917-0.972
	c-0.972-0.486-1.458-0.972-2.43-1.944l-1.458-2.917v-3.403l56.389-217.78c0.486-1.458,0.972-2.917,2.431-3.889l81.668-62.709
	c0.972-0.972,1.944-1.458,3.403-1.458c0.972,0,2.43,0,3.403,0.486s1.944,1.458,2.917,2.431c0.486,0.972,0.972,2.431,0.972,3.403
	l9.236,187.641c0,1.458,0,2.431-0.486,3.403c-0.486,0.972-1.458,1.944-2.431,2.917l-146.807,92.848
	C2225.346,994.732,2223.887,995.218,2222.915,995.217 M2284.652,774.521l-51.042,198.822l128.821-81.668l-8.264-170.627
	L2284.652,774.521z M2657.504,1138.622h-1.945L2220.97,995.217c-1.458-0.486-2.431-0.972-2.917-1.944
	c-0.486-0.972-1.458-2.431-1.458-3.889c0-1.458,0-2.917,0.486-3.889c0.486-0.972,1.458-1.944,2.431-2.917l146.321-92.362
	c0.972-0.972,2.43-0.972,3.889-0.972c1.458,0,2.917,0.486,3.889,0.972l287.781,236.253c1.458,0.972,1.944,2.431,2.431,3.889
	c0.486,1.458,0,3.403-0.486,4.861c-0.486,0.972-1.458,1.944-2.43,2.431C2659.934,1138.136,2658.962,1138.622,2657.504,1138.622
	 M2239.443,985.495l385.005,127.849l-255.211-209.516L2239.443,985.495L2239.443,985.495z M2559.794,743.409h-0.972l-199.794-28.681
	c-0.972,0-1.945-0.486-2.917-0.972c-0.972-0.486-1.458-0.972-1.945-1.944c-0.486-0.972-0.972-1.944-0.972-2.917v-2.917
	l11.667-47.639c0-0.972,0.486-1.944,1.458-2.917l1.945-1.944c0.972-0.486,1.944-0.486,2.917-0.486c0.972,0,1.945,0,2.917,0.486
	l187.641,76.32c1.458,0.486,2.917,1.944,3.403,3.403c0.486,1.458,0.972,3.403,0.486,4.861c-0.486,1.458-0.972,2.917-2.43,3.403
	C2562.71,742.437,2561.252,742.923,2559.794,743.409 M2368.75,701.603l135.627,19.445l-127.363-51.528L2368.75,701.603
	L2368.75,701.603z M2278.818,777.437c-0.972,0-1.945,0-2.917-0.486c-0.972-0.486-1.458-0.972-2.431-1.944
	c-0.972-1.458-1.944-2.917-1.944-4.375c0-1.944,0.486-3.403,1.944-4.861l93.335-110.349c0.972-0.972,2.43-1.944,3.889-2.431
	c1.458,0,2.917,0,4.375,0.486c1.458,0.972,2.43,1.944,2.917,3.403c0.486,1.458,0.486,2.917,0.486,4.375l-11.667,48.126
	c-0.486,1.458-1.458,2.917-2.431,3.889l-82.154,62.709C2281.735,776.951,2280.277,777.437,2278.818,777.437 M2358.542,686.533
	l-32.57,38.403l28.681-21.875L2358.542,686.533L2358.542,686.533z M1756.729,1479.39h-2.431l-237.711-85.557
	c-0.972-0.486-1.944-0.972-2.431-1.944l-205.628-214.864l-278.059-100.626c-0.972-0.486-1.944-0.972-2.431-1.458
	c-0.486-0.486-1.458-1.458-1.458-2.431L891.44,686.047l-18.959-38.889L743.174,270.903c-0.486-1.458-0.486-2.917,0-4.375
	c0.486-1.458,1.458-2.917,2.431-3.403l125.418-102.571l-20.417-330.074c0-1.458,0.486-2.917,0.972-4.375
	c0.486-1.458,1.944-1.944,2.917-2.917l179.863-76.807l34.028-355.838c0-0.972,0.486-1.945,0.972-2.917
	c0.486-0.972,0.972-1.458,1.944-2.431l433.616-307.712c1.458-0.972,3.403-1.458,4.861-0.972l313.546,57.362l195.419-112.779
	c1.458-0.972,2.917-0.972,4.861-0.972l319.865,71.945c0.972,0,1.458,0.486,2.43,0.972L2501.46-796.61
	c0.972,0.486,1.458,1.458,1.944,1.944l121.529,204.655c0.486,0.972,0.972,2.431,0.972,3.403c0,1.458-0.486,2.431-0.972,3.403
	L2501.46-374.661c-0.972,1.458-2.431,2.917-4.375,3.403l-317.921,74.862c-1.458,0.486-3.403,0-4.861-0.486s-2.431-1.944-2.917-3.403
	l-65.626-167.224l-197.364-36.459l-147.78,60.765l-213.405,125.418L1531.17,1.594c0,1.458-0.486,2.917-1.458,4.375l-149.724,185.697
	l179.377,289.24c0.486,0.972,0.972,1.944,0.972,2.917v2.917l-41.806,139.516l119.585,141.46l378.685,61.251l258.614-64.654
	l91.876-107.918c0.972-0.972,2.431-1.458,3.403-1.944c1.458-0.486,2.917,0,3.889,0l187.641,75.834
	c0.972,0.486,1.945,0.972,2.431,1.944c0.972,0.972,1.458,1.944,1.458,2.917l97.71,394.727c0.486,1.458,0,2.917-0.486,4.375
	c-0.486,1.458-1.458,2.431-2.917,3.403l-372.366,215.836l-251.323,74.376l-171.599,20.417l-106.46,31.598h-1.944V1479.39z
	 M1522.42,1380.708l234.308,83.612l105.487-30.625l171.599-20.417l248.892-73.404l367.019-212.433l-95.279-386.463l-179.863-72.918
	l-90.904,106.46c-0.972,0.972-1.944,1.944-3.403,2.431l-262.503,66.112h-2.431l-382.574-62.223
	c-1.458-0.486-2.917-0.972-3.889-2.431l-123.474-145.835c-0.972-0.972-1.458-1.944-1.458-2.917v-3.403l41.806-140.002
	l-178.891-291.184c-0.972-0.972-1.458-2.431-1.458-3.889c0-1.458,0.486-2.917,1.458-4.375L1518.045-0.836l16.042-321.323
	c0-0.972,0.486-2.431,0.972-3.403c0.486-0.972,1.458-1.944,2.431-2.431l217.781-128.821l149.724-61.251
	c0.972-0.486,2.431-0.486,3.403,0l202.711,37.431c0.972,0,1.945,0.972,2.917,1.458c0.972,0.972,1.458,1.458,1.944,2.917
	l65.14,165.766l309.17-72.918l119.585-201.739l-117.64-200.28l-153.127-108.89l-316.462-71.459L1826.729-853
	c-1.458,0.486-2.917,0.972-4.375,0.972l-312.573-56.876l-428.755,304.309l-33.542,356.324c0,1.458-0.486,2.431-1.458,3.403
	c-0.972,0.972-1.458,1.944-2.917,2.431L864.218-165.63l20.903,328.615c0,0.972,0,2.431-0.486,3.403
	c-0.486,0.972-0.972,1.944-1.944,2.431L758.244,270.903l126.39,370.907l19.931,38.889l135.141,384.033l276.115,100.14
	c0.972,0.486,1.944,0.972,2.431,1.944L1522.42,1380.708L1522.42,1380.708z"/>
</svg>
