<?xml version="1.0" encoding="iso-8859-1"?>
<!-- Generator: Adobe Illustrator 19.0.0, SVG Export Plug-In . SVG Version: 6.00 Build 0)  -->
<svg version="1.1" id="Layer_1" xmlns="http://www.w3.org/2000/svg" xmlns:xlink="http://www.w3.org/1999/xlink" x="0px" y="0px"
	 viewBox="0 0 2000 2000" style="enable-background:new 0 0 2000 2000;" xml:space="preserve">
<path style="fill:#1C75BB;" d="M1061.793,1982.406c-41.059,0-82.117,0-123.176,0c-2.043-3.703-5.728-2.13-8.611-2.367
	c-66.006-5.412-130.941-16.694-194.564-35.216c-166.838-48.571-311.185-134.929-430.813-260.849
	c-165.693-174.409-256.475-382.684-273.758-622.46C22.688,947.979,34.93,836.08,66.576,726.632
	c71.296-246.578,215.673-438.408,433.944-573.497C632.016,71.751,775.811,26.353,929.999,13.956c2.88-0.232,6.57,1.336,8.619-2.362
	c41.059,0,82.117,0,123.176,0c1.563,3.03,4.481,1.869,6.833,2.041c32.965,2.414,65.802,6.094,98.299,12.045
	c228.295,41.807,420.742,148.637,569.943,326.338c200.786,239.139,274.899,515.288,221.84,823.254
	c-34.087,197.846-122.648,369.783-263.51,513.071c-172.133,175.098-381.573,272.215-626.574,292.017
	C1066.272,1980.551,1063.355,1979.376,1061.793,1982.406z M834.593,1399.931c144.34,0,288.679,0.028,433.019-0.07
	c8.631-0.006,17.328-0.526,25.881-1.658c41.034-5.432,77.356-23.032,111.055-45.803c57.501-38.852,102.401-88.836,124.423-155.686
	c39.713-120.552,77.754-241.653,116.797-362.427c8.828-27.31,16.202-54.589,14.834-83.737
	c-4.304-91.763-65.874-135.682-136.038-135.851c-294.772-0.713-589.547-0.276-884.32-0.465c-6.778-0.004-9.335,2.284-11.315,8.473
	c-18.659,58.308-37.647,116.511-56.556,174.739c-4.22,12.995-4.25,12.988,9.468,12.988c259.811,0.001,519.623,0,779.434,0.003
	c11.57,0,11.722,0.065,8.1,11.282c-40.084,124.146-80.293,248.253-120.165,372.467c-2.491,7.761-6.019,10.077-14.07,10.07
	c-261.094-0.224-522.189-0.146-783.283-0.358c-8.379-0.007-12.058,2.219-14.705,10.624c-18.201,57.78-37.1,115.339-55.791,172.965
	c-4.035,12.44-4.065,12.444,8.666,12.444C538.216,1399.932,686.405,1399.931,834.593,1399.931z M586.46,1098.542
	c76.644,0,153.289-0.072,229.932,0.132c6.37,0.017,9.514-1.49,11.664-8.027c18.123-55.097,36.527-110.104,55.313-164.979
	c2.751-8.035,1.347-9.536-6.822-9.526c-152.647,0.198-305.294,0.203-457.941-0.03c-7.395-0.011-10.574,2.406-12.877,9.227
	c-18.343,54.347-37.043,108.573-55.627,162.838c-3.53,10.307-3.518,10.355,7.385,10.357
	C433.813,1098.549,510.137,1098.542,586.46,1098.542z"/>
</svg>
