<?xml version="1.0" encoding="iso-8859-1"?>
<!-- Generator: Adobe Illustrator 19.0.0, SVG Export Plug-In . SVG Version: 6.00 Build 0)  -->
<svg version="1.1" id="Layer_1" xmlns="http://www.w3.org/2000/svg" xmlns:xlink="http://www.w3.org/1999/xlink" x="0px" y="0px"
	 viewBox="1000 -1000 2500 2500" style="enable-background:new 1000 -1000 2500 2500;" xml:space="preserve">
<g>
	<path style="fill:#014655;" d="M1727.069-72.615h335.63V35.651h-335.63V-72.615 M2568.309,425.414h-787.107v400.595h786.016
		c109.346,0,204.622-90.946,204.622-201.383C2769.68,513.085,2679.826,424.31,2568.309,425.414"/>
	<path style="fill:#014655;" d="M2250-976.673c-677.761,0-1226.673,548.912-1226.673,1226.673S1572.239,1476.673,2250,1476.673
		S3476.673,927.762,3476.673,250C3477.753-427.761,2927.749-976.673,2250-976.673z M2290.063-429.92h584.645v119.098H2419.98V35.627
		h335.63V-72.615h-238.196v-119.122h368.112v346.462h-595.464L2290.063-429.92L2290.063-429.92z M1618.803-419.089h368.1v140.736
		h-368.1L1618.803-419.089L1618.803-419.089z M1607.972-191.725h465.547V-429.92h129.868v584.645h-595.415v-346.462
		L1607.972-191.725z M2595.37,977.564h-976.567V273.822h976.579c189.472,0,344.29,159.149,344.29,351.871
		S2784.83,977.552,2595.37,977.552V977.564z"/>
</g>
<path style="fill:#C39145;" d="M1618.803-419.089h368.1v140.736h-368.1V-419.089z"/>
</svg>
