<?xml version="1.0" encoding="iso-8859-1"?>
<!-- Generator: Adobe Illustrator 19.0.0, SVG Export Plug-In . SVG Version: 6.00 Build 0)  -->
<svg version="1.1" id="Layer_1" xmlns="http://www.w3.org/2000/svg" xmlns:xlink="http://www.w3.org/1999/xlink" x="0px" y="0px"
	 viewBox="0 0 2000 2000" style="enable-background:new 0 0 2000 2000;" xml:space="preserve">
<path style="fill:#669073;" d="M1550.618,889.431c-181.574-80.491-363.148-160.982-545.247-241.706
	c-190.096,80.063-379.788,159.956-575.677,242.458c193.235-294.146,382.254-581.875,571.064-869.285
	c13.858,0.838,15.794,12.421,20.581,19.952c176.764,278.08,353.232,556.348,529.677,834.63c1.728,2.726,2.614,5.986,3.893,8.997
	C1553.3,885.973,1551.87,887.624,1550.618,889.431z M1008.568,772.427c-199.067,83.825-398.135,167.652-600.798,252.991
	c202.97,112.669,401.535,222.893,600.824,333.518c193.504-108.184,386.03-215.82,583.889-326.439
	C1394.4,944.274,1201.968,858.566,1008.568,772.427z M1571.62,1187.093c-34.535,19.078-69.253,37.833-103.574,57.288
	c-153.577,87.058-307.041,174.316-461.165,261.854c-34.015-19.654-67.155-38.868-100.356-57.975
	c-151.164-86.995-302.346-173.96-453.521-260.936c-1.73,1.89-3.459,3.78-5.189,5.669
	c185.63,259.162,371.253,518.328,556.986,777.416c1.68,2.344,4.827,3.637,9.687,7.158c24.815-34.398,49.166-67.964,73.324-101.67
	c163.297-227.831,326.553-455.691,489.822-683.542C1575.629,1190.601,1573.625,1188.847,1571.62,1187.093z M453.002,1187.325
	c-3.542-5.209-7.881-6.419-14.725-1.738c3.519,2.732,6.528,5.069,9.538,7.406C449.544,1191.103,451.274,1189.214,453.002,1187.325z
	 M1550.623,889.409c2.421,0.798,4.837,1.619,11.482,3.874c-4.245-5.195-5.72-7.001-7.195-8.807
	C1553.3,885.973,1551.87,887.624,1550.623,889.409z M1577.62,1192.35c0.657-2.591,1.327-5.177,2.776-10.764
	c-4.611,2.893-6.694,4.2-8.777,5.507C1573.625,1188.847,1575.629,1190.601,1577.62,1192.35z"/>
</svg>
