<?xml version="1.0" encoding="iso-8859-1"?>
<!-- Generator: Adobe Illustrator 19.0.0, SVG Export Plug-In . SVG Version: 6.00 Build 0)  -->
<svg version="1.1" id="Layer_1" xmlns="http://www.w3.org/2000/svg" xmlns:xlink="http://www.w3.org/1999/xlink" x="0px" y="0px"
	 viewBox="-96 -1000 2500 2500" style="enable-background:new -96 -1000 2500 2500;" xml:space="preserve">
<g transform="translate(145.399 -398.705)">
	<path id="path0_fill" style="fill:#25968F;" d="M887.554,442.398l706.772,751.788L907.757,1767.33L887.554,442.398z"/>
</g>
<g transform="translate(145.399 -403.784)">
	<path id="path1_fill" style="fill:#BDDBD5;" d="M887.554,429.474l727.685-374.653l-20.912,1126.441L887.554,429.474z"/>
</g>
<g transform="translate(145.399 -411.253)">
	<path id="path2_fill" style="fill:#EDF6F1;" d="M887.554-515.353l727.685,551.169L887.554,410.469V-515.353z"/>
</g>
<g transform="translate(138.735 -411.253)">
	<path id="path3_fill" style="fill:#6BB8A0;" d="M378.976,35.816l491.622-551.169v925.822l20.204,1324.932l-397.338-573.145
		L378.976,35.816z"/>
</g>
<g id="Group">
	<g id="Vector_4_" transform="translate(138.462 -411.616)">
		<path id="path4_fill" style="fill:#FFFFFF;" d="M903.93,1790.836l-411.87-604.691L372.255,41.982l509.344-570.664l753.914,571.018
			v10.279l-21.621,1146.645L903.93,1790.836L903.93,1790.836z M529.985,1171.967l381.742,551.169l664.238-553.296L1596.17,62.185
			l-706.063-534.51L416.207,58.995L529.985,1171.967z"/>
	</g>
</g>
<g id="Group_1_">
	<g id="Vector_5_" transform="translate(145.137 -411.253)">
		<path id="path5_fill" style="fill:#FFFFFF;" d="M887.596,1735.402L867.392,411.533v-926.886h38.635v925.822l20.204,1323.869
			C926.231,1734.339,887.596,1735.402,887.596,1735.402z"/>
	</g>
</g>
<g id="Group_2_">
	<g id="Vector_6_" transform="translate(144.969 -404.029)">
		<path id="path6_fill" style="fill:#FFFFFF;" d="M1579.408,1194.816L854.559,423.534l760.294-387.413l17.723,35.445L918.36,435.231
			l689.05,731.938L1579.408,1194.816z"/>
	</g>
</g>
<g id="Group_3_">
	<g id="Vector_7_" transform="translate(145.043 -381.387)">
		<path id="path7_fill" style="fill:#1C2634;" d="M906.851,1858.538c25.52,0,46.433-21.267,46.433-47.142
			s-20.912-47.142-46.433-47.142s-46.433,21.267-46.433,47.142S881.331,1858.538,906.851,1858.538z"/>
	</g>
	<g id="Vector_8_" transform="translate(144.938 -381.494)">
		<path id="path8_fill" style="fill:#FFFFFF;" d="M906.584,1771.426c21.621,0,38.635,17.368,38.635,39.344
			s-17.014,39.344-38.635,39.344c-21.621,0-38.635-17.368-38.635-39.344S884.963,1771.426,906.584,1771.426z M906.584,1755.83
			c-30.128,0-54.231,24.457-54.231,54.94c0,30.837,24.103,54.94,54.231,54.94c30.128,0,54.231-24.457,54.231-54.94
			C960.815,1780.287,936.004,1755.83,906.584,1755.83z"/>
	</g>
</g>
<g id="Group_4_">
	<g id="Vector_9_" transform="translate(154.352 -389.155)">
		<path id="path9_fill" style="fill:#1C2634;" d="M1617.107,1265.627c25.52,0,46.433-21.267,46.433-47.142
			s-20.912-47.142-46.433-47.142c-25.52,0-46.433,21.267-46.433,47.142S1591.587,1265.627,1617.107,1265.627z"/>
	</g>
	<g id="Vector_10_" transform="translate(154.247 -389.262)">
		<path id="path10_fill" style="fill:#FFFFFF;" d="M1616.84,1178.869c21.621,0,38.635,17.368,38.635,39.344
			s-17.014,39.344-38.635,39.344c-21.621,0-38.635-17.368-38.635-39.344C1578.205,1196.946,1595.927,1178.869,1616.84,1178.869z
			 M1616.84,1162.919c-30.128,0-54.231,24.457-54.231,54.94c0,30.837,24.103,54.94,54.231,54.94
			c30.128,0,54.231-24.457,54.231-54.94S1647.323,1162.919,1616.84,1162.919z"/>
	</g>
</g>
<g id="Group_5_">
	<g id="Vector_11_" transform="translate(139.658 -389.155)">
		<path id="path11_fill" style="fill:#1C2634;" d="M495.811,1265.627c25.52,0,46.433-21.267,46.433-47.142
			s-20.913-47.142-46.433-47.142s-46.433,21.267-46.433,47.142S470.291,1265.627,495.811,1265.627z"/>
	</g>
	<g id="Vector_12_" transform="translate(139.553 -389.262)">
		<path id="path12_fill" style="fill:#FFFFFF;" d="M495.544,1178.869c21.621,0,38.635,17.368,38.635,39.344
			s-17.014,39.344-38.635,39.344c-21.621,0-38.635-17.368-38.635-39.344C456.909,1196.946,474.632,1178.869,495.544,1178.869z
			 M495.544,1162.919c-30.128,0-54.231,24.457-54.231,54.94c0,30.837,24.103,54.94,54.231,54.94s54.231-24.457,54.231-54.94
			C549.775,1188.085,525.672,1162.919,495.544,1162.919z"/>
	</g>
</g>
<g id="Group_6_">
	<g id="Vector_13_" transform="translate(138.105 -404.424)">
		<path id="path13_fill" style="fill:#1C2634;" d="M377.372,100.334c25.52,0,46.433-21.267,46.433-47.142
			S402.893,6.051,377.372,6.051S330.94,27.318,330.94,53.193S351.852,100.334,377.372,100.334L377.372,100.334z"/>
	</g>
	<g id="Vector_14_" transform="translate(138 -404.531)">
		<path id="path14_fill" style="fill:#FFFFFF;" d="M377.105,13.576c21.621,0,38.635,17.368,38.635,39.344
			s-17.014,39.344-38.635,39.344S338.47,74.896,338.47,52.92S355.484,13.576,377.105,13.576L377.105,13.576z M377.105-2.374
			c-30.128,0-54.231,24.457-54.231,55.294s24.103,54.94,54.231,54.94c30.128,0,54.231-24.457,54.231-54.94
			C431.336,22.083,407.234-2.374,377.105-2.374z"/>
	</g>
</g>
<g id="Group_7_">
	<g id="Vector_15_" transform="translate(144.77 -399.345)">
		<path id="path15_fill" style="fill:#1C2634;" d="M885.953,487.911c25.52,0,46.433-21.267,46.433-47.142
			s-20.913-47.142-46.433-47.142c-25.52,0-46.433,21.267-46.433,47.142S860.433,487.911,885.953,487.911z"/>
	</g>
	<g id="Vector_16_" transform="translate(144.665 -399.452)">
		<path id="path16_fill" style="fill:#FFFFFF;" d="M885.686,401.153c21.621,0,38.635,17.368,38.635,39.344
			s-17.014,39.344-38.635,39.344c-21.621,0-38.635-17.368-38.635-39.344C847.051,419.23,864.065,401.153,885.686,401.153z
			 M885.686,385.557c-30.128,0-54.231,24.457-54.231,54.94c0,30.837,24.103,54.94,54.231,54.94c30.128,0,54.231-24.457,54.231-54.94
			C939.917,409.66,915.814,385.557,885.686,385.557z"/>
	</g>
</g>
<g id="Group_8_">
	<g id="Vector_17_" transform="translate(154.636 -404.424)">
		<path id="path13_fill_1_" style="fill:#1C2634;" d="M1638.742,100.334c25.52,0,46.433-21.267,46.433-47.142
			s-20.912-47.142-46.433-47.142s-46.433,21.267-46.433,47.142S1613.222,100.334,1638.742,100.334z"/>
	</g>
	<g id="Vector_18_" transform="translate(154.531 -404.531)">
		<path id="path14_fill_1_" style="fill:#FFFFFF;" d="M1638.475,13.576c21.621,0,38.635,17.368,38.635,39.344
			s-17.014,39.344-38.635,39.344c-21.621,0-38.635-17.368-38.635-39.344S1616.854,13.576,1638.475,13.576z M1638.475-2.374
			c-30.128,0-54.231,24.457-54.231,54.94c0,30.837,24.103,54.94,54.231,54.94c30.128,0,54.231-24.457,54.231-54.94
			S1668.958-2.374,1638.475-2.374z"/>
	</g>
</g>
<g id="Group_9_">
	<g id="Vector_19_" transform="translate(144.77 -411.893)">
		<path id="path13_fill_2_" style="fill:#1C2634;" d="M885.953-469.485c25.52,0,46.433-21.267,46.433-47.142
			c0-25.875-20.913-47.496-46.433-47.496c-25.52,0-46.433,21.267-46.433,47.142C839.52-491.107,860.433-469.485,885.953-469.485z"/>
	</g>
	<g id="Vector_20_" transform="translate(144.665 -412)">
		<path id="path14_fill_2_" style="fill:#FFFFFF;" d="M885.686-556.598c21.621,0,38.635,17.368,38.635,39.344
			c0,21.976-17.014,39.344-38.635,39.344c-21.621,0-38.635-17.368-38.635-39.344C847.051-539.23,864.065-556.598,885.686-556.598z
			 M885.686-572.193c-30.128,0-54.231,24.457-54.231,54.94c0,30.837,24.103,54.94,54.231,54.94c30.128,0,54.231-24.457,54.231-54.94
			C939.917-547.736,915.814-572.193,885.686-572.193z"/>
	</g>
</g>
</svg>
