<?xml version="1.0" encoding="iso-8859-1"?>
<!-- Generator: Adobe Illustrator 19.0.0, SVG Export Plug-In . SVG Version: 6.00 Build 0)  -->
<svg version="1.1" id="Layer_1" xmlns="http://www.w3.org/2000/svg" xmlns:xlink="http://www.w3.org/1999/xlink" x="0px" y="0px"
	 viewBox="0 0 2000 2000" style="enable-background:new 0 0 2000 2000;" xml:space="preserve">
<path style="fill:#B4B4B4;" d="M23.531,1046.938c0-36.536,0-73.071,0-109.607c2.833-2.36,1.929-5.698,2.172-8.678
	c4.504-55.346,12.536-110.144,26.211-164.002c48.005-189.075,143.404-350.1,286.428-482.807
	c84.474-78.38,180.166-139.439,286.405-183.868c86.012-35.97,175.408-59.009,268.18-69.067c15.587-1.69,31.521-0.962,46.755-5.659
	c35.846,0,71.693,0,107.539,0c0.689,0,1.379,0,2.068,0c2.068,0,4.136,0,6.204,0c2.284,2.023,5.119,1.704,7.847,1.856
	c41.309,2.302,82.34,7.217,122.864,15.397c242.257,48.898,440.685,170.093,590.91,366.19
	c153.414,200.26,217.138,428.052,197.01,679.419c-6.049,75.543-21.075,149.298-45.081,221.095
	c-57.139,170.891-153.426,315.988-290.153,433.433c-172.07,147.805-372.279,225.86-598.62,236.454
	c-70.352,3.293-140.438-1.622-209.869-14.062c-190.263-34.09-356.178-117.274-497.568-248.768
	c-99.193-92.251-175.519-201.056-229.427-325.408c-38.901-89.735-63.631-183.224-74.192-280.519
	c-1.922-17.704-1.638-35.656-5.681-53.127c0-2.068,0-4.136,0-6.204C23.531,1048.317,23.531,1047.628,23.531,1046.938z
	 M1380.673,1476.525c14.173-67.549,28.329-135.013,42.873-204.333c-176.103,0-350.205,0-524.955,0
	c0.461-3.914,0.563-6.291,1.039-8.591c6.599-31.94,13.224-63.875,19.893-95.8c12.494-59.802,25.066-119.588,37.463-179.41
	c1.178-5.685,3.575-9.996,8.462-13.285c23.004-15.478,45.951-31.042,68.81-46.733c75.651-51.929,151.214-103.988,226.966-155.77
	c5.649-3.861,8.335-8.425,9.661-14.862c7.681-37.301,15.693-74.535,23.468-111.817c3.32-15.919,6.341-31.901,9.498-47.854
	c-0.721-0.476-1.441-0.952-2.161-1.428c-101.474,69.874-202.947,139.748-306.896,211.326
	c29.635-141.587,58.629-280.113,87.841-419.681c-79.737,0-158.097,0-236.248,0c-4.426,4.623-3.643,10.505-4.75,15.763
	c-41.072,195.056-82.111,390.119-122.936,585.227c-1.471,7.029-4.637,11.557-10.463,15.503
	c-38.51,26.081-76.809,52.476-115.228,78.693c-4.397,3.001-7.87,6.104-8.887,11.898c-8.693,49.497-17.649,98.948-26.445,148.427
	c-0.498,2.8-1.869,5.934,1.588,9.216c39.299-26.737,78.604-53.48,117.91-80.222c0.811,0.632,1.622,1.264,2.432,1.896
	c-20.811,100.277-41.622,200.554-62.641,301.836C871.916,1476.525,1125.688,1476.525,1380.673,1476.525z"/>
</svg>
