<?xml version="1.0" encoding="iso-8859-1"?>
<!-- Generator: Adobe Illustrator 19.0.0, SVG Export Plug-In . SVG Version: 6.00 Build 0)  -->
<svg version="1.1" id="Layer_1" xmlns="http://www.w3.org/2000/svg" xmlns:xlink="http://www.w3.org/1999/xlink" x="0px" y="0px"
	 viewBox="0 0 500 500" style="enable-background:new 0 0 500 500;" xml:space="preserve">
<g>
	<path style="fill:#47A3BE;" d="M285.782,7.254c53.234,8.019,99.45,31.444,137.301,69.812
		c99.598,100.962,94.78,261.786-12.235,355.388c-69.501,60.789-150.677,78.354-238.648,48.574
		C83.066,450.854,28.009,387.336,9.096,295.305c-6.837-33.268-5.602-61.972-0.588-88.065
		C28.398,103.732,105.427,34.338,207.157,8.502C228.499,3.081,263.685,3.925,285.782,7.254z M175.75,166.135
		c10.686,16.811,181.752,186.336,190.244,189.566c0.283-2.515,0.781-4.895,0.783-7.277c0.034-35.071,1.434-70.216-0.374-105.194
		c-2.271-43.906-24.347-76.742-64.27-95.346c-40.301-18.78-79.328-13.865-115.701,11.811
		C182.78,162.274,178.763,164.334,175.75,166.135z M133.028,144.663c-0.087,0.47-0.869,2.723-0.872,4.978
		c-0.048,35.886-1.679,71.873,0.464,107.633c2.596,43.322,24.942,75.683,64.493,93.923c39.904,18.403,78.63,13.746,114.603-11.614
		c3.78-2.665,6.71-6.535,8.146-7.965C256.838,268.554,194.808,206.484,133.028,144.663z"/>
	<path style="fill:#FFFFFF;" d="M175.75,166.135c3.013-1.801,7.03-3.861,10.682-6.439c36.373-25.676,75.4-30.591,115.701-11.811
		c39.923,18.604,61.999,51.439,64.27,95.346c1.809,34.978,0.409,70.123,0.374,105.194c-0.002,2.381-0.5,4.762-0.783,7.277
		C357.502,352.471,186.436,182.945,175.75,166.135z"/>
	<path style="fill:#FFFFFF;" d="M133.028,144.663c61.78,61.82,123.81,123.891,186.832,186.955c-1.436,1.43-4.366,5.3-8.146,7.965
		c-35.973,25.359-74.698,30.016-114.603,11.614c-39.55-18.24-61.896-50.601-64.493-93.923c-2.143-35.76-0.512-71.747-0.464-107.633
		C132.158,147.387,132.94,145.133,133.028,144.663z"/>
</g>
</svg>
