<?xml version="1.0" encoding="utf-8"?>
<!-- Generator: Adobe Illustrator 19.0.0, SVG Export Plug-In . SVG Version: 6.00 Build 0)  -->
<svg version="1.1" id="Layer_1" xmlns="http://www.w3.org/2000/svg" xmlns:xlink="http://www.w3.org/1999/xlink" x="0px" y="0px"
	 viewBox="0 0 2000 2000" style="enable-background:new 0 0 2000 2000;" xml:space="preserve">
<style type="text/css">
	.st0{fill:#165098;}
	.st1{fill:#5C9DD5;}
</style>
<g transform="translate(-58)">
	<path class="st0" d="M362,244.9C277.5,315.8,190.2,403,154.7,509.5c-40.9,125.5,16.3,253.7,71,365.4
		c54.5,114.4,114.5,226.3,166.2,343.5c40.9,92.7,98.1,201.7,84.6,305.5c-10.9,73.7-35.5,144.5-49.1,218.2
		c-10.9,49.1,35.5,0,51.8-13.6c95.4-81.9,199-174.5,237.2-300c19-62.7,8.2-120-13.6-180c-21.7-57.2-46.4-111.7-71-169.1
		c-51.8-114.6-106.3-229-160.9-343.6c-21.7-40.9-43.6-84.6-62.7-128.2c-19.2-46.9-30.3-96.6-32.8-147.2c-2.7-40.9-2.7-79.1,2.7-120
		c2.7-30.1,10.9-57.2,13.6-87.3C394.6,236.8,381,231.2,362,244.9 M1610.8,244.9c-84.5,71-171.8,158.2-207.3,264.5
		c-40.9,125.5,16.3,253.7,71,365.4c54.5,114.6,114.6,226.3,166.4,343.7c40.9,92.7,98.1,201.7,84.6,305.5
		c-10.9,73.7-35.5,144.5-49.1,218.2c-10.9,49.1,35.5,0,51.8-13.6c95.4-81.9,199-174.5,237.2-300c19-62.7,8.2-120-13.6-180
		c-21.7-57.2-46.4-111.7-71-169.1c-51.8-114.6-106.3-229.1-161-343.7c-21.7-40.9-43.6-84.6-62.7-128.2
		c-19.2-46.9-30.3-96.6-32.8-147.2c-2.7-40.9-2.7-79.1,2.7-120c2.7-30.1,10.9-57.2,13.6-87.3C1643.6,236.8,1630,231.2,1610.8,244.9"
		/>
	<path class="st1" d="M967.3,37.6c-95.4,79.1-199,174.5-256.4,286.3c-40.9,79.1-46.4,161-24.6,242.6
		c27.3,98.1,65.4,196.3,106.3,291.7c79.1,182.7,182.7,354.5,259.1,539.9c27.3,65.4,57.2,139.1,62.7,212.7
		c5.4,90-24.6,185.4-49.1,270c-5.4,24.6-21.7,57.2-19,81.9c2.7,19,13.6,10.9,24.6,2.7c47-36.2,91.7-75.4,133.6-117.3
		c111.7-106.3,239.9-248.2,229.1-414.5c-5.4-68.2-38.2-133.6-65.4-196.3c-30.1-73.5-62.7-144.4-95.4-215.3
		c-59.9-133.6-122.8-264.5-188.1-395.4c-21.7-46.4-49.1-90-65.4-136.3c-24.6-62.7-35.5-128.2-38.2-193.6
		c-2.7-49.1,0-100.9,5.4-149.9c2.7-32.8,13.6-62.7,13.6-95.4C1008.3,21.3,992,18.6,967.3,37.6L967.3,37.6L967.3,37.6z"/>
</g>
</svg>
