<?xml version="1.0" encoding="iso-8859-1"?>
<!-- Generator: Adobe Illustrator 19.0.0, SVG Export Plug-In . SVG Version: 6.00 Build 0)  -->
<svg version="1.1" id="Layer_2" xmlns="http://www.w3.org/2000/svg" xmlns:xlink="http://www.w3.org/1999/xlink" x="0px" y="0px"
	 viewBox="0 0 500 500" style="enable-background:new 0 0 500 500;" xml:space="preserve">
<polygon id="XMLID_1_" style="fill:#244972;" points="339.075,2.5 462.836,74.839 339.075,143.692 217.93,73.096 "/>
<polygon id="XMLID_2_" style="fill:#1B2F59;" points="462.836,74.839 462.836,215.159 340.383,285.755 340.383,143.692 "/>
<polygon id="XMLID_3_" style="fill:#69FFBD;" points="340.383,285.755 297.241,262.223 297.241,170.71 217.93,127.133 
	217.93,73.096 340.383,143.692 "/>
<polygon id="XMLID_6_" style="fill:#244972;" points="464.976,425.356 340.448,496.366 342.7,354.76 464.411,285.142 "/>
<polygon id="XMLID_5_" style="fill:#1B2F59;" points="340.448,496.366 218.927,426.206 219.016,284.86 342.047,355.892 "/>
<polygon id="XMLID_4_" style="fill:#69FFBD;" points="219.016,284.86 260.966,259.264 340.219,305.021 417.614,258.124 
	464.411,285.142 342.047,355.892 "/>
<polygon id="XMLID_9_" style="fill:#244972;" points="39.814,324.973 38.079,181.632 160.839,252.254 162.721,392.456 "/>
<polygon id="XMLID_8_" style="fill:#1B2F59;" points="38.079,181.632 158.357,109.362 281.937,177.966 160.166,251.134 "/>
<polygon id="XMLID_7_" style="fill:#69FFBD;" points="281.937,177.966 283.986,227.065 205.544,274.198 209.039,364.625 
	162.721,392.456 160.166,251.134 "/>
</svg>
