<?xml version="1.0" encoding="utf-8"?>
<!-- Generator: Adobe Illustrator 24.1.0, SVG Export Plug-In . SVG Version: 6.00 Build 0)  -->
<svg version="1.1" id="CKB" xmlns="http://www.w3.org/2000/svg" xmlns:xlink="http://www.w3.org/1999/xlink" x="0px" y="0px"
	 viewBox="0 0 500 500" style="enable-background:new 0 0 500 500;" xml:space="preserve">
<style type="text/css">
	.st0{fill:#49BB88;}
	.st1{fill:#545252;}
	.st2{fill:#393A3C;}
</style>
<polygon class="st0" points="170.3,213.2 170.3,373.6 86.1,289.2 86.1,42.4 329.9,284.2 329.9,123.8 414.1,208.2 414.1,455 "/>
<rect x="2.9" y="42.4" class="st1" width="83.2" height="246.9"/>
<polygon class="st2" points="2.9,289.2 86.1,289.2 251.9,455 170.6,455 "/>
<polygon class="st1" points="251.9,455 251.9,294.7 170.3,213.2 170.3,373.6 "/>
<rect x="414.1" y="208.2" transform="matrix(-1 -1.224647e-16 1.224647e-16 -1 911.4163 663.2016)" class="st1" width="83.2" height="246.9"/>
<polygon class="st2" points="497.3,208.2 414.1,208.2 248.3,42.4 329.6,42.4 "/>
<polygon class="st1" points="248.3,42.4 248.3,202.7 329.9,284.2 329.9,123.8 "/>
</svg>
