<?xml version="1.0" encoding="iso-8859-1"?>
<!-- Generator: Adobe Illustrator 19.0.0, SVG Export Plug-In . SVG Version: 6.00 Build 0)  -->
<svg version="1.1" id="Layer_1" xmlns="http://www.w3.org/2000/svg" xmlns:xlink="http://www.w3.org/1999/xlink" x="0px" y="0px"
	 viewBox="-749 751 500 500" style="enable-background:new -749 751 500 500;" xml:space="preserve">
<path id="XMLID_4_" style="fill:#00BCAA;" d="M-377.86,1205.593c-5.01,1.918-8.999-0.314-12.938-1.295
	c-11.772-2.934-23.379-6.524-35.1-9.673c-6.984-1.876-14.061-3.402-21.38-5.153c-6.217,6.16-12.376,12.227-18.496,18.335
	c-9.115,9.097-18.196,18.228-27.302,27.335c-4.669,4.669-6.177,4.744-10.905,0.045c-13.13-13.049-26.452-25.92-39.145-39.384
	c-4.925-5.223-9.713-6.197-16.216-4.351c-13.46,3.822-27.043,7.213-40.569,10.807c-4.494,1.194-8.933,2.615-13.457,3.671
	c-5.1,1.19-6.408,0.053-7.727-5.15c-1.662-6.555-3.654-13.024-5.429-19.551c-3.358-12.347-6.846-24.664-9.879-37.091
	c-0.915-3.748-2.64-5.13-6.256-6.213c-18.996-5.692-38.185-10.599-57.485-15.109c-0.677-0.158-1.298-0.547-1.965-0.765
	c-4.727-1.547-5.728-2.797-4.793-7.619c0.928-4.786,2.336-9.483,3.607-14.199c4.071-15.1,8.064-30.223,12.356-45.26
	c0.968-3.393,0.527-5.643-2.03-8.097c-9.066-8.703-17.971-17.574-26.861-26.459c-5.106-5.104-10.134-10.29-15.068-15.561
	c-4.122-4.403-4.094-6.109,0.213-10.612c3.856-4.031,7.936-7.847,11.899-11.776c8.422-8.351,16.829-16.717,25.257-25.062
	c0.494-0.489,1.182-0.78,1.682-1.264c6.1-5.919,6.394-6.487,4.181-14.697c-3.766-13.97-7.763-27.878-11.615-41.825
	c-1.302-4.715-2.765-9.418-3.6-14.222c-0.928-5.34-0.047-6.234,5.401-7.638c14.446-3.722,28.912-7.369,43.328-11.203
	c6.073-1.615,12.011-3.736,18.073-5.4c2.613-0.717,2.94-2.655,3.475-4.707c1.645-6.307,3.303-12.611,5.018-18.899
	c3.497-12.818,7.017-25.629,10.575-38.43c0.49-1.764,1.253-3.453,2.09-5.721c3.168,0.326,6.23,0.246,9.072,1
	c14.208,3.771,28.352,7.786,42.533,11.659c4.051,1.106,8.133,2.114,12.236,3.002c3.634,0.787,6.648,0.074,9.507-2.859
	c12.265-12.579,24.78-24.914,37.206-37.336c2.153-2.152,4.232-4.389,6.5-6.414c1.992-1.778,4.247-1.819,6.406-0.155
	c0.738,0.569,1.403,1.241,2.064,1.903c13.748,13.764,27.486,27.538,41.241,41.295c1.321,1.321,2.631,2.7,4.151,3.758
	c0.869,0.605,2.254,1.048,3.231,0.818c4.522-1.065,8.976-2.415,13.466-3.62c15.107-4.056,30.207-8.136,45.339-12.094
	c2.41-0.63,4.973-0.678,8.141-1.081c6.301,22.62,12.475,44.787,18.742,67.286c11.518,3.111,22.935,6.22,34.367,9.275
	c10.352,2.766,20.713,5.499,31.084,8.191c2.728,0.708,4.063,2.402,3.631,5.112c-0.549,3.446-1.245,6.888-2.16,10.254
	c-4.466,16.429-8.715,32.927-13.726,49.19c-1.701,5.521,0.083,8.904,3.563,12.373c5.625,5.608,11.212,11.254,16.853,16.846
	c7.771,7.705,15.56,15.391,23.374,23.052c3.911,3.834,3.942,5.724-0.181,9.851c-12.892,12.904-25.81,25.782-38.713,38.674
	c-1.161,1.16-2.301,2.342-3.431,3.533c-2.291,2.414-2.842,5.102-1.921,8.389c2.896,10.344,5.538,20.758,8.371,31.12
	c2.271,8.306,4.68,16.575,7.022,24.862c0.316,1.12,0.717,2.233,0.876,3.378c0.634,4.559,0.026,5.758-4.51,7.151
	c-5.116,1.572-10.322,2.873-15.532,4.113c-15.644,3.724-31.154,7.929-46.549,12.578c-2.413,0.728-3.186,2.064-3.785,4.349
	c-3.664,13.962-7.493,27.882-11.342,41.794C-373.718,1191.591-375.798,1198.49-377.86,1205.593z M-565.629,999.511
	c2.762,4.958,5.201,9.481,7.774,13.926c4.802,8.296,9.7,16.536,14.523,24.819c3.051,5.24,6.023,10.526,9.066,15.77
	c1.657,2.856,3.967,4.124,7.487,4.096c18.751-0.148,37.503-0.096,56.255,0.013c3.377,0.02,5.643-0.881,7.362-4.074
	c3.54-6.574,7.562-12.887,11.313-19.349c5.859-10.096,11.496-20.327,17.568-30.292c2.183-3.583,1.773-6.341-0.254-9.66
	c-4.62-7.565-9.014-15.27-13.437-22.954c-4.768-8.283-9.511-16.58-14.167-24.926c-1.989-3.565-4.387-5.972-8.932-5.226
	c-2.054,0.337-4.21,0.043-6.319,0.045c-15.939,0.015-31.88,0.183-47.815-0.046c-4.705-0.068-7.838,0.876-10.045,5.533
	c-2.982,6.294-6.803,12.194-10.33,18.224C-552.186,976.704-558.839,987.967-565.629,999.511z M-541.669,1058.108
	c-1.787-3.445-2.94-5.943-4.331-8.301c-8.42-14.27-16.966-28.466-25.277-42.799c-1.348-2.325-2.713-3.54-5.421-3.448
	c-3.981,0.136-7.971-0.038-11.954,0.063c-4.829,0.122-5.113,0.387-5.513,5.12c-0.611,7.223-0.966,14.47-1.709,21.678
	c-1.603,15.545-3.561,31.055-5.042,46.611c-1.458,15.314-2.508,30.667-3.753,46.202c6.03,5.983,12.085,11.991,18.174,18.034
	c5.007-5.905,29.985-49.613,31.664-55.181c-2.198-3.75-6.222-5.431-9.598-7.841c-6.244-4.458-12.677-8.654-18.852-13.203
	c-1.009-0.743-1.566-2.768-1.486-4.151c0.102-1.764,1.609-2.712,3.519-2.706c1.405,0.005,2.811-0.129,4.216-0.128
	c8.674,0.005,17.347,0.032,26.02,0.049C-548.247,1058.112-545.484,1058.108-541.669,1058.108z M-411.214,857.955
	c-3.759,6.256-7.114,11.802-10.43,17.371c-3.338,5.606-6.677,11.212-9.943,16.86c-3.387,5.858-6.735,11.739-9.998,17.666
	c-1.265,2.298-1.142,4.48,1.324,6.098c0.777,0.51,1.395,1.258,2.157,1.796c7.607,5.377,15.156,10.839,22.894,16.022
	c2.027,1.358,3.264,2.706,2.576,5.039c-0.593,2.01-2.3,2.822-4.357,2.846c-1.405,0.016-2.81,0.028-4.216,0.029
	c-9.602,0.01-19.204-0.008-28.806,0.052c-1.481,0.009-2.96,0.368-4.89,0.625c0.849,1.85,1.328,3.156,2.012,4.345
	c6.969,12.127,13.678,24.419,21.114,36.254c2.788,4.438,3.992,11.031,9.152,12.712c4.874,1.588,10.657,0.401,16.039,0.387
	c0.661-0.002,1.322-0.298,2.299-0.534c0.444-2.233,1.073-4.474,1.307-6.756c0.69-6.726,1.222-13.468,1.819-20.204
	c0.494-5.578,0.939-11.16,1.499-16.731c1.353-13.458,2.755-26.911,4.149-40.365c0.697-6.728,1.499-13.446,2.104-20.182
	c0.376-4.193,0.593-8.411,0.618-12.619c0.008-1.245-0.552-2.811-1.406-3.693C-399.552,869.443-405.064,864.067-411.214,857.955z
	 M-542.668,1083.58c1.832,1.432,2.875,2.347,4.015,3.12c7.342,4.982,14.788,9.813,22.04,14.922
	c10.103,7.118,20.025,14.493,30.097,21.657c12.932,9.198,25.98,18.234,38.872,27.488c2.571,1.846,4.953,2.191,7.856,1.252
	c5.1-1.65,10.266-3.096,15.386-4.689c1.496-0.465,2.928-1.137,4.362-1.703c-2.219-7.024-25.642-47.523-31.455-54.566
	c-0.221,0-0.487-0.076-0.679,0.011c-10.181,4.632-20.387,9.212-30.505,13.979c-1.924,0.907-3.634,1.308-5.151-0.149
	c-1.616-1.552-2.096-3.565-0.958-5.726c0.653-1.238,1.2-2.535,1.9-3.745c4.556-7.869,9.158-15.712,13.703-23.588
	c1.02-1.767,1.872-3.632,3.08-5.997c-2.282-0.124-3.879-0.281-5.477-0.287c-9.142-0.034-18.284-0.04-27.427-0.04
	c-8.439,0.001-16.878,0.037-25.318,0.022c-1.921-0.003-3.856-0.041-4.976,1.863C-536.356,1072.596-539.343,1077.827-542.668,1083.58
	z M-577.284,854.347c5.652,13.032,27.237,49.744,32.014,54.466c10.564-4.725,21.178-9.51,31.829-14.212
	c3.251-1.435,5.535,0.159,5.343,3.729c-0.072,1.338-0.498,2.776-1.157,3.945c-3.669,6.503-7.415,12.962-11.223,19.384
	c-2.293,3.866-4.945,7.55-6.004,12.353c20.755,0,40.839,0,61.076,0c3.555-5.847,7.033-11.568,10.585-17.409
	c-1.574-1.478-2.641-2.746-3.951-3.669c-15.263-10.753-30.544-21.481-45.86-32.158c-7.079-4.935-14.593-9.315-21.283-14.722
	c-8.001-6.466-16.958-11.476-25.096-17.685c-1.841-1.404-3.811-1.501-5.972-0.822c-5.332,1.676-10.702,3.231-16.029,4.922
	C-574.488,852.938-575.866,853.714-577.284,854.347z M-539.736,937.887c-2.732-5.078-5.43-10.002-8.034-14.975
	c-1.216-2.323-2.938-2.882-5.223-1.816c-16.303,7.601-32.579,15.259-48.901,22.817c-6.779,3.139-13.685,6.002-20.471,9.125
	c-11.471,5.28-22.893,10.667-34.335,16.011c-1.722,0.804-3.106,1.682-3.59,3.888c-1.645,7.487-3.558,14.914-5.477,22.809
	c21.529,0,42.735,0,64.203,0c1.061-10.747,2.092-21.192,3.125-31.636c0.161-1.627,0.051-3.344,0.549-4.861
	c1.2-3.656,5.311-4.367,7.685-1.355c1,1.269,1.548,2.886,2.382,4.297c5.551,9.39,11.125,18.767,17.181,28.974
	C-559.615,973.179-549.266,955.791-539.736,937.887z M-426.236,1009.856c-5.271,5.827-27.399,43.596-30.928,52.465
	c2.121,4.061,4.214,8.252,6.476,12.351c2.535,4.595,3.503,4.904,8.336,2.716c11.277-5.103,22.527-10.268,33.785-15.414
	c9.112-4.166,18.221-8.339,27.33-12.512c12.964-5.939,25.931-11.871,38.884-17.832c2.117-0.974,4.516-1.852,5.165-4.386
	c1.934-7.554,4.486-14.979,5.532-23.248c-21.482,0-42.462,0-63.787,0c-0.628,6.317-1.137,12.339-1.848,18.338
	c-0.713,6.01-1.489,12.02-2.561,17.972c-0.236,1.31-1.67,3.071-2.857,3.358c-1.219,0.294-2.977-0.739-4.186-1.619
	c-0.858-0.625-1.188-1.968-1.769-2.981c-4.645-8.102-9.265-16.219-13.968-24.288
	C-423.559,1013.186-424.808,1011.786-426.236,1009.856z M-394.386,995.613c12.554,1.159,57.285,0.8,62.829-0.513
	c-0.501-2.405-0.864-4.898-1.547-7.301c-3.373-11.862-6.974-23.66-10.214-35.558c-2.691-9.882-5.038-19.859-7.442-29.817
	c-0.896-3.71-2.375-6.837-5.268-9.594c-7.115-6.783-13.851-13.962-20.791-20.93c-2.197-2.206-4.555-4.25-7.635-7.106
	c-0.974,7.84-1.98,14.496-2.593,21.189c-1.194,13.028-2.166,26.076-3.235,39.115c-0.458,5.584-0.891,11.17-1.403,16.75
	c-0.873,9.526-1.819,19.046-2.681,28.574C-394.511,992.024-394.386,993.653-394.386,995.613z M-665.426,1004.664
	c0.423,2.322,0.626,4.171,1.103,5.948c6.106,22.735,12.225,45.466,18.418,68.176c0.794,2.911,2.139,5.513,4.441,7.754
	c8.718,8.486,17.235,17.179,25.854,25.767c0.71,0.707,1.626,1.206,3.024,2.222c1.429-13.058,2.899-25.315,4.078-37.599
	c1.16-12.082,2.262-24.18,2.95-36.295c0.693-12.202,3.657-24.281,2.761-36.542C-615.774,1002.872-659.537,1003.256-665.426,1004.664
	z M-455.187,1155.681c-10.309-8.768-21.165-14.721-30.912-22.181c-9.615-7.359-19.442-14.525-29.699-20.941
	c-10.408-6.511-19.296-15.274-31.026-20.98c-10.696,17.725-21.519,35.004-30.944,53.59c2.184,1.083,3.742,2.173,5.469,2.657
	c7.626,2.135,15.3,4.101,22.959,6.116c13.961,3.672,27.945,7.258,41.876,11.04c5.506,1.495,10.761,2.112,16.465,0.393
	C-479.648,1161.954-468.116,1159.139-455.187,1155.681z M-410.245,1141.219c3.05-3.176,6.051-6.417,9.175-9.536
	c15.422-15.398,30.934-30.707,46.244-46.214c1.855-1.879,3.193-4.629,3.903-7.214c2.595-9.446,4.849-18.986,7.171-28.506
	c0.634-2.599,1.057-5.249,1.632-8.155c-9.702,2.611-95.864,42.24-100.044,45.884
	C-434.25,1104.349-415.448,1136.167-410.245,1141.219z M-419.917,853.529c-7.564-2.141-15.125-4.377-22.739-6.417
	c-16.644-4.458-33.324-8.78-49.968-13.238c-4.195-1.124-8.195-1.062-12.396,0.204c-6.246,1.882-12.644,3.256-18.953,4.935
	c-5.555,1.478-11.078,3.076-16.863,4.691c0.494,0.967,0.639,1.769,1.113,2.104c28.404,20.07,56.831,40.105,85.275,60.118
	c1.09,0.767,2.365,1.272,3.486,1.864C-442.099,896.292-421.443,860.242-419.917,853.529z M-655.094,958.211
	c8.986-2.652,96.198-42.616,100.396-46.011c-1.301-2.523-2.55-5.249-4.062-7.818c-3.663-6.222-7.535-12.321-11.162-18.564
	c-4.454-7.666-8.706-15.45-13.138-23.129c-0.873-1.513-2.168-2.782-3.558-4.527c-3.968,4.078-7.507,7.798-11.135,11.429
	c-14.555,14.566-29.111,29.131-43.734,43.629c-2.589,2.567-4.039,5.487-4.922,9.029c-2.481,9.948-5.35,19.798-7.967,29.713
	C-654.832,953.695-654.805,955.555-655.094,958.211z M-341.05,916.384c8.754,8.228,16.136,17.209,26.265,24.89
	c2.074-6.231,3.927-11.425,5.522-16.697c1.617-5.347,3.251-10.715,4.375-16.177c1.087-5.28,3.613-10.358,3.078-16.511
	c-1.792,0.855-3.068,1.381-4.265,2.048c-7.533,4.194-15.218,8.149-22.504,12.737C-332.802,909.334-338.032,910.891-341.05,916.384z
	 M-305.02,1115.363c-14.594-7.236-26.888-16.533-40.946-22.774c-3.124,7.7-9.243,31.301-9.371,35.858
	C-348.346,1128.207-314.983,1119.323-305.02,1115.363z M-503.3,1224.407c1.375-12.315,0.941-42.689-0.568-47.329
	c-6.077,1.479-12.285,2.574-18.2,4.546c-5.765,1.923-12.118,2.423-17.808,6.217C-527.518,1200.195-515.616,1212.094-503.3,1224.407z
	 M-300.953,1107.954c-3.719-17.357-8.379-33.309-13.582-49.762c-10.155,7.507-17.739,16.914-27.001,25.757
	c2.566,2.039,4.518,3.989,6.819,5.348c9.403,5.555,18.902,10.948,28.395,16.35C-304.997,1106.401-303.51,1106.868-300.953,1107.954z
	 M-682.954,1058.378c-2.374,8.261-4.862,16.249-6.943,24.343c-2.055,7.993-4.895,15.846-5.844,25.153
	c12.576-7.044,24.165-13.482,35.681-20.049c1.524-0.869,2.672-2.398,3.974-3.603
	C-663.996,1074.665-675.934,1063.127-682.954,1058.378z M-494.219,1176.573c0,15.907,0,30.812,0,46.309
	c5.922-2.351,8.971-7.18,12.877-10.963c4.198-4.066,8.396-8.135,12.506-12.29c3.872-3.914,7.629-7.942,12.243-12.763
	C-469.593,1183.309-481.449,1180.066-494.219,1176.573z M-691.234,1115.202c1.073,0.645,1.438,0.985,1.865,1.103
	c14.825,4.092,29.648,8.192,44.502,12.178c1.136,0.305,2.494-0.214,4.004-0.377c-1.868-6.347-3.442-12.203-5.328-17.957
	c-1.893-5.776-1.722-12.217-5.331-17.993C-664.893,1099.915-677.813,1107.413-691.234,1115.202z M-540.321,812.544
	c12.93,3.92,24.52,7.925,37.61,9.754c-0.053-15.589,0.223-30.455-0.874-45.746C-515.954,788.04-527.946,799.614-540.321,812.544z
	 M-640.832,870.876c-14.755,1.948-28.102,6.716-41.751,10.121c-2.893,0.722-5.655,1.967-9.926,3.486
	c15.244,6.792,27.324,16.429,41.645,22.824C-647.49,895.055-644.292,883.44-640.832,870.876z M-655.619,915.425
	c-12.259-9.688-26.657-14.751-39.162-23.688c-0.772,7.248,8.545,41.889,13.043,49.337c4.295-3.937,8.653-7.725,12.767-11.762
	C-664.672,925.094-660.608,920.636-655.619,915.425z M-493.37,776.177c-1.278,6.348-1.516,37.755-0.516,46.013
	c10.477-1.313,30.694-7.127,36.423-10.598C-469.517,799.994-480.639,787.603-493.37,776.177z M-306.041,885.03
	c-0.038-0.502-0.075-1.003-0.113-1.505c-8.275-2.285-16.523-4.67-24.831-6.826c-8.18-2.123-16.246-4.882-24.972-5.733
	c2.117,11.722,7.908,31.365,10.626,35.726C-331.58,900.723-319.691,891.261-306.041,885.03z M-677.248,1004.144
	c-14.822-1.508-40.849-0.918-44.875,0.907c0.164,0.417,0.22,0.942,0.509,1.234c4.25,4.285,8.537,8.533,12.805,12.801
	c5.922,5.921,11.822,11.864,17.766,17.763c1.059,1.051,2.284,1.935,3.893,3.282
	C-682.518,1028.105-680.369,1016.258-677.248,1004.144z M-310.506,959.878c-3.22,11.833-6.913,23.427-9.033,35.461
	c8.204,1.335,39.83,1.138,44.589-0.203C-278.265,989.864-305.491,962.743-310.506,959.878z M-557.981,1181.914
	c-9.518-8.031-16.074-18.535-26.754-26.249c-6.57,13.91-15.917,25.217-22.047,39.743
	C-589.867,1191.006-573.778,1187.795-557.981,1181.914z M-440.597,816.902c9.847,9.826,18.488,18.449,27.648,27.59
	c7.729-13.408,15.08-26.161,23.291-40.406C-407.177,808.493-423.081,812.494-440.597,816.902z M-627.574,857.488
	c16.653-2.931,31.96-7.168,35.918-10.103c-8.279-12.105-14.195-25.696-22.929-38.149
	C-617.813,816.387-627.571,853.055-627.574,857.488z M-405.141,1150.848c0.509,1.778,0.633,3.204,1.282,4.327
	c6.303,10.905,12.68,21.768,19.086,32.614c0.568,0.962,1.493,1.713,2.457,2.792c0.727-1.618,1.482-2.841,1.843-4.171
	c3.303-12.145,6.569-24.3,9.765-36.474c0.675-2.572,1.023-5.229,1.617-8.346C-381.516,1144.781-393.19,1147.779-405.141,1150.848z
	 M-395.524,1139.233c10.448-1.549,20.441-4.055,30.15-8.039c2.065-9.786,5.326-19.101,6.591-29.075
	C-371.555,1114.043-384.239,1125.833-395.524,1139.233z M-326.226,982.346c0.973-1.175,1.635-1.631,1.803-2.226
	c2.403-8.53,4.812-17.06,7.002-25.646c0.287-1.125-0.237-2.936-1.054-3.786c-6.579-6.848-13.319-13.542-20.812-21.091
	c0,2.426-0.244,3.616,0.037,4.665C-335.001,950.109-330.683,965.938-326.226,982.346z M-657.907,1070.043
	c0.112-1.832,0.327-2.546,0.168-3.164c-3.886-15.075-7.774-30.149-11.79-45.189c-0.372-1.393-1.603-2.556-2.896-4.528
	c-2.397,9.44-4.413,18.03-6.821,26.509c-0.82,2.888-0.375,4.763,1.749,6.817C-671.151,1056.624-664.987,1062.947-657.907,1070.043z
	 M-631.402,867.801c-2.575,9.83-5.144,19.637-7.7,29.395c0.676,0.247,0.981,0.434,1.046,0.372
	c10.374-9.995,20.766-19.971,31.057-30.05c2.103-2.06,3.824-4.511,6.319-7.498C-611.895,860.966-621.255,865.184-631.402,867.801z
	 M-428.673,840.651c-4.324-4.494-8.773-8.876-12.938-13.513c-4.661-5.191-9.653-8.716-16.916-5.223
	c-0.198,0.095-0.468,0.029-0.69,0.089c-6.9,1.866-13.798,3.738-22.349,6.058C-463.054,833.453-446.358,838.836-428.673,840.651z
	 M-569.181,1158.414c5.861,5.957,11.845,11.8,17.529,17.921c2.797,3.012,5.716,3.432,9.462,2.407
	c6.956-1.903,13.994-3.509,20.994-5.255c0.672-0.168,1.337-0.408,1.964-0.702c0.632-0.297,1.213-0.702,2.46-1.442
	C-534.51,1166.149-551.335,1160.998-569.181,1158.414z M-437.542,1168.723c-4.528-6.132-9.204-7.901-15.681-5.563
	c-6.784,2.449-13.815,4.213-20.732,6.294c-1.953,0.587-3.889,1.234-6.254,1.987c1.102,0.62,1.668,1.108,2.317,1.278
	c8.322,2.179,16.645,4.357,24.995,6.424c2.079,0.515,3.855,0.238,5.606-1.676C-444.495,1174.408-441.123,1171.876-437.542,1168.723z
	 M-359.379,898.028c0.458-0.324,0.916-0.648,1.374-0.972c-2.309-8.709-4.591-17.426-6.95-26.121
	c-0.486-1.792-1.151-3.437-3.393-3.999c-4.454-1.116-8.843-2.49-13.588-3.851c-1.334,4.348-2.863,8.774,0.182,12.134
	C-374.609,883.105-366.875,890.459-359.379,898.028z M-316.964,1047.524c-2.158-5.071-1.333-10.964-4.64-15.544
	c-2.205,0.585-4.135,0.805-5.785,1.604c-2.304,1.115-4.166,2.626-4.876,5.523c-2.1,8.575-4.579,17.057-6.789,25.607
	c-0.342,1.323-0.048,2.811-0.048,4.773C-331.413,1061.859-324.302,1054.805-316.964,1047.524z M-675.906,968.445
	c2.185-0.858,3.239-1.344,4.338-1.692c4.411-1.395,6.541-4.132,7.412-8.945c1.44-7.954,3.988-15.706,5.98-23.565
	c0.274-1.082,0.038-2.294,0.038-4.364c-7.049,7.052-13.488,13.386-19.764,19.878c-1.007,1.042-2.015,2.933-1.769,4.186
	C-678.749,958.639-677.308,963.233-675.906,968.445z M-517.329,828.528c-0.041-0.378-0.083-0.755-0.124-1.133
	c-8.991-2.261-17.958-4.629-26.996-6.683c-1.605-0.365-4.03-0.007-5.173,1.022c-3.378,3.04-7.179,5.818-9.495,10.045
	c1.362,1.121,2.6,1.852,3.454,2.895c2.661,3.251,6.07,3.212,9.596,2.268c6.511-1.742,12.985-3.627,19.459-5.507
	C-523.495,830.53-520.42,829.5-517.329,828.528z M-615.089,1135.725c1.948-8.291,2.083-8.417-3.002-13.908
	c-4.898-5.289-10.128-10.27-15.189-15.41c-1.741-1.768-3.412-3.605-5.166-5.464c-0.388,0.528-0.681,0.756-0.644,0.9
	c2.339,9.245,4.663,18.495,7.133,27.705c0.259,0.966,1.244,2.139,2.158,2.46C-625.016,1133.691-620.289,1135.74-615.089,1135.725z
	 M-316.179,1018.588c13.447-3.816,27-10.388,30.771-14.96c-5.77,0-11.352-0.129-16.926,0.036
	c-5.681,0.168-11.435-0.711-17.464,0.669C-318.563,1009.197-317.435,1013.641-316.179,1018.588z M-677.464,995.015
	c-0.52-2.475-0.861-4.513-1.388-6.502c-0.642-2.422-1.44-4.803-2.161-7.171c-9.999,2.265-25.706,9.741-29.723,14.086
	C-703.295,996.529-683.324,996.382-677.464,995.015z M-423.829,1166.474c7.633,6.822,22.92,17.182,28.463,19.154
	c-5.8-9.992-11.335-19.528-17.039-29.356C-417.702,1158.629-420.527,1162.777-423.829,1166.474z M-584.243,844.083
	c3.041-2.709,5.394-4.564,7.46-6.698c3.673-3.795,3.53-5.215-0.802-8.269c-6.678-4.708-13.432-9.309-20.177-13.922
	c-0.89-0.609-1.912-1.023-2.874-1.528C-595.843,823.834-590.511,833.47-584.243,844.083z M-609.717,1182.734
	c6.475-11.163,12.172-20.984,18.257-31.476c-5.238-1.437-10.004-2.744-15.361-4.213
	C-607.897,1158.971-610.046,1169.921-609.717,1182.734z M-386.966,817.771c-2.044,2.374-3.139,3.276-3.765,4.432
	c-3.87,7.149-7.56,14.384-12.454,20.944c-1.1,1.474-1.228,3.673-1.899,5.847c5.185,1.241,9.76,2.335,14.524,3.475
	C-389.371,840.993-388.255,830.217-386.966,817.771z M-590.944,809.915c6.572,4.748,13.075,9.595,19.741,14.206
	c3.968,2.745,5.054,2.524,8.426-0.813c1.728-1.711,3.297-3.583,5.486-5.984C-568.57,813.166-579.398,811.098-590.944,809.915z
	 M-712.33,983.941c10.256-3.398,20.313-6.691,28.934-13.047c-1.358-3.892-1.501-7.914-4.62-11.136
	C-696.31,968.008-704.32,975.974-712.33,983.941z M-310.129,1041.17c7.976-9.021,16.936-15.634,24.459-25.524
	c-10.838,2.979-19.371,7.879-28.103,12.566C-312.636,1032.258-311.588,1035.983-310.129,1041.17z M-406.22,1189.935
	c-6.897-4.972-13.804-9.93-20.684-14.925c-1.633-1.185-3.446-2.041-5.113-0.589c-2.703,2.355-5.866,4.439-7.172,8.569
	C-428.07,1185.711-417.574,1189.339-406.22,1189.935z M-628.143,1143.225c2.583,11.068,6.236,21.695,9.948,32.429
	c0.881-10.088,1.762-20.176,2.617-29.968C-621.562,1142.75-621.562,1142.75-628.143,1143.225z M-368.476,858.085
	c-1.797-6.361-3.303-11.68-4.801-17c-1.496-5.314-2.985-10.631-4.476-15.946c-0.476,0.058-0.952,0.117-1.429,0.175
	c-0.791,9.822-1.583,19.643-2.383,29.578C-377.126,855.974-373.355,856.894-368.476,858.085z M-429.947,933.97
	c-5.763-4.369-10.469-8.051-15.31-11.546c-1.793-1.295-3.675-0.759-4.719,1.197c-1.706,3.195-3.199,6.503-5.067,10.35
	C-446.624,933.97-439.025,933.97-429.947,933.97z M-548.715,1078.566c2.216-4.41,4.235-8.427,6.331-12.597
	c-8.077,0-15.557,0-23.845,0C-560.76,1071.345-555.526,1075.409-548.715,1078.566z M-522.65,908.57
	c-0.292-0.293-0.584-0.587-0.877-0.88c-5.984,2.945-11.968,5.89-18.205,8.96c2.018,4.343,3.76,8.532,7.329,12.88
	C-530.226,922.082-526.438,915.326-522.65,908.57z M-404.467,1005.275c-4.814-2.542-9.225-1.862-14.31-0.826
	c3.253,7.555,7.929,13.477,12.385,21.501C-405.656,1018.05-405.083,1011.896-404.467,1005.275z M-577.907,995.76
	c-4.218-7.596-7.764-14.193-12.787-20.077c0.16,6.712-2.714,13.108-1.411,20.077C-587.454,995.76-583.371,995.76-577.907,995.76z
	 M-463.031,1070.406c-2.334,4.144-4.562,7.185-5.811,10.587c-1.155,3.145-5.435,5.295-3.386,10.222
	c5.615-2.826,10.894-5.482,16.596-8.352C-457.132,1078.342-459.528,1074.775-463.031,1070.406z"/>
</svg>
