<?xml version="1.0" encoding="utf-8"?>
<!-- Generator: Adobe Illustrator 21.0.0, SVG Export Plug-In . SVG Version: 6.00 Build 0)  -->
<svg version="1.1" id="Laag_1" xmlns="http://www.w3.org/2000/svg" xmlns:xlink="http://www.w3.org/1999/xlink" x="0px" y="0px"
	 viewBox="0 0 181.6 181.6" style="enable-background:new 0 0 181.6 181.6;" xml:space="preserve">
<style type="text/css">
	.st0{fill:#598282;}
	.st1{fill:#FBBB31;}
	.st2{fill:#326464;}
	.st3{fill:#FAAA00;}
</style>
<title>kmd</title>
<g id="Laag_3">
	<g id="Layer_1-2">
		<g id="Layer_1-3">
			<g id="_898344032">
				<path class="st0" d="M25.2,151.5l4.6,4.6c20.3,8.5,40.6,17.1,61,25.5v-37l-38-15.7l-15.7-38l15.7-38L25.2,30.1L0,90.8
					L25.2,151.5z"/>
				<path class="st1" d="M90.8,0c-20.3,8.4-40.7,17-61,25.5l-4.6,4.6l27.6,22.7l38-15.7L90.8,0z"/>
				<polygon class="st0" points="90.8,52.8 63.9,64 52.8,90.8 63.9,117.7 90.8,128.8 				"/>
				<path class="st2" d="M90.8,181.6c20.3-8.4,40.6-17,60.9-25.5l4.6-4.6l25.2-60.7l-25.2-60.7l-27.6,22.7l15.7,38l-15.7,38
					l-38,15.7V181.6z"/>
				<path class="st3" d="M156.4,30.1l-4.6-4.7C131.4,17,111.1,8.5,90.8,0v37l38,15.7L156.4,30.1z"/>
				<polygon class="st2" points="90.8,128.8 117.7,117.7 128.8,90.8 117.7,64 90.8,52.8 				"/>
			</g>
		</g>
	</g>
</g>
</svg>
