<?xml version="1.0" encoding="iso-8859-1"?>
<!-- Generator: Adobe Illustrator 19.0.0, SVG Export Plug-In . SVG Version: 6.00 Build 0)  -->
<svg version="1.1" id="Layer_1" xmlns="http://www.w3.org/2000/svg" xmlns:xlink="http://www.w3.org/1999/xlink" x="0px" y="0px"
	 viewBox="1000 -999.5 2500 2500" style="enable-background:new 1000 -999.5 2500 2500;" xml:space="preserve">
<path style="fill:#8F161D;" d="M2564.219-391.047c-7.942,7.942-13.236,21.839-13.236,35.075c0,11.912-5.956,70.812-13.236,131.036
	c-7.28,59.562-19.192,162.14-26.472,227.658c-7.941,65.518-18.53,154.86-23.163,198.539c-5.294,44.34-9.927,91.328-9.927,105.887
	c0,13.898-1.324,23.825-3.309,21.839c-1.985-1.985-14.56-67.503-27.134-144.933c-25.81-156.184-33.09-174.052-64.856-159.493
	c-17.868,7.942-16.545,2.647-53.605,158.169l-24.487,101.255h-633.338c-483.772,0-635.324,1.985-641.28,7.942
	c-9.927,9.927-9.927,33.752,0,43.679c5.956,5.956,162.14,7.942,661.796,7.942h653.854l8.603-15.221
	c5.294-7.942,13.236-32.428,17.868-54.267s10.589-42.355,13.236-45.002c2.647-2.647,17.207,74.783,33.09,172.067
	c30.443,191.921,35.737,206.48,68.827,197.877c10.589-2.647,18.53-10.589,21.177-20.516c1.985-9.265,17.868-142.286,35.075-296.484
	c35.737-315.676,33.09-313.691,50.297-31.104c35.737,573.777,40.369,635.324,51.62,646.574
	c13.898,13.898,42.355,5.956,48.311-13.236c2.647-7.942,19.854-132.359,39.046-275.969
	c35.737-271.336,37.061-275.307,48.973-160.155c6.618,60.885,14.559,75.445,39.708,72.798c14.559-1.985,23.824-14.56,62.209-86.695
	l45.664-84.048h389.798l16.545,19.854c37.061,43.678,105.887,36.399,132.359-13.898c27.134-52.282-11.912-118.461-70.15-118.461
	c-25.148,0-56.914,15.883-66.179,33.09c-6.618,12.574-13.898,13.236-217.069,13.236c-158.169,0-213.098,1.985-221.04,7.942
	c-5.956,4.633-20.516,27.134-31.766,50.296c-11.912,23.163-21.839,41.031-23.163,39.708c-0.662-1.324-9.927-73.459-19.854-160.816
	c-9.927-87.357-21.177-162.802-24.487-167.434c-11.912-13.898-44.34-9.927-51.62,6.618c-3.309,8.603-13.236,76.106-23.163,150.889
	c-9.265,74.783-21.177,166.111-26.472,202.509c-5.294,37.061-9.927,76.768-9.927,88.019c0,12.574-2.647,19.854-6.618,17.207
	c-3.309-1.985-6.618-23.825-6.618-48.311c0-24.486-5.956-129.05-13.236-232.952s-17.207-260.086-23.163-347.443
	c-17.207-269.351-17.207-270.674-28.457-283.248C2592.014-407.591,2580.763-407.591,2564.219-391.047z"/>
<path style="fill:#404040;" d="M1169.153,47.062l1.985,167.434h59.562l1.985-64.856l1.985-64.194h18.53
	c15.883,0,23.825,8.603,62.87,66.18l43.679,66.18h33.09c18.53,0,33.09-2.647,33.09-5.294c0-3.309-20.516-35.737-45.664-72.798
	l-46.326-66.841l21.839-13.898c43.017-26.472,56.914-90.666,28.457-133.021c-21.177-32.428-63.532-45.002-148.904-45.664h-67.503
	L1169.153,47.062L1169.153,47.062z M1323.352-50.222c21.839,21.839,21.177,46.326-2.647,70.15
	c-16.545,15.883-24.486,19.192-52.944,19.192h-33.752V-66.767h36.399C1300.851-66.767,1310.116-64.12,1323.352-50.222z
	 M1459.02,49.047v168.758h211.775v-52.944h-145.595V72.21h112.505V19.267h-112.505v-86.033h145.595v-52.944H1459.02V49.047z
	 M1716.458-115.078V52.356l0.662,162.14h81.401c93.975,0,127.727-9.927,165.449-47.649c34.413-33.752,46.326-70.15,43.678-129.712
	c-3.309-64.856-26.472-103.24-78.754-133.021c-35.075-19.854-40.37-20.516-123.756-22.501
	C1756.828-119.71,1717.12-118.387,1716.458-115.078z M1895.805-51.545c34.413,22.501,48.311,51.62,48.311,100.593
	c0,46.987-12.574,75.445-43.678,98.608c-14.56,10.589-31.104,14.56-71.474,16.545l-52.282,1.985V-66.767h48.973
	C1864.701-66.767,1877.936-64.12,1895.805-51.545z M2011.619,406.417c-3.309,1.324-12.64,1.324-21.905,3.309
	c-37.722,7.942-71.408,64.856-62.804,106.549c5.956,29.781,29.119,48.973,76.768,64.856c24.486,8.603,48.311,21.177,53.605,27.795
	c10.589,15.221,6.618,38.384-7.941,50.296c-16.545,13.236-60.224,9.927-86.033-5.956l-23.163-13.898l-11.912,14.56
	c-17.869,21.839-15.883,29.781,13.236,45.664c33.09,18.53,78.754,25.148,108.534,15.221c29.781-9.927,62.209-46.326,68.165-76.768
	c9.265-50.297-11.912-78.754-78.754-102.578c-51.62-18.53-57.576-23.825-57.576-46.988c0-32.428,39.708-42.355,84.048-21.177
	c23.163,10.589,23.824,10.589,35.737-5.294c6.618-8.603,11.25-18.53,10.589-21.839
	C2107.58,424.947,2037.032,400.858,2011.619,406.417z M1167.83,561.939v152.213h59.562V608.265h38.384
	c74.121-0.662,120.447-38.384,120.447-99.269c0-70.15-44.34-98.608-150.228-99.269h-68.165V561.939L1167.83,561.939z
	 M1309.454,469.949c22.501,17.868,23.825,54.267,2.647,76.768c-11.25,11.912-21.177,15.221-49.635,15.221h-35.075V456.052h32.428
	C1282.32,456.052,1296.88,460.022,1309.454,469.949z M1419.312,518.922c0,95.96,1.324,113.167,13.236,135.006
	c45.002,88.019,181.332,87.357,224.349-0.662c12.574-26.472,13.898-41.031,13.898-136.33V409.726h-58.9l-1.985,112.505
	c-1.985,106.549-2.647,113.167-17.207,127.065c-21.177,21.177-74.121,21.839-95.299,0c-14.559-13.898-15.221-21.177-18.53-125.741
	l-3.309-110.52l-27.795-1.985l-28.457-1.985V518.922z M1717.12,561.939v152.213h178.685v-46.326h-119.123v-258.1h-59.562V561.939z
	 M2153.905,561.939v152.213h191.921v-46.326h-132.359v-86.033h105.887v-39.708h-105.887v-86.033h132.359v-46.326h-191.921V561.939z"
	/>
</svg>
