<svg width="80" height="80" viewBox="0 0 80 80" fill="none" xmlns="http://www.w3.org/2000/svg">
<g clip-path="url(#clip0)">
<path d="M49.8147 49.9495H30.0357V30.0533H49.8147V49.9495ZM79.659 16.6518C78.8413 11.9144 76.2402 7.42897 72.4663 4.4452C68.9638 1.56092 64.4757 0.0112251 59.9476 0.00737104C46.5194 0.00316656 33.0798 -0.00874556 19.6516 0.0112257C12.6422 0.0911107 6.01981 4.15334 2.60906 10.2568C0.714203 13.5325 0.00384921 17.2152 0 20.9698C0.00804835 33.2168 -0.00384921 45.4714 0.00384921 57.7184C-0.0199459 60.5665 0.103579 63.3026 0.993446 66.0348C2.97194 72.3661 8.30974 77.491 14.6847 79.2761C12.7577 77.7383 11.9042 75.5975 11.2778 73.2805C9.98135 68.1998 9.88162 62.9232 10.0891 57.7184C10.0692 45.4676 10.0968 33.2168 10.073 20.9698C10.093 18.8609 10.2487 16.8796 11.3258 15.0142C12.9851 12.0385 16.2206 10.0491 19.6516 10.0932C32.4135 10.0852 45.1915 10.0971 57.953 10.089C59.8801 10.0932 61.6311 9.94921 63.4745 10.6486C66.5381 11.6667 68.9677 14.4109 69.6378 17.5667C70.0168 19.4201 69.917 21.4772 69.9209 23.3664V59.3161C69.9209 61.0816 69.7256 62.8072 68.9677 64.421C67.4039 67.6963 64.0211 69.9692 60.3549 69.9015C50.2535 69.9173 40.1406 69.8973 30.0396 69.9092C30.02 66.614 30.0238 63.3145 30.0357 60.0154C38.2814 60.0154 46.5236 60.0031 54.7697 60.0231C56.5449 60.1191 58.5874 59.2204 59.4052 57.5828C59.8678 56.7478 59.9437 55.8568 59.9637 54.9262C59.9556 44.9364 59.9598 34.9504 59.9598 24.9602C60.0396 23.111 59.1459 21.4611 57.5103 20.5823C56.146 19.7877 54.6857 19.9912 53.166 19.9632C43.727 19.987 34.2765 19.9513 24.8417 19.9832C22.1407 19.9152 19.891 22.268 19.9746 24.9602C19.9347 39.3122 19.9746 53.7441 19.9547 68.1038C20.0306 70.9558 19.9386 73.66 21.5902 76.1287C22.843 78.1696 24.9614 79.2043 27.2391 79.6559C29.9322 80.0911 32.509 79.9874 35.214 79.9912C43.4597 79.9951 51.7019 79.9874 59.9476 79.9993C64.0487 80.0354 68.0421 78.705 71.4091 76.3841C75.0193 73.7199 77.8202 70.0452 79.1086 65.7153C79.9981 62.7872 79.982 59.9432 79.9981 56.9195C79.9981 45.4676 80.0023 34.0195 79.9981 22.5675C79.982 20.6023 79.9624 18.5971 79.659 16.6518" fill="#46D593"/>
</g>
<defs>
<clipPath id="clip0">
<rect width="80" height="80" fill="white"/>
</clipPath>
</defs>
</svg>
