<?xml version="1.0" encoding="utf-8"?>
<!-- Generator: Adobe Illustrator 23.0.3, SVG Export Plug-In . SVG Version: 6.00 Build 0)  -->
<svg version="1.1" id="xlq" xmlns="http://www.w3.org/2000/svg" xmlns:xlink="http://www.w3.org/1999/xlink" x="0px" y="0px"
	 viewBox="0 0 500 500" style="enable-background:new 0 0 500 500;" xml:space="preserve">
<style type="text/css">
	.st0{fill:url(#SVGID_1_);}
	.st1{fill:url(#SVGID_2_);}
</style>
<linearGradient id="SVGID_1_" gradientUnits="userSpaceOnUse" x1="116.6846" y1="213.3877" x2="428.069" y2="506.3311">
	<stop  offset="0" style="stop-color:#D72C13"/>
	<stop  offset="5.612803e-02" style="stop-color:#DF3E19"/>
	<stop  offset="0.1461" style="stop-color:#E85521"/>
	<stop  offset="0.2514" style="stop-color:#EF6628"/>
	<stop  offset="0.3797" style="stop-color:#F4722C"/>
	<stop  offset="0.5556" style="stop-color:#F7792E"/>
	<stop  offset="1" style="stop-color:#F87B2F"/>
</linearGradient>
<path class="st0" d="M235.4,22.2l164.1,274.7c0,0,20.1,34.3,44.8,65.3c28,35,52.4,47.8,52.4,47.8l-23.2,19.9
	c-67.2,57.4-166.7,55.3-231.4-4.9L228.3,412c-56.1-52.2-140.7-59-204.3-16.3L3.3,409.6L235.4,22.2z"/>
<linearGradient id="SVGID_2_" gradientUnits="userSpaceOnUse" x1="246.9787" y1="477.5682" x2="374.8911" y2="273.3365">
	<stop  offset="0.4681" style="stop-color:#F46111"/>
	<stop  offset="0.5177" style="stop-color:#EC5910"/>
	<stop  offset="1" style="stop-color:#9F0902"/>
</linearGradient>
<path class="st1" d="M441.9,421c-56,0-112-97.5-112-97.5l-94.7-158.3L113.8,367.8c41.3-0.5,82.5,14.5,114.5,44.2l13.8,12.9
	c64.7,60.2,164.2,62.3,231.4,4.9l23.2-19.9C496.7,409.9,475,421,441.9,421z"/>
</svg>
