<?xml version="1.0" encoding="iso-8859-1"?>
<!-- Generator: Adobe Illustrator 19.0.0, SVG Export Plug-In . SVG Version: 6.00 Build 0)  -->
<svg version="1.1" id="Layer_1" xmlns="http://www.w3.org/2000/svg" xmlns:xlink="http://www.w3.org/1999/xlink" x="0px" y="0px"
	 viewBox="1000 -1000 2500 2500" style="enable-background:new 1000 -1000 2500 2500;" xml:space="preserve">
<path style="fill:#ED8117;" d="M1877.835,834.022c109.057,77.388,309.024-19.105,450.781-215.403c2-2.601,4.147-5.031,6.024-7.755
	c77.977-111.425,51.105-265.477-59.89-344.251c-110.996-78.774-264.164-52.283-342.031,59.118c-1.914,2.736-3.485,5.583-5.264,8.368
	C1791.637,534.643,1768.79,756.708,1877.835,834.022"/>
<path style="fill:#EEBB18;" d="M1989.395,685.59c75.903,52.553,216.028-14.332,315.858-149.401c1.46-1.791,2.957-3.46,4.319-5.337
	c54.137-74.845,37.35-179.406-37.495-233.543c-0.991-0.717-1.99-1.423-2.996-2.118c-77.302-53.571-184.482-34.81-239.366,41.841
	c-1.399,1.89-2.454,3.841-3.681,5.73C1930.29,480.715,1913.443,633,1989.395,685.59"/>
<g>
	<path style="fill:#5B6A72;" d="M1518.099,47.812c-11.448,14.724-17.092,36.909,14.012,27.227
		c88.725-27.596,289.87-59.805,523.347,102.149c315.343,218.703,289.735-348.153,289.735-348.153
		C2270.308-222.855,1893.516-433.485,1518.099,47.812 M2716.855,902.391c1.337,32.037,20.246,19.448,30.16,3.963
		c324.595-507.273,1.423-786.738-72.247-838.886c0,0-538.782,163.978-228.642,383.761
		C2675.763,613.945,2712.978,811.04,2716.855,902.391"/>
</g>
<path style="fill:#DCF2F9;" d="M2389.292,537.207c61.572,45.522,98.812,52.946,143.561-2.331s280.091-331.294,515.211-635.594
	s91.695-827.941,63.473-848.8l-0.368,0.442l0.245-0.552c-28.221-20.859-546.795,13.853-740.847,348.472
	s-362.656,659.926-397.197,722.7c-34.541,62.774-15.35,97.155,46.209,142.641c28.05,20.675,107.032,79.032,184.85,136.505
	C2282.247,458.163,2361.242,516.532,2389.292,537.207"/>
<path style="fill:#5B6A72;" d="M2458.679,604.447h-2.552c-28.099-0.761-57.4-13.325-97.965-42.038
	c-28.528-20.172-107.977-76.394-187.206-132.518l-4.663-3.301l-124.64-88.173l-67.29-47.608
	c-40.492-28.688-62.148-52.136-72.283-78.431c-15.865-41.13,1.227-78.848,15.424-103.646c7.448-12.982,21.08-37.534,39.939-71.51
	c69.314-124.898,213.501-384.804,372.878-648.048c57.351-94.738,145.046-174.236,260.655-236.409
	c61.105-32.835,163.193-78.038,302.214-106.934c54.958-11.423,111.29-19.166,158.616-21.829c72.541-4.074,85.413,5.055,91.609,9.448
	l0.577,0.417c6.356,4.528,19.105,14.871,39.265,83.363c13.497,45.903,25.215,102.051,32.994,158.101
	c21.35,153.745,32.528,442.192-132.432,646.637c-193.083,239.415-388.117,463.382-481.849,570.955
	c-25.522,29.313-43.964,50.479-53.621,61.903c-14.062,16.626-27.865,28.651-42.209,36.81
	C2491.714,599.987,2475.348,604.404,2458.679,604.447 M3086.236-915.824c-50.786,0-161.794,10.466-286.987,48.798
	c-135.708,41.51-318.153,125.192-416.56,287.87c-158.812,262.25-302.656,521.481-371.786,646.048
	c-18.982,34.209-32.7,58.897-40.369,72.283c-16.516,28.786-14.724,42.479-11.411,51.191c5.338,13.828,21.399,29.878,50.553,50.516
	l67.302,47.608l124.64,88.173l4.675,3.313c79.228,56.075,158.665,112.284,187.193,132.518
	c60.124,42.541,77.952,38.577,108.161,2.883c9.939-11.755,28.504-33.129,54.197-62.578
	c93.486-107.327,288.005-330.668,480.315-569.126c119.389-148.003,136.37-348.853,129.61-491.285
	c-7.362-154.285-44.087-277.011-58.762-307.343c-6.904-0.663-13.838-0.97-20.773-0.92"/>
<path style="fill:#FEFEFE;" d="M2579.147-213.248c98.247,69.253,234.004,45.706,303.073-52.553
	c69.069-98.259,45.633-234.016-52.614-303.269c-98.247-69.253-233.955-45.755-303.073,52.541
	C2457.415-418.233,2480.937-282.513,2579.147-213.248"/>
<path style="fill:#5B6A72;" d="M2703.947-142.768c-137.212-0.402-248.119-111.96-247.717-249.173
	c0.149-50.933,15.949-100.59,45.26-142.245c78.821-112.05,233.553-138.987,345.603-60.166c0.09,0.063,0.179,0.126,0.269,0.189
	c111.941,78.909,138.861,234.139,60.013,346.018c-37.756,53.972-95.551,90.578-160.481,101.646
	C2732.711-144.027,2718.343-142.779,2703.947-142.768 M2704.72-578.187c-10.837,0-21.654,0.931-32.332,2.785
	c-48.847,8.347-92.319,35.903-120.714,76.517c-59.302,84.271-39.044,201.157,45.167,260.544
	c84.291,59.438,200.807,39.291,260.245-45c0.03-0.043,0.061-0.086,0.091-0.129c59.375-84.259,39.093-201.12-45.191-260.532
	C2780.635-566.232,2743.153-578.177,2704.72-578.187"/>
<g>
	<path style="fill:#979797;" d="M1271.837,1459.198l344.653-484.975L1641.503,992l-344.653,484.975L1271.837,1459.198z
		 M1469.435,1397.379l201.617-285.043l25.164,17.799L1494.6,1415.178L1469.435,1397.379z"/>
</g>
</svg>
