<?xml version="1.0" encoding="utf-8"?>
<!-- Generator: Adobe Illustrator 23.0.3, SVG Export Plug-In . SVG Version: 6.00 Build 0)  -->
<svg version="1.1" id="zen" xmlns="http://www.w3.org/2000/svg" xmlns:xlink="http://www.w3.org/1999/xlink" x="0px" y="0px"
	 viewBox="0 0 500 500" style="enable-background:new 0 0 500 500;" xml:space="preserve">
<style type="text/css">
	.st0{fill:url(#SVGID_1_);}
	.st1{fill:url(#SVGID_2_);}
	.st2{fill:#041742;}
</style>
<g>
	<linearGradient id="SVGID_1_" gradientUnits="userSpaceOnUse" x1="197.6632" y1="373.8017" x2="334.6132" y2="236.8517">
		<stop  offset="0" style="stop-color:#0B95DC"/>
		<stop  offset="1" style="stop-color:#37D295"/>
	</linearGradient>
	<path class="st0" d="M371.3,273.6c-20-4.6-40.7-7-61.7-7c-59.3,0-115.8,19-162.4,54c22.4,32.4,59.8,53.7,102.2,53.7
		C310,374.2,360.4,330.9,371.3,273.6z"/>
</g>
<linearGradient id="SVGID_2_" gradientUnits="userSpaceOnUse" x1="178.6338" y1="524.7494" x2="524.0784" y2="179.3049">
	<stop  offset="0" style="stop-color:#0B95DC"/>
	<stop  offset="1" style="stop-color:#37D295"/>
</linearGradient>
<path class="st1" d="M477.6,153.7c-7.1-16.8-16-32.7-26.5-47.4l-41.3,62.2c12.5,24.5,19.5,52.2,19.5,81.6
	c0,99.3-80.5,179.8-179.8,179.8c-29.2,0-56.8-7-81.2-19.3l-62.8,41c14.8,10.6,30.7,19.5,47.6,26.7c30.6,12.9,63,19.5,96.4,19.5
	s65.8-6.6,96.4-19.5c29.5-12.5,56-30.3,78.7-53s40.6-49.2,53-78.7c12.9-30.6,19.5-63,19.5-96.4S490.5,184.3,477.6,153.7z"/>
<path class="st2" d="M249.5,126c-68.5,0-124.1,55.6-124.1,124.1c0,6.4,0.5,12.7,1.5,18.8c0,0,0,0,0,0
	c-16.7,11.4-32.3,24.3-46.8,38.8c-0.2,0.2-0.4,0.4-0.6,0.6c0.8,2.4-9.7-35.2-9.7-58.3c0-99.3,80.5-179.8,179.8-179.8
	c29.4,0,57.1,7.1,81.7,19.6l62.4-41.1c-14.8-10.6-30.7-19.6-47.7-26.7c-30.6-12.9-63-19.5-96.4-19.5S183.6,9.1,153.1,22
	c-29.5,12.5-56,30.3-78.7,53s-40.6,49.2-53,78.7c-12.9,30.6-19.5,63-19.5,96.4s6.6,65.8,19.5,96.4c7.8,18.5,17.8,35.9,29.8,51.9
	c11.6-21.5,25.8-41.3,42.1-59.2c-1.2-2.2-1.2-2.2,0,0c0,0,0,0,0,0c13.1-14.3,27.6-27.3,43.3-38.8c-0.1,0.1-1.2-1.4-0.4,0.3
	C184.7,265,244.7,244,309.6,244c22,0,43.3,2.4,63.9,7c0-0.3,0-0.6,0-0.8C373.6,181.6,318,126,249.5,126z"/>
</svg>
